<?xml version="1.0" encoding="UTF-8" ?>
<!DOCTYPE svg PUBLIC "-//W3C//DTD SVG 1.1//EN" "http://www.w3.org/Graphics/SVG/1.1/DTD/svg11.dtd">
<svg width="296pt" height="220pt" viewBox="0 0 296 220" version="1.1" xmlns="http://www.w3.org/2000/svg">
<g id="#2ab088ff">
<path fill="#2ab088" opacity="1.00" d=" M 3.33 27.20 C 5.62 14.41 16.99 4.11 29.90 2.91 C 43.10 1.35 56.44 9.60 61.27 21.92 C 61.16 22.63 60.94 24.06 60.83 24.77 C 59.40 24.21 57.98 23.66 56.57 23.08 C 53.27 21.92 50.31 19.60 46.73 19.41 L 46.40 19.55 C 43.77 17.08 39.48 16.04 36.42 18.35 C 32.67 21.30 28.38 24.87 28.66 30.15 C 23.39 29.70 19.69 33.95 16.66 37.63 C 14.35 40.55 15.25 44.68 17.37 47.44 C 19.00 48.37 20.72 49.13 22.44 49.86 C 27.76 52.47 33.52 53.95 38.94 56.30 C 41.65 57.25 44.30 58.37 46.76 59.86 C 40.01 63.37 32.08 63.88 24.74 62.19 C 10.04 58.21 -0.01 42.15 3.33 27.20 Z" />
<path fill="#2ab088" opacity="1.00" d=" M 181.99 3.02 C 196.41 0.81 211.70 10.69 215.09 24.96 C 215.09 25.38 215.11 26.24 215.11 26.67 C 214.27 26.17 213.43 25.66 212.58 25.17 C 209.44 23.44 206.07 22.19 202.77 20.81 C 201.57 20.31 200.37 19.80 199.17 19.31 C 197.37 20.08 196.12 21.61 196.29 23.63 C 193.92 22.75 191.54 21.91 189.21 20.92 C 188.09 20.38 186.99 19.81 185.91 19.21 C 184.14 20.10 182.24 21.48 182.94 23.75 C 180.46 22.76 177.96 21.83 175.52 20.75 C 174.33 20.25 173.14 19.77 171.94 19.31 C 170.54 20.21 168.46 21.64 169.59 23.57 C 171.58 28.02 171.37 32.99 171.75 37.75 L 171.75 38.97 C 171.67 39.75 171.52 41.30 171.44 42.07 C 171.33 42.94 171.22 43.81 171.11 44.68 C 171.47 44.81 172.19 45.06 172.55 45.19 C 178.62 48.01 185.05 49.87 191.24 52.38 C 193.83 53.34 196.44 54.28 198.99 55.35 C 200.56 56.03 202.10 56.77 203.65 57.50 C 196.26 62.87 186.57 64.32 177.77 62.19 C 163.03 58.23 152.97 42.12 156.34 27.15 C 158.60 14.70 169.45 4.58 181.99 3.02 Z" />
<path fill="#2ab088" opacity="1.00" d=" M 34.46 25.43 C 36.82 23.14 39.39 19.49 43.14 21.14 C 43.67 22.07 44.15 23.04 44.56 24.03 C 44.71 26.12 42.82 27.47 41.61 28.90 C 40.52 28.31 39.42 27.72 38.30 27.18 C 37.74 26.98 36.63 26.57 36.08 26.36 C 34.73 27.53 33.42 28.75 32.14 29.99 C 32.62 28.33 33.15 26.62 34.46 25.43 Z" />
<path fill="#2ab088" opacity="1.00" d=" M 19.85 39.88 C 22.14 37.18 24.68 34.33 28.31 33.58 C 27.13 35.13 24.57 36.45 25.14 38.73 C 26.02 39.50 26.94 40.23 27.88 40.92 L 28.46 41.39 C 27.29 42.58 26.22 43.87 24.94 44.95 C 23.55 46.33 21.49 45.37 19.81 45.31 C 19.55 43.55 18.32 41.39 19.85 39.88 Z" />
<path fill="#2ab088" opacity="1.00" d=" M 105.35 79.12 C 118.06 76.96 131.77 84.01 137.18 95.76 C 137.17 96.38 137.15 97.61 137.14 98.23 C 134.95 97.28 132.77 96.28 130.50 95.52 C 129.02 95.19 127.54 94.89 126.05 94.63 C 121.23 92.87 116.77 90.22 111.86 88.69 C 110.85 88.39 109.83 88.10 108.82 87.82 C 108.66 90.11 108.56 92.40 108.52 94.70 C 102.23 95.28 95.60 93.52 89.58 95.84 C 90.09 96.22 91.12 96.99 91.63 97.38 L 91.72 97.42 C 91.79 106.19 91.45 114.97 91.91 123.73 C 95.44 123.64 98.98 123.66 102.52 123.68 C 101.63 126.09 100.73 128.51 99.84 130.93 C 100.74 131.33 101.65 131.72 102.56 132.12 C 105.40 133.32 108.30 134.40 111.19 135.47 C 113.57 136.32 115.95 137.14 118.33 138.01 C 112.93 139.54 107.20 139.39 101.75 138.19 C 87.30 134.27 77.31 118.71 80.19 103.94 C 82.15 91.38 92.78 80.94 105.35 79.12 Z" />
<path fill="#2ab088" opacity="1.00" d=" M 40.64 94.27 C 40.83 94.34 41.23 94.48 41.43 94.55 C 43.18 100.30 45.39 105.90 47.46 111.54 C 48.56 114.52 49.63 117.51 50.72 120.50 C 50.28 120.50 49.41 120.50 48.97 120.50 C 47.01 120.49 45.05 120.49 43.09 120.49 C 42.51 120.49 41.35 120.49 40.77 120.49 C 40.45 111.75 40.67 103.01 40.64 94.27 Z" />
<path fill="#2ab088" opacity="1.00" d=" M 33.27 95.01 C 34.69 97.48 35.77 100.11 36.77 102.77 C 35.53 106.37 34.23 109.96 32.70 113.46 C 31.80 110.16 30.93 106.87 30.06 103.57 C 31.16 100.73 32.20 97.86 33.27 95.01 Z" />
<path fill="#2ab088" opacity="1.00" d=" M 155.56 179.20 C 158.43 165.44 171.96 155.11 185.97 155.76 C 198.93 156.01 210.79 165.44 214.27 177.88 C 214.07 178.43 213.68 179.53 213.48 180.09 C 209.20 177.82 204.76 175.87 200.31 173.98 C 190.00 173.79 179.66 173.61 169.36 174.05 C 169.45 181.15 169.38 188.26 169.41 195.37 C 167.72 195.39 166.03 195.41 164.35 195.42 C 164.34 196.20 164.34 196.97 164.36 197.75 C 164.86 198.00 165.85 198.50 166.35 198.75 C 172.66 201.94 179.52 203.79 186.00 206.58 C 190.51 208.49 195.16 210.05 199.91 211.27 L 200.13 212.14 C 193.11 216.22 184.60 217.03 176.76 215.19 C 161.69 211.16 151.57 194.38 155.56 179.20 Z" />
</g>
<g id="#536880ff">
<path fill="#536880" opacity="1.00" d=" M 79.85 24.99 C 83.19 11.78 96.41 2.12 109.99 2.74 C 123.00 3.02 135.11 12.56 138.30 25.19 C 138.13 25.56 137.78 26.30 137.61 26.66 C 136.75 26.45 135.90 26.21 135.06 25.94 C 131.44 24.34 127.89 22.59 124.16 21.25 C 123.88 21.66 123.33 22.49 123.05 22.90 L 123.69 21.18 L 122.47 21.65 C 109.90 24.76 97.50 28.59 85.12 32.42 C 86.42 32.80 87.73 33.18 89.03 33.54 L 87.71 34.08 C 90.04 36.08 92.75 37.56 95.43 39.03 C 96.17 41.24 96.56 43.80 98.55 45.30 C 98.52 45.64 98.46 46.32 98.44 46.66 C 102.95 48.88 107.46 51.10 111.94 53.41 C 114.40 54.67 116.88 55.91 119.21 57.43 C 120.38 58.30 121.49 59.24 122.62 60.17 C 113.58 64.59 102.42 64.39 93.76 59.16 C 82.12 52.64 76.02 37.80 79.85 24.99 Z" />
<path fill="#536880" opacity="1.00" d=" M 231.84 25.04 C 235.16 11.82 248.37 2.14 261.95 2.74 C 272.54 3.09 283.07 9.28 287.69 18.95 C 283.34 18.72 279.71 16.16 275.77 14.63 C 271.07 12.72 265.91 13.88 260.99 13.52 C 259.40 13.58 257.74 13.38 256.22 13.91 C 253.54 16.00 251.41 18.69 248.92 20.99 C 247.61 22.42 245.67 23.75 245.86 25.94 C 245.72 32.62 245.93 39.31 245.79 45.99 C 245.83 48.19 245.49 51.08 247.84 52.26 C 253.33 54.95 259.48 55.92 264.99 58.60 C 267.45 59.56 269.98 60.32 272.50 61.12 C 263.39 64.78 252.58 63.84 244.42 58.33 C 233.62 51.49 228.20 37.31 231.84 25.04 Z" />
<path fill="#536880" opacity="1.00" d=" M 171.44 176.73 C 172.47 176.87 174.54 177.16 175.57 177.31 C 175.68 182.09 175.69 186.87 175.68 191.65 C 182.31 191.88 188.94 191.94 195.58 191.86 C 196.31 192.04 197.77 192.40 198.49 192.58 C 194.33 193.87 189.82 192.88 185.52 193.08 C 185.56 193.64 185.63 194.77 185.67 195.33 C 184.56 194.95 184.12 194.15 184.36 192.92 C 180.13 193.16 175.89 193.09 171.65 193.05 C 171.53 187.61 171.84 182.16 171.44 176.73 Z" />
<path fill="#536880" opacity="1.00" d=" M 176.53 177.31 C 179.28 177.20 182.04 177.08 184.80 177.07 C 184.87 179.44 184.87 181.81 184.80 184.19 C 183.87 183.74 182.95 183.29 182.02 182.86 C 180.30 184.75 178.44 186.51 176.48 188.14 C 176.43 184.53 176.47 180.92 176.53 177.31 Z" />
</g>
<g id="#f8ede7ff">
<path fill="#f8ede7" opacity="1.00" d=" M 248.92 20.99 C 251.41 18.69 253.54 16.00 256.22 13.91 C 257.74 13.38 259.40 13.58 260.99 13.52 C 260.98 18.16 261.17 22.81 260.63 27.43 C 257.52 27.59 254.41 27.41 251.32 27.67 C 251.20 28.00 250.97 28.65 250.86 28.98 C 253.90 30.01 257.25 29.18 260.40 29.64 C 260.61 30.01 261.01 30.76 261.22 31.13 C 257.84 31.13 254.47 31.17 251.10 31.19 C 251.09 31.66 251.06 32.60 251.04 33.07 C 257.01 33.16 262.97 33.20 268.93 33.20 C 268.76 33.59 268.40 34.38 268.22 34.77 C 262.36 34.73 256.50 34.74 250.65 34.91 C 250.86 35.33 251.29 36.16 251.51 36.58 C 256.78 37.00 262.09 36.55 267.38 36.81 L 266.82 38.35 C 261.78 38.74 256.70 38.12 251.67 38.61 C 251.38 39.00 250.80 39.78 250.51 40.18 C 255.85 40.56 261.21 40.22 266.56 40.51 C 264.88 41.31 262.97 41.28 261.17 41.50 C 260.95 45.08 260.89 48.67 261.01 52.26 C 256.62 52.20 252.23 52.30 247.84 52.26 C 245.49 51.08 245.83 48.19 245.79 45.99 C 245.93 39.31 245.72 32.62 245.86 25.94 C 245.67 23.75 247.61 22.42 248.92 20.99 M 256.16 14.83 C 255.66 17.58 256.66 20.81 255.23 23.27 C 252.69 24.52 249.26 22.80 246.83 24.70 C 250.23 25.06 255.40 27.59 257.63 23.77 C 257.97 20.80 257.87 17.41 256.16 14.83 Z" />
<path fill="#f8ede7" opacity="1.00" d=" M 262.19 20.06 C 264.73 19.64 267.30 19.72 269.85 20.01 C 269.87 21.99 269.88 23.97 269.87 25.94 C 267.29 26.17 264.70 26.16 262.13 25.83 C 262.18 23.91 262.20 21.98 262.19 20.06 Z" />
<path fill="#f8ede7" opacity="1.00" d=" M 122.47 21.65 L 123.69 21.18 L 123.05 22.90 C 120.46 29.40 117.74 35.85 115.19 42.36 C 114.41 44.19 113.63 46.01 112.85 47.84 C 109.35 45.38 105.82 42.96 102.51 40.24 C 101.90 39.77 101.29 39.31 100.68 38.84 C 106.59 33.55 113.32 29.29 119.50 24.35 C 120.52 23.48 121.48 22.55 122.47 21.65 Z" />
<path fill="#f8ede7" opacity="1.00" d=" M 90.10 186.08 C 93.18 182.50 96.74 179.30 100.89 176.99 C 99.07 179.94 97.49 183.50 98.85 186.97 C 100.18 191.69 105.16 194.35 109.86 194.00 C 114.18 193.09 117.97 189.50 118.34 184.99 C 118.76 182.20 117.46 179.58 115.98 177.33 C 119.60 179.48 122.20 182.83 124.98 185.91 C 120.67 190.74 114.77 195.15 107.96 194.62 C 101.01 194.54 95.49 189.86 90.10 186.08 Z" />
</g>
<g id="#f2dfd5ff">
<path fill="#f2dfd5" opacity="1.00" d=" M 260.99 13.52 C 265.91 13.88 271.07 12.72 275.77 14.63 C 275.82 19.01 275.70 23.41 276.12 27.78 C 274.81 27.23 273.50 26.68 272.20 26.12 C 271.44 27.80 270.67 29.47 269.89 31.14 C 267.00 31.17 264.11 31.19 261.22 31.13 C 261.01 30.76 260.61 30.01 260.40 29.64 C 260.46 28.90 260.54 28.17 260.63 27.43 C 261.17 22.81 260.98 18.16 260.99 13.52 M 262.19 20.06 C 262.20 21.98 262.18 23.91 262.13 25.83 C 264.70 26.16 267.29 26.17 269.87 25.94 C 269.88 23.97 269.87 21.99 269.85 20.01 C 267.30 19.72 264.73 19.64 262.19 20.06 Z" />
<path fill="#f2dfd5" opacity="1.00" d=" M 85.12 32.42 C 97.50 28.59 109.90 24.76 122.47 21.65 C 121.48 22.55 120.52 23.48 119.50 24.35 C 115.39 24.28 111.94 26.73 108.31 28.30 C 103.53 30.39 98.75 32.48 94.13 34.90 C 92.43 34.43 90.74 33.97 89.03 33.54 C 87.73 33.18 86.42 32.80 85.12 32.42 Z" />
<path fill="#f2dfd5" opacity="1.00" d=" M 266.75 38.88 C 268.13 39.49 269.51 40.11 270.89 40.75 C 272.18 41.35 273.48 41.96 274.78 42.57 C 273.68 43.45 272.55 44.27 271.45 45.12 C 270.01 44.55 268.58 43.99 267.15 43.42 C 267.20 43.85 267.30 44.71 267.35 45.14 C 267.24 45.76 267.02 47.00 266.91 47.62 C 269.81 48.79 273.20 48.63 275.78 50.54 C 275.47 50.97 274.84 51.84 274.53 52.27 C 270.02 52.36 265.52 52.25 261.01 52.26 C 260.89 48.67 260.95 45.08 261.17 41.50 C 262.97 41.28 264.88 41.31 266.56 40.51 L 266.75 38.88 Z" />
<path fill="#f2dfd5" opacity="1.00" d=" M 91.72 97.42 C 97.84 97.61 103.96 97.42 110.08 97.49 C 109.93 102.06 109.94 106.63 109.96 111.21 C 108.63 110.22 107.31 109.24 105.98 108.25 C 103.13 111.00 100.38 113.86 97.29 116.34 C 96.86 110.77 98.26 104.97 96.43 99.58 C 95.88 106.97 96.32 114.39 96.21 121.79 C 100.82 121.81 105.43 121.81 110.04 121.91 C 110.06 122.35 110.08 123.22 110.10 123.66 C 108.80 123.66 107.51 123.67 106.21 123.67 C 104.98 123.68 103.75 123.68 102.52 123.68 C 98.98 123.66 95.44 123.64 91.91 123.73 C 91.45 114.97 91.79 106.19 91.72 97.42 Z" />
<path fill="#f2dfd5" opacity="1.00" d=" M 97.79 120.81 C 100.45 117.99 103.28 115.32 106.08 112.63 C 107.26 113.55 108.45 114.47 109.61 115.42 L 110.29 115.98 C 110.17 117.36 110.06 118.73 109.94 120.11 C 106.53 120.18 103.13 120.48 99.73 120.77 C 99.25 120.78 98.27 120.80 97.79 120.81 Z" />
</g>
<g id="#e5d8cfff">
<path fill="#e5d8cf" opacity="1.00" d=" M 256.16 14.83 C 257.87 17.41 257.97 20.80 257.63 23.77 C 255.40 27.59 250.23 25.06 246.83 24.70 C 249.26 22.80 252.69 24.52 255.23 23.27 C 256.66 20.81 255.66 17.58 256.16 14.83 Z" />
</g>
<g id="#4c5f74ff">
<path fill="#4c5f74" opacity="1.00" d=" M 275.77 14.63 C 279.71 16.16 283.34 18.72 287.69 18.95 L 287.96 18.99 C 291.30 25.73 292.38 33.65 290.29 40.93 C 287.95 49.98 281.10 57.55 272.50 61.12 C 269.98 60.32 267.45 59.56 264.99 58.60 C 265.52 57.20 266.05 55.80 266.59 54.40 C 268.82 54.22 271.06 54.02 273.26 53.62 C 273.58 53.28 274.21 52.61 274.53 52.27 C 274.84 51.84 275.47 50.97 275.78 50.54 C 276.17 47.62 275.75 44.69 275.60 41.77 C 277.34 37.96 278.93 34.09 280.89 30.39 C 279.33 29.46 277.74 28.58 276.12 27.78 C 275.70 23.41 275.82 19.01 275.77 14.63 Z" />
<path fill="#4c5f74" opacity="1.00" d=" M 250.65 34.91 C 256.50 34.74 262.36 34.73 268.22 34.77 C 268.01 35.28 267.59 36.30 267.38 36.81 C 262.09 36.55 256.78 37.00 251.51 36.58 C 251.29 36.16 250.86 35.33 250.65 34.91 Z" />
</g>
<g id="#faede8ff">
<path fill="#faede8" opacity="1.00" d=" M 36.42 18.35 C 39.48 16.04 43.77 17.08 46.40 19.55 C 45.31 20.08 44.22 20.61 43.14 21.14 C 39.39 19.49 36.82 23.14 34.46 25.43 C 33.15 26.62 32.62 28.33 32.14 29.99 C 30.90 31.23 29.65 32.45 28.31 33.58 C 24.68 34.33 22.14 37.18 19.85 39.88 C 18.32 41.39 19.55 43.55 19.81 45.31 C 19.00 46.02 18.18 46.73 17.37 47.44 C 15.25 44.68 14.35 40.55 16.66 37.63 C 19.69 33.95 23.39 29.70 28.66 30.15 C 28.38 24.87 32.67 21.30 36.42 18.35 Z" />
</g>
<g id="#228f6fff">
<path fill="#228f6f" opacity="1.00" d=" M 46.73 19.41 C 50.31 19.60 53.27 21.92 56.57 23.08 C 55.34 28.68 51.91 33.43 49.79 38.69 C 47.55 44.37 44.33 49.61 42.28 55.38 C 41.17 55.68 40.06 55.99 38.94 56.30 C 33.52 53.95 27.76 52.47 22.44 49.86 C 27.09 49.22 30.40 45.60 33.23 42.19 C 34.61 40.57 34.46 38.34 34.73 36.37 C 40.28 36.86 44.15 32.31 47.23 28.37 C 49.15 25.58 47.83 22.22 46.73 19.41 Z" />
</g>
<g id="#f3e0d6ff">
<path fill="#f3e0d6" opacity="1.00" d=" M 43.14 21.14 C 44.22 20.61 45.31 20.08 46.40 19.55 L 46.73 19.41 C 47.83 22.22 49.15 25.58 47.23 28.37 C 44.15 32.31 40.28 36.86 34.73 36.37 C 34.46 38.34 34.61 40.57 33.23 42.19 C 30.40 45.60 27.09 49.22 22.44 49.86 C 20.72 49.13 19.00 48.37 17.37 47.44 C 18.18 46.73 19.00 46.02 19.81 45.31 C 21.49 45.37 23.55 46.33 24.94 44.95 C 26.22 43.87 27.29 42.58 28.46 41.39 C 30.14 40.61 31.32 38.97 30.82 37.06 C 32.29 35.73 33.70 34.34 35.14 32.98 C 37.77 32.51 39.81 30.77 41.61 28.90 C 42.82 27.47 44.71 26.12 44.56 24.03 C 44.15 23.04 43.67 22.07 43.14 21.14 Z" />
<path fill="#f3e0d6" opacity="1.00" d=" M 28.66 182.87 C 30.05 181.89 31.44 180.90 32.83 179.93 C 32.08 181.39 31.35 182.86 30.64 184.34 C 31.96 183.86 33.28 183.36 34.59 182.85 C 33.90 184.10 33.23 185.35 32.57 186.62 C 33.18 186.50 34.39 186.26 35.00 186.15 L 37.45 184.85 C 36.51 186.13 35.57 187.48 34.27 188.43 C 34.02 188.48 33.54 188.57 33.30 188.62 C 31.87 186.61 30.30 184.71 28.66 182.87 Z" />
<path fill="#f3e0d6" opacity="1.00" d=" M 24.34 186.79 C 25.74 185.38 27.40 184.08 29.42 185.16 C 28.46 185.65 26.55 186.64 25.59 187.13 C 26.92 188.52 28.51 187.20 29.93 186.91 C 30.48 187.23 31.58 187.86 32.14 188.17 C 32.54 190.92 29.96 192.41 27.54 192.36 C 28.19 190.97 29.62 190.36 30.91 189.76 C 30.68 189.39 30.21 188.65 29.98 188.29 C 28.69 188.79 27.40 189.30 26.11 189.80 C 25.66 189.05 24.78 187.54 24.34 186.79 Z" />
</g>
<g id="#ffd054ff">
<path fill="#ffd054" opacity="1.00" d=" M 169.59 23.57 C 168.46 21.64 170.54 20.21 171.94 19.31 C 172.14 21.25 172.30 23.19 172.62 25.11 C 172.99 25.51 173.74 26.31 174.12 26.71 C 175.41 28.36 176.53 30.78 179.02 30.65 C 182.49 30.79 184.95 26.67 182.94 23.75 C 182.24 21.48 184.14 20.10 185.91 19.21 C 186.26 25.39 185.77 31.57 186.07 37.74 C 181.30 37.51 176.52 37.60 171.75 37.75 C 171.37 32.99 171.58 28.02 169.59 23.57 Z" />
<path fill="#ffd054" opacity="1.00" d=" M 190.95 102.20 C 195.12 103.89 199.12 105.97 203.11 108.05 C 203.45 108.29 204.12 108.75 204.45 108.98 C 202.47 109.18 200.49 109.33 198.54 109.69 C 196.09 108.42 193.60 107.23 191.11 106.06 C 191.07 105.09 190.99 103.17 190.95 102.20 Z" />
</g>
<g id="#fab42dff">
<path fill="#fab42d" opacity="1.00" d=" M 171.94 19.31 C 173.14 19.77 174.33 20.25 175.52 20.75 C 175.46 22.82 175.00 24.84 174.12 26.71 C 173.74 26.31 172.99 25.51 172.62 25.11 C 172.30 23.19 172.14 21.25 171.94 19.31 Z" />
</g>
<g id="#fab62fff">
<path fill="#fab62f" opacity="1.00" d=" M 185.91 19.21 C 186.99 19.81 188.09 20.38 189.21 20.92 C 188.57 24.04 187.02 28.73 191.02 30.28 C 194.14 31.83 196.51 28.87 198.01 26.56 C 200.14 24.65 199.58 21.80 199.17 19.31 C 200.37 19.80 201.57 20.31 202.77 20.81 C 201.21 26.32 200.15 31.92 200.20 37.68 C 195.49 37.68 190.78 37.47 186.07 37.74 C 185.77 31.57 186.26 25.39 185.91 19.21 Z" />
<path fill="#fab62f" opacity="1.00" d=" M 42.07 177.12 C 42.56 176.78 43.54 176.08 44.03 175.73 C 45.69 177.64 47.39 179.50 49.03 181.41 C 50.04 184.27 47.08 185.88 45.35 187.54 C 40.32 191.42 35.85 196.00 30.71 199.72 C 27.20 200.19 23.71 198.81 20.18 199.27 C 20.03 198.90 19.72 198.14 19.57 197.76 C 20.82 197.03 21.74 196.01 22.33 194.69 C 22.97 193.63 23.61 192.58 24.25 191.54 L 24.73 192.10 C 26.18 193.78 27.55 195.53 29.24 196.98 C 32.12 195.83 34.13 193.30 36.52 191.42 C 39.62 188.54 43.23 186.19 46.01 182.98 C 46.03 180.64 43.33 179.02 42.07 177.12 Z" />
</g>
<g id="#ffd256ff">
<path fill="#ffd256" opacity="1.00" d=" M 196.29 23.63 C 196.12 21.61 197.37 20.08 199.17 19.31 C 199.58 21.80 200.14 24.65 198.01 26.56 C 197.42 25.59 196.84 24.62 196.29 23.63 Z" />
</g>
<g id="#495b70ff">
<path fill="#495b70" opacity="1.00" d=" M 124.16 21.25 C 127.89 22.59 131.44 24.34 135.06 25.94 C 131.57 30.58 129.99 36.21 127.36 41.30 C 124.57 46.65 123.00 52.64 119.21 57.43 C 116.88 55.91 114.40 54.67 111.94 53.41 C 111.82 49.23 117.50 46.53 115.19 42.36 C 117.74 35.85 120.46 29.40 123.05 22.90 C 123.33 22.49 123.88 21.66 124.16 21.25 Z" />
</g>
<g id="#228e6eff">
<path fill="#228e6e" opacity="1.00" d=" M 175.52 20.75 C 177.96 21.83 180.46 22.76 182.94 23.75 C 184.95 26.67 182.49 30.79 179.02 30.65 C 176.53 30.78 175.41 28.36 174.12 26.71 C 175.00 24.84 175.46 22.82 175.52 20.75 Z" />
</g>
<g id="#228e6dff">
<path fill="#228e6d" opacity="1.00" d=" M 189.21 20.92 C 191.54 21.91 193.92 22.75 196.29 23.63 C 196.84 24.62 197.42 25.59 198.01 26.56 C 196.51 28.87 194.14 31.83 191.02 30.28 C 187.02 28.73 188.57 24.04 189.21 20.92 Z" />
</g>
<g id="#249876ff">
<path fill="#249876" opacity="1.00" d=" M 202.77 20.81 C 206.07 22.19 209.44 23.44 212.58 25.17 C 211.96 29.91 208.73 33.68 207.04 38.04 C 204.67 43.95 201.67 49.58 198.99 55.35 C 196.44 54.28 193.83 53.34 191.24 52.38 C 192.57 50.87 193.14 48.90 194.19 47.22 C 195.99 46.12 198.13 45.77 200.08 45.01 C 201.28 44.54 200.49 42.89 200.63 41.91 C 200.52 41.11 200.32 39.52 200.22 38.73 L 200.20 37.68 C 200.15 31.92 201.21 26.32 202.77 20.81 Z" />
</g>
<g id="#27a27dff">
<path fill="#27a27d" opacity="1.00" d=" M 61.27 21.92 C 61.97 24.20 62.74 26.47 63.11 28.83 C 64.55 41.26 58.15 54.32 46.76 59.86 C 44.30 58.37 41.65 57.25 38.94 56.30 C 40.06 55.99 41.17 55.68 42.28 55.38 C 44.33 49.61 47.55 44.37 49.79 38.69 C 51.91 33.43 55.34 28.68 56.57 23.08 C 57.98 23.66 59.40 24.21 60.83 24.77 C 60.94 24.06 61.16 22.63 61.27 21.92 Z" />
</g>
<g id="#e6cbbfff">
<path fill="#e6cbbf" opacity="1.00" d=" M 108.31 28.30 C 111.94 26.73 115.39 24.28 119.50 24.35 C 113.32 29.29 106.59 33.55 100.68 38.84 C 101.29 39.31 101.90 39.77 102.51 40.24 C 100.29 41.09 98.70 42.86 98.55 45.30 C 96.56 43.80 96.17 41.24 95.43 39.03 C 95.00 37.65 94.57 36.28 94.13 34.90 C 98.75 32.48 103.53 30.39 108.31 28.30 Z" />
<path fill="#e6cbbf" opacity="1.00" d=" M 110.08 97.49 C 116.19 97.49 122.30 97.49 128.41 97.48 C 128.43 106.08 128.42 114.68 128.45 123.27 L 128.01 123.71 C 124.57 123.70 121.14 123.63 117.70 123.65 C 116.46 123.65 115.23 123.65 113.99 123.66 C 112.69 123.66 111.40 123.66 110.10 123.66 C 110.08 123.22 110.06 122.35 110.04 121.91 C 115.19 122.00 120.36 122.20 125.50 121.76 C 124.21 120.69 122.53 120.74 120.97 120.70 C 113.89 120.59 106.81 121.21 99.73 120.77 C 103.13 120.48 106.53 120.18 109.94 120.11 C 110.06 118.73 110.17 117.36 110.29 115.98 C 110.74 116.38 111.66 117.16 112.12 117.56 C 114.58 115.09 116.62 112.21 119.22 109.87 C 120.12 109.96 121.00 110.14 121.88 110.41 C 122.27 108.06 122.71 105.72 123.17 103.39 C 120.81 103.87 118.46 104.38 116.14 104.96 C 116.43 105.91 116.72 106.86 117.02 107.81 C 115.39 109.51 113.79 111.24 112.19 112.98 C 111.63 112.73 110.49 112.23 109.93 111.98 L 109.96 111.21 C 109.94 106.63 109.93 102.06 110.08 97.49 Z" />
<path fill="#e6cbbf" opacity="1.00" d=" M 164.36 197.75 C 178.13 196.67 191.98 197.66 205.78 197.22 L 205.47 198.41 C 202.17 198.66 198.87 198.54 195.57 198.70 C 185.83 198.54 176.08 198.41 166.35 198.75 C 165.85 198.50 164.86 198.00 164.36 197.75 Z" />
</g>
<g id="#4f6379ff">
<path fill="#4f6379" opacity="1.00" d=" M 138.30 25.19 C 142.24 38.69 135.16 54.01 122.62 60.17 C 121.49 59.24 120.38 58.30 119.21 57.43 C 123.00 52.64 124.57 46.65 127.36 41.30 C 129.99 36.21 131.57 30.58 135.06 25.94 C 135.90 26.21 136.75 26.45 137.61 26.66 C 137.78 26.30 138.13 25.56 138.30 25.19 Z" />
</g>
<g id="#28a680ff">
<path fill="#28a680" opacity="1.00" d=" M 212.58 25.17 C 213.43 25.66 214.27 26.17 215.11 26.67 C 215.11 26.24 215.09 25.38 215.09 24.96 C 215.51 26.23 215.93 27.52 216.10 28.86 C 217.24 39.74 212.73 51.16 203.65 57.50 C 202.10 56.77 200.56 56.03 198.99 55.35 C 201.67 49.58 204.67 43.95 207.04 38.04 C 208.73 33.68 211.96 29.91 212.58 25.17 Z" />
<path fill="#28a680" opacity="1.00" d=" M 137.18 95.76 C 138.63 98.62 139.57 101.72 140.10 104.87 C 141.69 118.10 134.17 131.92 121.62 136.83 C 122.14 131.90 125.09 127.57 128.01 123.71 L 128.45 123.27 C 130.36 121.87 129.87 119.22 130.47 117.19 C 131.57 110.47 137.04 105.20 137.14 98.23 C 137.15 97.61 137.17 96.38 137.18 95.76 Z" />
</g>
<g id="#18a3d9ff">
<path fill="#18a3d9" opacity="1.00" d=" M 272.20 26.12 C 273.50 26.68 274.81 27.23 276.12 27.78 C 275.15 32.39 272.66 36.43 270.89 40.75 C 269.51 40.11 268.13 39.49 266.75 38.88 L 266.82 38.35 L 267.38 36.81 C 267.59 36.30 268.01 35.28 268.22 34.77 C 268.40 34.38 268.76 33.59 268.93 33.20 C 269.17 32.68 269.65 31.66 269.89 31.14 C 270.67 29.47 271.44 27.80 272.20 26.12 Z" />
<path fill="#18a3d9" opacity="1.00" d=" M 155.06 104.91 C 156.62 92.15 167.17 81.24 179.86 79.24 C 191.47 77.06 204.05 82.56 210.37 92.53 C 215.77 100.62 216.68 111.27 213.17 120.29 C 210.29 126.32 206.03 131.86 200.08 135.12 C 193.12 139.24 184.59 140.03 176.80 138.16 C 162.67 134.38 152.73 119.41 155.06 104.91 M 186.11 100.16 C 185.56 101.61 185.01 103.05 184.47 104.50 C 182.52 103.89 180.57 103.32 178.60 102.80 L 178.57 102.16 C 173.96 104.28 169.29 106.37 165.03 109.14 C 165.26 109.57 165.72 110.43 165.96 110.86 C 170.08 113.01 174.39 115.15 178.92 116.33 C 179.09 116.59 179.43 117.12 179.59 117.38 L 179.10 118.66 C 179.51 118.70 180.32 118.77 180.72 118.81 C 183.99 120.98 187.85 121.87 191.51 123.15 C 193.30 123.93 195.11 124.69 196.91 125.47 C 199.60 126.56 202.38 127.38 205.16 128.21 C 208.45 122.50 211.51 116.59 213.75 110.39 C 210.55 108.85 207.55 106.74 204.01 106.03 C 200.63 104.92 197.50 103.20 194.26 101.75 C 192.95 101.44 191.43 99.92 190.16 101.01 L 190.49 100.11 C 189.03 100.12 187.57 100.14 186.11 100.16 Z" />
<path fill="#18a3d9" opacity="1.00" d=" M 3.06 181.92 C 4.64 168.77 15.79 157.67 28.91 156.06 C 43.43 153.77 58.67 163.75 62.16 178.06 C 62.09 178.52 61.96 179.44 61.89 179.90 C 58.55 178.06 55.14 176.37 51.61 174.92 C 47.51 173.12 43.35 171.44 39.17 169.81 C 37.81 169.18 36.06 168.52 34.86 169.80 C 29.88 173.83 25.17 178.18 20.21 182.24 C 19.10 183.36 17.29 184.27 17.39 186.09 C 17.18 190.33 16.65 194.70 17.82 198.86 C 18.54 197.64 20.54 196.22 18.02 194.92 C 19.39 194.12 20.88 194.28 22.33 194.69 C 21.74 196.01 20.82 197.03 19.57 197.76 C 19.72 198.14 20.03 198.90 20.18 199.27 C 26.47 201.88 33.02 203.82 39.34 206.36 C 42.81 207.81 46.35 209.10 49.98 210.08 C 49.70 210.47 49.14 211.24 48.86 211.62 C 41.78 216.20 32.84 217.08 24.74 215.16 C 10.65 211.32 0.73 196.40 3.06 181.92 Z" />
<path fill="#18a3d9" opacity="1.00" d=" M 82.27 171.33 C 87.89 160.37 100.67 153.73 112.87 155.49 C 124.55 156.81 134.84 165.65 138.06 176.91 C 138.35 178.17 138.61 179.43 138.84 180.70 C 136.61 179.74 134.38 178.79 132.16 177.81 C 128.09 176.03 124.23 173.80 120.10 172.15 L 118.97 171.76 C 118.08 172.48 117.21 173.21 116.35 173.95 C 113.10 172.81 110.15 171.02 107.09 169.47 C 106.96 170.74 106.82 172.01 106.69 173.28 C 98.83 174.61 92.22 179.90 87.67 186.25 C 87.69 186.64 87.74 187.43 87.76 187.83 C 90.05 188.44 92.15 189.52 93.97 191.04 C 97.05 193.57 100.83 194.95 104.54 196.29 C 110.67 199.12 117.26 200.67 123.52 203.16 C 126.10 204.18 128.76 205.00 131.44 205.70 C 127.18 210.45 121.38 213.35 115.34 215.16 C 105.59 216.91 94.99 214.23 87.94 207.10 C 78.39 198.17 75.99 182.78 82.27 171.33 Z" />
<path fill="#18a3d9" opacity="1.00" d=" M 100.89 176.99 C 103.47 175.99 106.20 175.37 108.96 175.18 C 108.70 176.23 108.44 177.28 108.18 178.33 C 106.64 179.35 104.54 179.95 103.76 181.79 C 102.63 184.14 103.57 187.27 106.00 188.36 C 106.46 188.66 107.38 189.24 107.84 189.54 C 108.27 191.13 108.65 192.79 109.86 194.00 C 105.16 194.35 100.18 191.69 98.85 186.97 C 97.49 183.50 99.07 179.94 100.89 176.99 Z" />
</g>
<g id="#e7606aff">
<path fill="#e7606a" opacity="1.00" d=" M 32.14 29.99 C 33.42 28.75 34.73 27.53 36.08 26.36 C 36.63 26.57 37.74 26.98 38.30 27.18 C 39.08 29.72 36.56 31.30 35.14 32.98 C 33.70 34.34 32.29 35.73 30.82 37.06 C 29.45 37.94 27.69 39.01 27.88 40.92 C 26.94 40.23 26.02 39.50 25.14 38.73 C 24.57 36.45 27.13 35.13 28.31 33.58 C 29.65 32.45 30.90 31.23 32.14 29.99 Z" />
</g>
<g id="#1f8264ff">
<path fill="#1f8264" opacity="1.00" d=" M 38.30 27.18 C 39.42 27.72 40.52 28.31 41.61 28.90 C 39.81 30.77 37.77 32.51 35.14 32.98 C 36.56 31.30 39.08 29.72 38.30 27.18 Z" />
<path fill="#1f8264" opacity="1.00" d=" M 27.88 40.92 C 27.69 39.01 29.45 37.94 30.82 37.06 C 31.32 38.97 30.14 40.61 28.46 41.39 L 27.88 40.92 Z" />
<path fill="#1f8264" opacity="1.00" d=" M 111.86 88.69 C 116.77 90.22 121.23 92.87 126.05 94.63 C 121.32 94.61 116.58 94.65 111.85 94.79 C 111.81 92.76 111.81 90.73 111.86 88.69 Z" />
</g>
<g id="#3e5773ff">
<path fill="#3e5773" opacity="1.00" d=" M 251.32 27.67 C 254.41 27.41 257.52 27.59 260.63 27.43 C 260.54 28.17 260.46 28.90 260.40 29.64 C 257.25 29.18 253.90 30.01 250.86 28.98 C 250.97 28.65 251.20 28.00 251.32 27.67 Z" />
<path fill="#3e5773" opacity="1.00" d=" M 251.67 38.61 C 256.70 38.12 261.78 38.74 266.82 38.35 L 266.75 38.88 L 266.56 40.51 C 261.21 40.22 255.85 40.56 250.51 40.18 C 250.80 39.78 251.38 39.00 251.67 38.61 Z" />
</g>
<g id="#0a8cbfff">
<path fill="#0a8cbf" opacity="1.00" d=" M 276.12 27.78 C 277.74 28.58 279.33 29.46 280.89 30.39 C 278.93 34.09 277.34 37.96 275.60 41.77 C 275.40 41.97 274.98 42.37 274.78 42.57 C 273.48 41.96 272.18 41.35 270.89 40.75 C 272.66 36.43 275.15 32.39 276.12 27.78 Z" />
<path fill="#0a8cbf" opacity="1.00" d=" M 108.96 175.18 C 111.36 175.64 113.83 176.10 115.98 177.33 C 117.46 179.58 118.76 182.20 118.34 184.99 C 117.97 189.50 114.18 193.09 109.86 194.00 C 108.65 192.79 108.27 191.13 107.84 189.54 C 110.43 188.69 113.67 187.26 113.48 183.98 C 113.72 180.79 110.62 179.36 108.18 178.33 C 108.44 177.28 108.70 176.23 108.96 175.18 Z" />
</g>
<g id="#08120f3c">
<path fill="#08120f" opacity="0.24" d=" M 63.11 28.83 C 65.73 35.48 64.31 42.84 60.97 48.93 C 55.88 57.36 47.09 63.96 37.03 64.51 C 32.88 64.22 28.51 64.14 24.74 62.19 C 32.08 63.88 40.01 63.37 46.76 59.86 C 58.15 54.32 64.55 41.26 63.11 28.83 Z" />
</g>
<g id="#0913103e">
<path fill="#091310" opacity="0.24" d=" M 216.10 28.86 C 219.02 35.98 216.94 43.90 213.17 50.25 C 207.84 57.86 199.61 64.11 190.02 64.46 C 185.89 64.16 181.55 64.08 177.77 62.19 C 186.57 64.32 196.26 62.87 203.65 57.50 C 212.73 51.16 217.24 39.74 216.10 28.86 Z" />
</g>
<g id="#526780ff">
<path fill="#526780" opacity="1.00" d=" M 251.10 31.19 C 254.47 31.17 257.84 31.13 261.22 31.13 C 264.11 31.19 267.00 31.17 269.89 31.14 C 269.65 31.66 269.17 32.68 268.93 33.20 C 262.97 33.20 257.01 33.16 251.04 33.07 C 251.06 32.60 251.09 31.66 251.10 31.19 Z" />
<path fill="#526780" opacity="1.00" d=" M 182.23 185.63 C 183.12 186.22 184.01 186.82 184.88 187.44 C 185.24 187.84 185.95 188.62 186.31 189.02 C 185.87 189.58 184.98 190.71 184.54 191.27 C 182.01 191.25 179.49 191.18 176.97 191.12 C 178.69 189.25 180.45 187.43 182.23 185.63 Z" />
</g>
<g id="#3a4e64ff">
<path fill="#3a4e64" opacity="1.00" d=" M 87.71 34.08 L 89.03 33.54 C 90.74 33.97 92.43 34.43 94.13 34.90 C 94.57 36.28 95.00 37.65 95.43 39.03 C 92.75 37.56 90.04 36.08 87.71 34.08 Z" />
<path fill="#3a4e64" opacity="1.00" d=" M 38.43 120.48 C 39.01 120.48 40.18 120.48 40.77 120.49 C 41.35 120.49 42.51 120.49 43.09 120.49 C 42.71 122.34 42.30 124.26 40.75 125.52 C 38.72 124.51 38.22 122.56 38.43 120.48 Z" />
<path fill="#3a4e64" opacity="1.00" d=" M 36.10 177.90 C 37.28 179.36 41.00 181.09 38.94 183.12 C 37.09 182.88 36.24 180.97 35.06 179.76 C 35.32 179.30 35.84 178.36 36.10 177.90 Z" />
</g>
<g id="#f69964ff">
<path fill="#f69964" opacity="1.00" d=" M 171.75 37.75 C 176.52 37.60 181.30 37.51 186.07 37.74 L 185.20 38.88 C 180.72 38.64 176.23 38.79 171.75 38.97 L 171.75 37.75 Z" />
</g>
<g id="#ec814aff">
<path fill="#ec814a" opacity="1.00" d=" M 186.07 37.74 C 190.78 37.47 195.49 37.68 200.20 37.68 L 200.22 38.73 C 195.21 38.59 190.20 38.67 185.20 38.88 L 186.07 37.74 Z" />
</g>
<g id="#f69b64ff">
<path fill="#f69b64" opacity="1.00" d=" M 171.75 38.97 C 176.23 38.79 180.72 38.64 185.20 38.88 C 188.88 43.54 195.60 40.82 200.63 41.91 C 194.48 43.17 188.19 42.06 181.99 42.68 C 178.46 43.11 174.93 42.59 171.44 42.07 C 171.52 41.30 171.67 39.75 171.75 38.97 M 178.00 40.38 C 177.58 41.82 178.17 42.32 179.77 41.89 C 180.43 40.32 179.84 39.81 178.00 40.38 M 181.22 40.06 C 180.68 41.67 181.22 42.24 182.87 41.75 C 183.41 40.13 182.86 39.57 181.22 40.06 Z" />
</g>
<g id="#ef8b47ff">
<path fill="#ef8b47" opacity="1.00" d=" M 185.20 38.88 C 190.20 38.67 195.21 38.59 200.22 38.73 C 200.32 39.52 200.52 41.11 200.63 41.91 C 195.60 40.82 188.88 43.54 185.20 38.88 Z" />
</g>
<g id="#f69a64ff">
<path fill="#f69a64" opacity="1.00" d=" M 178.00 40.38 C 179.84 39.81 180.43 40.32 179.77 41.89 C 178.17 42.32 177.58 41.82 178.00 40.38 Z" />
</g>
<g id="#f69d63ff">
<path fill="#f69d63" opacity="1.00" d=" M 181.22 40.06 C 182.86 39.57 183.41 40.13 182.87 41.75 C 181.22 42.24 180.68 41.67 181.22 40.06 Z" />
</g>
<g id="#425365ff">
<path fill="#425365" opacity="1.00" d=" M 102.51 40.24 C 105.82 42.96 109.35 45.38 112.85 47.84 C 113.63 46.01 114.41 44.19 115.19 42.36 C 117.50 46.53 111.82 49.23 111.94 53.41 C 107.46 51.10 102.95 48.88 98.44 46.66 C 98.46 46.32 98.52 45.64 98.55 45.30 C 98.70 42.86 100.29 41.09 102.51 40.24 Z" />
</g>
<g id="#f3b937ff">
<path fill="#f3b937" opacity="1.00" d=" M 171.11 44.68 C 171.22 43.81 171.33 42.94 171.44 42.07 C 174.93 42.59 178.46 43.11 181.99 42.68 C 188.19 42.06 194.48 43.17 200.63 41.91 C 200.49 42.89 201.28 44.54 200.08 45.01 C 190.91 45.32 181.73 44.96 172.55 45.19 C 172.19 45.06 171.47 44.81 171.11 44.68 Z" />
</g>
<g id="#c0b0a9ff">
<path fill="#c0b0a9" opacity="1.00" d=" M 274.78 42.57 C 274.98 42.37 275.40 41.97 275.60 41.77 C 275.75 44.69 276.17 47.62 275.78 50.54 C 273.20 48.63 269.81 48.79 266.91 47.62 C 267.02 47.00 267.24 45.76 267.35 45.14 C 267.80 45.87 268.25 46.60 268.71 47.33 C 269.61 46.58 270.52 45.85 271.45 45.12 C 272.55 44.27 273.68 43.45 274.78 42.57 Z" />
</g>
<g id="#2e5069ff">
<path fill="#2e5069" opacity="1.00" d=" M 267.15 43.42 C 268.58 43.99 270.01 44.55 271.45 45.12 C 270.52 45.85 269.61 46.58 268.71 47.33 C 268.25 46.60 267.80 45.87 267.35 45.14 C 267.30 44.71 267.20 43.85 267.15 43.42 Z" />
<path fill="#2e5069" opacity="1.00" d=" M 107.09 169.47 C 110.15 171.02 113.10 172.81 116.35 173.95 C 117.21 173.21 118.08 172.48 118.97 171.76 L 120.10 172.15 C 119.47 173.49 118.85 174.83 118.22 176.17 C 119.54 177.37 120.84 178.59 122.14 179.82 C 123.70 178.74 125.43 177.94 127.28 177.52 C 126.23 179.01 125.06 180.43 124.23 182.06 C 124.85 183.18 125.80 184.07 126.78 184.88 C 128.58 185.33 131.30 184.66 131.69 187.16 C 129.91 187.21 128.14 187.25 126.37 187.31 C 126.02 186.96 125.33 186.26 124.98 185.91 C 122.20 182.83 119.60 179.48 115.98 177.33 C 113.83 176.10 111.36 175.64 108.96 175.18 C 106.20 175.37 103.47 175.99 100.89 176.99 C 96.74 179.30 93.18 182.50 90.10 186.08 C 89.49 186.12 88.28 186.20 87.67 186.25 C 92.22 179.90 98.83 174.61 106.69 173.28 C 106.82 172.01 106.96 170.74 107.09 169.47 Z" />
</g>
<g id="#218a6bff">
<path fill="#218a6b" opacity="1.00" d=" M 172.55 45.19 C 181.73 44.96 190.91 45.32 200.08 45.01 C 198.13 45.77 195.99 46.12 194.19 47.22 C 193.14 48.90 192.57 50.87 191.24 52.38 C 185.05 49.87 178.62 48.01 172.55 45.19 Z" />
<path fill="#218a6b" opacity="1.00" d=" M 106.21 123.67 C 107.51 123.67 108.80 123.66 110.10 123.66 C 111.40 123.66 112.69 123.66 113.99 123.66 C 114.64 125.33 115.30 127.00 116.00 128.65 C 114.71 131.13 113.31 133.60 111.19 135.47 C 108.30 134.40 105.40 133.32 102.56 132.12 C 103.84 129.33 105.06 126.52 106.21 123.67 Z" />
</g>
<g id="#425366ff">
<path fill="#425366" opacity="1.00" d=" M 247.84 52.26 C 252.23 52.30 256.62 52.20 261.01 52.26 C 265.52 52.25 270.02 52.36 274.53 52.27 C 274.21 52.61 273.58 53.28 273.26 53.62 C 271.06 54.02 268.82 54.22 266.59 54.40 C 266.05 55.80 265.52 57.20 264.99 58.60 C 259.48 55.92 253.33 54.95 247.84 52.26 Z" />
</g>
<g id="#ed6872ff">
<path fill="#ed6872" opacity="1.00" d=" M 3.23 103.88 C 5.36 89.72 18.72 78.56 33.00 78.76 C 46.19 78.63 58.86 88.06 62.11 100.90 C 62.08 101.58 62.00 102.94 61.96 103.62 C 59.51 102.09 56.92 100.78 54.19 99.81 C 49.89 98.17 45.80 96.02 41.43 94.55 C 41.23 94.48 40.83 94.34 40.64 94.27 L 40.05 94.12 C 39.81 94.71 39.34 95.90 39.10 96.49 C 34.92 94.45 30.84 92.22 26.52 90.49 C 26.20 90.36 25.57 90.10 25.25 89.97 C 22.35 100.67 19.48 111.38 16.87 122.15 C 19.14 122.16 21.42 122.16 23.69 122.15 C 23.91 124.25 23.19 126.77 24.86 128.43 C 28.57 129.84 32.38 130.97 36.04 132.50 C 39.17 133.82 42.48 134.60 45.80 135.26 L 46.10 136.19 C 39.49 139.35 31.85 139.84 24.76 138.15 C 10.29 134.27 0.30 118.65 3.23 103.88 Z" />
</g>
<g id="#43536bff">
<path fill="#43536b" opacity="1.00" d=" M 108.82 87.82 C 109.83 88.10 110.85 88.39 111.86 88.69 C 111.81 90.73 111.81 92.76 111.85 94.79 C 116.58 94.65 121.32 94.61 126.05 94.63 C 127.54 94.89 129.02 95.19 130.50 95.52 C 129.58 96.60 128.52 97.62 126.96 97.39 C 115.19 97.50 103.41 97.41 91.63 97.38 C 91.12 96.99 90.09 96.22 89.58 95.84 C 95.60 93.52 102.23 95.28 108.52 94.70 C 108.56 92.40 108.66 90.11 108.82 87.82 Z" />
</g>
<g id="#4ed0aaff">
<path fill="#4ed0aa" opacity="1.00" d=" M 25.25 89.97 C 25.57 90.10 26.20 90.36 26.52 90.49 C 25.11 100.96 26.28 111.60 25.92 122.14 C 25.36 122.15 24.25 122.15 23.69 122.15 C 21.42 122.16 19.14 122.16 16.87 122.15 C 19.48 111.38 22.35 100.67 25.25 89.97 Z" />
<path fill="#4ed0aa" opacity="1.00" d=" M 40.05 94.12 L 40.64 94.27 C 40.67 103.01 40.45 111.75 40.77 120.49 C 40.18 120.48 39.01 120.48 38.43 120.48 C 37.09 120.48 35.75 120.47 34.41 120.47 C 33.93 118.11 33.34 115.78 32.70 113.46 C 34.23 109.96 35.53 106.37 36.77 102.77 C 37.53 100.67 38.30 98.57 39.10 96.49 C 39.34 95.90 39.81 94.71 40.05 94.12 Z" />
</g>
<g id="#3bbf98ff">
<path fill="#3bbf98" opacity="1.00" d=" M 25.92 122.14 C 26.28 111.60 25.11 100.96 26.52 90.49 C 27.86 94.80 28.89 99.21 30.06 103.57 C 30.93 106.87 31.80 110.16 32.70 113.46 C 33.34 115.78 33.93 118.11 34.41 120.47 C 34.50 120.90 34.67 121.77 34.76 122.20 C 32.56 122.17 30.37 122.14 28.18 122.14 C 27.61 122.14 26.48 122.14 25.92 122.14 Z" />
</g>
<g id="#b24d54ff">
<path fill="#b24d54" opacity="1.00" d=" M 26.52 90.49 C 30.84 92.22 34.92 94.45 39.10 96.49 C 38.30 98.57 37.53 100.67 36.77 102.77 C 35.77 100.11 34.69 97.48 33.27 95.01 C 32.20 97.86 31.16 100.73 30.06 103.57 C 28.89 99.21 27.86 94.80 26.52 90.49 Z" />
</g>
<g id="#c95861ff">
<path fill="#c95861" opacity="1.00" d=" M 41.43 94.55 C 45.80 96.02 49.89 98.17 54.19 99.81 C 52.27 103.89 50.34 108.02 47.46 111.54 C 45.39 105.90 43.18 100.30 41.43 94.55 Z" />
</g>
<g id="#249875ff">
<path fill="#249875" opacity="1.00" d=" M 130.50 95.52 C 132.77 96.28 134.95 97.28 137.14 98.23 C 137.04 105.20 131.57 110.47 130.47 117.19 C 129.87 119.22 130.36 121.87 128.45 123.27 C 128.42 114.68 128.43 106.08 128.41 97.48 C 122.30 97.49 116.19 97.49 110.08 97.49 C 103.96 97.42 97.84 97.61 91.72 97.42 L 91.63 97.38 C 103.41 97.41 115.19 97.50 126.96 97.39 C 128.52 97.62 129.58 96.60 130.50 95.52 Z" />
</g>
<g id="#e0626cff">
<path fill="#e0626c" opacity="1.00" d=" M 54.19 99.81 C 56.92 100.78 59.51 102.09 61.96 103.62 C 62.00 102.94 62.08 101.58 62.11 100.90 C 62.44 102.13 62.77 103.36 63.02 104.60 C 64.69 117.36 57.88 130.74 46.10 136.19 L 45.80 135.26 C 46.88 130.99 48.97 127.08 50.87 123.13 C 50.24 122.25 49.60 121.37 48.97 120.50 C 49.41 120.50 50.28 120.50 50.72 120.50 C 49.63 117.51 48.56 114.52 47.46 111.54 C 50.34 108.02 52.27 103.89 54.19 99.81 Z" />
</g>
<g id="#ed6771ff">
<path fill="#ed6771" opacity="1.00" d=" M 96.43 99.58 C 98.26 104.97 96.86 110.77 97.29 116.34 C 100.38 113.86 103.13 111.00 105.98 108.25 C 107.31 109.24 108.63 110.22 109.96 111.21 L 109.93 111.98 C 109.85 112.84 109.69 114.56 109.61 115.42 C 108.45 114.47 107.26 113.55 106.08 112.63 C 103.28 115.32 100.45 117.99 97.79 120.81 C 98.27 120.80 99.25 120.78 99.73 120.77 C 106.81 121.21 113.89 120.59 120.97 120.70 C 122.53 120.74 124.21 120.69 125.50 121.76 C 120.36 122.20 115.19 122.00 110.04 121.91 C 105.43 121.81 100.82 121.81 96.21 121.79 C 96.32 114.39 95.88 106.97 96.43 99.58 Z" />
</g>
<g id="#f7e8e0ff">
<path fill="#f7e8e0" opacity="1.00" d=" M 186.11 100.16 C 187.57 100.14 189.03 100.12 190.49 100.11 L 190.16 101.01 C 188.07 106.95 185.72 112.81 183.67 118.77 C 182.94 118.78 181.46 118.80 180.72 118.81 C 180.32 118.77 179.51 118.70 179.10 118.66 L 179.59 117.38 C 181.30 113.11 182.85 108.79 184.47 104.50 C 185.01 103.05 185.56 101.61 186.11 100.16 Z" />
<path fill="#f7e8e0" opacity="1.00" d=" M 33.17 178.96 C 34.43 178.27 35.42 176.81 36.95 176.77 C 37.96 177.38 38.78 178.24 39.58 179.10 C 40.27 180.06 40.95 181.04 41.61 182.02 C 40.41 183.02 39.21 184.01 38.00 185.00 C 37.07 184.10 36.15 183.18 35.25 182.25 C 34.51 181.18 33.85 180.06 33.17 178.96 M 36.10 177.90 C 35.84 178.36 35.32 179.30 35.06 179.76 C 36.24 180.97 37.09 182.88 38.94 183.12 C 41.00 181.09 37.28 179.36 36.10 177.90 Z" />
</g>
<g id="#1383afff">
<path fill="#1383af" opacity="1.00" d=" M 190.16 101.01 C 191.43 99.92 192.95 101.44 194.26 101.75 C 197.50 103.20 200.63 104.92 204.01 106.03 C 203.79 106.53 203.34 107.55 203.11 108.05 C 199.12 105.97 195.12 103.89 190.95 102.20 C 190.99 103.17 191.07 105.09 191.11 106.06 C 193.60 107.23 196.09 108.42 198.54 109.69 C 196.10 110.56 193.71 111.52 191.28 112.41 C 191.19 113.80 191.11 115.19 191.04 116.59 C 191.52 116.41 192.47 116.04 192.95 115.86 C 192.66 116.14 192.10 116.71 191.82 116.99 C 192.13 119.05 191.95 121.13 191.51 123.15 C 187.85 121.87 183.99 120.98 180.72 118.81 C 181.46 118.80 182.94 118.78 183.67 118.77 C 185.72 112.81 188.07 106.95 190.16 101.01 Z" />
</g>
<g id="#ffd254ff">
<path fill="#ffd254" opacity="1.00" d=" M 165.03 109.14 C 169.29 106.37 173.96 104.28 178.57 102.16 L 178.60 102.80 C 178.64 103.56 178.71 105.08 178.75 105.83 C 176.17 107.14 173.63 108.55 170.95 109.65 C 168.97 109.47 167.00 109.30 165.03 109.14 Z" />
</g>
<g id="#127aa2ff">
<path fill="#127aa2" opacity="1.00" d=" M 178.60 102.80 C 180.57 103.32 182.52 103.89 184.47 104.50 C 182.85 108.79 181.30 113.11 179.59 117.38 C 179.43 117.12 179.09 116.59 178.92 116.33 C 178.72 115.09 178.56 113.85 178.41 112.60 C 175.96 111.53 173.50 110.46 170.95 109.65 C 173.63 108.55 176.17 107.14 178.75 105.83 C 178.71 105.08 178.64 103.56 178.60 102.80 Z" />
</g>
<g id="#e0545fff">
<path fill="#e0545f" opacity="1.00" d=" M 116.14 104.96 C 118.46 104.38 120.81 103.87 123.17 103.39 C 122.71 105.72 122.27 108.06 121.88 110.41 C 121.00 110.14 120.12 109.96 119.22 109.87 C 116.62 112.21 114.58 115.09 112.12 117.56 C 111.66 117.16 110.74 116.38 110.29 115.98 L 109.61 115.42 C 109.69 114.56 109.85 112.84 109.93 111.98 C 110.49 112.23 111.63 112.73 112.19 112.98 C 113.79 111.24 115.39 109.51 117.02 107.81 C 116.72 106.86 116.43 105.91 116.14 104.96 Z" />
</g>
<g id="#1b0e0f41">
<path fill="#1b0e0f" opacity="0.25" d=" M 63.02 104.60 C 66.06 112.46 63.76 121.39 58.87 127.96 C 55.59 131.49 52.36 135.37 47.87 137.40 C 43.95 138.98 39.81 140.95 35.46 140.26 C 31.86 139.76 28.00 140.08 24.76 138.15 C 31.85 139.84 39.49 139.35 46.10 136.19 C 57.88 130.74 64.69 117.36 63.02 104.60 Z" />
</g>
<g id="#08120f3d">
<path fill="#08120f" opacity="0.24" d=" M 140.10 104.87 C 142.86 111.75 141.13 119.39 137.57 125.60 C 132.32 133.58 123.84 140.02 114.05 140.52 C 109.92 140.05 105.53 140.12 101.75 138.19 C 107.20 139.39 112.93 139.54 118.33 138.01 C 119.44 137.66 120.54 137.27 121.62 136.83 C 134.17 131.92 141.69 118.10 140.10 104.87 Z" />
</g>
<g id="#1698caff">
<path fill="#1698ca" opacity="1.00" d=" M 204.01 106.03 C 207.55 106.74 210.55 108.85 213.75 110.39 C 211.51 116.59 208.45 122.50 205.16 128.21 C 202.38 127.38 199.60 126.56 196.91 125.47 C 197.49 125.17 198.64 124.55 199.22 124.24 C 200.67 119.97 204.13 116.10 203.41 111.33 C 203.78 110.55 204.12 109.77 204.45 108.98 C 204.12 108.75 203.45 108.29 203.11 108.05 C 203.34 107.55 203.79 106.53 204.01 106.03 Z" />
<path fill="#1698ca" opacity="1.00" d=" M 132.16 177.81 C 134.38 178.79 136.61 179.74 138.84 180.70 C 140.24 189.61 137.51 199.01 131.44 205.70 C 128.76 205.00 126.10 204.18 123.52 203.16 C 124.86 199.06 126.72 195.16 128.11 191.08 C 128.59 190.13 128.01 189.17 127.72 188.28 C 129.05 187.92 130.37 187.56 131.69 187.16 C 131.30 184.66 128.58 185.33 126.78 184.88 C 127.70 184.44 128.63 183.99 129.55 183.54 C 130.41 181.63 131.28 179.72 132.16 177.81 Z" />
</g>
<g id="#06101437">
<path fill="#061014" opacity="0.22" d=" M 216.50 107.15 C 218.78 123.04 205.94 139.05 190.02 140.46 C 185.50 140.92 180.85 140.30 176.80 138.16 C 184.59 140.03 193.12 139.24 200.08 135.12 C 206.03 131.86 210.29 126.32 213.17 120.29 C 216.63 116.91 215.92 111.57 216.50 107.15 Z" />
</g>
<g id="#fdb62fff">
<path fill="#fdb62f" opacity="1.00" d=" M 165.03 109.14 C 167.00 109.30 168.97 109.47 170.95 109.65 C 173.50 110.46 175.96 111.53 178.41 112.60 C 178.56 113.85 178.72 115.09 178.92 116.33 C 174.39 115.15 170.08 113.01 165.96 110.86 C 165.72 110.43 165.26 109.57 165.03 109.14 Z" />
</g>
<g id="#feb62dff">
<path fill="#feb62d" opacity="1.00" d=" M 198.54 109.69 C 200.49 109.33 202.47 109.18 204.45 108.98 C 204.12 109.77 203.78 110.55 203.41 111.33 C 199.90 112.77 196.39 114.23 192.95 115.86 C 192.47 116.04 191.52 116.41 191.04 116.59 C 191.11 115.19 191.19 113.80 191.28 112.41 C 193.71 111.52 196.10 110.56 198.54 109.69 Z" />
<path fill="#feb62d" opacity="1.00" d=" M 189.51 180.24 C 190.59 179.98 192.74 179.47 193.82 179.21 C 193.62 180.60 193.42 181.99 193.21 183.38 C 190.17 184.15 188.30 186.82 186.31 189.02 C 185.95 188.62 185.24 187.84 184.88 187.44 C 184.86 186.89 184.82 185.79 184.79 185.24 C 185.28 185.36 186.24 185.61 186.73 185.73 C 187.68 184.68 188.64 183.62 189.61 182.58 C 189.58 181.99 189.53 180.83 189.51 180.24 Z" />
</g>
<g id="#158ebeff">
<path fill="#158ebe" opacity="1.00" d=" M 192.95 115.86 C 196.39 114.23 199.90 112.77 203.41 111.33 C 204.13 116.10 200.67 119.97 199.22 124.24 C 198.64 124.55 197.49 125.17 196.91 125.47 C 195.11 124.69 193.30 123.93 191.51 123.15 C 191.95 121.13 192.13 119.05 191.82 116.99 C 192.10 116.71 192.66 116.14 192.95 115.86 Z" />
</g>
<g id="#c4565eff">
<path fill="#c4565e" opacity="1.00" d=" M 34.41 120.47 C 35.75 120.47 37.09 120.48 38.43 120.48 C 38.22 122.56 38.72 124.51 40.75 125.52 C 38.65 127.50 38.51 130.86 36.04 132.50 C 32.38 130.97 28.57 129.84 24.86 128.43 C 25.61 128.34 27.11 128.16 27.86 128.07 C 27.94 126.09 28.05 124.11 28.18 122.14 C 30.37 122.14 32.56 122.17 34.76 122.20 C 34.67 121.77 34.50 120.90 34.41 120.47 Z" />
</g>
<g id="#d65e67ff">
<path fill="#d65e67" opacity="1.00" d=" M 43.09 120.49 C 45.05 120.49 47.01 120.49 48.97 120.50 C 49.60 121.37 50.24 122.25 50.87 123.13 C 48.97 127.08 46.88 130.99 45.80 135.26 C 42.48 134.60 39.17 133.82 36.04 132.50 C 38.51 130.86 38.65 127.50 40.75 125.52 C 42.30 124.26 42.71 122.34 43.09 120.49 Z" />
</g>
<g id="#4f617bff">
<path fill="#4f617b" opacity="1.00" d=" M 23.69 122.15 C 24.25 122.15 25.36 122.15 25.92 122.14 C 26.48 122.14 27.61 122.14 28.18 122.14 C 28.05 124.11 27.94 126.09 27.86 128.07 C 27.11 128.16 25.61 128.34 24.86 128.43 C 23.19 126.77 23.91 124.25 23.69 122.15 Z" />
</g>
<g id="#546880ff">
<path fill="#546880" opacity="1.00" d=" M 102.52 123.68 C 103.75 123.68 104.98 123.68 106.21 123.67 C 105.06 126.52 103.84 129.33 102.56 132.12 C 101.65 131.72 100.74 131.33 99.84 130.93 C 100.73 128.51 101.63 126.09 102.52 123.68 Z" />
</g>
<g id="#41546bff">
<path fill="#41546b" opacity="1.00" d=" M 113.99 123.66 C 115.23 123.65 116.46 123.65 117.70 123.65 C 118.80 126.25 119.84 128.93 119.96 131.79 C 119.29 131.75 117.97 131.68 117.30 131.65 C 116.86 130.65 116.43 129.65 116.00 128.65 C 115.30 127.00 114.64 125.33 113.99 123.66 Z" />
</g>
<g id="#259a77ff">
<path fill="#259a77" opacity="1.00" d=" M 117.70 123.65 C 121.14 123.63 124.57 123.70 128.01 123.71 C 125.09 127.57 122.14 131.90 121.62 136.83 C 120.54 137.27 119.44 137.66 118.33 138.01 C 115.95 137.14 113.57 136.32 111.19 135.47 C 113.31 133.60 114.71 131.13 116.00 128.65 C 116.43 129.65 116.86 130.65 117.30 131.65 C 117.97 131.68 119.29 131.75 119.96 131.79 C 119.84 128.93 118.80 126.25 117.70 123.65 Z" />
</g>
<g id="#ffd252ff">
<path fill="#ffd252" opacity="1.00" d=" M 34.86 169.80 C 36.06 168.52 37.81 169.18 39.17 169.81 C 40.78 171.79 42.35 173.81 44.03 175.73 C 43.54 176.08 42.56 176.78 42.07 177.12 L 41.64 176.63 C 39.96 175.25 38.77 171.80 36.31 172.28 C 30.62 176.55 25.49 181.55 19.95 186.03 C 21.31 187.93 22.73 189.78 24.25 191.54 C 23.61 192.58 22.97 193.63 22.33 194.69 C 20.88 194.28 19.39 194.12 18.02 194.92 C 20.54 196.22 18.54 197.64 17.82 198.86 C 16.65 194.70 17.18 190.33 17.39 186.09 C 17.29 184.27 19.10 183.36 20.21 182.24 C 25.17 178.18 29.88 173.83 34.86 169.80 Z" />
</g>
<g id="#1486b2ff">
<path fill="#1486b2" opacity="1.00" d=" M 39.17 169.81 C 43.35 171.44 47.51 173.12 51.61 174.92 C 51.29 177.27 50.17 179.37 49.03 181.41 C 47.39 179.50 45.69 177.64 44.03 175.73 C 42.35 173.81 40.78 171.79 39.17 169.81 Z" />
</g>
<g id="#526880ff">
<path fill="#526880" opacity="1.00" d=" M 36.31 172.28 C 38.77 171.80 39.96 175.25 41.64 176.63 C 41.13 177.25 40.10 178.48 39.58 179.10 C 38.78 178.24 37.96 177.38 36.95 176.77 C 35.42 176.81 34.43 178.27 33.17 178.96 C 33.85 180.06 34.51 181.18 35.25 182.25 C 35.19 183.22 35.06 185.17 35.00 186.15 C 34.39 186.26 33.18 186.50 32.57 186.62 C 33.23 185.35 33.90 184.10 34.59 182.85 C 33.28 183.36 31.96 183.86 30.64 184.34 C 31.35 182.86 32.08 181.39 32.83 179.93 C 31.44 180.90 30.05 181.89 28.66 182.87 C 30.30 184.71 31.87 186.61 33.30 188.62 L 32.14 188.17 C 31.58 187.86 30.48 187.23 29.93 186.91 C 28.51 187.20 26.92 188.52 25.59 187.13 C 26.55 186.64 28.46 185.65 29.42 185.16 C 27.40 184.08 25.74 185.38 24.34 186.79 C 24.78 187.54 25.66 189.05 26.11 189.80 C 25.65 190.56 25.19 191.33 24.73 192.10 L 24.25 191.54 C 22.73 189.78 21.31 187.93 19.95 186.03 C 25.49 181.55 30.62 176.55 36.31 172.28 Z" />
</g>
<g id="#148bb9ff">
<path fill="#148bb9" opacity="1.00" d=" M 120.10 172.15 C 124.23 173.80 128.09 176.03 132.16 177.81 C 131.28 179.72 130.41 181.63 129.55 183.54 C 128.63 183.99 127.70 184.44 126.78 184.88 C 125.80 184.07 124.85 183.18 124.23 182.06 C 125.06 180.43 126.23 179.01 127.28 177.52 C 125.43 177.94 123.70 178.74 122.14 179.82 C 120.84 178.59 119.54 177.37 118.22 176.17 C 118.85 174.83 119.47 173.49 120.10 172.15 Z" />
</g>
<g id="#f8ede8ff">
<path fill="#f8ede8" opacity="1.00" d=" M 169.36 174.05 C 179.66 173.61 190.00 173.79 200.31 173.98 C 200.53 181.12 200.24 188.26 200.51 195.40 C 202.25 195.74 205.61 194.37 205.78 197.22 C 191.98 197.66 178.13 196.67 164.36 197.75 C 164.34 196.97 164.34 196.20 164.35 195.42 C 166.03 195.41 167.72 195.39 169.41 195.37 C 169.38 188.26 169.45 181.15 169.36 174.05 M 171.44 176.73 C 171.84 182.16 171.53 187.61 171.65 193.05 C 175.89 193.09 180.13 193.16 184.36 192.92 C 184.12 194.15 184.56 194.95 185.67 195.33 C 185.63 194.77 185.56 193.64 185.52 193.08 C 189.82 192.88 194.33 193.87 198.49 192.58 C 197.98 187.12 198.46 181.63 198.18 176.16 C 189.28 176.52 180.28 175.82 171.44 176.73 Z" />
</g>
<g id="#249775ff">
<path fill="#249775" opacity="1.00" d=" M 200.31 173.98 C 204.76 175.87 209.20 177.82 213.48 180.09 C 211.65 186.47 207.82 192.04 206.26 198.51 C 203.87 202.61 201.06 206.57 199.91 211.27 C 195.16 210.05 190.51 208.49 186.00 206.58 C 187.11 204.55 188.24 202.52 189.40 200.52 C 191.53 200.18 193.61 199.61 195.57 198.70 C 198.87 198.54 202.17 198.66 205.47 198.41 L 205.78 197.22 C 205.61 194.37 202.25 195.74 200.51 195.40 C 200.24 188.26 200.53 181.12 200.31 173.98 Z" />
</g>
<g id="#1695c6ff">
<path fill="#1695c6" opacity="1.00" d=" M 51.61 174.92 C 55.14 176.37 58.55 178.06 61.89 179.90 C 61.96 179.44 62.09 178.52 62.16 178.06 C 63.37 182.06 63.51 186.28 63.10 190.42 C 61.34 198.98 56.59 207.17 48.86 211.62 C 49.14 211.24 49.70 210.47 49.98 210.08 C 46.35 209.10 42.81 207.81 39.34 206.36 C 39.38 199.52 45.83 194.50 45.35 187.54 C 47.08 185.88 50.04 184.27 49.03 181.41 C 50.17 179.37 51.29 177.27 51.61 174.92 Z" />
</g>
<g id="#40546bff">
<path fill="#40546b" opacity="1.00" d=" M 171.44 176.73 C 180.28 175.82 189.28 176.52 198.18 176.16 C 198.46 181.63 197.98 187.12 198.49 192.58 C 197.77 192.40 196.31 192.04 195.58 191.86 C 191.95 191.05 188.22 191.35 184.54 191.27 C 184.98 190.71 185.87 189.58 186.31 189.02 C 188.30 186.82 190.17 184.15 193.21 183.38 C 193.42 181.99 193.62 180.60 193.82 179.21 C 192.74 179.47 190.59 179.98 189.51 180.24 C 189.53 180.83 189.58 181.99 189.61 182.58 C 188.64 183.62 187.68 184.68 186.73 185.73 C 186.24 185.61 185.28 185.36 184.79 185.24 L 184.80 184.19 C 184.87 181.81 184.87 179.44 184.80 177.07 C 182.04 177.08 179.28 177.20 176.53 177.31 C 176.29 177.31 175.81 177.31 175.57 177.31 C 174.54 177.16 172.47 176.87 171.44 176.73 Z" />
</g>
<g id="#41556bff">
<path fill="#41556b" opacity="1.00" d=" M 41.64 176.63 L 42.07 177.12 C 43.33 179.02 46.03 180.64 46.01 182.98 C 43.23 186.19 39.62 188.54 36.52 191.42 C 34.13 193.30 32.12 195.83 29.24 196.98 C 27.55 195.53 26.18 193.78 24.73 192.10 C 25.19 191.33 25.65 190.56 26.11 189.80 C 27.40 189.30 28.69 188.79 29.98 188.29 C 30.21 188.65 30.68 189.39 30.91 189.76 C 29.62 190.36 28.19 190.97 27.54 192.36 C 29.96 192.41 32.54 190.92 32.14 188.17 L 33.30 188.62 C 33.54 188.57 34.02 188.48 34.27 188.43 C 35.57 187.48 36.51 186.13 37.45 184.85 L 35.00 186.15 C 35.06 185.17 35.19 183.22 35.25 182.25 C 36.15 183.18 37.07 184.10 38.00 185.00 C 39.21 184.01 40.41 183.02 41.61 182.02 C 40.95 181.04 40.27 180.06 39.58 179.10 C 40.10 178.48 41.13 177.25 41.64 176.63 Z" />
</g>
<g id="#060e1133">
<path fill="#060e11" opacity="0.20" d=" M 138.06 176.91 C 140.43 179.77 140.84 183.46 140.60 187.05 C 141.13 196.33 136.04 205.17 129.04 210.95 C 124.00 215.17 117.36 216.50 111.04 217.49 C 108.97 217.88 106.90 217.39 105.03 216.50 C 108.48 216.23 112.28 217.24 115.34 215.16 C 121.38 213.35 127.18 210.45 131.44 205.70 C 137.51 199.01 140.24 189.61 138.84 180.70 C 138.61 179.43 138.35 178.17 138.06 176.91 Z" />
</g>
<g id="#ffd751ff">
<path fill="#ffd751" opacity="1.00" d=" M 175.57 177.31 C 175.81 177.31 176.29 177.31 176.53 177.31 C 176.47 180.92 176.43 184.53 176.48 188.14 C 178.44 186.51 180.30 184.75 182.02 182.86 C 182.95 183.29 183.87 183.74 184.80 184.19 L 184.79 185.24 C 184.82 185.79 184.86 186.89 184.88 187.44 C 184.01 186.82 183.12 186.22 182.23 185.63 C 180.45 187.43 178.69 189.25 176.97 191.12 C 179.49 191.18 182.01 191.25 184.54 191.27 C 188.22 191.35 191.95 191.05 195.58 191.86 C 188.94 191.94 182.31 191.88 175.68 191.65 C 175.69 186.87 175.68 182.09 175.57 177.31 Z" />
</g>
<g id="#28a580ff">
<path fill="#28a580" opacity="1.00" d=" M 214.27 177.88 C 214.51 179.15 214.77 180.41 214.97 181.69 C 216.63 193.64 210.69 206.20 200.13 212.14 L 199.91 211.27 C 201.06 206.57 203.87 202.61 206.26 198.51 C 207.82 192.04 211.65 186.47 213.48 180.09 C 213.68 179.53 214.07 178.43 214.27 177.88 Z" />
</g>
<g id="#444545ff">
<path fill="#444545" opacity="1.00" d=" M 103.76 181.79 C 104.54 179.95 106.64 179.35 108.18 178.33 C 108.27 181.51 108.30 184.69 107.96 187.85 C 107.47 187.98 106.49 188.23 106.00 188.36 C 103.57 187.27 102.63 184.14 103.76 181.79 Z" />
</g>
<g id="#515252ff">
<path fill="#515252" opacity="1.00" d=" M 108.18 178.33 C 110.62 179.36 113.72 180.79 113.48 183.98 C 113.67 187.26 110.43 188.69 107.84 189.54 C 107.38 189.24 106.46 188.66 106.00 188.36 C 106.49 188.23 107.47 187.98 107.96 187.85 C 108.30 184.69 108.27 181.51 108.18 178.33 Z" />
</g>
<g id="#08110e3a">
<path fill="#08110e" opacity="0.23" d=" M 214.97 181.69 C 216.94 184.02 216.63 187.19 216.54 190.04 C 215.70 203.40 204.71 215.30 191.48 217.28 C 186.51 218.02 181.27 217.52 176.76 215.19 C 184.60 217.03 193.11 216.22 200.13 212.14 C 210.69 206.20 216.63 193.64 214.97 181.69 Z" />
</g>
<g id="#0711163a">
<path fill="#071116" opacity="0.23" d=" M 64.60 184.03 C 66.27 198.03 56.98 212.30 43.50 216.28 C 37.42 218.27 30.47 218.13 24.74 215.16 C 32.84 217.08 41.78 216.20 48.86 211.62 C 56.59 207.17 61.34 198.98 63.10 190.42 C 64.29 188.49 64.55 186.25 64.60 184.03 Z" />
</g>
<g id="#d6bcaeff">
<path fill="#d6bcae" opacity="1.00" d=" M 87.67 186.25 C 88.28 186.20 89.49 186.12 90.10 186.08 C 95.49 189.86 101.01 194.54 107.96 194.62 C 114.77 195.15 120.67 190.74 124.98 185.91 C 125.33 186.26 126.02 186.96 126.37 187.31 C 120.96 193.50 112.93 197.63 104.54 196.29 C 100.83 194.95 97.05 193.57 93.97 191.04 C 92.15 189.52 90.05 188.44 87.76 187.83 C 87.74 187.43 87.69 186.64 87.67 186.25 Z" />
</g>
<g id="#158cbaff">
<path fill="#158cba" opacity="1.00" d=" M 126.37 187.31 C 128.14 187.25 129.91 187.21 131.69 187.16 C 130.37 187.56 129.05 187.92 127.72 188.28 C 128.01 189.17 128.59 190.13 128.11 191.08 C 126.72 195.16 124.86 199.06 123.52 203.16 C 117.26 200.67 110.67 199.12 104.54 196.29 C 112.93 197.63 120.96 193.50 126.37 187.31 Z" />
</g>
<g id="#1486b3ff">
<path fill="#1486b3" opacity="1.00" d=" M 30.71 199.72 C 35.85 196.00 40.32 191.42 45.35 187.54 C 45.83 194.50 39.38 199.52 39.34 206.36 C 33.02 203.82 26.47 201.88 20.18 199.27 C 23.71 198.81 27.20 200.19 30.71 199.72 Z" />
</g>
<g id="#208668ff">
<path fill="#208668" opacity="1.00" d=" M 166.35 198.75 C 176.08 198.41 185.83 198.54 195.57 198.70 C 193.61 199.61 191.53 200.18 189.40 200.52 C 188.24 202.52 187.11 204.55 186.00 206.58 C 179.52 203.79 172.66 201.94 166.35 198.75 Z" />
</g>
</svg>
