<?xml version="1.0" encoding="utf-8"?>
<!-- Generator: Adobe Illustrator 21.1.0, SVG Export Plug-In . SVG Version: 6.00 Build 0)  -->
<svg version="1.1" id="Layer_1" xmlns="http://www.w3.org/2000/svg" xmlns:xlink="http://www.w3.org/1999/xlink" x="0px" y="0px"
	 viewBox="0 0 82 82" style="enable-background:new 0 0 82 82;" xml:space="preserve">
<style type="text/css">
	.st0{fill:none;stroke:#00a04a;stroke-width:2;stroke-linecap:round;stroke-linejoin:round;}
</style>
<title>Compass arrow</title>
<g id="Layer_2-2">
	<path class="st0" d="M48.7,35.7l-0.2-0.3l0,0c-1.3-1.7-3.1-3-5.2-3.5l0,0l-0.4-0.1h-0.1L20,26.6L33.1,46l0.2,0.3l0.2,0.3l0,0
		c1.3,1.7,3.1,3,5.2,3.5l0,0l0.5,0.1l0,0L62,55.4L48.9,36L48.7,35.7z M42.7,38.5c1.4,0.9,1.7,2.8,0.8,4.2s-2.8,1.7-4.2,0.8
		c-1.4-0.9-1.7-2.8-0.8-4.2C39.5,38,41.3,37.6,42.7,38.5L42.7,38.5z"/>
</g>
</svg>
