<?xml version="1.0" encoding="utf-8"?>
<!-- Generator: Adobe Illustrator 15.1.0, SVG Export Plug-In . SVG Version: 6.00 Build 0)  -->
<!DOCTYPE svg PUBLIC "-//W3C//DTD SVG 1.1//EN" "http://www.w3.org/Graphics/SVG/1.1/DTD/svg11.dtd">
<svg version="1.1" id="Layer_1" xmlns="http://www.w3.org/2000/svg" xmlns:xlink="http://www.w3.org/1999/xlink" x="0px" y="0px"
	 width="63.082px" height="59.582px" viewBox="0 0 63.082 59.582" enable-background="new 0 0 63.082 59.582" xml:space="preserve">
<path fill="none" stroke="#FFFFFF" stroke-width="2.276" stroke-linecap="round" stroke-miterlimit="10" d="M53.923,31.815v21.558
	c0,2.434-1.972,4.403-4.405,4.403H2V10.259c0-2.433,1.972-4.404,4.404-4.404h21.558"/>
<path fill="none" stroke="#FFFFFF" stroke-width="2.276" stroke-linecap="round" stroke-miterlimit="10" d="M39.085,16.571
	c1.883-0.006,3.769,0.711,5.205,2.147c1.429,1.429,2.146,3.301,2.147,5.174"/>
<path fill="none" stroke="#FFFFFF" stroke-width="2.276" stroke-linecap="round" stroke-miterlimit="10" d="M38.527,9.12
	c3.977-0.154,8.002,1.285,11.039,4.322c2.884,2.884,4.328,6.66,4.334,10.439"/>
<path fill="none" stroke="#FFFFFF" stroke-width="2.276" stroke-linecap="round" stroke-miterlimit="10" d="M38.221,2.018
	c5.896-0.237,11.87,1.896,16.372,6.397c4.269,4.27,6.408,9.862,6.416,15.459"/>
<g enable-background="new    ">
	<path fill="#FFFFFF" d="M12.779,38.042l1.039-1.336c0.94,0.99,2.176,1.881,4.032,1.881c1.904,0,3.265-1.139,3.265-2.895
		c0-1.881-1.286-3.141-5.046-3.141v-1.559c3.364,0,4.477-1.287,4.477-2.944c0-1.533-1.039-2.498-2.721-2.498
		c-1.311,0-2.424,0.668-3.364,1.607l-1.088-1.286c1.212-1.138,2.671-1.979,4.526-1.979c2.746,0,4.724,1.459,4.724,4.007
		c0,1.904-1.163,3.116-2.869,3.76v0.098c1.905,0.445,3.414,1.83,3.414,4.008c0,2.795-2.3,4.502-5.194,4.502
		C15.45,40.269,13.842,39.205,12.779,38.042z"/>
</g>
<g>
	<path fill="#FFFFFF" d="M38.688,39.682c-0.964,0.371-2.894,0.915-5.145,0.915c-2.523,0-4.601-0.644-6.233-2.202
		c-1.435-1.385-2.325-3.611-2.325-6.208c0-4.971,3.438-8.607,9.028-8.607c1.93,0,3.463,0.42,4.18,0.767l-0.543,1.756
		c-0.891-0.42-2.004-0.717-3.686-0.717c-4.057,0-6.704,2.523-6.704,6.703c0,4.229,2.523,6.728,6.431,6.728
		c1.409,0,2.374-0.198,2.869-0.444v-4.973h-3.364v-1.73h5.491V39.682z"/>
</g>
</svg>
