<svg id="Isolation_Mode" data-name="Isolation Mode" xmlns="http://www.w3.org/2000/svg" viewBox="0 0 61.29 58.05"><defs><style>.cls-1{fill:none;stroke:#01a04a;stroke-linecap:round;stroke-miterlimit:10;stroke-width:2.28px;}.cls-2{fill:#01a04a;}</style></defs><title>Vector Smart Object</title><path class="cls-1" d="M89.08,265.26a7.33,7.33,0,0,1,7.35,7.32" transform="translate(-50.86 -249.55)"/><path class="cls-1" d="M88.52,257.8a14.79,14.79,0,0,1,15.37,14.76" transform="translate(-50.86 -249.55)"/><path class="cls-1" d="M88.21,250.7A21.91,21.91,0,0,1,111,272.56" transform="translate(-50.86 -249.55)"/><path class="cls-2" d="M68,288.66v-4.38H60.5v-1.43l7.17-10.27H70v10h2.25v1.71H70v4.38Zm0-6.08V277.2q0-1.26.07-2.52H68c-.49.94-.89,1.63-1.34,2.37l-3.93,5.47v0Z" transform="translate(-50.86 -249.55)"/><path class="cls-2" d="M88.62,287.91a15.54,15.54,0,0,1-5.12.92,7.83,7.83,0,0,1-8.56-8.41c0-5,3.44-8.61,9-8.61a10.31,10.31,0,0,1,4.16.77l-.52,1.76a8.65,8.65,0,0,0-3.69-.72c-4.06,0-6.7,2.52-6.7,6.7S79.77,287,83.65,287a7,7,0,0,0,2.87-.44v-5H83.13V279.9h5.49Z" transform="translate(-50.86 -249.55)"/><path class="cls-1" d="M103.92,280.5v21.56a4.4,4.4,0,0,1-4.4,4.4H52V258.94a4.4,4.4,0,0,1,4.4-4.4H78" transform="translate(-50.86 -249.55)"/></svg>