<svg id="Isolation_Mode" data-name="Isolation Mode" xmlns="http://www.w3.org/2000/svg" viewBox="0 0 53.96 54.64"><defs><style>.cls-1{fill:none;stroke:#01a04a;stroke-linecap:round;stroke-miterlimit:10;stroke-width:2.28px;}</style></defs><title>2</title><path class="cls-1" d="M185,148.61l-29-.08a4.41,4.41,0,0,0-4.42,4.39l-.06,20.49h4.18l0,7.56,10.77-7.53,18.49.05a4.41,4.41,0,0,0,4.42-4.39l0-16.09A4.41,4.41,0,0,0,185,148.61Z" transform="translate(-150.38 -147.39)"/><path class="cls-1" d="M175.43,182.74l0,11.62,14.66,0,8.19,5.5,0-5.47h.5a4.41,4.41,0,0,0,4.42-4.39l0-7.21a4.41,4.41,0,0,0-4.39-4.42l-19-.05A4.4,4.4,0,0,0,175.43,182.74Z" transform="translate(-150.38 -147.39)"/></svg>