<?xml version="1.0" encoding="utf-8"?>
<!-- Generator: Adobe Illustrator 15.1.0, SVG Export Plug-In . SVG Version: 6.00 Build 0)  -->
<!DOCTYPE svg PUBLIC "-//W3C//DTD SVG 1.1//EN" "http://www.w3.org/Graphics/SVG/1.1/DTD/svg11.dtd">
<svg version="1.1" id="Layer_2" xmlns="http://www.w3.org/2000/svg" xmlns:xlink="http://www.w3.org/1999/xlink" x="0px" y="0px"
	 width="292px" height="254px" viewBox="0 0 292 254" enable-background="new 0 0 292 254" xml:space="preserve">
<path fill="none" stroke="#299354" stroke-width="5" stroke-miterlimit="10" d="M288.385,116.667V31.197
	c0-15.048-12.24-27.246-27.338-27.246H31.955c-15.099,0-27.339,12.198-27.339,27.246v112.716"/>
<path fill="none" stroke="#299354" stroke-width="5" stroke-miterlimit="10" d="M4.616,111.197v112.716h34.876v25.402l42.229-25.402
	h179.326c15.098,0,27.338-12.2,27.338-27.246v-85.471"/>
<g>
	<path fill="#299354" d="M162.741,176.167h-60.563V67.432c0-6.395,5.205-11.6,11.603-11.6h35.311v4.252h-35.311
		c-4.053,0-7.351,3.296-7.351,7.349v104.482h56.313c4.053,0,7.351-3.297,7.351-7.353l-0.158-64.69l4.252-0.013l0.158,64.697
		C174.342,170.961,169.137,176.167,162.741,176.167z"/>
	<rect x="104.303" y="74.521" fill="#299354" width="45.594" height="4.253"/>
	<rect x="104.303" y="143.751" fill="#299354" width="67.913" height="4.252"/>
	<path fill="#299354" d="M140.629,69.093h-13.424c-1.352,0-2.448-1.096-2.448-2.448c0-1.352,1.096-2.447,2.448-2.447h13.424
		c1.352,0,2.448,1.097,2.448,2.447C143.077,67.999,141.981,69.093,140.629,69.093z"/>
	<path fill="#299354" d="M144.578,161.222h-13.425c-1.352,0-2.448-1.096-2.448-2.448c0-1.352,1.096-2.446,2.448-2.446h13.425
		c1.352,0,2.448,1.096,2.448,2.446C147.026,160.126,145.93,161.222,144.578,161.222z"/>
	<path fill="#299354" d="M147.735,69.093h-0.59c-1.352,0-2.448-1.096-2.448-2.448c0-1.352,1.096-2.447,2.448-2.447h0.59
		c1.352,0,2.448,1.097,2.448,2.447C150.183,67.999,149.087,69.093,147.735,69.093z"/>
	<g>
		<path fill="#299354" d="M189.392,78.453l-3.989-4.014c-0.632-0.635-1.658-0.639-2.293-0.008l-1.383,1.373
			c-0.613,0.614-1.611,0.611-2.226-0.006l-5.166-5.195c-0.613-0.616-0.611-1.612,0.005-2.227l1.383-1.375
			c0.635-0.629,0.639-1.655,0.006-2.291l-4.007-4.027c-0.42-0.424-1.104-0.425-1.524-0.004l-1.031,1.022
			c-2.887,2.87-2.898,7.538-0.028,10.427l8.794,8.844c2.872,2.89,7.54,2.901,10.428,0.03l1.03-1.024
			C189.81,79.558,189.812,78.875,189.392,78.453z"/>
		<path fill="#299354" d="M176.872,94.494c-12.824,0-23.258-10.434-23.258-23.257c0-12.822,10.434-23.257,23.258-23.257
			c12.822,0,23.256,10.435,23.256,23.257C200.127,84.06,189.696,94.494,176.872,94.494z M176.872,51.435
			c-10.92,0-19.803,8.884-19.803,19.802s8.883,19.801,19.803,19.801c10.918,0,19.8-8.883,19.8-19.801S187.79,51.435,176.872,51.435z
			"/>
	</g>
	<g>
		<path fill="#299354" d="M115.555,103.522h11.31v3.141h-7.626v4.331h7.004v3.111h-7.004v4.438h7.859v3.138h-11.543V103.522z"/>
		<path fill="#299354" d="M143.977,115.456c0,3.902-3.061,6.511-6.849,6.511c-3.787,0-6.848-2.607-6.848-6.511v-11.934h3.684v12.088
			c0,1.906,1.4,3.141,3.164,3.141c1.765,0,3.165-1.232,3.165-3.141v-12.088h3.684V115.456z"/>
		<path fill="#299354" d="M154.23,103.522c3.864,0,6.343,2.334,6.343,5.851c0,2.724-1.479,4.721-3.97,5.46l4.396,6.848h-4.021
			l-4.071-6.459h-1.439v6.459h-3.657v-18.158H154.23L154.23,103.522z M151.466,106.556v5.72h2.479c1.904,0,2.942-1.152,2.942-2.854
			c0-1.738-1.051-2.866-2.942-2.866H151.466L151.466,106.556z"/>
	</g>
</g>
</svg>
