<?xml version="1.0" encoding="utf-8"?>
<!-- Generator: Adobe Illustrator 21.0.2, SVG Export Plug-In . SVG Version: 6.00 Build 0)  -->
<svg version="1.1" id="Layer_1" xmlns="http://www.w3.org/2000/svg" xmlns:xlink="http://www.w3.org/1999/xlink" x="0px" y="0px"
	 viewBox="0 0 60 60" style="enable-background:new 0 0 60 60;" xml:space="preserve">
<style type="text/css">
	.st0{fill:none;stroke:#009e4c;stroke-width:2;stroke-miterlimit:10;}
	.st1{fill:none;stroke:#009e4c;stroke-miterlimit:10;}
</style>
<path class="st0" d="M39.5,45h-19c-1.1,0-2-0.9-2-2V17c0-1.1,0.9-2,2-2h19c1.1,0,2,0.9,2,2v26C41.5,44.1,40.6,45,39.5,45z"/>
<path class="st1" d="M31.5,41.7c0.2-1-0.7-1.9-1.7-1.7c-0.6,0.1-1.1,0.6-1.2,1.2c-0.2,1,0.7,1.9,1.7,1.7
	C30.9,42.8,31.4,42.3,31.5,41.7"/>
<line class="st0" x1="18.5" y1="18.7" x2="41.5" y2="18.7"/>
<line class="st0" x1="18.5" y1="37.3" x2="41.5" y2="37.3"/>
</svg>
