<svg xmlns="http://www.w3.org/2000/svg" width="42" height="42" viewBox="0 0 42 42">
  <metadata><?xpacket begin="﻿" id="W5M0MpCehiHzreSzNTczkc9d"?>
<x:xmpmeta xmlns:x="adobe:ns:meta/" x:xmptk="Adobe XMP Core 5.6-c138 79.159824, 2016/09/14-01:09:01        ">
   <rdf:RDF xmlns:rdf="http://www.w3.org/1999/02/22-rdf-syntax-ns#">
      <rdf:Description rdf:about=""/>
   </rdf:RDF>
</x:xmpmeta>
                                                                                                    
                                                                                                    
                                                                                                    
                                                                                                    
                                                                                                    
                                                                                                    
                                                                                                    
                                                                                                    
                                                                                                    
                                                                                                    
                                                                                                    
                                                                                                    
                                                                                                    
                                                                                                    
                                                                                                    
                                                                                                    
                                                                                                    
                                                                                                    
                                                                                                    
                                                                                                    
                           
<?xpacket end="w"?></metadata>
<defs>
    <style>
      .cls-1 {
        fill: #333;
        fill-rule: evenodd;
      }
    </style>
  </defs>
  <path id="Compound_Shape" data-name="Compound Shape" class="cls-1" d="M790.813,1915.81a6.8,6.8,0,1,1,0-9.62A6.776,6.776,0,0,1,790.813,1915.81Zm1.416-11.04a8.805,8.805,0,1,0,0,12.45A8.761,8.761,0,0,0,792.229,1904.77Zm2.255,14.71A11.989,11.989,0,1,1,798,1911,11.938,11.938,0,0,1,794.484,1919.48Zm-21.069,8.6-7.981,7.98a3.182,3.182,0,1,1-4.5-4.5l7.98-7.98A3.182,3.182,0,0,1,773.415,1928.08ZM795.9,1901.1a14,14,0,0,0-20.476,19.06l-1.369,1.37a5.184,5.184,0,0,0-6.557.64l-7.98,7.98a5.184,5.184,0,1,0,7.332,7.33l7.982-7.98a5.188,5.188,0,0,0,.637-6.55l1.371-1.38A13.994,13.994,0,0,0,795.9,1901.1Z" transform="translate(-758 -1897)"/>
</svg>
