<svg xmlns="http://www.w3.org/2000/svg" xmlns:xlink="http://www.w3.org/1999/xlink" width="39" height="27" viewBox="0 0 39 27">
    <defs>
        <path id="a" d="M.685.865h1.5V12h-1.5z"/>
        <path id="c" d="M.017.865h1.5V12h-1.5z"/>
        <path id="e" d="M0 .708h10.253v10.256H0z"/>
        <path id="g" d="M.96.865h1.5V12H.96z"/>
        <path id="i" d="M.291.865h1.5V12h-1.5z"/>
        <path id="k" d="M.234.865h1.5V12h-1.5z"/>
        <path id="m" d="M.565.865h1.5V12h-1.5z"/>
        <path id="o" d="M.548.708h10.253v10.256H.548z"/>
    </defs>
    <g fill="none" fill-rule="evenodd">
        <g transform="translate(2 14.5)">
            <mask id="b" fill="#fff">
                <use xlink:href="#a"/>
            </mask>
            <path fill="#FFF" d="M1.435.865a.75.75 0 0 0-.75.75v9.635a.75.75 0 0 0 1.5 0V1.615a.75.75 0 0 0-.75-.75" mask="url(#b)"/>
        </g>
        <g transform="translate(6 14.5)">
            <mask id="d" fill="#fff">
                <use xlink:href="#c"/>
            </mask>
            <path fill="#FFF" d="M.767.865a.75.75 0 0 0-.75.75v9.635a.75.75 0 1 0 1.5 0V1.615a.75.75 0 0 0-.75-.75" mask="url(#d)"/>
        </g>
        <path fill="#FFF" d="M5.112 1.5c1.095 0 1.986.891 1.986 1.986a1.989 1.989 0 0 1-1.986 1.987 1.989 1.989 0 0 1-1.986-1.987c0-1.095.89-1.986 1.986-1.986m0 5.473a3.49 3.49 0 0 0 3.486-3.487A3.49 3.49 0 0 0 5.112 0a3.49 3.49 0 0 0-3.486 3.486 3.49 3.49 0 0 0 3.486 3.487"/>
        <g transform="translate(0 7.5)">
            <mask id="f" fill="#fff">
                <use xlink:href="#e"/>
            </mask>
            <path fill="#FFF" d="M7.319.708H2.935A2.938 2.938 0 0 0 0 3.643v6.571a.75.75 0 0 0 1.5 0V3.643c0-.791.644-1.435 1.435-1.435h4.384c.79 0 1.434.644 1.434 1.435v6.571a.75.75 0 0 0 1.5 0V3.643A2.937 2.937 0 0 0 7.319.708" mask="url(#f)"/>
        </g>
        <g transform="translate(16 14.5)">
            <mask id="h" fill="#fff">
                <use xlink:href="#g"/>
            </mask>
            <path fill="#FFF" d="M1.71.865a.75.75 0 0 0-.75.75v9.635a.75.75 0 1 0 1.5 0V1.615a.75.75 0 0 0-.75-.75" mask="url(#h)"/>
        </g>
        <g transform="translate(20 14.5)">
            <mask id="j" fill="#fff">
                <use xlink:href="#i"/>
            </mask>
            <path fill="#FFF" d="M1.041.865a.75.75 0 0 0-.75.75v9.635a.75.75 0 0 0 1.5 0V1.615a.75.75 0 0 0-.75-.75" mask="url(#j)"/>
        </g>
        <path fill="#FFF" d="M19.386 1.5c1.095 0 1.986.891 1.986 1.986a1.989 1.989 0 0 1-1.986 1.987A1.989 1.989 0 0 1 17.4 3.486c0-1.095.89-1.986 1.986-1.986m0 5.473a3.49 3.49 0 0 0 3.486-3.487A3.49 3.49 0 0 0 19.386 0 3.49 3.49 0 0 0 15.9 3.486a3.49 3.49 0 0 0 3.486 3.487M21.593 8.208h-4.384a2.937 2.937 0 0 0-2.934 2.935v6.571a.75.75 0 1 0 1.5 0v-6.571c0-.791.643-1.435 1.434-1.435h4.384c.79 0 1.435.644 1.435 1.435v6.571a.75.75 0 1 0 1.5 0v-6.571a2.938 2.938 0 0 0-2.935-2.935"/>
        <g transform="translate(31 14.5)">
            <mask id="l" fill="#fff">
                <use xlink:href="#k"/>
            </mask>
            <path fill="#FFF" d="M.984.865a.75.75 0 0 0-.75.75v9.635a.75.75 0 1 0 1.5 0V1.615a.75.75 0 0 0-.75-.75" mask="url(#l)"/>
        </g>
        <g transform="translate(34 14.5)">
            <mask id="n" fill="#fff">
                <use xlink:href="#m"/>
            </mask>
            <path fill="#FFF" d="M1.315.865a.75.75 0 0 0-.75.75v9.635a.75.75 0 1 0 1.5 0V1.615a.75.75 0 0 0-.75-.75" mask="url(#n)"/>
        </g>
        <path fill="#FFF" d="M33.66 1.5c1.095 0 1.986.891 1.986 1.986a1.989 1.989 0 0 1-1.986 1.987 1.989 1.989 0 0 1-1.986-1.987c0-1.095.89-1.986 1.986-1.986m0 5.473a3.49 3.49 0 0 0 3.486-3.487A3.49 3.49 0 0 0 33.66 0a3.49 3.49 0 0 0-3.486 3.486 3.49 3.49 0 0 0 3.486 3.487"/>
        <g transform="translate(28 7.5)">
            <mask id="p" fill="#fff">
                <use xlink:href="#o"/>
            </mask>
            <path fill="#FFF" d="M7.867.708H3.482A2.937 2.937 0 0 0 .548 3.643v6.571a.75.75 0 0 0 1.5 0V3.643c0-.791.643-1.435 1.434-1.435h4.385c.791 0 1.434.644 1.434 1.435v6.571a.75.75 0 0 0 1.5 0V3.643A2.937 2.937 0 0 0 7.867.708" mask="url(#p)"/>
        </g>
    </g>
</svg>
