<svg xmlns="http://www.w3.org/2000/svg" width="46" height="35" viewBox="0 0 46 35">
  <metadata><?xpacket begin="﻿" id="W5M0MpCehiHzreSzNTczkc9d"?>
<x:xmpmeta xmlns:x="adobe:ns:meta/" x:xmptk="Adobe XMP Core 5.6-c138 79.159824, 2016/09/14-01:09:01        ">
   <rdf:RDF xmlns:rdf="http://www.w3.org/1999/02/22-rdf-syntax-ns#">
      <rdf:Description rdf:about=""/>
   </rdf:RDF>
</x:xmpmeta>
                                                                                                    
                                                                                                    
                                                                                                    
                                                                                                    
                                                                                                    
                                                                                                    
                                                                                                    
                                                                                                    
                                                                                                    
                                                                                                    
                                                                                                    
                                                                                                    
                                                                                                    
                                                                                                    
                                                                                                    
                                                                                                    
                                                                                                    
                                                                                                    
                                                                                                    
                                                                                                    
                           
<?xpacket end="w"?></metadata>
<defs>
    <style>
      .cls-1 {
        fill: #333;
        fill-rule: evenodd;
      }
    </style>
  </defs>
  <path id="Compound_Shape" data-name="Compound Shape" class="cls-1" d="M193,1921.81a4.3,4.3,0,1,1,4.344-4.3A4.328,4.328,0,0,1,193,1921.81Zm0-10.73a6.435,6.435,0,1,0,6.5,6.43A6.471,6.471,0,0,0,193,1911.08Zm0,14.98a8.55,8.55,0,1,1,8.638-8.55A8.6,8.6,0,0,1,193,1926.06Zm0-19.23a10.686,10.686,0,1,0,10.8,10.68A10.751,10.751,0,0,0,193,1906.83Zm20.688,24.03H172.313a0.155,0.155,0,0,1-.152-0.15v-11.88h5.785a1.07,1.07,0,1,0,0-2.14h-5.785v-13.15a0.155,0.155,0,0,1,.152-0.15h11.255a4.213,4.213,0,0,0,2.855-1.28l1.252-1.42a2.09,2.09,0,0,1,1.231-.55h8.075a2.1,2.1,0,0,1,1.231.55l1.251,1.42a4.213,4.213,0,0,0,2.855,1.28h11.371a0.155,0.155,0,0,1,.152.15v13.15h-5.374a1.07,1.07,0,1,0,0,2.14h5.374v11.88A0.155,0.155,0,0,1,213.689,1930.86Zm0-29.61H202.318a2.09,2.09,0,0,1-1.23-.55l-1.252-1.42a4.213,4.213,0,0,0-2.855-1.28h-8.075a4.209,4.209,0,0,0-2.855,1.28l-1.252,1.42a2.093,2.093,0,0,1-1.231.55H172.313a2.305,2.305,0,0,0-2.311,2.29v27.17a2.305,2.305,0,0,0,2.311,2.29h41.376a2.305,2.305,0,0,0,2.311-2.29v-27.17A2.305,2.305,0,0,0,213.689,1901.25Z" transform="translate(-170 -1898)"/>
</svg>
