<?xml version="1.0" encoding="utf-8"?>
<!-- Generator: Adobe Illustrator 21.0.2, SVG Export Plug-In . SVG Version: 6.00 Build 0)  -->
<svg version="1.1" id="Layer_1" xmlns="http://www.w3.org/2000/svg" xmlns:xlink="http://www.w3.org/1999/xlink" x="0px" y="0px"
	 viewBox="0 0 16 16" style="enable-background:new 0 0 16 16;" xml:space="preserve">
<style type="text/css">
	.st0{fill:#dc007c;}
</style>
<path id="Wishlist_normal" class="st0" d="M8,12.3c-3-2.8-4.8-5-5.5-6.8c0-0.7,0.2-1.3,0.6-1.8C3.5,3.3,4.1,3,4.8,3.1
	c0.5,0,1,0.2,1.4,0.6C6.7,4,7.1,4.4,7.4,4.9c0,0.3,0.2,0.6,0.5,0.6c0,0,0.1,0,0.1,0c0.3,0,0.6-0.2,0.6-0.5c0,0,0-0.1,0-0.1
	c0.7-1.2,1.5-1.8,2.5-1.8c0.7,0,1.3,0.2,1.8,0.7c0.5,0.5,0.7,1.1,0.6,1.8C12.8,7.2,11,9.5,8,12.3L8,12.3L8,12.3z M14.7,1.9
	c-0.8-0.8-1.9-1.2-3-1.2c-0.8,0-1.5,0.2-2.2,0.6C8.9,1.6,8.4,2.1,8,2.8C7.6,2.2,7.1,1.6,6.4,1.2c-1.7-1-3.8-0.7-5.2,0.6
	C0.4,2.6,0,3.7,0,4.8C0,5.4,0.1,6,0.3,6.5c0.2,0.6,0.5,1.1,0.9,1.6C3,10.9,5.3,13.4,8,15.4c2.7-2,5-4.5,6.8-7.3
	c0.3-0.5,0.6-1.1,0.8-1.6C15.9,6,16,5.4,16,4.8C16,3.7,15.6,2.6,14.7,1.9L14.7,1.9L14.7,1.9z"/>
</svg>
