<?xml version="1.0" encoding="utf-8"?>
<!-- Generator: Adobe Illustrator 22.0.1, SVG Export Plug-In . SVG Version: 6.00 Build 0)  -->
<svg version="1.1" id="Layer_1" xmlns="http://www.w3.org/2000/svg" xmlns:xlink="http://www.w3.org/1999/xlink" x="0px" y="0px"
	 viewBox="0 0 98 81.2" style="enable-background:new 0 0 98 81.2;" xml:space="preserve">
<style type="text/css">
	.st0{fill:#00a04a;}
</style>
<path class="st0" d="M32.2,31.2c0,2.4-2,4.4-4.4,4.4s-4.4-2-4.4-4.4s2-4.4,4.4-4.4C30.2,26.8,32.2,28.7,32.2,31.2L32.2,31.2z
	 M57.7,33.7c-1.3-0.7-2.6-1.3-4-1.8l-0.5-0.2c-0.8-0.3-1.5-0.7-2.2-1.2c-0.4-0.3-0.7-0.8-0.6-1.3c0.1-0.5,0.5-0.9,1-1.1
	c0.4-0.2,0.8-0.2,1.2-0.2c1.8-0.1,3.6,0.2,5.2,1c0.5,0.3,1.1,0.4,1.6,0.2c0.5-0.3,0.8-0.7,0.9-1.3c0.2-0.7,0.4-1.4,0.6-2.1l0.2-0.8
	c0.3-0.9-0.1-2-1.1-2.3l0,0c-1.2-0.5-2.4-0.9-3.7-1.1c-0.9-0.1-0.9-0.1-0.9-1.1c0-2.5-0.2-3-2.8-3h-1.3c-1.5,0-2,0.6-2,2
	c0,0.3,0,0.6,0,0.9v0.5c0,0.8,0,0.8-0.8,1.1c-3.8,1.4-5.8,4-6,7.7c-0.2,3.2,1.2,5.7,4.4,7.6c1.1,0.7,2.3,1.2,3.6,1.7
	c0.5,0.2,1,0.4,1.6,0.6c0.6,0.3,1.2,0.6,1.7,1c0.8,0.5,1,1.6,0.5,2.4c-0.2,0.3-0.5,0.6-0.9,0.7c-0.9,0.4-1.9,0.5-2.8,0.4
	c-1.6-0.2-3.2-0.6-4.7-1.4c-0.3-0.2-0.7-0.3-1.1-0.4c-1,0-1.3,1-1.5,1.5c-0.3,0.8-0.5,1.7-0.8,2.6c-0.4,1.5-0.1,2.2,1.3,2.9l0,0
	c1.5,0.7,3.1,1.1,4.7,1.3l0.6,0.1c0,0.2,0,0.5,0,0.6v1.7c-0.1,1,0.7,1.8,1.7,1.9c0.1,0,0.1,0,0.2,0h1.1h1.4c1,0,1.8-0.7,1.8-1.7
	c0-0.1,0-0.1,0-0.2c0-0.2,0-0.4,0-0.7v-0.1c0-0.5,0-1,0-1.5s0-0.5,0.5-0.6c1.9-0.5,3.5-1.6,4.8-3.1c1.6-1.9,2.3-4.5,1.8-7
	C61.7,37.2,60,35,57.7,33.7z M98,37.2c0,2.5-2,4.5-4.5,4.5h-1.2c-1.2,6.4-4.2,12.4-8.6,17.2L78.5,76c-0.9,3.1-3.8,5.2-7,5.2h-5.4
	c-3.2,0-6.1-2.2-7-5.3l-1.2-4c-4.1,0.5-8.3,0.5-12.5,0l-1.2,4c-0.9,3.1-3.8,5.3-7,5.3h-5.5c-3.2,0-6.1-2.1-7-5.2L21,63.6
	C14.7,60.8,8.9,57,3.7,52.5C1.3,50.3,0,47.3,0,44.1V33.6c0-5,4.1-9.1,9.1-9.1H11c1.7-1.7,3.2-3.6,4.5-5.7l0.1-0.1
	c-0.5-1.5-1.4-2.9-2.5-4c-1.8-1.9-2.4-4.7-1.5-7.1c0.9-2.5,3.3-4.3,5.9-4.5c4.3-0.4,8.7,0.3,12.6,2.2c6.6-3.5,14-5.4,21.5-5.3
	c21.1,0,39,14.4,41,32.8h0.9C96,32.7,98,34.7,98,37.2z M84.2,36.2c0-15.3-14.6-27.7-32.6-27.7c-6.8-0.1-13.5,1.8-19.3,5.4L30.6,15
	c-0.4,0.2-0.9,0.2-1.2,0l-1.7-1.2c-1.8-1.2-3.9-2-6.1-2.2c1.5,2.2,2.5,4.8,2.8,7.5l0.1,1.2c0,0.3,0,0.5-0.2,0.8l-0.7,1
	c-0.3,0.4-0.6,0.8-0.8,1.3c-2,3.2-4.4,6.1-7.2,8.6l-0.9,0.8c-0.2,0.2-0.5,0.3-0.8,0.3H9.1c-0.3,0-0.5,0.2-0.5,0.5l0,0v10.5
	c0,0.8,0.3,1.5,0.9,2.1c4.7,4.1,10.1,7.5,15.8,10c1.8,0.8,3.1,2.4,3.7,4.2l3.8,12.3h3.6L38,67c0.8-2.8,3.6-4.4,6.4-3.9
	c4.8,0.9,9.8,0.9,14.6,0c0.4-0.1,0.7-0.1,1.1-0.1c2.5,0,4.6,1.6,5.3,4l1.6,5.7h3.6l5-16.7c0.3-1,0.8-1.9,1.6-2.7
	C81.7,48.8,84.2,42.6,84.2,36.2L84.2,36.2z"/>
</svg>
