<svg xmlns="http://www.w3.org/2000/svg" width="18" height="18" viewBox="0 0 18 18">
  <metadata><?xpacket begin="﻿" id="W5M0MpCehiHzreSzNTczkc9d"?>
<x:xmpmeta xmlns:x="adobe:ns:meta/" x:xmptk="Adobe XMP Core 5.6-c138 79.159824, 2016/09/14-01:09:01        ">
   <rdf:RDF xmlns:rdf="http://www.w3.org/1999/02/22-rdf-syntax-ns#">
      <rdf:Description rdf:about=""/>
   </rdf:RDF>
</x:xmpmeta>
                                                                                                    
                                                                                                    
                                                                                                    
                                                                                                    
                                                                                                    
                                                                                                    
                                                                                                    
                                                                                                    
                                                                                                    
                                                                                                    
                                                                                                    
                                                                                                    
                                                                                                    
                                                                                                    
                                                                                                    
                                                                                                    
                                                                                                    
                                                                                                    
                                                                                                    
                                                                                                    
                           
<?xpacket end="w"?></metadata>
<defs>
    <style>
      .cls-1 {
        fill: #e1e1e0;
        fill-rule: evenodd;
      }
    </style>
  </defs>
  <path id="Info_icon" data-name="Info icon" class="cls-1" d="M662,959a9,9,0,1,1,9-9A9,9,0,0,1,662,959Zm0-15.751a6.751,6.751,0,1,0,6.75,6.751A6.758,6.758,0,0,0,662,943.246Zm-0.306,4.81a2.632,2.632,0,0,0-.8.133c-0.28.089-.869,0.264-1.176,0.389l-0.035.625c0.091-.035.2-0.07,0.328-0.108a1.3,1.3,0,0,1,.373-0.057,1.548,1.548,0,0,1,.705.125,0.622,0.622,0,0,1,.222.443,1.04,1.04,0,0,1-.043.275c-0.028.142-.063,0.293-0.105,0.452l-0.651,1.521c-0.041.175-.072,0.556-0.09,0.694a2.973,2.973,0,0,0-.029.406,1.169,1.169,0,0,0,.469.843,1.55,1.55,0,0,0,1.059.332,2.379,2.379,0,0,0,.777-0.116,6.064,6.064,0,0,0,.761-0.179l0.125-.511a0.926,0.926,0,0,1-.629.1,0.609,0.609,0,0,1-.442-0.21,0.552,0.552,0,0,1-.148-0.449,5.006,5.006,0,0,1,.046-0.61,4.485,4.485,0,0,1,.1-0.455l0.649-1.516a2.6,2.6,0,0,0,.094-0.5c0.017-.182.025-0.309,0.025-0.381a1.429,1.429,0,0,0-.548-0.917A1.519,1.519,0,0,0,661.7,948.056Zm1.715-2.544a0.95,0.95,0,0,0-.672-0.262,0.97,0.97,0,0,0-.674.282,0.89,0.89,0,0,0,0,1.3,0.909,0.909,0,0,0,1.346,0,0.868,0.868,0,0,0,.279-0.648A0.92,0.92,0,0,0,663.412,945.512Z" transform="translate(-653 -941)"/>
</svg>
