<svg xmlns="http://www.w3.org/2000/svg" xmlns:xlink="http://www.w3.org/1999/xlink" width="26" height="27" viewBox="0 0 26 27">
    <defs>
        <path id="a" d="M0 .775h12.331V12H0z"/>
    </defs>
    <g fill="none" fill-rule="evenodd">
        <path fill="#FFF" d="M15.489 21.64l.41-3.734a39.385 39.385 0 0 0 2.559-2.36l-.148 3.643-2.821 2.45zm-2.066-3.662l-4.934-4.564c3.462-5.283 6.954-8.21 9.812-9.846l4.183 3.868c-1.405 2.971-4.053 6.672-9.061 10.542zM4.678 11.64l2.224-3.003 3.616-.43a40.073 40.073 0 0 0-2.15 2.734l-3.69.7zm18.429-5.67l-3.393-3.138c1.954-.909 3.492-1.198 4.322-1.284-.014.838-.176 2.397-.93 4.422zM25.516.817V.81a.75.75 0 0 0-.233-.592.75.75 0 0 0-.632-.21l-.012.002c-1.068-.033-6.421.275-12.561 6.5l-5.675.676a.75.75 0 0 0-.514.3l-3.557 4.801a.75.75 0 0 0 .743 1.184l4.099-.776c-.097.148-.193.29-.29.441a.75.75 0 0 0 .124.953l5.859 5.42a.75.75 0 0 0 .96.048c.143-.108.277-.216.417-.323l-.455 4.146a.75.75 0 0 0 1.238.65l4.51-3.92a.753.753 0 0 0 .259-.536l.232-5.718c5.72-6.62 5.579-11.997 5.488-13.038z"/>
        <path fill="#FFF" d="M16.4 8.396a.958.958 0 0 1 .667-.307h.038a.95.95 0 0 1 .65.255.954.954 0 0 1 .053 1.356.96.96 0 0 1-1.409-1.304m2.512 2.322a2.443 2.443 0 0 0 .652-1.765 2.444 2.444 0 0 0-.788-1.71 2.467 2.467 0 0 0-1.766-.653 2.45 2.45 0 0 0-1.711.788c-.92.996-.86 2.555.136 3.477a2.45 2.45 0 0 0 1.669.652c.663 0 1.323-.265 1.808-.789"/>
        <g transform="translate(0 14.5)">
            <mask id="b" fill="#fff">
                <use xlink:href="#a"/>
            </mask>
            <path fill="#FFF" d="M11.674 5.422a.752.752 0 0 0-.837.65c-.245 1.954-.928 3.06-1.559 3.679.146-1.647-.419-2.772-.45-2.835a.752.752 0 0 0-1.114-.26C6.328 7.686 5.18 7.996 4.348 8.034c2.018-1.67 2.265-3.44 2.276-3.53a.752.752 0 0 0-.272-.676C5.52 3.154 4.427 2.99 3.41 3.05c1.595-.961 2.82-.767 2.901-.754a.748.748 0 0 0 .876-.59.751.751 0 0 0-.589-.882C6.463.797 3.274.21.174 3.93a.75.75 0 0 0 .857 1.176c.698-.282 2.747-.867 3.974-.351-.254.657-.97 1.933-2.904 2.987A.749.749 0 0 0 2.07 9.04c.102.063 2.356 1.39 5.671-.597.105.607.122 1.498-.279 2.537a.746.746 0 0 0 .122.749.752.752 0 0 0 .713.258c.14-.025 3.398-.681 4.03-5.728a.75.75 0 0 0-.652-.837" mask="url(#b)"/>
        </g>
    </g>
</svg>
