<?xml version="1.0" encoding="utf-8"?>
<!-- Generator: Adobe Illustrator 21.0.2, SVG Export Plug-In . SVG Version: 6.00 Build 0)  -->
<svg version="1.1" id="Layer_1" xmlns="http://www.w3.org/2000/svg" xmlns:xlink="http://www.w3.org/1999/xlink" x="0px" y="0px"
	 viewBox="0 0 257 187" style="enable-background:new 0 0 257 187;" xml:space="preserve">
<style type="text/css">
	.st0{fill:#0AA94B;}
</style>
<title>Infinity</title>
<desc>Created with Sketch.</desc>
<g>
	<path class="st0" d="M159.3,64.4c-0.9-1.6-2-3-3-4.1c-1.1-1.2-2.5-2.1-3.9-3c-1.4-0.7-2.8-1.4-4.4-1.8c-1.6-0.4-3.4-0.5-5.1-0.5
		c-2.3,0-4.4,0.5-6.2,1.2c-1.8,0.7-3.4,1.6-4.8,2.7s-2.7,2.5-3.7,3.9c-1.1,1.4-1.9,3-2.8,4.4c-0.9-1.4-1.8-2.8-3-4.3
		c-1.1-1.2-2.1-2.5-3.5-3.5c-1.2-0.9-2.7-1.8-4.3-2.3c-1.6-0.5-3.2-0.7-5.1-0.7c-1.2,0-2.5,0.2-3.5,0.4c-1.1,0.2-2.1,0.5-3.2,1.1
		c-1.1,0.5-1.9,1.1-2.8,1.6c-0.9,0.7-1.6,1.4-2.3,2.3c-1.1,1.2-1.9,2.8-2.7,4.3c-0.5,1.4-1.1,2.8-1.4,4.3c-0.4,1.2-0.4,2.5-0.5,3.4
		c0,0.9-0.2,1.6-0.2,1.8c0,0.4,0,0.9,0.2,1.9c0,1.1,0.2,2.3,0.5,3.7c0.4,1.4,0.7,3,1.4,4.6c0.7,1.6,1.6,3,2.7,4.4l2.1,2.1
		c0.7,0.5,1.6,1.1,2.5,1.4c0.9,0.4,1.8,0.7,2.8,0.9c1.1,0.2,1.9,0.4,3.2,0.4c2.3,0,4.3-0.2,6-0.9c1.8-0.7,3.4-1.6,4.8-2.7
		s2.7-2.5,3.7-4.1c1.1-1.4,1.9-3.2,2.8-4.8c1.1,1.6,2.1,3.2,3.2,4.8c1.2,1.6,2.5,3,4.1,4.3c1.6,1.2,3.2,2.3,5.1,3
		c2,0.7,4.1,1.2,6.6,1.4c1.6,0,3-0.2,4.4-0.5c1.4-0.4,2.8-0.9,4.1-1.6c1.2-0.7,2.5-1.6,3.4-2.7c1.1-1.1,1.9-2.3,2.8-3.7
		c0.9-1.8,1.8-3.5,2.1-5.5c0.5-1.9,0.7-4.1,0.7-6c0-2.1-0.2-4.1-0.7-6C161.1,68.1,160.4,66.2,159.3,64.4z M118.8,80.5
		c-0.9,1.6-1.8,3-2.8,4.1c-1.1,1.1-2.1,1.9-3.4,2.5c-1.1,0.4-2.5,0.7-4.1,0.7c-0.7,0-1.2,0-1.8-0.2c-0.5-0.2-1.1-0.4-1.6-0.5
		c-0.5-0.2-0.9-0.5-1.4-0.7l-1.2-1.1c-0.7-0.9-1.2-1.9-1.8-3c-0.5-1.1-0.7-2.1-0.9-3.2c-0.2-1.1-0.4-1.8-0.4-2.5v-1.1v-0.2v-0.9
		c0-0.5,0.2-1.2,0.4-2.1c0.2-0.9,0.4-1.8,0.7-2.8c0.4-0.9,0.9-1.9,1.6-2.7c0.4-0.5,0.9-0.9,1.4-1.2c0.5-0.4,1.1-0.7,1.6-0.9
		c0.5-0.4,1.2-0.5,1.9-0.5c0.7-0.2,1.4-0.2,2.3-0.2c1.4,0,2.5,0.2,3.7,0.7c1.1,0.5,2.1,1.2,3,2.1s1.8,2.1,2.7,3.5
		c0.9,1.4,1.8,3,2.7,4.8C120.5,77.1,119.6,79.1,118.8,80.5z M154.7,80.3c-0.7,0.9-1.2,2.1-1.8,3.4c-0.4,0.5-0.7,1.1-1.2,1.8
		c-0.5,0.5-1.1,1.1-1.8,1.6s-1.4,0.9-2.3,1.1c-0.9,0.4-1.9,0.4-3,0.4c-1.9,0-3.5-0.5-5-1.2c-1.4-0.7-2.8-1.8-3.9-3
		c-1.2-1.2-2.3-2.7-3.2-4.3c-1.1-1.6-1.9-3.4-2.8-5.1c0.9-1.9,1.8-3.5,2.7-5c0.9-1.4,1.8-2.7,2.8-3.7c1.1-1.1,2.1-1.8,3.5-2.5
		c1.4-0.5,2.8-0.9,4.6-0.9h0.2c1.4,0,2.5,0.2,3.5,0.5c1.1,0.4,1.9,0.7,2.8,1.4c0.7,0.5,1.4,1.2,2,1.8c0.5,0.7,1.1,1.4,1.4,1.9
		c0.7,1.2,1.1,2.3,1.4,3.7c0.4,1.2,0.5,2.7,0.5,4.1S155.1,78.9,154.7,80.3z"/>
	<path class="st0" d="M183.8,8.7c-0.9-1.9-2.1-3.5-3.5-5c-1.6-1.2-3.2-2.3-5.1-3C173.3,0,171.1-0.2,169,0L87.5,6.9
		c-1.8,0.2-3.4,0.7-4.8,1.6c-1.6,0.9-2.8,1.9-3.9,3.4c-1.1,1.2-1.9,2.8-2.5,4.6c-0.5,1.8-0.9,3.5-0.9,5.5v90.5v5v56.4
		c-2,1.3-3.4,3.5-3.4,6c0,3.9,3.2,7.1,7.1,7.1s7.1-3.2,7.1-7.1c0-2.7-1.5-5-3.7-6.2v-55.6l86.5,7.4c2.3,0.2,4.3,0,6.2-0.7
		c2-0.7,3.7-1.6,5.1-3c1.6-1.4,2.7-3,3.5-5c0.7-1.8,1.2-3.9,1.2-6.2V14.9C185,12.8,184.7,10.7,183.8,8.7z M176.5,113.3
		c-0.5,1.1-1.1,1.8-1.8,2.5s-1.6,1.2-2.5,1.6s-2,0.4-3,0.4l-87.5-6.6V21.7c0-1.1,0.2-1.9,0.5-2.8c0.2-0.9,0.7-1.6,1.2-2.3
		c0.5-0.7,1.2-1.2,1.9-1.6c0.7-0.4,1.4-0.7,2.3-0.7l81.3-6c1.1-0.2,2.1,0,3,0.4s1.6,0.9,2.5,1.6s1.4,1.6,1.8,2.5
		c0.4,0.9,0.5,1.9,0.5,3l0.2,94.4C177.1,111.3,177.1,112.2,176.5,113.3z"/>
	<rect x="118.2" y="35" class="st0" width="4.3" height="14.9"/>
	<path class="st0" d="M126.6,44.7c0,0.9,0.2,1.6,0.4,2.3c0.4,0.5,0.7,1.1,1.1,1.6s0.9,0.9,1.6,1.1c0.5,0.2,1.2,0.4,2.1,0.4h0.7h0.7
		l0.5-0.2l0.5-0.2v-3.9h-0.4h-0.4H133h-0.4h-0.9l-0.5-0.4l-0.4-0.5l-0.2-0.7v-5.5l3-0.2v-4.1l-3,0.2v-4.4l-4.3,0.5v3.9h-1.9v4.1h1.9
		v6H126.6z"/>
	<path class="st0" d="M137.2,47.4c0.5,0.7,1.4,1.2,2.5,1.6s2.1,0.5,3.4,0.5c0.7,0,1.4,0,1.9-0.2c0.7-0.2,1.2-0.4,1.8-0.5
		c0.5-0.2,1.1-0.5,1.6-0.9s1.1-0.7,1.4-1.2l-2.5-2.7l-0.9,0.7l-0.9,0.5l-1.1,0.4l-1.1,0.2c-0.5,0-1.1,0-1.4-0.2l-1.1-0.5l-0.7-0.9
		c-0.2-0.4-0.4-0.7-0.4-1.2l11-0.4v-0.4v-0.4v-0.4V41c0-1.1-0.2-2.1-0.9-3.2c-0.4-0.9-0.9-1.8-1.6-2.5c-0.7-0.7-1.6-1.2-2.5-1.6
		s-1.9-0.5-3-0.5c-1.2,0-2.3,0.4-3.2,0.7c-0.9,0.4-1.8,1.1-2.5,1.8c-0.7,0.9-1.2,1.8-1.6,2.7c-0.4,1.1-0.5,1.9-0.5,3.2
		s0.2,2.3,0.5,3.2S136.5,46.7,137.2,47.4z M140,38.9l0.7-0.9l1.1-0.5l1.1-0.2l1.2,0.2L145,38l0.7,0.9l0.4,1.1l-6.4,0.2L140,38.9z"/>
	<path class="st0" d="M112.7,49.3c0.7-0.4,1.2-0.7,1.8-1.2c0.4-0.4,0.7-1.1,1.1-1.8c0.2-0.7,0.4-1.4,0.4-2.3c0-0.5,0-1.1-0.2-1.6
		s-0.4-1.1-0.7-1.4l-1.1-1.1l-1.2-0.5l0.9-0.7l0.7-0.9l0.5-1.1c0.2-0.5,0.2-0.9,0.2-1.4c0-0.7-0.2-1.4-0.4-2.1
		c-0.2-0.5-0.5-1.1-1.1-1.6c-0.5-0.5-1.1-0.9-1.8-1.1c-0.7-0.4-1.4-0.4-2.3-0.4l-6.7,0.4V50l7.6-0.2C111.3,49.9,112,49.7,112.7,49.3
		z M106.7,34.1l2.5-0.2l0.7,0.2l0.5,0.4l0.4,0.7l0.2,0.9l-0.2,0.9l-0.4,0.7l-0.5,0.4l-0.7,0.2h-2.5V34.1z M106.7,46.1v-4.6h3
		l0.7,0.2l0.5,0.5l0.4,0.7l0.2,0.9l-0.2,0.9l-0.4,0.7l-0.5,0.5l-0.7,0.2L106.7,46.1L106.7,46.1z"/>
	<polygon class="st0" points="118.8,32.8 119.5,33.4 120.3,33.6 121.2,33.6 121.9,33 122.5,32.1 122.7,31.1 122.5,30 121.9,29.3 
		121.2,28.8 120.3,28.6 119.5,28.8 118.8,29.3 118.2,30.2 118,31.2 118.2,32.1 	"/>
</g>
</svg>
