<?xml version="1.0" encoding="utf-8"?>
<!-- Generator: Adobe Illustrator 21.0.2, SVG Export Plug-In . SVG Version: 6.00 Build 0)  -->
<svg version="1.1" id="Layer_1" xmlns="http://www.w3.org/2000/svg" xmlns:xlink="http://www.w3.org/1999/xlink" x="0px" y="0px"
	 viewBox="0 0 25 20" style="enable-background:new 0 0 25 20;" xml:space="preserve">
<style type="text/css">
	.st0{fill:#2D2D2D;}
</style>
<path class="st0" d="M19,19.7H6c-2,0-3.6-1.6-3.6-3.6v0v-2.1c0-2,1.6-3.6,3.6-3.6c0,0,0,0,0,0H19c2,0,3.6,1.6,3.6,3.6v0v2.1
	C22.6,18.1,21,19.7,19,19.7C19,19.7,19,19.7,19,19.7z M7.4,11.8H4.5v1.4h0.8v5h1.5v-5h0.7V11.8z M11.8,13.2h-1.5v3.3
	c0,0.2,0,0.5,0,0.7c-0.1,0.1-0.2,0.1-0.3,0.1c-0.1,0-0.2,0-0.3-0.1c0-0.2,0-0.5,0-0.7v-3.4H8.1v3.3c0,0.3,0,0.6,0,0.9
	c0,0.1,0.1,0.3,0.1,0.4c0.1,0.1,0.2,0.3,0.3,0.3c0.2,0.1,0.4,0.1,0.6,0.1c0.2,0,0.4,0,0.6-0.1c0.2-0.1,0.3-0.2,0.4-0.4l0,0.4h1.6
	V13.2L11.8,13.2z M16.2,14.3c0-0.1,0-0.3,0-0.4c0-0.1-0.1-0.2-0.2-0.4c-0.1-0.1-0.2-0.2-0.4-0.3c-0.2-0.1-0.4-0.1-0.6-0.1
	c-0.2,0-0.4,0-0.5,0.1c-0.2,0.1-0.4,0.2-0.6,0.3v-1.8h-1.4v6.4h1.3l0.1-0.4c0.2,0.2,0.4,0.3,0.6,0.4c0.2,0.1,0.3,0.1,0.5,0.1
	c0.2,0,0.5-0.1,0.7-0.2c0.2-0.1,0.3-0.3,0.4-0.5c0.1-0.3,0.1-0.6,0.1-0.8L16.2,14.3L16.2,14.3z M20.4,16.1h-1.5v0.7
	c0,0.2,0,0.4-0.1,0.5c0,0.1-0.1,0.1-0.2,0.1c-0.1,0-0.2,0-0.2-0.1c0-0.1-0.1-0.3-0.1-0.4v-1.4h2v-0.3c0-0.3,0-0.7-0.2-1
	c-0.1-0.3-0.3-0.5-0.6-0.7c-0.3-0.2-0.7-0.3-1.1-0.2c-0.3,0-0.6,0.1-0.9,0.2c-0.3,0.1-0.5,0.3-0.7,0.6c-0.1,0.2-0.2,0.5-0.2,0.7v1.7
	c0,0.3,0,0.6,0.1,0.9c0.1,0.2,0.2,0.4,0.3,0.6c0.2,0.2,0.4,0.3,0.6,0.4c0.3,0.1,0.5,0.1,0.8,0.1c0.3,0,0.6,0,0.9-0.1
	c0.4-0.2,0.7-0.5,0.8-1c0-0.2,0.1-0.5,0.1-0.7V16.1z M18.3,14.4c0-0.3,0-0.1,0-0.2c0-0.1,0.1-0.1,0.2-0.1c0.1,0,0.2,0,0.2,0.1
	c0,0.1,0-0.1,0,0.2v0.4h-0.5L18.3,14.4L18.3,14.4z M14.2,17.4c-0.1,0-0.2,0-0.2-0.1c0-0.2-0.1-0.3-0.1-0.5v-2.4c0-0.3,0-0.1,0.1-0.2
	c0-0.1,0.1-0.1,0.2-0.1c0.1,0,0.3,0,0.4,0.1c0,0.1,0.1-0.1,0.1,0.2v2.3c0,0.2,0,0.4-0.1,0.6C14.5,17.4,14.3,17.4,14.2,17.4z
	 M17.6,8.3c-0.1,0.2-0.3,0.4-0.6,0.5c-0.2,0.1-0.5,0.1-0.8,0.1c-0.3,0-0.6,0-0.9-0.1c-0.2-0.1-0.4-0.3-0.5-0.4
	c-0.1-0.2-0.2-0.4-0.2-0.6c0-0.4,0-0.8,0-1.2V1.8h2.2v4.9c0,0.3,0,0.6,0.1,1c0.1,0.1,0.2,0.2,0.4,0.1c0.1,0,0.2,0,0.3-0.2
	c0-0.3,0.1-0.7,0.1-1V1.8h2.2v7.1h-2.2L17.6,8.3z M13.4,8.3c-0.2,0.3-0.5,0.4-0.8,0.6C12.3,9,12,9,11.6,9c-0.5,0-1,0-1.5-0.2
	C9.9,8.8,9.6,8.6,9.4,8.4C9.2,8.2,9.1,7.9,9,7.7C8.9,7.2,8.9,6.8,8.9,6.3V4.5c0-0.5,0.1-1,0.2-1.5c0.1-0.4,0.4-0.7,0.8-0.9
	c0.5-0.2,1.1-0.3,1.7-0.3c0.4,0,0.7,0.1,1.1,0.2c0.6,0.2,1,0.7,1.2,1.3c0.1,0.4,0.1,0.7,0.1,1.1v1.7c0,0.5,0,0.9-0.1,1.4
	C13.7,7.8,13.6,8,13.4,8.3z M11.7,4c0-0.2,0-0.5-0.1-0.7c-0.1-0.1-0.2-0.1-0.3-0.1c-0.1,0-0.2,0-0.3,0.1C11,3.5,11,3.7,11,4v2.8
	c0,0.2,0,0.4,0.1,0.6c0,0.1,0.1,0.2,0.2,0.1c0.1,0,0.3,0,0.3-0.1c0.1-0.2,0.1-0.4,0.1-0.6V4L11.7,4z M7.3,8.9H5.2V5.8L3.6,0.4h2.1
	C5.9,1.6,6.1,2.8,6.2,4C6.4,3.1,6.6,2,6.9,0.4l2.1-0.1L7.3,5.8L7.3,8.9L7.3,8.9z"/>
</svg>
