<?xml version="1.0" encoding="utf-8"?>
<!-- Generator: Adobe Illustrator 15.1.0, SVG Export Plug-In . SVG Version: 6.00 Build 0)  -->
<!DOCTYPE svg PUBLIC "-//W3C//DTD SVG 1.1//EN" "http://www.w3.org/Graphics/SVG/1.1/DTD/svg11.dtd">
<svg version="1.1" id="Layer_2" xmlns="http://www.w3.org/2000/svg" xmlns:xlink="http://www.w3.org/1999/xlink" x="0px" y="0px"
	 width="292px" height="254px" viewBox="0 0 292 254" enable-background="new 0 0 292 254" xml:space="preserve">
<path fill="none" stroke="#299354" stroke-width="5" stroke-miterlimit="10" d="M288.385,116.667V31.197
	c0-15.048-12.24-27.246-27.338-27.246H31.955c-15.099,0-27.339,12.198-27.339,27.246v112.716"/>
<path fill="none" stroke="#299354" stroke-width="5" stroke-miterlimit="10" d="M4.616,111.197v112.716h34.876v25.402l42.229-25.402
	h179.326c15.098,0,27.338-12.2,27.338-27.246v-85.471"/>
<g>
	<path fill="#299354" d="M185.25,163.654H95.544V73.947c0-7.427,6.041-13.468,13.467-13.468h76.238
		c7.427,0,13.467,6.042,13.467,13.468v76.239C198.718,157.613,192.676,163.654,185.25,163.654z M99.144,160.054h86.106
		c5.44,0,9.866-4.427,9.866-9.866V73.949c0-5.441-4.428-9.867-9.866-9.867h-76.238c-5.441,0-9.866,4.427-9.866,9.867v86.105H99.144z
		"/>
	<path fill="#299354" d="M170.267,126.093l-8.361-8.406c-1.32-1.328-3.472-1.338-4.802-0.014l-2.895,2.875
		c-1.29,1.286-3.378,1.277-4.663-0.015l-10.824-10.885c-1.285-1.292-1.281-3.378,0.011-4.663l2.897-2.881
		c1.327-1.322,1.333-3.469,0.013-4.801l-8.395-8.44c-0.878-0.883-2.313-0.888-3.195-0.009l-2.16,2.144
		c-6.05,6.017-6.075,15.798-0.062,21.847l18.424,18.527c6.016,6.051,15.796,6.079,21.847,0.063l2.158-2.146
		C171.144,128.412,171.147,126.979,170.267,126.093z"/>
</g>
</svg>
