<svg xmlns="http://www.w3.org/2000/svg" xmlns:xlink="http://www.w3.org/1999/xlink" width="104.656" height="76.9" viewBox="0 0 104.656 76.9">
  <metadata><?xpacket begin="﻿" id="W5M0MpCehiHzreSzNTczkc9d"?>
<x:xmpmeta xmlns:x="adobe:ns:meta/" x:xmptk="Adobe XMP Core 5.6-c138 79.159824, 2016/09/14-01:09:01        ">
   <rdf:RDF xmlns:rdf="http://www.w3.org/1999/02/22-rdf-syntax-ns#">
      <rdf:Description rdf:about=""/>
   </rdf:RDF>
</x:xmpmeta>
                                                                                                    
                                                                                                    
                                                                                                    
                                                                                                    
                                                                                                    
                                                                                                    
                                                                                                    
                                                                                                    
                                                                                                    
                                                                                                    
                                                                                                    
                                                                                                    
                                                                                                    
                                                                                                    
                                                                                                    
                                                                                                    
                                                                                                    
                                                                                                    
                                                                                                    
                                                                                                    
                           
<?xpacket end="w"?></metadata>
<defs>
    <style>
      .cls-1 {
        fill: #757575;
        fill-rule: evenodd;
        filter: url(#filter);
      }
    </style>
    <filter id="filter" x="976.344" y="2479.19" width="104.656" height="76.9" filterUnits="userSpaceOnUse">
      <feFlood result="flood" flood-color="#fff"/>
      <feComposite result="composite" operator="in" in2="SourceGraphic"/>
      <feBlend result="blend" in2="SourceGraphic"/>
    </filter>
  </defs>
  <path id="Group" class="cls-1" d="M976.356,2531.47c0.132-.68.275-1.36,0.4-2.05a6,6,0,0,1,3.46-4.64,37.484,37.484,0,0,1,11.238-3.49,7.668,7.668,0,0,0,6.376-4.72c-0.138-.15-0.3-0.31-0.439-0.48a34.825,34.825,0,0,1-3.428-4.44c-2.737-4.99-4.594-10.27-4.3-16.05,0.278-5.49,2.259-10.21,6.828-13.62,6.3-4.71,19.092-3.75,23.752,4.84a2.847,2.847,0,0,0,.22.28,24.324,24.324,0,0,1,17.04.26c0.66-.93,1.24-1.91,1.97-2.78,3.61-4.34,8.43-5.77,13.94-5.3,4.96,0.41,9.15,2.36,11.97,6.52a17.17,17.17,0,0,1,2.83,9.67c0.06,6.9-2.32,12.99-6.31,18.56a9.992,9.992,0,0,1-1.72,1.84,0.989,0.989,0,0,0-.25,1.57,7.374,7.374,0,0,0,5.27,3.7,44.8,44.8,0,0,1,11.3,3.3,6.743,6.743,0,0,1,4.3,6.15c0.12,1.43.18,2.86,0.2,4.3s-0.58,2.01-2.03,2.01q-14.55,0-29.12-.01h-7.42c-0.02.11-.04,0.22-0.07,0.33,0.85,0.22,1.69.5,2.55,0.66a66.5,66.5,0,0,1,14.15,4.12,8.267,8.267,0,0,1,5.41,7.85c0.07,1.37.14,2.74,0.17,4.1,0.02,1.63-.53,2.16-2.2,2.16H995c-1.8,0-2.37-.5-2.275-2.26,0.114-2.12.282-4.26,0.594-6.36a6.37,6.37,0,0,1,3.633-4.79,50.115,50.115,0,0,1,12.392-4.21c1.36-.3,2.74-0.51,4.1-0.81a14.376,14.376,0,0,0,1.56-.54c-0.02-.09-0.04-0.17-0.06-0.25h-8.33c-9.332,0-18.665-.01-28,0.02a2.429,2.429,0,0,1-2.256-1.03v-4.41Zm84.984,21.39c-0.05-.84-0.15-1.6-0.12-2.35,0.08-2.88-1.23-4.72-3.99-5.82a59.967,59.967,0,0,0-12.71-3.59,9.77,9.77,0,0,1-6.41-3.37,47.544,47.544,0,0,1-3.69-5.71,1.478,1.478,0,0,1,.67-2.22,18.189,18.189,0,0,0,5.13-5.1,31.467,31.467,0,0,0,5.82-18.33,18.039,18.039,0,0,0-2.58-9.95c-3.12-4.83-7.78-7.06-13.49-7.46-10.62-.77-18.46,6.23-18.67,16.66a31.24,31.24,0,0,0,3.08,14.34c1.88,3.93,4.24,7.45,7.99,9.92a1.5,1.5,0,0,1,.55,2.19,57.549,57.549,0,0,1-3.66,5.62,8.848,8.848,0,0,1-5.38,3.21,54.24,54.24,0,0,0-5.98,1.26c-3.16,1-6.27,2.18-9.346,3.4a3.439,3.439,0,0,0-1.708,1.6c-0.824,1.78-.766,3.73-0.842,5.7h65.336Zm-20.86-63.95c0.33,0.23.6,0.42,0.87,0.62a18.167,18.167,0,0,1,5.14,5.62c2.81,4.9,3.32,10.19,2.55,15.61-1.17,8.24-4.51,15.45-11.04,21.05,0.77,1.88.77,1.88,2.8,1.88h36.92c-0.06-.85-0.17-1.54-0.16-2.24,0.04-2.29-1.07-3.65-3.26-4.48a53.323,53.323,0,0,0-10.29-2.81,7.4,7.4,0,0,1-4.76-2.48,40.652,40.652,0,0,1-3.3-4.89c-0.55-.91-0.19-1.49.65-2.24a18.4,18.4,0,0,0,3.31-3.35c3.44-5.17,5.48-10.79,4.94-17.08-0.35-4.05-1.9-7.5-5.57-9.73a14.733,14.733,0,0,0-10.63-1.7A11.233,11.233,0,0,0,1040.48,2488.91Zm-23.07-.56c-0.32-.45-0.65-0.99-1.05-1.49a12.382,12.382,0,0,0-8.86-4.37c-5.59-.53-10.392,1.45-13.038,6.9a15.849,15.849,0,0,0-1.535,6.68c-0.125,5.59,1.78,10.61,4.685,15.29a14.306,14.306,0,0,0,3,3.08c1.07,0.91,1.3,1.39.69,2.67-1.91,4-4.66,6.82-9.483,7.39a29.713,29.713,0,0,0-9.7,2.96,3.639,3.639,0,0,0-1.66,1.23,11.375,11.375,0,0,0-.787,4.99H993.28q12.15,0,24.31.01a1.069,1.069,0,0,0,1.18-.69c0.18-.42.4-0.82,0.58-1.19-0.88-.81-1.74-1.49-2.45-2.28a33.75,33.75,0,0,1-8.79-25.25,18.935,18.935,0,0,1,5.01-12.19C1014.38,2490.76,1015.9,2489.66,1017.41,2488.35Z" transform="translate(-976.344 -2479.19)"/>
</svg>
