<?xml version="1.0" encoding="UTF-8" standalone="no"?><!DOCTYPE svg PUBLIC "-//W3C//DTD SVG 1.1//EN" "http://www.w3.org/Graphics/SVG/1.1/DTD/svg11.dtd"><svg width="100%" height="100%" viewBox="0 0 80 90" version="1.1" xmlns="http://www.w3.org/2000/svg" xmlns:xlink="http://www.w3.org/1999/xlink" xml:space="preserve" xmlns:serif="http://www.serif.com/" style="fill-rule:evenodd;clip-rule:evenodd;stroke-linejoin:round;stroke-miterlimit:1.41421;"><path d="M74.9,19.1l-29.9,-17.3c-3.1,-1.8 -7,-1.8 -10.1,0l-29.8,17.2c-3.1,1.8 -5,5.1 -5,8.7l0,34.4c0,3.6 1.9,6.9 5,8.7l29.8,17.2c1.5,0.9 3.3,1.3 5,1.3c1.8,0 3.5,-0.5 5,-1.3l29.8,-17.2c3.1,-1.8 5,-5.1 5,-8.7l0,-34.4c0.2,-3.5 -1.7,-6.9 -4.8,-8.6Zm2,43.1c0,2.5 -1.4,4.9 -3.5,6.1l-29.8,17.2c-2.1,1.2 -4.9,1.2 -7.1,0l-29.8,-17.2c-2.2,-1.3 -3.5,-3.6 -3.5,-6.1l0,-34.4c0,-2.5 1.4,-4.9 3.5,-6.1l29.8,-17.2c1.1,-0.6 2.3,-0.9 3.5,-0.9c1.2,0 2.5,0.3 3.5,0.9l29.8,17.2c2.2,1.3 3.5,3.6 3.5,6.1l0.1,34.4Zm-20.5,-31.8l-34.7,26.8c-0.7,0.5 -0.8,1.4 -0.3,2.1c0.3,0.4 0.7,0.6 1.2,0.6c0.3,0 0.6,-0.1 0.9,-0.3l34.7,-26.8c0.7,-0.5 0.8,-1.4 0.3,-2.1c-0.5,-0.7 -1.4,-0.8 -2.1,-0.3Zm-23.8,7.9c2.1,0 4,-0.8 5.5,-2.3c3,-3 3,-7.9 0,-11c-1.5,-1.5 -3.4,-2.3 -5.5,-2.3c-2.1,0 -4,0.8 -5.5,2.3c-3,3 -3,7.9 0,11c1.5,1.5 3.5,2.3 5.5,2.3Zm-3.3,-11.1c0.9,-0.9 2.1,-1.4 3.4,-1.4c1.3,0 2.5,0.5 3.4,1.4c1.9,1.9 1.9,4.9 0,6.7c-0.9,0.9 -2.1,1.4 -3.4,1.4c-1.3,0 -2.5,-0.5 -3.4,-1.4c-1.9,-1.8 -1.9,-4.8 0,-6.7Zm18.1,24.5c-2.1,0 -4,0.8 -5.5,2.3c-3,3 -3,7.9 0,11c1.5,1.5 3.4,2.3 5.5,2.3c2.1,0 4,-0.8 5.5,-2.3c3,-3 3,-7.9 0,-11c-1.5,-1.5 -3.5,-2.3 -5.5,-2.3Zm3.3,11.1c-0.9,0.9 -2.1,1.4 -3.4,1.4c-1.3,0 -2.5,-0.5 -3.4,-1.4c-1.9,-1.9 -1.9,-4.9 0,-6.7c0.9,-0.9 2.1,-1.4 3.4,-1.4c1.3,0 2.5,0.5 3.4,1.4c1.9,1.8 1.9,4.8 0,6.7Z" style="fill:#87629c;fill-rule:nonzero;"/></svg>