<svg id="Layer_1" data-name="Layer 1" xmlns="http://www.w3.org/2000/svg" viewBox="0 0 36.48 14"><defs><style>.cls-1{fill:#999;}</style></defs><title>icon-cell</title><path id="_4G" data-name=" 4G" class="cls-1" d="M17,13.94V0h3V13.94ZM12.75,1.86h3.1V13.94h-3.1ZM8.48,3.77h3.1V14H8.48Zm-4.21,2h3.1V14H4.27ZM0,7.58H3v6.36H0Z"/><path class="cls-1" d="M29.4,9.35h-1v2H27.15v-2H23.78V8.41l3-4.73h1.64V8.28h1ZM27.15,8.28V6.55c0-.44,0-1.14.06-1.58h0c-.19.4-.41.78-.62,1.19L25.15,8.28Z"/><path class="cls-1" d="M34,3.32a3.18,3.18,0,0,1,2.34,1l-.77.86A2,2,0,0,0,34,4.54c-1.39,0-2.33,1.08-2.33,2.84s.84,2.87,2.41,2.87a1.72,1.72,0,0,0,1.12-.35V8.21H33.76V7.07h2.72v3.45a3.8,3.8,0,0,1-2.53.93c-2.09,0-3.67-1.44-3.67-4S31.91,3.32,34,3.32Z"/></svg>