<?xml version="1.0" encoding="utf-8"?>
<!-- Generator: Adobe Illustrator 21.1.0, SVG Export Plug-In . SVG Version: 6.00 Build 0)  -->
<svg version="1.1" id="Layer_1" xmlns="http://www.w3.org/2000/svg" xmlns:xlink="http://www.w3.org/1999/xlink" x="0px" y="0px"
	 viewBox="0 0 150 115" style="enable-background:new 0 0 150 115;" xml:space="preserve">
<style type="text/css">
	.st0{fill:#00973E;}
</style>
<g>
	<path class="st0" d="M54.7,63.5c0,1.5-1.2,2.7-2.7,2.7c-1.5,0-2.7-1.2-2.7-2.7c0-1.5,1.2-2.7,2.7-2.7C53.5,60.8,54.7,62,54.7,63.5"
		/>
	<path class="st0" d="M58.2,63.5c0,1.5-1.2,2.7-2.7,2.7c-1.5,0-2.7-1.2-2.7-2.7c0-1.5,1.2-2.7,2.7-2.7C57,60.8,58.2,62,58.2,63.5"/>
	<path class="st0" d="M81.5,79.9H36.4V35.2c0-5.6,4.6-10.2,10.2-10.2h55.9c5.6,0,10.2,4.6,10.2,10.2v31.5h-4.1V35.2
		c0-3.4-2.7-6.1-6.1-6.1H46.5c-3.4,0-6.1,2.7-6.1,6.1v40.6h41.1L81.5,79.9L81.5,79.9z"/>
	<rect x="40" y="37.8" class="st0" width="71.1" height="4.1"/>
	<rect x="40" y="45.7" class="st0" width="71.1" height="4.1"/>
	<path class="st0" d="M99.9,98.9c-10.5,0-19-8.5-19-19s8.5-19,19-19c10.5,0,19,8.5,19,19C118.9,90.3,110.4,98.9,99.9,98.9z
		 M99.9,64.9c-8.2,0-15,6.7-15,15s6.7,15,15,15c8.3,0,15-6.7,15-15S108.1,64.9,99.9,64.9z"/>
	<polygon class="st0" points="97.9,86 91.6,78.7 94.6,76 98.4,80.3 105.5,74.4 108.1,77.5 	"/>
	<path class="st0" d="M117.5,115h-100V15c0-8.3,6.7-15,15-15h85c8.3,0,15,6.7,15,15v85C132.5,108.3,125.8,115,117.5,115z M21.5,111
		h96c6.1,0,11-4.9,11-11V15c0-6.1-4.9-11-11-11h-85c-6.1,0-11,4.9-11,11L21.5,111L21.5,111L21.5,111z"/>
</g>
</svg>
