<svg xmlns="http://www.w3.org/2000/svg" width="28" height="30" viewBox="0 0 28 30">
    <g fill="#FFF" fill-rule="evenodd">
        <path d="M16.078 20.88a.752.752 0 0 0-.51.71v.81H11.69l-.003-.81a.752.752 0 0 0-.509-.711A7.645 7.645 0 0 1 5.98 13.63c0-4.22 3.431-7.65 7.65-7.65 4.218 0 7.65 3.43 7.65 7.65a7.645 7.645 0 0 1-5.202 7.249zm-.51 6h-.818a.75.75 0 0 0-.75.75V28h-.74v-.37a.75.75 0 0 0-.75-.75h-.818V23.9h3.876v2.98zM13.63 4.48c-5.045 0-9.15 4.105-9.15 9.15a9.144 9.144 0 0 0 5.71 8.48l.002 1.04v4.48c0 .415.336.75.75.75h.818v.37c0 .414.336.75.75.75h2.24a.75.75 0 0 0 .75-.75v-.37h.818a.75.75 0 0 0 .75-.75V22.113a9.144 9.144 0 0 0 5.712-8.481c0-5.046-4.105-9.15-9.15-9.15zM13.63 3.74a.75.75 0 0 0 .75-.75V.75a.75.75 0 0 0-1.5 0v2.24c0 .414.336.75.75.75M26.51 12.88h-2.24a.75.75 0 0 0 0 1.5h2.24a.75.75 0 0 0 0-1.5M2.99 12.88H.75a.75.75 0 0 0 0 1.5h2.24a.75.75 0 0 0 0-1.5"/>
        <path d="M22.207 3.992l-1.584 1.584a.75.75 0 1 0 1.061 1.061l1.584-1.584a.75.75 0 1 0-1.061-1.06M5.576 20.624l-1.584 1.584a.75.75 0 1 0 1.061 1.061l1.584-1.584a.75.75 0 1 0-1.06-1.061M21.684 20.624a.75.75 0 1 0-1.061 1.061l1.584 1.584a.751.751 0 0 0 1.06-1.061l-1.583-1.584zM5.576 6.637a.748.748 0 0 0 1.061 0 .75.75 0 0 0 0-1.061L5.053 3.992a.75.75 0 1 0-1.06 1.06l1.583 1.585z"/>
    </g>
</svg>
