<svg xmlns="http://www.w3.org/2000/svg" width="30" height="30" viewBox="0 0 30 30">
    <g fill="none" fill-rule="evenodd" stroke="#00A04A">
        <path d="M20.929 28H8V4.094C8 2.94 8.929 2 10.071 2H20.93C22.07 2 23 2.939 23 4.094v21.74C23 27.06 22.071 28 20.929 28zM8 6h15M8 22h15"/>
        <path stroke-linecap="round" d="M13 4h3M14 25h3"/>
        <path stroke-linecap="round" stroke-linejoin="round" d="M18 4h.1"/>
        <path stroke-linecap="round" d="M10.648 18.352a2.127 2.127 0 0 1 0-3.057l6.647-6.647a2.127 2.127 0 0 1 3.057 0 2.127 2.127 0 0 1 0 3.057l-6.647 6.647a2.127 2.127 0 0 1-3.057 0zM16 10l3 3M13 13l3 3"/>
        <path stroke-linecap="round" stroke-linejoin="round" d="M16.1 12.1L16 12M17.1 13.1L17 13M16.1 14H16M17 16l.475.6 2.372-.133-1.355 1.933L21 19M11 8l3 3"/>
    </g>
</svg>
