<?xml version="1.0" encoding="utf-8"?>
<!-- Generator: Adobe Illustrator 21.1.0, SVG Export Plug-In . SVG Version: 6.00 Build 0)  -->
<svg version="1.1" id="Layer_1" xmlns="http://www.w3.org/2000/svg" xmlns:xlink="http://www.w3.org/1999/xlink" x="0px" y="0px"
	 viewBox="0 0 150 115" style="enable-background:new 0 0 150 115;" xml:space="preserve">
<style type="text/css">
	.st0{fill:#00973E;}
</style>
<g>
	<path class="st0" d="M117.5,115h-100V15c0-8.3,6.7-15,15-15h85c8.3,0,15,6.7,15,15v85C132.5,108.3,125.8,115,117.5,115z M21.5,111
		h96c6.1,0,11-4.9,11-11V15c0-6.1-4.9-11-11-11h-85c-6.1,0-11,4.9-11,11L21.5,111L21.5,111z"/>
	<g>
		<path class="st0" d="M75,76.7c3.6,0,6.3,2.6,6.3,6c0,3.4-2.7,6-6.3,6c-3.6,0-6.3-2.6-6.3-6C68.7,79.3,71.4,76.7,75,76.7z
			 M69.8,26.3h10.3v46.4H69.8V26.3z"/>
	</g>
</g>
</svg>
