<?xml version="1.0" encoding="utf-8"?>
<!-- Generator: Adobe Illustrator 21.1.0, SVG Export Plug-In . SVG Version: 6.00 Build 0)  -->
<svg version="1.1" id="Layer_1" xmlns="http://www.w3.org/2000/svg" xmlns:xlink="http://www.w3.org/1999/xlink" x="0px" y="0px"
	 viewBox="0 0 150 115" style="enable-background:new 0 0 150 115;" xml:space="preserve">
<style type="text/css">
	.st0{fill:#00973E;}
</style>
<g>
	<path class="st0" d="M131.6,25h-2.5v-4.1h2.5V25z M123.6,25h-5.5v-4.1h5.5V25z M112.6,25h-5.5v-4.1h5.5V25z M101.7,25h-5.5v-4.1
		h5.5V25z"/>
	<path class="st0" d="M45.8,25h-5.5v-4.1h5.5V25z M34.9,25h-5.5v-4.1h5.5V25z M23.9,25h-5.5v-4.1h5.5V25z"/>
	<rect x="63.8" y="88.7" class="st0" width="12.5" height="4.1"/>
	<g>
		<path class="st0" d="M45.4,45.3H41c-4.6,0-8.4-3.8-8.4-8.4c0-4.6,3.8-8.4,8.4-8.4h4.4c4.6,0,8.4,3.8,8.4,8.4
			C53.8,41.5,50,45.3,45.4,45.3z M41,32.6c-2.4,0-4.3,1.9-4.3,4.3c0,2.4,1.9,4.3,4.3,4.3h4.4c2.4,0,4.3-1.9,4.3-4.3
			c0-2.4-1.9-4.3-4.3-4.3H41z"/>
		<path class="st0" d="M41,83.3c-4.6,0-8.4-3.8-8.4-8.4c0-4.6,3.8-8.4,8.4-8.4c4.6,0,8.4,3.8,8.4,8.4C49.4,79.5,45.7,83.3,41,83.3z
			 M41,70.6c-2.4,0-4.3,1.9-4.3,4.3c0,2.4,1.9,4.3,4.3,4.3c2.4,0,4.3-1.9,4.3-4.3C45.3,72.5,43.4,70.6,41,70.6z"/>
		<path class="st0" d="M48.5,57.9H41c-4.6,0-8.4-3.8-8.4-8.4c0-4.6,3.8-8.4,8.4-8.4h7.5c4.6,0,8.4,3.8,8.4,8.4
			C56.9,54.2,53.1,57.9,48.5,57.9z M41,45.3c-2.4,0-4.3,1.9-4.3,4.3s1.9,4.3,4.3,4.3h7.5c2.4,0,4.3-1.9,4.3-4.3s-1.9-4.3-4.3-4.3H41
			z"/>
		<path class="st0" d="M47.4,70.6H41c-4.6,0-8.4-3.8-8.4-8.4c0-4.6,3.8-8.4,8.4-8.4h6.3c4.6,0,8.4,3.8,8.4,8.4
			C55.7,66.8,52,70.6,47.4,70.6z M41,57.9c-2.4,0-4.3,1.9-4.3,4.3c0,2.4,1.9,4.3,4.3,4.3h6.3c2.4,0,4.3-1.9,4.3-4.3
			c0-2.4-1.9-4.3-4.3-4.3C47.4,57.9,41,57.9,41,57.9z"/>
	</g>
	<path class="st0" d="M127.2,114.7L116,92.6V50.3l-7.3-11.7c-1.1-1.8-3-2.8-5.1-2.8h-10v0.6c0,4.1,3.3,7.4,7.4,7.4h5.3v20.8h-2.1
		c-3.7,0-6.9,3.1-6.9,6.7V80h-4.1v-8.6c0-5.3,3.9-9.7,8.9-10.6V48H101c-6.4,0-11.5-5.2-11.5-11.5v-4.8h14.1c3.5,0,6.7,1.8,8.6,4.8
		l7.9,12.7v42.5l10.7,21.2L127.2,114.7z"/>
	<path class="st0" d="M97.7,17.2h-4.1V9.6c0-3-2.9-5.5-6.5-5.5H54.3c-3.6,0-6.5,2.5-6.5,5.5v7.7h-4.1V9.6c0-5.3,4.8-9.6,10.6-9.6
		h32.8C93,0,97.7,4.3,97.7,9.6V17.2z"/>
	<rect x="45.8" y="13.1" class="st0" width="49.8" height="4.1"/>
	<path class="st0" d="M83.6,104.2H43.1V79.8h4.1v20.3h36.4c5.4,0,9.7-4.4,9.7-9.7v-19h4.1v19C97.4,98,91.2,104.2,83.6,104.2z"/>
	<path class="st0" d="M83,59.7l-10.6-6.3H60V41.4c0-2.4,2-4.4,4.4-4.4h16.5c2.4,0,4.4,2,4.4,4.4V49c0,1.7-1,3.1-2.3,3.9
		C83,52.8,83,59.7,83,59.7z M64.1,49.2h9.4l5.3,3.2v-3.2h2.1c0.2,0,0.3-0.1,0.3-0.3v-7.6c0-0.2-0.1-0.3-0.3-0.3H64.4
		c-0.2,0-0.3,0.1-0.3,0.3V49.2z"/>
	<rect x="45" y="78" class="st0" width="50.3" height="4.1"/>
	
		<rect x="78.9" y="100.6" transform="matrix(0.7895 -0.6137 0.6137 0.7895 -49.2074 72.3795)" class="st0" width="4.1" height="14.7"/>
</g>
</svg>
