<?xml version="1.0" encoding="utf-8"?>
<!-- Generator: Adobe Illustrator 21.0.2, SVG Export Plug-In . SVG Version: 6.00 Build 0)  -->
<svg version="1.1" id="Isolation_Mode" xmlns="http://www.w3.org/2000/svg" xmlns:xlink="http://www.w3.org/1999/xlink" x="0px"
	 y="0px" viewBox="0 0 54.4 54.9" style="enable-background:new 0 0 54.4 54.9;" xml:space="preserve">
<style type="text/css">
	.st0{fill:none;stroke:#FFFFFF;stroke-width:2.276;stroke-linecap:round;stroke-miterlimit:10;}
</style>
<path class="st0" d="M34.9,1.3l-29-0.1c-2.4,0-4.4,2-4.4,4.4L1.4,26.1l4.2,0l0,7.6l10.8-7.5l18.5,0.1c2.4,0,4.4-2,4.4-4.4l0-16.1
	C39.3,3.3,37.3,1.3,34.9,1.3z"/>
<path class="st0" d="M25.3,35.5l0,11.6l14.7,0l8.2,5.5l0-5.5l0.5,0c2.4,0,4.4-2,4.4-4.4l0-7.2c0-2.4-2-4.4-4.4-4.4l-19-0.1
	C27.3,31.1,25.3,33,25.3,35.5z"/>
</svg>
