<svg xmlns="http://www.w3.org/2000/svg" width="23" height="26" viewBox="0 0 23 26">
    <g fill="none" fill-rule="evenodd">
        <g fill="#FFF">
            <path fill-rule="nonzero" d="M12 25.5c-2.113 0-3.026-1.096-3.183-2.982a12.237 12.237 0 0 1-.033-1.084c-.001-.715-.043-1.006-.035-1.001C6.713 19.255 5.5 17.31 5.5 15a6.5 6.5 0 0 1 13 0c0 2.362-1.19 4.284-3.256 5.437.021-.013-.02.276-.02.97-.001.536-.007.792-.035 1.115C15.026 24.403 14.107 25.5 12 25.5zm0-1c1.523 0 2.07-.653 2.192-2.064.025-.286.03-.523.032-1.031.001-1.25.047-1.57.532-1.842C16.513 18.583 17.5 16.99 17.5 15a5.5 5.5 0 0 0-11 0c0 1.94 1.012 3.562 2.75 4.567.484.28.531.612.534 1.865 0 .495.006.725.03 1.003C9.93 23.85 10.472 24.5 12 24.5z"/>
            <path d="M9 21h6v1H9z"/>
        </g>
        <path stroke="#FFF" d="M12 6.165V0M18 7.36L22.36 3M5.36 7.36L1 3"/>
    </g>
</svg>
