<svg xmlns="http://www.w3.org/2000/svg" width="70" height="70" viewBox="0 0 70 70">
    <g fill="none" fill-rule="evenodd" transform="translate(1 1)">
        <g stroke="#00A04A" stroke-linecap="round" stroke-width="2.9">
            <path d="M62.049 67.483H.498V5.933A5.482 5.482 0 0 1 5.98.45h56.068a5.482 5.482 0 0 1 5.483 5.482v56.07a5.483 5.483 0 0 1-5.483 5.481z"/>
            <path d="M36.913 25.553H16.96a4.02 4.02 0 0 0-4.02 4.021v19.854a4.02 4.02 0 0 0 4.02 4.022h19.954c2.22 0 4.021-1.8 4.021-4.022V29.575a4.021 4.021 0 0 0-4.02-4.021z"/>
            <path d="M33.603 42.803a6.436 6.436 0 0 1-5.784 3.61h-2.23a6.435 6.435 0 0 1-5.78-3.604M40.938 42.11h10.078a4.02 4.02 0 0 0 4.022-4.02v-2.784l.188-16.786c0-2.22-1.8-4.02-4.02-4.02H31.25c-2.22 0-4.02 1.8-4.02 4.02v6.626M47.895 31.277a6.436 6.436 0 0 1-5.784 3.61"/>
        </g>
        <circle cx="34" cy="38" r="1" fill="#00A04A"/>
        <circle cx="48" cy="27" r="1" fill="#00A04A"/>
        <circle cx="20" cy="38" r="1" fill="#00A04A"/>
    </g>
</svg>
