<?xml version="1.0" encoding="UTF-8" standalone="no"?><!DOCTYPE svg PUBLIC "-//W3C//DTD SVG 1.1//EN" "http://www.w3.org/Graphics/SVG/1.1/DTD/svg11.dtd"><svg width="100%" height="100%" viewBox="0 0 407 209" version="1.1" xmlns="http://www.w3.org/2000/svg" xmlns:xlink="http://www.w3.org/1999/xlink" xml:space="preserve" xmlns:serif="http://www.serif.com/" style="fill-rule:evenodd;clip-rule:evenodd;stroke-linejoin:round;stroke-miterlimit:1.41421;"><g><g><g><g><g><path d="M159.3,60.5l0,-42.4c0,-1.8 -1.5,-3.3 -3.3,-3.3l-35.3,0c-1.8,0 -3.3,1.5 -3.3,3.3l0,7.9l-27,-22.1c-1.2,-1 -3,-1 -4.2,0l-82.8,68c-1.1,0.9 -1.5,2.4 -1,3.7c0.5,1.3 1.7,2.2 3.1,2.2l2.8,0l0,119.2c0,1.8 1.5,3.3 3.3,3.3l153.4,0c1.8,0 3.3,-1.5 3.3,-3.3l0,-119.3l2.8,0c1.4,0 2.7,-0.9 3.1,-2.2c0.5,-1.3 0.1,-2.8 -1,-3.7l-13.9,-11.3Zm-35.3,-39.1l28.7,0l0,33.6l-28.7,-23.6l0,-10Zm-35.8,-10.7l73.5,60.3l-147,0l73.5,-60.3Zm18.6,183l-37.2,0l0,-72.8l37.2,0l0,72.8Zm54.8,0l-48.1,0l0,-76.1c0,-1.8 -1.5,-3.3 -3.3,-3.3l-43.8,0c-1.8,0 -3.3,1.5 -3.3,3.3l0,76.1l-48.2,0l0,-116l146.7,0l0,116Z" style="fill:#858585;fill-rule:nonzero;"/><path d="M165,201.8l-153.4,0c-2.6,0 -4.8,-2.2 -4.8,-4.8l0,-117.7l-1.3,0c-2,0 -3.8,-1.2 -4.5,-3.2c-0.7,-1.9 -0.2,-4.1 1.5,-5.4l82.8,-68c1.7,-1.4 4.4,-1.4 6.1,0l24.5,20.1l0,-4.7c0,-2.6 2.2,-4.8 4.8,-4.8l35.3,0c2.6,0 4.8,2.2 4.8,4.8l0,41.7l13.3,10.8c1.6,1.3 2.2,3.5 1.5,5.4c-0.6,1.9 -2.5,3.2 -4.5,3.2l-1.3,0l0,117.8c0,2.6 -2.2,4.8 -4.8,4.8Zm-76.7,-197.1c-0.4,0 -0.8,0.1 -1.1,0.4l-82.8,68c-0.6,0.5 -0.8,1.3 -0.6,2c0.3,0.8 1,1.2 1.7,1.2l4.3,0l0,120.7c0,1 0.8,1.8 1.8,1.8l153.4,0c1,0 1.8,-0.8 1.8,-1.8l0,-120.8l4.3,0c0.7,0 1.5,-0.5 1.7,-1.1l0,-0.1c0.3,-0.7 0,-1.5 -0.6,-2l-14.5,-11.7l0,-43.1c0,-1 -0.8,-1.8 -1.8,-1.8l-35.3,0c-1,0 -1.8,0.8 -1.8,1.8l0,11.1l-29.5,-24.1c-0.2,-0.4 -0.6,-0.5 -1,-0.5Zm74.8,190.5l-51.1,0l0,-77.6c0,-1 -0.8,-1.8 -1.8,-1.8l-43.8,0c-1,0 -1.8,0.8 -1.8,1.8l0,77.6l-51.2,0l0,-119l149.7,0l0,119Zm-48.1,-3l45.1,0l0,-113l-143.7,0l0,113l45.2,0l0,-74.6c0,-2.6 2.2,-4.8 4.8,-4.8l43.8,0c2.6,0 4.8,2.2 4.8,4.8l0,74.6Zm-6.7,3l-40.2,0l0,-75.8l40.2,0l0,75.8Zm-37.2,-3l34.2,0l0,-69.8l-34.2,0l0,69.8Zm94.8,-119.7l-155.4,0l77.7,-63.7l77.7,63.7Zm-147,-3l138.6,0l-69.3,-56.9l-69.3,56.9Zm135.3,-11.3l-31.7,-26.1l0,-12.2l31.7,0l0,38.3Zm-28.7,-27.5l25.7,21.1l0,-28.9l-25.7,0l0,7.8Z" style="fill:#858585;fill-rule:nonzero;"/></g><g><path d="M164.9,200.9l-153.3,0c-2.1,0 -3.9,-1.7 -3.9,-3.9l0,-118.7l-2.2,0c-1.6,0 -3.1,-1 -3.7,-2.6c-0.6,-1.5 -0.1,-3.3 1.2,-4.3l82.8,-68c1.4,-1.2 3.5,-1.2 4.9,0l26.1,21.4l0,-6.7c0,-2.1 1.7,-3.9 3.9,-3.9l35.3,0c2.1,0 3.9,1.7 3.9,3.9l0,42.1l13.7,11.2c1.3,1 1.7,2.8 1.2,4.3c-0.5,1.5 -2,2.6 -3.7,2.6l-2.2,0l0,118.7c-0.1,2.2 -1.8,3.9 -4,3.9Zm-76.7,-197.3c-0.6,0 -1.3,0.2 -1.8,0.6l-82.8,68c-0.9,0.7 -1.2,2 -0.9,3.1c0.4,1.1 1.4,1.8 2.6,1.8l3.3,0l0,119.9c0,1.5 1.2,2.8 2.8,2.8l153.4,0c1.5,0 2.8,-1.2 2.8,-2.8l0,-119.8l3.3,0c1.2,0 2.2,-0.7 2.6,-1.8c0.4,-1.1 0.1,-2.3 -0.9,-3.1l-14.1,-11.5l0,-42.6c0,-1.5 -1.2,-2.8 -2.8,-2.8l-35.3,0c-1.5,0 -2.8,1.2 -2.8,2.8l0,9.1l-27.6,-23c-0.5,-0.4 -1.1,-0.7 -1.8,-0.7Zm74,190.7l-49.2,0l0,-76.7c0,-1.5 -1.2,-2.8 -2.8,-2.8l-43.8,0c-1.5,0 -2.8,1.2 -2.8,2.8l0,76.7l-49.3,0l0,-117.1l147.8,0l0.1,117.1Zm-48.1,-1.1l47,0l0,-114.9l-145.6,0l0,114.9l47,0l0,-75.5c0,-2.1 1.7,-3.9 3.9,-3.9l43.8,0c2.1,0 3.9,1.7 3.9,3.9l0,75.5Zm-6.7,1.1l-38.3,0l0,-73.9l38.3,0l0,73.9Zm-37.2,-1.1l36,0l0,-71.6l-36,0l0,71.6Zm93.1,-121.6l-150.1,0l75.1,-61.6l0.4,0.3l74.6,61.3Zm-147,-1.1l143.9,0l-71.9,-59.1l-72,59.1Zm136.9,-14.3l-29.8,-24.4l0,-10.8l29.8,0l0,35.2Zm-28.7,-25l27.5,22.6l0,-31.8l-27.5,0l0,9.2Z" style="fill:#858585;fill-rule:nonzero;"/><path d="M164.9,202.4l-153.3,0c-3,0 -5.4,-2.4 -5.4,-5.4l0,-117.2l-0.7,0c-2.3,0 -4.3,-1.4 -5.1,-3.6c-0.8,-2.1 -0.2,-4.6 1.7,-6l82.8,-68c1.9,-1.7 4.9,-1.7 6.8,0l23.6,19.4l0,-3.5c0,-3 2.4,-5.4 5.4,-5.4l35.3,0c3,0 5.4,2.4 5.4,5.4l0,41.4l13.1,10.8c1.7,1.3 2.4,3.8 1.7,5.9c-0.7,2.1 -2.8,3.6 -5.1,3.6l-0.7,0l0,117.2c-0.1,3.1 -2.5,5.4 -5.5,5.4Zm-160.8,-127.6c0.2,0.5 0.6,0.8 1.2,0.8l4.8,0l0,121.4c0,0.6 0.5,1.3 1.3,1.3l153.4,0c0.6,0 1.3,-0.5 1.3,-1.3l0,-121.3l4.8,0c0.6,0 1,-0.3 1.2,-0.8c0.2,-0.5 0,-1 -0.4,-1.4l-14.7,-12l0,-43.3c0,-0.6 -0.5,-1.3 -1.3,-1.3l-35.3,0c-0.6,0 -1.3,0.5 -1.3,1.3l0,12.3l-30.1,-25c-0.3,-0.2 -0.6,-0.4 -0.8,-0.4c-0.3,0 -0.7,0.1 -0.9,0.3l-82.8,68c-0.3,0.3 -0.5,0.9 -0.4,1.4Zm158.1,121l-50.7,0l0,-78.2c0,-0.6 -0.5,-1.3 -1.3,-1.3l-43.8,0c-0.6,0 -1.3,0.5 -1.3,1.3l0,78.2l-52.3,0l0,-120.1l150.8,0l0,118.6l-1,0l0,0.4l-0.4,0l0,1.1Zm-46.6,-4.1l44,0l0,-111.9l-142.6,0l0,111.9l44,0l0,-74c0,-3 2.4,-5.4 5.4,-5.4l43.8,0c3,0 5.4,2.4 5.4,5.4l0,74Zm-6.7,4.1l-41.3,0l0,-76.9l41.3,0l0,76.9Zm-37.2,-4.1l33,0l0,-68.6l-33,0l0,68.6Zm95.8,-118.6l-158.5,0l79.3,-65l1.3,1l77.9,64Zm-147,-4.1l135.5,0l-67.7,-55.7l-67.8,55.7Zm134.2,-9.6l-32.8,-26.9l0,-13l32.8,0l0,39.9Zm-28.7,-28.9l24.5,20.1l0,-27.1l-24.5,0l0,7Z" style="fill:#858585;fill-rule:nonzero;"/></g></g><g><path d="M126.8,143.9l22.9,0c1.8,0 3.3,-1.5 3.3,-3.3l0,-23c0,-1.8 -1.5,-3.3 -3.3,-3.3l-22.9,0c-1.8,0 -3.3,1.5 -3.3,3.3l0,23c0,1.8 1.5,3.3 3.3,3.3Zm3.4,-23l16.3,0l0,16.3l-16.3,0l0,-16.3Z" style="fill:#858585;fill-rule:nonzero;"/><path d="M149.7,145.4l-22.9,0c-2.6,0 -4.8,-2.2 -4.8,-4.8l0,-23c0,-2.6 2.2,-4.8 4.8,-4.8l22.9,0c2.6,0 4.8,2.2 4.8,4.8l0,23c0,2.6 -2.2,4.8 -4.8,4.8Zm-22.9,-29.6c-1,0 -1.8,0.8 -1.8,1.8l0,23c0,1 0.8,1.8 1.8,1.8l22.9,0c1,0 1.8,-0.8 1.8,-1.8l0,-23c0,-1 -0.8,-1.8 -1.8,-1.8l-22.9,0Zm21.2,22.9l-19.3,0l0,-19.3l19.3,0l0,19.3Zm-16.3,-3l13.3,0l0,-13.3l-13.3,0l0,13.3Z" style="fill:#858585;fill-rule:nonzero;"/></g><g><path d="M28.9,143.9l23,0c1.8,0 3.3,-1.5 3.3,-3.3l0,-23c0,-1.8 -1.5,-3.3 -3.3,-3.3l-23,0c-1.8,0 -3.3,1.5 -3.3,3.3l0,23c-0.1,1.8 1.4,3.3 3.3,3.3Zm3.3,-23l16.3,0l0,16.3l-16.3,0l0,-16.3Z" style="fill:#858585;fill-rule:nonzero;"/><path d="M51.9,145.4l-23,0c-1.4,0 -2.6,-0.5 -3.6,-1.5c-0.9,-0.9 -1.3,-2.1 -1.2,-3.4l0,-22.9c0,-2.6 2.2,-4.8 4.8,-4.8l23,0c2.6,0 4.8,2.2 4.8,4.8l0,23c0,2.6 -2.2,4.8 -4.8,4.8Zm-23,-29.6c-1,0 -1.8,0.8 -1.8,1.8l0,23c0,0.5 0.1,0.9 0.4,1.2c0.3,0.4 0.8,0.6 1.4,0.6l23,0c1,0 1.8,-0.8 1.8,-1.8l0,-23c0,-1 -0.8,-1.8 -1.8,-1.8l-23,0Zm21.1,22.9l-19.3,0l0,-19.3l19.3,0l0,19.3Zm-16.3,-3l13.3,0l0,-13.3l-13.3,0l0,13.3Z" style="fill:#858585;fill-rule:nonzero;"/></g></g><g><g><path d="M344.8,188.6l-163.8,0l0,-42.2c0,-9.7 7.9,-17.6 17.6,-17.6l146.2,0c9.7,0 17.6,7.9 17.6,17.6l0,24.6c0,9.7 -7.9,17.6 -17.6,17.6Zm-156.6,-7.2l156.6,0c5.7,0 10.4,-4.7 10.4,-10.4l0,-24.5c0,-5.7 -4.7,-10.4 -10.4,-10.4l-146.2,0c-5.7,0 -10.4,4.7 -10.4,10.4l0,34.9Z" style="fill:#858585;fill-rule:nonzero;"/><path d="M344.8,189l-164.2,0l0,-42.6c0,-9.9 8.1,-18 18,-18l146.2,0c9.9,0 18,8.1 18,18l0,24.6c0,9.9 -8.1,18 -18,18Zm-163.4,-0.8l163.4,0c9.5,0 17.2,-7.7 17.2,-17.2l0,-24.6c0,-9.5 -7.7,-17.2 -17.2,-17.2l-146.2,0c-9.5,0 -17.2,7.7 -17.2,17.2l0,41.8Zm163.4,-6.4l-157,0l0,-35.3c0,-5.9 4.8,-10.8 10.8,-10.8l146.2,0c5.9,0 10.8,4.8 10.8,10.8l0,24.5c0,5.9 -4.9,10.8 -10.8,10.8Zm-156.2,-0.8l156.2,0c5.5,0 10,-4.5 10,-10l0,-24.5c0,-5.5 -4.5,-10 -10,-10l-146.2,0c-5.5,0 -10,4.5 -10,10l0,34.5Z" style="fill:#858585;fill-rule:nonzero;"/></g><g><path d="M209.4,162.3l-0.9,0c-2,0 -3.6,-1.6 -3.6,-3.6c0,-2 1.6,-3.6 3.6,-3.6l0.9,0c2,0 3.6,1.6 3.6,3.6c0,2 -1.6,3.6 -3.6,3.6Z" style="fill:#858585;fill-rule:nonzero;"/><path d="M209.4,162.7l-0.9,0c-2.2,0 -4,-1.8 -4,-4c0,-2.2 1.8,-4 4,-4l0.9,0c2.2,0 4,1.8 4,4c0,2.2 -1.8,4 -4,4Zm-0.9,-7.2c-1.8,0 -3.2,1.4 -3.2,3.2c0,1.8 1.4,3.2 3.2,3.2l0.9,0c1.8,0 3.2,-1.4 3.2,-3.2c0,-1.8 -1.4,-3.2 -3.2,-3.2l-0.9,0Z" style="fill:#858585;fill-rule:nonzero;"/></g><g><path d="M226.6,162.3l-0.9,0c-2,0 -3.6,-1.6 -3.6,-3.6c0,-2 1.6,-3.6 3.6,-3.6l0.9,0c2,0 3.6,1.6 3.6,3.6c0.1,2 -1.6,3.6 -3.6,3.6Z" style="fill:#858585;fill-rule:nonzero;"/><path d="M226.6,162.7l-0.9,0c-2.2,0 -4,-1.8 -4,-4c0,-2.2 1.8,-4 4,-4l0.9,0c2.2,0 4,1.8 4,4c0,1 -0.3,2 -1,2.7c-0.8,0.8 -1.9,1.3 -3,1.3Zm-0.9,-7.2c-1.8,0 -3.2,1.4 -3.2,3.2c0,1.8 1.4,3.2 3.2,3.2l0.9,0c0.9,0 1.8,-0.4 2.4,-1c0.6,-0.6 0.9,-1.4 0.8,-2.2c0,-1.8 -1.4,-3.2 -3.2,-3.2l-0.9,0Z" style="fill:#858585;fill-rule:nonzero;"/></g><g><path d="M300.6,136.1c-2,0 -3.6,-1.6 -3.6,-3.6l0,-24.1c0,-2 1.6,-3.6 3.6,-3.6c2,0 3.6,1.6 3.6,3.6l0,24.1c0,1.9 -1.6,3.6 -3.6,3.6Z" style="fill:#858585;fill-rule:nonzero;"/><path d="M300.6,136.5c-2.2,0 -4,-1.8 -4,-4l0,-24.1c0,-2.2 1.8,-4 4,-4c2.2,0 4,1.8 4,4l0,24.1c0,2.2 -1.8,4 -4,4Zm0,-31.3c-1.8,0 -3.2,1.4 -3.2,3.2l0,24.1c0,1.8 1.4,3.2 3.2,3.2c1.7,0 3.2,-1.5 3.2,-3.2l0,-24.1c0,-1.8 -1.4,-3.2 -3.2,-3.2Z" style="fill:#858585;fill-rule:nonzero;"/></g><g><path d="M302.5,95.5l-1.2,0c-2,0 -3.6,-1.6 -3.6,-3.6c0,-2 1.6,-3.6 3.6,-3.6l1.2,0c2,0 3.6,1.6 3.6,3.6c0,2 -1.6,3.6 -3.6,3.6Z" style="fill:#858585;fill-rule:nonzero;"/><path d="M302.5,95.9l-1.2,0c-2.2,0 -4,-1.8 -4,-4c0,-2.2 1.8,-4 4,-4l1.2,0c2.2,0 4,1.8 4,4c0,2.2 -1.8,4 -4,4Zm-1.2,-7.2c-1.8,0 -3.2,1.4 -3.2,3.2c0,1.8 1.4,3.2 3.2,3.2l1.2,0c1.8,0 3.2,-1.4 3.2,-3.2c0,-1.8 -1.4,-3.2 -3.2,-3.2l-1.2,0Z" style="fill:#858585;fill-rule:nonzero;"/></g><g><path d="M287.1,82.4c-0.9,0 -1.8,-0.4 -2.6,-1.1c-1.4,-1.4 -1.4,-3.7 0,-5.1c4.7,-4.7 10.9,-7.3 17.5,-7.3c6.6,0 12.8,2.6 17.4,7.2c1.4,1.4 1.4,3.7 0,5.1c-1.4,1.4 -3.7,1.4 -5.1,0c-3.3,-3.3 -7.7,-5.1 -12.3,-5.1c-4.7,0 -9.1,1.8 -12.4,5.1c-0.7,0.9 -1.6,1.2 -2.5,1.2Z" style="fill:#858585;fill-rule:nonzero;"/><path d="M287.1,82.8c-1,0 -2,-0.4 -2.8,-1.2c-0.8,-0.8 -1.2,-1.8 -1.2,-2.8c0,-1 0.4,-2.1 1.2,-2.8c4.8,-4.8 11.1,-7.4 17.8,-7.4c6.7,0 13,2.6 17.7,7.3c1.6,1.6 1.6,4.1 0,5.6c-1.6,1.6 -4.1,1.6 -5.6,0c-3.2,-3.2 -7.5,-5 -12,-5c-4.6,0 -8.9,1.8 -12.1,5c-0.9,0.8 -1.8,1.3 -3,1.3Zm14.9,-13.5c-6.5,0 -12.6,2.6 -17.2,7.2c-0.6,0.6 -0.9,1.4 -0.9,2.3c0,0.9 0.3,1.7 0.9,2.3c0.7,0.6 1.5,1 2.3,1c0.9,0 1.7,-0.3 2.2,-1.1c3.4,-3.4 7.9,-5.2 12.7,-5.2c4.7,0 9.2,1.9 12.6,5.2c1.3,1.3 3.3,1.3 4.6,0c1.3,-1.3 1.3,-3.3 0,-4.6c-4.6,-4.6 -10.7,-7.1 -17.2,-7.1Z" style="fill:#858585;fill-rule:nonzero;"/></g><g><path d="M270.8,68.4c-0.9,0 -1.8,-0.3 -2.5,-1c-1.5,-1.4 -1.6,-3.7 -0.2,-5.1c8.7,-9.4 21.1,-14.8 33.9,-14.8c12.3,0 23.9,4.8 32.6,13.5c1.4,1.4 1.4,3.7 0,5.1c-1.4,1.4 -3.7,1.4 -5.1,0c-7.3,-7.3 -17.1,-11.3 -27.4,-11.3c-10.8,0 -21.2,4.6 -28.5,12.5c-0.9,0.7 -1.8,1.1 -2.8,1.1Z" style="fill:#858585;fill-rule:nonzero;"/><path d="M270.8,68.8c-1.1,0 -2,-0.4 -2.8,-1.1c-0.8,-0.7 -1.3,-1.8 -1.3,-2.9c0,-1 0.4,-2 1.1,-2.7c8.8,-9.5 21.2,-14.9 34.2,-14.9c12.4,0 24.1,4.8 32.9,13.6c0.7,0.7 1.2,1.7 1.2,2.8c0,1.1 -0.4,2.1 -1.2,2.8c-0.7,0.7 -1.7,1.2 -2.8,1.2c-1.1,0 -2.1,-0.4 -2.8,-1.2c-7.2,-7.2 -16.9,-11.2 -27.1,-11.2c-10.7,0 -21,4.5 -28.2,12.4c-1.2,0.8 -2.2,1.2 -3.2,1.2Zm31.2,-20.9c-12.7,0 -25,5.4 -33.6,14.7c-0.6,0.6 -0.9,1.4 -0.9,2.2c0,0.9 0.4,1.7 1.1,2.4c0.7,0.7 1.6,0.9 2.2,0.9c0.9,0 1.7,-0.3 2.6,-1c7.4,-8 17.9,-12.6 28.7,-12.6c10.5,0 20.3,4.1 27.7,11.4c1.2,1.2 3.4,1.2 4.6,0c0.6,-0.6 0.9,-1.4 0.9,-2.3c0,-0.9 -0.3,-1.7 -0.9,-2.3c-8.7,-8.7 -20.2,-13.4 -32.4,-13.4Z" style="fill:#858585;fill-rule:nonzero;"/></g><g><path d="M255.7,54.6c-0.9,0 -1.8,-0.3 -2.5,-1c-1.5,-1.4 -1.6,-3.6 -0.2,-5.1c12.6,-13.6 30.4,-21.4 48.9,-21.4c17.7,0 34.4,6.9 47,19.4c1.4,1.4 1.4,3.7 0,5.1c-1.4,1.4 -3.7,1.4 -5.1,0c-11.2,-11.2 -26.1,-17.3 -41.9,-17.3c-16.5,0 -32.4,7 -43.6,19.1c-0.6,0.8 -1.6,1.2 -2.6,1.2Z" style="fill:#858585;fill-rule:nonzero;"/><path d="M255.7,55c-1.1,0 -2,-0.4 -2.8,-1.1c-0.8,-0.7 -1.3,-1.7 -1.3,-2.8c0,-1 0.3,-2.1 1.1,-2.9c12.7,-13.7 30.6,-21.5 49.2,-21.5c17.8,0 34.6,6.9 47.3,19.5c1.6,1.6 1.6,4.1 0,5.6c-1.6,1.6 -4.1,1.6 -5.6,0c-11.1,-11.1 -25.9,-17.2 -41.6,-17.2c-16.4,0 -32.2,6.9 -43.3,19c-0.7,0.9 -1.8,1.4 -3,1.4Zm46.2,-27.5c-18.4,0 -36.1,7.8 -48.6,21.3c-0.6,0.7 -0.9,1.5 -0.9,2.3c0,0.8 0.4,1.6 1.1,2.3c0.7,0.7 1.6,0.9 2.2,0.9c0.9,0 1.8,-0.4 2.3,-1.1c11.3,-12.2 27.3,-19.2 43.9,-19.2c16,0 30.9,6.2 42.2,17.4c1.3,1.3 3.3,1.3 4.6,0c1.3,-1.3 1.3,-3.3 0,-4.6c-12.6,-12.5 -29.2,-19.3 -46.8,-19.3Z" style="fill:#858585;fill-rule:nonzero;"/></g><g><path d="M402.8,207.9c-2,0 -3.6,-1.6 -3.6,-3.6l0,-19.3c0,-22.5 -18,-23.2 -18.7,-23.2l-21.6,0c-2,0 -3.6,-1.6 -3.6,-3.6c0,-2 1.6,-3.6 3.6,-3.6l21.7,0c0.3,0 25.9,1 25.9,30.5l0,19.3c-0.1,1.9 -1.7,3.5 -3.7,3.5Z" style="fill:#858585;fill-rule:nonzero;"/><path d="M402.8,208.3c-2.2,0 -4,-1.8 -4,-4l0,-19.3c0,-22.6 -18.1,-22.8 -18.3,-22.8l-21.6,0c-2.2,0 -4,-1.8 -4,-4c0,-2.2 1.8,-4 4,-4l21.7,0c0.3,0 26.3,0.8 26.3,30.9l0,19.3c-0.1,2.2 -1.9,3.9 -4.1,3.9Zm-22.2,-53.3l-21.7,0c-1.8,0 -3.2,1.4 -3.2,3.2c0,1.8 1.4,3.2 3.2,3.2l21.6,0c0.2,0 19.1,0.3 19.1,23.6l0,19.3c0,1.8 1.4,3.2 3.2,3.2c1.7,0 3.2,-1.4 3.3,-3.1l0,-19.3c0,-29 -25.2,-30.1 -25.5,-30.1Z" style="fill:#858585;fill-rule:nonzero;"/></g></g></g></g></svg>