<?xml version="1.0" encoding="utf-8"?>
<!-- Generator: Adobe Illustrator 21.1.0, SVG Export Plug-In . SVG Version: 6.00 Build 0)  -->
<svg version="1.1" id="Layer_1" xmlns="http://www.w3.org/2000/svg" xmlns:xlink="http://www.w3.org/1999/xlink" x="0px" y="0px"
	 viewBox="0 0 150 115" style="enable-background:new 0 0 150 115;" xml:space="preserve">
<style type="text/css">
	.st0{fill:#00973E;}
</style>
<g>
	<path class="st0" d="M83,115H25.2V11.1C25.2,5,30.1,0,36.2,0H83c6.1,0,11.1,5,11.1,11.1v29.2h-4.1V11.1c0-3.9-3.2-7-7-7H36.2
		c-3.9,0-7,3.2-7,7v99.8H83c3.9,0,7-3.2,7-7l-0.2-36.3l4.1,0l0.2,36.3C94.1,110,89.1,115,83,115z"/>
	<rect x="27.2" y="17.9" class="st0" width="65.5" height="4.1"/>
	<rect x="27.2" y="84" class="st0" width="64.9" height="4.1"/>
	<path class="st0" d="M61.9,12.7H49.1c-1.3,0-2.3-1-2.3-2.3s1-2.3,2.3-2.3h12.8c1.3,0,2.3,1,2.3,2.3S63.2,12.7,61.9,12.7z"/>
	<path class="st0" d="M65.7,100.7H52.8c-1.3,0-2.3-1-2.3-2.3c0-1.3,1-2.3,2.3-2.3h12.8c1.3,0,2.3,1,2.3,2.3
		C68,99.7,67,100.7,65.7,100.7z"/>
	<path class="st0" d="M68.7,12.7h-0.6c-1.3,0-2.3-1-2.3-2.3s1-2.3,2.3-2.3h0.6C70,8,71,9,71,10.3S70,12.7,68.7,12.7z"/>
	<rect x="62.5" y="52.5" class="st0" width="59.6" height="4.1"/>
	<polygon class="st0" points="106.8,74 103.8,71.2 119.3,54.5 103.8,37.1 106.8,34.4 124.8,54.5 	"/>
</g>
</svg>
