<svg xmlns="http://www.w3.org/2000/svg" width="30" height="30" viewBox="0 0 30 30">
    <g fill="none" fill-rule="evenodd" stroke="#00A04A" stroke-width="1.2">
        <path d="M16.842 22H8V11.144C8 9.968 8.975 9 10.158 9h6.684C18.025 9 19 9.968 19 11.144v8.782C19 21.032 18.025 22 16.842 22zM15.68 4h-5.36L10 9h6zM10.32 27h5.36l.32-5h-6z"/>
        <path d="M11 15.353L13.108 17 16 14"/>
        <path stroke-linecap="round" d="M19 7c.5 0 1.063.188 1.438.563.375.375.562.875.562 1.437M19 5.006c1.015-.062 2.09.368 2.866 1.167C22.642 6.973 23 7.955 23 9M19 3.005a5.61 5.61 0 0 1 4.32 1.748C24.46 5.94 25 7.44 25 9"/>
    </g>
</svg>
