<?xml version="1.0" encoding="utf-8"?>
<!-- Generator: Adobe Illustrator 21.1.0, SVG Export Plug-In . SVG Version: 6.00 Build 0)  -->
<svg version="1.1" id="Layer_1" xmlns="http://www.w3.org/2000/svg" xmlns:xlink="http://www.w3.org/1999/xlink" x="0px" y="0px"
	 viewBox="0 0 150 115" style="enable-background:new 0 0 150 115;" xml:space="preserve">
<style type="text/css">
	.st0{fill:#00973E;}
</style>
<g>
	<path class="st0" d="M85.4,115H31.1V17.5C31.1,11.7,35.7,7,41.5,7h31.7v3.8H41.5c-3.6,0-6.6,3-6.6,6.6v93.7h50.5
		c3.6,0,6.6-3,6.6-6.6l-0.1-58l3.8,0l0.1,58C95.8,110.3,91.1,115,85.4,115z"/>
	<rect x="33" y="23.8" class="st0" width="40.9" height="3.8"/>
	<rect x="33" y="85.9" class="st0" width="60.9" height="3.8"/>
	<path class="st0" d="M65.6,18.9h-12c-1.2,0-2.2-1-2.2-2.2c0-1.2,1-2.2,2.2-2.2h12c1.2,0,2.2,1,2.2,2.2C67.8,18,66.8,18.9,65.6,18.9
		z"/>
	<path class="st0" d="M69.1,101.6h-12c-1.2,0-2.2-1-2.2-2.2s1-2.2,2.2-2.2h12c1.2,0,2.2,1,2.2,2.2C71.3,100.6,70.3,101.6,69.1,101.6
		z"/>
	<path class="st0" d="M71.9,18.9h-0.5c-1.2,0-2.2-1-2.2-2.2c0-1.2,1-2.2,2.2-2.2h0.5c1.2,0,2.2,1,2.2,2.2
		C74.1,18,73.1,18.9,71.9,18.9z"/>
	<g>
		<path class="st0" d="M109.3,27.3l-3.6-3.6c-0.6-0.6-1.5-0.6-2.1,0l-1.2,1.2c-0.6,0.6-1.4,0.5-2,0l-4.6-4.7c-0.5-0.6-0.5-1.4,0-2
			l1.2-1.2c0.6-0.6,0.6-1.5,0-2.1l-3.6-3.6c-0.4-0.4-1-0.4-1.4,0l-0.9,0.9c-2.6,2.6-2.6,6.8,0,9.4l7.9,7.9c2.6,2.6,6.8,2.6,9.4,0
			l0.9-0.9C109.7,28.3,109.7,27.7,109.3,27.3z"/>
		<path class="st0" d="M98.1,41.7c-11.5,0-20.9-9.4-20.9-20.9S86.6,0,98.1,0c11.5,0,20.9,9.4,20.9,20.9S109.6,41.7,98.1,41.7z
			 M98.1,3.1c-9.8,0-17.8,8-17.8,17.8s8,17.8,17.8,17.8c9.8,0,17.8-8,17.8-17.8S107.9,3.1,98.1,3.1z"/>
	</g>
	<g>
		<path class="st0" d="M43.1,49.8h10.1v2.8h-6.8v3.9h6.3v2.8h-6.3v4h7.1v2.8H43.1V49.8z"/>
		<path class="st0" d="M68.6,60.5c0,3.5-2.7,5.8-6.1,5.8c-3.4,0-6.1-2.3-6.1-5.8V49.8h3.3v10.8c0,1.7,1.3,2.8,2.8,2.8
			c1.6,0,2.8-1.1,2.8-2.8V49.8h3.3C68.6,49.8,68.6,60.5,68.6,60.5z"/>
		<path class="st0" d="M77.8,49.8c3.5,0,5.7,2.1,5.7,5.2c0,2.4-1.3,4.2-3.6,4.9l3.9,6.1h-3.6l-3.7-5.8h-1.3v5.8H72V49.8H77.8
			L77.8,49.8z M75.3,52.6v5.1h2.2c1.7,0,2.6-1,2.6-2.6c0-1.6-0.9-2.6-2.6-2.6L75.3,52.6L75.3,52.6z"/>
	</g>
</g>
</svg>
