<?xml version="1.0" encoding="utf-8"?>
<!-- Generator: Adobe Illustrator 21.1.0, SVG Export Plug-In . SVG Version: 6.00 Build 0)  -->
<svg version="1.1" id="Layer_1" xmlns="http://www.w3.org/2000/svg" xmlns:xlink="http://www.w3.org/1999/xlink" x="0px" y="0px"
	 viewBox="0 0 150 115" style="enable-background:new 0 0 150 115;" xml:space="preserve">
<style type="text/css">
	.st0{fill:#00973E;}
</style>
<g>
	<path class="st0" d="M80.9,115H25.2V15.1c0-5.9,4.8-10.7,10.7-10.7h32.4v3.9H35.9c-3.7,0-6.8,3-6.8,6.8v96h51.7
		c3.7,0,6.8-3,6.8-6.8l-0.1-69.2l3.9,0l0.1,69.2C91.5,110.2,86.8,115,80.9,115z"/>
	<rect x="27.2" y="21.6" class="st0" width="41.9" height="3.9"/>
	<rect x="27.2" y="85.2" class="st0" width="62.4" height="3.9"/>
	<path class="st0" d="M60.6,16.6H48.2c-1.2,0-2.2-1-2.2-2.2s1-2.2,2.2-2.2h12.3c1.2,0,2.2,1,2.2,2.2S61.8,16.6,60.6,16.6z"/>
	<path class="st0" d="M64.2,101.3H51.9c-1.2,0-2.2-1-2.2-2.2c0-1.2,1-2.2,2.2-2.2h12.3c1.2,0,2.2,1,2.2,2.2
		C66.4,100.3,65.4,101.3,64.2,101.3z"/>
	<path class="st0" d="M67.1,16.6h-0.5c-1.2,0-2.2-1-2.2-2.2s1-2.2,2.2-2.2h0.5c1.2,0,2.2,1,2.2,2.2S68.3,16.6,67.1,16.6z"/>
	<g>
		<path class="st0" d="M37.5,48.2h10.4v2.9h-7v4h6.4V58h-6.4V62h7.2v2.9H37.5V48.2z"/>
		<path class="st0" d="M63.6,59.2c0,3.6-2.8,6-6.3,6c-3.5,0-6.3-2.4-6.3-6v-11h3.4v11.1c0,1.8,1.3,2.9,2.9,2.9
			c1.6,0,2.9-1.1,2.9-2.9V48.2h3.4C63.6,48.2,63.6,59.2,63.6,59.2z"/>
		<path class="st0" d="M73.1,48.2c3.6,0,5.8,2.1,5.8,5.4c0,2.5-1.4,4.3-3.6,5l4,6.3h-3.7L71.9,59h-1.3v5.9h-3.4V48.2L73.1,48.2
			L73.1,48.2z M70.5,51v5.3h2.3c1.8,0,2.7-1.1,2.7-2.6c0-1.6-1-2.6-2.7-2.6H70.5z"/>
	</g>
	<g>
		<path class="st0" d="M124.7,31.9h-16.1V28h12.1c-0.2-2-0.9-5.1-2.7-7c-1.1-1.2-2.6-1.7-4.4-1.7h-20c-4.5-0.1-12.7-2.6-13.8-11.1
			H78V28h18.7v3.9H74.1V4.3h9.4v2c0,8.8,9.7,9.1,10.1,9.1h19.9c2.9,0,5.3,1,7.2,2.9c4.1,4.2,4,11.4,3.9,11.7L124.7,31.9z"/>
		<path class="st0" d="M96.7,47.3h-2V22.8H110l0.2,1.7c0.1,0.5,1.7,12.2-3.8,18.7C104.1,45.9,100.8,47.3,96.7,47.3z M98.6,26.7v16.6
			c2-0.3,3.6-1.2,4.9-2.7c3.1-3.6,3.4-10.2,3.1-13.9L98.6,26.7L98.6,26.7z"/>
		<path class="st0" d="M110.6,19.3H94.7V0.1L96.6,0c0,0,4.1-0.2,7.9,2.5c2.8,2,6.2,6.2,6.2,14.8L110.6,19.3L110.6,19.3z M98.6,15.4
			h8c-0.6-8.5-5.2-10.7-8-11.3V15.4z"/>
	</g>
</g>
</svg>
