<svg width="20" height="21" viewBox="0 0 20 21" fill="none" xmlns="http://www.w3.org/2000/svg">
<path fill-rule="evenodd" clip-rule="evenodd" d="M11.4785 13.7833C11.325 13.8395 11.1664 13.8958 11.0079 13.9162C10.8189 13.9367 10.6756 13.8346 10.6297 13.6454C10.5936 13.5072 10.5734 13.3539 10.5886 13.2105C10.6193 12.9139 10.6809 12.6123 10.7369 12.3156C10.9005 11.4105 11.0693 10.5106 11.2279 9.61051C11.2738 9.36498 11.3148 9.11958 11.3097 8.87419C11.2994 8.57761 11.1255 8.43945 10.8292 8.43945H8.43575C8.33865 8.43945 8.24154 8.43945 8.14944 8.45985C7.97036 8.4959 7.88351 8.58274 7.86825 8.7209C7.85286 8.8538 7.92444 8.98156 8.08799 9.03774C8.21588 9.08406 8.36417 9.09419 8.50233 9.11458C8.82957 9.16064 8.93167 9.27314 8.93167 9.60551C8.93167 9.65669 8.93167 9.70761 8.9218 9.7588C8.78365 10.5463 8.64036 11.3388 8.50746 12.1264C8.43049 12.5816 8.35917 13.0368 8.29772 13.492C8.20562 14.1616 8.84483 14.7856 9.35115 14.8572C9.65286 14.9033 9.96457 14.9134 10.2715 14.9081C10.9313 14.8983 11.4785 14.622 11.9386 14.1566C12.0154 14.0747 12.0871 13.9625 12.1126 13.855C12.1585 13.6658 12.0051 13.5379 11.8364 13.6043C11.7085 13.6502 11.6011 13.7373 11.4785 13.7833Z" fill="#dc007c"/>
<path fill-rule="evenodd" clip-rule="evenodd" d="M10.3131 7.88207C10.9932 7.88707 11.5607 7.31957 11.566 6.61878C11.5711 5.91325 11.0138 5.34575 10.3184 5.34049C9.61772 5.33549 9.05009 5.89799 9.04495 6.59838C9.03995 7.29904 9.60745 7.8768 10.3131 7.88207Z" fill="#dc007c"/>
<mask id="mask0" mask-type="alpha" maskUnits="userSpaceOnUse" x="0" y="0" width="20" height="21">
<path fill-rule="evenodd" clip-rule="evenodd" d="M0 0.131348H19.9872V20.1185H0V0.131348Z" fill="white"/>
</mask>
<g mask="url(#mask0)">
<path fill-rule="evenodd" clip-rule="evenodd" d="M9.99368 18.1449C5.57145 18.1449 1.97368 14.5471 1.97368 10.1249C1.97368 5.70266 5.57145 2.10503 9.99368 2.10503C14.4159 2.10503 18.0137 5.70266 18.0137 10.1249C18.0137 14.5471 14.4159 18.1449 9.99368 18.1449ZM9.99368 0.131348C4.48316 0.131348 0 4.61437 0 10.1249C0 15.6354 4.48316 20.1186 9.99368 20.1186C15.5042 20.1186 19.9874 15.6354 19.9874 10.1249C19.9874 4.61437 15.5042 0.131348 9.99368 0.131348Z" fill="#dc007c"/>
</g>
</svg>
