<?xml version="1.0" encoding="utf-8"?>
<!-- Generator: Adobe Illustrator 21.0.2, SVG Export Plug-In . SVG Version: 6.00 Build 0)  -->
<svg version="1.1" id="Layer_1" xmlns="http://www.w3.org/2000/svg" xmlns:xlink="http://www.w3.org/1999/xlink" x="0px" y="0px"
	 viewBox="0 0 18 18" style="enable-background:new 0 0 18 18;" xml:space="preserve">
<style type="text/css">
	.st0{fill:#FFFFFF;}
</style>
<path id="Stores" class="st0" d="M9.1,0C5.4,0,2.4,3.3,2.4,7.4c0,1.8,1.6,4.8,1.6,4.8s3.2,5.9,5.1,5.8c1.9,0.1,5.1-5.8,5.1-5.8
	c0.7-1.5,1.2-3.1,1.4-4.8C15.6,3.3,12.8,0,9.1,0z M9,10.8c-1.9,0.2-3.5-1.2-3.7-3C5.1,5.9,6.5,4.2,8.3,4c1.9-0.2,3.5,1.2,3.7,3
	c0,0.1,0,0.2,0,0.3C12.1,9.2,10.7,10.7,9,10.8L9,10.8z"/>
</svg>
