<?xml version="1.0" encoding="utf-8"?>
<!-- Generator: Adobe Illustrator 21.1.0, SVG Export Plug-In . SVG Version: 6.00 Build 0)  -->
<svg version="1.1" id="Layer_1" xmlns="http://www.w3.org/2000/svg" xmlns:xlink="http://www.w3.org/1999/xlink" x="0px" y="0px"
	 viewBox="0 0 257 187" style="enable-background:new 0 0 257 187;" xml:space="preserve">
<style type="text/css">
	.st0{fill:#169F4E;}
</style>
<g>
	<path class="st0" d="M177.1,3.1c-2.9-2.5-6.8-3.6-10.6-2.9L89.3,13c-6.3,1-11,6.5-10.9,12.9v149.9c-2.9,1.6-3.8,5.3-2.2,8.1
		c1.6,2.9,5.3,3.8,8.1,2.2c2.9-1.6,3.8-5.3,2.2-8.2c-0.5-0.9-1.3-1.7-2.2-2.2v-58.7l83.6,3.6c7.2,0.3,13.3-5.3,13.6-12.5
		c0-0.2,0-0.4,0-0.6V13.1C181.6,9.3,180,5.6,177.1,3.1 M175.7,107.7c0,1.9-0.8,3.8-2.2,5.1c-1.4,1.3-3.3,2.1-5.2,2l-83.9-3.6V26
		c0-3.5,2.5-6.4,6-7l77.1-12.9c3.9-0.6,7.5,1.9,8.2,5.8c0.1,0.4,0.1,0.8,0.1,1.2L175.7,107.7z"/>
	<path class="st0" d="M116.7,51.1c0.2-0.7,0.4-1.4,0.4-2.2c0-0.5-0.1-1-0.2-1.5c-0.1-0.5-0.3-0.8-0.6-1.2c-0.3-0.3-0.6-0.6-0.9-0.8
		c-0.3-0.2-0.7-0.4-1.1-0.5c0.3-0.2,0.6-0.4,0.8-0.6c0.2-0.3,0.5-0.6,0.6-0.9c0.2-0.3,0.3-0.7,0.4-1.1c0.1-0.4,0.1-0.8,0.1-1.2
		c0-0.7-0.1-1.4-0.3-2c-0.2-0.6-0.6-1.1-1-1.4c-0.4-0.4-0.9-0.7-1.5-0.8c-0.6-0.2-1.3-0.2-2-0.1l-6.2,0.7v17.7l6.9-0.6
		c0.7-0.1,1.4-0.3,2-0.6c0.6-0.3,1.1-0.7,1.6-1.2C116.1,52.3,116.4,51.7,116.7,51.1 M108.8,40.4l2.2-0.2c0.2,0,0.5,0,0.7,0
		c0.2,0.1,0.4,0.2,0.5,0.3c0.1,0.1,0.3,0.3,0.3,0.6c0.1,0.2,0.1,0.5,0.1,0.8c0,0.3,0,0.6-0.1,0.8c-0.1,0.2-0.2,0.4-0.3,0.6
		c-0.1,0.2-0.3,0.3-0.5,0.4c-0.2,0.1-0.4,0.2-0.7,0.2l-2.2,0.2V40.4z M113.1,49.9c-0.1,0.3-0.2,0.5-0.4,0.7
		c-0.2,0.2-0.3,0.3-0.5,0.5c-0.2,0.1-0.4,0.2-0.7,0.2l-2.7,0.2v-4.1l2.7-0.3c0.3,0,0.5,0,0.7,0.1c0.2,0.1,0.4,0.2,0.5,0.4
		c0.2,0.2,0.3,0.4,0.4,0.6c0.1,0.2,0.1,0.5,0.1,0.8C113.2,49.3,113.2,49.6,113.1,49.9"/>
	<polygon class="st0" points="119.4,54 123.3,53.7 123.3,40.1 119.4,40.5 	"/>
	<path class="st0" d="M119.8,38.6c0.2,0.2,0.4,0.3,0.7,0.4c0.3,0.1,0.6,0.1,0.9,0.1c0.3,0,0.6-0.1,0.9-0.3c0.3-0.1,0.5-0.3,0.7-0.6
		c0.2-0.2,0.4-0.5,0.5-0.8c0.1-0.3,0.2-0.6,0.2-0.9s-0.1-0.6-0.2-0.9c-0.1-0.3-0.3-0.5-0.5-0.7c-0.2-0.2-0.4-0.3-0.7-0.4
		s-0.6-0.1-0.9-0.1c-0.3,0-0.6,0.1-0.9,0.3c-0.3,0.1-0.5,0.3-0.7,0.6c-0.2,0.2-0.4,0.5-0.5,0.8c-0.1,0.3-0.2,0.6-0.2,0.9
		s0.1,0.6,0.2,0.9C119.4,38.2,119.6,38.4,119.8,38.6"/>
	<path class="st0" d="M131.9,53.3c0.2,0,0.4,0,0.6-0.1c0.2,0,0.4-0.1,0.6-0.1c0.2,0,0.4-0.1,0.5-0.1c0.2,0,0.3-0.1,0.5-0.1v-3.5
		c-0.1,0-0.2,0-0.3,0.1c-0.1,0-0.2,0-0.3,0.1c-0.1,0-0.2,0-0.4,0c-0.1,0-0.2,0-0.3,0c-0.3,0-0.5,0-0.8,0s-0.4-0.1-0.5-0.3
		c-0.1-0.1-0.2-0.3-0.3-0.5c-0.1-0.2-0.1-0.4-0.1-0.7V43l2.8-0.3V39l-2.8,0.3v-4l-4,0.8v3.6l-1.8,0.2v3.7l1.8-0.2v5.5
		c0,0.8,0.1,1.4,0.3,2c0.2,0.6,0.5,1.1,0.9,1.4c0.4,0.4,0.9,0.7,1.5,0.8C130.4,53.3,131.1,53.4,131.9,53.3"/>
	<path class="st0" d="M146.6,47.2c-0.3,0.3-0.5,0.5-0.8,0.8c-0.3,0.2-0.6,0.4-0.9,0.6c-0.3,0.2-0.6,0.3-0.9,0.4
		c-0.3,0.1-0.7,0.2-1,0.2c-0.5,0-0.9,0-1.3-0.1c-0.4-0.1-0.7-0.3-1-0.5c-0.3-0.2-0.5-0.5-0.7-0.8c-0.2-0.3-0.3-0.7-0.4-1.2l10.1-0.9
		c0-0.1,0.1-0.2,0.1-0.3c0-0.1,0-0.2,0.1-0.4c0-0.1,0-0.3,0-0.4c0-0.1,0-0.3,0-0.4c0-1-0.2-1.9-0.5-2.8c-0.4-0.8-0.9-1.6-1.5-2.1
		c-0.6-0.6-1.4-1-2.3-1.3s-1.8-0.4-2.9-0.3c-1,0.1-2,0.4-2.9,0.9c-0.9,0.5-1.7,1.1-2.3,1.8c-0.6,0.7-1.2,1.6-1.5,2.5
		c-0.4,0.9-0.5,1.9-0.5,2.9c0,1,0.2,2,0.5,2.8c0.3,0.8,0.9,1.6,1.5,2.2c0.7,0.6,1.4,1.1,2.4,1.4c0.9,0.3,1.9,0.4,3,0.3
		c0.6,0,1.2-0.1,1.7-0.3c0.6-0.2,1.1-0.4,1.6-0.6c0.5-0.3,1-0.6,1.4-0.9c0.4-0.4,0.9-0.8,1.2-1.2L146.6,47.2z M140,42.8
		c0.2-0.3,0.4-0.6,0.7-0.9c0.3-0.2,0.6-0.4,0.9-0.6c0.3-0.1,0.7-0.2,1.1-0.3c0.4,0,0.7,0,1.1,0.1c0.3,0.1,0.6,0.2,0.8,0.4
		c0.2,0.2,0.5,0.4,0.6,0.7c0.2,0.3,0.3,0.6,0.4,1l-6,0.6C139.7,43.5,139.8,43.1,140,42.8"/>
	<polygon class="st0" points="112.9,63.1 112.9,83.7 108.3,83.9 108.3,71 105.1,78.3 101.7,78.4 98.6,71.6 98.6,84.3 94.2,84.4 
		94.2,64.5 99.6,64.1 103.4,72.4 107.2,63.5 	"/>
	<polygon class="st0" points="129.1,62 129.1,66.8 121.8,67.3 121.8,70.6 128.5,70.2 128.5,74.9 121.8,75.2 121.8,78.7 129.4,78.3 
		129.4,83.1 116.6,83.6 116.6,62.9 	"/>
	<polygon class="st0" points="145.4,60.8 145.4,65.9 138,66.4 138,82.8 132.6,83 132.6,61.8 	"/>
	<path class="st0" d="M159.4,59.9l7.3,21.8l-6.1,0.2l-1.2-4.2l-6.3,0.3l-1.2,4.2l-5.8,0.2l7-22.2L159.4,59.9z M154.3,73.4l3.9-0.2
		l-2-7L154.3,73.4"/>
</g>
</svg>
