<?xml version="1.0" encoding="utf-8"?>
<!-- Generator: Adobe Illustrator 21.1.0, SVG Export Plug-In . SVG Version: 6.00 Build 0)  -->
<svg version="1.1" id="Layer_1" xmlns="http://www.w3.org/2000/svg" xmlns:xlink="http://www.w3.org/1999/xlink" x="0px" y="0px"
	 viewBox="0 0 150 115" style="enable-background:new 0 0 150 115;" xml:space="preserve">
<style type="text/css">
	.st0{fill:#00973E;}
</style>
<g>
	<path class="st0" d="M21.6,113.7c-0.7,0-1.4-0.4-1.7-1.1c-0.3-0.8-0.1-1.6,0.5-2.2l11.2-8.8c0.1-0.1,0.2-0.2,0.2-0.4V36.8
		c0-3,2.4-5.4,5.4-5.4l19.1-2.1c1-0.1,1.9,0.6,2,1.6c0.1,1-0.6,1.9-1.6,2l-19.1,2.2c-0.1,0-0.3,0-0.4,0c-1,0-1.7,0.8-1.7,1.7v64.4
		c0,1.2-0.6,2.4-1.6,3.3l-5.7,4.5l40.3-6.5c0.1,0,0.2,0,0.3,0h0.4c1,0,1.7-0.8,1.7-1.7V47.9c0-1,0.8-1.8,1.8-1.8s1.8,0.8,1.8,1.8
		v52.8c0,3-2.4,5.4-5.4,5.4H69l-47.1,7.6C21.8,113.7,21.7,113.7,21.6,113.7z"/>
	<g>
		<path class="st0" d="M84.8,31.1c-2.1,0-3.8,1.7-3.8,3.9c0,2.2,1.8,3.9,3.8,3.9c2.1,0,3.8-1.7,3.8-3.9C88.6,32.8,87,31.1,84.8,31.1
			z"/>
		<path class="st0" d="M52.1,12.9v34.4h67.3V12.9H52.1z M64.6,42.9c-3.3,0-6-1.4-7.6-3.9l3-2.7c1.1,1.6,2.6,2.6,4.4,2.6
			c2.2,0,3.9-1.8,3.9-3.8c0-2.2-1.7-3.8-3.9-3.8c-0.4,0-0.7,0.1-1.1,0.2l-1.8-2.3l4.9-5.8h-8.1v-4h13.5v4l-4.6,5.1
			c3.5,0.7,5.7,3.6,5.7,7.2C73.1,39.2,69.7,42.9,64.6,42.9z M84.8,42.9c-4.6,0-8.5-3.3-8.5-7.8c0-1.4,0.4-2.9,1.1-4.1L85,19.3H90
			l-5.3,8.3c0.1,0,0.2,0,0.4,0c4.1,0,8.2,2.6,8.2,7.6C93.2,39.6,89.3,42.9,84.8,42.9z M103.7,42.9c-3.3,0-6-1.3-7.7-3.8l3.1-2.7
			c1.1,1.6,2.5,2.6,4.3,2.6c2.3,0,4-1.7,4-3.8c0-2.1-1.7-3.8-4-3.8c-1.2,0-2.3,0.6-2.9,1.3l-3.4-0.5l1.5-12.8h12.5v4h-8.3l-0.6,4.8
			c0.6-0.3,1.4-0.5,2.3-0.5c4,0,7.5,3,7.5,7.5C112,39.6,108.7,42.9,103.7,42.9z"/>
	</g>
	<path class="st0" d="M117.5,115h-100V15c0-8.3,6.7-15,15-15h85c8.3,0,15,6.7,15,15v85C132.5,108.3,125.8,115,117.5,115z M21.5,111
		h96c6.1,0,11-4.9,11-11V15c0-6.1-4.9-11-11-11h-85c-6.1,0-11,4.9-11,11L21.5,111L21.5,111z"/>
</g>
</svg>
