<?xml version="1.0" encoding="UTF-8" standalone="no"?><!DOCTYPE svg PUBLIC "-//W3C//DTD SVG 1.1//EN" "http://www.w3.org/Graphics/SVG/1.1/DTD/svg11.dtd"><svg width="100%" height="100%" viewBox="0 0 260 200" version="1.1" xmlns="http://www.w3.org/2000/svg" xmlns:xlink="http://www.w3.org/1999/xlink" xml:space="preserve" xmlns:serif="http://www.serif.com/" style="fill-rule:evenodd;clip-rule:evenodd;stroke-linejoin:round;stroke-miterlimit:1.41421;"><g><g><g><path d="M137.1,199.2l-117.7,0c-10.3,0 -18.6,-8.3 -18.6,-18.6l0,-161.2c0,-10.3 8.3,-18.6 18.6,-18.6l117.8,0c10.3,0 18.6,8.3 18.6,18.6l0,161.1c-0.1,10.3 -8.4,18.7 -18.7,18.7Zm-117.7,-186c-3.4,0 -6.2,2.8 -6.2,6.2l0,161.1c0,3.4 2.8,6.2 6.2,6.2l117.8,0c3.4,0 6.2,-2.8 6.2,-6.2l0,-161.1c0,-3.4 -2.8,-6.2 -6.2,-6.2l-117.8,0Z" style="fill:#858585;fill-rule:nonzero;"/><path d="M78.2,183.2c-3.3,0 -6.4,-1.3 -8.7,-3.6c-2.8,-2.8 -4.1,-6.7 -3.5,-10.7c0.8,-5.3 5,-9.5 10.3,-10.3c4,-0.6 7.9,0.7 10.7,3.5c2.8,2.8 4.1,6.7 3.5,10.7c-0.8,5.3 -5,9.5 -10.3,10.3c-0.7,0 -1.3,0.1 -2,0.1Zm0,-18.6c-0.3,0 -0.7,0 -1,0.1c-2.6,0.4 -4.7,2.5 -5.1,5.1c-0.3,2 0.3,4 1.7,5.4c1.4,1.4 3.4,2 5.4,1.7c2.6,-0.4 4.7,-2.6 5.1,-5.1c0.3,-2 -0.3,-4 -1.7,-5.4c-1.2,-1.2 -2.7,-1.8 -4.4,-1.8Z" style="fill:#858585;fill-rule:nonzero;"/><rect x="7" y="23.7" width="142.5" height="12.4" style="fill:#858585;"/><rect x="7" y="139.2" width="142.5" height="12.4" style="fill:#858585;"/></g><g><path d="M234,81.1c-0.8,-0.8 -1.8,-1.2 -2.9,-1.2l-51.8,0c-7.7,0 -13.9,6.2 -13.9,13.9l0,91.6c0,7.7 6.2,13.9 13.9,13.9l66,0c7.7,0 13.9,-6.2 13.9,-13.9l0,-77.4c0,-1.1 -0.5,-2.1 -1.2,-2.9l-24,-24Zm16.9,104.2c0,3.1 -2.5,5.6 -5.6,5.6l-66,0c-3.1,0 -5.6,-2.5 -5.6,-5.6l0,-91.6c0,-3.1 2.5,-5.6 5.6,-5.6l50,0l21.6,21.5l0,75.7Z" style="fill:#858585;fill-rule:nonzero;"/><path d="M179.7,143.5l0,34.4c0,2.3 1.9,4.2 4.2,4.2l55.5,0c2.3,0 4.2,-1.9 4.2,-4.2l0,-34.4c0,-2.3 -1.9,-4.2 -4.2,-4.2l-55.5,0c-2.3,0.1 -4.2,1.9 -4.2,4.2Zm8.3,4.2l47.2,0l0,26.1l-47.2,0l0,-26.1Z" style="fill:#858585;fill-rule:nonzero;"/><path d="M183.9,111.7c2.3,0 4.2,-1.9 4.2,-4.2l0,-7.5c0,-2.3 -1.9,-4.2 -4.2,-4.2c-2.3,0 -4.2,1.9 -4.2,4.2l0,7.6c0,2.3 1.9,4.1 4.2,4.1Z" style="fill:#858585;fill-rule:nonzero;"/><path d="M197.8,111.7c2.3,0 4.2,-1.9 4.2,-4.2l0,-7.5c0,-2.3 -1.9,-4.2 -4.2,-4.2c-2.3,0 -4.2,1.9 -4.2,4.2l0,7.6c0,2.3 1.9,4.1 4.2,4.1Z" style="fill:#858585;fill-rule:nonzero;"/><path d="M211.6,111.7c2.3,0 4.2,-1.9 4.2,-4.2l0,-7.5c0,-2.3 -1.9,-4.2 -4.2,-4.2c-2.3,0 -4.2,1.9 -4.2,4.2l0,7.6c0.1,2.3 1.9,4.1 4.2,4.1Z" style="fill:#858585;fill-rule:nonzero;"/></g></g></g></svg>