<?xml version="1.0" encoding="utf-8"?>
<!-- Generator: Adobe Illustrator 15.1.0, SVG Export Plug-In . SVG Version: 6.00 Build 0)  -->
<!DOCTYPE svg PUBLIC "-//W3C//DTD SVG 1.1//EN" "http://www.w3.org/Graphics/SVG/1.1/DTD/svg11.dtd">
<svg version="1.1" id="Layer_2" xmlns="http://www.w3.org/2000/svg" xmlns:xlink="http://www.w3.org/1999/xlink" x="0px" y="0px"
	 width="292px" height="254px" viewBox="0 0 292 254" enable-background="new 0 0 292 254" xml:space="preserve">
<path fill="none" stroke="#299354" stroke-width="5" stroke-miterlimit="10" d="M288.385,116.667V31.197
	c0-15.048-12.24-27.246-27.338-27.246H31.955c-15.099,0-27.339,12.198-27.339,27.246v112.716"/>
<path fill="none" stroke="#299354" stroke-width="5" stroke-miterlimit="10" d="M4.616,111.197v112.716h34.876v25.402l42.229-25.402
	h179.326c15.098,0,27.338-12.2,27.338-27.246v-85.471"/>
<g>
	<g>
		<g>
			<path fill="#299354" d="M170.425,127.157h-41.813l20.902-37.866L170.425,127.157z M133.257,124.413h32.519l-16.261-29.448
				L133.257,124.413z"/>
			<path fill="#299354" d="M171.729,127.927h-44.421L149.515,87.7L171.729,127.927z M129.915,126.388h39.204l-19.604-35.504
				L129.915,126.388z M167.076,125.183h-35.125l17.562-31.809L167.076,125.183z M134.561,123.644h29.911l-14.957-27.086
				L134.561,123.644z"/>
		</g>
		<g>
			<path fill="#299354" d="M149.515,115.937c-0.756,0-1.371-0.613-1.371-1.371v-9.187c0-0.758,0.615-1.37,1.371-1.37
				c0.759,0,1.373,0.612,1.373,1.37v9.187C150.888,115.321,150.273,115.937,149.515,115.937z"/>
			<path fill="#299354" d="M149.515,116.706c-1.18,0-2.143-0.961-2.143-2.142v-9.187c0-1.18,0.963-2.141,2.143-2.141
				c1.183,0,2.144,0.96,2.144,2.141v9.187C151.656,115.745,150.695,116.706,149.515,116.706z M149.515,104.777
				c-0.332,0-0.604,0.27-0.604,0.602v9.186c0,0.332,0.271,0.604,0.604,0.604c0.334,0,0.604-0.271,0.604-0.604v-9.186
				C150.117,105.047,149.849,104.777,149.515,104.777z"/>
		</g>
		<g>
			<path fill="#299354" d="M149.515,121.054c-0.756,0-1.371-0.541-1.371-1.299v-0.142c0-0.758,0.615-1.37,1.371-1.37
				c0.759,0,1.373,0.612,1.373,1.37C150.888,120.372,150.273,121.054,149.515,121.054z"/>
			<path fill="#299354" d="M149.515,121.823c-1.201,0-2.143-0.91-2.143-2.068v-0.142c0-1.18,0.963-2.141,2.143-2.141
				c1.183,0,2.144,0.959,2.144,2.141C151.656,120.812,150.677,121.823,149.515,121.823z M149.515,119.013
				c-0.332,0-0.604,0.271-0.604,0.604v0.141c0,0.349,0.305,0.529,0.604,0.529c0.316,0,0.604-0.32,0.604-0.67
				C150.117,119.282,149.849,119.013,149.515,119.013z"/>
		</g>
	</g>
	<path fill="#299354" d="M172.984,172.378h-60.562V63.644c0-6.396,5.205-11.601,11.604-11.601h48.959
		c6.397,0,11.604,5.204,11.604,11.601v30.506l-0.158,28.68l0.158,37.938C184.589,167.173,179.384,172.378,172.984,172.378z
		 M116.675,168.126h56.312c4.053,0,7.352-3.297,7.352-7.352l-0.158-37.951l0.158-28.688V63.644c0-4.053-3.297-7.35-7.352-7.35
		h-48.959c-4.054,0-7.352,3.296-7.352,7.35V168.126z"/>
	<rect x="114.549" y="70.73" fill="#299354" width="68.579" height="4.253"/>
	<rect x="114.549" y="139.962" fill="#299354" width="67.913" height="4.252"/>
	<path fill="#299354" d="M150.874,65.306H137.45c-1.353,0-2.448-1.097-2.448-2.449s1.096-2.447,2.448-2.447h13.424
		c1.353,0,2.446,1.096,2.446,2.447C153.32,64.208,152.227,65.306,150.874,65.306z"/>
	<path fill="#299354" d="M154.822,157.435H141.4c-1.352,0-2.449-1.098-2.449-2.448c0-1.353,1.098-2.448,2.449-2.448h13.422
		c1.353,0,2.447,1.096,2.447,2.448C157.271,156.337,156.177,157.435,154.822,157.435z"/>
	<path fill="#299354" d="M157.982,65.306h-0.59c-1.354,0-2.449-1.097-2.449-2.449s1.096-2.447,2.449-2.447h0.59
		c1.352,0,2.446,1.096,2.446,2.447C160.429,64.208,159.333,65.306,157.982,65.306z"/>
</g>
</svg>
