<?xml version="1.0" encoding="utf-8"?>
<!-- Generator: Adobe Illustrator 21.1.0, SVG Export Plug-In . SVG Version: 6.00 Build 0)  -->
<svg version="1.1" id="Layer_1" xmlns="http://www.w3.org/2000/svg" xmlns:xlink="http://www.w3.org/1999/xlink" x="0px" y="0px"
	 viewBox="0 0 257 187" style="enable-background:new 0 0 257 187;" xml:space="preserve">
<style type="text/css">
	.st0{fill:#169F4E;}
</style>
<g>
	<path class="st0" d="M177.1,3.1c-2.9-2.5-6.8-3.6-10.6-2.9L89.3,13c-6.3,1-11,6.5-10.9,12.9v149.9c-2.9,1.6-3.8,5.3-2.2,8.1
		c1.6,2.9,5.3,3.8,8.1,2.2c2.9-1.6,3.8-5.3,2.2-8.2c-0.5-0.9-1.3-1.7-2.2-2.2v-58.7l83.6,3.6c7.2,0.3,13.3-5.3,13.6-12.5
		c0-0.2,0-0.4,0-0.6V13.1C181.6,9.3,180,5.6,177.1,3.1 M175.7,107.7c0,1.9-0.8,3.8-2.2,5.1c-1.4,1.3-3.3,2.1-5.2,2l-83.9-3.6V26
		c0-3.5,2.5-6.4,6-7l77.1-12.9c3.9-0.6,7.5,1.9,8.2,5.8c0.1,0.4,0.1,0.8,0.1,1.2L175.7,107.7z"/>
	<g>
		<polygon class="st0" points="103.2,72.7 98.7,63.8 94.1,64.1 94.1,84.2 98,84.1 98,70.7 101.7,78 104.7,77.9 108.5,70.1 
			108.5,83.8 112.6,83.7 112.6,62.9 107.8,63.2 		"/>
		<path class="st0" d="M116.7,51.1c0.2-0.7,0.4-1.4,0.4-2.2c0-0.5-0.1-1-0.2-1.5c-0.1-0.5-0.3-0.8-0.6-1.2c-0.3-0.3-0.6-0.6-0.9-0.8
			c-0.3-0.2-0.7-0.4-1.1-0.5c0.3-0.2,0.6-0.4,0.8-0.6c0.2-0.3,0.5-0.6,0.6-0.9c0.2-0.3,0.3-0.7,0.4-1.1c0.1-0.4,0.1-0.8,0.1-1.2
			c0-0.7-0.1-1.4-0.3-2c-0.2-0.6-0.6-1.1-1-1.4c-0.4-0.4-0.9-0.7-1.5-0.8c-0.6-0.2-1.3-0.2-2-0.1l-6.2,0.7v17.7l6.9-0.6
			c0.7-0.1,1.4-0.3,2-0.6c0.6-0.3,1.1-0.7,1.6-1.2C116.1,52.3,116.4,51.7,116.7,51.1 M108.8,40.4l2.2-0.2c0.2,0,0.5,0,0.7,0
			c0.2,0.1,0.4,0.2,0.5,0.3c0.1,0.1,0.3,0.3,0.3,0.6c0.1,0.2,0.1,0.5,0.1,0.8c0,0.3,0,0.6-0.1,0.8c-0.1,0.2-0.2,0.4-0.3,0.6
			c-0.1,0.2-0.3,0.3-0.5,0.4c-0.2,0.1-0.4,0.2-0.7,0.2l-2.2,0.2V40.4z M113.1,49.9c-0.1,0.3-0.2,0.5-0.4,0.7
			c-0.2,0.2-0.3,0.3-0.5,0.5c-0.2,0.1-0.4,0.2-0.7,0.2l-2.7,0.2v-4.1l2.7-0.3c0.3,0,0.5,0,0.7,0.1c0.2,0.1,0.4,0.2,0.5,0.4
			c0.2,0.2,0.3,0.4,0.4,0.6c0.1,0.2,0.1,0.5,0.1,0.8C113.2,49.3,113.2,49.6,113.1,49.9"/>
		<polygon class="st0" points="119.4,54 123.3,53.7 123.3,40.1 119.4,40.5 		"/>
		<path class="st0" d="M119.8,38.6c0.2,0.2,0.4,0.3,0.7,0.4c0.3,0.1,0.6,0.1,0.9,0.1c0.3,0,0.6-0.1,0.9-0.3s0.5-0.3,0.7-0.6
			c0.2-0.2,0.4-0.5,0.5-0.8c0.1-0.3,0.2-0.6,0.2-0.9s-0.1-0.6-0.2-0.9c-0.1-0.3-0.3-0.5-0.5-0.7c-0.2-0.2-0.4-0.3-0.7-0.4
			s-0.6-0.1-0.9-0.1c-0.3,0-0.6,0.1-0.9,0.3c-0.3,0.1-0.5,0.3-0.7,0.6c-0.2,0.2-0.4,0.5-0.5,0.8c-0.1,0.3-0.2,0.6-0.2,0.9
			s0.1,0.6,0.2,0.9C119.4,38.2,119.6,38.4,119.8,38.6"/>
		<polygon class="st0" points="119.8,75 126.9,74.7 126.9,70.5 119.8,70.8 119.8,66.6 127.6,66.2 127.6,61.9 115.2,62.7 115.2,83.7 
			127.8,83.4 127.8,79.1 119.8,79.3 		"/>
		<path class="st0" d="M131.9,53.3c0.2,0,0.4,0,0.6-0.1c0.2,0,0.4-0.1,0.6-0.1c0.2,0,0.4-0.1,0.5-0.1c0.2,0,0.3-0.1,0.5-0.1v-3.5
			c-0.1,0-0.2,0-0.3,0.1c-0.1,0-0.2,0-0.3,0.1c-0.1,0-0.2,0-0.4,0c-0.1,0-0.2,0-0.3,0c-0.3,0-0.5,0-0.8,0s-0.4-0.1-0.5-0.3
			c-0.1-0.1-0.2-0.3-0.3-0.5c-0.1-0.2-0.1-0.4-0.1-0.7V43l2.8-0.3V39l-2.8,0.3v-4l-4,0.8v3.6l-1.8,0.2v3.7l1.8-0.2v5.5
			c0,0.8,0.1,1.4,0.3,2c0.2,0.6,0.5,1.1,0.9,1.4c0.4,0.4,0.9,0.7,1.5,0.8C130.4,53.3,131.1,53.4,131.9,53.3"/>
		<path class="st0" d="M138.5,74.7l4.1-0.2v3.7c-0.2,0.1-0.4,0.2-0.6,0.3c-0.2,0.1-0.5,0.2-0.7,0.2c-0.2,0.1-0.5,0.1-0.7,0.2
			c-0.2,0-0.5,0.1-0.7,0.1c-0.9,0-1.7-0.1-2.5-0.5c-0.7-0.3-1.4-0.8-2-1.4c-0.6-0.6-1-1.3-1.3-2.1c-0.3-0.8-0.5-1.7-0.5-2.7
			c0-1,0.2-1.9,0.5-2.7c0.3-0.8,0.7-1.6,1.3-2.2c0.6-0.6,1.2-1.2,2-1.5c0.7-0.4,1.6-0.6,2.5-0.7c0.5,0,0.9,0,1.4,0.1
			c0.4,0.1,0.9,0.2,1.3,0.3c0.4,0.2,0.8,0.3,1.1,0.5c0.4,0.2,0.7,0.5,1,0.7l2.6-4c-0.5-0.4-1-0.7-1.6-1c-0.6-0.3-1.2-0.5-1.8-0.7
			c-0.6-0.2-1.3-0.3-1.9-0.4c-0.7-0.1-1.4-0.1-2.1,0c-1.6,0.1-3.1,0.5-4.4,1.2c-1.3,0.6-2.5,1.5-3.5,2.6c-1,1.1-1.8,2.3-2.3,3.7
			c-0.5,1.4-0.8,2.9-0.8,4.4c0,1.6,0.3,3,0.8,4.4c0.5,1.3,1.3,2.5,2.3,3.5c1,1,2.2,1.8,3.5,2.3c1.3,0.5,2.8,0.8,4.4,0.8
			c0.7,0,1.5-0.1,2.2-0.2c0.7-0.2,1.4-0.4,2.1-0.6c0.7-0.3,1.3-0.6,1.9-1c0.6-0.4,1.1-0.8,1.7-1.3v-10l-9.1,0.4L138.5,74.7
			L138.5,74.7z"/>
		<path class="st0" d="M146.6,47.2c-0.3,0.3-0.5,0.5-0.8,0.8c-0.3,0.2-0.6,0.4-0.9,0.6c-0.3,0.2-0.6,0.3-0.9,0.4
			c-0.3,0.1-0.7,0.2-1,0.2c-0.5,0-0.9,0-1.3-0.1c-0.4-0.1-0.7-0.3-1-0.5c-0.3-0.2-0.5-0.5-0.7-0.8c-0.2-0.3-0.3-0.7-0.4-1.2
			l10.1-0.9c0-0.1,0.1-0.2,0.1-0.3s0-0.2,0.1-0.4c0-0.1,0-0.3,0-0.4c0-0.1,0-0.3,0-0.4c0-1-0.2-1.9-0.5-2.8
			c-0.4-0.8-0.9-1.6-1.5-2.1c-0.6-0.6-1.4-1-2.3-1.3s-1.8-0.4-2.9-0.3c-1,0.1-2,0.4-2.9,0.9c-0.9,0.5-1.7,1.1-2.3,1.8
			c-0.6,0.7-1.2,1.6-1.5,2.5c-0.4,0.9-0.5,1.9-0.5,2.9c0,1,0.2,2,0.5,2.8c0.3,0.8,0.9,1.6,1.5,2.2c0.7,0.6,1.4,1.1,2.4,1.4
			c0.9,0.3,1.9,0.4,3,0.3c0.6,0,1.2-0.1,1.7-0.3c0.6-0.2,1.1-0.4,1.6-0.6c0.5-0.3,1-0.6,1.4-0.9c0.4-0.4,0.9-0.8,1.2-1.2L146.6,47.2
			z M140,42.8c0.2-0.3,0.4-0.6,0.7-0.9c0.3-0.2,0.6-0.4,0.9-0.6c0.3-0.1,0.7-0.2,1.1-0.3c0.4,0,0.7,0,1.1,0.1
			c0.3,0.1,0.6,0.2,0.9,0.4c0.2,0.2,0.5,0.4,0.6,0.7c0.2,0.3,0.3,0.6,0.4,1l-6,0.6C139.7,43.5,139.8,43.1,140,42.8"/>
		<path class="st0" d="M156,60.1l-7.6,22.8l5.4-0.1l1.4-4.7l7.4-0.2l1.5,4.7l5.7-0.1l-7.9-22.7L156,60.1z M156.4,73.8l2.5-8.2l2.5,8
			L156.4,73.8z"/>
	</g>
</g>
</svg>
