<svg id="图层_1" data-name="图层 1" xmlns="http://www.w3.org/2000/svg" viewBox="0 0 15 15.05"><defs><style>.cls-1{fill:#dc007c;}</style></defs><title>2</title><path class="cls-1" d="M10.9,11.2l0,0a.48.48,0,0,1,0,.68l-3,3,0,0a.48.48,0,0,1-.68,0l-3-3a.49.49,0,0,1,.7-.7l2.6,2.6,2.6-2.7a.6.6,0,0,1,.4-.1A.4.4,0,0,1,10.9,11.2Z" transform="translate(0 0)"/><path class="cls-1" d="M7.56,5.5A.47.47,0,0,1,8,6v8a.5.5,0,0,1-1,0V6a.47.47,0,0,1,.5-.5Z" transform="translate(0 0)"/><path class="cls-1" d="M12.54,0A2.48,2.48,0,0,1,15,2.5v2a.5.5,0,0,1-1,0v-2A1.54,1.54,0,0,0,12.5,1H2.5A1.54,1.54,0,0,0,1,2.5v2A.47.47,0,0,1,.5,5H.44A.47.47,0,0,1,0,4.5v-2s0,0,0,0A2.48,2.48,0,0,1,2.5,0h10Z" transform="translate(0 0)"/></svg>