<?xml version="1.0" encoding="utf-8"?>
<!-- Generator: Adobe Illustrator 16.0.0, SVG Export Plug-In . SVG Version: 6.00 Build 0)  -->
<!DOCTYPE svg PUBLIC "-//W3C//DTD SVG 1.1//EN" "http://www.w3.org/Graphics/SVG/1.1/DTD/svg11.dtd">
<svg version="1.1" id="Isolation_Mode" xmlns="http://www.w3.org/2000/svg" xmlns:xlink="http://www.w3.org/1999/xlink" x="0px"
	 y="0px" width="592.734px" height="468.35px" viewBox="0 0 592.734 468.35" enable-background="new 0 0 592.734 468.35"
	 xml:space="preserve">
<g>
	<path fill="#009e4c" d="M546.456,5.502H47.336c-23.312,0-42.277,18.83-42.277,41.974v314.723c0,23.312-0.408,42.277-0.408,42.277
		h236.45v30.999H135.434c-8.25,0-14.938,6.688-14.938,14.938c0,8.25,6.688,14.938,14.938,14.938h322.925
		c8.249,0,14.937-6.688,14.937-14.938c0-8.249-6.688-14.938-14.937-14.938H352.692v-30.999h193.764
		c23.313,0,42.278-18.965,42.278-42.277V47.476C588.734,24.332,569.769,5.502,546.456,5.502z M546.456,374.602H47.336
		c-6.723,0-12.403-0.31-12.403-0.31V47.476c0-6.671,5.564-12.099,12.403-12.099h499.12c6.839,0,12.403,5.427,12.403,12.099v314.723
		C558.859,368.922,553.18,374.602,546.456,374.602z M322.817,435.475h-51.841v-30.999h51.841V435.475z"/>
</g>
</svg>
