<?xml version="1.0" encoding="utf-8"?>
<!-- Generator: Adobe Illustrator 21.1.0, SVG Export Plug-In . SVG Version: 6.00 Build 0)  -->
<svg version="1.1" id="Layer_1" xmlns="http://www.w3.org/2000/svg" xmlns:xlink="http://www.w3.org/1999/xlink" x="0px" y="0px"
	 viewBox="0 0 150 115" style="enable-background:new 0 0 150 115;" xml:space="preserve">
<style type="text/css">
	.st0{fill:#00973E;}
</style>
<g>
	<path class="st0" d="M58,115H0.1V11.1C0.1,5,5.1,0,11.2,0H58c6.1,0,11.1,5,11.1,11.1v29.2L69,67.6l0.2,36.3
		C69.1,110,64.1,115,58,115z M4.2,110.9H58c3.9,0,7-3.2,7-7l-0.2-36.3L65,40.2V11.1c0-3.9-3.2-7-7-7H11.2c-3.9,0-7,3.2-7,7
		L4.2,110.9L4.2,110.9z"/>
	<rect x="2.2" y="17.9" class="st0" width="65.5" height="4.1"/>
	<rect x="2.2" y="84" class="st0" width="64.9" height="4.1"/>
	<path class="st0" d="M36.9,12.7H24.1c-1.3,0-2.3-1-2.3-2.3s1-2.3,2.3-2.3h12.8c1.3,0,2.3,1,2.3,2.3S38.2,12.7,36.9,12.7z"/>
	<path class="st0" d="M40.7,100.7H27.8c-1.3,0-2.3-1-2.3-2.3c0-1.3,1-2.3,2.3-2.3h12.8c1.3,0,2.3,1,2.3,2.3
		C43,99.7,42,100.7,40.7,100.7z"/>
	<path class="st0" d="M43.7,12.7h-0.6c-1.3,0-2.3-1-2.3-2.3s1-2.3,2.3-2.3h0.6C45,8,46,9,46,10.3S45,12.7,43.7,12.7z"/>
	<path class="st0" d="M138.8,115H80.9V11.1C80.9,5,85.9,0,92,0h46.8c6.1,0,11.1,5,11.1,11.1v29.2l-0.2,27.4l0.2,36.3
		C149.9,110,144.9,115,138.8,115z M84.9,110.9h53.8c3.9,0,7-3.2,7-7l-0.2-36.3l0.2-27.4V11.1c0-3.9-3.2-7-7-7H92c-3.9,0-7,3.2-7,7
		V110.9z"/>
	<rect x="82.9" y="17.9" class="st0" width="65.5" height="4.1"/>
	<rect x="82.9" y="84" class="st0" width="64.9" height="4.1"/>
	<path class="st0" d="M117.6,12.7h-12.8c-1.3,0-2.3-1-2.3-2.3s1-2.3,2.3-2.3h12.8c1.3,0,2.3,1,2.3,2.3S118.9,12.7,117.6,12.7z"/>
	<path class="st0" d="M121.4,100.7h-12.8c-1.3,0-2.3-1-2.3-2.3c0-1.3,1-2.3,2.3-2.3h12.8c1.3,0,2.3,1,2.3,2.3
		C123.7,99.7,122.7,100.7,121.4,100.7z"/>
	<path class="st0" d="M124.4,12.7h-0.6c-1.3,0-2.3-1-2.3-2.3s1-2.3,2.3-2.3h0.6c1.3,0,2.3,1,2.3,2.3S125.7,12.7,124.4,12.7z"/>
	<g>
		<g>
			<rect x="47.2" y="52.5" class="st0" width="65.8" height="4.1"/>
			<g>
				<circle class="st0" cx="47.4" cy="54.5" r="4.1"/>
			</g>
		</g>
		<polygon class="st0" points="97.7,74 94.7,71.2 110.3,54.5 94.7,37.1 97.7,34.4 115.8,54.5 		"/>
	</g>
</g>
</svg>
