<?xml version="1.0" encoding="utf-8"?>
<!-- Generator: Adobe Illustrator 15.1.0, SVG Export Plug-In . SVG Version: 6.00 Build 0)  -->
<!DOCTYPE svg PUBLIC "-//W3C//DTD SVG 1.1//EN" "http://www.w3.org/Graphics/SVG/1.1/DTD/svg11.dtd">
<svg version="1.1" id="Layer_2" xmlns="http://www.w3.org/2000/svg" xmlns:xlink="http://www.w3.org/1999/xlink" x="0px" y="0px"
	 width="292px" height="254px" viewBox="0 0 292 254" enable-background="new 0 0 292 254" xml:space="preserve">
<path fill="none" stroke="#299354" stroke-width="5" stroke-miterlimit="10" d="M288.385,116.667v-85.47
	c0-15.048-12.24-27.246-27.338-27.246H31.955c-15.099,0-27.339,12.198-27.339,27.246v112.716"/>
<path fill="none" stroke="#299354" stroke-width="5" stroke-miterlimit="10" d="M4.616,111.197v112.716h34.876v25.401l42.229-25.401
	h179.326c15.098,0,27.338-12.2,27.338-27.246v-85.471"/>
<g>
	<path fill="#00973E" d="M93.081,171.034c-0.708,0-1.416-0.404-1.719-1.112c-0.303-0.809-0.101-1.618,0.506-2.225l11.327-8.9
		c0.101-0.101,0.202-0.202,0.202-0.404V93.261c0-3.034,2.427-5.462,5.461-5.462l19.317-2.124c1.011-0.101,1.921,0.607,2.023,1.618
		c0.101,1.012-0.607,1.922-1.619,2.023l-19.317,2.225c-0.101,0-0.304,0-0.405,0c-1.011,0-1.719,0.81-1.719,1.72v65.132
		c0,1.214-0.607,2.428-1.618,3.338l-5.765,4.551l40.758-6.574c0.101,0,0.203,0,0.304,0h0.404c1.012,0,1.72-0.809,1.72-1.72v-53.501
		c0-1.011,0.809-1.82,1.82-1.82c1.012,0,1.82,0.81,1.82,1.82v53.4c0,3.034-2.427,5.462-5.461,5.462h-0.101l-47.635,7.686
		C93.283,171.034,93.182,171.034,93.081,171.034z"/>
	<g>
		<path fill="#00973E" d="M156.999,87.496c-2.124,0-3.843,1.719-3.843,3.944c0,2.225,1.82,3.944,3.843,3.944
			c2.124,0,3.843-1.72,3.843-3.944C160.842,89.215,159.225,87.496,156.999,87.496z"/>
		<path fill="#00973E" d="M123.927,69.089v34.791h68.066V69.089H123.927z M136.569,99.43c-3.337,0-6.068-1.416-7.687-3.944
			l3.034-2.73c1.112,1.618,2.629,2.63,4.45,2.63c2.225,0,3.945-1.821,3.945-3.844c0-2.225-1.72-3.843-3.945-3.843
			c-0.404,0-0.708,0.101-1.112,0.202l-1.821-2.326l4.956-5.866h-8.192v-4.046h13.653v4.046l-4.652,5.158
			c3.54,0.708,5.765,3.641,5.765,7.281C145.166,95.688,141.728,99.43,136.569,99.43z M156.999,99.43
			c-4.652,0-8.597-3.338-8.597-7.889c0-1.416,0.404-2.933,1.113-4.146l7.686-11.833h5.057l-5.359,8.395c0.101,0,0.202,0,0.404,0
			c4.146,0,8.293,2.629,8.293,7.686C165.494,96.092,161.55,99.43,156.999,99.43z M176.113,99.43c-3.337,0-6.067-1.314-7.787-3.843
			l3.136-2.73c1.112,1.617,2.528,2.629,4.349,2.629c2.326,0,4.046-1.72,4.046-3.844c0-2.123-1.72-3.843-4.046-3.843
			c-1.214,0-2.326,0.607-2.933,1.314l-3.439-0.505l1.518-12.946h12.642v4.046h-8.394l-0.607,4.854
			c0.607-0.304,1.416-0.506,2.326-0.506c4.046,0,7.586,3.034,7.586,7.585C184.509,96.092,181.171,99.43,176.113,99.43z"/>
	</g>
	<path fill="#00973E" d="M190.071,172.35H88.934V71.213c0-8.395,6.776-15.171,15.17-15.171h85.967c8.394,0,15.17,6.776,15.17,15.171
		v85.966C205.241,165.573,198.465,172.35,190.071,172.35z M92.979,168.304h97.092c6.169,0,11.125-4.955,11.125-11.125V71.213
		c0-6.17-4.956-11.125-11.125-11.125h-85.967c-6.169,0-11.125,4.955-11.125,11.125V168.304L92.979,168.304z"/>
</g>
</svg>
