<?xml version="1.0" encoding="utf-8"?>
<!-- Generator: Adobe Illustrator 21.1.0, SVG Export Plug-In . SVG Version: 6.00 Build 0)  -->
<svg version="1.1" id="图层_1" xmlns="http://www.w3.org/2000/svg" xmlns:xlink="http://www.w3.org/1999/xlink" x="0px" y="0px"
	 viewBox="0 0 36 36" style="enable-background:new 0 0 36 36;" xml:space="preserve">
<style type="text/css">
	.st0{fill:#DC007C;}
</style>
<g>
	<g>
		<g>
			<path class="st0" d="M18,36C8,36,0,28,0,18S8,0,18,0s18,8,18,18S28,36,18,36z M18,2.1C9.3,2.1,2.1,9.3,2.1,18S9.3,33.9,18,33.9
				S33.9,26.7,33.9,18S26.7,2.1,18,2.1z"/>
		</g>
		<g>
			<path class="st0" d="M22.4,23.5c-0.2,0-0.6,0-0.8-0.2l-8.9-8.9c-0.4-0.4-0.4-1.1,0-1.5c0.4-0.4,1.1-0.4,1.5,0l8.9,8.9
				c0.4,0.4,0.4,1.1,0,1.5C22.9,23.3,22.7,23.5,22.4,23.5z"/>
		</g>
		<g>
			<path class="st0" d="M13.6,23.5c-0.2,0-0.6,0-0.8-0.2c-0.4-0.4-0.4-1.1,0-1.5l8.9-8.9c0.4-0.4,1.1-0.4,1.5,0
				c0.4,0.4,0.4,1.1,0,1.5l-8.9,8.9C14.2,23.3,13.8,23.5,13.6,23.5z"/>
		</g>
	</g>
</g>
</svg>
