<?xml version="1.0" encoding="utf-8"?>
<!-- Generator: Adobe Illustrator 15.1.0, SVG Export Plug-In . SVG Version: 6.00 Build 0)  -->
<!DOCTYPE svg PUBLIC "-//W3C//DTD SVG 1.1//EN" "http://www.w3.org/Graphics/SVG/1.1/DTD/svg11.dtd">
<svg version="1.1" id="Isolation_Mode" xmlns="http://www.w3.org/2000/svg" xmlns:xlink="http://www.w3.org/1999/xlink" x="0px"
	 y="0px" width="60px" height="54.375px" viewBox="0 0 60 54.375" enable-background="new 0 0 60 54.375" xml:space="preserve">
<path fill="none" stroke="#ffffff" stroke-width="2.276" stroke-linecap="round" stroke-miterlimit="10" d="M29.579,36.168H6.002
	c-2.434,0-4.405,1.972-4.405,4.405v12.114h27.982c2.433,0,4.405-1.973,4.405-4.405v-7.709C33.984,38.14,32.012,36.168,29.579,36.168
	z"/>
<line fill="none" stroke="#ffffff" stroke-width="2.276" stroke-linecap="round" stroke-linejoin="round" stroke-miterlimit="10" x1="9.122" y1="44.428" x2="9.396" y2="44.428"/>
<line fill="none" stroke="#ffffff" stroke-width="2.276" stroke-linecap="round" stroke-linejoin="round" stroke-miterlimit="10" x1="14.536" y1="44.428" x2="14.811" y2="44.428"/>
<polyline fill="none" stroke="#ffffff" stroke-width="2.276" stroke-linecap="round" stroke-miterlimit="10" points="33.984,44.428
	43.75,44.428 43.75,16.804 "/>
<path fill="none" stroke="#ffffff" stroke-width="2.276" stroke-linecap="round" stroke-miterlimit="10" d="M44.968,10.619
	c1.159-0.003,2.319,0.438,3.204,1.322c0.88,0.88,1.32,2.032,1.322,3.185"/>
<path fill="none" stroke="#ffffff" stroke-width="2.276" stroke-linecap="round" stroke-miterlimit="10" d="M44.624,6.033
	c2.448-0.095,4.927,0.792,6.796,2.661c1.774,1.774,2.663,4.099,2.667,6.425"/>
<path fill="none" stroke="#ffffff" stroke-width="2.276" stroke-linecap="round" stroke-miterlimit="10" d="M44.436,1.661
	c3.63-0.146,7.307,1.167,10.078,3.938c2.628,2.628,3.943,6.071,3.949,9.515"/>
</svg>
