<svg xmlns="http://www.w3.org/2000/svg" xmlns:xlink="http://www.w3.org/1999/xlink" width="40" height="40" viewBox="0 0 40 40">
    <defs>
        <rect id="b" width="30" height="30" rx="4"/>
        <filter id="a" width="150%" height="150%" x="-25%" y="-25%" filterUnits="objectBoundingBox">
            <feOffset in="SourceAlpha" result="shadowOffsetOuter1"/>
            <feGaussianBlur in="shadowOffsetOuter1" result="shadowBlurOuter1" stdDeviation="2.5"/>
            <feColorMatrix in="shadowBlurOuter1" values="0 0 0 0 0 0 0 0 0 0.101907951 0 0 0 0 0.0471324272 0 0 0 0.265143795 0"/>
        </filter>
    </defs>
    <g fill="none" fill-rule="evenodd">
        <g transform="translate(5 5)">
            <use fill="#000" filter="url(#a)" xlink:href="#b"/>
            <use fill="#00A04A" xlink:href="#b"/>
        </g>
        <path stroke="#FFF" d="M25.929 33H13V9.094C13 7.94 13.929 7 15.071 7H25.93C27.07 7 28 7.939 28 9.094v21.74C28 32.06 27.071 33 25.929 33zM13 27h15"/>
        <path stroke="#FFF" stroke-linecap="round" d="M19 30h3M15.648 23.352a2.127 2.127 0 0 1 0-3.057l6.647-6.647a2.127 2.127 0 0 1 3.057 0 2.127 2.127 0 0 1 0 3.057l-6.647 6.647a2.127 2.127 0 0 1-3.057 0zM21 15l3 3M18 18l3 3"/>
        <path stroke="#FFF" stroke-linecap="round" stroke-linejoin="round" d="M21.1 17.1L21 17M22.1 18.1L22 18M21.1 19H21M22 21l.475.6 2.372-.133-1.355 1.933L26 24M16 13l3 3"/>
        <g stroke="#FFF">
            <path d="M13 11h15"/>
            <path stroke-linecap="round" d="M18 9h3"/>
            <path stroke-linecap="round" stroke-linejoin="round" d="M23 9h.1"/>
        </g>
    </g>
</svg>
