<?xml version="1.0" encoding="utf-8"?>
<!-- Generator: Adobe Illustrator 21.1.0, SVG Export Plug-In . SVG Version: 6.00 Build 0)  -->
<svg version="1.1" id="Layer_1" xmlns="http://www.w3.org/2000/svg" xmlns:xlink="http://www.w3.org/1999/xlink" x="0px" y="0px"
	 viewBox="0 0 150 115" style="enable-background:new 0 0 150 115;" xml:space="preserve">
<style type="text/css">
	.st0{fill:#00973E;}
</style>
<g>
	<path class="st0" d="M117.5,115h-100V15c0-8.3,6.7-15,15-15h85c8.3,0,15,6.7,15,15v85C132.5,108.3,125.8,115,117.5,115z M21.5,111
		h96c6.1,0,11-4.9,11-11V15c0-6.1-4.9-11-11-11h-85c-6.1,0-11,4.9-11,11L21.5,111L21.5,111z"/>
	<path class="st0" d="M92.6,30.4H74.7c0,2.5,0,5,0,7.4h10.4c-0.4,2.4-1.8,4.5-3.8,5.9c0,0,0,0,0,0c-1.3,0.8-2.7,1.4-4.2,1.7
		c-1.5,0.3-3,0.3-4.5,0c-1.5-0.3-3-0.9-4.2-1.8c-2-1.4-3.6-3.5-4.4-5.8c0,0,0,0,0,0c-0.8-2.4-0.8-5,0-7.4l0,0
		c0.6-1.7,1.5-3.2,2.8-4.5c1.5-1.6,3.5-2.7,5.7-3.2c1.8-0.4,3.8-0.3,5.6,0.2c1.5,0.5,2.9,1.3,4.1,2.4c1.2-1.2,2.3-2.3,3.5-3.5
		c0.6-0.6,1.3-1.2,1.9-1.9c-1.8-1.6-3.9-3-6.1-3.8c-4.1-1.5-8.7-1.5-12.8-0.1c-4.6,1.6-8.6,5-10.8,9.4l0,0c0,0,0,0,0,0v0
		c-0.8,1.5-1.3,3.1-1.6,4.8c-0.8,4.1-0.3,8.5,1.7,12.3c0,0,0,0,0,0c1.2,2.5,3,4.6,5.2,6.3c2,1.6,4.4,2.8,6.9,3.5
		c3.2,0.8,6.5,0.8,9.7,0.1c2.9-0.7,5.6-2,7.8-4c0,0,0,0,0,0c2.3-2.1,4-4.9,4.8-7.9C93.1,37.3,93.2,33.8,92.6,30.4"/>
	<path class="st0" d="M60.1,103.7c-0.7,0-1.4-0.2-2-0.5c-1.2-0.7-2-2-2-3.4l0.1-39.2c0-1.4,0.8-2.7,2-3.4c1.2-0.7,2.7-0.7,3.9,0
		L96,77c1.2,0.7,1.9,2,1.9,3.4c0,1.4-0.8,2.7-2,3.4l-34,19.5C61.5,103.6,60.8,103.7,60.1,103.7z M60.3,60.8l-0.1,38.8l33.7-19.3
		L60.3,60.8z"/>
</g>
</svg>
