<?xml version="1.0" encoding="utf-8"?>
<!-- Generator: Adobe Illustrator 15.1.0, SVG Export Plug-In . SVG Version: 6.00 Build 0)  -->
<!DOCTYPE svg PUBLIC "-//W3C//DTD SVG 1.1//EN" "http://www.w3.org/Graphics/SVG/1.1/DTD/svg11.dtd">
<svg version="1.1" id="Layer_2" xmlns="http://www.w3.org/2000/svg" xmlns:xlink="http://www.w3.org/1999/xlink" x="0px" y="0px"
	 width="292px" height="254px" viewBox="0 0 292 254" enable-background="new 0 0 292 254" xml:space="preserve">
<path fill="none" stroke="#299354" stroke-width="5" stroke-miterlimit="10" d="M288.385,116.667V31.197
	c0-15.048-12.24-27.246-27.338-27.246H31.955c-15.099,0-27.339,12.198-27.339,27.246v112.716"/>
<path fill="none" stroke="#299354" stroke-width="5" stroke-miterlimit="10" d="M4.616,111.197v112.716h34.876v25.402l42.229-25.402
	h179.326c15.098,0,27.338-12.2,27.338-27.246v-85.471"/>
<g>
	<path fill="#299354" d="M131.912,163.832h-51.96V70.542c0-5.488,4.466-9.953,9.955-9.953h42.007c5.488,0,9.956,4.465,9.956,9.954
		v26.171l-0.135,24.605l0.135,32.551C141.867,159.365,137.401,163.832,131.912,163.832z M83.601,160.184h48.311
		c3.479,0,6.308-2.83,6.308-6.308l-0.136-32.56l0.136-24.614V70.541c0-3.477-2.829-6.306-6.308-6.306H89.907
		c-3.477,0-6.308,2.829-6.308,6.306v89.643H83.601z"/>
	<rect x="81.776" y="76.623" fill="#299354" width="58.839" height="3.648"/>
	<rect x="81.776" y="136.02" fill="#299354" width="58.268" height="3.648"/>
	<path fill="#299354" d="M112.943,71.967h-11.518c-1.161,0-2.101-0.941-2.101-2.101s0.94-2.1,2.101-2.1h11.518
		c1.16,0,2.099,0.941,2.099,2.1S114.103,71.967,112.943,71.967z"/>
	<path fill="#299354" d="M116.33,151.01h-11.518c-1.159,0-2.1-0.94-2.1-2.101c0-1.161,0.941-2.101,2.1-2.101h11.519
		c1.161,0,2.1,0.94,2.1,2.101C118.431,150.069,117.491,151.01,116.33,151.01z"/>
	<path fill="#299354" d="M119.039,71.967h-0.506c-1.16,0-2.102-0.941-2.102-2.101s0.942-2.1,2.102-2.1h0.506
		c1.161,0,2.1,0.941,2.1,2.1S120.199,71.967,119.039,71.967z"/>
	<path fill="#299354" d="M204.398,163.832h-51.96V70.542c0-5.488,4.466-9.953,9.955-9.953H204.4c5.487,0,9.956,4.465,9.956,9.954
		v26.171l-0.135,24.605l0.135,32.551C214.353,159.365,209.887,163.832,204.398,163.832z M156.085,160.184h48.313
		c3.477,0,6.308-2.83,6.308-6.308l-0.135-32.56l0.135-24.614V70.541c0-3.477-2.831-6.306-6.308-6.306h-42.005
		c-3.477,0-6.308,2.829-6.308,6.306V160.184z"/>
	<rect x="154.262" y="76.623" fill="#299354" width="58.838" height="3.648"/>
	<rect x="154.262" y="136.02" fill="#299354" width="58.267" height="3.648"/>
	<path fill="#299354" d="M185.428,71.967H173.91c-1.159,0-2.1-0.941-2.1-2.101s0.941-2.1,2.1-2.1h11.518c1.16,0,2.1,0.941,2.1,2.1
		S186.587,71.967,185.428,71.967z"/>
	<path fill="#299354" d="M188.816,151.01h-11.517c-1.161,0-2.102-0.94-2.102-2.101c0-1.161,0.942-2.101,2.102-2.101h11.517
		c1.162,0,2.101,0.94,2.101,2.101C190.917,150.069,189.975,151.01,188.816,151.01z"/>
	<path fill="#299354" d="M191.525,71.967h-0.506c-1.162,0-2.102-0.941-2.102-2.101s0.942-2.1,2.102-2.1h0.506
		c1.16,0,2.1,0.941,2.1,2.1S192.684,71.967,191.525,71.967z"/>
	<g>
		<g>
			<rect x="122.193" y="107.694" fill="#299354" width="59.091" height="3.648"/>
			<g>
				<circle fill="#299354" cx="122.379" cy="109.518" r="3.703"/>
			</g>
		</g>
		<polygon fill="#299354" points="167.521,126.986 164.852,124.501 178.813,109.495 164.83,93.907 167.544,91.472 183.754,109.54 		
			"/>
	</g>
</g>
</svg>
