<?xml version="1.0" encoding="utf-8"?>
<!-- Generator: Adobe Illustrator 15.1.0, SVG Export Plug-In . SVG Version: 6.00 Build 0)  -->
<!DOCTYPE svg PUBLIC "-//W3C//DTD SVG 1.1//EN" "http://www.w3.org/Graphics/SVG/1.1/DTD/svg11.dtd">
<svg version="1.1" id="Layer_2" xmlns="http://www.w3.org/2000/svg" xmlns:xlink="http://www.w3.org/1999/xlink" x="0px" y="0px"
	 width="292px" height="254px" viewBox="0 0 292 254" enable-background="new 0 0 292 254" xml:space="preserve">
<path fill="none" stroke="#299354" stroke-width="5" stroke-miterlimit="10" d="M288.385,116.667v-85.47
	c0-15.048-12.24-27.246-27.338-27.246H31.955c-15.099,0-27.339,12.198-27.339,27.246v112.716"/>
<path fill="none" stroke="#299354" stroke-width="5" stroke-miterlimit="10" d="M4.616,111.197v112.716h34.876v25.401l42.229-25.401
	h179.326c15.098,0,27.338-12.2,27.338-27.246v-85.471"/>
<g>
	<path fill="#00973E" d="M164.098,171.759h-61.31V61.55c0-6.47,5.198-11.774,11.668-11.774h49.642
		c6.47,0,11.774,5.304,11.774,11.774v30.974h-4.35V61.55c0-4.136-3.395-7.425-7.425-7.425h-49.642c-4.137,0-7.425,3.394-7.425,7.425
		v105.861h57.067c4.137,0,7.425-3.396,7.425-7.426l-0.212-38.504h4.349l0.213,38.504
		C175.872,166.456,170.567,171.759,164.098,171.759z"/>
	<rect x="104.91" y="68.763" fill="#00973E" width="69.477" height="4.35"/>
	<rect x="104.91" y="138.877" fill="#00973E" width="68.84" height="4.349"/>
	<path fill="#00973E" d="M141.716,63.248h-13.577c-1.379,0-2.439-1.061-2.439-2.439c0-1.379,1.061-2.44,2.439-2.44h13.577
		c1.379,0,2.44,1.061,2.44,2.44C144.156,62.187,143.096,63.248,141.716,63.248z"/>
	<path fill="#00973E" d="M145.747,156.591h-13.683c-1.379,0-2.439-1.061-2.439-2.439c0-1.38,1.061-2.44,2.439-2.44h13.577
		c1.38,0,2.44,1.061,2.44,2.44C148.187,155.53,147.126,156.591,145.747,156.591z"/>
	<path fill="#00973E" d="M148.93,63.248h-0.638c-1.378,0-2.438-1.061-2.438-2.439c0-1.379,1.061-2.44,2.438-2.44h0.638
		c1.378-0.106,2.439,0.955,2.439,2.333C151.369,62.081,150.308,63.248,148.93,63.248z"/>
	<rect x="142.353" y="105.464" fill="#00973E" width="63.218" height="4.348"/>
	<polygon fill="#00973E" points="189.344,128.27 186.16,125.299 202.601,107.585 186.16,89.129 189.344,86.266 208.436,107.585 	"/>
</g>
</svg>
