<?xml version="1.0" encoding="utf-8"?>
<!-- Generator: Adobe Illustrator 21.0.2, SVG Export Plug-In . SVG Version: 6.00 Build 0)  -->
<svg version="1.1" id="Isolation_Mode" xmlns="http://www.w3.org/2000/svg" xmlns:xlink="http://www.w3.org/1999/xlink" x="0px"
	 y="0px" viewBox="0 0 60 60" style="enable-background:new 0 0 60 60;" xml:space="preserve">
<style type="text/css">
	.st0{fill:none;stroke:#009e4c;stroke-width:2.276;stroke-linecap:round;stroke-miterlimit:10;}
	.st1{fill:none;stroke:#009e4c;stroke-width:2.276;stroke-linecap:round;stroke-linejoin:round;stroke-miterlimit:10;}
</style>
<path class="st0" d="M53,37.9H7.1c-2.4,0-4.4,2-4.4,4.4v12.1H53c2.4,0,4.4-2,4.4-4.4v-7.7C57.4,39.8,55.5,37.9,53,37.9z"/>
<line class="st1" x1="10.2" y1="46.1" x2="10.5" y2="46.1"/>
<line class="st1" x1="15.6" y1="46.1" x2="15.9" y2="46.1"/>
<line class="st1" x1="39.2" y1="37.9" x2="39.2" y2="30.3"/>
<line class="st1" x1="39.4" y1="25.1" x2="39.8" y2="25.1"/>
<path class="st0" d="M34.9,21c1.2-1.2,2.9-2,4.7-2c1.8,0,3.5,0.7,4.7,1.9"/>
<path class="st0" d="M29.8,16.6c2.4-2.6,5.9-4.3,9.8-4.3c3.7,0,7,1.5,9.4,3.9"/>
<path class="st0" d="M25.1,12.3c3.6-3.9,8.8-6.4,14.5-6.4c5.5,0,10.4,2.2,14,5.8"/>
</svg>
