<svg xmlns="http://www.w3.org/2000/svg" width="45.844" height="26.31" viewBox="0 0 45.844 26.31">
  <metadata><?xpacket begin="﻿" id="W5M0MpCehiHzreSzNTczkc9d"?>
<x:xmpmeta xmlns:x="adobe:ns:meta/" x:xmptk="Adobe XMP Core 5.6-c138 79.159824, 2016/09/14-01:09:01        ">
   <rdf:RDF xmlns:rdf="http://www.w3.org/1999/02/22-rdf-syntax-ns#">
      <rdf:Description rdf:about=""/>
   </rdf:RDF>
</x:xmpmeta>
                                                                                                    
                                                                                                    
                                                                                                    
                                                                                                    
                                                                                                    
                                                                                                    
                                                                                                    
                                                                                                    
                                                                                                    
                                                                                                    
                                                                                                    
                                                                                                    
                                                                                                    
                                                                                                    
                                                                                                    
                                                                                                    
                                                                                                    
                                                                                                    
                                                                                                    
                                                                                                    
                           
<?xpacket end="w"?></metadata>
<defs>
    <style>
      .cls-1 {
        fill: #333;
        fill-rule: evenodd;
      }
    </style>
  </defs>
  <path id="_26" data-name="26" class="cls-1" d="M505.4,1921.55h-2.528v1.31a6.712,6.712,0,0,1-6.7,6.7H468.85a6.713,6.713,0,0,1-6.705-6.7v-12.91a6.715,6.715,0,0,1,6.705-6.71h27.313a6.714,6.714,0,0,1,6.7,6.71v1.3H505.4a2.6,2.6,0,0,1,2.59,2.6v5.11A2.592,2.592,0,0,1,505.4,1921.55Zm0.7-7.7a0.708,0.708,0,0,0-.7-0.7h-3.474a0.95,0.95,0,0,1-.945-0.95v-2.25a4.827,4.827,0,0,0-4.813-4.82H468.85a4.828,4.828,0,0,0-4.815,4.82v12.91a4.819,4.819,0,0,0,4.815,4.81h27.313a4.818,4.818,0,0,0,4.813-4.81v-2.26a0.942,0.942,0,0,1,.945-0.94H505.4a0.7,0.7,0,0,0,.7-0.7v-5.11Zm-10.864,12.26H469.683a3.478,3.478,0,0,1-3.53-3.42v-12.58a3.476,3.476,0,0,1,3.53-3.41H495.23a3.476,3.476,0,0,1,3.53,3.41v12.58A3.478,3.478,0,0,1,495.23,1926.11Zm-21.4-17.52h-4.148a1.584,1.584,0,0,0-1.64,1.52v12.58a1.592,1.592,0,0,0,1.64,1.53h4.148v-15.63Zm1.891,15.63h5.789v-15.63h-5.789v15.63Zm7.68,0h5.789v-15.63H483.4v15.63Zm13.468-14.11a1.584,1.584,0,0,0-1.64-1.52h-4.149v15.63h4.149a1.592,1.592,0,0,0,1.64-1.53v-12.58Z" transform="translate(-462.156 -1903.25)"/>
</svg>
