<?xml version="1.0" encoding="utf-8"?>
<!-- Generator: Adobe Illustrator 15.1.0, SVG Export Plug-In . SVG Version: 6.00 Build 0)  -->
<!DOCTYPE svg PUBLIC "-//W3C//DTD SVG 1.1//EN" "http://www.w3.org/Graphics/SVG/1.1/DTD/svg11.dtd">
<svg version="1.1" id="Layer_1" xmlns="http://www.w3.org/2000/svg" xmlns:xlink="http://www.w3.org/1999/xlink" x="0px" y="0px"
	 width="32px" height="24px" viewBox="0 0 32 24" enable-background="new 0 0 32 24" xml:space="preserve">
<g>
	<defs>
		<rect id="SVGID_1_" width="32" height="24"/>
	</defs>
	<clipPath id="SVGID_2_">
		<use xlink:href="#SVGID_1_"  overflow="visible"/>
	</clipPath>
	<path clip-path="url(#SVGID_2_)" fill="#d0d6d9" d="M28,0H4C1.791,0,0,1.791,0,4v16c0,2.211,1.791,4,4,4h24c2.209,0,4-1.789,4-4V4
		C32,1.791,30.209,0,28,0 M23.121,13.104l3.258,4.112c0.343,0.433,0.232,0.562-0.247,0.288l-5.264-3.009
		c-0.479-0.273-1.188-0.185-1.58,0.206c-0.732,0.73-1.857,1.859-2.583,2.588c-0.39,0.394-1.02,0.393-1.408-0.001
		c-0.722-0.729-1.842-1.859-2.58-2.592c-0.392-0.389-1.106-0.474-1.586-0.2l-5.264,3.009c-0.479,0.273-0.606,0.133-0.283-0.314
		l3.194-4.456c0.323-0.448,0.283-1.142-0.069-1.568c-1.25-1.512-3.883-4.857-5.09-6.381C3.276,4.354,3.354,4.274,3.792,4.61
		c2.311,1.772,9.021,6.919,11.418,8.776c0.437,0.338,1.137,0.334,1.572-0.005c2.388-1.862,9.107-7.004,11.421-8.773
		c0.438-0.335,0.523-0.25,0.188,0.188c-1.218,1.597-3.958,5.176-5.243,6.765C22.803,11.989,22.778,12.671,23.121,13.104"/>
</g>
</svg>
