<svg xmlns="http://www.w3.org/2000/svg" xmlns:xlink="http://www.w3.org/1999/xlink" width="30" height="26" viewBox="0 0 30 26">
    <defs>
        <path id="a" d="M0 0h29.282v25.5H0z"/>
    </defs>
    <g fill="none" fill-rule="evenodd">
        <mask id="b" fill="#fff">
            <use xlink:href="#a"/>
        </mask>
        <path fill="#FFF" d="M25.95 12.294L14.64 23.686 3.333 12.294C.886 9.829.887 5.817 3.335 3.352A6.204 6.204 0 0 1 7.768 1.5c1.673 0 3.246.656 4.43 1.848l1.911 1.925a.77.77 0 0 0 1.064 0l1.912-1.925a6.199 6.199 0 0 1 4.428-1.85 6.211 6.211 0 0 1 4.434 1.853c2.447 2.465 2.45 6.477.002 8.942m1.062-10A7.699 7.699 0 0 0 21.513 0a7.693 7.693 0 0 0-5.493 2.292l-1.379 1.39-1.38-1.39A7.688 7.688 0 0 0 7.768 0a7.69 7.69 0 0 0-5.497 2.294C-.756 5.343-.758 10.303 2.268 13.35L14.11 25.278a.747.747 0 0 0 1.064 0L27.014 13.35c3.024-3.048 3.023-8.007-.003-11.056" mask="url(#b)"/>
    </g>
</svg>
