<?xml version="1.0" encoding="utf-8"?>
<!-- Generator: Adobe Illustrator 21.0.2, SVG Export Plug-In . SVG Version: 6.00 Build 0)  -->
<svg version="1.1" id="Layer_1" xmlns="http://www.w3.org/2000/svg" xmlns:xlink="http://www.w3.org/1999/xlink" x="0px" y="0px"
	 viewBox="0 0 18 18" style="enable-background:new 0 0 18 18;" xml:space="preserve">
<style type="text/css">
	.st0{fill:#00a04a;}
</style>
<path id="Search" class="st0" d="M12.3,7.4c0,2.7-2.1,4.9-4.8,4.9c-2.7,0-4.9-2.1-4.9-4.8c0-2.7,2.1-4.9,4.8-4.9c0,0,0,0,0.1,0
	C10.1,2.6,12.3,4.8,12.3,7.4C12.3,7.4,12.3,7.4,12.3,7.4L12.3,7.4z M13.4,11.5c0.8-1.2,1.3-2.6,1.3-4.1c0.1-4.1-3.2-7.4-7.2-7.4
	C3.4-0.1,0.1,3.2,0,7.2c-0.1,4.1,3.2,7.4,7.2,7.4c0,0,0.1,0,0.1,0c1.5,0,2.9-0.5,4.2-1.3l4.5,4.6l1.9-1.9L13.4,11.5L13.4,11.5
	L13.4,11.5z"/>
</svg>
