<svg xmlns="http://www.w3.org/2000/svg" width="14.5" height="14.5" viewBox="0 0 14.5 14.5">
  <metadata><?xpacket begin="﻿" id="W5M0MpCehiHzreSzNTczkc9d"?>
<x:xmpmeta xmlns:x="adobe:ns:meta/" x:xmptk="Adobe XMP Core 5.6-c138 79.159824, 2016/09/14-01:09:01        ">
   <rdf:RDF xmlns:rdf="http://www.w3.org/1999/02/22-rdf-syntax-ns#">
      <rdf:Description rdf:about=""/>
   </rdf:RDF>
</x:xmpmeta>
                                                                                                    
                                                                                                    
                                                                                                    
                                                                                                    
                                                                                                    
                                                                                                    
                                                                                                    
                                                                                                    
                                                                                                    
                                                                                                    
                                                                                                    
                                                                                                    
                                                                                                    
                                                                                                    
                                                                                                    
                                                                                                    
                                                                                                    
                                                                                                    
                                                                                                    
                                                                                                    
                           
<?xpacket end="w"?></metadata>
<defs>
    <style>
      .cls-1 {
        fill: #fff;
        fill-rule: evenodd;
      }
    </style>
  </defs>
  <path id="User_Icon" data-name="User Icon" class="cls-1" d="M1290.37,117.814c0-.979-1.48-1.523-2.22-1.819-0.46-.186-0.92-0.372-1.37-0.575a4.859,4.859,0,0,1-1.68-1.119,0.76,0.76,0,0,1-.25-0.559,4.711,4.711,0,0,1,.17-1.057,8.8,8.8,0,0,1,.61-1.46,9.966,9.966,0,0,0,.46-1.912,4.72,4.72,0,0,0,.13-0.824c0-1.928-1.01-3.621-3.11-3.621s-3.11,1.693-3.11,3.621a5.937,5.937,0,0,0,.14.824,10.835,10.835,0,0,0,.48,1.912,7.377,7.377,0,0,1,.61,1.46,4.2,4.2,0,0,1,.17,1.057,0.76,0.76,0,0,1-.25.559,4.859,4.859,0,0,1-1.68,1.119c-0.45.218-.91,0.389-1.36,0.575-0.75.311-2.24,0.84-2.24,1.819v1.554h14.5v-1.554h0Z" transform="translate(-1275.88 -104.875)"/>
</svg>
