<?xml version="1.0" encoding="utf-8"?>
<!-- Generator: Adobe Illustrator 21.1.0, SVG Export Plug-In . SVG Version: 6.00 Build 0)  -->
<svg version="1.1" id="Layer_1" xmlns="http://www.w3.org/2000/svg" xmlns:xlink="http://www.w3.org/1999/xlink" x="0px" y="0px"
	 viewBox="0 0 150 115" style="enable-background:new 0 0 150 115;" xml:space="preserve">
<style type="text/css">
	.st0{fill:#00973E;}
</style>
<g>
	<g>
		<g>
			<path class="st0" d="M95.9,71.8H56l20-36.2L95.9,71.8z M60.4,69.2h31.1L76,41L60.4,69.2z"/>
			<path class="st0" d="M97.2,72.5H54.7L76,34.1L97.2,72.5z M57.2,71h37.5L76,37.1L57.2,71z M92.7,69.9H59.2L76,39.5L92.7,69.9z
				 M61.7,68.4h28.6L76,42.5L61.7,68.4z"/>
		</g>
		<g>
			<path class="st0" d="M76,61.1c-0.7,0-1.3-0.6-1.3-1.3V51c0-0.7,0.6-1.3,1.3-1.3c0.7,0,1.3,0.6,1.3,1.3v8.8
				C77.3,60.5,76.7,61.1,76,61.1z"/>
			<path class="st0" d="M76,61.8c-1.1,0-2-0.9-2-2V51c0-1.1,0.9-2,2-2c1.1,0,2,0.9,2,2v8.8C78,60.9,77.1,61.8,76,61.8z M76,50.4
				c-0.3,0-0.6,0.3-0.6,0.6v8.8c0,0.3,0.3,0.6,0.6,0.6c0.3,0,0.6-0.3,0.6-0.6V51C76.5,50.7,76.3,50.4,76,50.4z"/>
		</g>
		<g>
			<path class="st0" d="M76,66c-0.7,0-1.3-0.5-1.3-1.2v-0.1c0-0.7,0.6-1.3,1.3-1.3c0.7,0,1.3,0.6,1.3,1.3C77.3,65.3,76.7,66,76,66z"
				/>
			<path class="st0" d="M76,66.7c-1.1,0-2-0.9-2-2v-0.1c0-1.1,0.9-2,2-2c1.1,0,2,0.9,2,2C78,65.7,77.1,66.7,76,66.7z M76,64
				c-0.3,0-0.6,0.3-0.6,0.6v0.1c0,0.3,0.3,0.5,0.6,0.5c0.3,0,0.6-0.3,0.6-0.6C76.5,64.3,76.3,64,76,64z"/>
		</g>
	</g>
	<path class="st0" d="M98.4,115H40.5V11.1C40.5,5,45.5,0,51.6,0h46.8c6.1,0,11.1,5,11.1,11.1v29.2l-0.2,27.4l0.2,36.3
		C109.5,110,104.5,115,98.4,115z M44.6,110.9h53.8c3.9,0,7-3.2,7-7l-0.2-36.3l0.2-27.4V11.1c0-3.9-3.2-7-7-7H51.6c-3.9,0-7,3.1-7,7
		V110.9z"/>
	<rect x="42.5" y="17.9" class="st0" width="65.5" height="4.1"/>
	<rect x="42.5" y="84" class="st0" width="64.9" height="4.1"/>
	<path class="st0" d="M77.3,12.7H64.4c-1.3,0-2.3-1-2.3-2.3s1-2.3,2.3-2.3h12.8c1.3,0,2.3,1,2.3,2.3C79.6,11.6,78.6,12.7,77.3,12.7z
		"/>
	<path class="st0" d="M81,100.7H68.2c-1.3,0-2.3-1-2.3-2.3c0-1.3,1-2.3,2.3-2.3H81c1.3,0,2.3,1,2.3,2.3
		C83.4,99.7,82.3,100.7,81,100.7z"/>
	<path class="st0" d="M84.1,12.7h-0.6c-1.3,0-2.3-1-2.3-2.3s1-2.3,2.3-2.3h0.6c1.3,0,2.3,1,2.3,2.3C86.4,11.6,85.3,12.7,84.1,12.7z"
		/>
</g>
</svg>
