<?xml version="1.0" encoding="utf-8"?>
<!-- Generator: Adobe Illustrator 15.1.0, SVG Export Plug-In . SVG Version: 6.00 Build 0)  -->
<!DOCTYPE svg PUBLIC "-//W3C//DTD SVG 1.1//EN" "http://www.w3.org/Graphics/SVG/1.1/DTD/svg11.dtd">
<svg version="1.1" id="Layer_2" xmlns="http://www.w3.org/2000/svg" xmlns:xlink="http://www.w3.org/1999/xlink" x="0px" y="0px"
	 width="292px" height="254px" viewBox="0 0 292 254" enable-background="new 0 0 292 254" xml:space="preserve">
<path fill="none" stroke="#299354" stroke-width="5" stroke-miterlimit="10" d="M288.385,116.667V31.197
	c0-15.048-12.24-27.246-27.338-27.246H31.955c-15.099,0-27.339,12.198-27.339,27.246v112.716"/>
<path fill="none" stroke="#299354" stroke-width="5" stroke-miterlimit="10" d="M4.616,111.197v112.716h34.876v25.402l42.229-25.402
	h179.326c15.098,0,27.338-12.2,27.338-27.246v-85.471"/>
<g>
	<path fill="#299354" d="M202.013,79.278h-2.609v-4.252h2.609V79.278z M193.733,79.278h-5.67v-4.252h5.67V79.278z M182.394,79.278
		h-5.67v-4.252h5.67V79.278z M171.058,79.278h-5.67v-4.252h5.67V79.278z"/>
	<path fill="#299354" d="M113.32,79.278h-5.669v-4.252h5.669V79.278z M101.981,79.278h-5.669v-4.252h5.669V79.278z M90.643,79.278
		h-5.669v-4.252h5.669V79.278z"/>
	<rect x="131.903" y="145.112" fill="#299354" width="12.902" height="4.252"/>
	<g>
		<path fill="#299354" d="M112.905,100.25h-4.549c-4.783,0-8.675-3.893-8.675-8.675c0-4.784,3.892-8.677,8.675-8.677h4.549
			c4.783,0,8.675,3.893,8.675,8.677C121.58,96.358,117.688,100.25,112.905,100.25z M108.356,87.151
			c-2.439,0-4.423,1.984-4.423,4.425c0,2.439,1.984,4.424,4.423,4.424h4.549c2.439,0,4.423-1.984,4.423-4.424
			c0-2.438-1.984-4.425-4.423-4.425H108.356z"/>
		<path fill="#299354" d="M108.356,139.547c-4.784,0-8.676-3.893-8.676-8.676c0-4.784,3.892-8.678,8.676-8.678
			c4.783,0,8.675,3.894,8.675,8.678C117.031,135.655,113.139,139.547,108.356,139.547z M108.356,126.446
			c-2.439,0-4.424,1.984-4.424,4.426c0,2.438,1.984,4.424,4.424,4.424c2.439,0,4.423-1.984,4.423-4.424
			C112.779,128.431,110.795,126.446,108.356,126.446z"/>
		<path fill="#299354" d="M116.094,113.349h-7.737c-4.783,0-8.675-3.892-8.675-8.676c0-4.783,3.892-8.675,8.675-8.675h7.737
			c4.784,0,8.676,3.892,8.676,8.675C124.769,109.458,120.877,113.349,116.094,113.349z M108.356,100.25
			c-2.439,0-4.423,1.982-4.423,4.423c0,2.439,1.984,4.424,4.423,4.424h7.737c2.439,0,4.424-1.984,4.424-4.424
			c0-2.44-1.984-4.423-4.424-4.423H108.356z"/>
		<path fill="#299354" d="M114.9,126.446h-6.544c-4.783,0-8.675-3.892-8.675-8.676c0-4.783,3.892-8.675,8.675-8.675h6.544
			c4.783,0,8.675,3.892,8.675,8.675C123.575,122.555,119.683,126.446,114.9,126.446z M108.356,113.349
			c-2.439,0-4.423,1.984-4.423,4.423c0,2.439,1.984,4.425,4.423,4.425h6.544c2.439,0,4.423-1.983,4.423-4.425
			c0-2.438-1.984-4.423-4.423-4.423H108.356z"/>
	</g>
	<path fill="#299354" d="M197.448,172.044l-11.545-22.844v-43.785l-7.541-12.063c-1.146-1.835-3.126-2.932-5.293-2.932h-10.334
		v0.666c0,4.242,3.449,7.69,7.691,7.69h5.506v21.477h-2.125c-3.86,0-7.123,3.183-7.123,6.95v8.926h-4.252v-8.926
		c0-5.462,3.988-10.023,9.248-11.007V103.03h-1.254c-6.586,0-11.943-5.356-11.943-11.942v-4.918h14.586
		c3.642,0,6.969,1.843,8.896,4.93l8.188,13.096v43.992l11.088,21.938L197.448,172.044z"/>
	<path fill="#299354" d="M167.002,71.249h-4.252v-7.915c0-3.122-3.021-5.662-6.735-5.662h-33.897c-3.714,0-6.736,2.54-6.736,5.662
		v7.915h-4.252v-7.915c0-5.467,4.929-9.914,10.988-9.914h33.897c6.06,0,10.987,4.447,10.987,9.914V71.249z"/>
	<rect x="113.254" y="66.997" fill="#299354" width="51.515" height="4.252"/>
	<path fill="#299354" d="M152.379,161.196h-41.924v-25.217h4.252v20.966h37.672c5.546,0,10.058-4.512,10.058-10.058v-19.682h4.252
		v19.682C166.687,154.778,160.267,161.196,152.379,161.196z"/>
	<path fill="#299354" d="M151.726,115.112l-10.935-6.519h-12.824V96.237c0-2.508,2.041-4.547,4.549-4.547h17.083
		c2.51,0,4.551,2.039,4.551,4.547v7.812c0,1.74-0.983,3.255-2.424,4.02V115.112z M132.219,104.342h9.744l5.511,3.286v-3.286h2.125
		c0.164,0,0.299-0.132,0.299-0.295v-7.811c0-0.164-0.135-0.297-0.299-0.297h-17.083c-0.164,0-0.297,0.133-0.297,0.297V104.342z"/>
	<rect x="112.512" y="134.042" fill="#299354" width="52.047" height="4.252"/>
	
		<rect x="142.008" y="162.921" transform="matrix(0.6137 0.7895 -0.7895 0.6137 188.1058 -54.3713)" fill="#299354" width="15.219" height="4.252"/>
</g>
</svg>
