<?xml version="1.0" encoding="utf-8"?>
<!-- Generator: Adobe Illustrator 21.0.2, SVG Export Plug-In . SVG Version: 6.00 Build 0)  -->
<svg version="1.1" id="Layer_1" xmlns="http://www.w3.org/2000/svg" xmlns:xlink="http://www.w3.org/1999/xlink" x="0px" y="0px"
	 viewBox="0 0 60 60" style="enable-background:new 0 0 60 60;" xml:space="preserve">
<style type="text/css">
	.st0{fill:none;stroke:#777777;stroke-width:2;stroke-miterlimit:10;}
	.st1{fill:none;stroke:#777777;stroke-miterlimit:10;}
</style>
<path class="st0" d="M36.4,45H23.6c-1.1,0-2-0.9-2-2V17c0-1.1,0.9-2,2-2h12.9c1.1,0,2,0.9,2,2v26C38.4,44.1,37.5,45,36.4,45z"/>
<path class="st1" d="M31.9,41.4c0.2-1.3-0.9-2.4-2.2-2.2c-0.8,0.1-1.5,0.8-1.6,1.6c-0.2,1.3,0.9,2.4,2.2,2.2
	C31.1,42.8,31.8,42.2,31.9,41.4"/>
<line class="st0" x1="21.6" y1="18.7" x2="38.4" y2="18.7"/>
<line class="st0" x1="21.6" y1="37.3" x2="38.4" y2="37.3"/>
</svg>
