<svg xmlns="http://www.w3.org/2000/svg" xmlns:xlink="http://www.w3.org/1999/xlink" width="40" height="40" viewBox="0 0 40 40">
    <defs>
        <rect id="b" width="30" height="30" rx="4"/>
        <filter id="a" width="150%" height="150%" x="-25%" y="-25%" filterUnits="objectBoundingBox">
            <feOffset in="SourceAlpha" result="shadowOffsetOuter1"/>
            <feGaussianBlur in="shadowOffsetOuter1" result="shadowBlurOuter1" stdDeviation="2.5"/>
            <feColorMatrix in="shadowBlurOuter1" values="0 0 0 0 0 0 0 0 0 0.101907951 0 0 0 0 0.0471324272 0 0 0 0.265143795 0"/>
        </filter>
    </defs>
    <g fill="none" fill-rule="evenodd">
        <g transform="translate(5 5)">
            <use fill="#000" filter="url(#a)" xlink:href="#b"/>
            <use fill="#00A04A" xlink:href="#b"/>
        </g>
        <g fill="#FFF" fill-rule="nonzero">
            <path d="M29.6 17.9H10.4c-.3 0-.6-.3-.7-.6V14.5c0-1.1.9-2 2.1-2.1h16.4c1.1 0 2 .9 2.1 2.1v2.7c-.1.4-.4.7-.7.7zm-18.5-1.3h17.8v-2.1c0-.3-.3-.6-.6-.7H11.8c-.3 0-.6.3-.7.6v2.2z"/>
            <path d="M25.5 31.6h-11c-1.9 0-3.4-1.5-3.4-3.4V17.3c0-.3.3-.6.6-.7h.1c.3 0 .6.3.7.6v11c0 1.1.9 2 2.1 2.1h10.9c1.1 0 2-.9 2.1-2.1V17.3c0-.4.3-.7.7-.7.4 0 .7.3.7.7v10.9c-.1 1.9-1.6 3.4-3.5 3.4zM23.4 13.2H22v-2.7c0-.3-.3-.6-.6-.7H18.6c-.3 0-.6.3-.7.6V13.2h-1.4v-2.6c0-1.1.9-2 2.1-2.1h2.7c1.1 0 2 .9 2.1 2.1v2.6z"/>
            <path d="M15.9 27.5c-.3 0-.6-.3-.7-.6v-5.6c0-.3.3-.6.6-.7h.1c.3 0 .6.3.7.6v5.6c-.1.3-.3.6-.7.7zM20 27.5c-.3 0-.6-.3-.7-.6v-5.6c0-.4.3-.7.7-.7.4 0 .7.3.7.7v5.5c0 .3-.3.6-.6.7H20zM24.1 27.5c-.3 0-.6-.3-.7-.6v-5.6c0-.4.3-.7.7-.7.4 0 .7.3.7.7v5.5c0 .3-.3.6-.6.7h-.1z"/>
        </g>
    </g>
</svg>
