<?xml version="1.0" encoding="utf-8"?>
<!-- Generator: Adobe Illustrator 15.1.0, SVG Export Plug-In . SVG Version: 6.00 Build 0)  -->
<!DOCTYPE svg PUBLIC "-//W3C//DTD SVG 1.1//EN" "http://www.w3.org/Graphics/SVG/1.1/DTD/svg11.dtd">
<svg version="1.1" id="Layer_2" xmlns="http://www.w3.org/2000/svg" xmlns:xlink="http://www.w3.org/1999/xlink" x="0px" y="0px"
	 width="292px" height="254px" viewBox="0 0 292 254" enable-background="new 0 0 292 254" xml:space="preserve">
<path fill="none" stroke="#299354" stroke-width="5" stroke-miterlimit="10" d="M288.385,116.667v-85.47
	c0-15.048-12.24-27.246-27.338-27.246H31.955c-15.099,0-27.339,12.198-27.339,27.246v112.716"/>
<path fill="none" stroke="#299354" stroke-width="5" stroke-miterlimit="10" d="M4.616,111.197v112.716h34.876v25.401l42.229-25.401
	h179.326c15.098,0,27.338-12.2,27.338-27.246v-85.471"/>
<g>
	<path fill="#00973E" d="M190.763,155.859h-67.81v-3.86h67.81c4.521,0,8.193-3.675,8.193-8.194V76.748
		c0-4.52-3.673-8.193-8.193-8.193h-84.951c-4.521-0.094-8.194,3.579-8.194,8.099v49.445h-3.86V76.653
		c0-6.592,5.461-12.054,12.054-12.054h84.951c6.687,0,12.056,5.462,12.056,12.054v67.057
		C202.818,150.397,197.449,155.859,190.763,155.859z"/>
	<polygon fill="#00973E" points="148.288,112.724 96.583,70.25 99.125,67.236 148.288,107.734 197.544,67.236 199.993,70.25 	"/>
	<rect x="77.182" y="151.903" fill="#00973E" width="38.143" height="3.86"/>
	<rect x="94.322" y="134.762" fill="#00973E" width="3.862" height="38.144"/>
</g>
</svg>
