<svg width="20" height="19" viewBox="0 0 20 19" fill="none" xmlns="http://www.w3.org/2000/svg">
<path fill-rule="evenodd" clip-rule="evenodd" d="M12.4922 1.37506e-05C12.1504 0.000563067 11.8184 0.120192 11.5547 0.338454L6 5.00001H1C0.447266 5.00001 0 5.44777 0 6.00001V13C0 13.5523 0.447266 14 1 14H6L11.5547 18.6616C11.8184 18.8799 12.1504 18.9995 12.4922 19C12.7285 19.0012 12.959 18.9469 13.166 18.8442C13.3105 18.7728 13.4434 18.6781 13.5586 18.5624C13.8418 18.2803 14 17.8971 14 17.4976V1.50294C14 1.10341 13.8418 0.720107 13.5586 0.438063C13.2754 0.155959 12.8926 -0.00169523 12.4922 1.37506e-05ZM13 17.4976C13 17.5412 12.9941 17.5841 12.9824 17.6254C12.9609 17.7117 12.916 17.7911 12.8516 17.8549C12.7559 17.9492 12.627 18.0015 12.4922 18C12.4414 18.0001 12.3906 17.9918 12.3438 17.976C12.291 17.9583 12.2422 17.9312 12.1973 17.8955L6.64258 13.234L6.36328 13H1V6.00001H6.36328L6.64258 5.76613L12.1855 1.11476C12.2715 1.04152 12.3789 1.00093 12.4922 1.00001C12.627 0.998549 12.7559 1.05092 12.8516 1.14546C12.9004 1.19313 12.9375 1.24953 12.9629 1.31093C12.9883 1.37123 13 1.43642 13 1.50294V17.4976ZM16 13.5C18.209 13.4976 19.998 11.7081 20 9.50001C19.998 7.29188 18.209 5.50239 16 5.50001C15.7246 5.50001 15.5 5.72389 15.5 6.00001C15.5 6.27614 15.7246 6.50001 16 6.50001C17.6562 6.50001 19 7.84315 19 9.50001C19 11.1569 17.6562 12.5 16 12.5C15.7246 12.5 15.5 12.7239 15.5 13C15.5 13.2761 15.7246 13.5 16 13.5Z" fill="white"/>
</svg>
