<svg width="24" height="19" viewBox="0 0 24 19" fill="none" xmlns="http://www.w3.org/2000/svg">
<path fill-rule="evenodd" clip-rule="evenodd" d="M14 1.50294V17.4976C14 17.8971 13.8418 18.2803 13.5586 18.5624C13.2754 18.8444 12.8926 19.002 12.4922 19C12.1504 18.9995 11.8184 18.8799 11.5547 18.6616L6 14H1C0.447266 14 0 13.5523 0 13V6.00001C0 5.44777 0.447266 5.00001 1 5.00001H6L11.5547 0.338454C11.8184 0.120192 12.1504 0.000563067 12.4922 1.37506e-05C12.8926 -0.00169523 13.2754 0.155959 13.5586 0.438063C13.8418 0.720107 14 1.10341 14 1.50294ZM22.8535 12.1465C23.043 12.3427 23.041 12.6546 22.8477 12.8474C22.6543 13.0403 22.3438 13.043 22.1465 12.8535L19.5 10.207L16.8535 12.8535C16.7754 12.9295 16.6777 12.9746 16.5762 12.9889C16.4258 13.0102 16.2676 12.9629 16.1523 12.8474C16.0859 12.781 16.043 12.7005 16.0215 12.6155C15.9902 12.4934 16.0059 12.3619 16.0684 12.2495C16.0898 12.2128 16.1152 12.1781 16.1465 12.1465L18.793 9.50001L16.1465 6.85353C16.0176 6.72798 15.9648 6.54207 16.0098 6.36726C16.0566 6.19246 16.1934 6.05592 16.3672 6.01015C16.543 5.96437 16.7285 6.01655 16.8535 6.1465L19.5 8.79298L22.1465 6.1465C22.2715 6.01655 22.459 5.96437 22.6328 6.01015C22.8086 6.05592 22.9453 6.19246 22.9902 6.36726C23.0352 6.54207 22.9844 6.72798 22.8535 6.85353L20.207 9.50001L22.8535 12.1465ZM12.8516 1.14546C12.9473 1.23994 13 1.36873 13 1.50294V17.4976C13 17.6318 12.9473 17.7605 12.8516 17.8549C12.7559 17.9492 12.627 18.0015 12.4922 18C12.4297 18.0001 12.3672 17.9873 12.3105 17.963C12.2695 17.9461 12.2324 17.9234 12.1973 17.8955L6.64258 13.234L6.36328 13H1V6.00001H6.36328L6.64258 5.76613L12.1855 1.11476C12.2715 1.04152 12.3789 1.00093 12.4922 1.00001C12.627 0.998549 12.7559 1.05092 12.8516 1.14546Z" fill="white"/>
</svg>
