<?xml version="1.0" encoding="utf-8"?>
<!-- Generator: Adobe Illustrator 21.0.2, SVG Export Plug-In . SVG Version: 6.00 Build 0)  -->
<svg version="1.1" id="All_glyphs" xmlns="http://www.w3.org/2000/svg" xmlns:xlink="http://www.w3.org/1999/xlink" x="0px" y="0px"
	 viewBox="0 0 18 18" style="enable-background:new 0 0 18 18;" xml:space="preserve">
<style type="text/css">
	.st0{fill:#FFFFFF;}
</style>
<g>
	<path class="st0" d="M13.1,1.2C11.9,0.4,10.5,0,8.8,0C7.5,0,6.4,0.3,5.5,0.9C4.1,1.8,3.3,3.3,3.2,5.5h3.3c0-0.6,0.2-1.2,0.6-1.8
		c0.4-0.6,1-0.9,1.9-0.9c0.9,0,1.5,0.2,1.9,0.7c0.3,0.5,0.5,1,0.5,1.6c0,0.5-0.3,1-0.6,1.4c-0.2,0.2-0.4,0.5-0.7,0.7
		c0,0-1.8,1.1-2.6,2.1C7,9.7,7,10.5,7,11.7c0,0.1,0,0.3,0.3,0.3c0.3,0,2.3,0,2.6,0c0.3,0,0.3-0.2,0.3-0.3c0-0.4,0.1-0.6,0.1-0.9
		c0.1-0.5,0.5-0.9,1-1.2L12.2,9C13,8.3,13.7,7.8,14,7.4c0.5-0.7,0.8-1.5,0.8-2.5C14.8,3.3,14.2,2.1,13.1,1.2z M8.7,13.9
		c-1.1,0-2.1,0.8-2.1,2c0,1.2,0.9,2.1,2,2.1c1.2,0,2.1-0.7,2.1-2C10.8,14.8,9.9,14,8.7,13.9z"/>
</g>
</svg>
