<?xml version="1.0" encoding="UTF-8" standalone="no"?><!DOCTYPE svg PUBLIC "-//W3C//DTD SVG 1.1//EN" "http://www.w3.org/Graphics/SVG/1.1/DTD/svg11.dtd"><svg width="100%" height="100%" viewBox="0 0 32 38" version="1.1" xmlns="http://www.w3.org/2000/svg" xmlns:xlink="http://www.w3.org/1999/xlink" xml:space="preserve" xmlns:serif="http://www.serif.com/" style="fill-rule:evenodd;clip-rule:evenodd;stroke-linejoin:round;stroke-miterlimit:1.41421;"><g><g><path d="M23,20l-14,0c-0.6,0 -1,0.4 -1,1c0,0.6 0.4,1 1,1l14,0c0.6,0 1,-0.4 1,-1c0,-0.6 -0.4,-1 -1,-1Z" style="fill:#858585;fill-rule:nonzero;"/><path d="M23,23l-14,0c-1.2,0 -2,-0.8 -2,-2c0,-1.2 0.8,-2 2,-2l14,0c1.2,0 2,0.8 2,2c0,1.2 -0.8,2 -2,2Zm-14,-2l14,0l-14,0Z" style="fill:#858585;fill-rule:nonzero;"/></g><g><path d="M23,13l-14,0c-0.6,0 -1,0.4 -1,1c0,0.6 0.4,1 1,1l14,0c0.6,0 1,-0.4 1,-1c0,-0.6 -0.4,-1 -1,-1Z" style="fill:#858585;fill-rule:nonzero;"/><path d="M23,16l-14,0c-1.2,0 -2,-0.8 -2,-2c0,-1.2 0.8,-2 2,-2l14,0c1.2,0 2,0.8 2,2c0,1.2 -0.8,2 -2,2Zm-14,-2l14,0l-14,0Z" style="fill:#858585;fill-rule:nonzero;"/></g><g><path d="M23,27l-14,0c-0.6,0 -1,0.4 -1,1c0,0.6 0.4,1 1,1l14,0c0.6,0 1,-0.4 1,-1c0,-0.6 -0.4,-1 -1,-1Z" style="fill:#858585;fill-rule:nonzero;"/><path d="M23,30l-14,0c-1.2,0 -2,-0.8 -2,-2c0,-1.2 0.8,-2 2,-2l14,0c1.2,0 2,0.8 2,2c0,1.2 -0.8,2 -2,2Zm-14,-2l14,0l-14,0Z" style="fill:#858585;fill-rule:nonzero;"/></g><g><path d="M26,3l-1.2,0c-0.4,-1.2 -1.5,-2 -2.8,-2l-12,0c-1.3,0 -2.4,0.8 -2.8,2l-1.2,0c-2.8,0 -5,2.2 -5,5l0,24c0,2.8 2.2,5 5,5l20,0c2.8,0 5,-2.2 5,-5l0,-24c0,-2.8 -2.2,-5 -5,-5Zm-16,0l12,0c0.6,0 1,0.4 1,1c0,0.6 -0.4,1 -1,1l-12,0c-0.6,0 -1,-0.4 -1,-1c0,-0.6 0.4,-1 1,-1Zm19,29c0,1.7 -1.3,3 -3,3l-20,0c-1.7,0 -3,-1.3 -3,-3l0,-24c0,-1.7 1.3,-3 3,-3l1.2,0c0.4,1.2 1.5,2 2.8,2l12,0c1.3,0 2.4,-0.8 2.8,-2l1.2,0c1.7,0 3,1.3 3,3l0,24Z" style="fill:#858585;fill-rule:nonzero;"/><path d="M26,38l-20,0c-3.4,0 -6,-2.6 -6,-6l0,-24c0,-3.4 2.6,-6 6,-6l0.6,0c0.7,-1.2 2,-2 3.4,-2l12,0c1.5,0 2.8,0.8 3.4,2l0.6,0c3.4,0 6,2.6 6,6l0,24c0,3.4 -2.6,6 -6,6Zm-24,-6c0,2.2 1.8,4 4,4l20,0c2.2,0 4,-1.8 4,-4l0,-24l0,24c0,2.2 -1.8,4 -4,4l-20,0c-2.2,0 -4,-1.8 -4,-4Zm4,-26c-1.1,0 -2,0.9 -2,2l0,24c0,1.1 0.9,2 2,2l20,0c1.1,0 2,-0.9 2,-2l0,-24c0,-1.1 -0.9,-2 -2,-2l-0.6,0c-0.7,1.2 -2,2 -3.4,2l-12,0c-1.5,0 -2.8,-0.8 -3.4,-2l-0.6,0Zm16,0l0,0Zm-12,0l0,0Zm-2.1,-2l0.1,0.3c0,-0.1 0,-0.2 -0.1,-0.3c0.1,-0.1 0.1,-0.2 0.1,-0.3l-0.1,0.3Zm16.1,-0.3l0,0.6l0.1,-0.3l-0.1,-0.3Zm-14,0.3c0,0 -0.1,0 0,0l12,0l-12,0Zm12,-2l0,0Zm-12,0l0,0Z" style="fill:#858585;fill-rule:nonzero;"/></g></g></svg>