<svg id="Layer_1" data-name="Layer 1" xmlns="http://www.w3.org/2000/svg" viewBox="0 0 20 9.77"><title>icon-infinity</title><path d="M4.39,0A4.72,4.72,0,0,0,1.33,1.47,4.65,4.65,0,0,0,.06,4.05,6.3,6.3,0,0,0,.14,6.22a4.54,4.54,0,0,0,.6,1.35A4.85,4.85,0,0,0,3.93,9.7a5.64,5.64,0,0,0,2-.08A6.32,6.32,0,0,0,8.64,7.87l.46-.44L9,7.33c-.1-.15-1.35-1.66-1.38-1.67A8.12,8.12,0,0,0,7,6.25,3.86,3.86,0,0,1,6,7,2.22,2.22,0,0,1,2.88,5.72,2.36,2.36,0,0,1,4.35,2.78a2.68,2.68,0,0,1,1.28,0A4.07,4.07,0,0,1,6.23,3,5.11,5.11,0,0,1,7.71,4.34l2.5,3A5.8,5.8,0,0,0,15,9.77,4.88,4.88,0,0,0,17.87,9,4.74,4.74,0,0,0,19.94,5.8a6.17,6.17,0,0,0-.08-2.16,5,5,0,0,0-2.22-3A4.82,4.82,0,0,0,14.78,0a4.22,4.22,0,0,0-1.51.41,6.62,6.62,0,0,0-1.77,1.37L11,2.36l.43.55a12.2,12.2,0,0,0,1,1.17,2.37,2.37,0,0,0,.41-.34c1.17-1.09,2-1.4,2.95-1.08A2.19,2.19,0,0,1,17,3.83a2.15,2.15,0,0,1-.38,2.55,2.46,2.46,0,0,1-2.87.43c-.66-.31-1.13-.78-2.14-2.14A22,22,0,0,0,9.42,2,6.09,6.09,0,0,0,4.39,0Z" transform="translate(0 0)"/></svg>