<?xml version="1.0" encoding="utf-8"?>
<!-- Generator: Adobe Illustrator 21.0.2, SVG Export Plug-In . SVG Version: 6.00 Build 0)  -->
<svg version="1.1" id="Layer_1" xmlns="http://www.w3.org/2000/svg" xmlns:xlink="http://www.w3.org/1999/xlink" x="0px" y="0px"
	 viewBox="0 0 257 187" style="enable-background:new 0 0 257 187;" xml:space="preserve">
<style type="text/css">
	.st0{fill:none;}
	.st1{fill:#F80185;}
</style>
<title>2GB</title>
<desc>Created with Sketch.</desc>
<polygon id="Shape_6_" class="st0" points="157.1,40.6 101.1,40.6 101.1,105.1 157.1,105.1 157.1,40.6 157.1,105.1 101.1,105.1 
	101.1,40.6 "/>
<g>
	<path class="st1" d="M114.7,48.1c0.5-0.2,1-0.5,1.5-1s0.8-1,1-1.7s0.3-1.4,0.3-2c0-0.7,0-1-0.2-1.5c0-0.5-0.3-0.8-0.5-1.2l-0.8-0.8
		l-1.2-0.5l0.7-0.7l0.7-0.8l0.3-1c0.2-0.3,0.2-0.7,0.2-1.2c0-0.7-0.2-1.4-0.3-1.9c-0.3-0.7-0.5-1.2-1-1.5s-1-0.7-1.5-0.8
		c-0.7-0.2-1.4-0.2-2-0.2l-5.9,0.3v17.2l6.8-0.2C113.4,48.5,114.2,48.5,114.7,48.1z M109.8,34.6l2.2-0.2l0.7,0.2l0.5,0.3l0.3,0.5
		l0.2,0.8l-0.2,0.8l-0.3,0.5l-0.5,0.3L112,38h-2.2V34.6z M109.7,45.4v-4.1l2.7-0.2l0.7,0.2l0.5,0.3l0.3,0.7l0.2,0.8l-0.2,0.8
		l-0.3,0.7l-0.5,0.3l-0.7,0.2L109.7,45.4z"/>
	<polygon class="st1" points="120.1,33.4 120.8,34 121.7,34.1 122.5,34 123.2,33.4 123.7,32.8 123.9,31.9 123.7,31.1 123.2,30.4 
		122.5,29.9 121.7,29.7 120.8,29.9 120.1,30.4 119.6,31.1 119.5,31.9 119.6,32.8 	"/>
	<path class="st1" d="M127.4,44.1c0,0.8,0.2,1.5,0.3,2c0.2,0.7,0.5,1.2,0.8,1.5c0.5,0.3,1,0.7,1.5,0.8c0.5,0.2,1.2,0.3,1.9,0.3h0.5
		h0.5l0.5-0.2l0.5-0.2v-3.4h-0.3h-0.3H133h-0.3H132l-0.5-0.3l-0.3-0.5l-0.2-0.7v-4.9l2.7-0.2v-3.5L131,35v-3.9l-3.5,0.5v3.5h-1.7
		v3.5h1.7v5.5H127.4z"/>
	<path class="st1" d="M144,48.3c0.5-0.2,1-0.3,1.5-0.5c0.5-0.3,0.8-0.5,1.4-0.8c0.5-0.3,0.8-0.7,1.2-1.2l-2.2-2.4l-0.8,0.7l-0.8,0.5
		l-0.8,0.3l-1,0.2c-0.3,0-0.8,0-1.2-0.2l-1-0.5l-0.7-0.8c-0.2-0.3-0.3-0.7-0.3-1.2l9.6-0.2v-0.3v-0.3v-0.3V41c0-0.8-0.3-1.9-0.3-2.5
		c-0.3-0.8-0.7-1.5-1.4-2.2c-0.7-0.5-1.4-1-2.2-1.4c-0.8-0.3-1.7-0.5-2.7-0.5s-1.9,0.3-2.7,0.7c-0.8,0.3-1.5,0.8-2.2,1.5
		s-1.2,1.5-1.5,2.4c-0.3,0.8-0.5,1.7-0.5,2.7s0.2,1.9,0.5,2.7c0.3,0.8,0.8,1.5,1.5,2.2c0.5,0.7,1.4,1.2,2.2,1.5s1.9,0.5,2.9,0.5
		C142.9,48.5,143.4,48.5,144,48.3z M139.2,39l0.7-0.8l0.8-0.5l1-0.2l1,0.2l0.8,0.5l0.7,0.7l0.3,1l-5.7,0.2L139.2,39z"/>
	<polygon class="st1" points="120,48.5 123.7,48.3 123.7,35.1 120,35.3 	"/>
	<path class="st1" d="M131.5,66.4h3.2v3l-0.5,0.3l-0.5,0.2l-0.5,0.2h-0.5c-0.7,0-1.4-0.2-2-0.5c-0.5-0.3-1-0.7-1.5-1.2
		c-0.3-0.5-0.8-1.2-1-1.9c-0.2-0.7-0.3-1.4-0.3-2.2c0-0.7,0.2-1.5,0.3-2.2c0.2-0.7,0.5-1.4,1-1.9c0.3-0.5,0.8-0.8,1.5-1.2
		c0.7-0.3,1.4-0.5,2-0.5l1.2,0.2l1,0.3l0.8,0.5l0.8,0.7l2-3.2c-0.5-0.3-0.8-0.7-1.4-0.8c-0.3-0.3-0.8-0.5-1.4-0.7
		c-0.5-0.3-1-0.3-1.5-0.5s-1.2-0.2-1.7-0.2c-1.2,0-2.2,0.2-3.7,0.7c-1.2,0.5-2,1.2-2.9,2c-0.8,0.8-1.4,1.9-1.9,2.9s-0.7,2.2-0.7,3.5
		c0,1.4,0.2,2.5,0.7,3.7s1,2.2,1.9,3c0.8,0.8,1.9,1.5,2.9,2s2.2,0.8,3.5,0.8c0.5,0,1.2,0,1.7-0.2c0.7-0.2,1.2-0.3,1.7-0.5
		s1-0.3,1.5-0.7c0.5-0.3,1-0.7,1.4-1v-8.1h-7.3v3.5H131.5z"/>
	<path class="st1" d="M118.3,57.4c-0.8-0.7-1.9-1.4-2.9-1.7c-0.8-0.3-2.2-0.7-3.4-0.3c-1,0-2,0.2-3,0.5s-1.9,0.8-2.5,1.5
		c-0.8,0.7-1.4,1.4-1.9,2.2c-0.5,0.8-0.8,1.7-1,2.7l5.2,2c0.2-0.5,0.5-1,0.7-1.4l0.7-1l0.8-0.5l1-0.2l1,0.2l0.8,0.7l0.5,1
		c0.2,0.3,0.2,0.7,0.2,1.2l-0.2,1l-0.3,1l-0.7,1c-0.2,0.3-0.5,0.7-0.8,1.2l-8.6,10.3v5.7l16.6,0.7v-5.9l-8.8-0.3l5.7-6.8
		c0.5-0.7,1-1.4,1.5-2c0.3-0.7,0.7-1.4,1-2c0.3-0.8,0.5-1.5,0.7-2.2c0-0.8,0.2-1.5,0.2-2.4c0-1.4-0.2-2.5-0.7-3.5
		C119.6,59.1,119.1,58.1,118.3,57.4z"/>
	<path class="st1" d="M154.3,65.5l-1-1c-0.3-0.3-0.7-0.5-1.2-0.7l0.7-0.7l0.7-0.8l0.5-1c0.2-0.5,0.2-0.8,0.2-1.4
		c0-0.7-0.2-1.4-0.3-2c-0.2-0.5-0.5-1-1-1.5s-1-0.8-1.7-1s-1.4-0.3-2.2-0.3h-6.8v18.4l7.6,0.2c0.8,0,1.5-0.2,2.2-0.3
		c0.7-0.2,1.2-0.5,1.7-1s0.8-1,1.2-1.7c0.2-0.7,0.3-1.4,0.3-2.2c0-0.5,0-1-0.2-1.5C154.8,66.4,154.6,65.9,154.3,65.5z M146.2,58.6
		v-0.2h2.4l0.7,0.2l0.5,0.3l0.3,0.7l0.2,0.8l-0.2,0.8l-0.3,0.7l-0.5,0.3l-0.7,0.2h-2.4V58.6z M150.9,68.8l-0.3,0.7l-0.7,0.5
		l-0.7,0.2l-3-0.2v-4.2h3l0.7,0.2l0.7,0.5l0.3,0.7l0.2,0.8L150.9,68.8z"/>
	<path class="st1" d="M182.1,8.7c-0.8-1.9-2-3.5-3.4-4.9s-3-2.4-4.9-3c-1.9-0.7-3.7-0.8-5.9-0.7L88.7,6.9c-1.5,0.2-3.2,0.7-4.6,1.5
		c-1.4,0.7-2.7,1.9-3.7,3.2c-1,1.4-2,2.9-2.5,4.6s-0.8,3.5-0.8,5.4V115v0.6v59c-2,1.2-3.4,3.3-3.4,5.8c0,3.7,3,6.8,6.8,6.8
		c3.7,0,6.8-3,6.8-6.8c0-2.5-1.4-4.6-3.4-5.8v-58.4l84.1,7.2c2,0.2,4.1,0,5.9-0.7c1.9-0.7,3.5-1.7,4.9-3c1.5-1.2,2.5-2.9,3.4-4.7
		c0.7-1.9,1.2-3.9,1.2-6.1V15C183.3,12.6,183,10.5,182.1,8.7z M175.5,108c0,1.2-0.3,2.2-0.8,3.2c-0.3,0.8-1,1.7-1.7,2.4
		c-0.7,0.7-1.5,1.2-2.4,1.5c-1,0.3-2,0.5-3,0.3l-85-6.4V21.2c0-1,0.2-1.9,0.5-2.7c0.3-0.8,0.8-1.7,1.4-2.4c0.5-0.7,1.2-1.4,1.9-1.7
		c0.8-0.3,1.5-0.7,2.4-0.7l79.1-5.9c1.2-0.2,2.2,0,3,0.3s1.7,0.8,2.4,1.5s1.4,1.5,1.7,2.4c0.5,0.8,0.7,2,0.7,3v93H175.5z"/>
</g>
</svg>
