<?xml version="1.0" encoding="utf-8"?>
<!-- Generator: Adobe Illustrator 15.1.0, SVG Export Plug-In . SVG Version: 6.00 Build 0)  -->
<!DOCTYPE svg PUBLIC "-//W3C//DTD SVG 1.1//EN" "http://www.w3.org/Graphics/SVG/1.1/DTD/svg11.dtd">
<svg version="1.1" id="Layer_2" xmlns="http://www.w3.org/2000/svg" xmlns:xlink="http://www.w3.org/1999/xlink" x="0px" y="0px"
	 width="292px" height="254px" viewBox="0 0 292 254" enable-background="new 0 0 292 254" xml:space="preserve">
<path fill="none" stroke="#299354" stroke-width="5" stroke-miterlimit="10" d="M288.385,116.667V31.197
	c0-15.048-12.24-27.246-27.338-27.246H31.955c-15.099,0-27.339,12.198-27.339,27.246v112.716"/>
<path fill="none" stroke="#299354" stroke-width="5" stroke-miterlimit="10" d="M4.616,111.197v112.716h34.876v25.402l42.229-25.402
	h179.326c15.098,0,27.338-12.2,27.338-27.246v-85.471"/>
<g>
	<path fill="#299354" d="M88.812,142.995H84.21c0-32.133,26.141-58.273,58.273-58.273c5.042,0,10.055,0.647,14.895,1.921
		c3.686,0.97,7.291,2.315,10.715,3.994l-2.025,4.13c-3.152-1.545-6.471-2.781-9.862-3.676c-4.458-1.174-9.075-1.771-13.722-1.771
		C112.888,89.324,88.812,113.401,88.812,142.995z"/>
	<path fill="#299354" d="M144.101,151.173c-6.813,0-12.354-5.543-12.354-12.354s5.542-12.353,12.354-12.353
		c6.811,0,12.354,5.541,12.354,12.353S150.912,151.173,144.101,151.173z M144.101,131.068c-4.274,0-7.752,3.475-7.752,7.75
		c0,4.274,3.478,7.752,7.752,7.752s7.752-3.478,7.752-7.752C151.853,134.543,148.374,131.068,144.101,131.068z"/>
	<path fill="#299354" d="M200.755,142.995h-4.603c0-12.858-4.554-25.152-12.87-34.869l-29.91,26.317l-3.04-3.455l33.306-29.304
		l1.524,1.64C195.219,114.133,200.755,128.223,200.755,142.995z"/>
	<g>
		<path fill="#299354" d="M187.915,80.88c1.723,3.89,5.496,6.473,9.967,6.473c3.074,0,6.055-1.375,8.197-3.167l3.376,4.705
			c-3.098,2.562-7.104,4.053-11.574,4.053c-8.174,0-14.741-4.984-16.813-12.065h-3.47v-3.47h2.841
			c-0.023-0.349-0.047-0.862-0.047-1.328c0-0.442,0.023-0.955,0.047-1.329h-2.841v-3.469h3.47
			c2.072-7.057,8.639-12.063,16.813-12.063c4.307,0,8.081,1.374,11.178,3.772l-3.213,4.727c-2.307-1.653-4.776-2.888-7.965-2.888
			c-4.471,0-8.244,2.607-9.967,6.45h12.319v3.469h-13.274c-0.046,0.442-0.07,0.885-0.07,1.33c0,0.466,0.023,0.908,0.07,1.328h13.274
			v3.47h-12.319V80.88z"/>
	</g>
</g>
</svg>
