<svg id="icons" xmlns="http://www.w3.org/2000/svg" viewBox="0 0 28.13 48"><defs><style>.cls-1{fill:none;stroke:#00a04a;stroke-linecap:round;stroke-linejoin:round;stroke-width:2px;}</style></defs><title>icon-balloon</title><path class="cls-1" d="M1062.55,1376.83h0a13.07,13.07,0,1,0-21,0h0l.16.2c.14.18.28.37.43.54a27.13,27.13,0,0,1,5.21,13.14h9.46a27.13,27.13,0,0,1,5.21-13.14c.15-.18.29-.36.43-.54Z" transform="translate(-1037.95 -1355.04)"/><path class="cls-1" d="M1056.34,1376.83h0a27.2,27.2,0,0,0,1-7.72c0-7.21-2.4-13.06-5.36-13.06s-5.36,5.85-5.36,13.06a27.16,27.16,0,0,0,1,7.72h0l.07.2c.06.18.12.37.18.54a56,56,0,0,1,2.14,13.14H1054a56,56,0,0,1,2.14-13.14c.06-.18.12-.36.18-.54Z" transform="translate(-1037.95 -1355.04)"/><rect class="cls-1" x="9.11" y="40.16" width="9.91" height="6.84"/></svg>