<?xml version="1.0" encoding="utf-8"?>
<!-- Generator: Adobe Illustrator 15.1.0, SVG Export Plug-In . SVG Version: 6.00 Build 0)  -->
<!DOCTYPE svg PUBLIC "-//W3C//DTD SVG 1.1//EN" "http://www.w3.org/Graphics/SVG/1.1/DTD/svg11.dtd">
<svg version="1.1" id="Isolation_Mode" xmlns="http://www.w3.org/2000/svg" xmlns:xlink="http://www.w3.org/1999/xlink" x="0px"
	 y="0px" width="61.75px" height="61.75px" viewBox="0 0 61.75 61.75" enable-background="new 0 0 61.75 61.75"
	 xml:space="preserve">
<path fill="none" stroke="#00A04A" stroke-width="2.9" stroke-linecap="round" stroke-miterlimit="10" d="M25.546,26.658V7.221
	c0-2.612,2.119-4.73,4.731-4.73h23.778c2.612,0,4.73,2.118,4.73,4.73v47.356c0,2.612-2.118,4.73-4.73,4.73H25.546v-9.311"/>
<line fill="none" stroke="#00A04A" stroke-width="2.9" stroke-linecap="round" stroke-miterlimit="10" x1="37.459" y1="7.215" x2="42.195" y2="7.215"/>
<line fill="none" stroke="#00A04A" stroke-width="2.9" stroke-linecap="round" stroke-miterlimit="10" x1="38.881" y1="52.215" x2="45.452" y2="52.215"/>
<line fill="none" stroke="#00A04A" stroke-width="2.9" stroke-linecap="round" stroke-miterlimit="10" x1="46.933" y1="7.215" x2="46.946" y2="7.215"/>
<line fill="none" stroke="#00A04A" stroke-width="2.9" stroke-linecap="round" stroke-miterlimit="10" x1="31.264" y1="45.11" x2="58.786" y2="45.11"/>
<line fill="none" stroke="#00A04A" stroke-width="2.9" stroke-linecap="round" stroke-miterlimit="10" x1="58.786" y1="11.952" x2="25.546" y2="11.952"/>
<polygon fill="none" stroke="#00A04A" stroke-width="2.9" stroke-linecap="round" stroke-linejoin="round" stroke-miterlimit="10" points="
	19.666,31.781 11.375,26.603 17.297,24.234 29.14,27.696 "/>
<path fill="none" stroke="#00A04A" stroke-width="2.9" stroke-linecap="round" stroke-linejoin="round" stroke-miterlimit="10" d="
	M52.824,26.425c0,0-4.447-6.236-13.026-3.099c-5.99,2.19-27.238,11.566-27.238,11.566l-8.29-4.737l-2.369,3.583l4.411,8.798
	c0.849,1.695,2.869,2.437,4.613,1.695l15.812-6.72l-4.664,13.626l7.065-2.322l9.335-16.292h-0.001L52.824,26.425z"/>
</svg>
