<svg id="图层_1" data-name="图层 1" xmlns="http://www.w3.org/2000/svg" viewBox="0 0 15 15.05"><defs><style>.cls-1{fill:#999;}</style></defs><title>1</title><path class="cls-1" d="M12,5.5a.6.6,0,0,1-.4-.1L9,2.7,6.4,5.3a.49.49,0,0,1-.7-.7l3-3a.48.48,0,0,1,.7,0l3,3a.48.48,0,0,1,0,.7A.4.4,0,0,1,12,5.5Z" transform="translate(-1.5 -1.45)"/><path class="cls-1" d="M9,11a.47.47,0,0,1-.5-.5v-8a.5.5,0,0,1,1,0v8A.47.47,0,0,1,9,11Z" transform="translate(-1.5 -1.45)"/><path class="cls-1" d="M14,16.5H4A2.48,2.48,0,0,1,1.5,14V12a.47.47,0,0,1,.5-.5.47.47,0,0,1,.5.5v2A1.54,1.54,0,0,0,4,15.5H14A1.54,1.54,0,0,0,15.5,14V12a.5.5,0,0,1,1,0v2A2.48,2.48,0,0,1,14,16.5Z" transform="translate(-1.5 -1.45)"/></svg>