<svg xmlns="http://www.w3.org/2000/svg" width="30" height="30" viewBox="0 0 30 30">
    <g fill="none" fill-rule="evenodd" stroke="#00A04A" transform="translate(4 4)">
        <path d="M11.663 16.5L16.5 4.9V2A1.5 1.5 0 0 0 15 .5H2A1.5 1.5 0 0 0 .5 2v14.5h11.163z"/>
        <circle cx="18" cy="10" r="3"/>
        <path d="M14 22v-5.25c0-.966.895-1.75 2-1.75h4c1.105 0 2 .784 2 1.75V22"/>
        <circle cx="8.5" cy="8.5" r="1.5"/>
        <path d="M7.314 12.843a4.482 4.482 0 0 1-1.476-.712l.117-1.605-1.592-.243A4.478 4.478 0 0 1 4 8.686l1.328-.91-.803-1.395c.261-.487.609-.921 1.023-1.28l1.538.47.591-1.497a4.526 4.526 0 0 1 1.638 0l.591 1.498 1.539-.471c.414.359.761.793 1.022 1.28l-.802 1.396 1.327.909a4.478 4.478 0 0 1-.363 1.597l-1.592.243.117 1.605a4.482 4.482 0 0 1-1.475.712L8.496 11.75l-1.182 1.093z"/>
    </g>
</svg>
