<?xml version="1.0" encoding="utf-8"?>
<!-- Generator: Adobe Illustrator 21.1.0, SVG Export Plug-In . SVG Version: 6.00 Build 0)  -->
<svg version="1.1" id="图层_1" xmlns="http://www.w3.org/2000/svg" xmlns:xlink="http://www.w3.org/1999/xlink" x="0px" y="0px"
	 viewBox="0 0 20 20" style="enable-background:new 0 0 20 20;" xml:space="preserve">
<style type="text/css">
	.st0{fill:#00A04A;}
</style>
<g>
	<g>
		<g>
			<g>
				<g>
					<path class="st0" d="M10,20C4.5,20,0,15.5,0,10S4.5,0,10,0s10,4.5,10,10S15.5,20,10,20z M10,1.2c-4.8,0-8.8,4-8.8,8.8
						s4,8.8,8.8,8.8s8.8-4,8.8-8.8S14.8,1.2,10,1.2z"/>
				</g>
				<g>
					<path class="st0" d="M12.4,10.6h-1.6c-0.7,0-1.3-0.6-1.3-1.3v-4c0-0.4,0.2-0.6,0.6-0.6s0.6,0.2,0.6,0.6v4
						c0,0.1,0.1,0.1,0.1,0.1h1.6c0.4,0,0.6,0.2,0.6,0.6S12.7,10.6,12.4,10.6z"/>
				</g>
				<g>
					<path class="st0" d="M10,3.5c-0.4,0-0.6-0.2-0.6-0.6V1.2c0-0.4,0.2-0.6,0.6-0.6s0.6,0.2,0.6,0.6v1.8C10.6,3.3,10.4,3.5,10,3.5z
						"/>
				</g>
				<g>
					<path class="st0" d="M18.8,10.6h-1.8c-0.4,0-0.6-0.2-0.6-0.6s0.2-0.6,0.6-0.6h1.8c0.4,0,0.6,0.2,0.6,0.6S19.2,10.6,18.8,10.6z"
						/>
				</g>
				<g>
					<path class="st0" d="M2.9,10.6H1.2c-0.4,0-0.6-0.2-0.6-0.6s0.2-0.6,0.6-0.6h1.8c0.4,0,0.6,0.2,0.6,0.6S3.3,10.6,2.9,10.6z"/>
				</g>
				<g>
					<path class="st0" d="M10,19.4c-0.4,0-0.6-0.2-0.6-0.6v-1.8c0-0.4,0.2-0.6,0.6-0.6s0.6,0.2,0.6,0.6v1.8
						C10.6,19.2,10.4,19.4,10,19.4z"/>
				</g>
			</g>
		</g>
	</g>
</g>
</svg>
