<svg xmlns="http://www.w3.org/2000/svg" width="30" height="30" viewBox="0 0 30 30">
    <g fill="#00A04A" fill-rule="nonzero">
        <path d="M22.21 24H8.79C7.248 24 6 22.714 6 21.122v-9.244C6 10.286 7.247 9 8.79 9h13.42C23.752 9 25 10.286 25 11.878v9.244C25 22.714 23.753 24 22.21 24zM8.79 10.163c-.89 0-1.662.796-1.662 1.715v9.244c0 .919.772 1.715 1.663 1.715h13.418c.891 0 1.663-.796 1.663-1.715v-9.244c0-.919-.772-1.715-1.663-1.715H8.791z"/>
        <path d="M7 15h18v1H7z"/>
        <path d="M11.9 16.9c-.386 0-.579-.2-.579-.45v-1.9c0-.3.258-.45.579-.45.386 0 .579.2.579.45v1.9c0 .25-.258.45-.579.45zM19.1 16.9c-.386 0-.579-.2-.579-.45v-1.9c0-.3.258-.45.579-.45.321 0 .579.2.579.45v1.9c.064.25-.193.45-.579.45zM11 10V8.06C11 6.91 12.007 6 13.284 6h4.432C18.993 6 20 6.91 20 8.06V10h-1.276V8.06c0-.484-.403-.908-1.008-.908h-4.432c-.538 0-1.008.363-1.008.909V10H11z"/>
    </g>
</svg>
