<?xml version="1.0" encoding="utf-8"?>
<!-- Generator: Adobe Illustrator 15.1.0, SVG Export Plug-In . SVG Version: 6.00 Build 0)  -->
<!DOCTYPE svg PUBLIC "-//W3C//DTD SVG 1.1//EN" "http://www.w3.org/Graphics/SVG/1.1/DTD/svg11.dtd">
<svg version="1.1" id="Isolation_Mode" xmlns="http://www.w3.org/2000/svg" xmlns:xlink="http://www.w3.org/1999/xlink" x="0px"
	 y="0px" width="34.334px" height="56.667px" viewBox="11.5 9.167 34.334 56.667" enable-background="new 11.5 9.167 34.334 56.667"
	 xml:space="preserve">
<path fill="none" stroke="#31a147" stroke-width="2.276" stroke-miterlimit="10" d="M40.075,64.441H12.911V14.886
	c0-2.432,1.972-4.404,4.405-4.404h22.759c2.433,0,4.405,1.973,4.405,4.404v45.152C44.48,62.47,42.508,64.441,40.075,64.441z"/>
<line fill="none" stroke="#31a147" stroke-width="2.276" stroke-miterlimit="10" x1="12.911" y1="19.169" x2="44.48" y2="19.169"/>
<line fill="none" stroke="#31a147" stroke-width="2.276" stroke-miterlimit="10" x1="12.911" y1="51.35" x2="44.48" y2="51.35"/>
<line fill="none" stroke="#31a147" stroke-width="2.276" stroke-linecap="round" stroke-miterlimit="10" x1="23.557" y1="14.519" x2="29.797" y2="14.519"/>
<line fill="none" stroke="#31a147" stroke-width="2.276" stroke-linecap="round" stroke-miterlimit="10" x1="25.392" y1="57.345" x2="31.633" y2="57.345"/>
<line fill="none" stroke="#31a147" stroke-width="2.276" stroke-linecap="round" stroke-linejoin="round" stroke-miterlimit="10" x1="32.825" y1="14.519" x2="33.102" y2="14.519"/>
<path fill="none" stroke="#31a147" stroke-width="2.276" stroke-linecap="round" stroke-miterlimit="10" d="M17.753,45.587
	L17.753,45.587c-1.915-1.915-1.915-5.021,0-6.935l14.951-14.951c1.915-1.915,5.021-1.915,6.935,0s1.914,5.021,0,6.935L24.688,45.587
	C22.772,47.501,19.668,47.501,17.753,45.587z"/>
<line fill="none" stroke="#31a147" stroke-width="2.276" stroke-linecap="round" stroke-miterlimit="10" x1="28.705" y1="27.7" x2="35.641" y2="34.635"/>
<line fill="none" stroke="#31a147" stroke-width="2.276" stroke-linecap="round" stroke-miterlimit="10" x1="22.017" y1="34.389" x2="28.95" y2="41.324"/>
<line fill="none" stroke="#31a147" stroke-width="2.276" stroke-linecap="round" stroke-linejoin="round" stroke-miterlimit="10" x1="28.805" y1="32.323" x2="28.73" y2="32.251"/>
<line fill="none" stroke="#31a147" stroke-width="2.276" stroke-linecap="round" stroke-linejoin="round" stroke-miterlimit="10" x1="31.089" y1="34.608" x2="31.018" y2="34.537"/>
<line fill="none" stroke="#31a147" stroke-width="2.276" stroke-linecap="round" stroke-linejoin="round" stroke-miterlimit="10" x1="26.64" y1="34.487" x2="26.566" y2="34.415"/>
<line fill="none" stroke="#31a147" stroke-width="2.276" stroke-linecap="round" stroke-linejoin="round" stroke-miterlimit="10" x1="28.925" y1="36.772" x2="28.854" y2="36.701"/>
<polyline fill="none" stroke="#31a147" stroke-width="2.276" stroke-linecap="round" stroke-linejoin="round" stroke-miterlimit="10" points="
	31.633,39.537 32.732,40.956 38.029,40.59 34.969,44.98 40.477,46.359 "/>
<line fill="none" stroke="#31a147" stroke-width="2.276" stroke-linecap="round" stroke-linejoin="round" stroke-miterlimit="10" x1="18.328" y1="23.356" x2="25.117" y2="30.8"/>
</svg>
