<?xml version="1.0" encoding="utf-8"?>
<!-- Generator: Adobe Illustrator 21.0.2, SVG Export Plug-In . SVG Version: 6.00 Build 0)  -->
<svg version="1.1" id="Layer_1" xmlns="http://www.w3.org/2000/svg" xmlns:xlink="http://www.w3.org/1999/xlink" x="0px" y="0px"
	 viewBox="0 0 257 187" style="enable-background:new 0 0 257 187;" xml:space="preserve">
<style type="text/css">
	.st0{fill:#0AA94B;}
</style>
<title>500MB</title>
<desc>Created with Sketch.</desc>
<g>
	<path class="st0" d="M102.8,73.2c-0.7-0.7-1.4-1.2-2.3-1.7s-1.7-0.7-2.8-0.7h-0.5h-0.5h-0.3L96.1,71l0.5-4.2h7.5v-5l-12.2,0.5
		L90.5,76l3.7,0.5l0.3-0.5l0.5-0.3l0.7-0.2h0.7l1.2,0.3l1,0.7l0.7,1.2c0.2,0.3,0.2,0.9,0.2,1.4s0,0.9-0.2,1.4l-0.7,1l-1,0.7
		l-1.2,0.2l-1-0.2l-1-0.5l-0.9-0.9l-0.9-1l-3.1,3.3c0.3,0.7,0.9,1.2,1.4,1.7s1,1,1.7,1.4c0.7,0.3,1.4,0.7,2.1,0.9s1.6,0.3,2.3,0.3
		c1.2,0,2.3-0.2,3.3-0.5s1.9-1,2.6-1.7s1.2-1.6,1.6-2.6c0.3-1,0.5-2.3,0.5-3.5s-0.2-2.3-0.5-3.3C104.1,74.8,103.5,73.9,102.8,73.2z"
		/>
	<path class="st0" d="M121.5,63.8c-0.7-1.2-1.6-2.1-2.6-2.8c-1.2-0.7-2.3-1-3.7-0.9c-1.2,0-2.4,0.3-3.5,1c-1,0.7-1.9,1.6-2.6,2.8
		c-0.7,1.2-1.2,2.6-1.6,4.2c-0.3,1.6-0.5,3.3-0.5,5.2c0,1.9,0.2,3.7,0.5,5.2c0.3,1.6,0.9,3,1.6,4.2s1.6,2.1,2.6,2.8
		c0.9,0.5,2.1,1,3.5,1s2.6-0.3,3.7-0.9c1-0.7,1.9-1.6,2.6-2.8c0.7-1.2,1.2-2.6,1.6-4.2c0.3-1.6,0.5-3.5,0.5-5.4s-0.2-3.8-0.5-5.4
		C122.7,66.5,122.1,65.1,121.5,63.8z M118,76.5c0,0.9-0.3,1.7-0.5,2.4s-0.5,1.2-0.9,1.6c-0.7,0.3-0.9,0.5-1.4,0.5s-1-0.2-1.4-0.5
		c-0.3-0.3-0.7-0.9-0.9-1.6c-0.2-0.7-0.3-1.4-0.5-2.4s-0.2-2.1-0.2-3.3c0-1.2,0-2.3,0.2-3.3c0-0.9,0.2-1.7,0.5-2.4
		c0.2-0.7,0.5-1.2,0.9-1.6c0.5-0.3,0.9-0.5,1.4-0.5s1,0.2,1.4,0.5c0.3,0.3,0.7,0.9,0.9,1.6c0.2,0.7,0.3,1.4,0.5,2.4s0.2,2.1,0.2,3.3
		C118.1,74.5,118.1,75.5,118,76.5z"/>
	<path class="st0" d="M139.5,64c-0.7-1.4-1.7-2.3-2.8-3c-1-0.7-2.3-1-3.8-1s-2.8,0.5-3.8,1s-1.9,1.6-2.6,2.8
		c-0.7,1.2-1.2,2.8-1.6,4.3c-0.3,1.6-0.5,3.5-0.5,5.4s0.2,3.8,0.5,5.4c0.3,1.7,0.9,3.1,1.6,4.3c0.7,1.2,1.6,2.3,2.6,3
		c1.2,0.7,2.4,1.2,3.8,1.2s2.8-0.2,3.8-0.9c1-0.7,2.1-1.6,2.8-2.8c0.9-1.2,1.4-2.8,1.7-4.3c0.3-1.7,0.5-3.5,0.5-5.6
		s-0.2-3.8-0.5-5.6C140.9,66.8,140.2,65.2,139.5,64z M136.1,77.1c0,1-0.3,1.9-0.5,2.6c-0.3,0.7-0.7,1.2-1,1.6
		c-0.5,0.3-0.9,0.3-1.4,0.3s-1-0.2-1.4-0.5c-0.5-0.3-0.9-0.9-1-1.6c-0.2-0.7-0.3-1.6-0.5-2.6s-0.2-2.1-0.2-3.3c0-1.2,0-2.3,0.2-3.3
		c0-0.9,0.2-1.7,0.5-2.4c0.3-0.7,0.7-1.2,1-1.6c0.3-0.3,0.9-0.5,1.4-0.5s1,0.2,1.4,0.5c0.5,0.3,0.7,0.9,1,1.6
		c0.2,0.7,0.3,1.6,0.5,2.6c0.2,0.9,0.2,2.1,0.2,3.3C136.2,75,136.2,76,136.1,77.1z"/>
	<polygon class="st0" points="151.7,66.3 148.4,60 145.1,60 145.1,73.8 147.9,73.8 147.9,64.7 150.7,69.9 152.8,69.9 155.5,64.7 
		155.5,73.9 158.5,73.9 158.5,60 155,60 	"/>
	<path class="st0" d="M170.5,67.3l-0.7-0.7l-0.9-0.5l0.3,0.2l0.5-0.7l0.3-0.9l0.2-1c0-0.5-0.2-1-0.3-1.6l-0.9-1.2
		c-0.3-0.3-0.7-0.5-1.2-0.7s-1-0.3-1.7-0.3h-5.2v13.9h5.9c0.7,0,1.2,0,1.7-0.3c0.5-0.2,0.9-0.5,1.4-0.9c0.3-0.3,0.7-0.9,0.9-1.4
		s0.3-1,0.3-1.6l-0.2-1.2L170.5,67.3z M163.9,63h1.9v-0.3l0.5,0.2l0.5,0.3l0.3,0.5l0.2,0.7l-0.2,0.7l-0.3,0.5l-0.5,0.3h-0.5h-1.9V63
		z M167.7,70.6l-0.3,0.5l-0.5,0.3l-0.5,0.2l-2.3-0.2v-3.3h2.3l0.5,0.2l0.5,0.3l0.3,0.5l0.2,0.7L167.7,70.6z"/>
	<rect x="117.6" y="35.1" class="st0" width="4.2" height="14.6"/>
	<path class="st0" d="M125.6,44.7c0,0.9,0.2,1.6,0.3,2.3c0.3,0.5,0.7,1,1,1.6c0.3,0.5,0.9,0.9,1.6,1c0.5,0.2,1.2,0.3,2.1,0.3h0.7
		h0.7l0.5-0.2l0.5-0.2v-3.8h-0.3h-0.3h-0.3h-0.3h-0.9l-0.5-0.3l-0.3-0.5l-0.2-0.7v-5.4l3-0.2v-4l-3,0.2v-4.3l-4.2,0.5v3.8h-1.9v4
		h1.9v5.9H125.6z"/>
	<path class="st0" d="M147.2,47.8c0.5-0.3,1-0.7,1.4-1.2l-2.4-2.6l-0.9,0.7l-0.9,0.5l-1,0.3l-1,0.2c-0.5,0-1,0-1.4-0.2l-1-0.5
		l-0.7-0.9c-0.2-0.3-0.3-0.7-0.3-1.2l10.8-0.3v-0.3V42v-0.3v-0.3c0-1-0.3-2.1-0.9-3.1c-0.3-0.9-0.9-1.7-1.6-2.4
		c-0.7-0.7-1.6-1.2-2.4-1.6c-0.9-0.3-1.9-0.5-3-0.5c-1.2,0-2.3,0.3-3.1,0.7c-0.9,0.3-1.7,1-2.4,1.7c-0.7,0.9-1.2,1.7-1.6,2.6
		c-0.3,1-0.5,1.9-0.5,3.1s0.2,2.3,0.5,3.1c0.3,0.9,0.9,1.7,1.6,2.4c0.5,0.7,1.4,1.2,2.4,1.6c1,0.3,2.1,0.5,3.3,0.5
		c0.7,0,1.4,0,1.9-0.2c0.7-0.2,1.2-0.3,1.7-0.5C146.2,48.5,146.7,48.2,147.2,47.8z M138.5,40.2l0.3-1.2l0.7-0.9l1-0.5l1-0.2l1.2,0.2
		l0.9,0.5l0.7,0.9l0.3,1L138.5,40.2z"/>
	<path class="st0" d="M112.2,49.2c0.7-0.3,1.2-0.7,1.7-1.2c0.3-0.3,0.7-1,1-1.7c0.2-0.7,0.3-1.4,0.3-2.3c0-0.5,0-1-0.2-1.6
		c-0.2-0.5-0.3-1-0.7-1.4l-1-1l-1.2-0.5l0.9-0.7l0.7-0.9l0.5-1c0.2-0.5,0.2-0.9,0.2-1.4c0-0.7-0.2-1.4-0.3-2.1c-0.2-0.5-0.5-1-1-1.6
		c-0.5-0.5-1-0.9-1.7-1c-0.7-0.3-1.4-0.3-2.3-0.3l-6.6,0.3v19.1l7.5-0.2C110.8,49.8,111.5,49.6,112.2,49.2z M106.3,34.3l2.4-0.2
		l0.7,0.2l0.5,0.3l0.3,0.7l0.2,0.9l-0.2,0.9l-0.3,0.7l-0.5,0.3l-0.7,0.2h-2.4V34.3z M106.3,46.1v-4.5h3l0.7,0.2l0.5,0.5l0.3,0.7
		l0.2,0.9l-0.2,0.9l-0.3,0.7L110,46l-0.7,0.2h-3V46.1z"/>
	<polygon class="st0" points="118.1,33.1 118.8,33.6 119.7,33.7 120.6,33.7 121.3,33.2 121.8,32.4 122,31.3 121.8,30.3 121.3,29.6 
		120.6,29.1 119.7,28.9 118.8,29.1 118.1,29.6 117.6,30.4 117.5,31.5 117.6,32.4 	"/>
	<path class="st0" d="M183.7,8.7c-0.9-1.7-2.1-3.5-3.5-4.9s-3.1-2.4-5-3.1c-1.9-0.5-3.8-0.9-6.1-0.7L87.5,6.8
		c-1.6,0.2-3.3,0.7-4.7,1.6c-1.4,0.7-2.8,1.9-3.8,3.3s-1.9,3-2.6,4.7c-0.5,1.7-0.9,3.7-0.9,5.6v94.6v2.1v55.4
		c-2.1,1.2-3.5,3.4-3.5,6c0,3.8,3.1,7,7,7c3.8,0,7-3.1,7-7c0-2.6-1.4-4.8-3.5-6v-54.8l86.6,7.6c2.1,0.2,4.2,0,6.1-0.7
		c1.9-0.7,3.7-1.7,5-3.1c1.6-1.4,2.6-3.1,3.5-5c0.7-1.9,1.2-4,1.2-6.3V15C184.9,12.7,184.6,10.7,183.7,8.7z M176.8,111.5
		c0,1.2-0.3,2.3-0.7,3.1c-0.3,0.9-1,1.7-1.7,2.4c-0.7,0.7-1.6,1.2-2.4,1.6c-1,0.3-2.1,0.5-3.1,0.3l-87.5-6.6V22c0-1,0.2-1.9,0.5-2.8
		s0.9-1.7,1.4-2.4c0.5-0.7,1.2-1.4,1.9-1.7c0.7-0.3,1.6-0.7,2.4-0.7L169,8.3c1.2-0.2,2.3,0,3.1,0.3c0.9,0.3,1.7,0.9,2.4,1.6
		s1.4,1.6,1.7,2.4c0.5,0.9,0.7,1.9,0.7,3.1L176.8,111.5z"/>
</g>
</svg>
