<?xml version="1.0" encoding="utf-8"?>
<!-- Generator: Adobe Illustrator 21.1.0, SVG Export Plug-In . SVG Version: 6.00 Build 0)  -->
<svg version="1.1" id="图层_1" xmlns="http://www.w3.org/2000/svg" xmlns:xlink="http://www.w3.org/1999/xlink" x="0px" y="0px"
	 viewBox="0 0 32 32" style="enable-background:new 0 0 32 32;" xml:space="preserve">
<style type="text/css">
	.st0{fill:#00a04a;}
</style>
<g>
	<g>
		<g>
			<path class="st0" d="M21.9,30.3L21.9,30.3c-1.5,0-3-0.5-4.2-1.3c-3.5-2.5-5.9-4.7-7.9-6.7s-4.2-4.4-6.7-7.9
				C0.6,11,1.6,6.6,5.5,2.6c1.2-1.2,3.2-1.2,4.4,0l2.3,2.3c0.5,0.5,0.8,1.3,0.8,2.2s-0.3,1.7-0.8,2.2l-1,1c-0.3,0.3-0.2,0.8,0,1.2
				c1.2,1.5,3.2,3.7,4.4,4.7c1.2,1.2,3.2,3.2,4.7,4.4c0.3,0.3,0.8,0.3,1.2,0l1-1c1.2-1.2,3.2-1.2,4.4,0l2.3,2.3
				c0.5,0.5,0.8,1.3,0.8,2.2c0,0.8-0.3,1.7-0.8,2.2C27,28.9,24.5,30.3,21.9,30.3z M7.7,3.4c-0.3,0-0.7,0.2-1,0.3
				c-3.4,3.4-4,6.9-2.2,9.6C7,16.8,9,19,11,21s4.2,4,7.7,6.5c2.7,1.8,6.2,1.2,9.6-2.2c0.3-0.3,0.3-0.7,0.3-1c0-0.3-0.2-0.7-0.3-1
				L25.8,21c-0.5-0.5-1.5-0.5-2,0l-1,1c-0.8,0.8-2.2,0.8-3.4,0c-1.7-1.2-3.7-3.4-4.9-4.5c-1.2-1.2-3.4-3.4-4.5-4.9
				c-0.8-1.2-0.8-2.5,0-3.4l1-1c0.3-0.3,0.3-0.7,0.3-1c0-0.3-0.2-0.7-0.3-1L8.7,3.9C8.4,3.6,8,3.4,7.7,3.4z"/>
		</g>
	</g>
</g>
</svg>
