<?xml version="1.0" encoding="utf-8"?>
<!-- Generator: Adobe Illustrator 15.1.0, SVG Export Plug-In . SVG Version: 6.00 Build 0)  -->
<!DOCTYPE svg PUBLIC "-//W3C//DTD SVG 1.1//EN" "http://www.w3.org/Graphics/SVG/1.1/DTD/svg11.dtd">
<svg version="1.1" id="Layer_2" xmlns="http://www.w3.org/2000/svg" xmlns:xlink="http://www.w3.org/1999/xlink" x="0px" y="0px"
	 width="292px" height="254px" viewBox="0 0 292 254" enable-background="new 0 0 292 254" xml:space="preserve">
<path fill="none" stroke="#299354" stroke-width="5" stroke-miterlimit="10" d="M288.385,116.667V31.197
	c0-15.048-12.24-27.246-27.338-27.246H31.955c-15.099,0-27.339,12.198-27.339,27.246v112.716"/>
<path fill="none" stroke="#299354" stroke-width="5" stroke-miterlimit="10" d="M4.616,111.197v112.716h34.876v25.402l42.229-25.402
	h179.326c15.098,0,27.338-12.2,27.338-27.246v-85.471"/>
<g>
	<path fill="#299354" d="M121.219,118.125c0,1.875-1.52,3.394-3.393,3.394c-1.877,0-3.395-1.523-3.395-3.394
		c0-1.871,1.522-3.395,3.395-3.395S121.219,116.25,121.219,118.125"/>
	<path fill="#299354" d="M125.677,118.125c0,1.875-1.52,3.394-3.395,3.394c-1.873,0-3.39-1.523-3.39-3.394
		c0-1.871,1.52-3.395,3.39-3.395C124.159,114.73,125.677,116.25,125.677,118.125"/>
	<path fill="#299354" d="M155.4,139.129H97.761V82.072c0-7.16,5.825-12.988,12.982-12.988h71.354
		c7.159,0,12.986,5.828,12.986,12.988v40.184h-5.197V82.072c0-4.295-3.491-7.791-7.79-7.791h-71.354
		c-4.292,0-7.788,3.494-7.788,7.791v51.862h52.442L155.4,139.129L155.4,139.129z"/>
	<rect x="102.367" y="85.395" fill="#299354" width="90.677" height="5.196"/>
	<rect x="102.367" y="95.429" fill="#299354" width="90.677" height="5.194"/>
	<path fill="#299354" d="M178.79,163.309c-13.396,0-24.293-10.9-24.293-24.295c0-13.396,10.897-24.293,24.293-24.293
		c13.398,0,24.295,10.897,24.295,24.293C203.085,152.407,192.188,163.309,178.79,163.309z M178.79,119.915
		c-10.528,0-19.096,8.566-19.096,19.096c0,10.533,8.563,19.099,19.096,19.099s19.099-8.568,19.099-19.099
		C197.888,128.483,189.322,119.915,178.79,119.915z"/>
	<polygon fill="#299354" points="176.354,146.829 168.233,137.524 172.148,134.108 176.94,139.595 186.017,132.069 189.334,136.069 
			"/>
</g>
</svg>
