<?xml version="1.0" encoding="utf-8"?>
<!-- Generator: Adobe Illustrator 21.0.2, SVG Export Plug-In . SVG Version: 6.00 Build 0)  -->
<svg version="1.1" id="Layer_1" xmlns="http://www.w3.org/2000/svg" xmlns:xlink="http://www.w3.org/1999/xlink" x="0px" y="0px"
	 viewBox="0 0 257 187" style="enable-background:new 0 0 257 187;" xml:space="preserve">
<style type="text/css">
	.st0{fill:#0AA94B;}
</style>
<title>5GB</title>
<desc>Created with Sketch.</desc>
<g>
	<path class="st0" d="M130.5,67.9h3.3v2.9l-0.5,0.2l-0.5,0.2l-0.5,0.2h-0.5c-0.9,0-1.4-0.2-2.1-0.5c-0.5-0.3-1-0.7-1.6-1.2
		c-0.3-0.5-0.7-1-1-1.7c-0.2-0.7-0.3-1.4-0.3-2.3s0.2-1.6,0.3-2.3s0.5-1.2,1-1.7c0.3-0.5,0.9-0.9,1.6-1.2c0.7-0.2,1.4-0.3,2.1-0.3
		l1,0.2l1,0.3l0.9,0.5l0.9,0.7l2.1-3.1c-0.5-0.3-0.9-0.5-1.4-0.9c-0.3-0.3-0.9-0.5-1.4-0.7s-1-0.2-1.6-0.3c-0.5-0.2-1.2-0.2-1.7-0.2
		c-1.2,0-2.4,0.3-3.6,0.5c-1,0.3-1.9,1-2.8,1.9s-1.6,1.9-1.9,2.9c-0.5,1.2-0.7,2.4-0.7,3.6c0,1.4,0.2,2.6,0.7,3.6s1,2.1,1.9,2.9
		c0.7,0.9,1.7,1.6,2.8,2.1c1.2,0.5,2.4,0.9,3.6,0.9c0.5,0,1.2,0,1.7-0.2s1-0.3,1.6-0.5c0.5-0.2,1-0.3,1.6-0.7c0.5-0.3,1-0.7,1.4-1
		v-8.1h-7.3v3.3H130.5z"/>
	<path class="st0" d="M153,67l-1-0.9c-0.3-0.2-0.7-0.3-1.2-0.5l0.7-0.9l0.7-0.9l0.5-1c0.2-0.3,0.2-0.7,0.2-1.2
		c0-0.9-0.2-1.6-0.3-2.1c-0.2-0.5-0.5-1.2-1-1.6c-0.5-0.5-1-0.9-1.7-1c-0.7-0.2-1.4-0.3-2.3-0.3h-6.8v18.2l7.6,0.2
		c0.9,0,1.6-0.2,2.3-0.3c0.7-0.2,1.2-0.5,1.7-1s0.9-1,1.2-1.7c0.2-0.5,0.3-1.2,0.3-2.1c0-0.5,0-1-0.2-1.6
		C153.5,67.9,153.3,67.4,153,67z M144.9,60.4h2.4l0.7,0.2l0.5,0.3l0.3,0.5l0.2,0.9l-0.2,0.9l-0.3,0.5L148,64l-0.7,0.2h-2.4V60.4z
		 M149.4,70.5l-0.3,0.7l-0.5,0.3l-0.7,0.2l-2.9-0.2v-4.2h2.9l0.7,0.2l0.5,0.5l0.3,0.7l0.2,0.9L149.4,70.5z"/>
	<path class="st0" d="M118.2,70.5c-0.9-0.7-1.7-1.4-2.8-1.9c-1-0.3-2.1-0.7-3.3-0.7h-0.5h-0.5h-0.5l-0.5,0.2l0.5-4.8h8.8v-5.9h-14.2
		l-1.6,15.8l4.3,0.7l0.5-0.5l0.7-0.3l0.7-0.2h0.9c0.7,0,1,0.2,1.6,0.3c0.5,0.2,0.9,0.5,1.2,0.9c0.3,0.3,0.7,0.9,0.9,1.4
		c0.2,0.5,0.3,1,0.3,1.6c0,0.5-0.2,1-0.3,1.6c-0.2,0.3-0.5,0.9-0.9,1.2c-0.3,0.3-0.7,0.7-1.2,0.9c-0.5,0.2-1,0.2-1.6,0.2
		c-0.5,0-1,0-1.4-0.2c-0.5-0.2-0.9-0.5-1.2-0.7l-1-0.9c-0.2-0.3-0.5-0.7-0.9-1.2l-3.8,3.8c0.3,0.9,0.9,1.6,1.6,2.1
		c0.7,0.7,1.2,1,2.1,1.6c0.9,0.5,1.6,0.9,2.4,1c0.7,0.3,1.7,0.5,2.6,0.5c1.4,0.2,2.6-0.2,3.8-0.5c1.2-0.3,2.3-1,3.1-1.9
		c0.9-0.9,1.4-1.9,1.9-3.1c0.3-1.2,0.7-2.6,0.7-4s-0.2-2.6-0.7-3.8C119.6,72.4,118.9,71.3,118.2,70.5z"/>
	<path class="st0" d="M183.5,8.9c-0.9-1.9-2.1-3.6-3.5-5s-3.1-2.4-5-3.1s-3.8-0.9-6.1-0.7L87.7,7c-1.6,0.2-3.3,0.7-4.7,1.6
		c-1.4,0.7-2.8,1.9-3.8,3.3s-2.1,2.9-2.6,4.7c-0.5,1.7-0.9,3.6-0.9,5.5v90.5v5.8v55.8c-2.1,1.2-3.5,3.4-3.5,6c0,3.8,3.1,6.9,6.9,6.9
		s6.9-3.1,6.9-6.9c0-2.5-1.4-4.8-3.5-6V119l86.2,7.4c2.1,0.2,4.2,0,6.1-0.7c1.9-0.7,3.6-1.7,5-3.1c1.6-1.2,2.6-2.9,3.5-4.8
		c0.7-1.9,1.2-4,1.2-6.2V15.3C184.7,12.9,184.3,10.8,183.5,8.9z M176.7,110.7c0,1.2-0.3,2.3-0.9,3.3c-0.3,0.9-1,1.7-1.7,2.4
		c-0.7,0.7-1.6,1.2-2.4,1.6c-1,0.3-2.1,0.5-3.1,0.3l-87.1-6.6v-90c0-1,0.2-1.9,0.5-2.8s0.9-1.7,1.4-2.4c0.5-0.7,1.2-1.4,1.9-1.7
		c0.9-0.3,1.6-0.7,2.4-0.7l81-6.1c1.2-0.2,2.3,0,3.1,0.3c0.9,0.3,1.7,0.9,2.4,1.6s1.4,1.6,1.7,2.4c0.5,0.9,0.7,2.1,0.7,3.1v95.3
		H176.7z"/>
	<rect x="117.5" y="35.8" class="st0" width="4.2" height="14.5"/>
	<path class="st0" d="M125.6,45.4c0,0.9,0.2,1.6,0.3,2.3c0.3,0.5,0.7,1,1,1.6c0.3,0.5,0.9,0.9,1.6,1c0.5,0.2,1.2,0.3,2.1,0.3h0.7
		h0.7l0.5-0.2l0.5-0.2v-3.8h-0.3h-0.3h-0.3h-0.3h-0.9l-0.5-0.3l-0.3-0.5l-0.2-0.7v-5.4l2.9-0.2v-4l-2.9,0.2v-4.3l-4.2,0.5v3.8h-1.9
		v4h1.9v5.9H125.6z"/>
	<path class="st0" d="M143.7,49.9c0.7-0.2,1.2-0.3,1.7-0.5s1-0.5,1.6-0.9c0.5-0.3,1-0.7,1.4-1.2l-2.4-2.6l-0.9,0.7l-0.9,0.5l-1,0.3
		l-1,0.2c-0.5,0-1,0-1.4-0.2l-1-0.5l-0.7-0.9c-0.2-0.3-0.3-0.7-0.3-1.2l10.7-0.3V43v-0.3v-0.3v-0.3c0-1-0.2-2.1-0.9-3.1
		c-0.3-0.9-0.9-1.7-1.6-2.4c-0.7-0.7-1.6-1.2-2.4-1.6c-0.9-0.3-1.9-0.5-2.9-0.5c-1.2,0-2.3,0.3-3.1,0.7c-0.9,0.3-1.7,1-2.4,1.7
		c-0.7,0.9-1.2,1.7-1.6,2.6c-0.3,1-0.5,1.9-0.5,3.1s0.2,2.3,0.5,3.1c0.3,0.9,0.9,1.7,1.6,2.4c0.5,0.7,1.4,1.2,2.4,1.6
		c1,0.3,2.1,0.5,3.3,0.5C142.4,50,143.1,50,143.7,49.9z M138.8,39.7l0.7-0.9l1-0.5l1-0.2l1.2,0.2l0.9,0.5l0.7,0.9l0.3,1l-6.2,0.2
		L138.8,39.7z"/>
	<path class="st0" d="M112.1,49.9c0.7-0.3,1.2-0.7,1.7-1.2c0.3-0.3,0.7-1,1-1.7c0.2-0.7,0.3-1.4,0.3-2.3c0-0.5,0-1-0.2-1.6
		c-0.2-0.5-0.3-1-0.7-1.4l-1-1l-1.2-0.5l0.9-0.7l0.7-0.9l0.5-1c0.2-0.5,0.2-0.9,0.2-1.4c0-0.7-0.2-1.4-0.3-2.1c-0.2-0.5-0.5-1-1-1.6
		c-0.5-0.5-1-0.9-1.7-1c-0.7-0.3-1.4-0.3-2.3-0.3l-6.6,0.3v19l7.4-0.2C110.8,50.4,111.4,50.2,112.1,49.9z M106.3,35l2.4-0.2l0.7,0.2
		l0.5,0.3l0.3,0.7l0.2,0.9l-0.2,0.9l-0.3,0.7l-0.5,0.3l-0.7,0.2h-2.4V35z M106.3,46.8v-4.5h2.9l0.7,0.2l0.5,0.5l0.3,0.7l0.2,0.9
		l-0.2,0.9l-0.3,0.7l-0.5,0.5l-0.7,0.2h-2.9V46.8z"/>
	<polygon class="st0" points="121.1,30.3 120.4,29.8 119.6,29.6 118.7,29.8 118,30.3 117.5,31.2 117.3,32.2 117.5,33.1 118,33.8 
		118.7,34.3 119.6,34.5 120.4,34.5 121.1,33.9 121.7,33.1 121.8,32 121.7,31 	"/>
</g>
</svg>
