<svg xmlns="http://www.w3.org/2000/svg" width="30" height="30" viewBox="0 0 30 30">
    <g fill="none" fill-rule="evenodd">
        <path stroke="#00A04A" d="M16.931 19.023l-.068 6.035c0 1.11-.892 1.942-1.922 1.942L3 26.93l.137-21.988C3.137 3.832 4.03 3 5.06 3l10.02.07C16.175 3.07 17 3.97 17 5.011v4.023M3 7h14M3 22h14"/>
        <path stroke="#00A04A" stroke-linecap="round" d="M8 5h3M9 24h3"/>
        <path stroke="#00A04A" stroke-linecap="round" stroke-linejoin="round" d="M13 5h.1"/>
        <g fill="#00A04A" fill-rule="nonzero">
            <path d="M13.53 11.067c.07 0 .282 0 .352.066.142.134.142.4 0 .6L11.06 14.4c-.141.133-.141.4 0 .6l2.823 2.667c.142.133.142.4 0 .6-.14.133-.423.133-.635 0L10.424 15.6c-.495-.467-.495-1.2 0-1.733l2.823-2.667c.07-.133.141-.133.282-.133z"/>
            <path d="M10.988 14.333h10.306c.282 0 .424.134.424.4 0 .267-.142.4-.424.4H10.988c-.282 0-.423-.133-.423-.4 0-.2.14-.4.423-.4z"/>
        </g>
        <path stroke="#00A04A" d="M20 17.976v3.804c0 .646.525 1.22 1.115 1.22H28V9.22C28 8.574 27.475 8 26.885 8h-5.77C20.525 8 20 8.574 20 9.22v2.512M28 11h-8M28 19h-8"/>
        <path stroke="#00A04A" stroke-linecap="round" d="M25 21h-2"/>
    </g>
</svg>
