<?xml version="1.0" encoding="utf-8"?>
<!-- Generator: Adobe Illustrator 15.1.0, SVG Export Plug-In . SVG Version: 6.00 Build 0)  -->
<!DOCTYPE svg PUBLIC "-//W3C//DTD SVG 1.1//EN" "http://www.w3.org/Graphics/SVG/1.1/DTD/svg11.dtd">
<svg version="1.1" id="图层_1" xmlns="http://www.w3.org/2000/svg" xmlns:xlink="http://www.w3.org/1999/xlink" x="0px" y="0px"
	 width="198.229px" height="136.348px" viewBox="0 0 198.229 136.348" enable-background="new 0 0 198.229 136.348"
	 xml:space="preserve">
<g>
	<g>
		<g>
			<g>
				<path fill="#00a04a" d="M181.241,114.578V103.12c3.125,0,5.208-2.083,5.208-5.208V78.121L173.95,46.873
					c-4.167-10.416-13.541-16.666-23.958-16.666h-15.624l-5.208-10.417h20.832c15.625,0,29.166,9.375,34.374,22.916l12.5,31.248
					c1.042,2.083,1.042,3.125,1.042,5.208v19.791c0,8.333-7.292,15.624-15.624,15.624H181.241z"/>
			</g>
			<g>
				<path fill="#00a04a" d="M135.41,109.37c0-14.583,11.458-26.04,26.041-26.04s26.041,11.458,26.041,26.04c0,14.583-11.458,26.041-26.041,26.041
					S135.41,123.953,135.41,109.37z M145.826,109.37c0,8.333,7.292,15.625,15.625,15.625s15.624-7.292,15.624-15.625
					s-7.291-15.624-15.624-15.624S145.826,101.037,145.826,109.37z"/>
			</g>
			<g>
				<path fill="#00a04a" d="M26.041,114.578H15.624C7.292,114.578,0,107.287,0,98.954V26.041C0,11.458,11.458,0,26.041,0h83.329
					c14.583,0,26.041,11.458,26.041,26.041v83.329c0,3.125-2.083,5.208-5.208,5.208H67.705v-10.416h57.289V26.041
					c0-8.333-7.292-15.625-15.625-15.625H26.041c-8.333,0-15.625,7.292-15.625,15.625v72.913c0,3.125,2.083,5.208,5.208,5.208
					h10.417V114.578z"/>
			</g>
			<g>
				<path fill="#00a04a" d="M20.833,109.37c0-14.583,11.458-26.04,26.04-26.04c14.583,0,26.041,11.458,26.041,26.04
					c0,14.583-11.458,26.041-26.041,26.041C32.29,135.41,20.833,123.953,20.833,109.37z M31.249,109.37
					c0,8.333,7.292,15.625,15.624,15.625c8.333,0,15.625-7.292,15.625-15.625s-7.292-15.624-15.625-15.624
					C38.54,93.746,31.249,101.037,31.249,109.37z"/>
			</g>
		</g>
		<g>
			<path fill="#00a04a" d="M140.618,114.578h-10.416c-3.125,0-5.208-2.083-5.208-5.208c0-3.125,2.083-5.208,5.208-5.208h10.416V114.578z"/>
		</g>
	</g>
</g>
</svg>
