<svg id="Outlined_Gesture_Icons" data-name="Outlined Gesture Icons" xmlns="http://www.w3.org/2000/svg" viewBox="0 0 67.5 88.22"><defs><style>.cls-1{fill:none;stroke:#fff;stroke-linecap:round;stroke-linejoin:round;stroke-width:2.62px;}</style></defs><title>icon-drag</title><polyline class="cls-1" points="13.42 8.52 46.25 9.57 47.59 1.31 66.19 14.69 48.47 28.76 46.98 19.81 18.12 21.8"/><path class="cls-1" d="M22.33,38.93c2.87-3.51,8.41-2,10.06,1.51A5.4,5.4,0,0,1,41,42.18c3.82-2.57,6.35,2.31,7.66,6.81.54,2.13,2.15,6.44,2.49,10.73a36.64,36.64,0,0,1-2,14.53c-2.26,6.72-5.77,9.1-10.6,11.12C32.38,88,24.33,86.83,19.47,85A26.29,26.29,0,0,1,8.76,77.7,45.38,45.38,0,0,1,3.11,67.47,38.62,38.62,0,0,1,1.37,53.6c.29-6.19,5.48-7.47,9.91-7.47,1.91,0,1.49,17.35,2.17,15.15.47-1.53.25-3.3-1.19-12.37-.28-1.77-1.09-8-2.2-13C9,31.24,7.52,24.6,6.67,21.6c-.85-4.07-1.53-7.12-1.19-9,1.22-6.7,8.34-5.82,9.28-1.7s3.08,10,3.81,12.88A129.44,129.44,0,0,1,21.92,39.2Z" transform="translate(0)"/></svg>