<svg id="Isolation_Mode" data-name="Isolation Mode" xmlns="http://www.w3.org/2000/svg" viewBox="0 0 14.79 13.94"><defs><style>.cls-1{fill:none;stroke:#999;stroke-linecap:round;stroke-miterlimit:10;}</style></defs><title>Vector Smart Object</title><path class="cls-1" d="M9.93.56,2.19.54A1.18,1.18,0,0,0,1,1.71L1,7.18H2.12v2L5,7.19H9.92A1.18,1.18,0,0,0,11.09,6V1.74A1.18,1.18,0,0,0,9.93.56Z" transform="translate(-0.5 -0.04)"/><path class="cls-1" d="M7.38,8.46v3.1h3.91L13.47,13V11.58h.13a1.18,1.18,0,0,0,1.18-1.17V8.49a1.18,1.18,0,0,0-1.17-1.18H8.56A1.18,1.18,0,0,0,7.38,8.46Z" transform="translate(-0.5 -0.04)"/></svg>