<?xml version="1.0" encoding="utf-8"?>
<!-- Generator: Adobe Illustrator 21.0.2, SVG Export Plug-In . SVG Version: 6.00 Build 0)  -->
<svg version="1.1" id="Layer_1" xmlns="http://www.w3.org/2000/svg" xmlns:xlink="http://www.w3.org/1999/xlink" x="0px" y="0px"
	 viewBox="0 0 25 20" style="enable-background:new 0 0 25 20;" xml:space="preserve">
<style type="text/css">
	.st0{fill:#ffffff;}
</style>
<path class="st0" d="M17.9,5.5c4.4,0.1,7,2.8,4.1,6.5c-1.4,1.7-3.6,3.4-6.7,4.5c-0.1,0.1-0.3,0.1-0.4,0.2c-0.3,0.1-0.6,0.2-0.9,0.3
	c-0.7,0.2-1.3,0.4-1.9,0.5c-0.7,0.1-1.3,0.2-1.9,0.3c-0.4,0-0.9,0.1-1.3,0.1c-2.8,0.1-5-0.7-5.7-2.4c-0.8-2,0.9-4.8,4.3-6.9
	c-2.5,1-7.1,3.4-7.3,6.8v0.4c0,0.3,0.1,0.7,0.2,1.1c0.7,2.3,4.1,3.4,8.5,3c0.4,0,0.9-0.1,1.3-0.2c0.6-0.1,1.3-0.2,1.9-0.4
	c0.6-0.2,1.3-0.3,1.9-0.5c0.1-0.1,0.3-0.1,0.4-0.1c0.3-0.1,0.6-0.2,0.9-0.3c3.8-1.4,6.6-3.2,8.2-5.3c0.9-1.2,1.4-2.3,1.5-3.3V9.1
	C24.7,6.6,21.8,5.1,17.9,5.5z M15,4.3c0.1,0,0.2,0,0.3,0c0.6-0.2,0.9-0.8,1-1.6c0-0.8-0.3-1.6-1-1.7c-0.1,0-0.1,0-0.2,0
	c-0.6,0-0.9,0.3-1.1,0.8c-0.1,0.3-0.2,0.5-0.2,0.8c0,0.4,0,0.7,0.2,1C14.2,4,14.5,4.3,15,4.3z M15,4.6c-0.3,0-0.5,0-0.7,0.1l0.1,0.1
	l0.1,0.2l0.1,0.2l0.1,0.2l0.1,0.2l0,0.2l0,0.2l0,0.2v0.2l0,0.2l0,0.2l0,0.2l0,0.2l0,0.2l0,0.2l0,0.2l-0.1,0.2l0,0.2l-0.1,0.2
	l-0.1,0.2L14.2,9l0,0.2l0,0.2l0,0.1l0,0.1l0,0.1l0,0.1l0,0.1l0,0.1v0l0,0.2l-0.1,0.2l0,0.2l0,0.2l0,0.2l0,0.2l0,0.2l0,0.2l0,0.2
	l0,0.2l0,0.2v0c0,0.5,0.1,1,0.1,1.2c0,0.3,0.1,0.5,0.2,0.6c0.1,0.2,0.4,0.3,0.7,0.3c0.3,0,0.5-0.1,0.6-0.2c0.1-0.1,0.2-0.4,0.3-0.7
	c0.1-0.7,0.4-3.2,0.7-4.2c0.4-1.5,1.4-4.2-1-4.4C15.2,4.6,15.1,4.6,15,4.6z M12,3.8L12,3.8c0.9,0,1.4-0.9,1.4-1.9
	C13.4,0.9,13,0,12,0h0c-0.9,0-1.4,0.9-1.4,1.9S11.1,3.8,12,3.8z M10.1,8.2c0.1,0.4,0.2,0.7,0.2,1c0.3,1.2,0.6,4,0.7,4.8
	c0.1,0.8,0.4,1,1,1.1c0.6-0.1,0.9-0.2,1-1.1c0.1-0.8,0.4-3.6,0.7-4.8c0.1-0.3,0.2-0.6,0.3-1c0.3-1.1,0.5-2.4,0-3.2
	c-0.3-0.5-0.9-0.9-1.9-0.9c-1,0-1.6,0.4-1.9,0.9C9.6,5.8,9.8,7.1,10.1,8.2z M8.8,4.3c0.1,0,0.2,0,0.3,0c0.5,0,0.8-0.3,1-0.7
	c0.1-0.3,0.2-0.6,0.2-1c0-0.3-0.1-0.6-0.2-0.8C9.9,1.3,9.6,1,9,1C8.9,1,8.9,1,8.8,1c-0.7,0.1-1,0.8-1,1.7C7.9,3.4,8.2,4.1,8.8,4.3z
	 M8.5,13.2c0.1,0.4,0.1,0.6,0.3,0.7c0.2,0.1,0.4,0.2,0.6,0.2c0.3,0,0.5-0.1,0.7-0.3c0.1-0.1,0.1-0.3,0.2-0.6c0-0.3,0.1-0.7,0.1-1.2
	v0l0-0.2l0-0.2l0-0.2l0-0.2l0-0.2l0-0.2l0-0.2l0-0.2l0-0.2l0-0.2l0-0.2v0l0-0.1l0-0.1l0-0.1l0-0.1l0-0.1l0-0.1l0-0.2L9.9,9l0-0.2
	L9.8,8.6L9.8,8.4L9.7,8.2l0-0.2L9.6,7.8l0-0.2l0-0.2l0-0.2l0-0.2l0-0.2l0-0.2V6.2l0-0.2l0-0.2l0-0.2l0.1-0.2l0.1-0.2L9.7,5l0.1-0.2
	l0.1-0.1C9.7,4.6,9.4,4.6,9.2,4.6c-0.1,0-0.2,0-0.3,0c-2.4,0.2-1.4,2.9-1,4.4C8.1,10.1,8.4,12.5,8.5,13.2z"/>
</svg>
