<?xml version="1.0" encoding="utf-8"?>
<!-- Generator: Adobe Illustrator 21.1.0, SVG Export Plug-In . SVG Version: 6.00 Build 0)  -->
<svg version="1.1" id="图层_1" xmlns="http://www.w3.org/2000/svg" xmlns:xlink="http://www.w3.org/1999/xlink" x="0px" y="0px"
	 viewBox="0 0 36 36" style="enable-background:new 0 0 36 36;" xml:space="preserve">
<style type="text/css">
	.st0{fill:#00A04A;}
</style>
<g>
	<g>
		<g>
			<path class="st0" d="M18,36C8,36,0,28,0,18S8,0,18,0s18,8,18,18S28,36,18,36z M18,2.1C9.3,2.1,2.1,9.3,2.1,18S9.3,33.9,18,33.9
				S33.9,26.7,33.9,18S26.7,2.1,18,2.1z"/>
		</g>
		<g>
			<path class="st0" d="M16.3,23.3c-0.8,0-1.5-0.2-1.9-0.8l-2.3-2.3c-0.4-0.4-0.4-1.1,0-1.5c0.4-0.4,1.1-0.4,1.5,0l2.3,2.3
				c0.2,0.2,0.2,0.2,0.4,0.2l0,0c0.2,0,0.4,0,0.4-0.2l5.7-5.7c0.4-0.4,1.1-0.4,1.5,0c0.4,0.4,0.4,1.1,0,1.5l-5.7,5.7
				C17.8,22.9,17.2,23.3,16.3,23.3L16.3,23.3z"/>
		</g>
	</g>
</g>
</svg>
