<?xml version="1.0" encoding="utf-8"?>
<!-- Generator: Adobe Illustrator 21.1.0, SVG Export Plug-In . SVG Version: 6.00 Build 0)  -->
<svg version="1.1" id="Layer_1" xmlns="http://www.w3.org/2000/svg" xmlns:xlink="http://www.w3.org/1999/xlink" x="0px" y="0px"
	 viewBox="0 0 150 115" style="enable-background:new 0 0 150 115;" xml:space="preserve">
<style type="text/css">
	.st0{fill:#00973E;}
</style>
<g>
	<path class="st0" d="M21.4,92.4h-4.3c0-29.7,24.2-53.8,53.8-53.8c4.7,0,9.3,0.6,13.8,1.8c3.4,0.9,6.7,2.1,9.9,3.7l-1.9,3.8
		c-2.9-1.4-6-2.6-9.1-3.4c-4.1-1.1-8.4-1.6-12.7-1.6C43.6,42.8,21.4,65.1,21.4,92.4z"/>
	<path class="st0" d="M72.5,100c-6.3,0-11.4-5.1-11.4-11.4s5.1-11.4,11.4-11.4c6.3,0,11.4,5.1,11.4,11.4S78.8,100,72.5,100z
		 M72.5,81.4c-3.9,0-7.2,3.2-7.2,7.2s3.2,7.2,7.2,7.2c3.9,0,7.2-3.2,7.2-7.2S76.4,81.4,72.5,81.4z"/>
	<path class="st0" d="M124.8,92.4h-4.3c0-11.9-4.2-23.2-11.9-32.2L81,84.5l-2.8-3.2L109,54.3l1.4,1.5
		C119.7,65.8,124.8,78.8,124.8,92.4z"/>
	<g>
		<path class="st0" d="M113,35c1.6,3.6,5.1,6,9.2,6c2.8,0,5.6-1.3,7.6-2.9l3.1,4.3c-2.9,2.4-6.6,3.7-10.7,3.7
			c-7.6,0-13.6-4.6-15.5-11.1h-3.2v-3.2h2.6c0-0.3,0-0.8,0-1.2c0-0.4,0-0.9,0-1.2h-2.6v-3.2h3.2c1.9-6.5,8-11.1,15.5-11.1
			c4,0,7.5,1.3,10.3,3.5l-3,4.4c-2.1-1.5-4.4-2.7-7.4-2.7c-4.1,0-7.6,2.4-9.2,6h11.4v3.2h-12.3c0,0.4-0.1,0.8-0.1,1.2
			c0,0.4,0,0.8,0.1,1.2h12.3V35L113,35L113,35z"/>
	</g>
</g>
</svg>
