<?xml version="1.0" encoding="utf-8"?>
<!-- Generator: Adobe Illustrator 15.1.0, SVG Export Plug-In . SVG Version: 6.00 Build 0)  -->
<!DOCTYPE svg PUBLIC "-//W3C//DTD SVG 1.1//EN" "http://www.w3.org/Graphics/SVG/1.1/DTD/svg11.dtd">
<svg version="1.1" id="Isolation_Mode" xmlns="http://www.w3.org/2000/svg" xmlns:xlink="http://www.w3.org/1999/xlink" x="0px"
	 y="0px" width="35.139px" height="52.925px" viewBox="0 0 35.139 52.925" enable-background="new 0 0 35.139 52.925"
	 xml:space="preserve">
<path fill="#4F525A" d="M23.18,52.858H1.389c-0.628,0-1.138-0.51-1.138-1.138V6.218c0-2.954,2.403-5.356,5.356-5.356h24.251
	c2.954,0,5.357,2.403,5.357,5.356v36.2c0,0.333-0.146,0.649-0.399,0.866l-10.897,9.302C23.713,52.761,23.451,52.858,23.18,52.858z
	 M2.527,50.582h20.234l10.179-8.688V6.218c0-1.698-1.382-3.08-3.081-3.08H5.607c-1.698,0-3.08,1.382-3.08,3.08V50.582z"/>
<path fill="#4F525A" d="M23.18,52.856c-0.628,0-1.138-0.51-1.138-1.138v-9.3c0-0.628,0.51-1.138,1.138-1.138h10.897
	c0.628,0,1.138,0.51,1.138,1.138s-0.51,1.138-1.138,1.138h-9.759v8.162C24.318,52.346,23.809,52.856,23.18,52.856z"/>
<path fill="#4F525A" d="M26.111,10.516H7.833c-0.628,0-1.138-0.51-1.138-1.138s0.51-1.138,1.138-1.138h18.278
	c0.628,0,1.138,0.51,1.138,1.138S26.739,10.516,26.111,10.516z"/>
<path fill="#4F525A" d="M20.956,16.139H7.833c-0.628,0-1.138-0.51-1.138-1.138s0.51-1.138,1.138-1.138h13.123
	c0.628,0,1.138,0.51,1.138,1.138S21.584,16.139,20.956,16.139z"/>
<path fill="#4F525A" d="M28.33,37.933h-9.951c-0.628,0-1.138-0.51-1.138-1.138s0.51-1.138,1.138-1.138h9.951
	c0.628,0,1.138,0.51,1.138,1.138S28.958,37.933,28.33,37.933z"/>
<g>
	<path fill="#4F525A" d="M13.93,27.94h-1.21v-0.813l1.115-0.076c-0.019-0.227-0.019-0.454-0.019-0.681c0-0.208,0-0.416,0.019-0.605
		H12.72v-0.832l1.21-0.095c0.435-2.968,2.174-4.745,4.65-4.745c1.134,0,2.155,0.643,2.817,1.475l-0.926,0.889
		c-0.529-0.662-1.153-1.116-1.947-1.116c-1.664,0-2.685,1.324-3.006,3.498h4.802v0.926h-4.877c-0.019,0.17-0.019,0.359-0.019,0.548
		c0,0.246,0,0.492,0.019,0.719h4.122v0.907h-4.027c0.321,2.136,1.323,3.422,2.874,3.422c0.926,0,1.588-0.473,2.231-1.342
		l0.926,0.832c-0.832,1.096-1.872,1.758-3.252,1.758C16.047,32.61,14.364,30.889,13.93,27.94z"/>
</g>
</svg>
