<svg id="Isolation_Mode" data-name="Isolation Mode" xmlns="http://www.w3.org/2000/svg" viewBox="0 0 75.81 92.41"><defs><style>.cls-1{fill:#00a04a;}</style></defs><title>icon-rocket</title><path class="cls-1" d="M50.62,93a1.63,1.63,0,0,1-2.23.6h0c-5-2.86-9.69-6.25-10.72-7q-1.75-.61-3.47-1.25l-2.69,6.14a1.63,1.63,0,0,1-2.16.83A166.38,166.38,0,0,1-2.15,74.13a1.64,1.64,0,0,1-.35-2.28l4-5.41Q.08,65.3-1.3,64.1c-1.16-.52-6.46-2.92-11.42-5.78a1.63,1.63,0,0,1-.6-2.23h0c3.07-5.31,8.62-10.31,16.5-14.85a80.4,80.4,0,0,1,10.42-5,115.7,115.7,0,0,1,8-8.9A125.84,125.84,0,0,1,59.28,1.56a1.63,1.63,0,0,1,2.29,1.33,125.89,125.89,0,0,1-3.46,45.46,116,116,0,0,1-3.69,11.41,80.21,80.21,0,0,1,.84,11.55c0,9.09-1.56,16.42-4.61,21.71m-2.06-3.09c3.59-7.43,3.65-17.52,3.21-23.9a103.56,103.56,0,0,1-11,18.78C42.41,86,45.4,88,48.58,89.93M37.84,83.23A104.4,104.4,0,0,0,54.92,47.5a118.27,118.27,0,0,0,3.48-19.29A26.56,26.56,0,0,1,38.9,16.95a118.43,118.43,0,0,0-15,12.66A104.41,104.41,0,0,0,1.52,62.26a114.14,114.14,0,0,0,36.32,21m-8.64,5.4,2-4.51A116.93,116.93,0,0,1,4,68.44l-2.92,4A162.87,162.87,0,0,0,29.2,88.64M58.7,24.91a127,127,0,0,0-.16-19.46A127,127,0,0,0,41.6,15,23.31,23.31,0,0,0,58.69,24.9m-60,35.59A103.63,103.63,0,0,1,9.48,41.56C3.72,44.38-5,49.47-9.62,56.29c3.26,1.8,6.51,3.36,8.35,4.21" transform="translate(13.53 -1.42)"/><path class="cls-1" d="M42.37,34a15.78,15.78,0,1,1-21.56,5.78A15.78,15.78,0,0,1,42.37,34m3,19.93a12.52,12.52,0,1,0-17.1,4.58,12.52,12.52,0,0,0,17.1-4.58" transform="translate(13.53 -1.42)"/><path class="cls-1" d="M39.35,39.19a9.73,9.73,0,1,1-13.29,3.56h0a9.74,9.74,0,0,1,13.29-3.56m.74,11.66a6.45,6.45,0,0,0,.53-5.28L29.57,51.81a6.46,6.46,0,0,0,10.52-1m-12-2,10.69-6a6.46,6.46,0,0,0-10.69,6" transform="translate(13.53 -1.42)"/></svg>