<?xml version="1.0" encoding="utf-8"?>
<!-- Generator: Adobe Illustrator 22.0.1, SVG Export Plug-In . SVG Version: 6.00 Build 0)  -->
<svg version="1.1" id="Layer_1" xmlns="http://www.w3.org/2000/svg" xmlns:xlink="http://www.w3.org/1999/xlink" x="0px" y="0px"
	 viewBox="0 0 93 92.9" style="enable-background:new 0 0 93 92.9;" xml:space="preserve">
<style type="text/css">
	.st0{fill:#858585;}
</style>
<g>
	<g>
		<path class="st0" d="M78.7,14.7c-17.5-17.6-46.1-17.8-64-0.2C-2.7,32-2.8,60.5,14.5,78c8.5,8.6,19.7,13.3,31.8,13.4
			c12,0.1,23.4-4.5,31.9-13l0.2-0.2C95.9,60.8,96,32.3,78.7,14.7z M74.2,73.9L74,74.1c-7.4,7.3-17.2,11.3-27.6,11.2
			C36,85.2,26.2,81.1,18.9,73.7C3.9,58.5,4,33.9,19.2,18.6c15.3-15.1,40-14.9,55.1,0.3C89.3,34.2,89.3,58.8,74.2,73.9z"/>
		<path class="st0" d="M46.7,92.9c-0.1,0-0.3,0-0.4,0c-12.5-0.1-24.1-5-32.9-13.8C-4.5,61-4.4,31.6,13.6,13.5
			c18.4-18.1,48-18,66.1,0.2l0,0c17.9,18.2,17.8,47.6-0.3,65.6l-0.2,0.2C70.6,88.1,59,92.9,46.7,92.9z M46.7,2.9
			c-11.2,0-22.3,4.2-30.9,12.6C-1,32.4-1.1,60,15.6,76.9c8.2,8.3,19.1,12.9,30.7,13C58,90,68.9,85.5,77.1,77.3l0.2-0.2
			c16.9-16.8,17-44.3,0.3-61.4C69.1,7.2,57.9,2.9,46.7,2.9z M46.8,86.8c-0.1,0-0.3,0-0.4,0c-10.9-0.1-21-4.4-28.6-12
			C2.3,59.1,2.4,33.4,18.1,17.6C34,2,59.6,2.1,75.3,17.9C90.9,33.8,90.8,59.4,75.2,75L75,75.2C67.4,82.7,57.4,86.8,46.8,86.8z
			 M46.6,8.9c-9.5,0-19,3.6-26.3,10.8C5.8,34.3,5.6,58.1,20,72.7c7,7.1,16.4,11.1,26.4,11.2c9.9,0.1,19.4-3.7,26.5-10.8l0.2-0.2
			C87.6,58.4,87.6,34.7,73.2,20C65.9,12.6,56.3,8.9,46.6,8.9z"/>
	</g>
	<g>
		<path class="st0" d="M68,24.4c-1.1-1.1-3-1.1-4.1,0L24.4,63.9c-1.1,1.1-1.1,3,0,4.1c0.6,0.6,1.3,0.9,2.1,0.9
			c0.7,0,1.5-0.3,2.1-0.9l39.5-39.5C69.1,27.4,69.1,25.5,68,24.4z"/>
		<path class="st0" d="M26.5,70.4c-1.2,0-2.3-0.5-3.2-1.3C22.5,68.3,22,67.2,22,66s0.5-2.3,1.3-3.1l39.5-39.5c1.7-1.7,4.5-1.7,6.2,0
			l0,0c1.6,1.6,1.7,4.5,0.1,6.2L29.6,69.2C28.8,69.9,27.6,70.4,26.5,70.4z M66,25c-0.4,0-0.7,0.1-1,0.4L25.5,64.9
			c-0.5,0.5-0.5,1.5,0,2c0.3,0.3,0.6,0.5,1,0.5c0.3,0,0.7-0.1,1-0.5L67,27.4c0.4-0.5,0.4-1.5-0.1-2C66.7,25.2,66.3,25,66,25z"/>
	</g>
	<g>
		<path class="st0" d="M59.9,49.9c-5.4,0-9.8,4.4-9.8,9.8s4.4,9.8,9.8,9.8s9.8-4.4,9.8-9.8S65.3,49.9,59.9,49.9z M59.9,63.7
			c-2.2,0-4-1.8-4-4s1.8-4,4-4s4,1.8,4,4S62.1,63.7,59.9,63.7z"/>
		<path class="st0" d="M59.9,71c-6.2,0-11.3-5.1-11.3-11.3s5.1-11.3,11.3-11.3s11.3,5.1,11.3,11.3S66.1,71,59.9,71z M59.9,51.4
			c-4.6,0-8.3,3.7-8.3,8.3s3.7,8.3,8.3,8.3s8.3-3.7,8.3-8.3S64.5,51.4,59.9,51.4z M59.9,65.2c-3,0-5.5-2.5-5.5-5.5s2.5-5.5,5.5-5.5
			s5.5,2.5,5.5,5.5S62.9,65.2,59.9,65.2z M59.9,57.2c-1.4,0-2.5,1.1-2.5,2.5s1.1,2.5,2.5,2.5s2.5-1.1,2.5-2.5S61.3,57.2,59.9,57.2z"
			/>
	</g>
	<g>
		<path class="st0" d="M33.3,42.9c5.4,0,9.8-4.4,9.8-9.8c0-5.4-4.4-9.8-9.8-9.8c-5.4,0-9.8,4.4-9.8,9.8S27.9,42.9,33.3,42.9z
			 M33.3,29.1c2.2,0,4,1.8,4,4s-1.8,4-4,4s-4-1.8-4-4S31.1,29.1,33.3,29.1z"/>
		<path class="st0" d="M33.3,44.4c-6.2,0-11.3-5.1-11.3-11.3s5.1-11.3,11.3-11.3s11.3,5.1,11.3,11.3S39.5,44.4,33.3,44.4z
			 M33.3,24.8c-4.6,0-8.3,3.7-8.3,8.3s3.7,8.3,8.3,8.3s8.3-3.7,8.3-8.3S37.9,24.8,33.3,24.8z M33.3,38.6c-3,0-5.5-2.5-5.5-5.5
			s2.5-5.5,5.5-5.5s5.5,2.5,5.5,5.5S36.3,38.6,33.3,38.6z M33.3,30.6c-1.4,0-2.5,1.1-2.5,2.5c0,1.4,1.1,2.5,2.5,2.5
			c1.4,0,2.5-1.1,2.5-2.5C35.8,31.7,34.7,30.6,33.3,30.6z"/>
	</g>
</g>
</svg>
