<?xml version="1.0" encoding="utf-8"?>
<!-- Generator: Adobe Illustrator 15.1.0, SVG Export Plug-In . SVG Version: 6.00 Build 0)  -->
<!DOCTYPE svg PUBLIC "-//W3C//DTD SVG 1.1//EN" "http://www.w3.org/Graphics/SVG/1.1/DTD/svg11.dtd">
<svg version="1.1" id="Isolation_Mode" xmlns="http://www.w3.org/2000/svg" xmlns:xlink="http://www.w3.org/1999/xlink" x="0px"
	 y="0px" width="59.308px" height="48.351px" viewBox="11.965 10.895 59.308 48.351"
	 enable-background="new 11.965 10.895 59.308 48.351" xml:space="preserve">
<path fill="none" stroke="#31a147" stroke-width="2.276" stroke-linecap="round" stroke-linejoin="round" stroke-miterlimit="10" d="
	M26.096,33.272c-0.947,0-1.771,0.526-2.197,1.3c-0.428-0.774-1.251-1.3-2.199-1.3c-1.386,0-2.509,1.125-2.509,2.51
	c0,1.385,1.123,2.509,2.509,2.509c0.948,0,1.771-0.525,2.199-1.3c0.426,0.774,1.25,1.3,2.197,1.3c1.387,0,2.51-1.124,2.51-2.509
	C28.605,34.396,27.482,33.272,26.096,33.272z"/>
<path fill="none" stroke="#31a147" stroke-width="2.276" stroke-linecap="round" stroke-linejoin="round" stroke-miterlimit="10" d="
	M46.917,45.598h-33.68V16.714c0-2.433,1.972-4.405,4.405-4.405H61.55c2.433,0,4.405,1.972,4.405,4.405v20.44"/>
<line fill="none" stroke="#31a147" stroke-width="2.276" stroke-linecap="round" stroke-linejoin="round" stroke-miterlimit="10" x1="14.269" y1="20.315" x2="65.141" y2="20.315"/>
<line fill="none" stroke="#31a147" stroke-width="2.276" stroke-linecap="round" stroke-linejoin="round" stroke-miterlimit="10" x1="14.269" y1="26.567" x2="65.141" y2="26.567"/>
<circle fill="none" stroke="#31a147" stroke-width="2.276" stroke-linecap="round" stroke-linejoin="round" stroke-miterlimit="10" cx="58.924" cy="46.872" r="11.137"/>
<polyline fill="none" stroke="#31a147" stroke-width="2.276" stroke-linecap="round" stroke-linejoin="round" stroke-miterlimit="10" points="
	55.245,46.332 58.559,50.128 63.484,44.701 "/>
</svg>
