<?xml version="1.0" encoding="UTF-8" standalone="no"?>
<!DOCTYPE svg PUBLIC "-//W3C//DTD SVG 1.1//EN" "http://www.w3.org/Graphics/SVG/1.1/DTD/svg11.dtd">
<svg width="100%" height="100%" viewBox="0 0 48 48" version="1.1" xmlns="http://www.w3.org/2000/svg" xmlns:xlink="http://www.w3.org/1999/xlink" xml:space="preserve" xmlns:serif="http://www.serif.com/" style="fill-rule:evenodd;clip-rule:evenodd;stroke-linejoin:round;stroke-miterlimit:1.41421;">
    <g transform="matrix(1,0,0,1,-226,-226)">
        <g>
            <path d="M250,273C262.7,273 273,262.7 273,250C273,237.3 262.7,227 250,227C237.3,227 227,237.3 227,250C227,262.7 237.3,273 250,273ZM250,269C239.5,269 231,260.5 231,250C231,239.5 239.5,231 250,231C260.5,231 269,239.5 269,250C269,260.5 260.5,269 250,269Z" style="fill:rgb(133,133,133);fill-rule:nonzero;"/>
            <path d="M250,274C236.7,274 226,263.3 226,250C226,236.7 236.7,226 250,226C263.3,226 274,236.7 274,250C274,263.3 263.3,274 250,274ZM250,228C237.8,228 228,237.8 228,250C228,262.2 237.8,272 250,272C262.2,272 272,262.2 272,250C272,237.8 262.2,228 250,228ZM250,270C239,270 230,261 230,250C230,239 239,230 250,230C261,230 270,239 270,250C270,261 261,270 250,270ZM250,232C240.1,232 232,240.1 232,250C232,259.9 240.1,268 250,268C259.9,268 268,259.9 268,250C268,240.1 259.9,232 250,232Z" style="fill:rgb(133,133,133);fill-rule:nonzero;"/>
            <path d="M248,240.5L248,259.5C248,260.6 248.9,261.5 250,261.5C251.1,261.5 252,260.6 252,259.5L252,240.5C252,239.4 251.1,238.5 250,238.5C248.9,238.5 248,239.4 248,240.5Z" style="fill:rgb(133,133,133);fill-rule:nonzero;"/>
            <path d="M250,262.5C248.3,262.5 247,261.2 247,259.5L247,240.5C247,238.8 248.3,237.5 250,237.5C251.7,237.5 253,238.8 253,240.5L253,259.5C253,261.2 251.7,262.5 250,262.5ZM250,239.5C249.4,239.5 249,239.9 249,240.5L249,259.5C249,260.1 249.4,260.5 250,260.5C250.6,260.5 251,260.1 251,259.5L251,240.5C251,239.9 250.6,239.5 250,239.5Z" style="fill:rgb(133,133,133);fill-rule:nonzero;"/>
            <path d="M260,247.5L241,247.5C239.9,247.5 239,248.4 239,249.5C239,250.6 239.9,251.5 241,251.5L260,251.5C261.1,251.5 262,250.6 262,249.5C262,248.4 261.1,247.5 260,247.5Z" style="fill:rgb(133,133,133);fill-rule:nonzero;"/>
            <path d="M260,252.5L241,252.5C239.3,252.5 238,251.2 238,249.5C238,247.8 239.3,246.5 241,246.5L260,246.5C261.7,246.5 263,247.8 263,249.5C263,251.2 261.7,252.5 260,252.5ZM241,248.5C240.4,248.5 240,248.9 240,249.5C240,250.1 240.4,250.5 241,250.5L260,250.5C260.6,250.5 261,250.1 261,249.5C261,248.9 260.6,248.5 260,248.5L241,248.5Z" style="fill:rgb(133,133,133);fill-rule:nonzero;"/>
        </g>
    </g>
</svg>
