<?xml version="1.0" encoding="utf-8"?>
<!-- Generator: Adobe Illustrator 15.1.0, SVG Export Plug-In . SVG Version: 6.00 Build 0)  -->
<!DOCTYPE svg PUBLIC "-//W3C//DTD SVG 1.1//EN" "http://www.w3.org/Graphics/SVG/1.1/DTD/svg11.dtd">
<svg version="1.1" id="Isolation_Mode" xmlns="http://www.w3.org/2000/svg" xmlns:xlink="http://www.w3.org/1999/xlink" x="0px"
	 y="0px" width="61.75px" height="61.75px" viewBox="0 0 61.75 61.75" enable-background="new 0 0 61.75 61.75"
	 xml:space="preserve">
<path fill="none" stroke="#00A04A" stroke-width="2.9" stroke-linecap="round" stroke-miterlimit="10" d="M37.959,52.648H2v-7.677
	c0-2.349,1.579-4.404,3.849-5.009l10.316-2.751c1.104-0.294,2.027-1.048,2.538-2.068l2.378-4.754
	c-2.236-2.236-4.241-6.36-4.241-6.36s-3.18-1.842-3.18-4.24c0-2.396,1.061-3.18,1.061-3.18s-0.403-6.61,1.06-9.371
	c1.463-2.761,6.691-5.469,12.72-5.469c7.942,0,8.48,3.179,8.48,3.179"/>
<path fill="none" stroke="#00A04A" stroke-width="2.9" stroke-linecap="round" stroke-miterlimit="10" d="M36.98,4.948
	c6.129,0,3.181,11.661,3.181,11.661s1.06,0.783,1.06,3.179c0,2.397-3.181,4.24-3.181,4.24s-2.004,4.125-4.24,6.36l2.376,4.754
	c0.511,1.021,1.435,1.774,2.539,2.068l3.722,0.994"/>
<circle fill="none" stroke="#00A04A" stroke-width="2.9" stroke-linecap="round" stroke-miterlimit="10" cx="48.544" cy="48.312" r="11.438"/>
<line fill="none" stroke="#00A04A" stroke-width="2.9" stroke-linecap="round" stroke-miterlimit="10" x1="49.16" y1="44.153" x2="49.16" y2="52.471"/>
<line fill="none" stroke="#00A04A" stroke-width="2.9" stroke-linecap="round" stroke-miterlimit="10" x1="53.317" y1="48.312" x2="45.001" y2="48.312"/>
</svg>
