<?xml version="1.0" encoding="utf-8"?>
<!-- Generator: Adobe Illustrator 21.0.2, SVG Export Plug-In . SVG Version: 6.00 Build 0)  -->
<svg version="1.1" id="Layer_1" xmlns="http://www.w3.org/2000/svg" xmlns:xlink="http://www.w3.org/1999/xlink" x="0px" y="0px"
	 viewBox="0 0 60 60" style="enable-background:new 0 0 60 60;" xml:space="preserve">
<style type="text/css">
	.st0{fill:#009e4c;}
</style>
<path id="Laptops_icon" class="st0" d="M46.8,36.6H13.3c-0.5,0-0.9-0.4-0.9-0.9v0V16.1c0-0.5,0.4-0.9,0.9-0.9c0,0,0,0,0,0h33.5
	c0.5,0,0.9,0.4,0.9,0.9c0,0,0,0,0,0v19.5C47.7,36.2,47.3,36.6,46.8,36.6z M14.3,34.7h31.6V17.1H14.3V34.7z M51.4,44.8H8.5
	c-0.5,0-0.9-0.4-0.9-0.9c0-0.2,0-0.3,0.1-0.5l4.8-8.2c0.2-0.5,0.8-0.6,1.3-0.4c0.5,0.2,0.6,0.8,0.4,1.3c0,0,0,0,0,0l-4,6.8h39.6
	L46,36.1c-0.3-0.4-0.1-1,0.4-1.3c0.4-0.3,1-0.1,1.3,0.4l0,0l4.6,8.2c0.3,0.4,0.1,1-0.4,1.3C51.7,44.7,51.6,44.8,51.4,44.8L51.4,44.8
	z M35.4,40.2h-10c-0.3,0-0.5-0.2-0.5-0.4c0-0.3,0.2-0.5,0.4-0.5c0,0,0,0,0,0h10c0.3,0,0.5,0.2,0.5,0.4C35.9,40,35.7,40.2,35.4,40.2
	C35.5,40.2,35.4,40.2,35.4,40.2L35.4,40.2z M16.8,40.2h-1.4c-0.3,0-0.5-0.2-0.5-0.4c0-0.3,0.2-0.5,0.4-0.5c0,0,0,0,0,0h1.4
	c0.3,0,0.5,0.2,0.5,0.4C17.3,40,17.1,40.2,16.8,40.2C16.8,40.2,16.8,40.2,16.8,40.2L16.8,40.2z M21.4,40.2H20
	c-0.3,0-0.5-0.2-0.5-0.4c0-0.3,0.2-0.5,0.4-0.5c0,0,0,0,0,0h1.4c0.3,0,0.5,0.2,0.5,0.4C21.9,40,21.7,40.2,21.4,40.2
	C21.5,40.2,21.4,40.2,21.4,40.2L21.4,40.2z M40,40.2h-1.4c-0.3,0-0.5-0.2-0.5-0.4c0-0.3,0.2-0.5,0.4-0.5c0,0,0,0,0,0H40
	c0.3,0,0.5,0.2,0.5,0.4C40.5,40,40.3,40.2,40,40.2C40.1,40.2,40,40.2,40,40.2L40,40.2z M44.7,40.2h-1.4c-0.3,0-0.5-0.2-0.5-0.4
	c0-0.3,0.2-0.5,0.4-0.5c0,0,0,0,0,0h1.4c0.3,0,0.5,0.2,0.5,0.4C45.2,40,45,40.2,44.7,40.2C44.7,40.2,44.7,40.2,44.7,40.2L44.7,40.2z
	"/>
</svg>
