<?xml version="1.0" encoding="utf-8"?>
<!-- Generator: Adobe Illustrator 15.1.0, SVG Export Plug-In . SVG Version: 6.00 Build 0)  -->
<!DOCTYPE svg PUBLIC "-//W3C//DTD SVG 1.1//EN" "http://www.w3.org/Graphics/SVG/1.1/DTD/svg11.dtd">
<svg version="1.1" id="Layer_2" xmlns="http://www.w3.org/2000/svg" xmlns:xlink="http://www.w3.org/1999/xlink" x="0px" y="0px"
	 width="292px" height="254px" viewBox="0 0 292 254" enable-background="new 0 0 292 254" xml:space="preserve">
<path fill="none" stroke="#299354" stroke-width="5" stroke-miterlimit="10" d="M288.385,116.667V31.197
	c0-15.048-12.24-27.246-27.338-27.246H31.955c-15.099,0-27.339,12.198-27.339,27.246v112.716"/>
<path fill="none" stroke="#299354" stroke-width="5" stroke-miterlimit="10" d="M4.616,111.197v112.716h34.876v25.402l42.229-25.402
	h179.326c15.098,0,27.338-12.2,27.338-27.246v-85.471"/>
<g>
	<path fill="#299354" d="M184.305,158.455h-84.26v-84.26c0-6.976,5.674-12.651,12.65-12.651h71.609
		c6.977,0,12.648,5.676,12.648,12.651v71.608C196.955,152.781,191.281,158.455,184.305,158.455z M103.428,155.073h80.877
		c5.111,0,9.267-4.158,9.267-9.268v-71.61c0-5.111-4.158-9.268-9.267-9.268h-71.608c-5.111,0-9.269,4.158-9.269,9.268
		L103.428,155.073L103.428,155.073z"/>
	<path fill="#299354" d="M163.352,87.202h-15.089c0,2.084,0,4.172-0.008,6.258h8.744c-0.338,1.999-1.525,3.824-3.201,4.955
		c-0.004-0.001-0.006-0.005-0.006-0.005c-1.063,0.716-2.278,1.175-3.539,1.396c-1.265,0.215-2.567,0.25-3.827-0.009
		c-1.277-0.257-2.501-0.792-3.57-1.542c-1.707-1.197-2.999-2.945-3.671-4.921c0.006-0.003,0.009-0.008,0.016-0.011
		c-0.688-2.001-0.688-4.233,0-6.245l-0.002-0.001c0.483-1.405,1.274-2.708,2.322-3.763c1.3-1.328,2.981-2.278,4.793-2.666
		c1.552-0.337,3.193-0.268,4.708,0.188c1.294,0.396,2.484,1.104,3.458,2.038c0.984-0.985,1.967-1.967,2.949-2.95
		c0.516-0.525,1.061-1.036,1.563-1.578c-1.504-1.388-3.253-2.492-5.166-3.199c-3.451-1.267-7.337-1.292-10.807-0.094
		c-3.896,1.335-7.223,4.253-9.076,7.951l-0.003,0.005c-0.003,0.001-0.006,0.008-0.006,0.008v0.005
		c-0.644,1.272-1.107,2.627-1.389,4.016c-0.709,3.483-0.215,7.199,1.404,10.36c-0.005,0.006-0.012,0.011-0.012,0.011
		c1.038,2.074,2.539,3.916,4.341,5.348c1.716,1.374,3.708,2.38,5.831,2.94c2.671,0.716,5.515,0.699,8.208,0.087
		c2.428-0.561,4.729-1.712,6.565-3.408c0,0,0.003,0,0.005,0.003c1.939-1.786,3.329-4.13,4.061-6.658
		C163.74,92.959,163.851,90.021,163.352,87.202"/>
	<path fill="#299354" d="M135.946,148.96c-0.579,0-1.146-0.151-1.648-0.441c-1.02-0.595-1.648-1.69-1.648-2.86l0.092-32.995
		c0.006-1.178,0.641-2.269,1.656-2.852c1.009-0.578,2.301-0.572,3.3,0.012l28.523,16.573c1.012,0.587,1.641,1.681,1.641,2.855
		c-0.003,1.178-0.639,2.271-1.656,2.857l-28.618,16.417C137.089,148.81,136.521,148.96,135.946,148.96z M136.122,112.818
		l-0.089,32.699l28.363-16.272L136.122,112.818z"/>
</g>
</svg>
