<?xml version="1.0" encoding="utf-8"?>
<!-- Generator: Adobe Illustrator 21.0.2, SVG Export Plug-In . SVG Version: 6.00 Build 0)  -->
<svg version="1.1" id="Layer_1" xmlns="http://www.w3.org/2000/svg" xmlns:xlink="http://www.w3.org/1999/xlink" x="0px" y="0px"
	 viewBox="0 0 60 60" style="enable-background:new 0 0 60 60;" xml:space="preserve">
<style type="text/css">
	.st0{fill:#777777;}
</style>
<path id="_74" class="st0" d="M28.6,41.1c-6.1,0-11.1-4.9-11.2-11.1c0-6.1,4.9-11.1,11.1-11.2c6.2-0.1,11.1,4.9,11.2,11.1l0,0
	C39.7,36.1,34.7,41.1,28.6,41.1z M28.6,20.5c-5.2,0-9.5,4.2-9.5,9.5c0,5.2,4.2,9.5,9.5,9.5s9.5-4.2,9.5-9.5l0,0
	C38,24.8,33.8,20.5,28.6,20.5L28.6,20.5z M33.5,30.8h-5.7v-8.7h1.6v7.1h4.1V30.8z M42.5,32.6h-1.6v-5.1h1.6V32.6L42.5,32.6z
	 M36.3,24.3l-3.5-12.2h-8.5l-3.5,12.2l-1.6-0.5l3.9-13.3H34l3.8,13.3L36.3,24.3z M34,49.5H23.1l-3.8-13.3l1.6-0.5l3.5,12.1h8.5
	l3.5-12.1l1.6,0.5L34,49.5z"/>
</svg>
