<?xml version="1.0" encoding="utf-8"?>
<!-- Generator: Adobe Illustrator 16.0.0, SVG Export Plug-In . SVG Version: 6.00 Build 0)  -->
<!DOCTYPE svg PUBLIC "-//W3C//DTD SVG 1.1//EN" "http://www.w3.org/Graphics/SVG/1.1/DTD/svg11.dtd">
<svg version="1.1" id="Layer_1" xmlns="http://www.w3.org/2000/svg" xmlns:xlink="http://www.w3.org/1999/xlink" x="0px" y="0px"
	 width="672.066px" height="528.057px" viewBox="0 0 672.066 528.057" enable-background="new 0 0 672.066 528.057"
	 xml:space="preserve">
<g>
	<path fill="#009e4c" d="M127.679,245.303h-25.683c-3.706,0-6.609,2.903-6.609,6.609v25.682c0,3.744,2.965,6.789,6.609,6.789h25.683
		c3.68,0,6.789-3.109,6.789-6.789v-25.682C134.468,248.268,131.422,245.303,127.679,245.303z"/>
	<path fill="#009e4c" d="M657.536,257.698c-0.003-39.65-32.261-71.908-71.909-71.908H86.441c-39.751,0-72.09,32.258-72.09,71.909
		v247.561c0,11.539-4.478,9.915,72.09,9.915h499.186c39.651,0,71.909-32.339,71.909-72.09V257.7
		C657.536,257.699,657.536,257.699,657.536,257.698L657.536,257.698z M585.627,485.301H86.441c-46.068,0-42.215,6.11-42.215-42.215
		s0-185.386,0-185.386c0-23.178,18.938-42.035,42.215-42.035h499.186c23.176,0,42.033,18.857,42.035,42.036v185.385
		C627.662,466.363,608.805,485.301,585.627,485.301z"/>
	<path fill="#009e4c" d="M484.343,416.399h-293.18c-3.644,0-6.608,3.047-6.608,6.791v25.683c0,3.705,2.903,6.608,6.608,6.608h293.18
		c3.707,0,6.61-2.903,6.61-6.608V423.19l0,0l0,0C490.951,419.446,487.985,416.399,484.343,416.399z"/>
	<path fill="#009e4c" d="M334.503,90.04c-29.381,0.252-57.471,12.953-77.066,34.846c-5.664,6.328-5.125,16.049,1.202,21.712
		c2.935,2.628,6.599,3.92,10.25,3.92c4.222,0,8.426-1.729,11.463-5.122c13.836-15.458,33.669-24.426,54.415-24.604
		c20.739-0.22,40.73,8.448,54.83,23.667c5.771,6.229,15.5,6.602,21.73,0.83c6.229-5.771,6.601-15.5,0.83-21.73
		C392.189,102.005,363.893,89.784,334.503,90.04z"/>
	<path fill="#009e4c" d="M207.074,96.058c2.83,2.252,6.208,3.345,9.565,3.345c4.523,0,9.006-1.987,12.042-5.802
		c25.67-32.257,64.016-51.022,105.204-51.48c41.188-0.48,79.94,17.447,106.32,49.125c5.435,6.526,15.13,7.41,21.656,1.977
		c6.526-5.436,7.411-15.131,1.976-21.656C431.51,32.748,384.02,10.824,333.542,11.369c-50.479,0.562-97.47,23.555-128.925,63.082
		C199.329,81.096,200.429,90.77,207.074,96.058z"/>
	<path fill="#009e4c" d="M191.163,284.383h25.682c3.68,0,6.79-3.109,6.79-6.789v-25.682c0-3.645-3.046-6.609-6.79-6.609h-25.682
		c-3.706,0-6.608,2.903-6.608,6.609v25.682C184.554,281.338,187.519,284.383,191.163,284.383z"/>
	<path fill="#009e4c" d="M280.329,284.383h25.682c3.68,0,6.79-3.109,6.79-6.789v-25.682l0,0l0,0
		c-0.001-3.645-3.047-6.609-6.79-6.609h-25.682c-3.706,0-6.609,2.903-6.609,6.609v25.682
		C273.72,281.338,276.685,284.383,280.329,284.383z"/>
	<path fill="#009e4c" d="M369.494,284.383h25.683c3.681,0,6.791-3.109,6.791-6.789v-25.682l0,0l0,0
		c-0.002-3.606-3.025-6.542-6.762-6.604c-0.01,0-0.018-0.005-0.029-0.005h-25.683c-3.706,0-6.608,2.903-6.608,6.609v25.682
		C362.886,281.338,365.85,284.383,369.494,284.383z"/>
	<path fill="#009e4c" d="M484.343,245.303H458.66c-3.744,0-6.79,2.964-6.79,6.609v25.682c0,3.655,3.093,6.744,6.771,6.786
		c0.007,0,0.012,0.003,0.019,0.003h25.683c3.645,0,6.61-3.045,6.61-6.789v-25.682l0,0l0,0
		C490.951,248.206,488.047,245.303,484.343,245.303z"/>
	<path fill="#009e4c" d="M573.509,245.303h-25.683c-3.744,0-6.789,2.964-6.789,6.609v25.682c0,3.68,3.109,6.789,6.789,6.789h25.683
		c3.644,0,6.608-3.045,6.608-6.789v-25.682C580.117,248.206,577.214,245.303,573.509,245.303z"/>
	<path fill="#009e4c" d="M127.679,330.852h-25.683c-3.645,0-6.609,3.046-6.609,6.789v25.685c0,3.705,2.903,6.608,6.609,6.608h25.683
		c3.743,0,6.789-2.964,6.789-6.608v-25.685C134.468,333.961,131.359,330.852,127.679,330.852z"/>
	<path fill="#009e4c" d="M191.163,369.933h25.682c3.744,0,6.79-2.964,6.79-6.608v-25.685c0-3.68-3.109-6.789-6.79-6.789h-25.682
		c-3.644,0-6.608,3.046-6.608,6.789v25.685C184.554,367.03,187.457,369.933,191.163,369.933z"/>
	<path fill="#009e4c" d="M280.329,369.933h25.682c3.744,0,6.79-2.964,6.79-6.608v-25.685l0,0l0,0
		c-0.001-3.681-3.11-6.789-6.79-6.789h-25.682c-3.644,0-6.609,3.046-6.609,6.789v25.685
		C273.72,367.03,276.623,369.933,280.329,369.933z"/>
	<path fill="#009e4c" d="M369.494,369.933h25.683c3.744,0,6.791-2.964,6.791-6.608v-25.685l0,0l0,0
		c-0.002-3.681-3.111-6.789-6.791-6.789h-25.683c-3.644,0-6.608,3.046-6.608,6.789v25.685
		C362.886,367.03,365.788,369.933,369.494,369.933z"/>
	<path fill="#009e4c" d="M484.343,330.852H458.66c-3.68,0-6.79,3.109-6.79,6.789v25.685c0,3.644,3.046,6.608,6.79,6.608h25.683
		c3.707,0,6.61-2.903,6.61-6.608v-25.685l0,0l0,0C490.951,333.896,487.985,330.852,484.343,330.852z"/>
	<path fill="#009e4c" d="M573.54,330.857c-0.01,0-0.02-0.006-0.03-0.006h-25.683c-3.68,0-6.789,3.109-6.789,6.789v25.685
		c0,3.644,3.045,6.608,6.789,6.608h25.683c3.705,0,6.608-2.903,6.608-6.608v-25.685C580.117,333.938,577.177,330.924,573.54,330.857
		z"/>
	<path fill="#009e4c" d="M127.679,416.399h-25.683c-3.645,0-6.609,3.047-6.609,6.791v25.683c0,3.705,2.903,6.608,6.609,6.608h25.683
		c3.743,0,6.789-2.965,6.789-6.608V423.19C134.468,419.509,131.359,416.399,127.679,416.399z"/>
	<path fill="#009e4c" d="M573.509,416.399h-25.683c-3.68,0-6.789,3.11-6.789,6.791v25.683c0,3.643,3.045,6.608,6.789,6.608h25.683
		c3.705,0,6.608-2.903,6.608-6.608V423.19C580.117,419.447,577.153,416.399,573.509,416.399z"/>
</g>
</svg>
