<?xml version="1.0" encoding="utf-8"?>
<!-- Generator: Adobe Illustrator 15.1.0, SVG Export Plug-In . SVG Version: 6.00 Build 0)  -->
<!DOCTYPE svg PUBLIC "-//W3C//DTD SVG 1.1//EN" "http://www.w3.org/Graphics/SVG/1.1/DTD/svg11.dtd">
<svg version="1.1" id="Layer_2" xmlns="http://www.w3.org/2000/svg" xmlns:xlink="http://www.w3.org/1999/xlink" x="0px" y="0px"
	 width="292px" height="254px" viewBox="0 0 292 254" enable-background="new 0 0 292 254" xml:space="preserve">
<path fill="none" stroke="#299354" stroke-width="5" stroke-miterlimit="10" d="M288.385,116.667V31.197
	c0-15.048-12.24-27.246-27.338-27.246H31.955c-15.099,0-27.339,12.198-27.339,27.246v112.716"/>
<path fill="none" stroke="#299354" stroke-width="5" stroke-miterlimit="10" d="M4.616,111.197v112.716h34.876v25.402l42.229-25.402
	h179.326c15.098,0,27.338-12.2,27.338-27.246v-85.471"/>
<g>
	<path fill="#299354" d="M163.711,169.884h-57.766V66.169c0-6.103,4.965-11.066,11.067-11.066h33.681v4.056h-33.681
		c-3.866,0-7.011,3.146-7.011,7.011v99.659h53.712c3.867,0,7.012-3.146,7.012-7.013l-0.151-71.797l4.056-0.009l0.151,71.803
		C174.778,164.917,169.813,169.884,163.711,169.884z"/>
	<rect x="107.972" y="72.93" fill="#299354" width="43.489" height="4.056"/>
	<rect x="107.972" y="138.965" fill="#299354" width="64.778" height="4.056"/>
	<path fill="#299354" d="M142.621,67.753h-12.805c-1.289,0-2.334-1.046-2.334-2.335c0-1.288,1.045-2.335,2.334-2.335h12.805
		c1.289,0,2.334,1.047,2.334,2.335C144.955,66.707,143.91,67.753,142.621,67.753z"/>
	<path fill="#299354" d="M146.386,155.629h-12.805c-1.29,0-2.335-1.045-2.335-2.335c0-1.29,1.046-2.335,2.335-2.335h12.805
		c1.29,0,2.335,1.045,2.335,2.335C148.722,154.584,147.677,155.629,146.386,155.629z"/>
	<path fill="#299354" d="M149.399,67.753h-0.563c-1.29,0-2.335-1.046-2.335-2.335c0-1.288,1.046-2.335,2.335-2.335h0.563
		c1.29,0,2.335,1.047,2.335,2.335C151.734,66.707,150.689,67.753,149.399,67.753z"/>
	<g>
		<path fill="#299354" d="M118.704,100.592h10.788v2.995h-7.274v4.132h6.681v2.969h-6.681v4.23h7.497v2.996h-11.01V100.592z"/>
		<path fill="#299354" d="M145.813,111.973c0,3.723-2.92,6.21-6.532,6.21s-6.533-2.486-6.533-6.21v-11.381h3.515v11.53
			c0,1.817,1.334,2.995,3.018,2.995c1.683,0,3.018-1.176,3.018-2.995v-11.53h3.515V111.973z"/>
		<path fill="#299354" d="M155.592,100.592c3.687,0,6.051,2.227,6.051,5.579c0,2.6-1.41,4.505-3.787,5.209l4.193,6.532h-3.835
			l-3.884-6.161h-1.373v6.161h-3.488v-17.321L155.592,100.592L155.592,100.592z M152.957,103.487v5.457h2.363
			c1.818,0,2.808-1.101,2.808-2.723c0-1.658-1.002-2.734-2.808-2.734H152.957z"/>
	</g>
	<g>
		<path fill="#299354" d="M209.204,83.626h-16.729v-4.056h12.606c-0.224-2.06-0.891-5.256-2.84-7.246
			c-1.183-1.208-2.686-1.795-4.597-1.795h-20.759c-4.698-0.119-13.215-2.723-14.354-11.496h-1.82v20.535h19.369v4.056h-23.424
			V54.979h9.802v2.028c0,9.096,10.051,9.457,10.478,9.468h20.707c3.021,0,5.549,1.018,7.507,3.026
			c4.24,4.345,4.107,11.829,4.099,12.145L209.204,83.626z"/>
		<path fill="#299354" d="M180.081,99.592h-2.027V74.14h15.91l0.259,1.729c0.077,0.514,1.812,12.663-3.989,19.393
			C187.756,98.136,184.338,99.592,180.081,99.592z M182.109,78.196V95.38c2.087-0.344,3.753-1.258,5.051-2.765
			c3.238-3.755,3.499-10.599,3.232-14.416h-8.283V78.196z"/>
		<path fill="#299354" d="M194.52,70.532h-16.467V50.626l1.926-0.114c0.001-0.001,4.218-0.257,8.155,2.579
			c2.916,2.098,6.387,6.476,6.387,15.412L194.52,70.532L194.52,70.532z M182.109,66.477h8.288
			c-0.638-8.784-5.426-11.109-8.288-11.71V66.477z"/>
	</g>
</g>
</svg>
