<?xml version="1.0" encoding="utf-8"?>
<!-- Generator: Adobe Illustrator 22.0.1, SVG Export Plug-In . SVG Version: 6.00 Build 0)  -->
<svg version="1.1" id="Layer_1" xmlns="http://www.w3.org/2000/svg" xmlns:xlink="http://www.w3.org/1999/xlink" x="0px" y="0px"
	 viewBox="0 0 99.3 65" style="enable-background:new 0 0 99.3 65;" xml:space="preserve">
<style type="text/css">
	.st0{fill:#858585;}
</style>
<g>
	<path class="st0" d="M0,32.3C0,11.1,8.9,0.1,22.3,0.1c13.4,0,22.3,10.9,22.3,32.2c0,21.2-9,32.7-22.3,32.7C8.9,64.9,0,53.5,0,32.3z
		 M31,32.3c0-17.1-3.7-20.9-8.7-20.9c-4.8,0-8.7,3.8-8.7,20.9c0,17,3.8,21.4,8.7,21.4S31,49.3,31,32.3z"/>
	<path class="st0" d="M99.3,55.9c-4.7,5.8-10.8,9-17.9,9c-12.3,0-22-7.7-25-22.3h-6.1v-6.8l5.3-0.4c-0.1-0.9-0.1-1.7-0.1-2.6
		s0-1.7,0.1-2.6h-5.3v-6.7l6.1-0.5c3-14.7,13-23,26.1-23c5.9,0,11.8,2.8,16,7.7l-8.1,7.8c-2.5-2.5-5-4.2-8.5-4.2
		c-5.6,0-9.4,4.2-11,11.7h21v7.3H70c0,0.7,0,1.4,0,2.1c0,1,0,2,0.1,2.9H88v7.4H71.1c1.8,7.2,5.6,11.1,11.1,11.1c3.7,0,6.5-1.9,9-5.3
		L99.3,55.9z"/>
</g>
</svg>
