<?xml version="1.0" encoding="utf-8"?>
<!-- Generator: Adobe Illustrator 15.1.0, SVG Export Plug-In . SVG Version: 6.00 Build 0)  -->
<!DOCTYPE svg PUBLIC "-//W3C//DTD SVG 1.1//EN" "http://www.w3.org/Graphics/SVG/1.1/DTD/svg11.dtd">
<svg version="1.1" id="Layer_2" xmlns="http://www.w3.org/2000/svg" xmlns:xlink="http://www.w3.org/1999/xlink" x="0px" y="0px"
	 width="292px" height="254px" viewBox="0 0 292 254" enable-background="new 0 0 292 254" xml:space="preserve">
<path fill="none" stroke="#299354" stroke-width="5" stroke-miterlimit="10" d="M288.385,116.667V31.197
	c0-15.048-12.24-27.246-27.338-27.246H31.955c-15.099,0-27.339,12.198-27.339,27.246v112.716"/>
<path fill="none" stroke="#299354" stroke-width="5" stroke-miterlimit="10" d="M4.616,111.197v112.716h34.876v25.402l42.229-25.402
	h179.326c15.098,0,27.338-12.2,27.338-27.246v-85.471"/>
<g>
	<g>
		<path fill="#299354" d="M133.133,143.022c0,7.333,5.541,12.981,12.603,12.981c2.038,0,4.347-0.57,5.976-1.574v-7.308h-8.338
			v-6.221h16.051v16.785c-3.529,3.042-8.393,4.917-13.688,4.917c-11.544,0-20.397-8.583-20.397-19.665
			c0-11.081,8.854-19.664,20.397-19.664c5.024,0,9.426,1.604,13.037,4.399l-3.883,5.73c-2.689-1.93-5.461-3.396-9.154-3.396
			C138.647,130.012,133.133,135.607,133.133,143.022z"/>
		<path fill="#299354" d="M166.991,161.952v-38.024h14.313c7.063,0,11.244,4.021,11.244,10.293c0,3.75-1.873,6.356-4.59,7.552
			c3.693,1.005,6.627,4.347,6.627,9.099c0,6.521-4.479,11.082-11.406,11.082L166.991,161.952L166.991,161.952z M180.708,130.311
			h-6.14v8.99h6.14c2.554,0,4.347-1.549,4.347-4.481C185.054,131.859,183.261,130.311,180.708,130.311z M182.256,145.439h-7.688
			v10.131h7.688c2.716,0,4.617-1.98,4.617-5.053C186.874,147.395,184.972,145.439,182.256,145.439z"/>
	</g>
	<path fill="#299354" d="M98.711,121.198c-2.187-5.58-3.296-11.476-3.296-17.52c0-26.503,21.561-48.064,48.062-48.064
		c26.503,0,48.063,21.562,48.063,48.063h-4.252c0-24.158-19.653-43.812-43.812-43.812c-24.157,0.001-43.811,19.655-43.811,43.813
		c0,5.512,1.01,10.885,3.003,15.969L98.711,121.198z"/>
	<rect x="141.353" y="57.739" fill="#299354" width="4.252" height="16.248"/>
	<rect x="97.484" y="101.609" fill="#299354" width="16.248" height="4.252"/>
	
		<rect x="108.54" y="74.84" transform="matrix(0.7071 0.7071 -0.7071 0.7071 88.593 -59.9508)" fill="#299354" width="16.247" height="4.252"/>
	
		<rect x="124.685" y="97.141" transform="matrix(0.6945 0.7195 -0.7195 0.6945 113.7949 -69.4669)" fill="#299354" width="28.028" height="4.252"/>
	
		<rect x="168.112" y="68.84" transform="matrix(0.7071 0.7071 -0.7071 0.7071 104.2842 -97.8341)" fill="#299354" width="4.252" height="16.25"/>
</g>
</svg>
