<?xml version="1.0" encoding="utf-8"?>
<!-- Generator: Adobe Illustrator 15.1.0, SVG Export Plug-In . SVG Version: 6.00 Build 0)  -->
<!DOCTYPE svg PUBLIC "-//W3C//DTD SVG 1.1//EN" "http://www.w3.org/Graphics/SVG/1.1/DTD/svg11.dtd">
<svg version="1.1" id="Layer_2" xmlns="http://www.w3.org/2000/svg" xmlns:xlink="http://www.w3.org/1999/xlink" x="0px" y="0px"
	 width="292px" height="254px" viewBox="0 0 292 254" enable-background="new 0 0 292 254" xml:space="preserve">
<path fill="none" stroke="#299354" stroke-width="5" stroke-miterlimit="10" d="M288.385,116.667V31.197
	c0-15.048-12.24-27.246-27.338-27.246H31.955c-15.099,0-27.339,12.198-27.339,27.246v112.716"/>
<path fill="none" stroke="#299354" stroke-width="5" stroke-miterlimit="10" d="M4.616,111.197v112.716h34.876v25.402l42.229-25.402
	h179.326c15.098,0,27.338-12.2,27.338-27.246v-85.471"/>
<g>
	<path fill="#299354" d="M184.214,164.997h-88.68v-88.68c0-7.342,5.972-13.314,13.313-13.314h75.365
		c7.342,0,13.313,5.973,13.313,13.314v75.365C197.528,159.025,191.554,164.997,184.214,164.997z M99.094,161.437h85.12
		c5.378,0,9.753-4.376,9.753-9.753V76.317c0-5.378-4.377-9.754-9.753-9.754h-75.366c-5.378,0-9.753,4.377-9.753,9.754
		L99.094,161.437L99.094,161.437z"/>
	<g>
		<path fill="#299354" d="M146.531,131.012c3.158,0,5.575,2.319,5.575,5.351c0,3.03-2.417,5.352-5.575,5.352
			c-3.158,0-5.578-2.32-5.578-5.352C140.954,133.332,143.373,131.012,146.531,131.012z M141.955,86.286h9.155v41.147h-9.155V86.286z
			"/>
	</g>
</g>
</svg>
