<svg xmlns="http://www.w3.org/2000/svg" width="24" height="23" viewBox="0 0 24 23">
  <metadata><?xpacket begin="﻿" id="W5M0MpCehiHzreSzNTczkc9d"?>
<x:xmpmeta xmlns:x="adobe:ns:meta/" x:xmptk="Adobe XMP Core 5.6-c138 79.159824, 2016/09/14-01:09:01        ">
   <rdf:RDF xmlns:rdf="http://www.w3.org/1999/02/22-rdf-syntax-ns#">
      <rdf:Description rdf:about=""/>
   </rdf:RDF>
</x:xmpmeta>
                                                                                                    
                                                                                                    
                                                                                                    
                                                                                                    
                                                                                                    
                                                                                                    
                                                                                                    
                                                                                                    
                                                                                                    
                                                                                                    
                                                                                                    
                                                                                                    
                                                                                                    
                                                                                                    
                                                                                                    
                                                                                                    
                                                                                                    
                                                                                                    
                                                                                                    
                                                                                                    
                           
<?xpacket end="w"?></metadata>
<defs>
    <style>
      .cls-1 {
        fill: #ffffff;
        fill-rule: evenodd;
      }
    </style>
  </defs>
  <path id="Cart_Icon" data-name="Cart Icon" class="cls-1" d="M1120.87,110.628l-2.55,6.918a2.583,2.583,0,0,1-2.35,1.636h-10.13a2.386,2.386,0,0,1-2.29-1.851l-2.46-11.776H1097V103h4.28a2.367,2.367,0,0,1,2.28,1.851l0.69,3.26h14.86a1.9,1.9,0,0,1,1.57.781A1.867,1.867,0,0,1,1120.87,110.628Zm-16.09.037,1.25,5.962h9.94l2.16-5.962h-13.35Zm1.92,10.223a2.556,2.556,0,1,1-2.57,2.555A2.561,2.561,0,0,1,1106.7,120.888Zm8.98,0a2.556,2.556,0,1,1-2.56,2.555A2.563,2.563,0,0,1,1115.68,120.888Z" transform="translate(-1097 -103)"/>
</svg>
