<svg id="图层_1" data-name="图层 1" xmlns="http://www.w3.org/2000/svg" viewBox="0 0 15 17"><defs><style>.cls-1{fill:#999;}</style></defs><title>icon-trash</title><path class="cls-1" d="M14.5,7H.5A.47.47,0,0,1,0,6.5v-2A1.54,1.54,0,0,1,1.5,3h12A1.54,1.54,0,0,1,15,4.5v2A.54.54,0,0,1,14.5,7ZM1,6H14V4.5a.47.47,0,0,0-.5-.5H1.5a.47.47,0,0,0-.5.5Z"/><path class="cls-1" d="M11.5,17h-8A2.48,2.48,0,0,1,1,14.5v-8A.47.47,0,0,1,1.5,6a.47.47,0,0,1,.5.5v8A1.54,1.54,0,0,0,3.5,16h8A1.54,1.54,0,0,0,13,14.5v-8a.5.5,0,0,1,1,0v8A2.48,2.48,0,0,1,11.5,17Z"/><path class="cls-1" d="M10,3.5H9v-2A.47.47,0,0,0,8.5,1h-2a.47.47,0,0,0-.5.5v2H5v-2A1.54,1.54,0,0,1,6.5,0h2A1.54,1.54,0,0,1,10,1.5Z"/><path class="cls-1" d="M4.5,14a.47.47,0,0,1-.5-.5v-4A.47.47,0,0,1,4.5,9a.47.47,0,0,1,.5.5v4A.47.47,0,0,1,4.5,14Z"/><path class="cls-1" d="M7.5,14a.47.47,0,0,1-.5-.5v-4a.5.5,0,0,1,1,0v4A.47.47,0,0,1,7.5,14Z"/><path class="cls-1" d="M10.5,14a.47.47,0,0,1-.5-.5v-4a.5.5,0,0,1,1,0v4A.47.47,0,0,1,10.5,14Z"/></svg>