<?xml version="1.0" encoding="utf-8"?>
<!-- Generator: Adobe Illustrator 21.0.2, SVG Export Plug-In . SVG Version: 6.00 Build 0)  -->
<svg version="1.1" id="Isolation_Mode" xmlns="http://www.w3.org/2000/svg" xmlns:xlink="http://www.w3.org/1999/xlink" x="0px"
	 y="0px" viewBox="0 0 54.8 62.1" style="enable-background:new 0 0 54.8 62.1;" xml:space="preserve">
<style type="text/css">
	.st0{fill:none;stroke:#FFFFFF;stroke-width:2.276;stroke-linecap:round;stroke-miterlimit:10;}
	.st1{fill:none;stroke:#FFFFFF;stroke-width:2.276;stroke-linecap:round;stroke-linejoin:round;stroke-miterlimit:10;}
</style>
<path class="st0" d="M31.6,8.8H49c2.4,0,4.4,2,4.4,4.4v43.1c0,2.4-2,4.4-4.4,4.4H1.5V13.2c0-2.4,2-4.4,4.4-4.4h6.7"/>
<path class="st0" d="M30,5.3c1,1.5,1.6,3.3,1.6,5.2v0.4c0,1.6-0.4,3.2-1.2,4.5L21.7,33l-8-18c-0.8-1.4-1.1-2.9-1.1-4.5
	c0-5.1,4.1-9.2,9.2-9.2h0.5C25.5,1.3,28.3,2.9,30,5.3"/>
<line class="st0" x1="1.3" y1="43.8" x2="53.4" y2="43.8"/>
<path class="st0" d="M39.7,8.8v35.8c0,3.1-2.5,5.7-5.6,5.7c-3.1,0-5.6,2.5-5.6,5.6v5.1"/>
<line class="st0" x1="15.4" y1="18.8" x2="15.4" y2="60.7"/>
<line class="st1" x1="21.9" y1="10.2" x2="22.3" y2="10.2"/>
</svg>
