<?xml version="1.0" encoding="utf-8"?>
<!-- Generator: Adobe Illustrator 21.1.0, SVG Export Plug-In . SVG Version: 6.00 Build 0)  -->
<svg version="1.1" id="Layer_1" xmlns="http://www.w3.org/2000/svg" xmlns:xlink="http://www.w3.org/1999/xlink" x="0px" y="0px"
	 viewBox="0 0 150 115" style="enable-background:new 0 0 150 115;" xml:space="preserve">
<style type="text/css">
	.st0{fill:#00973E;}
</style>
<g>
	<g>
		<path class="st0" d="M63.1,91.4c0,7.3,5.5,13,12.6,13c2,0,4.3-0.6,6-1.6v-7.3h-8.3v-6.2h16.1v16.8c-3.5,3-8.4,4.9-13.7,4.9
			c-11.5,0-20.4-8.6-20.4-19.7c0-11.1,8.9-19.7,20.4-19.7c5,0,9.4,1.6,13,4.4l-3.9,5.7c-2.7-1.9-5.5-3.4-9.2-3.4
			C68.6,78.4,63.1,84,63.1,91.4z"/>
		<path class="st0" d="M97,110.3v-38h14.3c7.1,0,11.2,4,11.2,10.3c0,3.7-1.9,6.4-4.6,7.6c3.7,1,6.6,4.3,6.6,9.1
			c0,6.5-4.5,11.1-11.4,11.1L97,110.3L97,110.3z M110.7,78.7h-6.1v9h6.1c2.6,0,4.3-1.5,4.3-4.5C115.1,80.2,113.3,78.7,110.7,78.7z
			 M112.3,93.8h-7.7V104h7.7c2.7,0,4.6-2,4.6-5.1C116.9,95.8,115,93.8,112.3,93.8z"/>
	</g>
	<path class="st0" d="M28.7,69.6c-2.2-5.6-3.3-11.5-3.3-17.5C25.4,25.6,47,4,73.5,4c26.5,0,48.1,21.6,48.1,48.1h-4.3
		c0-24.2-19.7-43.8-43.8-43.8c-24.2,0-43.8,19.7-43.8,43.8c0,5.5,1,10.9,3,16L28.7,69.6z"/>
	<rect x="71.4" y="6.1" class="st0" width="4.3" height="16.2"/>
	<rect x="27.5" y="50" class="st0" width="16.2" height="4.3"/>
	
		<rect x="44.5" y="17.2" transform="matrix(0.7071 -0.7071 0.7071 0.7071 -4.2625 40.4226)" class="st0" width="4.3" height="16.2"/>
	<rect x="66.6" y="33.6" transform="matrix(0.7195 -0.6945 0.6945 0.7195 -13.8279 61.0788)" class="st0" width="4.3" height="28"/>
	<rect x="92.1" y="23.2" transform="matrix(0.7072 -0.707 0.707 0.7072 11.4222 78.2928)" class="st0" width="16.2" height="4.3"/>
</g>
</svg>
