<?xml version="1.0" encoding="utf-8"?>
<!-- Generator: Adobe Illustrator 21.1.0, SVG Export Plug-In . SVG Version: 6.00 Build 0)  -->
<svg version="1.1" id="Layer_1" xmlns="http://www.w3.org/2000/svg" xmlns:xlink="http://www.w3.org/1999/xlink" x="0px" y="0px"
	 viewBox="0 0 257 187" style="enable-background:new 0 0 257 187;" xml:space="preserve">
<style type="text/css">
	.st0{fill:#169F4E;}
</style>
<g>
	<polygon class="st0" points="90.8,69.8 93.2,74.8 97.8,71.8 97.8,97.8 104.7,97.7 104.7,63.9 98.6,64.3 	"/>
	<path class="st0" d="M114.1,54.3c0.6-0.3,1.1-0.7,1.6-1.2c0.5-0.5,0.8-1.1,1-1.8c0.2-0.7,0.4-1.4,0.4-2.2c0-0.5,0-1-0.2-1.4
		c-0.1-0.4-0.3-0.8-0.6-1.2c-0.2-0.3-0.5-0.6-0.9-0.8c-0.3-0.2-0.7-0.4-1.1-0.4c0.3-0.2,0.6-0.4,0.8-0.7c0.3-0.3,0.5-0.6,0.6-0.9
		c0.2-0.3,0.3-0.7,0.4-1.1c0.1-0.4,0.1-0.8,0.1-1.3c0-0.7-0.1-1.4-0.3-2c-0.2-0.5-0.6-1-1-1.4c-0.4-0.4-1-0.7-1.6-0.8
		c-0.7-0.1-1.3-0.1-2,0l-6.2,0.8v17.7l6.9-0.7C112.9,54.9,113.5,54.7,114.1,54.3 M108.8,40.8l2.2-0.3c0.2,0,0.4,0,0.6,0
		c0.2,0.1,0.4,0.2,0.5,0.3c0.2,0.2,0.3,0.3,0.3,0.5c0.1,0.2,0.1,0.5,0.1,0.8c0,0.3,0,0.6-0.1,0.8c-0.1,0.2-0.2,0.4-0.3,0.6
		c-0.1,0.2-0.3,0.3-0.5,0.4c-0.2,0.1-0.4,0.2-0.6,0.2l-2.2,0.3V40.8z M108.8,51.8v-4.1l2.7-0.3c0.2,0,0.5,0,0.7,0
		c0.2,0.1,0.4,0.2,0.6,0.4c0.2,0.2,0.3,0.4,0.4,0.6c0.1,0.3,0.1,0.6,0.1,0.8c0,0.3,0,0.6-0.1,0.9c-0.1,0.3-0.2,0.5-0.4,0.7
		c-0.2,0.2-0.3,0.4-0.6,0.5c-0.2,0.1-0.5,0.2-0.7,0.2L108.8,51.8z"/>
	<polygon class="st0" points="119.5,54.2 123.3,53.9 123.3,40.3 119.5,40.8 	"/>
	<path class="st0" d="M119.8,38.8c0.2,0.2,0.4,0.3,0.7,0.4c0.3,0.1,0.6,0.1,0.9,0c0.3,0,0.6-0.1,0.9-0.3c0.3-0.1,0.5-0.3,0.7-0.6
		c0.4-0.5,0.6-1.1,0.6-1.7c0-0.3-0.1-0.6-0.2-0.9c-0.1-0.3-0.3-0.5-0.5-0.7c-0.2-0.2-0.4-0.3-0.7-0.4c-0.3-0.1-0.6-0.1-0.9,0
		c-0.3,0-0.6,0.1-0.9,0.3c-0.3,0.1-0.5,0.3-0.7,0.6c-0.4,0.5-0.6,1.1-0.6,1.7c0,0.3,0,0.6,0.2,0.9C119.4,38.4,119.6,38.6,119.8,38.8
		"/>
	<path class="st0" d="M128.3,66.6c-0.9-1.5-2.2-2.7-3.7-3.5c-1.5-0.8-3.3-1.1-5-1c-1.8,0.1-3.5,0.7-4.9,1.7c-1.4,1-2.6,2.4-3.5,4
		c-1,1.8-1.7,3.7-2.1,5.7c-0.5,2.3-0.7,4.7-0.7,7.1c0,2.4,0.2,4.7,0.7,7c0.4,1.9,1.1,3.8,2.1,5.5c0.8,1.5,2,2.7,3.5,3.6
		c1.5,0.9,3.2,1.3,4.9,1.3c1.8,0,3.5-0.5,5-1.4c1.5-1,2.8-2.3,3.7-3.9c1.1-1.8,1.8-3.8,2.3-5.9c0.5-2.4,0.8-4.9,0.8-7.4
		c0-2.5-0.2-4.9-0.8-7.3C130.1,70.3,129.4,68.4,128.3,66.6 M123.6,84.4c-0.1,1.2-0.4,2.3-0.8,3.4c-0.3,0.8-0.7,1.6-1.3,2.2
		c-0.5,0.5-1.2,0.8-1.9,0.8c-0.7,0-1.4-0.2-1.8-0.7c-0.6-0.6-1-1.2-1.3-2c-0.4-1.1-0.6-2.2-0.8-3.3c-0.2-1.4-0.3-2.9-0.2-4.4
		c0-1.5,0.1-2.9,0.2-4.4c0.1-1.1,0.4-2.3,0.8-3.4c0.3-0.8,0.7-1.6,1.3-2.2c0.5-0.5,1.1-0.8,1.8-0.9c0.7,0,1.4,0.2,1.9,0.6
		c0.6,0.6,1,1.2,1.3,2c0.4,1.1,0.6,2.2,0.8,3.3c0.2,1.5,0.3,3,0.3,4.5C123.9,81.4,123.8,82.9,123.6,84.4"/>
	<path class="st0" d="M134.1,49.4h-0.3h-0.3h-0.4h-0.3c-0.3,0-0.5,0-0.8,0c-0.2,0-0.4-0.1-0.5-0.2c-0.1-0.1-0.2-0.3-0.3-0.5
		c0-0.2,0-0.5,0-0.7v-4.9l2.8-0.3V39l-2.8,0.3v-4l-4,0.9v3.5l-1.8,0.2v3.8l1.8-0.2V49c0,0.7,0.1,1.3,0.3,2c0.2,0.5,0.5,1,0.9,1.4
		c0.4,0.4,0.9,0.7,1.5,0.8c0.7,0.2,1.3,0.2,2,0.1h0.6l0.6-0.1l0.5-0.1l0.4-0.2L134.1,49.4z"/>
	<path class="st0" d="M141.9,72.7l3.4-0.2v3.1l-0.5,0.3l-0.6,0.2l-0.6,0.1h-0.6c-0.7,0-1.4-0.1-2-0.3c-0.6-0.3-1.2-0.6-1.6-1.1
		c-0.5-0.5-0.8-1.1-1.1-1.8c-0.3-0.7-0.4-1.5-0.4-2.2c0-0.8,0.1-1.6,0.4-2.3c0.2-0.7,0.6-1.3,1.1-1.9c0.5-0.5,1-1,1.6-1.3
		c1.3-0.7,2.8-0.8,4.2-0.3c0.3,0.1,0.7,0.3,1,0.5c0.3,0.2,0.6,0.4,0.9,0.6l2.1-3.3c-0.4-0.3-0.9-0.6-1.3-0.8c-0.5-0.2-1-0.4-1.5-0.6
		c-0.5-0.1-1-0.2-1.6-0.3c-1.8-0.2-3.7,0.2-5.4,1c-2.2,1.1-3.9,3-4.8,5.3c-0.5,1.2-0.7,2.4-0.7,3.7c0,1.2,0.2,2.5,0.7,3.6
		c0.9,2.2,2.6,3.9,4.8,4.7c1.2,0.4,2.4,0.6,3.7,0.6c1.8-0.1,3.5-0.6,5.1-1.6c0.5-0.3,0.9-0.7,1.4-1.1v-8.2l-7.5,0.5L141.9,72.7z"/>
	<path class="st0" d="M147.8,39.1c-0.7-0.6-1.4-1-2.3-1.3c-0.9-0.3-1.9-0.3-2.8-0.2c-1,0.1-2,0.4-2.9,0.9c-1.7,0.9-3.1,2.5-3.8,4.3
		c-0.4,0.9-0.5,1.9-0.5,2.9c0,1,0.2,1.9,0.5,2.8c0.3,0.8,0.9,1.6,1.5,2.2c0.7,0.6,1.5,1.1,2.3,1.3c1,0.3,2,0.4,3,0.3
		c0.6-0.1,1.2-0.2,1.7-0.3c0.6-0.2,1.1-0.4,1.6-0.6c0.5-0.3,1-0.6,1.4-0.9c0.5-0.4,0.9-0.8,1.2-1.2l-2.3-2.2
		c-0.3,0.3-0.5,0.5-0.8,0.8c-0.3,0.2-0.6,0.4-0.9,0.6c-0.3,0.2-0.6,0.3-1,0.4c-0.3,0.1-0.7,0.2-1,0.2c-0.4,0.1-0.8,0.1-1.3,0
		c-0.4-0.1-0.7-0.2-1-0.5c-0.3-0.2-0.6-0.5-0.7-0.8c-0.2-0.4-0.3-0.7-0.4-1.1l10.1-1.1v-0.3v-0.4v-0.4v-0.4c0-0.9-0.2-1.9-0.5-2.8
		C148.9,40.6,148.5,39.8,147.8,39.1 M139.7,43.7c0.1-0.4,0.2-0.7,0.4-1.1c0.2-0.3,0.4-0.6,0.7-0.9c0.3-0.2,0.6-0.4,0.9-0.6
		c0.3-0.2,0.7-0.3,1.1-0.3c0.4-0.1,0.7-0.1,1.1,0c0.3,0.1,0.6,0.2,0.9,0.4c0.3,0.2,0.5,0.4,0.6,0.7c0.2,0.3,0.3,0.7,0.4,1
		L139.7,43.7z"/>
	<path class="st0" d="M165.5,70.1c-0.3-0.4-0.6-0.7-1-0.9c-0.4-0.2-0.8-0.4-1.3-0.5c0.3-0.2,0.7-0.4,1-0.7c0.3-0.3,0.5-0.6,0.7-0.9
		c0.2-0.3,0.4-0.7,0.5-1.1c0.1-0.4,0.2-0.9,0.2-1.3c0-0.7-0.1-1.4-0.4-2c-0.2-0.6-0.6-1.1-1.1-1.5c-0.5-0.4-1.1-0.7-1.8-0.9
		c-0.8-0.2-1.5-0.3-2.3-0.2l-7,0.5v18.5l8-0.3c0.8,0,1.6-0.2,2.3-0.5c0.7-0.3,1.3-0.7,1.8-1.2c0.5-0.5,0.9-1.1,1.2-1.8
		c0.3-0.7,0.4-1.5,0.4-2.2c0-0.5-0.1-1.1-0.2-1.6C166.1,71,165.9,70.5,165.5,70.1 M157.1,63.8l2.5-0.2c0.2,0,0.5,0,0.7,0
		c0.2,0.1,0.4,0.2,0.6,0.3c0.2,0.2,0.3,0.4,0.4,0.6c0.1,0.3,0.1,0.5,0.1,0.8c0,0.3,0,0.6-0.1,0.9c-0.1,0.2-0.2,0.5-0.4,0.6
		c-0.2,0.2-0.4,0.3-0.6,0.4c-0.2,0.1-0.5,0.2-0.7,0.2l-2.5,0.2V63.8z M162,73.8c-0.1,0.3-0.2,0.5-0.4,0.7c-0.2,0.2-0.4,0.4-0.6,0.5
		c-0.3,0.1-0.5,0.2-0.8,0.2l-3.1,0.2v-4.2l3.1-0.2c0.3,0,0.5,0,0.8,0.1c0.2,0.1,0.4,0.2,0.6,0.4c0.2,0.2,0.3,0.4,0.4,0.7
		c0.1,0.3,0.1,0.6,0.1,0.9C162.1,73.3,162.1,73.6,162,73.8L162,73.8z"/>
	<path class="st0" d="M177.1,3.1c-2.9-2.5-6.8-3.6-10.6-2.9L89.3,13c-6.3,1-11,6.5-10.9,12.9v149.9c-2.9,1.6-3.8,5.3-2.2,8.1
		c1.6,2.9,5.3,3.8,8.1,2.2c2.9-1.6,3.8-5.3,2.2-8.2c-0.5-0.9-1.3-1.7-2.2-2.2v-58.7l83.6,3.6c7.2,0.3,13.3-5.3,13.6-12.5
		c0-0.2,0-0.4,0-0.6V13.1C181.6,9.3,180,5.6,177.1,3.1 M175.7,107.7c0,1.9-0.8,3.8-2.2,5.1c-1.4,1.3-3.3,2.1-5.2,2l-83.9-3.6V26
		c0-3.5,2.5-6.4,6-7l77.1-12.9c3.9-0.6,7.5,1.9,8.2,5.8c0.1,0.4,0.1,0.8,0.1,1.2L175.7,107.7z"/>
</g>
</svg>
