<?xml version="1.0" encoding="utf-8"?>
<!-- Generator: Adobe Illustrator 21.1.0, SVG Export Plug-In . SVG Version: 6.00 Build 0)  -->
<svg version="1.1" id="Layer_1" xmlns="http://www.w3.org/2000/svg" xmlns:xlink="http://www.w3.org/1999/xlink" x="0px" y="0px"
	 viewBox="0 0 150 115" style="enable-background:new 0 0 150 115;" xml:space="preserve">
<style type="text/css">
	.st0{fill:#00973E;}
</style>
<g>
	<path class="st0" d="M117.5,115h-100V15c0-8.3,6.7-15,15-15h85c8.3,0,15,6.7,15,15v85C132.5,108.3,125.8,115,117.5,115z M21.5,111
		h96c6.1,0,11-4.9,11-11V15c0-6.1-4.9-11-11-11h-85c-6.1,0-11,4.9-11,11L21.5,111L21.5,111z"/>
	<path class="st0" d="M100.8,73.1l-9.3-9.4c-1.5-1.5-3.9-1.5-5.4,0L82.9,67c-1.4,1.4-3.8,1.4-5.2,0L65.6,54.8
		c-1.4-1.4-1.4-3.8,0-5.2l3.2-3.2c1.5-1.5,1.5-3.9,0-5.4l-9.4-9.4c-1-1-2.6-1-3.6,0L53.6,34c-6.7,6.7-6.8,17.6-0.1,24.4L74,79
		c6.7,6.7,17.6,6.8,24.4,0.1l2.4-2.4C101.8,75.7,101.8,74.1,100.8,73.1z"/>
</g>
</svg>
