<?xml version="1.0" encoding="utf-8"?>
<!-- Generator: Adobe Illustrator 21.1.0, SVG Export Plug-In . SVG Version: 6.00 Build 0)  -->
<svg version="1.1" id="Layer_1" xmlns="http://www.w3.org/2000/svg" xmlns:xlink="http://www.w3.org/1999/xlink" x="0px" y="0px"
	 viewBox="0 0 150 115" style="enable-background:new 0 0 150 115;" xml:space="preserve">
<style type="text/css">
	.st0{fill:#00973E;}
</style>
<g>
	<path class="st0" d="M128.9,96.9h-72v-4.1h72c4.8,0,8.7-3.9,8.7-8.7l0-71.2c0-4.8-3.9-8.7-8.7-8.7H38.7C33.9,4.1,30,8,30,12.8v52.5
		h-4.1V12.8C25.9,5.8,31.7,0,38.7,0h90.2c7.1,0,12.8,5.8,12.8,12.8v71.2C141.7,91.1,136,96.9,128.9,96.9z"/>
	<polygon class="st0" points="83.8,51.1 28.9,6 31.6,2.8 83.8,45.8 136.1,2.8 138.7,6 	"/>
	<rect x="8.3" y="92.7" class="st0" width="40.5" height="4.1"/>
	<rect x="26.5" y="74.5" class="st0" width="4.1" height="40.5"/>
</g>
</svg>
