<svg xmlns="http://www.w3.org/2000/svg" width="29.63" height="45.87" viewBox="0 0 29.63 45.87">
  <metadata><?xpacket begin="﻿" id="W5M0MpCehiHzreSzNTczkc9d"?>
<x:xmpmeta xmlns:x="adobe:ns:meta/" x:xmptk="Adobe XMP Core 5.6-c138 79.159824, 2016/09/14-01:09:01        ">
   <rdf:RDF xmlns:rdf="http://www.w3.org/1999/02/22-rdf-syntax-ns#">
      <rdf:Description rdf:about=""/>
   </rdf:RDF>
</x:xmpmeta>
                                                                                                    
                                                                                                    
                                                                                                    
                                                                                                    
                                                                                                    
                                                                                                    
                                                                                                    
                                                                                                    
                                                                                                    
                                                                                                    
                                                                                                    
                                                                                                    
                                                                                                    
                                                                                                    
                                                                                                    
                                                                                                    
                                                                                                    
                                                                                                    
                                                                                                    
                                                                                                    
                           
<?xpacket end="w"?></metadata>
<defs>
    <style>
      .cls-1 {
        fill: #333;
        fill-rule: evenodd;
      }
    </style>
  </defs>
  <path id="_25" data-name="25" class="cls-1" d="M1079.67,1939.81h-18.63a5.51,5.51,0,0,1-5.5-5.5v-34.87a5.51,5.51,0,0,1,5.5-5.5h18.63a5.5,5.5,0,0,1,5.49,5.5v34.87A5.5,5.5,0,0,1,1079.67,1939.81Zm-18.63-43.97a3.606,3.606,0,0,0-3.61,3.6v34.87a3.615,3.615,0,0,0,3.61,3.61h18.63a3.606,3.606,0,0,0,3.6-3.61v-34.87a3.6,3.6,0,0,0-3.6-3.6h-18.63Zm18.71,33.14h-18.79a0.941,0.941,0,0,1-.95-0.94v-25.87a0.95,0.95,0,0,1,.95-0.95h18.79a0.947,0.947,0,0,1,.94.95v25.87A0.939,0.939,0,0,1,1079.75,1928.98Zm-17.85-1.89h16.9v-23.98h-16.9v23.98Zm11.48-27.16h-6.06a0.945,0.945,0,0,1,0-1.89h6.06A0.945,0.945,0,1,1,1073.38,1899.93Zm-3.03,36.54a2.92,2.92,0,1,1,2.92-2.92A2.915,2.915,0,0,1,1070.35,1936.47Zm0-3.94a1.025,1.025,0,1,0,1.03,1.02A1.024,1.024,0,0,0,1070.35,1932.53Z" transform="translate(-1055.53 -1893.94)"/>
</svg>
