<svg xmlns="http://www.w3.org/2000/svg" width="30" height="30" viewBox="0 0 30 30">
    <g fill="#00A04A" fill-rule="nonzero">
        <path d="M24.6 12.9H5.4c-.3 0-.6-.3-.7-.6V9.5c0-1.1.9-2 2.1-2.1h16.4c1.1 0 2 .9 2.1 2.1v2.7c-.1.4-.4.7-.7.7zM6.1 11.6h17.8V9.5c0-.3-.3-.6-.6-.7H6.8c-.3 0-.6.3-.7.6v2.2z"/>
        <path d="M20.5 26.6h-11c-1.9 0-3.4-1.5-3.4-3.4V12.3c0-.3.3-.6.6-.7h.1c.3 0 .6.3.7.6v11c0 1.1.9 2 2.1 2.1h10.9c1.1 0 2-.9 2.1-2.1V12.3c0-.4.3-.7.7-.7.4 0 .7.3.7.7v10.9c-.1 1.9-1.6 3.4-3.5 3.4zM18.4 8.2H17V5.5c0-.3-.3-.6-.6-.7H13.6c-.3 0-.6.3-.7.6V8.2h-1.4V5.6c0-1.1.9-2 2.1-2.1h2.7c1.1 0 2 .9 2.1 2.1v2.6z"/>
        <path d="M10.9 22.5c-.3 0-.6-.3-.7-.6v-5.6c0-.3.3-.6.6-.7h.1c.3 0 .6.3.7.6v5.6c-.1.3-.3.6-.7.7zM15 22.5c-.3 0-.6-.3-.7-.6v-5.6c0-.4.3-.7.7-.7.4 0 .7.3.7.7v5.5c0 .3-.3.6-.6.7H15zM19.1 22.5c-.3 0-.6-.3-.7-.6v-5.6c0-.4.3-.7.7-.7.4 0 .7.3.7.7v5.5c0 .3-.3.6-.6.7h-.1z"/>
    </g>
</svg>
