<?xml version="1.0" encoding="utf-8"?>
<!-- Generator: Adobe Illustrator 15.1.0, SVG Export Plug-In . SVG Version: 6.00 Build 0)  -->
<!DOCTYPE svg PUBLIC "-//W3C//DTD SVG 1.1//EN" "http://www.w3.org/Graphics/SVG/1.1/DTD/svg11.dtd">
<svg version="1.1" id="Isolation_Mode" xmlns="http://www.w3.org/2000/svg" xmlns:xlink="http://www.w3.org/1999/xlink" x="0px"
	 y="0px" width="58px" height="52px" viewBox="0 0 58 52" enable-background="new 0 0 58 52" xml:space="preserve">
<path fill="none" stroke="#ffffff" stroke-width="2.276" stroke-linecap="round" stroke-miterlimit="10" d="M52.104,34.168H6.17
	c-2.433,0-4.405,1.972-4.405,4.405v12.114h50.339c2.433,0,4.405-1.973,4.405-4.405v-7.709C56.509,36.14,54.537,34.168,52.104,34.168
	z"/>
<line fill="none" stroke="#ffffff" stroke-width="2.276" stroke-linecap="round" stroke-linejoin="round" stroke-miterlimit="10" x1="9.29" y1="42.428" x2="9.565" y2="42.428"/>
<line fill="none" stroke="#ffffff" stroke-width="2.276" stroke-linecap="round" stroke-linejoin="round" stroke-miterlimit="10" x1="14.705" y1="42.428" x2="14.979" y2="42.428"/>
<line fill="none" stroke="#ffffff" stroke-width="2.276" stroke-linecap="round" stroke-linejoin="round" stroke-miterlimit="10" x1="38.229" y1="34.168" x2="38.229" y2="26.582"/>
<line fill="none" stroke="#ffffff" stroke-width="2.276" stroke-linecap="round" stroke-linejoin="round" stroke-miterlimit="10" x1="38.469" y1="21.412" x2="38.832" y2="21.412"/>
<path fill="none" stroke="#ffffff" stroke-width="2.276" stroke-linecap="round" stroke-miterlimit="10" d="M33.967,17.313
	c1.199-1.206,2.859-1.952,4.693-1.952c1.825,0,3.476,0.739,4.674,1.932"/>
<path fill="none" stroke="#ffffff" stroke-width="2.276" stroke-linecap="round" stroke-miterlimit="10" d="M28.855,12.913
	c2.44-2.637,5.93-4.288,9.805-4.288c3.681,0,7.014,1.49,9.429,3.898"/>
<path fill="none" stroke="#ffffff" stroke-width="2.276" stroke-linecap="round" stroke-miterlimit="10" d="M24.126,8.575
	c3.613-3.915,8.787-6.367,14.534-6.367c5.45,0,10.385,2.205,13.961,5.772"/>
</svg>
