<svg width="192" height="192" viewBox="0 0 192 192" fill="none" xmlns="http://www.w3.org/2000/svg">
<path d="M96 180C142.392 180 180 142.392 180 96C180 49.6081 142.392 12 96 12C49.6081 12 12 49.6081 12 96C12 142.392 49.6081 180 96 180Z" stroke="#F3F3F3" stroke-width="10" stroke-miterlimit="10" stroke-linecap="square"/>
<path d="M127.2 134C124.041 128.524 119.496 123.975 114.022 120.813C108.548 117.651 102.337 115.986 96.015 115.986C89.6929 115.986 83.4823 117.651 78.008 120.813C72.5336 123.975 67.9885 128.524 64.83 134" stroke="#F3F3F3" stroke-width="10" stroke-miterlimit="10" stroke-linecap="round"/>
<path d="M58.5 86C62.6421 86 66 82.6421 66 78.5C66 74.3579 62.6421 71 58.5 71C54.3579 71 51 74.3579 51 78.5C51 82.6421 54.3579 86 58.5 86Z" fill="#F3F3F3"/>
<path d="M133.5 86C137.642 86 141 82.6421 141 78.5C141 74.3579 137.642 71 133.5 71C129.358 71 126 74.3579 126 78.5C126 82.6421 129.358 86 133.5 86Z" fill="#F3F3F3"/>
</svg>
