<svg xmlns="http://www.w3.org/2000/svg" xmlns:xlink="http://www.w3.org/1999/xlink" width="27" height="27" viewBox="0 0 27 27">
    <defs>
        <path id="a" d="M0 .5h26.605V27H0z"/>
    </defs>
    <g fill="none" fill-rule="evenodd">
        <g transform="translate(0 -.5)">
            <mask id="b" fill="#fff">
                <use xlink:href="#a"/>
            </mask>
            <path fill="#FFF" d="M13.232 18.553c-3.913-.104-5.466-7.531-5.97-13.104 0-.011.006-.02.006-.031 0-.027-.013-.05-.015-.075A50.872 50.872 0 0 1 7.064 2H19.4c-.111 5.203-1.353 16.425-6.168 16.553m13.203-13.61a.749.749 0 0 0-.58-.275h-5.093c.139-1.88.146-3.221.146-3.418a.75.75 0 0 0-.75-.75H6.305a.75.75 0 0 0-.75.75c0 .197.008 1.539.146 3.418H.75a.75.75 0 0 0-.735.898l1.389 6.944a.75.75 0 1 0 1.471-.295l-1.21-6.047h4.168c.531 5.262 2.085 12.95 6.632 13.808V25.5H9.083a.75.75 0 0 0 0 1.5h8.333a.75.75 0 1 0 0-1.5h-3.417v-5.524c4.547-.857 6.101-8.546 6.632-13.808h4.309l-1.209 6.047a.75.75 0 0 0 1.471.295l1.388-6.944a.744.744 0 0 0-.155-.623" mask="url(#b)"/>
        </g>
        <path fill="#FFF" d="M13.537 4.225a.748.748 0 0 0-.817.163l-1.39 1.389a.749.749 0 1 0 1.06 1.06l.11-.108v5.133a.75.75 0 0 0 1.5 0V4.918a.75.75 0 0 0-.463-.693"/>
    </g>
</svg>
