<?xml version="1.0" encoding="utf-8"?>
<!-- Generator: Adobe Illustrator 15.1.0, SVG Export Plug-In . SVG Version: 6.00 Build 0)  -->
<!DOCTYPE svg PUBLIC "-//W3C//DTD SVG 1.1//EN" "http://www.w3.org/Graphics/SVG/1.1/DTD/svg11.dtd">
<svg version="1.1" id="Isolation_Mode" xmlns="http://www.w3.org/2000/svg" xmlns:xlink="http://www.w3.org/1999/xlink" x="0px"
	 y="0px" width="61.75px" height="61.75px" viewBox="0 0 61.75 61.75" enable-background="new 0 0 61.75 61.75"
	 xml:space="preserve">
<path fill="none" stroke="#00A04A" stroke-width="2.9" stroke-linecap="round" stroke-miterlimit="10" d="M41.882,6.127
	c6.906,0,3.583,13.14,3.583,13.14s1.194,0.882,1.194,3.583c0,2.703-3.583,4.778-3.583,4.778s-2.259,4.647-4.778,7.167l2.678,5.356
	c0.576,1.151,1.617,2,2.861,2.332l11.764,3.137c2.476,0.66,4.198,2.901,4.198,5.465v3.14c0,3.123-2.532,5.654-5.654,5.654H2.463
	v-8.794c0-2.563,1.722-4.805,4.198-5.465l11.765-3.137c1.243-0.332,2.284-1.181,2.86-2.332l2.679-5.356
	c-2.521-2.52-4.779-7.167-4.779-7.167s-3.583-2.076-3.583-4.778c0-2.701,1.195-3.583,1.195-3.583s-0.454-7.448,1.194-10.559
	c1.649-3.111,7.54-6.164,14.334-6.164C41.275,2.544,41.882,6.127,41.882,6.127"/>
</svg>
