<?xml version="1.0" encoding="utf-8"?>
<!-- Generator: Adobe Illustrator 21.1.0, SVG Export Plug-In . SVG Version: 6.00 Build 0)  -->
<svg version="1.1" id="Layer_1" xmlns="http://www.w3.org/2000/svg" xmlns:xlink="http://www.w3.org/1999/xlink" x="0px" y="0px"
	 viewBox="0 0 111.6 187" style="enable-background:new 0 0 111.6 187;" xml:space="preserve">
<g>
	<polygon style="fill:#169F4E;" points="15.4,69.8 17.8,74.8 22.4,71.8 22.4,97.8 29.3,97.7 29.3,63.9 23.2,64.3 	"/>
	<path style="fill:#169F4E;" d="M38.7,54.3c0.6-0.3,1.1-0.7,1.6-1.2s0.8-1.1,1-1.8s0.4-1.4,0.4-2.2c0-0.5,0-1-0.2-1.4
		c-0.1-0.4-0.3-0.8-0.6-1.2c-0.2-0.3-0.5-0.6-0.9-0.8c-0.3-0.2-0.7-0.4-1.1-0.4c0.3-0.2,0.6-0.4,0.8-0.7c0.3-0.3,0.5-0.6,0.6-0.9
		c0.2-0.3,0.3-0.7,0.4-1.1c0.1-0.4,0.1-0.8,0.1-1.3c0-0.7-0.1-1.4-0.3-2c-0.2-0.5-0.6-1-1-1.4s-1-0.7-1.6-0.8c-0.7-0.1-1.3-0.1-2,0
		l-6.2,0.8v17.7l6.9-0.7C37.5,54.9,38.1,54.7,38.7,54.3 M33.4,40.8l2.2-0.3c0.2,0,0.4,0,0.6,0c0.2,0.1,0.4,0.2,0.5,0.3
		c0.2,0.2,0.3,0.3,0.3,0.5c0.1,0.2,0.1,0.5,0.1,0.8s0,0.6-0.1,0.8s-0.2,0.4-0.3,0.6c-0.1,0.2-0.3,0.3-0.5,0.4
		c-0.2,0.1-0.4,0.2-0.6,0.2l-2.2,0.3V40.8z M33.4,51.8v-4.1l2.7-0.3c0.2,0,0.5,0,0.7,0c0.2,0.1,0.4,0.2,0.6,0.4s0.3,0.4,0.4,0.6
		c0.1,0.3,0.1,0.6,0.1,0.8c0,0.3,0,0.6-0.1,0.9c-0.1,0.3-0.2,0.5-0.4,0.7c-0.2,0.2-0.3,0.4-0.6,0.5c-0.2,0.1-0.5,0.2-0.7,0.2
		L33.4,51.8z"/>
	<polygon style="fill:#169F4E;" points="44.1,54.2 47.9,53.9 47.9,40.3 44.1,40.8 	"/>
	<path style="fill:#169F4E;" d="M44.4,38.8c0.2,0.2,0.4,0.3,0.7,0.4c0.3,0.1,0.6,0.1,0.9,0c0.3,0,0.6-0.1,0.9-0.3
		c0.3-0.1,0.5-0.3,0.7-0.6c0.4-0.5,0.6-1.1,0.6-1.7c0-0.3-0.1-0.6-0.2-0.9c-0.1-0.3-0.3-0.5-0.5-0.7s-0.4-0.3-0.7-0.4
		c-0.3-0.1-0.6-0.1-0.9,0c-0.3,0-0.6,0.1-0.9,0.3c-0.3,0.1-0.5,0.3-0.7,0.6c-0.4,0.5-0.6,1.1-0.6,1.7c0,0.3,0,0.6,0.2,0.9
		C44,38.4,44.2,38.6,44.4,38.8"/>
	<path style="fill:#169F4E;" d="M52.9,66.6c-0.9-1.5-2.2-2.7-3.7-3.5s-3.3-1.1-5-1c-1.8,0.1-3.5,0.7-4.9,1.7c-1.4,1-2.6,2.4-3.5,4
		c-1,1.8-1.7,3.7-2.1,5.7c-0.5,2.3-0.7,4.7-0.7,7.1s0.2,4.7,0.7,7c0.4,1.9,1.1,3.8,2.1,5.5c0.8,1.5,2,2.7,3.5,3.6s3.2,1.3,4.9,1.3
		c1.8,0,3.5-0.5,5-1.4c1.5-1,2.8-2.3,3.7-3.9c1.1-1.8,1.8-3.8,2.3-5.9c0.5-2.4,0.8-4.9,0.8-7.4s-0.2-4.9-0.8-7.3
		C54.7,70.3,54,68.4,52.9,66.6 M48.2,84.4c-0.1,1.2-0.4,2.3-0.8,3.4c-0.3,0.8-0.7,1.6-1.3,2.2c-0.5,0.5-1.2,0.8-1.9,0.8
		c-0.7,0-1.4-0.2-1.8-0.7c-0.6-0.6-1-1.2-1.3-2c-0.4-1.1-0.6-2.2-0.8-3.3c-0.2-1.4-0.3-2.9-0.2-4.4c0-1.5,0.1-2.9,0.2-4.4
		c0.1-1.1,0.4-2.3,0.8-3.4c0.3-0.8,0.7-1.6,1.3-2.2c0.5-0.5,1.1-0.8,1.8-0.9c0.7,0,1.4,0.2,1.9,0.6c0.6,0.6,1,1.2,1.3,2
		c0.4,1.1,0.6,2.2,0.8,3.3c0.2,1.5,0.3,3,0.3,4.5S48.4,82.9,48.2,84.4"/>
	<path style="fill:#169F4E;" d="M58.7,49.4h-0.3h-0.3h-0.4h-0.3c-0.3,0-0.5,0-0.8,0c-0.2,0-0.4-0.1-0.5-0.2
		c-0.1-0.1-0.2-0.3-0.3-0.5c0-0.2,0-0.5,0-0.7v-4.9l2.8-0.3V39l-2.8,0.3v-4l-4,0.9v3.5L50,39.9v3.8l1.8-0.2V49c0,0.7,0.1,1.3,0.3,2
		c0.2,0.5,0.5,1,0.9,1.4s0.9,0.7,1.5,0.8c0.7,0.2,1.3,0.2,2,0.1h0.6l0.6-0.1l0.5-0.1l0.4-0.2L58.7,49.4z"/>
	<path style="fill:#169F4E;" d="M66.5,72.7l3.4-0.2v3.1l-0.5,0.3l-0.6,0.2l-0.6,0.1h-0.6c-0.7,0-1.4-0.1-2-0.3
		c-0.6-0.3-1.2-0.6-1.6-1.1c-0.5-0.5-0.8-1.1-1.1-1.8c-0.3-0.7-0.4-1.5-0.4-2.2c0-0.8,0.1-1.6,0.4-2.3c0.2-0.7,0.6-1.3,1.1-1.9
		c0.5-0.5,1-1,1.6-1.3c1.3-0.7,2.8-0.8,4.2-0.3c0.3,0.1,0.7,0.3,1,0.5s0.6,0.4,0.9,0.6l2.1-3.3c-0.4-0.3-0.9-0.6-1.3-0.8
		c-0.5-0.2-1-0.4-1.5-0.6c-0.5-0.1-1-0.2-1.6-0.3c-1.8-0.2-3.7,0.2-5.4,1c-2.2,1.1-3.9,3-4.8,5.3c-0.5,1.2-0.7,2.4-0.7,3.7
		c0,1.2,0.2,2.5,0.7,3.6c0.9,2.2,2.6,3.9,4.8,4.7c1.2,0.4,2.4,0.6,3.7,0.6c1.8-0.1,3.5-0.6,5.1-1.6c0.5-0.3,0.9-0.7,1.4-1.1v-8.2
		l-7.5,0.5L66.5,72.7z"/>
	<path style="fill:#169F4E;" d="M72.4,39.1c-0.7-0.6-1.4-1-2.3-1.3c-0.9-0.3-1.9-0.3-2.8-0.2c-1,0.1-2,0.4-2.9,0.9
		c-1.7,0.9-3.1,2.5-3.8,4.3c-0.4,0.9-0.5,1.9-0.5,2.9s0.2,1.9,0.5,2.8c0.3,0.8,0.9,1.6,1.5,2.2c0.7,0.6,1.5,1.1,2.3,1.3
		c1,0.3,2,0.4,3,0.3c0.6-0.1,1.2-0.2,1.7-0.3c0.6-0.2,1.1-0.4,1.6-0.6c0.5-0.3,1-0.6,1.4-0.9c0.5-0.4,0.9-0.8,1.2-1.2L71,47.1
		c-0.3,0.3-0.5,0.5-0.8,0.8c-0.3,0.2-0.6,0.4-0.9,0.6c-0.3,0.2-0.6,0.3-1,0.4c-0.3,0.1-0.7,0.2-1,0.2c-0.4,0.1-0.8,0.1-1.3,0
		c-0.4-0.1-0.7-0.2-1-0.5c-0.3-0.2-0.6-0.5-0.7-0.8c-0.2-0.4-0.3-0.7-0.4-1.1L74,45.6v-0.3v-0.4v-0.4v-0.4c0-0.9-0.2-1.9-0.5-2.8
		C73.5,40.6,73.1,39.8,72.4,39.1 M64.3,43.7c0.1-0.4,0.2-0.7,0.4-1.1c0.2-0.3,0.4-0.6,0.7-0.9c0.3-0.2,0.6-0.4,0.9-0.6
		c0.3-0.2,0.7-0.3,1.1-0.3c0.4-0.1,0.7-0.1,1.1,0c0.3,0.1,0.6,0.2,0.9,0.4c0.3,0.2,0.5,0.4,0.6,0.7c0.2,0.3,0.3,0.7,0.4,1L64.3,43.7
		z"/>
	<path style="fill:#169F4E;" d="M90.1,70.1c-0.3-0.4-0.6-0.7-1-0.9c-0.4-0.2-0.8-0.4-1.3-0.5c0.3-0.2,0.7-0.4,1-0.7
		c0.3-0.3,0.5-0.6,0.7-0.9s0.4-0.7,0.5-1.1s0.2-0.9,0.2-1.3c0-0.7-0.1-1.4-0.4-2c-0.2-0.6-0.6-1.1-1.1-1.5s-1.1-0.7-1.8-0.9
		c-0.8-0.2-1.5-0.3-2.3-0.2l-7,0.5v18.5l8-0.3c0.8,0,1.6-0.2,2.3-0.5s1.3-0.7,1.8-1.2s0.9-1.1,1.2-1.8c0.3-0.7,0.4-1.5,0.4-2.2
		c0-0.5-0.1-1.1-0.2-1.6C90.7,71,90.5,70.5,90.1,70.1 M81.7,63.8l2.5-0.2c0.2,0,0.5,0,0.7,0c0.2,0.1,0.4,0.2,0.6,0.3
		c0.2,0.2,0.3,0.4,0.4,0.6C86,64.8,86,65,86,65.3s0,0.6-0.1,0.9c-0.1,0.2-0.2,0.5-0.4,0.6c-0.2,0.2-0.4,0.3-0.6,0.4
		c-0.2,0.1-0.5,0.2-0.7,0.2l-2.5,0.2V63.8z M86.6,73.8c-0.1,0.3-0.2,0.5-0.4,0.7s-0.4,0.4-0.6,0.5c-0.3,0.1-0.5,0.2-0.8,0.2
		l-3.1,0.2v-4.2l3.1-0.2c0.3,0,0.5,0,0.8,0.1c0.2,0.1,0.4,0.2,0.6,0.4c0.2,0.2,0.3,0.4,0.4,0.7c0.1,0.3,0.1,0.6,0.1,0.9
		C86.7,73.3,86.7,73.6,86.6,73.8L86.6,73.8z"/>
	<path style="fill:#169F4E;" d="M101.7,3.1c-2.9-2.5-6.8-3.6-10.6-2.9L13.9,13C7.6,14,2.9,19.5,3,25.9v149.9
		c-2.9,1.6-3.8,5.3-2.2,8.1c1.6,2.9,5.3,3.8,8.1,2.2c2.9-1.6,3.8-5.3,2.2-8.2c-0.5-0.9-1.3-1.7-2.2-2.2V117l83.6,3.6
		c7.2,0.3,13.3-5.3,13.6-12.5c0-0.2,0-0.4,0-0.6V13.1C106.2,9.3,104.6,5.6,101.7,3.1 M100.3,107.7c0,1.9-0.8,3.8-2.2,5.1
		c-1.4,1.3-3.3,2.1-5.2,2L9,111.2V26c0-3.5,2.5-6.4,6-7L92.1,6.1c3.9-0.6,7.5,1.9,8.2,5.8c0.1,0.4,0.1,0.8,0.1,1.2L100.3,107.7z"/>
</g>
</svg>
