<?xml version="1.0" encoding="utf-8"?>
<!-- Generator: Adobe Illustrator 21.0.2, SVG Export Plug-In . SVG Version: 6.00 Build 0)  -->
<svg version="1.1" id="Capa_1" xmlns="http://www.w3.org/2000/svg" xmlns:xlink="http://www.w3.org/1999/xlink" x="0px" y="0px"
	 viewBox="0 0 25 20" style="enable-background:new 0 0 25 20;" xml:space="preserve">
<style type="text/css">
	.st0{fill:#ffffff;}
</style>
<g>
	<g>
		<path class="st0" d="M23,3.5c-0.8,0.3-1.6,0.6-2.5,0.7c0.9-0.5,1.5-1.4,1.9-2.4c-0.9,0.5-1.8,0.9-2.7,1c-0.8-0.9-1.9-1.4-3.1-1.4
			c-2.4,0-4.3,2-4.3,4.2c0,0.3,0,0.7,0.1,1C8.8,6.6,5.6,4.9,3.5,2.3C3.1,2.9,2.9,3.6,2.9,4.5C2.9,6,3.7,7.3,4.8,8
			C4.1,8,3.5,7.8,2.9,7.4v0.1c0,2,1.4,3.8,3.5,4.2C6,11.9,5.6,12,5.3,12c-0.3,0-0.5,0-0.9-0.1c0.5,1.7,2.1,3,4,3
			C7,16,5.1,16.7,3.1,16.7c-0.3,0-0.7,0-1-0.1c1.9,1.2,4.2,1.9,6.5,1.9c7.9,0,12.2-6.5,12.2-12.2V5.7C21.7,5.2,22.4,4.4,23,3.5z"/>
	</g>
</g>
</svg>
