<?xml version="1.0" encoding="UTF-8" standalone="no"?><!DOCTYPE svg PUBLIC "-//W3C//DTD SVG 1.1//EN" "http://www.w3.org/Graphics/SVG/1.1/DTD/svg11.dtd"><svg width="100%" height="100%" viewBox="0 0 48 48" version="1.1" xmlns="http://www.w3.org/2000/svg" xmlns:xlink="http://www.w3.org/1999/xlink" xml:space="preserve" xmlns:serif="http://www.serif.com/" style="fill-rule:evenodd;clip-rule:evenodd;stroke-linejoin:round;stroke-miterlimit:1.41421;"><g><g><path d="M22,14.5l0,19c0,1.1 0.9,2 2,2c1.1,0 2,-0.9 2,-2l0,-19c0,-1.1 -0.9,-2 -2,-2c-1.1,0 -2,0.9 -2,2Z" style="fill-rule:nonzero;"/><path d="M24,36.5c-1.7,0 -3,-1.3 -3,-3l0,-19c0,-1.7 1.3,-3 3,-3c1.7,0 3,1.3 3,3l0,19c0,1.7 -1.3,3 -3,3Zm0,-23c-0.6,0 -1,0.4 -1,1l0,19c0,0.6 0.4,1 1,1c0.6,0 1,-0.4 1,-1l0,-19c0,-0.6 -0.4,-1 -1,-1Z" style="fill-rule:nonzero;"/><path d="M33.5,21.5l-19,0c-1.1,0 -2,0.9 -2,2c0,1.1 0.9,2 2,2l19,0c1.1,0 2,-0.9 2,-2c0,-1.1 -0.9,-2 -2,-2Z" style="fill-rule:nonzero;"/><path d="M33.5,26.5l-19,0c-1.7,0 -3,-1.3 -3,-3c0,-1.7 1.3,-3 3,-3l19,0c1.7,0 3,1.3 3,3c0,1.7 -1.3,3 -3,3Zm-19,-4c-0.6,0 -1,0.4 -1,1c0,0.6 0.4,1 1,1l19,0c0.6,0 1,-0.4 1,-1c0,-0.6 -0.4,-1 -1,-1l-19,0Z" style="fill-rule:nonzero;"/></g></g></svg>