<?xml version="1.0" encoding="utf-8"?>
<!-- Generator: Adobe Illustrator 21.1.0, SVG Export Plug-In . SVG Version: 6.00 Build 0)  -->
<svg version="1.1" id="Isolation_Mode" xmlns="http://www.w3.org/2000/svg" xmlns:xlink="http://www.w3.org/1999/xlink" x="0px"
	 y="0px" viewBox="0 0 68.9 69.1" style="enable-background:new 0 0 68.9 69.1;" xml:space="preserve">
<path style="fill:none;stroke:#ffffff;stroke-width:2.9;stroke-linecap:round;stroke-miterlimit:10;" d="M61.5,67H2V29.2
	c0-3,2.4-5.4,5.4-5.4h54.1c3,0,5.4,2.4,5.4,5.4v32.5C66.9,64.6,64.5,67,61.5,67z"/>
<path style="fill:none;stroke:#ffffff;stroke-width:2.9;stroke-linecap:round;stroke-linejoin:round;stroke-miterlimit:10;" d="
	M22.5,11.6c-2.2-2.2-2.4-5.8-0.2-8c0.4-0.4,0.9-0.7,1.4-1c0.5-0.3,1.1-0.4,1.6-0.5c3.1-0.5,5.9,1.8,6.4,4.9l2.4,16.2L22.5,11.6z"/>
<path style="fill:none;stroke:#ffffff;stroke-width:2.9;stroke-linecap:round;stroke-linejoin:round;stroke-miterlimit:10;" d="
	M46.3,11.6c2.2-2.2,2.4-5.8,0.2-8c-0.4-0.4-0.9-0.7-1.4-1c-0.5-0.3-1.1-0.4-1.6-0.5c-3.1-0.5-5.9,1.8-6.4,4.9l-2.4,16.2L46.3,11.6z"
	/>
<polyline style="fill:none;stroke:#ffffff;stroke-width:2.9;stroke-linecap:round;stroke-miterlimit:10;" points="19.6,17
	34.7,23.2 49.3,17 "/>
<line style="fill:none;stroke:#ffffff;stroke-width:2.9;stroke-linecap:round;stroke-miterlimit:10;" x1="2" y1="37.3" x2="66.9" y2="37.3"/>
<line style="fill:none;stroke:#ffffff;stroke-width:2.9;stroke-linecap:round;stroke-miterlimit:10;" x1="34.4" y1="23.8" x2="34.4" y2="67"/>
</svg>
