<svg version="1.1" xmlns="http://www.w3.org/2000/svg" xmlns:xlink="http://www.w3.org/1999/xlink" x="0px" y="0px"
	 width="595.279px" height="483.477px" viewBox="0 179.207 595.279 483.477" enable-background="new 0 179.207 595.279 483.477"
	 xml:space="preserve">
<path fill="#242422" d="M141.014,464.257c-8.058,0-16.116-3.022-22.159-7.051c-16.116,12.087-39.282,9.065-51.369-7.051
	s-9.065-39.282,7.051-51.369c13.094-10.073,31.224-10.073,44.318,0c16.116-12.087,39.282-9.065,51.369,7.051
	c12.087,16.115,9.065,39.282-7.051,51.369C157.13,461.234,149.072,464.257,141.014,464.257z M118.855,427.996
	c4.029,0,8.058,2.015,10.072,6.043c4.029,7.051,12.087,9.065,19.138,5.036c7.051-4.028,9.065-12.087,5.036-19.138
	s-12.087-9.064-19.138-5.036c-2.015,1.008-4.029,3.022-5.036,5.036c-2.015,4.029-6.043,6.044-10.072,6.044l0,0
	c-4.029,0-8.058-2.015-10.072-6.044c-4.029-7.051-12.087-9.064-19.138-5.036c-7.051,4.029-9.065,12.087-5.036,19.138
	c4.028,7.051,12.087,9.065,19.138,5.036c2.014-1.007,4.028-3.021,5.036-5.036C110.797,430.011,114.825,427.996,118.855,427.996z"/>
<path fill="#242422" d="M350.52,537.785H11.079C5.036,537.785,0,531.742,0,525.698V234.605c0-30.217,25.181-55.398,55.398-55.398
	h442.179c31.225,0,56.405,25.181,56.405,55.398V441.09c0,6.044-5.036,11.08-11.079,11.08c-6.044,0-11.08-5.036-11.08-11.08V234.605
	c0-18.131-15.108-33.239-33.238-33.239H56.406c-18.13,0-33.239,15.108-33.239,33.239v280.014H350.52
	c6.044,0,11.08,5.036,11.08,11.079C362.607,532.749,357.571,537.785,350.52,537.785L350.52,537.785L350.52,537.785z"/>
<path fill="#242422" d="M534.846,282.953H22.159c-7.051,0-12.087-5.037-12.087-12.087c0-6.044,5.036-11.08,12.087-11.08l0,0h511.679
	c6.044,0,11.08,5.036,11.08,11.08C545.925,277.917,540.889,282.953,534.846,282.953
	C533.838,282.953,533.838,282.953,534.846,282.953L534.846,282.953z"/>
<path fill="#242422" d="M534.846,345.402H22.159c-7.051,0-12.087-5.036-12.087-11.08s5.036-11.08,11.079-11.08l0,0h512.687
	c6.044,0,11.08,5.036,11.08,11.08C545.925,340.366,540.889,345.402,534.846,345.402
	C533.838,345.402,533.838,345.402,534.846,345.402L534.846,345.402z"/>
<path fill="#242422" d="M471.389,662.684c-68.492,0-123.891-55.398-123.891-123.891c0-68.493,55.398-123.892,123.891-123.892
	c68.493,0,123.891,55.398,123.891,123.892C595.28,607.285,539.882,662.684,471.389,662.684z M471.389,438.068
	c-55.398,0-100.724,45.326-100.724,100.725c0,55.397,45.325,100.724,100.724,100.724s100.725-45.326,100.725-100.724
	C572.114,483.395,527.795,438.068,471.389,438.068z"/>
<path fill="#242422" d="M511.679,513.611v-13.094c0-22.159-18.13-40.29-40.29-40.29c-22.159,0-40.289,18.131-40.289,40.29v13.094
	c-7.051,2.015-12.087,9.065-12.087,16.116v58.42c0,9.065,7.051,17.123,17.123,17.123h70.507c9.065,0,17.123-7.051,17.123-17.123
	v-58.42C523.766,522.677,518.73,516.633,511.679,513.611z M441.172,584.118v-48.348h60.435v48.348H441.172z M453.259,513.611
	v-12.087c-1.008-10.072,7.051-19.138,17.123-20.145c10.072-1.008,19.138,7.051,20.145,17.123c0,1.007,0,2.015,0,3.021v12.087
	H453.259z"/>
<path fill="#242422" d="M465.346,563.974v8.058c0,3.021,3.021,6.044,6.043,6.044c3.022,0,6.044-3.022,6.044-6.044v-8.058
	c6.043-3.021,8.058-10.072,4.028-16.116c-3.021-6.043-10.072-8.058-16.115-4.028c-6.044,3.021-8.058,10.072-4.029,16.115
	C462.324,560.952,464.338,562.966,465.346,563.974z"/>
</svg>
