<?xml version="1.0" encoding="utf-8"?>
<!-- Generator: Adobe Illustrator 21.0.2, SVG Export Plug-In . SVG Version: 6.00 Build 0)  -->
<svg version="1.1" id="Layer_1" xmlns="http://www.w3.org/2000/svg" xmlns:xlink="http://www.w3.org/1999/xlink" x="0px" y="0px"
	 viewBox="0 0 18 18" style="enable-background:new 0 0 18 18;" xml:space="preserve">
<style type="text/css">
	.st0{fill:#FFFFFF;}
</style>
<path id="Wishlist" class="st0" d="M9,13.8c-3.4-3.1-5.5-5.7-6.2-7.6c0-0.7,0.2-1.5,0.7-2c0.5-0.5,1.2-0.8,1.9-0.7
	C6,3.5,6.5,3.7,7,4.1C7.5,4.5,8,5,8.3,5.5c0,0.3,0.2,0.7,0.6,0.7c0,0,0.1,0,0.1,0c0.4,0,0.7-0.2,0.7-0.6c0,0,0-0.1,0-0.1
	c0.8-1.4,1.7-2.1,2.8-2.1c0.7,0,1.5,0.2,2,0.8c0.5,0.5,0.8,1.3,0.7,2C14.4,8.1,12.4,10.7,9,13.8L9,13.8L9,13.8z M16.6,2.1
	c-0.9-0.9-2.1-1.4-3.4-1.4c-0.9,0-1.7,0.2-2.4,0.7C10,1.8,9.4,2.4,9,3.2C8.6,2.4,8,1.8,7.2,1.4C5.3,0.3,3,0.6,1.4,2.1
	C0.5,3,0,4.2,0,5.4c0,0.6,0.1,1.3,0.4,1.9c0.3,0.6,0.6,1.3,1,1.8C3.4,12.3,6,15,9,17.3c3-2.3,5.6-5,7.7-8.2c0.4-0.6,0.7-1.2,1-1.8
	C17.8,6.7,18,6.1,18,5.4C18,4.2,17.5,3,16.6,2.1L16.6,2.1L16.6,2.1z"/>
</svg>
