<?xml version="1.0" encoding="UTF-8" standalone="no"?><!DOCTYPE svg PUBLIC "-//W3C//DTD SVG 1.1//EN" "http://www.w3.org/Graphics/SVG/1.1/DTD/svg11.dtd"><svg width="100%" height="100%" viewBox="0 0 381 200" version="1.1" xmlns="http://www.w3.org/2000/svg" xmlns:xlink="http://www.w3.org/1999/xlink" xml:space="preserve" xmlns:serif="http://www.serif.com/" style="fill-rule:evenodd;clip-rule:evenodd;stroke-linejoin:round;stroke-miterlimit:1.41421;"><g><g><path id="Laptops_icon" d="M263.3,144.3l-224.6,0c-3.5,0 -6.3,-2.8 -6.3,-6.3l0,-131c0,-3.5 2.8,-6.2 6.2,-6.2l224.6,0c3.5,0 6.3,2.8 6.3,6.2l0,131c0,3.5 -2.8,6.3 -6.2,6.3Zm-218.3,-12.5l212,0l0,-118.5l-212,0l0,118.5Zm249.3,67.4l-287.8,0c-3.5,0 -6.2,-2.8 -6.2,-6.3c0,-1.1 0.3,-2.2 0.9,-3.1l32.2,-54.9c1.7,-3 5.6,-4 8.6,-2.2c3,1.7 4,5.6 2.2,8.6l-26.7,45.5l266.2,0l-25.7,-45.6c-1.7,-3 -0.6,-6.8 2.4,-8.5c3,-1.7 6.8,-0.6 8.5,2.4l31,54.9c1.7,3 0.6,6.8 -2.4,8.5c-1.1,0.4 -2.2,0.7 -3.2,0.7Zm-107.4,-30.8l-67.3,0c-1.7,0.1 -3.2,-1.3 -3.3,-3c-0.1,-1.7 1.3,-3.2 3,-3.3l67.6,0c1.7,-0.1 3.2,1.3 3.3,3c0.1,1.7 -1.3,3.2 -3,3.3c-0.1,0 -0.2,0 -0.3,0Zm-125.2,0l-9.5,0c-1.7,0.1 -3.2,-1.3 -3.3,-3c-0.1,-1.7 1.3,-3.2 3,-3.3l9.8,0c1.7,-0.1 3.2,1.3 3.3,3c0.1,1.7 -1.3,3.2 -3,3.3c-0.1,0 -0.2,0 -0.3,0Zm31.3,0l-9.5,0c-1.7,0.1 -3.2,-1.3 -3.3,-3c-0.1,-1.7 1.3,-3.2 3,-3.3l9.8,0c1.7,-0.1 3.2,1.2 3.3,3c0.1,1.7 -1.2,3.2 -3,3.3c-0.1,0 -0.2,0 -0.3,0Zm124.8,0l-9.5,0c-1.7,0.1 -3.2,-1.3 -3.3,-3c-0.1,-1.7 1.3,-3.2 3,-3.3l9.8,0c1.7,-0.1 3.2,1.3 3.3,3c0.1,1.7 -1.3,3.2 -3,3.3c-0.1,0 -0.2,0 -0.3,0Zm31.2,0l-9.5,0c-1.7,0.1 -3.2,-1.3 -3.3,-3c-0.1,-1.7 1.3,-3.2 3,-3.3l9.8,0c1.7,-0.1 3.2,1.3 3.3,3c0.1,1.7 -1.3,3.2 -3,3.3c-0.1,0 -0.2,0 -0.3,0Z" style="fill:#858585;fill-rule:nonzero;"/><g><path d="M303,176.3l0,-120.1l54.7,0c12.6,0 22.9,10.3 22.9,22.9l0,97.3c0,12.6 -10.3,22.9 -22.9,22.9l-31.8,0c-12.7,-0.1 -22.9,-10.4 -22.9,-23Zm9.4,-110.7l0,110.7c0,7.4 6,13.5 13.5,13.5l31.8,0c7.4,0 13.5,-6 13.5,-13.5l0,-97.3c0,-7.4 -6,-13.5 -13.5,-13.5l-45.3,0l0,0.1Z" style="fill:#858585;fill-rule:nonzero;"/><path d="M337.1,93.1l0,-1.1c0,-2.6 2.1,-4.7 4.7,-4.7c2.6,0 4.7,2.1 4.7,4.7l0,1.1c0,2.6 -2.1,4.7 -4.7,4.7c-2.6,0 -4.7,-2.1 -4.7,-4.7Z" style="fill:#858585;fill-rule:nonzero;"/><path d="M337.1,115.4l0,-1.1c0,-2.6 2.1,-4.7 4.7,-4.7c2.6,0 4.7,2.1 4.7,4.7l0,1.1c0,2.6 -2.1,4.7 -4.7,4.7c-2.6,0 -4.7,-2.1 -4.7,-4.7Z" style="fill:#858585;fill-rule:nonzero;"/></g></g></g></svg>