<svg xmlns="http://www.w3.org/2000/svg" viewBox="0 0 18 18"><path fill="#333" d="M9 13.8c-3.4-3.1-5.5-5.7-6.2-7.6 0-.7.2-1.5.7-2 .5-.5 1.2-.8 1.9-.7.6 0 1.1.2 1.6.6.5.4 1 .9 1.3 1.4 0 .3.2.7.6.7H9c.4 0 .7-.2.7-.6v-.1c.8-1.4 1.7-2.1 2.8-2.1.7 0 1.5.2 2 .8.5.5.8 1.3.7 2-.8 1.9-2.8 4.5-6.2 7.6zm7.6-11.7c-.9-.9-2.1-1.4-3.4-1.4-.9 0-1.7.2-2.4.7-.8.4-1.4 1-1.8 1.8-.4-.8-1-1.4-1.8-1.8C5.3.3 3 .6 1.4 2.1a4.7 4.7 0 0 0-1 5.2c.3.6.6 1.3 1 1.8C3.4 12.3 6 15 9 17.3c3-2.3 5.6-5 7.7-8.2.4-.6.7-1.2 1-1.8.1-.6.3-1.2.3-1.9 0-1.2-.5-2.4-1.4-3.3z"/></svg>