<svg xmlns="http://www.w3.org/2000/svg" xmlns:xlink="http://www.w3.org/1999/xlink" width="45" height="62" viewBox="0 0 38 52">
    <defs>
        <path id="a" d="M19 51.243c12.667-14.378 19-25.086 19-32.125C38 8.559 29.493 0 19 0S0 8.56 0 19.118c0 7.039 6.333 17.747 19 32.125z"/>
        <path id="c" d="M0 0h12.14v20.357H0z"/>
    </defs>
    <g fill="none" fill-rule="evenodd">
        <path fill="#00A04A" d="M19 51c12.667-14.31 19-24.968 19-31.973C38 8.519 29.493 0 19 0S0 8.519 0 19.027C0 26.032 6.333 36.69 19 51z"/>
        <mask id="b" fill="#fff">
            <use xlink:href="#a"/>
        </mask>
        <use fill="#00A04A" xlink:href="#a"/>
        <g mask="url(#b)">
            <g transform="translate(14 -1)">
                <mask id="d" fill="#fff">
                    <use xlink:href="#c"/>
                </mask>
                <path fill="#FEFEFE" d="M1.755 14.264c0-2.374 1.913-4.299 4.273-4.299 2.359 0 4.272 1.925 4.272 4.3 0 2.374-1.913 4.299-4.272 4.299H1.755v-4.3zm4.315 6.093c3.352 0 6.07-2.734 6.07-6.107S9.421 8.143 6.07 8.143a6.026 6.026 0 0 0-4.047 1.555V0H0v20.357h6.07z" mask="url(#d)"/>
            </g>
        </g>
    </g>
</svg>
