<svg xmlns="http://www.w3.org/2000/svg" xmlns:xlink="http://www.w3.org/1999/xlink" width="38" height="52" viewBox="0 0 38 52">
    <defs>
        <path id="a" d="M19 51.243c12.667-14.378 19-25.086 19-32.125C38 8.559 29.493 0 19 0S0 8.56 0 19.118c0 7.039 6.333 17.747 19 32.125z"/>
        <path id="c" d="M0 0h17.538v29.412H0z"/>
    </defs>
    <g fill="none" fill-rule="evenodd">
        <path fill="#00A04A" d="M19 51c12.667-14.31 19-24.968 19-31.973C38 8.519 29.493 0 19 0S0 8.519 0 19.027C0 26.032 6.333 36.69 19 51z"/>
        <mask id="b" fill="#fff">
            <use xlink:href="#a"/>
        </mask>
        <use fill="#00A04A" xlink:href="#a"/>
        <g mask="url(#b)">
            <g transform="translate(12.16 -.765)">
                <mask id="d" fill="#fff">
                    <use xlink:href="#c"/>
                </mask>
                <path fill="#FEFEFE" d="M2.535 20.608c0-3.43 2.764-6.21 6.174-6.21 3.408 0 6.172 2.78 6.172 6.21.001 3.43-2.763 6.212-6.172 6.212H2.535v-6.212zm6.234 8.804c4.843 0 8.77-3.95 8.77-8.824 0-4.873-3.927-8.823-8.77-8.823-2.245 0-4.294.85-5.846 2.246V.001H0v29.41h8.77z" mask="url(#d)"/>
            </g>
        </g>
    </g>
</svg>
