<?xml version="1.0" encoding="utf-8"?>
<!-- Generator: Adobe Illustrator 21.1.0, SVG Export Plug-In . SVG Version: 6.00 Build 0)  -->
<svg version="1.1" id="图层_1" xmlns="http://www.w3.org/2000/svg" xmlns:xlink="http://www.w3.org/1999/xlink" x="0px" y="0px"
	 viewBox="0 0 40 40" style="enable-background:new 0 0 40 40;" xml:space="preserve">
<style type="text/css">
	.st0{fill:#00A04A;}
</style>
<g>
	<g>
		<g>
			<path class="st0" d="M31.3,35.1H8.7C6.1,35.1,4,33,4,30.4V15.3c0-2.6,2.1-4.7,4.7-4.7h22.6c2.6,0,4.7,2.1,4.7,4.7v15.1
				C36,33,33.9,35.1,31.3,35.1z M8.7,12.5c-1.5,0-2.8,1.3-2.8,2.8v15.1c0,1.5,1.3,2.8,2.8,2.8h22.6c1.5,0,2.8-1.3,2.8-2.8V15.3
				c0-1.5-1.3-2.8-2.8-2.8H8.7z"/>
		</g>
		<g>
			<rect x="4.9" y="20" class="st0" width="30.1" height="1.9"/>
		</g>
		<g>
			<g>
				<path class="st0" d="M14.4,23.8c-0.6,0-0.9-0.4-0.9-0.9v-3.8c0-0.6,0.4-0.9,0.9-0.9c0.6,0,0.9,0.4,0.9,0.9v3.8
					C15.3,23.4,14.9,23.8,14.4,23.8z"/>
			</g>
			<g>
				<path class="st0" d="M25.6,23.8c-0.6,0-0.9-0.4-0.9-0.9v-3.8c0-0.6,0.4-0.9,0.9-0.9s0.9,0.4,0.9,0.9v3.8
					C26.6,23.4,26.2,23.8,25.6,23.8z"/>
			</g>
		</g>
		<g>
			<path class="st0" d="M13.4,11.5V8.3c0-1.9,1.5-3.4,3.4-3.4h6.6c1.9,0,3.4,1.5,3.4,3.4v3.2h-1.9V8.3c0-0.8-0.6-1.5-1.5-1.5h-6.6
				c-0.8,0-1.5,0.6-1.5,1.5v3.2H13.4z"/>
		</g>
	</g>
</g>
</svg>
