<?xml version="1.0" encoding="utf-8"?>
<!-- Generator: Adobe Illustrator 21.1.0, SVG Export Plug-In . SVG Version: 6.00 Build 0)  -->
<svg version="1.1" id="Isolation_Mode" xmlns="http://www.w3.org/2000/svg" xmlns:xlink="http://www.w3.org/1999/xlink" x="0px"
	 y="0px" viewBox="0 0 40 40" style="enable-background:new 0 0 40 40;" xml:space="preserve">
<style type="text/css">
	.st0{fill:none;stroke:#00A04A;stroke-miterlimit:10;}
	.st1{fill:none;stroke:#00A04A;stroke-linecap:round;stroke-miterlimit:10;}
	.st2{fill:none;stroke:#00A04A;stroke-linecap:round;stroke-linejoin:round;stroke-miterlimit:10;}
	.st3{fill:#00A04A;}
</style>
<path class="st0" d="M22.3,25.8l-0.1,8.7c0,1.6-1.3,2.8-2.8,2.8L2,37.2L2.2,5.5c0-1.6,1.3-2.8,2.8-2.8l14.6,0.1
	c1.6,0,2.8,1.3,2.8,2.8l0,5.8"/>
<line class="st0" x1="2.1" y1="8.3" x2="22.3" y2="8.3"/>
<line class="st0" x1="2.1" y1="28.9" x2="22.3" y2="28.9"/>
<line class="st1" x1="8.9" y1="5.3" x2="12.9" y2="5.3"/>
<line class="st1" x1="10.1" y1="32.7" x2="14.1" y2="32.7"/>
<line class="st2" x1="14.9" y1="5.3" x2="15" y2="5.3"/>
<g>
	<g>
		<g>
			<g>
				<path class="st3" d="M17,13.1c0.1,0,0.4,0,0.5,0.1c0.2,0.2,0.2,0.6,0,0.9l-4,4c-0.2,0.2-0.2,0.6,0,0.9l4,4
					c0.2,0.2,0.2,0.6,0,0.9c-0.2,0.2-0.6,0.2-0.9,0l-4-4c-0.7-0.7-0.7-1.8,0-2.6l4-4C16.7,13.1,16.8,13.1,17,13.1z"/>
			</g>
			<g>
				<path class="st3" d="M13.4,18H28c0.4,0,0.6,0.2,0.6,0.6c0,0.4-0.2,0.6-0.6,0.6H13.4c-0.4,0-0.6-0.2-0.6-0.6
					C12.8,18.3,13,18,13.4,18z"/>
			</g>
		</g>
	</g>
</g>
<path class="st0" d="M25.8,23.5v5.3c0,0.9,0.8,1.7,1.7,1.7H38V11.3c0-0.9-0.8-1.7-1.7-1.7h-8.8c-0.9,0-1.7,0.8-1.7,1.7v3.5"/>
<line class="st0" x1="38" y1="12.9" x2="25.8" y2="12.9"/>
<line class="st0" x1="38" y1="25.4" x2="25.8" y2="25.4"/>
<line class="st1" x1="33.9" y1="11.1" x2="31.5" y2="11.1"/>
<line class="st1" x1="33.2" y1="27.7" x2="30.8" y2="27.7"/>
<line class="st2" x1="30.3" y1="11.1" x2="30.2" y2="11.1"/>
</svg>
