<?xml version="1.0" encoding="utf-8"?>
<!-- Generator: Adobe Illustrator 21.1.0, SVG Export Plug-In . SVG Version: 6.00 Build 0)  -->
<svg version="1.1" id="Isolation_Mode" xmlns="http://www.w3.org/2000/svg" xmlns:xlink="http://www.w3.org/1999/xlink" x="0px"
	 y="0px" viewBox="0 0 40 40" style="enable-background:new 0 0 40 40;" xml:space="preserve">
<style type="text/css">
	.st0{fill:none;stroke:#00A04A;stroke-miterlimit:10;}
	.st1{fill:none;stroke:#00A04A;stroke-linecap:round;stroke-miterlimit:10;}
	.st2{fill:none;stroke:#00A04A;stroke-linecap:round;stroke-linejoin:round;stroke-miterlimit:10;}
</style>
<g>
	<path class="st0" d="M27.6,38H9.5V4.9c0-1.6,1.3-2.9,2.9-2.9h15.2c1.6,0,2.9,1.3,2.9,2.9v30.1C30.5,36.7,29.2,38,27.6,38z"/>
	<line class="st0" x1="9.5" y1="7.8" x2="30.5" y2="7.8"/>
	<line class="st0" x1="9.5" y1="29.3" x2="30.5" y2="29.3"/>
	<line class="st1" x1="16.6" y1="4.7" x2="20.7" y2="4.7"/>
	<line class="st1" x1="17.8" y1="33.3" x2="22" y2="33.3"/>
	<line class="st2" x1="22.8" y1="4.7" x2="22.9" y2="4.7"/>
	<path class="st1" d="M12.7,25.4L12.7,25.4c-1.3-1.3-1.3-3.3,0-4.6l10-10c1.3-1.3,3.3-1.3,4.6,0c1.3,1.3,1.3,3.3,0,4.6l-10,10
		C16,26.7,14,26.7,12.7,25.4z"/>
	<line class="st1" x1="20" y1="13.5" x2="24.6" y2="18.1"/>
	<line class="st1" x1="15.5" y1="17.9" x2="20.2" y2="22.6"/>
	<line class="st2" x1="20.1" y1="16.6" x2="20" y2="16.5"/>
	<line class="st2" x1="21.6" y1="18.1" x2="21.5" y2="18"/>
	<line class="st2" x1="18.6" y1="18" x2="18.6" y2="18"/>
	<line class="st2" x1="20.2" y1="19.5" x2="20.1" y2="19.5"/>
	<polyline class="st2" points="22,21.4 22.7,22.3 26.2,22.1 24.2,25 27.9,25.9 	"/>
	<line class="st2" x1="13.1" y1="10.6" x2="17.6" y2="15.6"/>
</g>
</svg>
