<?xml version="1.0" encoding="utf-8"?>
<!-- Generator: Adobe Illustrator 21.1.0, SVG Export Plug-In . SVG Version: 6.00 Build 0)  -->
<svg version="1.1" id="Isolation_Mode" xmlns="http://www.w3.org/2000/svg" xmlns:xlink="http://www.w3.org/1999/xlink" x="0px"
	 y="0px" viewBox="0 0 40 40" style="enable-background:new 0 0 40 40;" xml:space="preserve">
<style type="text/css">
	.st0{fill:none;stroke:#00A04A;stroke-width:1.2;stroke-miterlimit:10;}
	.st1{fill:none;stroke:#00A04A;stroke-width:1.2;stroke-linecap:round;stroke-miterlimit:10;}
</style>
<g>
	<path class="st0" d="M19.5,30.2H6.8V14.5c0-1.7,1.4-3.1,3.1-3.1h9.6c1.7,0,3.1,1.4,3.1,3.1v12.7C22.6,28.8,21.2,30.2,19.5,30.2z"/>
	<polygon class="st0" points="18.8,3.8 10.4,3.8 9.9,11.4 19.3,11.4 	"/>
	<polygon class="st0" points="10.4,38 18.8,38 19.3,30.4 9.9,30.4 	"/>
	<polyline class="st0" points="10.5,18.5 14,21.3 18.8,16.2 	"/>
	<path class="st1" d="M23.6,8.4c0.8,0,1.7,0.3,2.3,0.9c0.6,0.6,0.9,1.4,0.9,2.3"/>
	<path class="st1" d="M23.3,5.1c1.7-0.1,3.5,0.6,4.8,1.9c1.3,1.3,1.9,2.9,1.9,4.6"/>
	<path class="st1" d="M23.2,2c2.6-0.1,5.2,0.8,7.2,2.8c1.9,1.9,2.8,4.3,2.8,6.8"/>
</g>
</svg>
