<?xml version="1.0" encoding="utf-8"?>
<!-- Generator: Adobe Illustrator 21.1.0, SVG Export Plug-In . SVG Version: 6.00 Build 0)  -->
<svg version="1.1" id="图层_1" xmlns="http://www.w3.org/2000/svg" xmlns:xlink="http://www.w3.org/1999/xlink" x="0px" y="0px"
	 viewBox="0 0 40 40" style="enable-background:new 0 0 40 40;" xml:space="preserve">
<style type="text/css">
	.st0{fill:#00A04A;}
</style>
<title>icon-trash</title>
<g>
	<path class="st0" d="M29.6,17.9H10.4c-0.3,0-0.6-0.3-0.7-0.6v-0.1v-2.7c0-1.1,0.9-2,2.1-2.1h16.4c1.1,0,2,0.9,2.1,2.1v2.7
		C30.2,17.6,29.9,17.9,29.6,17.9z M11.1,16.6h17.8v-2.1c0-0.3-0.3-0.6-0.6-0.7h-0.1H11.8c-0.3,0-0.6,0.3-0.7,0.6v0.1
		C11.1,14.4,11.1,16.6,11.1,16.6z"/>
	<path class="st0" d="M25.5,31.6h-11c-1.9,0-3.4-1.5-3.4-3.4v-0.1V17.3c0-0.3,0.3-0.6,0.6-0.7h0.1c0.3,0,0.6,0.3,0.7,0.6v0.1v10.9
		c0,1.1,0.9,2,2.1,2.1h10.9c1.1,0,2-0.9,2.1-2.1V17.3c0-0.4,0.3-0.7,0.7-0.7s0.7,0.3,0.7,0.7v10.9C28.9,30.1,27.4,31.6,25.5,31.6
		L25.5,31.6z"/>
	<path class="st0" d="M23.4,13.2h-1.4v-2.7c0-0.3-0.3-0.6-0.6-0.7h-0.1h-2.7c-0.3,0-0.6,0.3-0.7,0.6v0.1v2.7h-1.4v-2.6
		c0-1.1,0.9-2,2.1-2.1h2.7c1.1,0,2,0.9,2.1,2.1L23.4,13.2L23.4,13.2z"/>
	<path class="st0" d="M15.9,27.5c-0.3,0-0.6-0.3-0.7-0.6v-0.1v-5.5c0-0.3,0.3-0.6,0.6-0.7h0.1c0.3,0,0.6,0.3,0.7,0.6v0.1v5.5
		C16.5,27.1,16.3,27.4,15.9,27.5C15.9,27.5,15.9,27.5,15.9,27.5z"/>
	<path class="st0" d="M20,27.5c-0.3,0-0.6-0.3-0.7-0.6v-0.1v-5.5c0-0.4,0.3-0.7,0.7-0.7s0.7,0.3,0.7,0.7v5.5c0,0.3-0.3,0.6-0.6,0.7
		C20.1,27.5,20,27.5,20,27.5z"/>
	<path class="st0" d="M24.1,27.5c-0.3,0-0.6-0.3-0.7-0.6v-0.1v-5.5c0-0.4,0.3-0.7,0.7-0.7s0.7,0.3,0.7,0.7v5.5
		c0,0.3-0.3,0.6-0.6,0.7C24.1,27.5,24.1,27.5,24.1,27.5z"/>
</g>
</svg>
