<svg width="8" height="8" viewBox="0 0 8 8" fill="none" xmlns="http://www.w3.org/2000/svg">
<path fill-rule="evenodd" clip-rule="evenodd" d="M7.74185 7.74161C8.08627 7.39719 8.08627 6.83877 7.74185 6.49435L5.24744 3.99994L7.74191 1.50546C8.08633 1.16104 8.08633 0.602628 7.74191 0.258208C7.39749 -0.0862126 6.83908 -0.0862127 6.49466 0.258207L4.00018 2.75268L1.50557 0.258071C1.16115 -0.0863492 0.602735 -0.0863491 0.258315 0.258071C-0.0861049 0.602491 -0.0861051 1.16091 0.258315 1.50533L2.75293 3.99994L0.258378 6.49449C-0.0860416 6.83891 -0.0860414 7.39732 0.258379 7.74174C0.602799 8.08616 1.16121 8.08616 1.50563 7.74174L4.00018 5.24719L6.49459 7.74161C6.83901 8.08603 7.39743 8.08603 7.74185 7.74161Z" fill="#DC007C"/>
</svg>
