<svg width="161" height="137" viewBox="0 0 161 137" fill="none" xmlns="http://www.w3.org/2000/svg">
<path fill-rule="evenodd" clip-rule="evenodd" d="M86 68.5C86 85.1992 81.14 99.8175 73.8882 109.955C66.6207 120.115 57.6576 125 49 125C40.3424 125 31.3793 120.115 24.1118 109.955C16.86 99.8175 12 85.1992 12 68.5C12 51.8008 16.86 37.1825 24.1118 27.0448C31.3793 16.885 40.3424 12 49 12C57.6576 12 66.6207 16.885 73.8882 27.0448C81.14 37.1825 86 51.8008 86 68.5ZM98 68.5C98 106.332 76.062 137 49 137C21.938 137 0 106.332 0 68.5C0 30.6685 21.938 0 49 0C76.062 0 98 30.6685 98 68.5ZM126.597 21.5C129.603 14.7575 135.638 10.5 143.4 10.5C146.847 10.5 149.832 10.8352 151.819 11.9363L155.756 14.117L160.117 6.24444L156.181 4.06371C152.002 1.74882 146.939 1.5 143.4 1.5C129.876 1.5 120.556 10.0943 117.047 21.5H112H107.5V30.5H112H115.53C115.51 30.9979 115.5 31.4981 115.5 32C115.5 32.5019 115.51 33.0021 115.53 33.5H112H107.5V42.5H112H117.047C120.556 53.9057 129.876 62.5 143.4 62.5C146.989 62.5 151.637 62.3168 156.087 59.9866L160.074 57.8993L155.899 49.9261L151.913 52.0134C149.537 53.2572 146.807 53.5 143.4 53.5C135.638 53.5 129.603 49.2425 126.597 42.5H142H146.5V33.5H142H124.537C124.512 33.006 124.5 32.5059 124.5 32C124.5 31.4941 124.512 30.994 124.537 30.5H142H146.5V21.5H142H126.597Z" fill="url(#paint0_linear)"/>
<defs>
<linearGradient id="paint0_linear" x1="80.0585" y1="0" x2="80.0585" y2="137" gradientUnits="userSpaceOnUse">
<stop stop-color="#EA007B"/>
<stop offset="1" stop-color="#661D89"/>
</linearGradient>
</defs>
</svg>
