<svg width="123" height="148" viewBox="0 0 123 148" fill="none" xmlns="http://www.w3.org/2000/svg">
<path fill-rule="evenodd" clip-rule="evenodd" d="M6 0.801758H0V6.80176V141.532V147.532H6H116.233H122.233V141.532V43.5462V41.061L120.476 39.3036L83.7316 2.55912L81.9743 0.801758H79.489H6ZM12 135.532V12.8018H73.489V43.5462V49.5462H79.489H110.233V135.532H12ZM101.748 37.5462L85.489 21.287V37.5462H101.748ZM24.4966 62.489H30.4966H91.7374H97.7374V74.489H91.7374H30.4966H24.4966V62.489ZM30.4965 37.8686H24.4965V49.8686H30.4965H54.9928H60.9928V37.8686H54.9928H30.4965Z" fill="url(#paint0_linear)"/>
<defs>
<linearGradient id="paint0_linear" x1="61.1167" y1="0.801758" x2="61.1167" y2="147.532" gradientUnits="userSpaceOnUse">
<stop stop-color="#EA007B"/>
<stop offset="1" stop-color="#661D89"/>
</linearGradient>
</defs>
</svg>
