<svg xmlns="http://www.w3.org/2000/svg" style="width:0; height:0; visibility:hidden;">
    <symbol id="accessories" viewBox="-4.494 -1.59 32 32">
        <path fill="currentColor" d="M23.564,20.818c0,0-0.01-0.317-0.027-0.104l-5.107-9.298c0,0,1.133-1.558,0.625-1.924
	c-0.508-0.365-1.865-1.08-1.865-1.08l-1.873-7.461L15.188,0l-1.648,0.355l0.426,0.993l0.348,6.525l-1.729-6.751l-0.62-0.595
	l-1.678,0.816l0.549,7.229c0,0-0.295,0.202-0.633,0.536c-0.021-0.004-0.039-0.008-0.06-0.012c-0.806,0.737-1.851,2.202-0.356,4.083
	l-2.16,9.826l1.42,1.867c-0.03,0.795-0.029,1.944,0.195,3.944h0.961c-0.392-4,0.191-6.2,0.192-6.202l2.531-7.346
	c2.811,1.943,5.543,4.126,5.543,4.126l0.418-1.108L13.51,13.5l0.451-1.297c0.266-0.119,1.184-0.965,1.938-0.291
	c2.648,2.355,7.01,9.459,7.01,9.459l0.59-0.459"/> <path fill="currentColor" d="M3.298,15.079l1.259,10.793l1.873,1.314c0.108,0.36,0.267,0.633,0.478,1.633h1.074
	C7.201,25.819,7,24.632,7,24.632v-0.118l0.033-10.867c0.179-0.168,0.617-0.998,1.309-1.019c-0.225-1.024-0.326-2.504,0.423-3.793
	L4.619,2.495L4.064,1.81L2.938,2.187l0.54,1.142l2.458,6.056L2.099,3.567l-0.78-0.359L0,4.526l2.878,6.656
	C2.878,11.182,0.78,14,3.298,15.079"/> 
    </symbol>
    <symbol id="arrow-bottom" viewBox="-0.881 -4.161 16 16">
        <polyline fill="none" stroke="currentColor" stroke-miterlimit="10" points="0.362,0.35 7.03,7.332 13.875,0.35 "/> 
    </symbol>
    <symbol id="arrow-left" viewBox="-3.791 -0.883 16 16">
        <polyline fill="none" stroke="currentColor" stroke-miterlimit="10" points="7.7,0.361 0.719,7.029 7.7,13.875 "/> 
    </symbol>
    <symbol id="arrow-right" viewBox="-4.159 -0.888 16 16">
        <polyline fill="none" stroke="currentColor" stroke-miterlimit="10" points="0.35,13.871 7.332,7.203 0.35,0.357 "/> 
    </symbol>
    <symbol id="arrow-top" viewBox="-0.886 -3.792 16 16">
        <polyline fill="none" stroke="currentColor" stroke-miterlimit="10" points="13.871,7.7 7.203,0.719 0.357,7.7 "/> 
    </symbol>
    <symbol id="baggage" viewBox="-3.169 -5.185 32 32">
        <path fill="currentColor" d="M22.374,15.709c0,0,1.586-0.85,1.445-2.103s-1.132-4.736-2.951-7.287C19.047,3.77,15.1,7.121,15.1,7.121
	s1.205,0.753-0.379,1.925c-1.584,1.17-7.584,6.762-6.266,7.601c1.317,0.84,7.123,0.499,10.879-0.568l-0.604,5.177l6.932-1.211
	L22.374,15.709z M19.387,13.186c-0.514-0.1-0.848-0.6-0.748-1.113c0.102-0.516,0.601-0.85,1.115-0.748s0.85,0.6,0.748,1.114
	C20.401,12.953,19.902,13.288,19.387,13.186"/> <path fill="currentColor" d="M6.632,5.686c0,0,0.745-0.398,0.679-0.988C7.246,4.108,6.78,2.471,5.924,1.271
	C5.068,0.072,3.212,1.647,3.212,1.647S3.78,2.001,3.035,2.552s-3.566,3.179-2.946,3.574C0.708,6.522,3.438,6.362,5.204,5.86
	L4.918,8.293l3.26-0.569L6.632,5.686z M5.229,4.5C4.986,4.452,4.83,4.218,4.876,3.976C4.924,3.735,5.159,3.577,5.4,3.624
	c0.243,0.049,0.401,0.283,0.352,0.525C5.705,4.39,5.471,4.547,5.229,4.5"/> <path fill="currentColor" d="M14.541,6.425l-11.2-4.963c0,0,1.818-1.782,3.693-1.412c1.876,0.369,11.813,4.3,11.813,4.3
	S13.981,5.731,14.541,6.425"/> 
    </symbol>
    <symbol id="big-delivery" viewBox="-3.659 -7.919 60 60">
        <path fill="#FFFFFF" d="M15.926,32.655c-1.645-5.064-3.289-10.13-4.936-15.195c-0.827-2.548-1.659-5.093-2.483-7.642
	c-0.57-1.762-1.744-2.894-3.516-3.416C3.909,6.084,2.82,5.782,1.744,5.442c-1.395-0.44-2.006-1.599-1.639-3.024
	C0.31,1.622,0.473,0.738,1.279,0.37c0.58-0.265,1.343-0.467,1.932-0.32C5.453,0.605,7.67,1.268,9.869,1.98
	c1.545,0.501,2.551,1.617,3.055,3.168c2.533,7.793,5.063,15.586,7.593,23.378c0.073,0.227,0.165,0.445,0.217,0.676
	c0.345,1.543,0.88,2.84,2.683,3.291c0.723,0.182,1.287,0.955,1.955,1.414c0.211,0.145,0.56,0.262,0.78,0.191
	c7.824-2.518,15.64-5.063,23.458-7.596c1.663-0.541,2.848,0.063,3.391,1.703c0.629,1.889,0.133,3.07-1.588,3.633
	c-7.99,2.605-15.984,5.193-24.054,7.813c-0.253,2.01-1.106,3.787-2.764,5.131c-1.339,1.086-2.882,1.658-4.582,1.666
	c-3.062,0.012-5.785-1.695-7.025-4.709C11.961,39.243,12.16,35.37,15.926,32.655 M16.705,38.972c0.002,1.77,1.434,3.227,3.184,3.244
	c1.754,0.016,3.224-1.439,3.229-3.195c0.004-1.773-1.434-3.244-3.179-3.252C18.191,35.763,16.703,37.237,16.705,38.972"/> <path fill="#FFFFFF" d="M18.908,12.763c0.006-1.203,0.539-2.022,1.527-2.37c1.288-0.453,2.59-0.869,3.903-1.245
	c1.192-0.34,2.351,0.275,2.808,1.443c0.229,0.587,0.387,1.2,0.614,1.789c0.485,1.255,1.629,1.826,2.924,1.457
	c0.808-0.23,1.612-0.481,2.401-0.769c1.359-0.495,1.914-1.63,1.513-3.03c-0.173-0.605-0.399-1.199-0.526-1.813
	c-0.242-1.164,0.264-2.211,1.363-2.623c1.449-0.542,2.924-1.03,4.416-1.436c1.264-0.342,2.331,0.358,2.773,1.712
	c1.109,3.395,2.201,6.797,3.296,10.197c0.54,1.675,1.086,3.349,1.604,5.029c0.469,1.514-0.097,2.689-1.593,3.175
	c-6.293,2.049-12.592,4.082-18.897,6.096c-1.397,0.445-2.592-0.184-3.049-1.588c-1.668-5.119-3.309-10.248-4.953-15.375
	C18.945,13.143,18.924,12.851,18.908,12.763"/> 
    </symbol>
    <symbol id="bus" viewBox="-1.781 -8.839 40 40">
        <path fill="currentColor" d="M1.982,15.622c-0.301-0.053-0.561-0.068-0.804-0.143c-0.535-0.16-0.855-0.551-0.815-1.098
	c0.041-0.564,0.397-0.956,0.988-1.022c0.404-0.045,0.815-0.023,1.224-0.025c1.894,0,3.785-0.002,5.678,0.002
	c0.856,0.002,1.396,0.42,1.413,1.075c0.02,0.678-0.547,1.15-1.418,1.158c-1.307,0.01-2.612,0.002-3.906,0.002
	c-0.228,1.297,0.24,1.891,1.452,1.891c9.16,0.004,18.321,0.004,27.481,0c1.091,0,1.528-0.436,1.56-1.514
	c0.002-0.063-0.008-0.129,0.002-0.191c0.251-1.758-0.327-3.197-1.399-4.618c-2.056-2.725-3.944-5.578-5.881-8.392
	c-0.263-0.382-0.543-0.519-1.001-0.518c-6.838,0.014-13.676,0.01-20.515,0.01c-1.525,0-1.965,0.535-1.702,2.193h0.729
	c2.795,0,5.591-0.001,8.386,0c0.215,0.001,0.433-0.003,0.645,0.021c0.705,0.082,1.159,0.563,1.117,1.17
	c-0.043,0.612-0.536,1.041-1.248,1.043c-2.795,0.006-5.592,0.002-8.387,0.002c-1.397,0-2.796,0.002-4.192,0
	C0.538,6.667,0,6.238,0,5.574c0-0.671,0.524-1.112,1.36-1.141c0.191-0.006,0.383-0.001,0.61-0.001
	C2.005,4.074,2.03,3.757,2.066,3.441C2.32,1.247,3.697,0.005,5.903,0.003c6.645-0.004,13.289-0.001,19.935-0.001
	c0.559,0,1.117,0.007,1.677-0.002c0.535-0.008,0.95,0.189,1.261,0.636c2.655,3.807,5.32,7.606,7.962,11.424
	c0.182,0.261,0.27,0.633,0.28,0.959c0.034,1.073,0.022,2.149,0.01,3.226c-0.021,1.906-1.531,3.41-3.454,3.453
	c-0.599,0.014-1.197,0.002-1.834,0.002c-0.175,1.336-0.744,2.4-1.823,3.162c-0.817,0.578-1.735,0.873-2.726,0.826
	c-2.241-0.105-3.839-1.602-4.222-3.936h-8.827c-0.231,1.615-1.049,2.824-2.553,3.529c-2.538,1.188-5.543-0.301-6.137-3.035
	C5.39,19.96,5.381,19.7,4.969,19.608c-1.702-0.375-2.626-1.414-2.864-3.129C2.067,16.206,2.026,15.931,1.982,15.622 M11.784,19.862
	H7.691c0.374,1.105,1.105,1.635,2.132,1.598C10.802,21.427,11.491,20.88,11.784,19.862 M29.328,19.825h-3.964
	c0.096,0.971,0.917,1.635,1.981,1.637C28.404,21.464,29.226,20.8,29.328,19.825"/> <path fill="currentColor" d="M26.472,11.979c-1.118,0-2.234,0.007-3.352-0.002c-0.842-0.005-1.299-0.414-1.31-1.244
	c-0.021-1.848-0.021-3.695,0-5.543c0.011-0.859,0.437-1.26,1.28-1.271c0.902-0.012,1.806,0.006,2.707-0.005
	c0.564-0.007,0.978,0.215,1.301,0.682c1.271,1.836,2.553,3.663,3.839,5.488c0.299,0.422,0.467,0.916,0.136,1.304
	c-0.256,0.299-0.73,0.541-1.123,0.566C28.795,12.027,27.632,11.979,26.472,11.979 M24.065,9.723h3.919
	c-0.698-1.002-1.341-1.926-1.985-2.848c-0.599-0.859-0.861-0.948-1.934-0.652V9.723z"/> <path fill="currentColor" d="M6.127,11.098c-1.591,0-3.181,0.003-4.771-0.001C0.502,11.094-0.019,10.658,0,9.982
	c0.018-0.67,0.52-1.096,1.324-1.097c3.224-0.004,6.449-0.006,9.673,0.002c0.698,0.001,1.18,0.379,1.25,0.967
	c0.067,0.564-0.206,0.96-0.716,1.163c-0.209,0.083-0.463,0.077-0.696,0.078C9.265,11.101,7.697,11.098,6.127,11.098"/> 
    </symbol>
    <symbol id="cart" viewBox="-4 -6.914 32 32">
        <path fill="currentColor" d="M0,2.058V0.011h1.346c0.759,0,1.519,0.024,2.275-0.01c0.38-0.017,0.54,0.122,0.671,0.464
	C4.64,1.375,5.047,2.261,5.396,3.17c0.137,0.355,0.322,0.479,0.711,0.479c5.763-0.014,11.525-0.01,17.288-0.01H24
	c-0.065,0.191-0.106,0.332-0.16,0.469c-1.25,3.129-2.51,6.255-3.743,9.392c-0.145,0.365-0.324,0.473-0.706,0.473
	c-4.478-0.014-8.954-0.014-13.432-0.002c-0.369,0.002-0.525-0.076-0.604-0.479C4.735,10.289,4.097,7.09,3.429,3.897
	C3.311,3.33,3.044,2.79,2.81,2.254C2.764,2.149,2.542,2.071,2.4,2.067C1.613,2.049,0.826,2.058,0,2.058"/> <path fill="currentColor" d="M5.006,17.393c-0.003-1.146,0.911-2.064,2.061-2.064c1.112,0,2.039,0.922,2.048,2.039
	c0.008,1.152-0.902,2.08-2.044,2.084C5.912,19.453,5.009,18.553,5.006,17.393"/> <path fill="currentColor" d="M20.038,17.373c0.015,1.131-0.918,2.074-2.051,2.076c-1.12,0.002-2.041-0.895-2.068-2.014
	c-0.026-1.127,0.894-2.082,2.03-2.107C19.068,15.305,20.024,16.24,20.038,17.373"/> 
    </symbol>
    <symbol id="certificate" viewBox="-14.294 -8.664 64 64">
        <path fill="#FFFFFF" d="M18.866,35.694v13.377c-0.572-0.377-1.078-0.709-1.58-1.043c-1.172-0.781-2.359-1.539-3.508-2.354
	c-0.427-0.303-0.713-0.27-1.128,0.02c-1.454,1.01-2.94,1.977-4.415,2.957c-0.183,0.123-0.375,0.232-0.648,0.4v-5.607
	c-1.209,0-2.358-0.006-3.506,0.002c-1.218,0.008-2.278-0.35-3.111-1.275C0.225,41.344-0.002,40.356,0,39.274
	c0.009-4.455,0.004-8.91,0.004-13.367c0-7.205-0.001-14.411,0-21.616C0.004,1.493,1.499,0,4.293,0c9.775,0,19.549,0,29.322,0
	c2.615,0,4.17,1.531,4.17,4.138c0.004,11.705,0.004,23.412,0,35.119c0,2.65-1.539,4.182-4.196,4.186
	c-2.841,0.006-5.683,0.006-8.524-0.002c-0.361-0.002-0.736-0.014-1.078-0.107c-0.877-0.244-1.4-1.129-1.277-2.074
	c0.117-0.902,0.855-1.57,1.847-1.578c2.841-0.02,5.683-0.01,8.524-0.012c0.271,0,0.541,0,0.873,0V3.84H3.815v35.784h3.736v-3.928
	c0.056-0.043,0.111-0.084,0.168-0.125c0.305,0.258,0.684,0.465,0.9,0.783c0.934,1.363,2.527,1.965,4.117,1.537
	c0.321-0.088,0.705-0.078,1.028,0.008c1.519,0.406,3.106-0.172,4.028-1.461c0.242-0.34,0.604-0.592,0.912-0.887
	C18.758,35.6,18.812,35.647,18.866,35.694"/> <path fill="#FFFFFF" d="M18.87,13.23c-3.066,0-6.132,0.01-9.199-0.004c-1.561-0.008-2.527-1.335-1.938-2.644
	c0.366-0.815,1.05-1.15,1.923-1.149c1.727,0.003,3.452,0.001,5.178,0.001c4.406,0,8.813,0.004,13.219-0.004
	c0.867-0.002,1.57,0.279,1.974,1.075c0.636,1.253-0.274,2.68-1.752,2.714c-1.612,0.037-3.226,0.011-4.838,0.011
	C21.913,13.23,20.392,13.23,18.87,13.23"/> <path fill="#FFFFFF" d="M10.502,24.963c0.723,0.52,1.098-0.08,1.621-0.615c0.746-0.763,2.004-0.533,2.586,0.395
	c0.229,0.363,0.393,0.488,0.848,0.33c1.248-0.43,2.438,0.547,2.277,1.867c-0.059,0.484,0.066,0.66,0.506,0.844
	c1.189,0.498,1.453,1.98,0.512,2.865c-0.348,0.326-0.399,0.547-0.189,0.979c0.564,1.158-0.1,2.355-1.384,2.504
	c-0.472,0.055-0.714,0.178-0.837,0.68c-0.299,1.213-1.59,1.707-2.631,1.014c-0.428-0.287-0.717-0.287-1.148-0.004
	c-1.061,0.695-2.309,0.215-2.645-1.002c-0.119-0.428-0.275-0.629-0.765-0.674c-1.362-0.121-2.019-1.33-1.43-2.58
	C7.981,31.229,8,31.028,7.707,30.743C6.637,29.7,6.889,28.29,8.254,27.727c0.401-0.166,0.414-0.361,0.371-0.723
	C8.491,25.866,9.294,24.952,10.502,24.963 M13.248,33.258c1.657-0.016,3.054-1.426,3.031-3.057
	c-0.022-1.648-1.444-3.055-3.067-3.033c-1.658,0.021-3.029,1.412-3.021,3.066C10.196,31.883,11.604,33.274,13.248,33.258"/> <path fill="#FFFFFF" d="M16.096,20.754c-2.224,0-4.449,0.013-6.673-0.005c-0.959-0.008-1.702-0.683-1.836-1.594
	c-0.129-0.878,0.39-1.77,1.238-2.034c0.339-0.105,0.714-0.133,1.073-0.134c4.107-0.008,8.215-0.009,12.324,0.002
	c0.379,0.001,0.779,0.037,1.135,0.159c0.852,0.292,1.308,1.16,1.151,2.07c-0.153,0.898-0.856,1.522-1.808,1.529
	C20.5,20.766,18.298,20.754,16.096,20.754"/> 
    </symbol>
    <symbol id="cfmoto" viewBox="-3.82 -4.5 32 32">
        <polygon fill="currentColor" points="1.341,11.999 0.753,11.999 0,11.999 0,14 1,14 0,14 0,15 1,15 1,16 0,16 0,17 1,17 0,17 0,18 1,18 
	1,19 0,19 0,20 1,20 0,20 0,21 1,21 1,22 0,22 0,23 5,23 5,21.822 5,21.07 5,20.318 5,19.564 5,18.812 5,18.06 5,17.306 5,16.554 
	5,16.015 "/> <polygon fill="currentColor" points="23.492,11.999 24.081,11.999 25.001,11.999 25.001,14 24.001,14 25.001,14 25.001,15 24.001,15 
	24.001,16 25.001,16 25.001,17 24.001,17 25.001,17 25.001,18 24.001,18 24.001,19 25.001,19 25.001,20 24.001,20 25.001,20 
	25.001,21 24.001,21 24.001,22 25.001,22 25.001,23 20.001,23 20.001,21.822 20.001,21.07 20.001,20.318 20.001,19.564 
	20.001,18.812 20.001,18.06 20.001,17.306 20.001,16.554 20.001,16.015 "/> <path fill="currentColor" d="M23,2V0h-5.315l-2.634,4H9.469H9.407L6.772,0H1v2h3.14L8.03,5.332L6.839,6.338L6.083,6.99L3.778,7.016
	L3.571,6.88L2,9.125v1.881L8.278,18h1.693h4.577h1.693L23,11.006V9.125l-1.812-2.258l-0.444,0.134l0.034-0.009l-2.361-0.053
	l-0.746-0.701l-1.219-0.935L20.317,2H23z M9,13.589c0,0.133-4.937-2.183-5.294-2.361C3.351,11.05,3.545,8.779,3.545,8.779
	s3.888,1.781,4.466,2.049C8.59,11.095,9,13.232,9,13.232V13.589z M16,13.208c0,0,0.231-2.228,0.835-2.505
	c0.604-0.278,4.479-2.135,4.479-2.135s0.336,2.366-0.035,2.553C20.907,11.307,16,13.72,16,13.58V13.208z"/> 
    </symbol>
    <symbol id="checkbox" viewBox="-1.261 -1.921 10 10">
        <polyline fill="none" stroke="#4E4E4E" stroke-width="2" stroke-miterlimit="10" points="0.739,3.025 2.739,5.216 7.073,0.692 "/> 
    </symbol>
    <symbol id="circle-check-mark" viewBox="-3.836 -3.812 32 32">
        <path fill="currentColor" d="M0,10.418c0.188-0.704,0.325-1.427,0.57-2.109c1.551-4.323,4.572-7.077,9.055-8.034
	c6.956-1.486,13.546,3.206,14.579,10.256c0.948,6.471-3.684,12.735-10.128,13.699c-6.138,0.918-11.771-2.577-13.623-8.462
	C0.269,15.181,0.15,14.574,0,13.976V10.418z M12.112,2.539c-5.266,0-9.6,4.295-9.669,9.451c-0.075,5.446,4.307,9.855,9.592,9.863
	c5.378,0.01,9.736-4.265,9.737-9.533C21.773,6.849,17.517,2.539,12.112,2.539"/> <path fill="currentColor" d="M7.447,11.712c1.068,1.004,2.112,1.986,3.203,3.013c1.949-2.628,3.885-5.237,5.855-7.895
	c0.672,0.498,1.331,0.988,2.013,1.494c-2.506,3.402-4.988,6.772-7.501,10.185c-1.776-1.664-3.53-3.307-5.307-4.97
	C6.299,12.921,6.857,12.333,7.447,11.712"/> 
    </symbol>
    <symbol id="comments" viewBox="-2.915 -3.511 15 16">
        <path fill="currentColor" d="M2.176,7.111c-0.251,0-0.484,0.001-0.718,0C0.572,7.108,0,6.538,0,5.657c0-1.431,0-2.861,0-4.292
	c0.001-0.77,0.584-1.362,1.356-1.363c2.212-0.003,4.424-0.003,6.637,0c0.773,0.001,1.363,0.581,1.369,1.377
	c0.014,1.442,0.014,2.886,0,4.329C9.356,6.524,8.761,7.093,7.946,7.094c-1.068,0.001-2.141,0.002-3.21-0.002
	C4.611,7.091,4.52,7.12,4.443,7.222c-0.61,0.811-1.404,1.371-2.36,1.702C1.962,8.965,1.824,8.986,1.697,8.976
	C1.512,8.959,1.469,8.849,1.582,8.704c0.309-0.394,0.464-0.851,0.566-1.329C2.167,7.295,2.166,7.212,2.176,7.111"/> 
    </symbol>
    <symbol id="compare" viewBox="-1.021 -1.908 16 16">
        <rect y="4.333" fill="currentColor" width="3.75" height="7.85"/> <rect x="5.006" fill="currentColor" width="3.75" height="12.184"/> <rect x="10.172" y="7.498" fill="currentColor" width="3.75" height="4.686"/> 
    </symbol>
    <symbol id="cool-hand" viewBox="-11.477 -10.268 64 64">
        <path fill="currentColor" d="M4.376,23.372c-0.361-0.14-0.626-0.236-0.888-0.341c-2.087-0.841-2.593-3.146-1.072-4.813
	c1.124-1.231,2.623-1.491,4.16-1.595c2.312-0.156,4.626-0.253,6.94-0.373c1.514-0.079,1.937-0.641,1.507-2.102
	c-0.818-2.778-1.237-5.61-1.148-8.508c0.055-1.747,0.495-3.376,1.781-4.644c0.364-0.359,0.838-0.663,1.318-0.836
	c1.646-0.596,3.356,0.532,3.062,2.23c-0.867,4.994,1.518,8.715,4.592,12.104c1.82,2.007,3.98,3.713,6.033,5.502
	c0.461,0.399,0.707,0.739,0.705,1.372c-0.027,5.4-0.031,10.802,0.004,16.204c0.004,0.687-0.26,1.063-0.777,1.424
	c-3.105,2.16-6.617,3.236-10.291,3.855c-4.046,0.683-8.119,0.799-12.188,0.323c-0.972-0.114-2.005-0.536-2.808-1.102
	c-1.767-1.246-1.64-3.489,0.142-4.727c0.164-0.114,0.333-0.22,0.633-0.417c-0.665-0.081-1.196-0.148-1.729-0.21
	c-1.677-0.19-2.777-1.05-3.024-2.362c-0.272-1.457,0.453-2.835,1.92-3.609c0.354-0.187,0.73-0.33,1.339-0.604
	c-2.35-0.115-4.47-0.335-4.584-3.107C-0.073,25.177,1.505,23.902,4.376,23.372"/> <rect x="33.658" y="19.113" fill="currentColor" width="7.389" height="20.694"/> 
    </symbol>
    <symbol id="gear" viewBox="-6 -6.393 32 32">
        <path fill="currentColor" d="M12.534,0c0.98,0.421,1.916,0.821,2.867,1.228c-0.098,0.641-0.178,1.251-0.289,1.855
	c-0.057,0.305,0.01,0.51,0.26,0.711c0.314,0.254,0.623,0.537,0.854,0.863c0.25,0.354,0.537,0.398,0.918,0.332
	c0.557-0.096,1.119-0.16,1.705-0.242c0.375,0.912,0.744,1.793,1.09,2.682c0.037,0.094-0.059,0.242-0.1,0.361
	c-0.008,0.025-0.051,0.039-0.076,0.058c-0.516,0.394-1.229,0.688-1.488,1.209s-0.082,1.269-0.055,1.915
	c0.008,0.158,0.139,0.35,0.27,0.457c0.486,0.402,0.994,0.777,1.512,1.176c-0.377,0.887-0.732,1.756-1.125,2.607
	c-0.053,0.115-0.303,0.213-0.449,0.199c-0.516-0.049-1.025-0.18-1.541-0.219c-0.201-0.014-0.455,0.086-0.615,0.219
	c-0.373,0.309-0.725,0.652-1.045,1.016c-0.127,0.143-0.219,0.379-0.209,0.566c0.035,0.533,0.123,1.063,0.203,1.592
	c0.039,0.248-0.037,0.381-0.281,0.477c-0.74,0.287-1.475,0.59-2.203,0.91c-0.254,0.111-0.398,0.094-0.559-0.148
	c-0.277-0.42-0.607-0.805-0.885-1.223c-0.174-0.262-0.365-0.383-0.685-0.32c-0.222,0.045-0.471,0.1-0.677,0.041
	c-0.897-0.256-1.384,0.213-1.85,0.891c-0.61,0.885-0.646,0.859-1.622,0.441c-0.508-0.217-1.01-0.445-1.527-0.637
	c-0.307-0.113-0.376-0.281-0.31-0.59c0.103-0.477,0.149-0.963,0.241-1.441c0.057-0.283-0.006-0.482-0.234-0.68
	c-0.331-0.283-0.657-0.59-0.921-0.936c-0.237-0.311-0.491-0.354-0.841-0.289c-0.479,0.092-0.963,0.162-1.447,0.195
	c-0.136,0.008-0.357-0.121-0.412-0.244c-0.334-0.738-0.618-1.5-0.948-2.24c-0.121-0.268-0.05-0.404,0.166-0.561
	c0.434-0.314,0.868-0.633,1.269-0.986c0.129-0.115,0.209-0.342,0.22-0.523c0.029-0.5,0.028-1.004,0-1.504
	C1.703,9.037,1.627,8.81,1.499,8.697C1.097,8.343,0.662,8.027,0.23,7.71C0.019,7.555-0.059,7.414,0.065,7.144
	c0.337-0.738,0.649-1.488,0.952-2.24C1.115,4.66,1.246,4.596,1.498,4.645c0.526,0.101,1.055,0.199,1.588,0.243
	c0.187,0.015,0.42-0.094,0.576-0.217C3.901,4.484,4.06,4.175,4.313,4.022c0.64-0.383,0.674-0.905,0.556-1.563
	C4.636,1.167,4.662,1.164,5.882,0.66c0.45-0.185,0.91-0.348,1.35-0.556c0.256-0.121,0.404-0.086,0.563,0.147
	C8.087,0.68,8.42,1.082,8.709,1.513c0.155,0.234,0.334,0.318,0.606,0.279c0.24-0.035,0.502-0.092,0.727-0.033
	c0.892,0.229,1.423-0.195,1.847-0.907C12.061,0.562,12.297,0.309,12.534,0 M9.97,15.24c2.875,0.004,5.228-2.32,5.242-5.176
	c0.014-2.88-2.367-5.267-5.23-5.243c-2.869,0.024-5.205,2.38-5.191,5.233C4.803,12.906,7.13,15.234,9.97,15.24"/> <path fill="currentColor" d="M11.786,10.042c-0.004,0.956-0.811,1.772-1.763,1.78c-0.977,0.01-1.807-0.813-1.803-1.79
	c0.002-0.957,0.805-1.767,1.763-1.784C10.948,8.233,11.788,9.069,11.786,10.042"/> 
    </symbol>
    <symbol id="goods" viewBox="-6.969 -10.75 32 32">
        <rect fill="currentColor" width="19" height="2"/> <rect y="4.25" fill="currentColor" width="19" height="2"/> <rect y="8.5" fill="currentColor" width="19" height="2"/> 
    </symbol>
    <symbol id="grid-list" viewBox="-2.366 -3.512 24 24">
        <rect x="7.974" fill="#FFFFFF" width="11.294" height="4.362"/> <rect fill="#FFFFFF" width="6.037" height="4.362"/> <rect x="7.974" y="6.307" fill="#FFFFFF" width="11.294" height="4.361"/> <rect y="6.307" fill="#FFFFFF" width="6.037" height="4.361"/> <rect x="7.974" y="12.614" fill="#FFFFFF" width="11.294" height="4.362"/> <rect y="12.614" fill="#FFFFFF" width="6.037" height="4.362"/> 
    </symbol>
    <symbol id="grid-table" viewBox="-2.826 -2.697 24 24">
        <rect fill="#FFFFFF" width="4.905" height="4.827"/> <rect y="6.89" fill="#FFFFFF" width="4.905" height="4.827"/> <rect y="13.779" fill="#FFFFFF" width="4.905" height="4.827"/> <rect x="7.024" fill="#FFFFFF" width="4.903" height="4.827"/> <rect x="7.024" y="6.89" fill="#FFFFFF" width="4.903" height="4.827"/> <rect x="7.024" y="13.779" fill="#FFFFFF" width="4.903" height="4.827"/> <rect x="14.046" fill="#FFFFFF" width="4.905" height="4.827"/> <rect x="14.046" y="6.89" fill="#FFFFFF" width="4.905" height="4.827"/> <rect x="14.046" y="13.779" fill="#FFFFFF" width="4.905" height="4.827"/> 
    </symbol>
    <symbol id="home" viewBox="0 0 100 100">
       <g id="#000000ff"> <path fill="currentColor" opacity="1.00" d=" M 41.70 14.69 C 44.76 12.02 48.96 8.48 53.20 10.89 C 59.13 14.65 63.98 19.87 69.61 24.06 C 69.67 19.78 69.43 15.46 70.08 11.22 C 74.96 9.32 80.42 10.66 85.53 10.52 C 86.18 18.69 85.50 26.88 85.85 35.04 C 85.58 37.86 88.03 39.52 89.92 41.12 C 93.29 43.83 96.65 46.54 100.00 49.28 L 100.00 51.78 C 98.35 53.87 96.61 56.10 94.08 57.15 C 92.74 56.48 91.51 55.60 90.33 54.67 C 76.90 43.47 63.54 32.18 50.01 21.10 C 38.25 30.99 26.43 40.80 14.64 50.67 C 11.86 52.92 9.34 55.67 5.99 57.10 C 3.39 56.14 1.74 53.71 0.00 51.69 L 0.00 49.35 C 14.06 37.99 27.85 26.30 41.70 14.69 Z"/> <path fill="currentColor" opacity="1.00" d=" M 14.40 55.43 C 26.45 45.97 38.00 35.90 49.99 26.38 C 62.11 35.73 73.60 45.89 85.63 55.37 C 85.98 65.26 85.75 75.16 85.80 85.06 C 86.11 87.38 84.61 90.02 82.01 89.81 C 73.79 90.06 65.56 89.96 57.34 89.76 C 57.54 82.07 57.59 74.38 57.35 66.69 C 52.46 66.46 47.57 66.45 42.68 66.69 C 42.44 74.38 42.50 82.08 42.68 89.78 C 34.45 89.94 26.21 90.08 17.99 89.79 C 15.92 89.91 14.14 88.05 14.34 86.00 C 14.27 75.81 14.25 65.62 14.40 55.43 Z"/> </g> 
    </symbol>
    <symbol id="info" viewBox="-6.5 -7.924 32 32">
        <path fill="currentColor" d="M3.726,12.179c-0.431,0-0.831,0-1.23,0C0.979,12.173,0,11.195,0,9.689C0,7.239,0,4.789,0,2.337
	C0,1.019,1,0.005,2.322,0.003c3.79-0.005,7.579-0.005,11.371,0.001C15.015,0.006,16.025,1,16.037,2.362
	c0.021,2.471,0.02,4.943,0,7.413c-0.012,1.398-1.033,2.371-2.426,2.373c-1.832,0.002-3.667,0.004-5.499-0.004
	c-0.215-0.002-0.371,0.049-0.502,0.225c-1.047,1.387-2.406,2.346-4.043,2.912c-0.207,0.072-0.444,0.107-0.66,0.09
	c-0.317-0.027-0.391-0.219-0.198-0.465c0.529-0.674,0.795-1.455,0.972-2.275C3.71,12.494,3.709,12.349,3.726,12.179 M12.796,8.489
	c0.93,0.008,1.715-0.741,1.73-1.649c0.014-0.937-0.766-1.723-1.707-1.722c-0.91,0.001-1.695,0.771-1.711,1.681
	C11.093,7.709,11.863,8.479,12.796,8.489 M8.122,8.489c0.93,0.008,1.716-0.741,1.729-1.649c0.015-0.937-0.764-1.723-1.706-1.722
	C7.235,5.119,6.45,5.889,6.434,6.798C6.418,7.709,7.188,8.479,8.122,8.489 M3.453,8.489c0.931,0.008,1.716-0.741,1.731-1.649
	c0.014-0.937-0.765-1.723-1.707-1.722C2.566,5.119,1.782,5.889,1.766,6.798C1.75,7.709,2.52,8.479,3.453,8.489"/> <path fill="currentColor" d="M17.398,15.382c-0.137,0.775,0.209,1.395,0.512,2.02c0.178,0.367,0.152,0.455-0.252,0.475
	c-0.24,0.012-0.502-0.006-0.727-0.084c-1.15-0.404-2.066-1.1-2.578-2.24c-0.082-0.186-0.203-0.17-0.344-0.17
	c-1.863,0-3.729,0-5.593,0c-0.382,0.002-0.734-0.066-1.009-0.367c-0.131-0.145-0.175-0.266,0-0.41
	c0.11-0.092,0.22-0.195,0.295-0.314c0.448-0.697,1.078-0.85,1.886-0.822c1.862,0.061,3.728,0.023,5.591,0.018
	c1.197-0.004,2.061-0.674,2.283-1.76c0.039-0.189,0.041-0.389,0.041-0.582c0.002-2.399,0.002-4.798,0.002-7.196
	c0.863-0.248,1.979,0.375,2.332,1.33c0.102,0.273,0.152,0.58,0.154,0.872c0.014,2.327,0.01,4.654,0.008,6.98
	c-0.004,1.293-0.947,2.242-2.238,2.252C17.64,15.384,17.521,15.382,17.398,15.382"/> 
    </symbol>
    <symbol id="jerrycan" viewBox="-6 -5.709 32 32">
        <path fill="currentColor" d="M18.255,2.552c0-0.023-0.06,0.095-0.06,0.07C18.195,1.653,17.337,1,16.369,1H9.556C8.64,1,7.89,2,7.81,3H5V2
	h1V0H0v2h1v1.416C0,3.862,0,4.41,0,5.009v12.096C0,18.585,0.726,20,2.206,20h14.852C18.538,20,20,18.585,20,17.105V5.009
	C20,3.908,19.203,2.964,18.255,2.552 M12,12.974c0,0.439-1.059,0.801-1.5,0.801c-0.44,0-1.5-0.361-1.5-0.801v-3.5
	c0-0.44,1.06-0.801,1.5-0.801c0.441,0,1.5,0.36,1.5,0.801V12.974z M15.077,4h-4.766C9.711,4,9.22,3.601,9.22,3
	c0-0.6,0.491-1,1.092-1h4.766c0.6,0,1.091,0.4,1.091,1C16.168,3.601,15.677,4,15.077,4"/> 
    </symbol>
    <symbol id="lock" viewBox="-3.266 -1.797 16 16">
        <path fill="currentColor" d="M9.652,12.405H0V5.653h9.652V12.405z M3.384,8.525C3.152,8.747,2.947,8.942,2.753,9.127
	c0.497,0.5,0.993,1,1.467,1.479c0.917-0.917,1.841-1.841,2.753-2.752c-0.189-0.189-0.391-0.39-0.609-0.607
	C5.662,7.954,4.951,8.671,4.229,9.4C3.936,9.096,3.654,8.805,3.384,8.525"/> <path fill="currentColor" d="M2.896,4.829H1.472C1.461,4.813,1.446,4.803,1.446,4.792c0-0.861-0.081-1.728,0.201-2.57
	C2.108,0.84,3.152,0.049,4.608,0.003c0.779-0.025,1.528,0.088,2.19,0.538C7.543,1.05,7.971,1.788,8.105,2.653
	c0.113,0.709,0.1,1.438,0.143,2.172H6.764c0-0.473,0.006-0.937-0.002-1.4c-0.004-0.205-0.02-0.413-0.059-0.613
	C6.563,2.065,6.1,1.636,5.361,1.497C4.95,1.418,4.539,1.428,4.135,1.53c-0.772,0.195-1.227,0.81-1.238,1.672
	C2.891,3.674,2.896,4.147,2.896,4.62V4.829z"/> 
    </symbol>
    <symbol id="phone" viewBox="-6.793 -6.783 32 32">
        <path fill="currentColor" d="M0,4.422c0.037-0.271,0.03-0.561,0.123-0.811C0.221,3.344,0.389,3.09,0.573,2.87
	c0.262-0.312,0.579-0.574,0.851-0.879c1.13-1.261,3.09-0.834,3.728,0.689c0.373,0.895,0.575,1.871,0.764,2.828
	c0.127,0.646-0.122,1.248-0.6,1.729c-0.189,0.19-0.372,0.391-0.573,0.568C4.585,7.943,4.548,8.073,4.616,8.278
	c0.987,2.956,2.951,4.924,5.922,5.883c0.154,0.049,0.256,0.033,0.365-0.088c0.188-0.205,0.389-0.396,0.586-0.591
	c0.602-0.59,1.322-0.78,2.131-0.582c0.756,0.185,1.51,0.392,2.256,0.618c1.367,0.416,2.041,2.051,1.35,3.262
	c-0.113,0.199-0.283,0.37-0.443,0.539c-0.264,0.277-0.551,0.532-0.807,0.814c-0.41,0.455-0.924,0.617-1.518,0.6
	C8.584,18.559,3.63,15.249,1.244,9.881C0.474,8.149,0.094,6.323,0,4.422"/> <path fill="currentColor" d="M18.779,9.34h-1.154c-0.045-2.247-0.826-4.193-2.414-5.783c-1.588-1.589-3.531-2.374-5.784-2.421V0.008
	C13.896-0.205,18.789,3.691,18.779,9.34"/> <path fill="currentColor" d="M9.424,4.653V3.518c2.859-0.127,5.853,2.36,5.837,5.812h-1.152c-0.039-1.263-0.473-2.375-1.377-3.283
	C11.826,5.137,10.718,4.694,9.424,4.653"/> <path fill="currentColor" d="M9.423,8.163V7.041c0.868-0.124,2.309,0.71,2.325,2.291h-1.145C10.511,8.653,10.129,8.247,9.423,8.163"/> 
    </symbol>
    <symbol id="pickup" viewBox="-2.162 -6.154 32 32">
        <path fill="currentColor" d="M12.811,12.508c-2.285,0-4.14,1.864-4.14,4.164c0,2.299,1.854,4.164,4.14,4.164
	c2.286,0,4.141-1.865,4.141-4.164C16.951,14.373,15.097,12.508,12.811,12.508 M12.811,18.301c-0.895,0-1.619-0.729-1.619-1.629
	s0.725-1.63,1.619-1.63c0.896,0,1.62,0.729,1.62,1.63S13.706,18.301,12.811,18.301"/> <path fill="currentColor" d="M28,3.219V1.488c-3.12-0.579-7-0.002-7-0.002v5.858L4,0L3.417,1.152l16.5,6.966H1v4.057l-1,1.66v1.283h4.865
	l-0.342,0.981L0,16.131v0.986h5.528l0.503-2H7l2.777-4h5.507l2.879,4h8.831H28v-7.34l-5-0.404V2.922C23,2.922,25.827,2.887,28,3.219
	"/> 
    </symbol>
    <symbol id="plus-google" viewBox="0 0 132 132">
       <g id="#f6f7f8ff"> <path fill="#f6f7f8" opacity="1.00" d=" M 31.57 15.92 C 35.07 14.41 41.03 14.29 44.44 15.99 C 49.15 16.01 53.85 16.01 58.56 15.99 C 61.03 13.86 65.24 15.00 68.04 16.27 C 68.04 17.97 68.29 19.81 66.75 20.97 C 65.56 20.80 64.51 21.06 63.61 21.74 C 62.34 22.01 61.36 22.88 60.71 23.97 L 61.91 24.02 C 61.79 25.27 62.05 26.40 62.71 27.40 C 64.16 29.60 64.61 32.31 65.95 34.47 C 65.98 35.51 66.00 36.56 66.01 37.60 C 61.30 36.81 56.38 37.40 51.81 35.81 C 51.45 35.02 51.09 34.23 50.73 33.43 C 50.49 32.93 50.00 31.92 49.76 31.41 C 48.73 28.89 46.70 27.03 44.66 25.31 C 42.72 24.38 41.24 22.76 39.51 21.51 C 36.93 20.75 34.08 20.71 31.50 21.52 C 29.03 23.11 27.17 25.42 25.04 27.41 C 24.99 27.89 24.89 28.85 24.84 29.33 C 24.13 30.56 24.01 31.99 23.73 33.35 C 23.24 34.53 22.91 35.76 22.76 37.04 C 18.82 37.14 14.85 37.13 10.98 36.30 C 11.20 35.62 11.63 34.27 11.85 33.59 C 11.88 31.74 12.84 30.15 13.74 28.60 C 15.58 25.53 18.41 22.27 21.72 20.85 C 22.11 20.42 22.89 19.56 23.28 19.13 C 24.63 19.16 25.50 18.09 26.31 17.17 C 27.97 16.34 29.70 15.78 31.57 15.92 Z"/> </g> <g id="#f5f5f7ff"> <path fill="#f5f5f7" opacity="1.00" d=" M 103.32 15.95 C 104.97 15.97 106.81 15.67 107.87 17.26 C 109.60 20.26 108.83 23.72 109.08 27.00 C 106.39 26.98 103.69 26.98 101.00 26.97 C 101.02 24.09 100.98 21.20 101.00 18.32 C 101.93 17.68 102.70 16.89 103.32 15.95 Z"/> </g> <g id="#ecedf0ff"> <path fill="#ecedf0" opacity="1.00" d=" M 101.00 26.97 C 103.69 26.98 106.39 26.98 109.08 27.00 C 108.78 27.57 108.18 28.69 107.87 29.25 C 109.74 30.70 108.76 33.22 109.07 35.22 C 106.04 36.13 102.75 36.47 99.77 35.15 C 100.07 34.75 100.67 33.93 100.97 33.52 C 101.01 31.34 100.99 29.16 101.00 26.97 Z"/> </g> <g id="#e3e6ebff"> <path fill="#e3e6eb" opacity="1.00" d=" M 99.37 35.02 L 99.77 35.15 C 102.75 36.47 106.04 36.13 109.07 35.22 C 109.66 35.42 110.84 35.80 111.43 35.99 C 117.28 36.54 123.57 34.73 129.05 37.27 C 129.26 39.40 129.01 41.97 126.40 42.26 C 125.36 43.37 123.79 42.90 122.47 43.00 C 119.97 41.30 115.12 41.39 112.54 42.94 C 112.02 42.97 110.97 43.03 110.45 43.06 C 110.10 43.30 109.40 43.77 109.04 44.01 C 106.14 44.10 103.22 44.10 100.35 43.64 L 99.51 43.08 C 99.00 43.05 97.97 42.97 97.46 42.93 C 93.94 40.77 89.03 42.61 84.97 42.01 C 81.65 42.54 79.10 37.14 83.60 36.74 C 88.33 34.37 95.01 37.78 99.37 35.02 Z"/> </g> <g id="#eef0f2ff"> <path fill="#eef0f2" opacity="1.00" d=" M 10.98 36.30 C 14.85 37.13 18.82 37.14 22.76 37.04 C 23.02 37.69 23.56 38.99 23.83 39.64 C 23.92 40.07 24.10 40.92 24.19 41.35 C 25.03 43.39 25.23 45.63 26.15 47.66 C 26.86 48.84 27.58 50.02 28.47 51.07 C 23.70 52.86 18.62 51.39 13.69 51.91 L 13.19 51.94 C 12.41 50.16 12.29 48.06 11.05 46.53 C 11.01 45.16 11.00 43.80 10.98 42.43 C 9.61 41.47 9.62 40.51 10.99 39.57 C 11.00 38.48 10.99 37.39 10.98 36.30 Z"/> <path fill="#eef0f2" opacity="1.00" d=" M 51.81 35.81 C 56.38 37.40 61.30 36.81 66.01 37.60 C 65.64 39.81 66.86 42.62 65.18 44.42 C 65.09 45.94 64.41 47.28 63.72 48.60 C 63.48 49.19 63.01 50.37 62.77 50.95 L 62.29 51.00 C 58.83 51.34 55.36 51.59 51.89 51.87 C 51.96 51.33 52.10 50.23 52.17 49.68 C 52.85 48.43 52.99 47.01 53.25 45.65 C 54.20 44.31 54.28 42.58 53.13 41.33 C 53.04 40.44 52.95 39.55 52.86 38.67 C 52.59 37.95 52.07 36.53 51.81 35.81 Z"/> </g> <g id="#dbdfe5ff"> <path fill="#dbdfe5" opacity="1.00" d=" M 100.35 43.64 C 103.22 44.10 106.14 44.10 109.04 44.01 C 108.67 45.40 109.87 47.76 107.89 48.25 C 109.43 49.41 108.94 51.35 109.03 53.00 C 106.36 53.01 103.68 53.01 101.00 53.01 C 100.51 50.28 102.14 46.62 99.98 44.55 L 100.35 43.64 Z"/> </g> <g id="#e9ebefff"> <path fill="#e9ebef" opacity="1.00" d=" M 13.69 51.91 C 18.62 51.39 23.70 52.86 28.47 51.07 C 30.86 53.31 33.17 55.62 35.42 57.98 C 36.38 58.02 37.35 58.05 38.31 58.09 C 39.80 59.44 41.97 59.21 43.59 58.29 C 44.58 58.01 45.56 57.73 46.54 57.43 C 49.02 56.24 49.43 53.11 51.89 51.87 C 55.36 51.59 58.83 51.34 62.29 51.00 C 61.67 51.84 60.97 52.61 60.20 53.31 C 58.90 56.15 56.21 59.08 53.26 60.12 C 52.19 61.29 51.68 62.81 50.74 64.07 L 49.89 63.88 C 45.33 62.90 39.69 61.75 36.06 65.54 L 35.03 66.36 C 35.01 65.78 34.98 64.60 34.97 64.01 C 34.34 64.00 33.09 63.98 32.46 63.97 C 31.63 62.46 29.80 63.18 28.45 62.91 C 27.28 61.29 24.96 62.59 23.58 61.31 C 21.42 60.75 20.58 58.09 18.30 57.82 C 17.29 56.80 15.96 55.86 15.83 54.31 C 14.99 53.62 14.28 52.82 13.69 51.91 Z"/> </g> <g id="#d2d6deff"> <path fill="#d2d6de" opacity="1.00" d=" M 101.00 53.01 C 103.68 53.01 106.36 53.01 109.03 53.00 C 109.00 55.17 109.01 57.34 108.95 59.51 C 108.81 63.54 103.16 66.45 101.72 61.41 C 100.20 58.93 101.33 55.77 101.00 53.01 Z"/> </g> <g id="#e3e5eaff"> <path fill="#e3e5ea" opacity="1.00" d=" M 36.06 65.54 C 39.69 61.75 45.33 62.90 49.89 63.88 C 49.80 65.17 50.06 66.35 50.68 67.42 C 51.41 69.93 54.38 70.88 55.17 73.29 C 49.94 76.85 42.95 74.26 37.00 75.00 C 36.56 72.59 38.08 69.29 35.98 67.54 C 36.00 67.04 36.04 66.04 36.06 65.54 Z"/> </g> <g id="#dee1e6ff"> <path fill="#dee1e6" opacity="1.00" d=" M 55.17 73.29 L 55.70 72.85 C 56.09 73.35 56.88 74.37 57.27 74.87 C 60.92 76.55 64.10 80.21 66.26 83.60 C 66.92 85.07 68.32 86.40 67.98 88.15 C 64.70 89.46 61.31 90.46 57.89 91.33 C 56.52 89.95 55.12 88.61 53.70 87.29 C 51.45 86.15 49.37 84.68 47.44 83.05 C 46.53 83.00 45.61 82.94 44.69 82.87 C 42.30 81.35 39.35 82.14 36.70 82.10 C 34.11 83.41 30.91 82.80 28.52 84.73 C 28.03 84.98 27.05 85.49 26.56 85.75 C 26.03 85.98 24.99 86.43 24.46 86.66 C 22.83 87.59 21.47 88.91 20.17 90.25 C 16.93 90.15 12.97 90.41 10.92 87.34 C 11.75 84.74 15.23 83.87 17.39 82.23 C 20.47 81.63 22.55 79.23 25.57 78.82 C 28.92 76.73 33.57 79.28 37.00 76.74 C 37.00 76.30 37.00 75.44 37.00 75.00 C 42.95 74.26 49.94 76.85 55.17 73.29 Z"/> </g> <g id="#d8dce2ff"> <path fill="#d8dce2" opacity="1.00" d=" M 10.41 86.78 L 10.92 87.34 C 12.97 90.41 16.93 90.15 20.17 90.25 C 19.21 91.27 18.31 92.36 17.50 93.50 C 16.60 96.65 17.11 99.97 17.00 103.20 C 12.44 104.52 7.63 103.94 2.95 103.93 C 3.26 101.84 2.27 99.27 3.82 97.56 C 3.93 95.74 4.83 94.14 5.73 92.60 C 6.51 90.12 9.11 88.94 10.41 86.78 Z"/> </g> <g id="#d8dce3ff"> <path fill="#d8dce3" opacity="1.00" d=" M 57.89 91.33 C 61.31 90.46 64.70 89.46 67.98 88.15 L 69.00 87.76 C 69.00 89.02 69.01 90.28 69.03 91.54 C 70.62 94.36 70.76 100.01 68.93 102.57 C 66.04 103.02 63.11 103.05 60.20 103.10 L 60.34 102.69 C 61.69 99.64 61.11 96.18 59.30 93.46 C 58.85 92.74 58.38 92.02 57.89 91.33 Z"/> </g> <g id="#d2d5ddff"> <path fill="#d2d5dd" opacity="1.00" d=" M 17.00 103.20 L 17.65 103.02 C 18.38 104.67 19.47 106.12 20.29 107.73 C 21.51 109.10 22.81 110.45 24.46 111.30 C 25.46 111.76 26.46 112.23 27.44 112.73 C 33.03 116.33 40.31 115.22 46.53 114.37 C 48.25 113.84 49.92 113.17 51.47 112.26 C 51.97 112.01 52.96 111.50 53.45 111.25 C 53.96 111.03 54.98 110.59 55.49 110.37 C 57.62 109.50 58.47 107.35 59.32 105.39 C 59.54 104.82 59.98 103.67 60.20 103.10 C 63.11 103.05 66.04 103.02 68.93 102.57 C 68.77 103.28 68.45 104.71 68.29 105.43 C 68.04 105.92 67.54 106.92 67.28 107.42 C 67.04 107.92 66.55 108.91 66.31 109.41 C 63.39 114.48 57.71 117.55 52.53 119.78 C 51.36 119.80 50.36 120.18 49.52 120.93 C 47.87 121.20 45.75 120.38 44.53 121.89 C 43.18 122.16 41.39 121.51 40.52 122.96 C 38.18 123.01 35.83 123.02 33.48 122.96 C 32.66 122.17 31.65 121.79 30.46 121.81 C 29.44 120.64 27.80 121.11 26.47 120.89 C 24.25 118.94 20.67 120.98 18.39 118.72 C 17.90 118.47 16.91 117.98 16.42 117.73 C 15.11 117.00 13.77 116.33 12.38 115.76 C 9.16 114.20 6.49 111.46 4.63 108.44 C 4.11 106.92 3.73 105.35 2.95 103.93 C 7.63 103.94 12.44 104.52 17.00 103.20 Z"/> </g> 
    </symbol>
    <symbol id="product-range" viewBox="-10.468 -9.641 64 64">
        <path fill="currentColor" d="M15.271,30.539C6.944,30.557,0.077,23.736,0,15.494C-0.077,6.981,6.734,0.017,15.246,0
	c8.365-0.017,15.281,6.805,15.294,15.067C30.552,23.686,23.808,30.521,15.271,30.539 M24.519,21.907
	c-0.155-0.118-0.28-0.217-0.409-0.309c-2.806-2.001-5.609-4.009-8.427-5.993c-0.316-0.224-0.418-0.45-0.418-0.826
	c0.016-3.431,0.01-6.862,0.01-10.293V3.919C11.367,3.713,6.05,6.313,4.33,12.034c-1.616,5.373,0.978,11.128,6.1,13.565
	C15.333,27.934,21.57,26.313,24.519,21.907"/> <path fill="currentColor" d="M42.384,31.113c0,3.734,0.002,7.469,0,11.201c0,1.455-0.942,2.396-2.401,2.4
	c-0.853,0.004-1.707,0.004-2.56,0c-1.446-0.004-2.399-0.951-2.404-2.412c-0.008-2.648-0.002-5.297-0.002-7.947
	c0-4.729-0.002-9.461,0-14.188c0-1.809,0.865-2.668,2.685-2.668c0.8,0,1.601-0.008,2.4,0.002c1.319,0.018,2.28,0.987,2.282,2.305
	C42.386,23.575,42.384,27.346,42.384,31.113"/> <path fill="currentColor" d="M31.413,37.83c0,1.51,0.003,3.021-0.001,4.533c-0.003,1.393-0.945,2.342-2.335,2.352
	c-0.889,0.006-1.778,0.006-2.667,0c-1.275-0.01-2.181-0.818-2.339-2.092c-0.026-0.211-0.028-0.424-0.029-0.637
	c-0.001-2.773,0.036-5.547-0.014-8.32c-0.032-1.762,1.101-2.863,2.708-2.73c0.759,0.061,1.527,0.008,2.292,0.01
	c1.467,0.002,2.382,0.924,2.385,2.404C31.415,34.842,31.413,36.336,31.413,37.83"/> <path fill="currentColor" d="M13.121,39.488c0-0.959-0.004-1.918,0.002-2.877c0.01-1.297,0.947-2.248,2.25-2.268
	c0.924-0.014,1.849-0.01,2.772,0c1.238,0.012,2.121,0.783,2.302,2c0.028,0.193,0.043,0.389,0.045,0.584
	c0.002,1.74,0.01,3.48-0.002,5.223c-0.012,1.668-0.925,2.564-2.582,2.566c-0.834,0-1.67,0.006-2.505-0.002
	c-1.325-0.014-2.272-0.965-2.28-2.295C13.117,41.443,13.121,40.467,13.121,39.488"/> 
    </symbol>
    <symbol id="question" viewBox="-4.916 -5.296 32 32">
        <path fill="currentColor" d="M9.93,12.531c1.722-1.678,2.649-2.758,2.649-4.484c0-0.629-0.522-1.049-2.127-1.049
	c-1.276,0-2.204,0.113-2.822,0.307l-0.6-2.291c0.947-0.225,2.57-0.402,3.731-0.402c3.886,0,5.395,1.049,5.395,3.339
	c0,1.758-1.411,3.177-3.248,4.581H9.93z M13.057,15.855c0,1.47-0.443,1.701-1.798,1.701c-1.314,0-1.759-0.231-1.759-1.701
	c0-1.354,0.444-1.565,1.759-1.565C12.613,14.29,13.057,14.501,13.057,15.855"/> <path fill="currentColor" d="M11.084,0C4.962,0,0,4.962,0,11.083s4.962,11.084,11.084,11.084s11.084-4.963,11.084-11.084
	S17.206,0,11.084,0 M11.084,21.025c-5.49,0-9.941-4.451-9.941-9.941s4.451-9.941,9.941-9.941s9.94,4.451,9.94,9.941
	S16.574,21.025,11.084,21.025"/> 
    </symbol>
    <symbol id="russia-map" viewBox="-1.443 -8.309 64 64">
        <path fill="currentColor" d="M54.405,35.468c-0.547,0.574-0.922,1.313-1.367,1.358c-0.8,0.08-1.692-0.134-2.45-0.454
	c-0.656-0.279-1.209-0.844-1.753-1.344c-0.982-0.9-1.744,0.135-2.583,0.31c-0.205,0.043-0.305,0.75-0.387,1.165
	c-0.057,0.291,0.003,0.604,0.004,0.907c0.002,0.605,0.215,1.352-0.063,1.774c-0.261,0.396-1.092,0.367-1.586,0.666
	c-0.888,0.538-1.689,1.218-2.574,1.762c-0.361,0.223-0.857,0.367-1.272,0.332c-1.362-0.117-2.713-0.196-3.987-0.92
	c-0.53-0.302-1.42,0.026-2.284,0.076c0.229,0.406,0.381,0.678,0.552,0.98c-0.865,0.512-1.6,1.307-2.8,0.54
	c-0.313-0.2-1.104,0.135-1.559,0.413c-0.92,0.562-1.749,0.528-2.604-0.063c-0.027-0.019-0.062-0.03-0.093-0.04
	c-1.952-0.631-3.268-1.872-3.771-3.907c-0.152-0.614-0.433-0.956-1.211-0.807c-0.854,0.163-1.938-0.939-2.142-2.111
	c-1.423-0.15-2.882-0.33-4.346-0.433c-0.205-0.014-0.534,0.306-0.637,0.544c-0.261,0.609-0.426,1.259-0.635,1.912
	c-1.775-0.607-3.452-1.208-4.15-3.111c-0.233-0.64-0.696-0.811-1.351-0.761c-0.733,0.056-1.475,0.013-2.331,0.013
	c-0.123,1.149-0.297,2.238-0.337,3.332c-0.023,0.641-0.282,0.933-0.857,0.999c-0.915,0.106-1.286,0.65-1.423,1.519
	c-0.124,0.79-0.385,1.558-0.586,2.335c-0.115,0.089-0.229,0.179-0.344,0.268c-0.152-0.284-0.335-0.556-0.453-0.854
	c-1.006-2.524-2-5.054-3.026-7.656c1.049-0.505,2.001-0.993,2.979-1.424c0.523-0.231,0.666-0.528,0.555-1.099
	c-0.298-1.519-0.43-3.076-0.816-4.569c-0.306-1.183-0.07-2.1,0.724-2.945c0.501-0.536,0.714-1.116,0.312-1.811
	c-0.065-0.112-0.124-0.255-0.117-0.378c0.031-0.495,2.065-2.278,2.563-2.344c1.261-0.165,2.393-0.615,3.151-1.71
	c0.901-1.301,1.752-2.639,2.688-3.914c0.328-0.446,0.844-0.756,1.451-1.282c0.441,1.994,0.816,3.689,1.188,5.368
	c-1.839,1.096-1.88-0.755-2.688-1.666c-0.288,1.132-0.543,2.135-0.813,3.192c0.342,0.032,0.574,0.085,0.803,0.069
	c2.076-0.145,4.098,0.141,6.063,0.797c0.668,0.223,1.256,0.209,1.772-0.28c0.598-0.567,1.023-0.331,1.497,0.196
	c0.582,0.647,1.232,1.233,1.985,1.976c0.397-1.672,0.771-3.246,1.177-4.96c0.657,0.623,1.25,1.185,1.927,1.825
	c0.6-1.232,1.762-1.552,2.838-2.146c1.427-0.786,2.883-1.878,3.403-3.724c1.019,0.266,2.206-0.06,2.79,1.104
	c0.151,0.302,0.209,0.762,0.092,1.065c-0.342,0.891-0.794,1.74-1.334,2.882c1.436-0.721,2.598-1.294,3.746-1.894
	c0.15-0.079,0.276-0.286,0.328-0.459c0.341-1.128,1.338-1.384,2.186-0.532c0.357,0.358,0.676,0.752,1.13,1.262
	c0.74-1.118,1.966-1.708,1.86-3.197c-0.02-0.271,0.29-0.648,0.549-0.842c1.153-0.861,2.431-1.553,3.204-2.872
	c0.159-0.272,0.807-0.354,1.229-0.355C49,9.547,49.329,9.38,49.581,8.837c0.678-1.466,1.315-2.968,2.165-4.332
	C52.69,2.991,53.854,1.614,55.051,0c0.499,0.765,0.805,1.233,1.165,1.79c-0.338,0.434-0.682,0.879-1.027,1.322
	c-0.781,0.998-0.454,1.979,0.784,2.166c0.617,0.095,0.814,0.398,0.953,0.949c0.69,2.75,1.265,5.506,1.073,8.374
	c-0.03,0.448,0.162,1.025,0.458,1.361c1.573,1.786,2.3,3.904,2.656,6.419c-1.248-0.792-2.406-1.48-3.501-2.256
	c-0.244-0.174-0.303-0.649-0.389-0.999c-0.484-1.954-0.95-3.913-1.419-5.858c-0.842-0.138-1.112,0.226-1.068,0.939
	c0.018,0.303-0.013,0.607,0.002,0.91c0.091,1.938-0.264,3.751-1.583,5.251c-1.596,1.815-1.496,4.102-1.807,6.277
	c-0.053,0.366-0.126,0.737-0.115,1.104c0.016,0.528-0.06,1.4,0.188,1.515c0.74,0.343,1.692,0.778,2.25-0.501
	c0.993,1.019,2.016,1.834,2.204,3.327c0.164,1.296,0.703,2.548,0.827,3.843c0.149,1.558,0.035,3.14,0.035,4.794h-1.685
	C54.841,39.009,54.633,37.315,54.405,35.468"/> 
    </symbol>
    <symbol id="search" viewBox="-6.659 -6.73 32 32">
        <path fill="currentColor" d="M7.422,14.854c-1.983,0-3.849-0.773-5.251-2.176c-2.896-2.896-2.896-7.607,0-10.503
	C3.574,0.772,5.439,0,7.422,0s3.848,0.772,5.25,2.175c2.896,2.896,2.896,7.606,0,10.503C11.271,14.081,9.406,14.854,7.422,14.854
	 M7.422,1.449c-1.597,0-3.098,0.622-4.227,1.75c-2.331,2.331-2.331,6.123,0,8.454c1.129,1.129,2.63,1.752,4.227,1.752
	c1.596,0,3.096-0.623,4.225-1.752c2.332-2.331,2.332-6.123,0-8.454C10.519,2.071,9.018,1.449,7.422,1.449"/> <rect x="12.439" y="14.544" transform="matrix(-0.7071 -0.7071 0.7071 -0.7071 16.5032 38.2236)" fill="currentColor" width="7.458" height="2.299"/> 
    </symbol>
    <symbol id="select" viewBox="-2.747 -2.5 32 32">
        <polygon fill="currentColor" points="10.5,12 18.5,20 26.5,12 "/> <line fill="none" stroke="currentColor" stroke-miterlimit="10" x1="0.5" y1="0" x2="0.5" y2="27"/> 
    </symbol>
    <symbol id="slider-arrow-left" viewBox="-4.154 -1 24 24">
        <polygon fill="currentColor" points="15.299,17.7 8.6,11 15.299,4.3 11,0 0,11 11,22 "/> 
    </symbol>
    <symbol id="slider-arrow-right" viewBox="-4.35 -1 24 24">
        <polygon fill="currentColor" points="0,4.299 6.7,11 0,17.699 4.3,22 15.3,11 4.3,0 "/> 
    </symbol>
    <symbol id="slider-handle" viewBox="6.479 4.347 10 10">
        <path display="none" fill="#FFFFFF" d="M24,20H1c-0.552,0-1-0.448-1-1V1c0-0.552,0.448-1,1-1h23c0.552,0,1,0.448,1,1v18
	C25,19.552,24.552,20,24,20"/> <line fill="none" stroke="#B4B4B4" stroke-miterlimit="10" x1="8.432" y1="4.825" x2="8.432" y2="13.825"/> <line fill="none" stroke="#B4B4B4" stroke-miterlimit="10" x1="14.432" y1="4.825" x2="14.432" y2="13.825"/> 
    </symbol>
    <symbol id="star" viewBox="-1.244 -1.472 16 16">
        <polygon fill="currentColor" points="8.875,4.333 13.512,5.238 9.975,8.366 10.545,13.055 6.478,10.657 2.195,12.649 3.218,8.038 
	0,4.582 4.702,4.13 6.997,0 "/> 
    </symbol>
    <symbol id="suspension" viewBox="-7.451 -6.362 32 32">
        <path fill="currentColor" d="M16.436,20.011H1.314C0.591,20.011,0,19.421,0,18.697c0-0.723,0.591-1.313,1.314-1.313h15.122
	c0.725,0,1.314,0.591,1.314,1.313C17.75,19.421,17.16,20.011,16.436,20.011"/> <path fill="currentColor" d="M16.436,2.628H1.314C0.591,2.628,0,2.037,0,1.314C0,0.591,0.591,0,1.314,0h15.122
	c0.725,0,1.314,0.591,1.314,1.314C17.75,2.037,17.16,2.628,16.436,2.628"/> <path fill="currentColor" d="M15.818,14.281L2.428,16.859c-0.71,0.136-1.402-0.333-1.539-1.042c-0.136-0.71,0.333-1.402,1.042-1.539
	L15.322,11.7c0.709-0.136,1.402,0.332,1.539,1.043C16.998,13.452,16.529,14.145,15.818,14.281"/> <path fill="currentColor" d="M15.818,9.999L2.428,12.577c-0.71,0.137-1.402-0.332-1.539-1.041c-0.136-0.711,0.333-1.403,1.042-1.539
	l13.391-2.578c0.709-0.137,1.402,0.332,1.539,1.042S16.529,9.862,15.818,9.999"/> <path fill="currentColor" d="M15.818,5.718L2.428,8.296c-0.71,0.137-1.402-0.333-1.539-1.042c-0.136-0.71,0.333-1.403,1.042-1.539
	l13.391-2.578c0.709-0.136,1.402,0.333,1.539,1.042C16.998,4.89,16.529,5.581,15.818,5.718"/> 
    </symbol>
    <symbol id="suv-goods" viewBox="-1.745 -5.247 32 32">
        <path fill="#FFFFFF" d="M23.171,4.607c-0.055,0.347-0.141,0.681-0.266,1H28v-1H23.171z"/> <path fill="#FFFFFF" d="M20,10.322l-0.412-1.754c-0.299,0.078-0.606,0.127-0.924,0.147L19,10.414v1.419L4.02,12.431L3,11.333V7.691
	l1.91-1.106l9.062-0.527c-0.2-0.392-0.366-0.802-0.456-1.245L3.947,5.355L1.473,6.816L0.95,11l0.912,1.673l-1.429,0.633L0,14.574
	v0.535l2.057,4.619l16.411,0.879H28v-4h-5v-2h5V11.75l-8,0.05V10.322z M16.315,18.287l-8.412-1.301l-1.204-2.297l0.654-0.516
	l8.309-0.373l0.914,0.902l0.291,3.004L16.315,18.287z"/> <path fill="#FFFFFF" d="M18.333,0C16.215,0,14.5,1.716,14.5,3.834c0,2.115,1.716,3.832,3.834,3.832c2.117,0,3.833-1.717,3.833-3.832
	C22.167,1.716,20.451,0,18.333,0 M17.867,6.188c-0.76,0-1.375-0.615-1.375-1.375s0.615-1.375,1.375-1.375s1.375,0.615,1.375,1.375
	S18.626,6.188,17.867,6.188"/> 
    </symbol>
    <symbol id="tick" viewBox="-1.496 -3.086 16 16">
        <polygon fill="currentColor" points="10.715,0 4.821,5.896 1.965,3.04 0,5.004 5.147,10.154 13.008,2.293 "/> 
    </symbol>
    <symbol id="trailer" viewBox="-4.498 -7.276 32 32">
        <path fill="currentColor" d="M10.716,10.902c-1.912,0-3.463,1.559-3.463,3.482s1.551,3.482,3.463,3.482c1.912,0,3.462-1.559,3.462-3.482
	S12.627,10.902,10.716,10.902 M10.716,15.748c-0.748,0-1.355-0.611-1.355-1.363c0-0.754,0.607-1.363,1.355-1.363
	s1.354,0.609,1.354,1.363C12.07,15.136,11.464,15.748,10.716,15.748"/> <polygon fill="currentColor" points="15.432,12 15.217,12 19,12 19,7 0,7 0,12 5.797,12 5.59,12 0,12 0,13 5.856,13 8.179,10 12.784,10 
	15.192,13 24,13 24,12 "/> <rect x="1.189" y="1.681" fill="currentColor" width="0.54" height="6.005"/> <rect x="5.339" y="1.681" fill="currentColor" width="0.54" height="6.005"/> <rect x="9.487" y="1.681" fill="currentColor" width="0.541" height="6.005"/> <rect x="13.637" y="1.681" fill="currentColor" width="0.541" height="6.005"/> <rect x="17.788" y="1.681" fill="currentColor" width="0.539" height="6.005"/> <polygon fill="currentColor" points="0,6.12 19,5.446 19,0 0,0 "/> <path fill="currentColor" d="M22.579,15.933c0,0.574-0.467,1.041-1.041,1.041c-0.576,0-1.041-0.467-1.041-1.041s0.465-1.041,1.041-1.041
	C22.112,14.892,22.579,15.359,22.579,15.933"/> <rect x="22.018" y="10.378" fill="currentColor" width="0.561" height="5.555"/> 
    </symbol>
    <symbol id="trailers-accessories" viewBox="-5.389 -5.714 32 32">
        <path fill="currentColor" d="M10.458,0C4.683,0,0,4.709,0,10.519c0,5.81,4.683,10.519,10.458,10.519s10.458-4.709,10.458-10.519
	C20.916,4.709,16.233,0,10.458,0 M10.458,16.446c-3.255,0-5.895-2.652-5.895-5.927c0-3.274,2.64-5.929,5.895-5.929
	s5.895,2.654,5.895,5.929C16.353,13.794,13.713,16.446,10.458,16.446"/> <path fill="currentColor" d="M10.458,7.198c-1.824,0-3.302,1.486-3.302,3.32c0,1.834,1.478,3.323,3.302,3.323s3.303-1.488,3.303-3.323
	C13.761,8.684,12.282,7.198,10.458,7.198 M10.458,11.772c-0.689,0-1.247-0.561-1.247-1.254c0-0.692,0.558-1.254,1.247-1.254
	s1.247,0.562,1.247,1.254C11.705,11.211,11.147,11.772,10.458,11.772"/> 
    </symbol>
    <symbol id="turnbuckles" viewBox="-3.466 -2.693 32 32">
        <rect x="5" y="24.613" fill="currentColor" width="4" height="2"/> <rect x="3" y="20.613" fill="currentColor" width="1" height="4"/> <rect x="11" y="20.613" fill="currentColor" width="2" height="4"/> <rect x="5" y="20.613" fill="currentColor" width="6" height="4"/> <path fill="currentColor" d="M4.469,10.462c1.492,0.316,3.385,0.371,5.502,0.002c0,0-2.971,0.701-4.971,0.825v4.325h6v-4.93
	c1-0.969,2.611-2.838,2.611-4.989C13.611,2.55,10.891,0,7.746,0c-3.146,0-5.78,2.55-5.78,5.695
	C1.966,7.692,2.912,9.446,4.469,10.462"/> <path fill="currentColor" d="M25,8.614h-5.354l-0.345,1.139c-1.487,4.868-5.231,5.861-6.122,6.861H0v3h13.672l0.221,0.425
	c0.241-0.071,5.639-1.425,8.069-7.425H25V8.614z"/> 
    </symbol>
    <symbol id="up-arrow" viewBox="0 0 349.629 349.629">
       <g> <g> <polygon fill="currentColor" stroke="currentColor" points="174.827,73.433 0,253.42 23.434,276.19 174.827,120.318 326.216,276.196 349.629,253.42 		"/> </g> </g>                
    </symbol>
    <symbol id="vk" viewBox="-9.033 -5.946 32 32">
        <path fill-rule="evenodd" clip-rule="evenodd" fill="#FFFFFF" d="M0.04,0h9.397c3.093,0,5.725,1.515,5.722,4.577
	c-0.002,2.559-0.928,3.554-2.831,4.679c0.163,0.134,1.253,0.459,1.619,0.64c0.587,0.289,0.931,0.581,1.317,0.973
	c1.08,1.098,1.28,2.102,1.28,3.823c0,3.994-3.864,6.002-7.585,6.002H0L0.04,0z M5.146,5.437v2.688c2.42,0,4.694,0.318,4.694-2.306
	c0-2.43-2.572-2.03-4.696-2.03L5.146,5.437z M5.146,16.885c2.651,0,5.929,0.437,5.986-2.574c0.061-3.142-3.365-2.575-5.984-2.575
	L5.146,16.885z"/> 
    </symbol>
    <symbol id="you-tube" viewBox="-5.597 -3.865 32 32">
        <polygon fill="#FFFFFF" points="7.649,0 5.633,0 4.405,5.137 4.279,5.137 2.993,0 0.993,0 0.993,0.001 3.354,7.759 3.354,12.851 
	5.34,12.851 5.34,7.519 "/> <path fill="#FFFFFF" d="M8.254,12.376c0.46,0.475,1.075,0.713,1.843,0.715h0.017c0.797-0.002,1.422-0.234,1.879-0.693
	c0.455-0.46,0.682-1.096,0.684-1.908V5.591c-0.002-0.722-0.232-1.313-0.697-1.771c-0.467-0.459-1.064-0.688-1.793-0.688
	c-0.802,0-1.44,0.217-1.913,0.653C7.797,4.22,7.56,4.805,7.56,5.539l0.001,4.915C7.561,11.259,7.792,11.899,8.254,12.376
	 M9.374,5.468L9.374,5.468c0-0.207,0.068-0.375,0.202-0.503c0.134-0.126,0.308-0.19,0.523-0.19c0.232,0,0.422,0.064,0.564,0.19
	c0.144,0.128,0.216,0.296,0.216,0.503v5.163c0,0.255-0.069,0.454-0.211,0.599c-0.14,0.146-0.33,0.219-0.569,0.219
	c-0.232,0-0.411-0.07-0.537-0.213s-0.188-0.344-0.188-0.604V5.468z"/> <path fill="#FFFFFF" d="M17.442,3.371v7.197c-0.166,0.205-0.348,0.376-0.547,0.509c-0.197,0.134-0.361,0.2-0.49,0.2
	c-0.166,0-0.285-0.05-0.357-0.151c-0.074-0.101-0.111-0.263-0.111-0.487V3.371h-1.762v7.928c0,0.563,0.102,0.984,0.309,1.267
	c0.207,0.281,0.514,0.422,0.92,0.422c0.33,0,0.672-0.1,1.025-0.301c0.35-0.201,0.688-0.496,1.014-0.881v1.045h1.762v-9.48H17.442z"/> <path fill="#FFFFFF" d="M10.283,12.135c-0.117,0-0.233,0-0.35,0c-0.117,0-0.234,0-0.352,0c-2.236,0-4.433,0.043-6.58,0.132
	c-1.584,0-2.868,1.271-2.868,2.836c-0.096,1.24-0.136,2.479-0.134,3.72c-0.002,1.239,0.038,2.479,0.134,3.721
	c0,1.565,1.284,2.835,2.868,2.835c2.157,0.09,4.363,0.132,6.611,0.132c0.107,0,0.213,0,0.32,0c0.105,0,0.212,0,0.319,0
	c2.247,0,4.452-0.042,6.612-0.132c1.582,0,2.867-1.27,2.867-2.835c0.096-1.241,0.137-2.481,0.135-3.721
	c0.002-1.24-0.039-2.479-0.135-3.72c0-1.565-1.285-2.836-2.867-2.836C14.716,12.178,12.521,12.135,10.283,12.135"/> <path fill="#989898" d="M6.687,14.303H2.521v1.275h1.404v7.512h1.357v-7.512h1.404V14.303z M8.904,21.529L8.904,21.529
	c-0.112,0.142-0.237,0.258-0.372,0.349c-0.136,0.092-0.248,0.137-0.336,0.137c-0.113,0-0.195-0.034-0.245-0.104
	c-0.051-0.067-0.077-0.18-0.077-0.334v-4.969H6.67v5.419c0,0.386,0.07,0.675,0.213,0.868c0.141,0.192,0.351,0.289,0.629,0.289
	c0.226,0,0.46-0.069,0.7-0.206c0.239-0.139,0.471-0.339,0.692-0.604v0.716h1.206v-6.482H8.904V21.529z M13.575,16.526L13.575,16.526
	c-0.188,0-0.371,0.052-0.555,0.155c-0.182,0.103-0.355,0.253-0.518,0.45v-2.828h-1.216v8.787h1.216v-0.497
	c0.158,0.196,0.33,0.343,0.514,0.437c0.186,0.095,0.395,0.143,0.631,0.143c0.359,0,0.631-0.122,0.82-0.366
	c0.188-0.245,0.281-0.598,0.281-1.059v-3.596c0-0.53-0.1-0.933-0.301-1.211C14.247,16.665,13.956,16.526,13.575,16.526
	 M13.508,21.571L13.508,21.571c0,0.207-0.035,0.356-0.104,0.447c-0.07,0.091-0.178,0.137-0.326,0.137
	c-0.102,0-0.197-0.023-0.291-0.07c-0.092-0.047-0.186-0.123-0.285-0.228v-4.04c0.082-0.089,0.164-0.154,0.248-0.197
	c0.084-0.042,0.17-0.063,0.256-0.063c0.164,0,0.287,0.057,0.373,0.17s0.129,0.279,0.129,0.499V21.571z M19.204,20L19.204,20v-1.649
	c0-0.615-0.148-1.086-0.443-1.414c-0.295-0.329-0.721-0.492-1.271-0.492c-0.539,0-0.979,0.177-1.318,0.53
	c-0.342,0.354-0.512,0.813-0.512,1.376v2.91c0,0.624,0.154,1.113,0.465,1.471c0.311,0.355,0.734,0.534,1.273,0.534
	c0.602,0,1.051-0.167,1.354-0.504s0.453-0.837,0.453-1.501v-0.487h-1.24v0.45c0,0.382-0.039,0.628-0.119,0.739
	c-0.078,0.111-0.221,0.167-0.42,0.167c-0.191,0-0.326-0.064-0.406-0.197c-0.08-0.131-0.119-0.368-0.119-0.709V20H19.204z
	 M16.899,18.338L16.899,18.338c0-0.271,0.043-0.466,0.125-0.583c0.084-0.117,0.221-0.177,0.414-0.177c0.182,0,0.316,0.06,0.4,0.177
	s0.125,0.313,0.125,0.583v0.657h-1.064V18.338z"/> 
    </symbol></svg>