<svg xmlns="http://www.w3.org/2000/svg" xmlns:xlink="http://www.w3.org/1999/xlink" width="143" height="114" viewBox="0 0 143 114">
    <defs>
        <path id="a" d="M0 .766h142.321V114H.001z"/>
    </defs>
    <g fill="none" fill-rule="evenodd">
        <path fill="#FFF" d="M46.964 43.16l-6.792-.031L46.91 32.88v-2.664l-11.494-.166v3.715l6.128.072-6.8 10.296v2.688l12.22.023zM107.777 40.34l.247-1.093a47.137 47.137 0 0 0 .409-1.818l.134-.655.13-.656.128-.641.128-.63.124-.615h.09a106.524 106.524 0 0 1 .415 1.881c.046.219.09.44.136.664a219.645 219.645 0 0 0 .278 1.293c.046.207.09.41.136.61.046.2.09.394.136.585l.254 1.095-2.745-.02zm-.94-9.256l-4.57 15.86 4.059.008.734-3.374 4.167.019.729 3.365 4.134.007-4.494-15.816-4.758-.07zM98.112 42.693c-.097.22-.243.403-.437.55a2.002 2.002 0 0 1-.731.328 4.207 4.207 0 0 1-1.023.107l-1.64-.007v-3.4l1.64.011c.199.001.385.011.558.027.173.017.333.041.479.073.147.032.28.072.4.12.12.046.229.101.323.163a1.182 1.182 0 0 1 .433.501c.048.105.084.22.108.346.024.126.036.263.036.41 0 .294-.05.551-.146.771zm-3.83-8.533l1.36.017c.165.002.318.01.46.025.14.015.272.036.392.064.12.03.229.063.328.104.099.041.186.088.264.142a.987.987 0 0 1 .354.427c.039.088.068.185.087.29a2.096 2.096 0 0 1 0 .692 1.56 1.56 0 0 1-.087.314 1.372 1.372 0 0 1-.618.702 1.706 1.706 0 0 1-.328.135c-.12.036-.251.062-.392.08a3.334 3.334 0 0 1-.46.023l-1.36-.013V34.16zm7.682 6.66a3.224 3.224 0 0 0-.234-.58 2.681 2.681 0 0 0-.327-.49 3.94 3.94 0 0 0-1.318-1.047 4.154 4.154 0 0 0-.524-.212v-.097a1.856 1.856 0 0 0 .414-.219 2.56 2.56 0 0 0 .539-.502 3.104 3.104 0 0 0 .296-.42c.045-.074.087-.15.127-.23a4.483 4.483 0 0 0 .308-.748 5.592 5.592 0 0 0 .135-.523 4.014 4.014 0 0 0 .072-.517 5.345 5.345 0 0 0-.019-.821 4.411 4.411 0 0 0-.084-.514 3.525 3.525 0 0 0-.141-.463 2.744 2.744 0 0 0-.197-.412 3.589 3.589 0 0 0-.534-.7 3.288 3.288 0 0 0-.691-.532 4.202 4.202 0 0 0-.4-.213 5.767 5.767 0 0 0-.905-.324 7.292 7.292 0 0 0-.507-.115 10.88 10.88 0 0 0-1.081-.155 14.457 14.457 0 0 0-1.157-.063l-5.498-.08v16.08l5.968.01a10.053 10.053 0 0 0 1.749-.154c.188-.033.372-.072.554-.116a6.1 6.1 0 0 0 1.02-.342 4.86 4.86 0 0 0 .875-.5 4.35 4.35 0 0 0 .718-.654 4.21 4.21 0 0 0 .763-1.28c.059-.163.108-.333.148-.509.039-.176.069-.36.089-.55a5.963 5.963 0 0 0-.018-1.343 4.146 4.146 0 0 0-.14-.666zM97.278 51.228l-7.414.012v2.665l7.414-.027zM92.199 64.887l.253-1.112c.047-.193.093-.39.14-.592l.139-.615c.046-.21.093-.423.139-.641.046-.218.093-.44.139-.666l.133-.666.132-.653.13-.64.128-.625h.092a55.715 55.715 0 0 1 .286 1.245l.14.65.139.669a63.357 63.357 0 0 0 .281 1.304l.142.615.14.589.261 1.103-2.814.035zm-.971-9.353l-4.677 16.149 4.16-.073.753-3.421 4.271-.064.747 3.383 4.238-.075-4.615-15.923-4.877.024zM87.19 46.917V30.799l-4.09-.06v16.17zM88.898 26.52l-7.513-.134v2.683l7.513.119zM86.192 65.293a3.989 3.989 0 0 0-.245-.647 3.562 3.562 0 0 0-.342-.57 4.495 4.495 0 0 0-.952-.939 5.18 5.18 0 0 0-.603-.378 6.429 6.429 0 0 0-.684-.318l-1.887-.758a22.162 22.162 0 0 1-1.351-.558 10.001 10.001 0 0 1-.334-.16 1.461 1.461 0 0 1-.266-.17 1.01 1.01 0 0 1-.19-.202.861.861 0 0 1-.156-.51c0-.092.01-.177.028-.257a.836.836 0 0 1 .216-.412 1.081 1.081 0 0 1 .423-.278c.086-.034.178-.063.28-.086.1-.023.206-.041.32-.053a4.558 4.558 0 0 1 1.191.048 3.566 3.566 0 0 1 .758.216c.122.048.245.102.37.162a7.252 7.252 0 0 1 1.145.7l2.05-2.7a6.703 6.703 0 0 0-1.776-1.333 6.515 6.515 0 0 0-.667-.294 7.748 7.748 0 0 0-2.039-.477 7.862 7.862 0 0 0-1.292-.001 7.152 7.152 0 0 0-1.169.204 6.071 6.071 0 0 0-1.983.942c-.14.103-.274.213-.402.328a4.996 4.996 0 0 0-.968 1.166 5.304 5.304 0 0 0-.429.909 4.54 4.54 0 0 0-.249 1.504 5.448 5.448 0 0 0 .066.836 4.08 4.08 0 0 0 .195.76 4.372 4.372 0 0 0 .48.997c.065.1.133.198.204.29a4.786 4.786 0 0 0 .731.748c.09.075.184.145.282.21a5.7 5.7 0 0 0 1.201.65l1.947.828.244.094c.08.03.155.06.228.089l.214.084.2.079a8.184 8.184 0 0 1 .352.162 3.302 3.302 0 0 1 .301.17 1.676 1.676 0 0 1 .341.268.659.659 0 0 1 .142.199.89.89 0 0 1 .083.392c0 .092-.009.178-.027.259a.962.962 0 0 1-.212.426 1.182 1.182 0 0 1-.18.17 1.25 1.25 0 0 1-.245.133 1.822 1.822 0 0 1-.305.097 3.035 3.035 0 0 1-.368.06 4.706 4.706 0 0 1-.432.026 3.9 3.9 0 0 1-.891-.095 4.782 4.782 0 0 1-.944-.317 7.314 7.314 0 0 1-1.391-.777 7.51 7.51 0 0 1-.43-.327l-2.358 2.982a8.262 8.262 0 0 0 1.353 1.02 7.45 7.45 0 0 0 1.505.693 9.44 9.44 0 0 0 1.549.397 8.242 8.242 0 0 0 2.22.074c.23-.021.45-.052.665-.091a6.569 6.569 0 0 0 1.203-.335c.186-.075.365-.155.538-.241.172-.086.337-.177.495-.274a5.728 5.728 0 0 0 .866-.651c.128-.121.25-.246.361-.374a4.763 4.763 0 0 0 .808-1.295 5.264 5.264 0 0 0 .307-.968 4.894 4.894 0 0 0 .102-.998c0-.281-.016-.55-.049-.803a4.998 4.998 0 0 0-.148-.725M80.784 43.316l-5.907-.027V30.621l-4.17-.06v16.325l10.077.02zM68.074 72.009l4.186-.074V55.629l-4.186.02zM63.349 46.873l4.217.008V30.515l-4.217-.06zM60.977 62.873a61.264 61.264 0 0 0-.302 1.306c-.047.216-.094.432-.139.647l-.135.645a45.934 45.934 0 0 1-.436 1.959c-.054.22-.11.444-.168.668H59.7a44.202 44.202 0 0 1-.467-1.969c-.045-.214-.088-.43-.128-.642a38.529 38.529 0 0 0-.274-1.287 55.26 55.26 0 0 0-.155-.65 32.858 32.858 0 0 0-.167-.651l-1.684-7.194-4.538.022 4.788 16.476 5.143-.091 4.707-16.457-4.318.02-1.629 7.198zM53.246 46.636a8.23 8.23 0 0 0 1.445.393 8.407 8.407 0 0 0 1.508.133c.261 0 .518-.012.77-.037.252-.025.5-.062.742-.112a6.91 6.91 0 0 0 2.056-.794 6.796 6.796 0 0 0 1.195-.907c.186-.177.365-.366.538-.568l-2.227-2.746a4.508 4.508 0 0 1-.573.538 6.064 6.064 0 0 1-.673.457 2.95 2.95 0 0 1-.787.312 3.54 3.54 0 0 1-.889.1 3.573 3.573 0 0 1-.745-.081 2.973 2.973 0 0 1-.67-.235 2.965 2.965 0 0 1-.595-.391 3.541 3.541 0 0 1-.52-.548 3.816 3.816 0 0 1-.42-.695 4.981 4.981 0 0 1-.3-.831c-.08-.3-.14-.623-.18-.968a9.403 9.403 0 0 1-.043-1.652c.013-.177.031-.35.055-.516a6.112 6.112 0 0 1 .214-.946c.047-.148.1-.29.155-.427a4.687 4.687 0 0 1 .386-.746 4.043 4.043 0 0 1 .486-.605c.088-.09.178-.172.272-.25a3.126 3.126 0 0 1 .601-.391 3.027 3.027 0 0 1 .654-.24 3.07 3.07 0 0 1 .343-.057c.116-.012.233-.017.352-.016.138.002.272.01.402.026a2.994 2.994 0 0 1 .725.176c.113.043.222.094.326.152a5.98 5.98 0 0 1 .931.63c.101.083.2.169.297.259l2.228-2.756a6.974 6.974 0 0 0-.457-.434 7.877 7.877 0 0 0-1.065-.78 10.04 10.04 0 0 0-.608-.343 5.523 5.523 0 0 0-1.347-.507 6.73 6.73 0 0 0-.743-.131 8.018 8.018 0 0 0-1.549-.026 7.405 7.405 0 0 0-2.19.517 6.968 6.968 0 0 0-1.33.693 7.22 7.22 0 0 0-.604.45 8.037 8.037 0 0 0-.566.516 7.818 7.818 0 0 0-1.391 1.935 9.501 9.501 0 0 0-.357.775 7.932 7.932 0 0 0-.285.838 9.129 9.129 0 0 0-.203.898c-.054.309-.095.628-.122.957a13.176 13.176 0 0 0-.002 2.044c.027.33.066.652.118.962.053.31.12.609.198.897a9.084 9.084 0 0 0 .617 1.598 7.694 7.694 0 0 0 .85 1.327c.16.199.328.386.506.564a6.794 6.794 0 0 0 2.471 1.589M34.54 59.535l4.406-.034v13.022l4.376-.077v-12.98l4.348-.033V55.75l-13.13.065zM28.01 72.715l4.45-.078v-16.81l-4.45.021zM28.01 46.81l4.45.007v-16.81l-4.45-.065z"/>
        <g transform="translate(0 -.766)">
            <mask id="b" fill="#fff">
                <use xlink:href="#a"/>
            </mask>
            <path fill="#FFF" d="M138.663 84.075c0 1.551-.3 3.037-.845 4.394a11.667 11.667 0 0 1-2.306 3.63 11.147 11.147 0 0 1-3.428 2.495c-1.293.603-2.716.95-4.21.984L43.141 97.44l-9.34 10.468-9.438-10.055-20.083.442V16.7a11.666 11.666 0 0 1 3.651-8.495 12 12 0 0 1 3.94-2.492 12.293 12.293 0 0 1 4.796-.816l111.196 3.204c1.497.043 2.922.402 4.216 1.011a11.213 11.213 0 0 1 3.431 2.52 11.747 11.747 0 0 1 2.307 3.649c.544 1.36.845 2.85.845 4.404v64.389zm2.53-70.207a15.81 15.81 0 0 0-3.085-4.889 15.102 15.102 0 0 0-4.592-3.383 14.202 14.202 0 0 0-5.652-1.37L16.668.773a16.537 16.537 0 0 0-6.444 1.08 16.112 16.112 0 0 0-5.303 3.338 15.74 15.74 0 0 0-3.598 5.09A15.649 15.649 0 0 0 0 16.607v85.946l22.512-.547 11.29 11.996 11.15-12.54 82.912-2a14.12 14.12 0 0 0 5.652-1.332 14.947 14.947 0 0 0 4.592-3.355 15.678 15.678 0 0 0 3.084-4.868 15.868 15.868 0 0 0 1.13-5.889v-64.25c0-2.08-.404-4.074-1.13-5.899z" mask="url(#b)"/>
        </g>
    </g>
</svg>
