<svg xmlns="http://www.w3.org/2000/svg" xmlns:xlink="http://www.w3.org/1999/xlink" width="172" height="114" viewBox="0 0 172 114">
    <defs>
        <path id="a" d="M0 .11h171.04V114H0z"/>
    </defs>
    <g fill="none" fill-rule="evenodd">
        <path fill="#FFF" d="M43.364 73.002l4.433-.078v-16.76l-4.433.022zM140.855 37.685a1.581 1.581 0 0 1-.434.642c-.192.17-.434.297-.724.38-.29.085-.629.125-1.017.122l-1.384-.012V34.96l1.384.016c.192.003.371.013.538.03.168.019.324.046.469.08.144.034.277.076.398.126s.231.108.329.174c.098.066.184.144.257.235.074.09.134.194.183.31.048.116.085.245.109.387a2.8 2.8 0 0 1 .036.466c0 .343-.048.643-.144.9m2.05 3.28a4.499 4.499 0 0 0 .849-.857c.124-.162.239-.335.344-.517.104-.182.195-.376.274-.583.078-.206.144-.424.196-.655.053-.23.093-.473.12-.728a7.885 7.885 0 0 0 .01-1.502 6.37 6.37 0 0 0-.089-.638 4.83 4.83 0 0 0-.147-.578 4.075 4.075 0 0 0-.204-.518 4.884 4.884 0 0 0-.253-.464 4.278 4.278 0 0 0-.292-.415 3.737 3.737 0 0 0-.707-.68 4.714 4.714 0 0 0-1.327-.691 8.58 8.58 0 0 0-1.594-.344 10.804 10.804 0 0 0-1.131-.076l-5.513-.08v15.688l3.855.006v-5.25l1.481.009 2.486 5.249 4.26.008-3.124-6.046a4.41 4.41 0 0 0 .506-.338M133.254 62.155l-.097.33-.096.337-.095.343c-.03.116-.063.233-.093.35l-.09.348-.094.351-.097.353c-.032.117-.066.235-.1.353l-.09.001a46.167 46.167 0 0 1-.196-.7l-.094-.35-.09-.346a83.76 83.76 0 0 0-.094-.348c-.03-.115-.064-.229-.095-.342l-.097-.335-.098-.328-2.223-6.413-4.175.021v15.782l3.497-.062v-4.649a16.23 16.23 0 0 0-.03-.973c-.008-.115-.016-.233-.026-.352l-.028-.369-.03-.37-.034-.375-.03-.377-.038-.38-.038-.375a20.87 20.87 0 0 0-.039-.369 21.533 21.533 0 0 0-.087-.718 27.884 27.884 0 0 1-.042-.335l-.039-.319-.037-.302h.09L129.513 65l1.808 5.175 2.071-.034 1.798-5.21 1.21-3.77h.09l-.033.3-.038.318-.04.333-.043.35a22.713 22.713 0 0 0-.086.733 37.782 37.782 0 0 0-.075.752l-.03.375-.03.373a568.368 568.368 0 0 1-.06.736l-.024.351-.018.338a12.31 12.31 0 0 0-.016.63v4.623l3.486-.062V55.71l-4.116.021-2.113 6.425zM124.098 40.716l.247-1.093a74.851 74.851 0 0 0 .403-1.813c.044-.213.088-.43.13-.65l.135-.65.13-.639.129-.628.124-.615.09.001.137.607.136.624c.046.211.09.425.138.642l.14.66.135.658.135.631c.046.206.09.41.136.607l.135.583.254 1.094-2.734-.019zm4.167 6.601l4.114.007-4.483-15.765-4.737-.069-4.55 15.81 4.047.007.734-3.363 4.146.018.729 3.355zM116.764 65.352l4.885-.061V61.79l-4.885.048v-2.502l5.71-.044v-3.498l-9.702.048v15.94l9.926-.175v-3.498l-5.934.088zM112.193 38.89l-1.444-.012v-4.23l1.352.015c.193.003.375.015.547.035.17.021.332.05.482.089.149.039.288.087.416.144a2 2 0 0 1 .347.195c.105.076.196.165.275.267.078.101.143.216.195.343.053.128.092.268.118.422a3.503 3.503 0 0 1 .004 1.007 2.541 2.541 0 0 1-.108.445 1.983 1.983 0 0 1-.178.384 1.643 1.643 0 0 1-.573.577 1.965 1.965 0 0 1-.402.181 2.691 2.691 0 0 1-.477.106 3.89 3.89 0 0 1-.554.032m1.349 3.265a7.95 7.95 0 0 0 1.112-.244 6.213 6.213 0 0 0 1.027-.411 5.368 5.368 0 0 0 .9-.582 4.723 4.723 0 0 0 1.323-1.707c.083-.175.156-.359.218-.55.062-.193.114-.393.155-.603.042-.209.073-.426.094-.652.02-.227.03-.462.03-.706 0-.249-.01-.488-.03-.716a6.275 6.275 0 0 0-.094-.658 5.09 5.09 0 0 0-.155-.599 4.197 4.197 0 0 0-.218-.54 4.635 4.635 0 0 0-.93-1.315 4.515 4.515 0 0 0-.83-.635 5.032 5.032 0 0 0-.975-.456 5.942 5.942 0 0 0-.54-.158 9.943 9.943 0 0 0-1.14-.207 11.093 11.093 0 0 0-1.205-.083l-5.566-.08v16.025l4.03.008v-5.063l1.63.01a8.185 8.185 0 0 0 1.164-.078M105.736 71.905l4.029-.07V55.856l-4.03.02zM103.733 55.886l-4.452.022-3.915 6.04h-.094v-6.02l-4.122.02v16.213l4.122-.072v-4.022l1.48-2.213 3.427 6.148 4.446-.078-5.49-9.469zM92.685 47.408a8.408 8.408 0 0 0 2.22.117 7.257 7.257 0 0 0 1.292-.209 6.148 6.148 0 0 0 2.068-.977c.144-.105.28-.218.408-.336a4.616 4.616 0 0 0 .95-1.184 4.844 4.844 0 0 0 .625-2.415c0-.28-.016-.546-.048-.801a5.21 5.21 0 0 0-.145-.727 4.115 4.115 0 0 0-.244-.651 3.639 3.639 0 0 0-.34-.577 4.683 4.683 0 0 0-.951-.952 5.36 5.36 0 0 0-.602-.392 6.61 6.61 0 0 0-.685-.337l-1.893-.788a24.664 24.664 0 0 1-.956-.403 17.772 17.772 0 0 1-.725-.348 1.445 1.445 0 0 1-.27-.175.974.974 0 0 1-.192-.206.863.863 0 0 1-.15-.505c0-.092.008-.178.027-.259a.83.83 0 0 1 .216-.411.972.972 0 0 1 .188-.15c.071-.044.15-.084.235-.117.085-.032.178-.061.277-.084.1-.022.207-.038.321-.05a3.878 3.878 0 0 1 .786.012c.138.014.273.035.405.064a4.1 4.1 0 0 1 .76.235 6.355 6.355 0 0 1 .747.372c.127.072.255.151.384.237.128.086.258.178.39.275l2.037-2.655a7.188 7.188 0 0 0-1.14-.98 6.602 6.602 0 0 0-1.293-.689 8.257 8.257 0 0 0-1.366-.411 7.268 7.268 0 0 0-1.966-.133 6.492 6.492 0 0 0-1.172.178 5.669 5.669 0 0 0-.546.168 6.991 6.991 0 0 0-.514.212 5.523 5.523 0 0 0-.92.53 5.239 5.239 0 0 0-.77.672 4.634 4.634 0 0 0-.604.788 4.949 4.949 0 0 0-.237.437 4.46 4.46 0 0 0-.328.947 4.809 4.809 0 0 0-.09 1.439 4.846 4.846 0 0 0 .123.802c.032.127.07.252.113.373a4.423 4.423 0 0 0 .482 1 4.67 4.67 0 0 0 .674.823 4.5 4.5 0 0 0 .546.45 5.633 5.633 0 0 0 1.196.674l1.945.857a16.953 16.953 0 0 1 .473.197l.215.091c.068.03.135.057.2.085a4.697 4.697 0 0 1 .655.335 1.58 1.58 0 0 1 .342.28.902.902 0 0 1 .142.206.749.749 0 0 1 .074.245 1.199 1.199 0 0 1-.017.401.95.95 0 0 1-.395.588c-.069.05-.149.093-.24.13a1.925 1.925 0 0 1-.307.09 2.954 2.954 0 0 1-.37.053 4.571 4.571 0 0 1-.436.017c-.142 0-.287-.01-.435-.029a4.605 4.605 0 0 1-.916-.223 7.315 7.315 0 0 1-1.421-.699 7.779 7.779 0 0 1-.878-.638l-2.364 2.941a8.633 8.633 0 0 0 1.355 1.044 7.944 7.944 0 0 0 1.503.727 9.674 9.674 0 0 0 1.552.419M79.464 54.338l7.695-.028v-2.704l-7.695.012zM82.204 65.785l5.156-.064v-3.596l-5.156.05v-2.57l6.019-.047v-3.594l-10.234.05v16.38l10.478-.186v-3.592l-6.263.093zM86.557 43.634l-6.29-.03v-2.917l5.172.035v-3.61l-5.172-.051v-2.564l6.046.07v-3.608l-10.265-.15v16.414l10.51.019zM70.854 63.243l-.157.657c-.051.22-.102.438-.15.656a54.3 54.3 0 0 0-.275 1.296c-.044.213-.09.428-.137.644-.048.216-.096.434-.147.653a45.01 45.01 0 0 1-.324 1.333l-.099.002a50.13 50.13 0 0 1-.471-1.974c-.046-.216-.089-.43-.13-.642-.042-.214-.087-.428-.132-.644a50.204 50.204 0 0 0-.301-1.3c-.053-.218-.11-.436-.168-.655l-1.699-7.199-4.562.023 4.814 16.495 5.18-.091 4.741-16.477-4.348.021-1.635 7.202zM65.592 34.115l1.45.017c.209.003.406.015.59.036.185.022.357.052.517.093.16.04.308.089.443.148.136.059.26.126.373.203a1.429 1.429 0 0 1 .504.632 2 2 0 0 1 .126.436 3.342 3.342 0 0 1 .003 1.044 2.569 2.569 0 0 1-.115.46 1.854 1.854 0 0 1-.456.728c-.103.103-.22.19-.35.267-.13.076-.273.138-.431.187-.157.05-.327.087-.512.11a4.437 4.437 0 0 1-.593.034l-1.55-.014v-4.381zm0 7.846l1.747.01a8.948 8.948 0 0 0 1.851-.186c.199-.042.395-.091.59-.147a6.753 6.753 0 0 0 1.102-.424 6.075 6.075 0 0 0 .964-.603 4.868 4.868 0 0 0 1.139-1.254c.104-.163.2-.334.289-.513a4.89 4.89 0 0 0 .229-.571c.065-.2.12-.406.164-.623.044-.216.077-.442.099-.676.023-.234.034-.478.034-.731 0-.257-.011-.504-.034-.741a6.332 6.332 0 0 0-.1-.681 5.415 5.415 0 0 0-.163-.621 4.507 4.507 0 0 0-.518-1.064 4.768 4.768 0 0 0-.713-.856 4.244 4.244 0 0 0-.426-.353 5.404 5.404 0 0 0-1.506-.78 6.264 6.264 0 0 0-.578-.162 12.113 12.113 0 0 0-2.522-.302l-5.972-.086v16.599l4.324.008V41.96zM55.497 56.126l-4.382.021v16.72l10.606-.188v-3.668l-6.224.092zM55.323 26.049l-8.09-.144v2.788l8.09.127zM52.965 47.358a6.91 6.91 0 0 0 1.393-.381c.426-.17.815-.382 1.167-.636.351-.254.665-.551.941-.89.275-.337.515-.722.72-1.154a8.05 8.05 0 0 0 .514-1.435c.137-.525.24-1.096.307-1.714a18.05 18.05 0 0 0 .104-1.996V30.55l-4.219-.061v9.137c0 .372-.012.717-.038 1.035a7.744 7.744 0 0 1-.116.869 4.358 4.358 0 0 1-.194.703 2.471 2.471 0 0 1-.276.534 2.058 2.058 0 0 1-.353.399 1.91 1.91 0 0 1-.439.284c-.16.076-.335.133-.523.17a3.084 3.084 0 0 1-.608.054 3.098 3.098 0 0 1-.612-.06 2.224 2.224 0 0 1-.522-.174 1.887 1.887 0 0 1-.776-.693 2.498 2.498 0 0 1-.266-.538 4.529 4.529 0 0 1-.187-.708 8.132 8.132 0 0 1-.112-.874 13.918 13.918 0 0 1-.036-1.04v-9.171l-4.436-.064v8.69c0 .72.036 1.392.107 2.018.071.626.178 1.204.321 1.735.143.532.323 1.017.538 1.454.215.437.467.827.754 1.17.286.342.61.643.97.9.36.258.758.473 1.194.644.436.172.91.302 1.42.389a9.9 9.9 0 0 0 1.643.13 9.72 9.72 0 0 0 1.62-.125M37.133 36.686a1.72 1.72 0 0 1-.509.695 2.262 2.262 0 0 1-.85.413c-.342.09-.74.134-1.196.13l-1.628-.014v-4.181l1.628.019c.224.003.434.014.631.034.195.02.378.049.547.086.168.037.323.083.464.137.142.055.27.118.386.189.115.072.216.157.304.255.087.098.16.21.218.336.058.126.102.266.131.42.03.154.044.322.044.504 0 .373-.057.698-.17.977m2.41 3.557a5.04 5.04 0 0 0 1.392-1.49c.124-.196.232-.406.324-.63.093-.223.17-.46.231-.71.062-.25.108-.512.138-.79.031-.275.046-.565.046-.868a8.01 8.01 0 0 0-.034-.758 6.307 6.307 0 0 0-.1-.693 4.973 4.973 0 0 0-.17-.626 4.123 4.123 0 0 0-.238-.562 5.14 5.14 0 0 0-.297-.502 4.685 4.685 0 0 0-.344-.45 4.19 4.19 0 0 0-.83-.74 5.472 5.472 0 0 0-.999-.544 6.858 6.858 0 0 0-1.162-.364 11.175 11.175 0 0 0-1.929-.274 13.48 13.48 0 0 0-.672-.026l-6.49-.094v17.014l4.541.008v-5.692l1.731.01 2.932 5.69 4.995.01-3.66-6.554c.208-.11.407-.232.594-.365M38.791 68.387a5.123 5.123 0 0 1-.659.522 5.886 5.886 0 0 1-.368.232 3.365 3.365 0 0 1-1.288.423c-.156.02-.317.031-.482.034a3.667 3.667 0 0 1-.782-.069 3.097 3.097 0 0 1-1.333-.62 3.65 3.65 0 0 1-.55-.548 3.843 3.843 0 0 1-.441-.704 4.772 4.772 0 0 1-.317-.846 6.691 6.691 0 0 1-.192-.987 9.623 9.623 0 0 1-.044-1.69 6.765 6.765 0 0 1 .153-1.031 5.403 5.403 0 0 1 .704-1.691 4.18 4.18 0 0 1 .794-.889 3.204 3.204 0 0 1 2.064-.767 3.82 3.82 0 0 1 .813.084 2.966 2.966 0 0 1 .713.26 7.235 7.235 0 0 1 .656.394 7.391 7.391 0 0 1 .641.484l2.334-2.867a7.574 7.574 0 0 0-1.009-.842 9.422 9.422 0 0 0-1.222-.715 6.335 6.335 0 0 0-2.204-.611 8.231 8.231 0 0 0-2.418.121 8.449 8.449 0 0 0-1.517.456c-.249.103-.49.216-.725.339a7.887 7.887 0 0 0-1.321.876 7.93 7.93 0 0 0-.593.541 7.485 7.485 0 0 0-1.036 1.271 8.975 8.975 0 0 0-.802 1.54 8.333 8.333 0 0 0-.3.862 9.075 9.075 0 0 0-.215.923c-.057.319-.1.647-.129.986a13.307 13.307 0 0 0-.002 2.099c.028.339.069.667.124.984.055.316.123.621.205.915a8.447 8.447 0 0 0 1.066 2.336c.15.224.309.437.478.638a7.165 7.165 0 0 0 2.418 1.853c.233.108.472.205.719.29a8.666 8.666 0 0 0 1.525.375 9.226 9.226 0 0 0 2.397.052 7.675 7.675 0 0 0 1.539-.34c.247-.083.488-.179.725-.288a6.766 6.766 0 0 0 1.338-.8c.209-.159.411-.332.607-.517a8.21 8.21 0 0 0 .566-.594l-2.341-2.768c-.092.102-.188.2-.289.294"/>
        <g transform="translate(0 -.109)">
            <mask id="b" fill="#fff">
                <use xlink:href="#a"/>
            </mask>
            <path fill="#FFF" d="M167.438 83.474c0 1.536-.295 3.006-.829 4.349a11.527 11.527 0 0 1-2.265 3.589 10.904 10.904 0 0 1-3.367 2.468 10.277 10.277 0 0 1-4.14.97L43.751 97.33l-9.468 10.527-9.566-10.11-20.372.447V16.14c0-1.686.355-3.285.995-4.73a11.824 11.824 0 0 1 2.709-3.812 12.195 12.195 0 0 1 3.997-2.503 12.553 12.553 0 0 1 4.864-.818l139.927 4.017c1.471.042 2.869.396 4.14.999a11.008 11.008 0 0 1 3.367 2.49 11.613 11.613 0 0 1 2.265 3.606c.534 1.346.829 2.818.829 4.354v63.73zm2.493-69.488a15.677 15.677 0 0 0-3.03-4.84 14.823 14.823 0 0 0-4.511-3.35 13.816 13.816 0 0 0-5.553-1.354L16.91.119a16.878 16.878 0 0 0-6.541 1.084 16.355 16.355 0 0 0-5.381 3.355A15.864 15.864 0 0 0 1.341 9.68 15.644 15.644 0 0 0 0 16.045v86.442l22.834-.552L34.283 114l11.309-12.615 111.245-2.68a13.783 13.783 0 0 0 5.553-1.317 14.697 14.697 0 0 0 4.511-3.32 15.525 15.525 0 0 0 3.03-4.82 15.793 15.793 0 0 0 1.109-5.83V19.824c0-2.06-.395-4.033-1.109-5.838z" mask="url(#b)"/>
        </g>
    </g>
</svg>
