<svg xmlns="http://www.w3.org/2000/svg" xmlns:xlink="http://www.w3.org/1999/xlink" width="173" height="90" viewBox="0 0 173 90">
    <defs>
        <path id="a" d="M0 .842h172.498V91H0z"/>
    </defs>
    <g fill="none" fill-rule="evenodd">
        <path fill="#FFF" d="M67.403 39.056a8.774 8.774 0 0 1-.061.625 6.246 6.246 0 0 1-.102.56c-.04.177-.087.343-.141.499-.052.156-.11.303-.172.442-.063.139-.131.27-.204.392a3.215 3.215 0 0 1-.498.636 3.377 3.377 0 0 1-.617.45 3.33 3.33 0 0 1-.719.299 5.766 5.766 0 0 1-1.213.213 6.15 6.15 0 0 1-.433.016l-.245.002v-9.473h.245a7.68 7.68 0 0 1 .85.049c.137.017.272.037.404.06.133.026.263.054.392.086a3.093 3.093 0 0 1 .719.268 2.929 2.929 0 0 1 .617.43c.092.084.18.175.263.276.083.1.162.21.235.328.073.118.14.245.204.38.062.134.12.278.172.429.054.15.1.313.14.486.042.173.076.357.103.552.027.195.047.402.06.619a11.544 11.544 0 0 1 0 1.376m4.223-2.702a9.144 9.144 0 0 0-.187-.885 7.332 7.332 0 0 0-.264-.807 7.912 7.912 0 0 0-.332-.733 6.684 6.684 0 0 0-.846-1.263 5.987 5.987 0 0 0-1.087-.985 6.678 6.678 0 0 0-.627-.393 7.39 7.39 0 0 0-1.417-.597 10.989 10.989 0 0 0-1.605-.345 13.97 13.97 0 0 0-1.764-.119l-4.807-.021v16.51l5.05-.04c.293-.003.579-.016.859-.038a10.788 10.788 0 0 0 1.612-.257c.257-.063.508-.135.754-.217a6.8 6.8 0 0 0 1.99-1.028 6.248 6.248 0 0 0 1.517-1.626c.14-.214.268-.44.387-.677a7.929 7.929 0 0 0 .584-1.567c.073-.285.135-.583.184-.894.049-.31.086-.633.11-.97a14.03 14.03 0 0 0 0-2.085 11.264 11.264 0 0 0-.111-.963M48.254 39.86l.278-1.153a61.094 61.094 0 0 0 .304-1.248c.05-.217.101-.438.15-.663.05-.226.1-.456.147-.69l.146-.689.145-.674.142-.659.141-.64h.102l.152.634a118.864 118.864 0 0 1 .458 2.019c.05.234.101.464.152.69.051.226.101.448.152.665a61.521 61.521 0 0 0 .304 1.25l.277 1.15-3.05.008zM36.91 36.498c-.112.278-.28.51-.505.694a2.223 2.223 0 0 1-.843.418c-.338.093-.732.14-1.184.14l-1.62.002v-4.136l1.62.003c.22 0 .427.01.621.026.193.017.374.043.542.077.168.034.322.077.463.13.142.051.271.112.386.183a1.287 1.287 0 0 1 .517.577c.057.124.1.263.13.415.027.152.041.318.041.5 0 .37-.056.693-.168.971zm10.296-6.343L42.202 46.58l-3.486-6.206a5.22 5.22 0 0 0 1.113-.796 5.051 5.051 0 0 0 .858-1.06c.124-.197.233-.407.325-.63a4.81 4.81 0 0 0 .231-.708c.061-.25.107-.512.138-.787.031-.276.046-.564.046-.866 0-.26-.01-.51-.034-.75a6.176 6.176 0 0 0-.1-.686 4.892 4.892 0 0 0-.17-.618 3.928 3.928 0 0 0-.24-.552 4.59 4.59 0 0 0-.632-.942 4.246 4.246 0 0 0-.83-.726 5.32 5.32 0 0 0-.994-.532 6.625 6.625 0 0 0-1.15-.357 11.915 11.915 0 0 0-1.268-.195 13.868 13.868 0 0 0-1.319-.069l-6.442-.029v16.893l4.51-.037v-5.65l1.724-.006 2.907 5.618 4.73-.038.234-.002 4.287-.035.817-3.539 4.641-.026.81 3.514 4.593-.037-4.998-16.548-5.297-.023zM146.038 39.894a4.111 4.111 0 0 0-.226-.621 3.45 3.45 0 0 0-.315-.546 4.183 4.183 0 0 0-.401-.482 4.558 4.558 0 0 0-1.032-.796 5.616 5.616 0 0 0-.631-.313l-1.744-.733a26.337 26.337 0 0 1-.888-.376c-.13-.058-.25-.114-.362-.168a7.673 7.673 0 0 1-.305-.156 1.37 1.37 0 0 1-.248-.165.968.968 0 0 1-.18-.197.832.832 0 0 1-.106-.228.904.904 0 0 1-.037-.258c0-.09.009-.171.026-.25a.826.826 0 0 1 .202-.392.922.922 0 0 1 .174-.145c.067-.043.139-.081.219-.113.079-.032.165-.06.257-.081.092-.021.19-.037.296-.048a4.155 4.155 0 0 1 1.098.057 3.554 3.554 0 0 1 .703.215 5.131 5.131 0 0 1 .684.35 7.55 7.55 0 0 1 .713.48l1.889-2.564a7.027 7.027 0 0 0-.512-.497 5.975 5.975 0 0 0-1.124-.786 5.948 5.948 0 0 0-.611-.285 7.466 7.466 0 0 0-1.26-.381 6.506 6.506 0 0 0-.624-.097 6.455 6.455 0 0 0-1.197-.012 6.527 6.527 0 0 0-.551.069 5.951 5.951 0 0 0-1.51.485 5.321 5.321 0 0 0-.848.516 4.682 4.682 0 0 0-.707.65 4.747 4.747 0 0 0-.948 1.629 4.242 4.242 0 0 0-.204.937 5.537 5.537 0 0 0 .035 1.298 4.495 4.495 0 0 0 .804 1.963 5.405 5.405 0 0 0 .438.499 4.213 4.213 0 0 0 .498.427 6.478 6.478 0 0 0 .544.354 4.72 4.72 0 0 0 .568.276l1.792.808.227.09.212.087.197.085.182.08.169.078c.055.026.108.05.159.078l.147.079.134.083a2.411 2.411 0 0 1 .222.169 1.236 1.236 0 0 1 .162.183.788.788 0 0 1 .127.338 1.236 1.236 0 0 1-.016.386.967.967 0 0 1-.075.218.87.87 0 0 1-.123.188 1.071 1.071 0 0 1-.391.284 1.669 1.669 0 0 1-.282.09 2.65 2.65 0 0 1-.34.056 4.089 4.089 0 0 1-.398.02 3.35 3.35 0 0 1-.823-.1 4.173 4.173 0 0 1-.431-.127 5.301 5.301 0 0 1-.441-.18 7.244 7.244 0 0 1-.867-.476 7.074 7.074 0 0 1-.808-.607l-2.181 2.84a7.87 7.87 0 0 0 1.248.983 7.35 7.35 0 0 0 1.385.68 8.762 8.762 0 0 0 1.437.39c.236.044.47.076.702.097a7.646 7.646 0 0 0 1.958-.085c.199-.036.39-.08.575-.132a6.017 6.017 0 0 0 1.493-.659 5.036 5.036 0 0 0 .79-.613 4.912 4.912 0 0 0 .629-.742 4.744 4.744 0 0 0 .74-1.766 4.776 4.776 0 0 0 .095-.953c0-.27-.016-.526-.046-.77a4.885 4.885 0 0 0-.137-.695M126.933 36.914c-.035.107-.068.216-.102.326-.033.11-.065.221-.097.334l-.094.341-.092.346-.093.35-.094.35-.097.35c-.033.118-.067.234-.102.35h-.09l-.1-.349-.097-.35-.096-.35-.094-.35a13.488 13.488 0 0 0-.09-.346c-.03-.114-.061-.228-.094-.34a13.244 13.244 0 0 0-.1-.334 12.6 12.6 0 0 0-.102-.327l-2.223-6.425-4.198-.019v15.756l3.52-.028v-4.64a10.984 10.984 0 0 0-.016-.638 22.417 22.417 0 0 0-.018-.34l-.023-.356-.032-.364a554.744 554.744 0 0 1-.092-1.118l-.038-.38c-.013-.126-.025-.252-.04-.376a21.005 21.005 0 0 0-.088-.736l-.041-.352-.04-.334-.038-.315-.038-.298h.09l1.182 3.761 1.82 5.187 2.078-.015 1.809-5.188 1.218-3.744h.09l-.038.295c-.012.102-.025.207-.04.314-.012.107-.025.218-.04.331l-.046.35c-.014.12-.03.241-.042.363-.015.122-.028.245-.042.37l-.038.372-.033.378-.035.376c-.012.125-.022.248-.032.371l-.03.365c-.01.121-.018.242-.026.362-.01.12-.018.238-.026.353-.007.115-.013.23-.017.34a12.238 12.238 0 0 0-.014.633v4.614l3.5-.029V30.535l-4.128-.019-2.121 6.398zM112.189 39.118c0 .352-.012.678-.036.978-.025.301-.06.575-.109.824a4.254 4.254 0 0 1-.177.67 2.416 2.416 0 0 1-.25.511 1.986 1.986 0 0 1-.32.38c-.12.11-.254.2-.4.273a1.983 1.983 0 0 1-.476.166 2.683 2.683 0 0 1-.553.058 2.601 2.601 0 0 1-.55-.052 1.945 1.945 0 0 1-.472-.16 1.7 1.7 0 0 1-.395-.27 1.81 1.81 0 0 1-.313-.378 2.504 2.504 0 0 1-.24-.51 4.53 4.53 0 0 1-.17-.67 7.871 7.871 0 0 1-.104-.827 12.962 12.962 0 0 1-.035-.982v-8.708l-4.022-.017v8.245c0 .681.034 1.32.099 1.911.065.593.162 1.141.29 1.644.13.504.293.963.486 1.376.196.413.422.782.682 1.105.26.323.555.604.883.845a4.93 4.93 0 0 0 1.084.6c.395.16.824.277 1.285.354.463.077.96.113 1.492.11a8.412 8.412 0 0 0 1.475-.135 6.057 6.057 0 0 0 1.266-.373 4.82 4.82 0 0 0 1.059-.613c.317-.244.601-.528.85-.852a5.58 5.58 0 0 0 .653-1.105c.188-.412.343-.868.468-1.368.126-.5.219-1.044.28-1.632.064-.587.094-1.218.094-1.893v-8.165l-3.825-.016v8.676zM98.227 29.146l1.979-2.694-1.748-1.096-2.415 1.951h-.094l-2.425-1.992-1.766 1.073 2.008 2.734zM101.38 40.034a3.938 3.938 0 0 0-.243-.643 3.457 3.457 0 0 0-.341-.566 4.128 4.128 0 0 0-.428-.5 4.684 4.684 0 0 0-.513-.442 5.119 5.119 0 0 0-.597-.383 6.455 6.455 0 0 0-.68-.324l-1.872-.76a29.083 29.083 0 0 1-.948-.389 16.777 16.777 0 0 1-.723-.336 1.425 1.425 0 0 1-.265-.172 1 1 0 0 1-.19-.204.815.815 0 0 1-.112-.236.933.933 0 0 1-.037-.268c0-.09.009-.177.027-.257a.884.884 0 0 1 .217-.407c.054-.056.116-.106.187-.15.07-.046.15-.085.235-.118a2.064 2.064 0 0 1 .59-.134c.113-.01.23-.016.356-.016a4.321 4.321 0 0 1 1.21.169 4.108 4.108 0 0 1 .737.294c.122.061.246.127.37.198a8.4 8.4 0 0 1 .767.498l2.019-2.657a6.75 6.75 0 0 0-.545-.515 6.452 6.452 0 0 0-1.206-.815 6.322 6.322 0 0 0-.662-.295 8.06 8.06 0 0 0-1.353-.397 7.125 7.125 0 0 0-3.11.081 6.372 6.372 0 0 0-1.051.38 5.756 5.756 0 0 0-.912.535 5.27 5.27 0 0 0-.402.324 4.813 4.813 0 0 0-.683.732 4.982 4.982 0 0 0-.514.847 4.222 4.222 0 0 0-.32.937 4.5 4.5 0 0 0-.106 1.006c0 .146.005.288.015.427a4.75 4.75 0 0 0 .125.794c.03.126.069.25.112.371a5.348 5.348 0 0 0 .293.676 4.713 4.713 0 0 0 .385.6 4.777 4.777 0 0 0 1.294 1.153 5.727 5.727 0 0 0 .597.328c.102.048.205.092.308.132l1.926.837.239.093.226.091.213.088c.069.03.136.057.2.083a6.416 6.416 0 0 1 .503.244c.05.028.098.056.142.085a2.196 2.196 0 0 1 .247.176 1.203 1.203 0 0 1 .175.19.746.746 0 0 1 .129.35 1.248 1.248 0 0 1-.017.399.98.98 0 0 1-.078.227.862.862 0 0 1-.13.194 1.141 1.141 0 0 1-.419.295c-.09.037-.19.068-.302.093a2.87 2.87 0 0 1-.368.058c-.134.013-.278.02-.433.021a3.757 3.757 0 0 1-.88-.103 4.85 4.85 0 0 1-.463-.132 6.008 6.008 0 0 1-.478-.186 7.571 7.571 0 0 1-1.8-1.123L89.7 44.457a8.605 8.605 0 0 0 1.349 1.018 8.076 8.076 0 0 0 1.489.706c.259.09.517.168.774.236a9.32 9.32 0 0 0 1.515.266c.249.021.496.031.742.03.242-.003.476-.013.703-.033a7.272 7.272 0 0 0 1.28-.222c.2-.054.393-.117.58-.187a6.341 6.341 0 0 0 1.023-.497 5.312 5.312 0 0 0 .854-.635 4.984 4.984 0 0 0 .67-.769 4.698 4.698 0 0 0 .493-.88 5.11 5.11 0 0 0 .3-.95 4.856 4.856 0 0 0 .101-.988c0-.279-.016-.545-.048-.798a4.93 4.93 0 0 0-.145-.72M83.954 39.39a7.51 7.51 0 0 1-.153.935 5.494 5.494 0 0 1-.255.816 4.284 4.284 0 0 1-.357.7 3.153 3.153 0 0 1-.442.564 2.425 2.425 0 0 1-1.122.648 2.768 2.768 0 0 1-.681.084 2.741 2.741 0 0 1-.676-.077 2.353 2.353 0 0 1-1.126-.637 3.172 3.172 0 0 1-.45-.563 4.238 4.238 0 0 1-.354-.699 5.508 5.508 0 0 1-.255-.817 7.752 7.752 0 0 1-.153-.938 10.42 10.42 0 0 1-.051-1.058c0-.37.017-.72.05-1.049.035-.329.087-.638.154-.925.068-.287.153-.553.255-.798.1-.245.22-.468.355-.67.137-.202.286-.378.449-.529.163-.15.337-.277.525-.377.188-.1.388-.174.6-.224.214-.05.439-.074.677-.073.24 0 .468.025.68.075a2.451 2.451 0 0 1 1.123.603c.16.151.308.327.442.53.136.2.255.423.357.666.102.245.187.51.255.796.068.286.119.593.153.92.034.327.05.676.05 1.044 0 .371-.016.721-.05 1.053m4.153-2.934a9.987 9.987 0 0 0-.164-.853 8.49 8.49 0 0 0-.866-2.225 6.608 6.608 0 0 0-1.346-1.691 6.438 6.438 0 0 0-.55-.438 6.833 6.833 0 0 0-.602-.376 6.885 6.885 0 0 0-.653-.312 7.297 7.297 0 0 0-1.423-.413 8.17 8.17 0 0 0-.762-.106 9.281 9.281 0 0 0-1.604-.007 7.795 7.795 0 0 0-1.501.265c-.238.068-.47.146-.695.236a6.372 6.372 0 0 0-1.815 1.111 6.482 6.482 0 0 0-.51.5 6.615 6.615 0 0 0-.858 1.19 7.94 7.94 0 0 0-.351.688 9.14 9.14 0 0 0-.53 1.562c-.068.281-.125.57-.171.868-.045.3-.08.606-.103.923a13.512 13.512 0 0 0 .103 2.883c.046.3.103.591.17.874a9.25 9.25 0 0 0 .53 1.584c.109.244.226.478.352.701a7.168 7.168 0 0 0 .858 1.211 6.458 6.458 0 0 0 1.067.955 6.451 6.451 0 0 0 1.258.692 6.73 6.73 0 0 0 1.427.425c.25.047.506.081.769.102.263.022.532.032.807.03.272-.003.537-.017.797-.043a7.533 7.533 0 0 0 1.49-.301c.238-.075.469-.16.695-.26a6.483 6.483 0 0 0 1.255-.708 6.192 6.192 0 0 0 1.048-.962 6.73 6.73 0 0 0 .848-1.21c.124-.223.238-.456.344-.699a8.697 8.697 0 0 0 .522-1.573c.066-.279.12-.567.164-.865.043-.297.076-.602.098-.916a13.888 13.888 0 0 0-.098-2.842"/>
        <g transform="translate(0 -.842)">
            <mask id="b" fill="#fff">
                <use xlink:href="#a"/>
            </mask>
            <path fill="#FFF" d="M168.891 61.482a11.61 11.61 0 0 1-.82 4.305 11.346 11.346 0 0 1-2.243 3.544 10.766 10.766 0 0 1-3.334 2.424 10.106 10.106 0 0 1-4.096.936L43.46 74.466l-9.394 10.387-9.5-10.094-20.218.314V16.847c0-1.67.351-3.257.986-4.694a11.834 11.834 0 0 1 2.684-3.795 12.211 12.211 0 0 1 3.965-2.507 12.504 12.504 0 0 1 4.825-.843l141.59 3.152c1.454.032 2.838.374 4.096.964a10.831 10.831 0 0 1 3.334 2.445 11.437 11.437 0 0 1 2.242 3.556c.53 1.33.821 2.785.821 4.306v42.051zm2.505-47.782a15.435 15.435 0 0 0-3.009-4.785 14.635 14.635 0 0 0-4.479-3.298 13.68 13.68 0 0 0-5.51-1.309L16.808.848a16.85 16.85 0 0 0-6.5 1.12 16.402 16.402 0 0 0-5.349 3.368 15.899 15.899 0 0 0-3.626 5.112A15.587 15.587 0 0 0 0 16.778V79.35l22.68-.403L34.066 91l11.246-12.456 113.086-2.009a13.633 13.633 0 0 0 5.51-1.272 14.455 14.455 0 0 0 4.48-3.266 15.261 15.261 0 0 0 3.008-4.765 15.627 15.627 0 0 0 1.102-5.782V19.487a15.68 15.68 0 0 0-1.102-5.787z" mask="url(#b)"/>
        </g>
    </g>
</svg>
