<svg xmlns="http://www.w3.org/2000/svg" xmlns:xlink="http://www.w3.org/1999/xlink" width="172" height="114" viewBox="0 0 172 114">
    <defs>
        <path id="a" d="M0 .11h171.04V114H0z"/>
    </defs>
    <g fill="none" fill-rule="evenodd">
        <path fill="#FFF" d="M147.473 41.28a4.006 4.006 0 0 0-.23-.629 3.61 3.61 0 0 0-.72-1.042 4.424 4.424 0 0 0-.48-.433 5.26 5.26 0 0 0-.56-.379 6.308 6.308 0 0 0-.635-.325l-1.75-.761a23.994 23.994 0 0 1-.896-.39c-.131-.062-.252-.12-.364-.176a9.4 9.4 0 0 1-.31-.161 1.343 1.343 0 0 1-.248-.168.952.952 0 0 1-.18-.199.854.854 0 0 1-.142-.487c0-.089.009-.172.026-.249a.809.809 0 0 1 .201-.396.849.849 0 0 1 .174-.145c.069-.043.143-.08.223-.112.08-.032.167-.059.26-.081a2.31 2.31 0 0 1 .297-.047 3.624 3.624 0 0 1 .728.011 3.896 3.896 0 0 1 .738.158c.118.038.234.082.348.131a6.181 6.181 0 0 1 1.043.589 8.7 8.7 0 0 1 .36.265l1.904-2.557a7.042 7.042 0 0 0-1.065-.946 5.953 5.953 0 0 0-1.204-.665 7.565 7.565 0 0 0-1.264-.397 6.57 6.57 0 0 0-2.385-.07 5.451 5.451 0 0 0-2.374.985 4.457 4.457 0 0 0-.374.307 5.176 5.176 0 0 0-.64.706 4.523 4.523 0 0 0-.657 1.261 4.357 4.357 0 0 0-.203.944 4.735 4.735 0 0 0-.026.494 5.542 5.542 0 0 0 .06.808 4.683 4.683 0 0 0 .175.739 5.482 5.482 0 0 0 .279.662 4.395 4.395 0 0 0 .57.85 4.861 4.861 0 0 0 .473.472c.083.073.17.141.258.207a4.787 4.787 0 0 0 .548.365 5.52 5.52 0 0 0 .57.286l1.807.828.228.098.212.093.199.088.187.083a5.33 5.33 0 0 1 .475.24 2.414 2.414 0 0 1 .251.17c.037.03.07.059.104.09l.088.093c.027.032.05.063.074.096a.594.594 0 0 1 .06.103.777.777 0 0 1 .067.237 1.17 1.17 0 0 1-.016.386.917.917 0 0 1-.367.567 1.066 1.066 0 0 1-.222.123 1.768 1.768 0 0 1-.282.088c-.104.023-.218.04-.343.051a4.574 4.574 0 0 1-.402.016 3.364 3.364 0 0 1-.83-.111 4.793 4.793 0 0 1-.879-.324 7 7 0 0 1-1.682-1.103l-2.203 2.831c.2.195.405.375.615.544a7.69 7.69 0 0 0 1.326.854c.232.117.47.222.713.313.246.09.489.168.73.236a7.978 7.978 0 0 0 1.426.274 7.75 7.75 0 0 0 1.968-.062c.199-.034.392-.076.579-.125a5.326 5.326 0 0 0 1.04-.396 5.358 5.358 0 0 0 .882-.543 4.755 4.755 0 0 0 1.266-1.464c.077-.141.148-.287.212-.438a5.155 5.155 0 0 0 .349-1.404c.016-.161.024-.322.024-.486 0-.268-.016-.526-.046-.771a4.984 4.984 0 0 0-.138-.7M128.118 40.793l.254-1.09a65.173 65.173 0 0 0 .532-2.457l.133-.65.128-.636.127-.626.128-.614h.09l.134.607.136.623c.045.21.089.424.134.64l.135.66.14.656.137.63a87.757 87.757 0 0 0 .271 1.188l.252 1.093-2.731-.024zm-.927-9.208l-4.531 15.77 4.03.013.723-3.355 4.138.026.725 3.348 4.097.014-4.464-15.74-4.718-.076zM118.144 39.979a8.29 8.29 0 0 1-.056.604 6.265 6.265 0 0 1-.093.544 4.736 4.736 0 0 1-.296.91 4.022 4.022 0 0 1-.19.377 3.367 3.367 0 0 1-.219.33 2.674 2.674 0 0 1-.244.28 3.026 3.026 0 0 1-.57.434 2.852 2.852 0 0 1-.674.282 4.83 4.83 0 0 1-1.129.184c-.132.007-.266.01-.401.01l-.236-.002v-9.173l.236.003a6.82 6.82 0 0 1 .791.057 5.667 5.667 0 0 1 .74.149 2.987 2.987 0 0 1 .673.268 2.718 2.718 0 0 1 .814.69c.078.1.15.207.218.323.069.115.133.239.192.37a4.63 4.63 0 0 1 .294.89c.038.169.07.347.094.537.026.19.044.39.056.602a10.839 10.839 0 0 1 0 1.331m3.936-2.568a9.327 9.327 0 0 0-.175-.86 7.67 7.67 0 0 0-.555-1.501 6.917 6.917 0 0 0-.366-.65 6.108 6.108 0 0 0-.422-.583 5.724 5.724 0 0 0-1.013-.967 6.1 6.1 0 0 0-1.217-.715 6.888 6.888 0 0 0-.684-.262 9.046 9.046 0 0 0-1.498-.356 11.304 11.304 0 0 0-1.645-.135l-4.48-.071v16l4.706.017a9.878 9.878 0 0 0 2.304-.256 8.89 8.89 0 0 0 .704-.201 6.336 6.336 0 0 0 1.855-.98c.183-.14.358-.291.524-.454.168-.161.326-.334.475-.518.147-.184.286-.38.416-.586.13-.206.25-.423.36-.652a7.728 7.728 0 0 0 .546-1.514c.069-.275.126-.564.17-.864.047-.301.08-.613.103-.938a14.273 14.273 0 0 0-.002-2.02 11.047 11.047 0 0 0-.106-.934M103.123 35.852c0 .123 0 .247.003.373l.01.381a17.918 17.918 0 0 0 .047.79c.01.135.02.27.032.405.01.135.02.27.032.405l.032.402c.01.134.02.267.032.401.013.134.025.267.039.4.012.132.026.264.04.395a24.592 24.592 0 0 0 .09.775l.045.378.043.36c.014.118.028.232.04.344l.036.327h-.094l-1.468-3.624-3.425-7.236-4.213-.068v16.2l3.929.012v-4.67a25.979 25.979 0 0 0-.112-2.323 34.9 34.9 0 0 0-.085-.81l-.09-.805-.083-.774-.08-.745-.074-.714.095.002 1.476 3.62 3.422 7.234 4.149.014v-16.04l-3.868-.062v4.653zM100.176 65.653a3.856 3.856 0 0 0-.246-.646 4.122 4.122 0 0 0-.782-1.072 4.628 4.628 0 0 0-.518-.44 5.313 5.313 0 0 0-.602-.381 6.393 6.393 0 0 0-.687-.32l-1.887-.753-.51-.203a30.35 30.35 0 0 1-.849-.361 9.223 9.223 0 0 1-.335-.16 1.43 1.43 0 0 1-.268-.17 1.022 1.022 0 0 1-.192-.203.861.861 0 0 1-.154-.512c0-.09.01-.175.027-.254a.853.853 0 0 1 .082-.221.841.841 0 0 1 .135-.19.985.985 0 0 1 .188-.155 1.562 1.562 0 0 1 .52-.212c.1-.023.207-.041.321-.053.113-.013.234-.02.361-.02a4.13 4.13 0 0 1 1.221.163 5.493 5.493 0 0 1 .742.295 6.825 6.825 0 0 1 .758.429c.13.083.26.172.39.267l2.052-2.696a6.583 6.583 0 0 0-1.145-.967 6.228 6.228 0 0 0-1.303-.659 8.265 8.265 0 0 0-1.362-.39 7.23 7.23 0 0 0-1.975-.102 7.097 7.097 0 0 0-.597.078 6.249 6.249 0 0 0-1.117.306 6.11 6.11 0 0 0-1.003.472 5.737 5.737 0 0 0-.847.614 5.394 5.394 0 0 0-.687.752 5.316 5.316 0 0 0-.523.857 4.672 4.672 0 0 0-.408 1.45 4.891 4.891 0 0 0-.01.948c.01.139.025.276.047.409a4.36 4.36 0 0 0 .33 1.116 4.587 4.587 0 0 0 .346.639 4.74 4.74 0 0 0 .677.81c.085.08.172.157.262.232a5.77 5.77 0 0 0 1.485.865l1.95.822.244.095c.08.03.156.06.23.09l.215.084c.07.028.136.053.201.08a6.207 6.207 0 0 1 .354.163 3.055 3.055 0 0 1 .431.257 1.48 1.48 0 0 1 .213.186.799.799 0 0 1 .185.316 1.082 1.082 0 0 1 .034.273c0 .093-.009.179-.026.26a.951.951 0 0 1-.388.589 1.2 1.2 0 0 1-.245.137 1.942 1.942 0 0 1-.307.1 3.03 3.03 0 0 1-.37.061 4.789 4.789 0 0 1-.434.025 3.655 3.655 0 0 1-.895-.097 4.575 4.575 0 0 1-.468-.132 5.476 5.476 0 0 1-.48-.188 7.206 7.206 0 0 1-.94-.486 7.948 7.948 0 0 1-.875-.623l-2.369 2.977c.214.198.433.382.66.553a7.887 7.887 0 0 0 1.43.862c.251.117.51.219.775.306a10.05 10.05 0 0 0 1.554.4 8.426 8.426 0 0 0 2.892-.011 6.418 6.418 0 0 0 1.209-.334 7.19 7.19 0 0 0 1.034-.514 5.578 5.578 0 0 0 .857-.652 5.335 5.335 0 0 0 .683-.776 4.916 4.916 0 0 0 .501-.886 5.355 5.355 0 0 0 .301-.97 4.866 4.866 0 0 0 .102-1.002c0-.28-.016-.549-.049-.803a4.83 4.83 0 0 0-.146-.724M84.478 40.415l.273-1.128.144-.6a75.988 75.988 0 0 0 .287-1.272c.046-.22.093-.444.138-.67a155.3 155.3 0 0 1 .277-1.332l.138-.648c.046-.214.091-.426.138-.635l.096.001c.049.206.097.415.145.627l.144.645a120.48 120.48 0 0 1 .288 1.345c.051.231.1.458.15.68l.148.652.145.627c.047.205.096.406.143.603l.271 1.13-2.925-.025zm8.84 6.84L88.54 30.966l-5.063-.08-4.845 16.32 4.308.014.784-3.472 4.43.026.769 3.466 4.395.015zM82.99 67.985a1.457 1.457 0 0 1-.46.572c-.204.154-.46.27-.765.35-.306.08-.664.123-1.072.129l-1.715.023V65.58l1.715-.02c.208-.001.4.005.583.018.18.014.348.036.502.065.154.03.295.067.423.112s.242.098.344.158a1.176 1.176 0 0 1 .447.505c.05.107.088.224.113.353.026.129.038.269.038.42 0 .3-.051.566-.153.793zm-4.012-8.662l1.423-.01c.17 0 .33.006.479.019.149.012.286.032.413.059.127.026.243.059.347.099.105.04.198.088.279.14a.997.997 0 0 1 .365.434c.04.09.07.19.09.298a2.047 2.047 0 0 1 0 .71 1.543 1.543 0 0 1-.241.606 1.42 1.42 0 0 1-.493.445 1.79 1.79 0 0 1-.347.145 2.565 2.565 0 0 1-.413.089 3.754 3.754 0 0 1-.48.033l-1.422.012v-3.08zm8.054 6.672a3.247 3.247 0 0 0-.245-.59 2.852 2.852 0 0 0-.345-.501 4.058 4.058 0 0 0-1.937-1.246v-.1a2.405 2.405 0 0 0 .44-.228 2.427 2.427 0 0 0 .566-.529 4.35 4.35 0 0 0 .564-.922 4.749 4.749 0 0 0 .28-.785 4.105 4.105 0 0 0 .11-.533 4.129 4.129 0 0 0 .038-.534c0-.198-.01-.39-.03-.571a4.16 4.16 0 0 0-.088-.523 3.363 3.363 0 0 0-.147-.471 2.968 2.968 0 0 0-.207-.42 3.464 3.464 0 0 0-.558-.707 3.253 3.253 0 0 0-.722-.533 5.122 5.122 0 0 0-.877-.382 7.287 7.287 0 0 0-1.03-.253 9.855 9.855 0 0 0-.558-.08 14.405 14.405 0 0 0-1.173-.085 17.773 17.773 0 0 0-.614-.01l-5.767.02v16.439l6.252-.1a10.857 10.857 0 0 0 2.423-.31 7.04 7.04 0 0 0 .555-.165c.179-.062.35-.13.517-.205.165-.075.324-.156.477-.245.152-.088.297-.183.435-.284a4.266 4.266 0 0 0 .756-.681 4.69 4.69 0 0 0 .584-.847c.083-.152.155-.312.218-.48.062-.166.114-.34.156-.521.04-.181.072-.37.093-.564a5.7 5.7 0 0 0 .03-.608c0-.271-.015-.527-.048-.768a4.16 4.16 0 0 0-.148-.678zM74.083 37.1l-.045.35-.046.367a25.23 25.23 0 0 0-.138 1.163l-.041.394-.033.395-.033.392-.034.387-.034.385a16.977 16.977 0 0 0-.048.724c-.005.117-.008.23-.011.342l-.003.329v4.86l3.854.014V30.788l-4.551-.072-2.336 6.709-.108.345a29.184 29.184 0 0 0-.211.71c-.035.12-.069.244-.103.367l-.101.367a32.031 32.031 0 0 1-.209.733l-.112.368-.099-.001c-.038-.124-.076-.247-.112-.37a51.21 51.21 0 0 1-.109-.368c-.035-.123-.07-.246-.103-.37a15.474 15.474 0 0 1-.098-.37c-.033-.123-.068-.245-.102-.367a30.945 30.945 0 0 0-.216-.716l-.113-.348-2.451-6.795-4.629-.074v16.612l3.879.014V42.27a18.572 18.572 0 0 0-.014-.674c-.006-.117-.012-.237-.02-.358a12.62 12.62 0 0 0-.029-.372l-.034-.388a302.81 302.81 0 0 1-.033-.39l-.035-.395-.034-.398-.04-.398-.043-.394a46.546 46.546 0 0 0-.097-.78l-.047-.37-.046-.353-.042-.336c-.013-.11-.026-.215-.037-.32l.099.003 1.302 3.995 2.009 5.474 2.29.01 1.988-5.431 1.339-3.944h.099l-.037.316-.042.333M67.68 62.333a1.702 1.702 0 0 1-.487.686 2.18 2.18 0 0 1-.814.415 4.296 4.296 0 0 1-1.144.147l-1.557.014v-4.08l1.557-.01c.215-.001.416.006.604.022.187.016.362.04.523.075.16.033.31.075.445.126.136.05.259.11.369.178a1.21 1.21 0 0 1 .499.566c.056.123.098.259.126.41.028.15.042.316.042.494 0 .365-.054.684-.162.957m2.305 3.44a4.887 4.887 0 0 0 .952-.925c.138-.175.264-.36.38-.556.12-.195.223-.403.312-.624.089-.221.162-.454.22-.7a5.96 5.96 0 0 0 .132-.775 8.362 8.362 0 0 0 .012-1.589 6.23 6.23 0 0 0-.096-.675 5.138 5.138 0 0 0-.162-.611 4.104 4.104 0 0 0-.23-.545 4.91 4.91 0 0 0-.283-.486 4.085 4.085 0 0 0-.33-.434 3.858 3.858 0 0 0-.794-.71 4.984 4.984 0 0 0-.958-.518 5.825 5.825 0 0 0-.535-.193 6.973 6.973 0 0 0-.574-.15 11.177 11.177 0 0 0-1.218-.181 12.956 12.956 0 0 0-1.281-.057l-6.202.02v16.634l4.347-.07v-5.56l1.657-.02 2.805 5.509 4.78-.077-3.503-6.34c.2-.111.39-.234.569-.367M54.627 39.779a7.67 7.67 0 0 1-.16.961c-.071.301-.16.581-.267.84-.107.26-.232.499-.375.718-.142.218-.298.41-.468.574a2.556 2.556 0 0 1-.549.411 2.553 2.553 0 0 1-.633.246c-.225.053-.465.08-.718.078a2.984 2.984 0 0 1-.714-.087 2.542 2.542 0 0 1-1.183-.673 3.332 3.332 0 0 1-.471-.583 4.26 4.26 0 0 1-.381-.726 5.528 5.528 0 0 1-.269-.847 7.835 7.835 0 0 1-.16-.969 10.752 10.752 0 0 1-.052-1.09c0-.383.017-.745.052-1.084.036-.339.089-.656.16-.951.071-.295.161-.568.269-.818.108-.251.235-.48.381-.688.143-.207.3-.388.471-.542a2.567 2.567 0 0 1 1.183-.612c.224-.049.462-.072.714-.069.253.004.493.033.718.088a2.627 2.627 0 0 1 1.182.641c.17.159.326.343.468.553.143.21.268.442.375.694.107.252.196.526.267.821.071.296.124.612.16.95.036.338.053.699.053 1.08 0 .382-.017.743-.053 1.084m4.393-2.976a9.83 9.83 0 0 0-.174-.882 9.333 9.333 0 0 0-.553-1.591 8.116 8.116 0 0 0-.782-1.357 7.372 7.372 0 0 0-.473-.591 6.576 6.576 0 0 0-1.743-1.376 7.854 7.854 0 0 0-2.192-.773 8.683 8.683 0 0 0-.806-.119 10.422 10.422 0 0 0-1.693-.027 8.218 8.218 0 0 0-1.586.256 7.086 7.086 0 0 0-.735.238 6.392 6.392 0 0 0-2.445 1.629 6.36 6.36 0 0 0-.482.572 7.152 7.152 0 0 0-.427.642 8.849 8.849 0 0 0-.936 2.313c-.071.288-.13.585-.178.893-.047.307-.082.624-.105.95a13.732 13.732 0 0 0 0 2.017 10.844 10.844 0 0 0 .283 1.86c.071.292.155.574.251.848a9.24 9.24 0 0 0 .685 1.523 7.67 7.67 0 0 0 .909 1.263 6.698 6.698 0 0 0 1.122.995 6.803 6.803 0 0 0 1.323.728 7.67 7.67 0 0 0 1.509.453c.264.05.535.088.812.113a9.896 9.896 0 0 0 1.693.005 8.068 8.068 0 0 0 1.576-.29c.25-.073.495-.159.733-.258a6.686 6.686 0 0 0 1.324-.714 6.532 6.532 0 0 0 1.581-1.567 7.32 7.32 0 0 0 .418-.652c.131-.229.252-.468.364-.717a9.636 9.636 0 0 0 .727-2.507c.046-.306.081-.62.104-.944.023-.324.034-.656.034-.997 0-.341-.011-.673-.034-.996a11.952 11.952 0 0 0-.104-.94M48.81 65.877l.288-1.165.153-.619a52.119 52.119 0 0 0 .302-1.313 200.505 200.505 0 0 1 .298-1.389c.047-.229.096-.455.145-.68a85.101 85.101 0 0 1 .287-1.32h.102a104.378 104.378 0 0 1 .458 1.98l.151.697c.053.236.106.468.159.695l.154.667.154.642.153.616.286 1.156-3.09.033zm-1.047-9.773l-5.127 16.861 4.56-.073.818-3.575 4.678-.063.82 3.537 4.632-.075-5.045-16.63-5.336.018zM37.525 65.224a8.68 8.68 0 0 1-.063.644 6.62 6.62 0 0 1-.107.58 4.98 4.98 0 0 1-.148.52c-.057.16-.12.312-.186.455a3.887 3.887 0 0 1-.463.76 3.01 3.01 0 0 1-.276.306 3.326 3.326 0 0 1-1.017.65 4.222 4.222 0 0 1-.392.138 6.689 6.689 0 0 1-1.28.218c-.15.012-.3.019-.455.02l-.265.004v-9.762l.265-.002a7.615 7.615 0 0 1 1.735.187 3.392 3.392 0 0 1 .758.267c.118.059.23.125.339.199.109.072.213.152.312.238a3.094 3.094 0 0 1 .522.621c.078.12.15.25.217.388.067.137.129.284.186.438a4.6 4.6 0 0 1 .148.503c.043.179.078.37.107.57.028.204.049.417.063.64a11.481 11.481 0 0 1 0 1.418M41.98 62.4a9.261 9.261 0 0 0-.2-.912 7.69 7.69 0 0 0-.626-1.58 6.56 6.56 0 0 0-.893-1.291 5.982 5.982 0 0 0-.541-.54 6.693 6.693 0 0 0-1.265-.87 7.124 7.124 0 0 0-.717-.334 8.03 8.03 0 0 0-.776-.263c-.27-.08-.545-.147-.827-.205a11.3 11.3 0 0 0-.868-.143 13.133 13.133 0 0 0-.91-.084 15.65 15.65 0 0 0-.953-.025l-5.085.017v17.024l5.34-.085c.309-.005.61-.02.907-.045a11.052 11.052 0 0 0 1.703-.27c.27-.066.537-.141.797-.227a7.53 7.53 0 0 0 1.449-.654 7.029 7.029 0 0 0 1.243-.923 6.621 6.621 0 0 0 1.005-1.197 7.545 7.545 0 0 0 .75-1.473c.105-.27.197-.553.276-.848.078-.295.144-.603.196-.923.052-.321.09-.654.117-1a14.346 14.346 0 0 0-.002-2.154 11.481 11.481 0 0 0-.12-.995M32.873 42.818l1.63-2.29 3.778 6.54 4.899.017-6.048-10.07 5.065-6.792-4.905-.078-4.315 6.251-.104-.002v-6.32l-4.553-.073v17.034l4.553.015z"/>
        <g transform="translate(0 -.109)">
            <mask id="b" fill="#fff">
                <use xlink:href="#a"/>
            </mask>
            <path fill="#FFF" d="M167.438 83.473c0 1.536-.295 3.006-.829 4.35a11.527 11.527 0 0 1-2.265 3.588 10.904 10.904 0 0 1-3.367 2.468 10.277 10.277 0 0 1-4.14.971L43.751 97.33l-9.468 10.526-9.566-10.11-20.373.447V16.14c0-1.686.355-3.285.996-4.73a11.824 11.824 0 0 1 2.709-3.812 12.195 12.195 0 0 1 3.997-2.503 12.553 12.553 0 0 1 4.864-.818l139.927 4.017c1.471.042 2.869.396 4.14 1a11.008 11.008 0 0 1 3.367 2.49 11.625 11.625 0 0 1 2.265 3.605c.534 1.346.829 2.818.829 4.354v63.73zm2.493-69.488a15.677 15.677 0 0 0-3.03-4.84 14.823 14.823 0 0 0-4.511-3.35 13.833 13.833 0 0 0-5.553-1.355L16.91.117a16.897 16.897 0 0 0-6.541 1.085 16.355 16.355 0 0 0-5.381 3.355A15.864 15.864 0 0 0 1.341 9.68 15.644 15.644 0 0 0 0 16.044v86.442l22.834-.552L34.283 114l11.309-12.615 111.245-2.68a13.783 13.783 0 0 0 5.553-1.317 14.697 14.697 0 0 0 4.511-3.32 15.532 15.532 0 0 0 3.03-4.819 15.803 15.803 0 0 0 1.109-5.83V19.822c0-2.059-.395-4.033-1.109-5.838z" mask="url(#b)"/>
        </g>
    </g>
</svg>
