<svg xmlns="http://www.w3.org/2000/svg" xmlns:xlink="http://www.w3.org/1999/xlink" width="159" height="136" viewBox="0 0 159 136">
    <defs>
        <path id="a" d="M0 .82h158.693V136H0z"/>
    </defs>
    <g fill="none" fill-rule="evenodd">
        <path fill="#FFF" d="M130.418 54.622v3.46l-3.851-.022v12.2l-3.874.016V58.038l-3.9-.023v-3.493zM112.238 54.168c.275.002.54.018.796.046.256.03.503.07.74.124a5.68 5.68 0 0 1 1.318.476 9.005 9.005 0 0 1 1.098.692 7.045 7.045 0 0 1 .899.794l-2.054 2.665a6.963 6.963 0 0 0-.568-.469 5.469 5.469 0 0 0-.594-.378 2.466 2.466 0 0 0-.677-.248 3.36 3.36 0 0 0-.393-.063 4.593 4.593 0 0 0-.433-.022 3.493 3.493 0 0 0-.371.017 3.105 3.105 0 0 0-1.34.464 3.089 3.089 0 0 0-.563.45 3.738 3.738 0 0 0-.683.926 4.38 4.38 0 0 0-.175.378 4.996 4.996 0 0 0-.265.85 6.578 6.578 0 0 0-.134.965 9.083 9.083 0 0 0 .042 1.584c.04.332.099.641.178.928.079.287.178.552.296.796.118.243.256.465.414.665.158.2.338.375.54.524.204.15.43.274.678.373.248.1.519.172.81.222a5.723 5.723 0 0 0 1.105.068 3.98 3.98 0 0 0 .157-.014c.052-.006.104-.014.156-.022.052-.009.103-.02.155-.03a1.938 1.938 0 0 0 .408-.153 1.38 1.38 0 0 0 .112-.067v-2.192h-2.206V61.1l5.676.02v7.525a5.256 5.256 0 0 1-.432.388 6.412 6.412 0 0 1-1.06.692 8.297 8.297 0 0 1-.627.301 6.721 6.721 0 0 1-1.393.435 8.213 8.213 0 0 1-1.519.146 9.172 9.172 0 0 1-1.52-.118 8.373 8.373 0 0 1-1.43-.37 6.99 6.99 0 0 1-.67-.28 6.422 6.422 0 0 1-1.744-1.227 6.46 6.46 0 0 1-.926-1.143 7.203 7.203 0 0 1-.38-.669 8.17 8.17 0 0 1-.58-1.532 9.233 9.233 0 0 1-.186-.859c-.05-.298-.087-.605-.112-.923a12.593 12.593 0 0 1 0-1.965c.025-.317.063-.624.114-.922.05-.298.114-.586.19-.865a8.813 8.813 0 0 1 .595-1.551 7.842 7.842 0 0 1 .816-1.305 7.07 7.07 0 0 1 .486-.562c.173-.175.353-.34.539-.495.186-.154.38-.299.579-.434a6.964 6.964 0 0 1 1.967-.919 7.226 7.226 0 0 1 2.171-.3M113.774 30.152v3.507l-5.71-.144v2.492l4.885.113v3.518l-4.884-.099v2.835l5.94.108v3.506l-9.931-.152V29.881zM102.58 54.383v3.538l-5.811-.034v2.515l4.972.02v3.549l-4.972-.005v2.86l6.047-.007v3.537l-10.11.041V54.3zM94.528 79.016v16.076l-4.078.096V79.06zM101.06 29.796V45.79l-3.656-.056V41a17.394 17.394 0 0 1 .014-.653c.004-.113.01-.229.018-.346l.027-.359c.01-.124.018-.249.027-.374l.03-.378.033-.38.037-.384a22.37 22.37 0 0 1 .074-.768l.043-.375a47.1 47.1 0 0 1 .092-.734c.015-.117.03-.23.043-.342l.04-.322.038-.302-.093-.002-1.27 3.818-1.894 5.283-2.17-.035-1.906-5.37-1.234-3.896-.094-.002.035.305.04.327.043.346.045.366a22.814 22.814 0 0 1 .092.756l.04.385.04.391.031.388.033.384.032.381.032.377c.01.124.02.245.027.363a14.657 14.657 0 0 1 .033 1.006v4.762l-3.678-.056V29.377l4.39.123 2.331 6.652a73.083 73.083 0 0 1 .203.686 29.95 29.95 0 0 1 .197.713l.096.358.098.361a48.64 48.64 0 0 0 .206.724l.094.002c.037-.119.072-.239.107-.358s.07-.238.103-.358l.098-.356c.032-.118.063-.236.092-.353l.097-.355.101-.349a33.94 33.94 0 0 1 .211-.676l2.215-6.516 4.316.121zM89.636 54.273V70.41l-4.109.016v-16.19zM83.713 97.276c.071.043.137.088.198.135a1.594 1.594 0 0 1 .302.306c.04.055.075.112.105.172a1.643 1.643 0 0 1 .17.6 2.335 2.335 0 0 1-.071.86 1.968 1.968 0 0 1-.248.549c-.11.168-.248.322-.413.462a2.924 2.924 0 0 1-.579.378 5.56 5.56 0 0 1-.73.302c-.268.09-.557.168-.869.236-.312.068-.646.125-1.003.17a17.48 17.48 0 0 1-1.14.107l-.288-1.64c.23-.02.44-.041.634-.065a10.6 10.6 0 0 0 .527-.075c.158-.028.3-.057.421-.09.123-.031.228-.064.315-.1.086-.036.162-.077.227-.121a.727.727 0 0 0 .163-.146.566.566 0 0 0 .11-.515.488.488 0 0 0-.063-.133.67.67 0 0 0-.103-.12 1.146 1.146 0 0 0-.336-.198 1.973 1.973 0 0 0-.25-.075 2.948 2.948 0 0 0-.31-.055 5.19 5.19 0 0 0-.368-.035l.773-1.522a12.087 12.087 0 0 1 .952.076 7.991 7.991 0 0 1 .774.134 5.59 5.59 0 0 1 .615.179c.092.034.18.07.26.107.08.037.156.076.225.117M83.774 85.713l5.554 9.5-4.491.107-3.472-6.17-1.495 2.234v4.053l-4.172.097V79.22l4.172-.045v6.05l.096-.001 3.955-6.093 4.498-.048zM78.32 28.862a7.09 7.09 0 0 1 1.367.168 8.26 8.26 0 0 1 1.383.431 6.657 6.657 0 0 1 1.308.711 7.665 7.665 0 0 1 1.162 1.001l-2.071 2.643a9.774 9.774 0 0 0-.784-.523 6.64 6.64 0 0 0-.754-.388 3.904 3.904 0 0 0-.77-.242 4.655 4.655 0 0 0-1.207-.089 2.776 2.776 0 0 0-.322.043c-.102.02-.196.046-.283.078a1.386 1.386 0 0 0-.243.112.995.995 0 0 0-.19.153.859.859 0 0 0-.22.408 1.11 1.11 0 0 0 .012.534.939.939 0 0 0 .312.454c.077.065.167.124.27.18a13.738 13.738 0 0 0 .74.355 31.569 31.569 0 0 0 .969.423l1.915.82c.245.103.476.217.693.341.217.124.42.258.609.401a4.565 4.565 0 0 1 .961.978c.132.182.248.377.347.585.099.207.182.427.249.66.067.231.116.475.15.731.033.257.05.525.05.805a5.038 5.038 0 0 1-.104 1.006 4.724 4.724 0 0 1-.311.962 4.527 4.527 0 0 1-.82 1.275 5.055 5.055 0 0 1-.78.698 5.348 5.348 0 0 1-.457.295 6.217 6.217 0 0 1-1.048.476 5.856 5.856 0 0 1-1.22.301 8.377 8.377 0 0 1-1.393.082 8.44 8.44 0 0 1-1.528-.16 10.078 10.078 0 0 1-1.578-.447 8.386 8.386 0 0 1-1.52-.75 8.938 8.938 0 0 1-1.372-1.07l2.4-2.926a8.091 8.091 0 0 0 1.348.934 6.057 6.057 0 0 0 .97.446c.159.057.317.105.472.144a4.076 4.076 0 0 0 1.342.114c.136-.01.26-.027.374-.049.114-.023.217-.052.31-.087a1.027 1.027 0 0 0 .431-.288.959.959 0 0 0 .215-.425 1.202 1.202 0 0 0 .018-.403.91.91 0 0 0-.075-.248.83.83 0 0 0-.144-.209 1.276 1.276 0 0 0-.213-.194 1.566 1.566 0 0 0-.134-.09 2.419 2.419 0 0 0-.145-.09 4.628 4.628 0 0 0-.332-.173c-.06-.028-.121-.057-.185-.085l-.203-.088-.217-.095-.231-.1-.248-.105-1.967-.888a6.49 6.49 0 0 1-.925-.49 6.22 6.22 0 0 1-.575-.426 5.094 5.094 0 0 1-.746-.778 4.195 4.195 0 0 1-.39-.618 5.539 5.539 0 0 1-.305-.692 4.524 4.524 0 0 1-.19-.773 4.96 4.96 0 0 1-.065-.845 4.675 4.675 0 0 1 .11-1.022 4.407 4.407 0 0 1 .33-.94 4.545 4.545 0 0 1 .525-.85 5.081 5.081 0 0 1 1.55-1.324 6.239 6.239 0 0 1 1.56-.609 6.385 6.385 0 0 1 1.184-.163c.206-.01.415-.012.629-.006M82.432 54.21v16.23l-4.252.017-3.5-7.3-1.518-3.65h-.097l.076.722c.026.246.054.496.083.752l.088.783c.03.265.063.536.096.813a27.754 27.754 0 0 1 .182 2.408c.008.259.01.515.01.768v4.723l-4.01.016V54.1l4.31.037 3.503 7.3 1.5 3.655H79a27.828 27.828 0 0 0-.036-.333l-.041-.35-.043-.363-.046-.378a21.719 21.719 0 0 1-.05-.39l-.044-.393-.041-.4-.04-.403a354.03 354.03 0 0 0-.097-1.226l-.033-.406a19.06 19.06 0 0 1-.047-.798 24.515 24.515 0 0 1-.014-.771v-4.705l3.964.034zM66.356 86.8a4.18 4.18 0 0 0 1.124-.153c.32-.096.587-.236.8-.42.213-.183.373-.412.479-.684.107-.275.16-.593.16-.956 0-.177-.013-.34-.04-.488a1.753 1.753 0 0 0-.121-.404 1.249 1.249 0 0 0-.486-.56 1.946 1.946 0 0 0-.364-.173 2.899 2.899 0 0 0-.44-.119 4.502 4.502 0 0 0-.518-.067 7.046 7.046 0 0 0-.594-.016l-1.53.021v4.044l1.53-.025m4.118 2.507l3.443 6.268-4.697.111-2.757-5.449-1.637.032v5.52l-4.271.1V79.385l6.103-.067a12.091 12.091 0 0 1 2.447.219 6.22 6.22 0 0 1 1.094.33 5.263 5.263 0 0 1 .946.508 3.911 3.911 0 0 1 1.104 1.124c.1.153.193.313.279.481.086.168.161.348.225.538.064.191.117.392.159.605.042.211.074.434.095.668a8.225 8.225 0 0 1-.011 1.58 6.241 6.241 0 0 1-.13.77c-.058.243-.13.475-.217.695-.087.22-.189.428-.306.626a5.407 5.407 0 0 1-.379.553 5.42 5.42 0 0 1-.439.493 5.375 5.375 0 0 1-.496.431 5.39 5.39 0 0 1-.555.368M64.577 28.474c.298.008.586.03.863.064s.544.08.8.14c.256.06.5.134.737.22.235.087.46.186.675.299a9.525 9.525 0 0 1 1.191.741 7.292 7.292 0 0 1 .969.844l-2.222 2.722a6.523 6.523 0 0 0-.604-.5 6.246 6.246 0 0 0-.638-.404 2.992 2.992 0 0 0-.733-.272 4.528 4.528 0 0 0-1.287-.095 3.48 3.48 0 0 0-.755.145 3.576 3.576 0 0 0-1.007.516 3.606 3.606 0 0 0-1.03 1.194 4.65 4.65 0 0 0-.344.813 5.625 5.625 0 0 0-.214.94 6.828 6.828 0 0 0-.073 1.054c0 .39.02.758.064 1.103.042.345.106.667.19.967.086.3.193.577.32.832.128.255.276.488.447.699.17.21.364.396.583.555.219.159.462.293.729.4.267.109.559.19.874.249a6.415 6.415 0 0 0 1.185.093 3.232 3.232 0 0 0 .508-.06 2.193 2.193 0 0 0 .307-.09 1.478 1.478 0 0 0 .253-.126v-2.274l-2.376-.048v-3.546l6.115.139v7.81a5.523 5.523 0 0 1-.466.395 6.454 6.454 0 0 1-.537.364c-.19.116-.393.227-.608.332a9.35 9.35 0 0 1-1.411.549 7.653 7.653 0 0 1-1.566.27c-.272.02-.55.028-.832.024a10.106 10.106 0 0 1-2.421-.326 7.74 7.74 0 0 1-2.156-.913 7.308 7.308 0 0 1-1.212-.944 7.105 7.105 0 0 1-.99-1.207 7.757 7.757 0 0 1-.408-.702 8.577 8.577 0 0 1-.627-1.603 9.7 9.7 0 0 1-.2-.896 11.329 11.329 0 0 1-.161-1.986c0-.348.014-.687.04-1.015.028-.328.068-.646.122-.953.054-.307.122-.605.203-.891.08-.287.176-.563.284-.83.108-.266.227-.522.355-.768a7.91 7.91 0 0 1 .883-1.341c.166-.202.342-.393.526-.573a7.666 7.666 0 0 1 1.205-.941 7.612 7.612 0 0 1 1.378-.68 7.833 7.833 0 0 1 1.5-.39 8.732 8.732 0 0 1 1.571-.099M61.603 53.721a7.397 7.397 0 0 1 1.401.148c.234.047.47.105.705.175.235.07.471.15.707.24a6.875 6.875 0 0 1 1.962 1.152c.198.165.39.343.573.533l-2.125 2.718a9.163 9.163 0 0 0-.801-.515 7.02 7.02 0 0 0-.768-.378 4.463 4.463 0 0 0-.793-.23 4.876 4.876 0 0 0-1.237-.066c-.118.011-.23.028-.334.05-.104.022-.2.05-.29.084a1.106 1.106 0 0 0-.44.277.898.898 0 0 0-.14.191.94.94 0 0 0-.085.226 1.158 1.158 0 0 0-.029.263.845.845 0 0 0 .161.519c.053.074.12.144.2.21.078.064.171.124.276.18a11.83 11.83 0 0 0 .754.346 34.573 34.573 0 0 0 1.001.409l1.954.791c.252.101.49.213.712.334.223.121.431.253.625.394a5 5 0 0 1 .54.456c.165.161.317.334.455.516.135.182.253.376.355.584.101.207.185.427.252.661.067.232.117.48.15.738a6.3 6.3 0 0 1 .05.82 5.069 5.069 0 0 1-.416 2 5.047 5.047 0 0 1-.846 1.308 5.265 5.265 0 0 1-1.27 1.03 6.108 6.108 0 0 1-.515.27 7.628 7.628 0 0 1-1.168.425 7.916 7.916 0 0 1-1.341.218 9.763 9.763 0 0 1-1.515-.002 9.057 9.057 0 0 1-1.589-.275 11.01 11.01 0 0 1-.81-.248 8.404 8.404 0 0 1-2.969-1.787l2.455-3.01a8.49 8.49 0 0 0 .911.644 8.442 8.442 0 0 0 .978.507c.168.075.334.141.498.197a4.518 4.518 0 0 0 .951.222c.154.018.304.027.452.027.163 0 .315-.007.455-.02a3.31 3.31 0 0 0 .385-.057c.117-.025.222-.057.316-.094a1.185 1.185 0 0 0 .441-.3.929.929 0 0 0 .218-.435 1.246 1.246 0 0 0 .02-.408.74.74 0 0 0-.144-.358 1.067 1.067 0 0 0-.182-.199 1.609 1.609 0 0 0-.248-.185 2.81 2.81 0 0 0-.314-.172 3.828 3.828 0 0 0-.18-.083c-.062-.028-.127-.055-.194-.083a11.133 11.133 0 0 0-.204-.089l-.222-.09-.238-.096a18.556 18.556 0 0 1-.249-.1l-2.019-.86a5.918 5.918 0 0 1-1.819-1.139 4.76 4.76 0 0 1-.89-1.153 4.805 4.805 0 0 1-.428-1.075 4.68 4.68 0 0 1-.135-.816 5.213 5.213 0 0 1 .011-.965 4.522 4.522 0 0 1 .674-1.92 5.113 5.113 0 0 1 1.427-1.501 5.958 5.958 0 0 1 .958-.545 7.09 7.09 0 0 1 1.101-.394 7.038 7.038 0 0 1 1.217-.195 8.08 8.08 0 0 1 .646-.02M56.437 74.992v2.75l-7.97.076v-2.766zM51.301 92.425l6.487-.133v3.662l-10.846.255V79.531l10.594-.114v3.664l-6.235.085v2.605l5.334-.084v3.668l-5.334.097zM54.178 28.483v3.674L47.901 32v2.611l5.37.124v3.686l-5.37-.11v2.972l6.52.118v3.673l-10.903-.168v-16.72zM45.54 63.629l3.047.003-.274-1.153-.152-.616-.154-.643-.154-.67a62.578 62.578 0 0 1-.152-.693 91.696 91.696 0 0 0-.302-1.37 66.06 66.06 0 0 0-.302-1.301l-.11-.001-.138.65-.142.665-.143.678-.144.692c-.048.233-.097.462-.146.687l-.148.663-.15.639c-.051.209-.101.414-.152.615l-.284 1.155zm4.242-9.698l4.993 16.62-4.583.02-.811-3.527-4.63.006-.818 3.546-4.511.019 5.072-16.73 5.288.046zM36.071 38.74c.056-.16.104-.33.146-.51.042-.181.077-.373.105-.575.028-.202.05-.415.063-.638a11.21 11.21 0 0 0-.063-2.045 6.307 6.307 0 0 0-.105-.57 4.71 4.71 0 0 0-.146-.505 4.804 4.804 0 0 0-.183-.44 3.935 3.935 0 0 0-.215-.392 3.281 3.281 0 0 0-.246-.342 2.755 2.755 0 0 0-.278-.291 3.261 3.261 0 0 0-.999-.624 3.426 3.426 0 0 0-.39-.129 6.526 6.526 0 0 0-.827-.168 8.164 8.164 0 0 0-.884-.071l-.262-.007v9.715l.262.004a6.679 6.679 0 0 0 1.304-.102c.138-.026.274-.056.407-.09a3.413 3.413 0 0 0 .751-.289 3.045 3.045 0 0 0 1.162-1.089c.077-.123.148-.256.215-.397.066-.14.127-.289.183-.446m4.238-6.133c.104.264.195.542.274.832.078.291.144.595.196.912.053.318.093.648.12.992.025.344.038.703.038 1.073 0 .368-.012.724-.038 1.067a11.51 11.51 0 0 1-.115.99 9.381 9.381 0 0 1-.193.91 7.831 7.831 0 0 1-.273.834 7.67 7.67 0 0 1-.337.757 7.037 7.037 0 0 1-.402.685 6.362 6.362 0 0 1-.99 1.155 6.785 6.785 0 0 1-1.92 1.215c-.24.1-.489.19-.747.267a9.782 9.782 0 0 1-1.607.347c-.28.038-.566.064-.858.078a13.15 13.15 0 0 1-.893.017l-5.268-.08V27.73l5.015.14c.32.01.634.028.94.056a13.224 13.224 0 0 1 1.753.284c.28.065.55.14.816.224.265.085.521.18.767.287a7.218 7.218 0 0 1 1.361.772 6.554 6.554 0 0 1 1.603 1.663 7.997 7.997 0 0 1 .758 1.449M43.648 79.568v16.719l-3.995.094v-4.96c0-.105.002-.215.004-.328.002-.112.006-.227.012-.345.005-.118.01-.24.02-.362.008-.123.017-.248.029-.376.008-.13.02-.261.03-.392l.035-.396.038-.4.035-.402.042-.408a45.138 45.138 0 0 1 .091-.796c.017-.13.034-.26.053-.387.015-.13.032-.257.047-.38.014-.123.03-.243.044-.36l.042-.337.043-.318-.103.002-1.389 4.044-2.06 5.603-2.383.054-2.075-5.538-1.357-4.022h-.104c.015.104.029.21.043.32.014.109.027.222.043.339l.045.36a44.437 44.437 0 0 0 .1.77l.047.395c.017.133.03.267.046.402l.041.41.036.404.035.4.035.398.035.393c.012.129.021.254.03.378a15.873 15.873 0 0 1 .035 1.04v4.99l-4.021.095V79.745l4.799-.052 2.55 6.86.112.35c.037.12.075.239.11.359.038.119.073.24.11.362.035.122.072.244.106.367l.106.375.11.376.11.375.113.375.101-.002c.04-.126.08-.253.117-.38.04-.125.077-.252.114-.378.038-.126.074-.253.11-.38a53.718 53.718 0 0 0 .207-.748c.036-.122.07-.244.108-.366a18.924 18.924 0 0 1 .228-.714l2.422-6.905 4.718-.051zM33.19 53.47a8.13 8.13 0 0 1 1.464.152c.245.049.492.108.74.179.245.07.493.152.742.246a7.007 7.007 0 0 1 1.4.709c.22.143.433.299.64.468.205.169.405.35.597.545l-2.218 2.776a9.344 9.344 0 0 0-1.242-.737 5.873 5.873 0 0 0-.397-.175 4.38 4.38 0 0 0-.827-.235 4.803 4.803 0 0 0-.899-.083c-.138 0-.268.005-.39.016a2.906 2.906 0 0 0-.347.05c-.108.023-.21.05-.303.086-.094.034-.18.075-.26.12a1.145 1.145 0 0 0-.204.163.893.893 0 0 0-.235.427 1.197 1.197 0 0 0-.029.268.877.877 0 0 0 .167.53c.056.077.125.148.208.214.083.066.18.127.29.184.11.054.23.11.362.169.132.059.275.12.428.185a45.812 45.812 0 0 0 1.042.418l2.05.809c.26.103.507.217.74.34.231.125.448.259.651.404.202.145.39.3.562.465.173.165.33.34.471.528.141.186.265.384.37.596.106.212.193.437.263.675.07.238.123.489.158.755.035.265.052.544.052.836a4.983 4.983 0 0 1-.242 1.549 4.916 4.916 0 0 1-.193.495 4.929 4.929 0 0 1-1.27 1.723 5.704 5.704 0 0 1-.937.666 6.557 6.557 0 0 1-.535.276 7.336 7.336 0 0 1-.584.238 6.343 6.343 0 0 1-.63.197 7.364 7.364 0 0 1-.677.139 8.954 8.954 0 0 1-.723.084 10.61 10.61 0 0 1-.769.03 9.891 9.891 0 0 1-2.476-.313 11.833 11.833 0 0 1-.852-.253 8.956 8.956 0 0 1-3.099-1.827l2.563-3.076a8.314 8.314 0 0 0 1.972 1.177c.176.077.35.144.521.2a5.127 5.127 0 0 0 .997.228c.161.018.32.028.477.027.168 0 .325-.007.47-.02.145-.013.278-.032.4-.058.122-.026.232-.058.332-.097a1.093 1.093 0 0 0 .46-.306.942.942 0 0 0 .224-.444 1.3 1.3 0 0 0 .02-.417.855.855 0 0 0-.074-.256.821.821 0 0 0-.155-.213 1.461 1.461 0 0 0-.23-.196 3.172 3.172 0 0 0-.466-.269l-.185-.085a9.87 9.87 0 0 0-.198-.084 9.656 9.656 0 0 0-.218-.091 9.326 9.326 0 0 0-.232-.093l-.248-.097-.265-.102-2.108-.88a6.336 6.336 0 0 1-1.613-.918 4.772 4.772 0 0 1-.55-.51 4.502 4.502 0 0 1-.665-.913 4.48 4.48 0 0 1-.323-.71 4.397 4.397 0 0 1-.257-1.223 5.906 5.906 0 0 1-.017-.447c0-.183.01-.362.03-.54a4.493 4.493 0 0 1 .233-1.02c.06-.164.13-.324.21-.481a4.906 4.906 0 0 1 .91-1.288c.124-.128.256-.251.398-.37.138-.118.284-.23.437-.335.152-.105.312-.204.478-.297a6.766 6.766 0 0 1 1.076-.484 6.84 6.84 0 0 1 1.217-.304 8.273 8.273 0 0 1 1.32-.094"/>
        <g transform="translate(0 -.819)">
            <mask id="b" fill="#fff">
                <use xlink:href="#a"/>
            </mask>
            <path fill="#FFF" d="M155.068 105.03V20.96c0-1.543-.298-3.024-.836-4.38a11.773 11.773 0 0 0-2.282-3.636 11.189 11.189 0 0 0-3.393-2.523 10.444 10.444 0 0 0-4.168-1.029L16.808 4.985c-1.71-.06-3.344.224-4.834.787a12.007 12.007 0 0 0-3.972 2.471 11.575 11.575 0 0 0-3.679 8.489v103.692l20.236-.564 9.508 10.018 9.41-10.544 100.912-2.808a10.402 10.402 0 0 0 4.168-1 11.117 11.117 0 0 0 3.393-2.5 11.68 11.68 0 0 0 2.282-3.622c.538-1.353.836-2.832.836-4.375zm-10.68-99.495c1.987.073 3.877.566 5.592 1.392a15.067 15.067 0 0 1 4.544 3.39 15.908 15.908 0 0 1 4.169 10.745v83.89c0 2.068-.397 4.05-1.117 5.863a15.729 15.729 0 0 1-3.052 4.86 14.946 14.946 0 0 1-4.544 3.361 13.964 13.964 0 0 1-5.591 1.356l-99.084 2.971L34.067 136l-11.378-11.956-22.69.682V16.612c0-2.26.477-4.402 1.336-6.336a15.668 15.668 0 0 1 3.627-5.085 16.144 16.144 0 0 1 5.348-3.316A16.68 16.68 0 0 1 16.808.831l127.58 4.704z" mask="url(#b)"/>
        </g>
    </g>
</svg>
