<svg width="23" height="23" viewBox="0 0 23 23" fill="none" xmlns="http://www.w3.org/2000/svg">
<path d="M5.204 2.479C5.898 2.992 6.461 3.643 6.971 4.499C7.417 5.246 8.408 7.326 7.5 8.5C6.473 9.828 3.5 10.276 3.5 11.5C3.5 12.421 4.804 13.472 5.5 14.5C6.547 16.046 6.071 17.544 5.5 18.5C5.204 18.996 4.731 19.42 4.207 19.734" stroke="#00A04A" stroke-miterlimit="10"/>
<path d="M20.168 4.72706C18.009 5.76206 15.042 6.46106 14.5 6.50006C13.455 6.57506 13.3 5.71606 12.5 4.50006C11.9 3.58806 10.5 2.44706 10.5 1.50006C10.5 1.12906 10.536 0.828058 10.631 0.534058" stroke="#00A04A" stroke-miterlimit="10"/>
<path d="M11.5 22.5C17.5751 22.5 22.5 17.5751 22.5 11.5C22.5 5.42487 17.5751 0.5 11.5 0.5C5.42487 0.5 0.5 5.42487 0.5 11.5C0.5 17.5751 5.42487 22.5 11.5 22.5Z" stroke="#00A04A" stroke-miterlimit="10" stroke-linecap="square"/>
<path d="M18.5138 12.403C18.5558 15.487 14.5418 19.333 12.4998 18.5C10.7098 17.77 11.9728 16.362 11.5138 12.403C11.3228 10.757 13.0808 9.40295 15.0138 9.40295C16.9468 9.40295 18.4918 10.747 18.5138 12.403Z" stroke="#00A04A" stroke-miterlimit="10"/>
</svg>
