<svg width="23" height="23" viewBox="0 0 23 23" fill="none" xmlns="http://www.w3.org/2000/svg">
<path fill-rule="evenodd" clip-rule="evenodd" d="M22 11.5C22 17.299 17.299 22 11.5 22C5.70101 22 1 17.299 1 11.5C1 5.70101 5.70101 1 11.5 1C17.299 1 22 5.70101 22 11.5ZM23 11.5C23 17.8513 17.8513 23 11.5 23C5.14873 23 0 17.8513 0 11.5C0 5.14873 5.14873 0 11.5 0C17.8513 0 23 5.14873 23 11.5ZM10.4949 14.9999H6.79492V8.43994H7.63492V14.2899H10.4949V14.9999ZM14.0177 14.9999H13.0477L10.9577 8.43994H11.8377L12.8977 11.9799C12.9891 12.29 13.0694 12.5747 13.1481 12.8536L13.1482 12.8538L13.1482 12.8539C13.2675 13.2767 13.3831 13.6861 13.5277 14.1499H13.5677C13.7709 13.4978 13.924 12.9532 14.0997 12.3279L14.1977 11.9799L15.2477 8.43994H16.0977L14.0177 14.9999Z" fill="black"/>
</svg>
