<svg xmlns="http://www.w3.org/2000/svg" width="234.875" height="161.188" viewBox="0 0 234.875 161.188">
  <metadata><?xpacket begin="﻿" id="W5M0MpCehiHzreSzNTczkc9d"?>
<x:xmpmeta xmlns:x="adobe:ns:meta/" x:xmptk="Adobe XMP Core 5.6-c138 79.159824, 2016/09/14-01:09:01        ">
   <rdf:RDF xmlns:rdf="http://www.w3.org/1999/02/22-rdf-syntax-ns#">
      <rdf:Description rdf:about=""/>
   </rdf:RDF>
</x:xmpmeta>
                                                                                                    
                                                                                                    
                                                                                                    
                                                                                                    
                                                                                                    
                                                                                                    
                                                                                                    
                                                                                                    
                                                                                                    
                                                                                                    
                                                                                                    
                                                                                                    
                                                                                                    
                                                                                                    
                                                                                                    
                                                                                                    
                                                                                                    
                                                                                                    
                                                                                                    
                                                                                                    
                           
<?xpacket end="w"?></metadata>
<defs>
    <style>
      .cls-1 {
        fill: #dc007c;
        fill-rule: evenodd;
      }
    </style>
  </defs>
  <path id="_404_copy" data-name="404 copy" class="cls-1" d="M462.887,550.008v35.5h-40v-35.5h-67.5v-30l54-93h53.5v90.5h17v32.5h-17Zm-39.5-88q-3,7.254-6.25,14.25t-6.75,14.25l-14.5,27h27v-18q0-4,.125-8.875t0.375-9.875q0.246-5,.5-9.875t0.5-8.875h-1ZM329.632,565.625c-5.817,7.183-12.206,12.949-19.9,16.722s-16.2,6.633-25.341,5.661c-28.258-3-34.18-15.092-39.389-20.008l26-27c6.289,14.112,11.086,13.189,14.389,13.249a14.936,14.936,0,0,0,7.563-1.975q3.582-1.974,6.235-7.768t4.246-16.063c0.508-3.274.3-16.2,0.567-20.443l38.076-36.011A210.424,210.424,0,0,1,345,498c0.548,14.212.627,24.1-2.5,37.24C339.885,546.228,336.755,556.829,329.632,565.625Z" transform="translate(-245 -427)"/>
</svg>
