<svg xmlns="http://www.w3.org/2000/svg" width="251.219" height="159.5" viewBox="0 0 251.219 159.5">
  <metadata><?xpacket begin="﻿" id="W5M0MpCehiHzreSzNTczkc9d"?>
<x:xmpmeta xmlns:x="adobe:ns:meta/" x:xmptk="Adobe XMP Core 5.6-c138 79.159824, 2016/09/14-01:09:01        ">
   <rdf:RDF xmlns:rdf="http://www.w3.org/1999/02/22-rdf-syntax-ns#">
      <rdf:Description rdf:about=""/>
   </rdf:RDF>
</x:xmpmeta>
                                                                                                    
                                                                                                    
                                                                                                    
                                                                                                    
                                                                                                    
                                                                                                    
                                                                                                    
                                                                                                    
                                                                                                    
                                                                                                    
                                                                                                    
                                                                                                    
                                                                                                    
                                                                                                    
                                                                                                    
                                                                                                    
                                                                                                    
                                                                                                    
                                                                                                    
                                                                                                    
                           
<?xpacket end="w"?></metadata>
<defs>
    <style>
      .cls-1 {
        fill: #dc007c;
        fill-rule: evenodd;
      }
    </style>
  </defs>
  <path id="_404" data-name="404" class="cls-1" d="M324.383,474.053c0-.185,0-0.359,0-0.545a168.991,168.991,0,0,0-1.5-25.25q-1.5-9.5-4-14.75t-5.875-6.875a16.433,16.433,0,0,0-14.25,0q-3.375,1.629-5.875,6.875t-4,14.75a168.991,168.991,0,0,0-1.5,25.25,174.26,174.26,0,0,0,1.5,25.5,85.562,85.562,0,0,0,1.772,8.769l-27.432,27.432q-7.848-10.488-12.09-25.951-4.254-15.5-4.25-35.75t4.25-35.625q4.248-15.375,12.125-25.5a51.613,51.613,0,0,1,18.625-15.25,58.465,58.465,0,0,1,47.875,0,50.863,50.863,0,0,1,18.75,15.375q7.833,10.2,12.077,25.34Zm-107.5,77.455h-40v-35.5h-67.5v-30l54-93h53.5v90.5h17v32.5h-17v35.5Zm-39.5-123.5q-3,7.254-6.25,14.25t-6.75,14.25l-14.5,27h27v-18q0-4,.125-8.875t0.375-9.875q0.246-5,.5-9.875t0.5-8.875h-1Z" transform="translate(-109.375 -392)"/>
</svg>
