<?xml version="1.0" encoding="utf-8"?>
<!-- Generator: Adobe Illustrator 15.1.0, SVG Export Plug-In . SVG Version: 6.00 Build 0)  -->
<!DOCTYPE svg PUBLIC "-//W3C//DTD SVG 1.1//EN" "http://www.w3.org/Graphics/SVG/1.1/DTD/svg11.dtd">
<svg version="1.1" id="Isolation_Mode" xmlns="http://www.w3.org/2000/svg" xmlns:xlink="http://www.w3.org/1999/xlink" x="0px"
	 y="0px" width="133.655px" height="62.776px" viewBox="0 0 133.655 62.776" enable-background="new 0 0 133.655 62.776"
	 xml:space="preserve">
<path fill="#ffffff" d="M100.713,35.716c1.468-5.181,6.163-8.968,11.656-8.96c5.487-0.008,10.123,3.779,11.633,8.953L100.713,35.716
	z M133.176,44.21c0.219-1.507,0.479-3.008,0.479-4.547c0-11.93-9.443-22.406-21.241-22.417l-0.045,0.011
	C99.94,17.305,90.37,27.686,90.37,40.288c0,12.4,9.834,22.44,21.899,22.44h0.1c8.294-0.071,16.434-5.597,19.384-12.667
	l-11.566,0.006c-2.202,1.858-5.052,2.979-7.812,2.985c-0.057,0-0.057,0-0.109-0.007c-4.495,0-9.763-2.946-11.363-8.826l11.466-0.01
	H133.176"/>
<rect x="50.098" y="18.39" fill="#ffffff" width="10.397" height="44.37"/>
<polygon fill="#ffffff" points="71.553,27.853 66.511,27.859 66.511,18.39 71.547,18.39 71.547,0.143 81.912,0.143 81.912,18.39 
	88.142,18.383 88.142,27.853 81.912,27.859 81.805,62.76 71.553,62.767 "/>
<path fill="#ffffff" d="M22.642,52.64L10.02,52.646l0.007-12.944c0-7.145,5.628-12.954,12.615-12.954
	c6.943,0,12.59,5.81,12.594,12.948C35.236,46.838,29.591,52.646,22.642,52.64 M44.612,39.844
	c0.003-12.603-9.833-22.777-21.977-22.954l-0.344,0.01c-4.382-0.01-8.423,1.31-11.907,3.521l0.01-20.382H0l0.009,62.737l22.637-0.01
	C34.779,62.555,44.612,52.387,44.612,39.844"/>
<path fill="#ffffff" d="M60.843,5.548c0,3.063-2.486,5.549-5.548,5.549s-5.548-2.485-5.548-5.549C49.747,2.483,52.233,0,55.295,0
	S60.843,2.483,60.843,5.548"/>
</svg>
