<?xml version="1.0" encoding="UTF-8"?>
<svg width="19px" height="22px" viewBox="0 0 19 22" version="1.1" xmlns="http://www.w3.org/2000/svg" xmlns:xlink="http://www.w3.org/1999/xlink">
    <!-- Generator: sketchtool 49.3 (51167) - http://www.bohemiancoding.com/sketch -->
    <title>ED936362-CD46-493C-9AA5-20FB4ACDF5E5</title>
    <desc>Created with sketchtool.</desc>
    <defs></defs>
    <g id="FAQ" stroke="none" stroke-width="1" fill="none" fill-rule="evenodd">
        <g id="Bite---FAQ_02_main" transform="translate(-282.000000, -1044.000000)" fill="#00A14B">
            <g id="Group-19" transform="translate(150.000000, 1044.000000)">
                <g id="Group-16">
                    <g id="icon/downloadPDF" transform="translate(132.000000, 0.000000)">
                        <path d="M1.58333333,20.4285714 L1.58333333,1.57142857 L11.0833333,1.57142857 L11.0833333,6.35092857 C11.0833333,7.21757143 11.7934583,7.92235714 12.6666667,7.92235714 L17.4166667,7.92235714 L17.4166667,20.4285714 L1.58333333,20.4285714 Z M17.0889167,6.07907143 C17.1490833,6.14035714 17.2084583,6.24171429 17.2622917,6.35092857 L12.6666667,6.35092857 L12.6666667,1.71442857 C12.78225,1.76864286 12.889125,1.83228571 12.9524583,1.89592857 L17.0889167,6.07907143 Z M18.218625,4.97828571 L14.0829583,0.795928571 L14.0821667,0.795142857 C13.6261667,0.334714286 12.822625,0 12.171875,0 L1.58333333,0 C0.710125,0 0,0.704785714 0,1.57142857 L0,20.4285714 C0,21.2952143 0.710125,22 1.58333333,22 L17.4166667,22 C18.289875,22 19,21.2952143 19,20.4285714 L19,6.875 C19,6.23385714 18.6714583,5.43557143 18.218625,4.97828571 Z" id="Fill-1"></path>
                        <path d="M13.9886708,14.7996357 C13.8540875,14.7705643 13.5421708,14.5882786 13.1574208,14.3282071 C13.2975458,14.3132786 13.4004625,14.3054214 13.4582542,14.3054214 C14.1889625,14.3054214 14.3971708,14.3769214 14.4478375,14.4845643 C14.4478375,14.70535 14.4478375,14.7964929 13.9886708,14.7996357 M8.88954583,14.2284214 C8.92042083,14.1435643 8.95050417,14.0571357 8.97900417,13.9699214 C9.16267083,13.4230643 9.32812917,12.9319929 9.47537917,12.4904214 C9.6812125,12.71435 9.9020875,12.9445643 10.1395875,13.1794929 C10.2322125,13.2722071 10.4625875,13.47885 10.7689625,13.7381357 C10.1585875,13.8701357 9.5102125,14.0335643 8.88954583,14.2284214 M8.5103375,8.95077857 C8.5103375,7.92149286 8.83175417,7.92149286 9.00512917,7.92149286 C9.35504583,7.92149286 9.49992083,7.92149286 9.49992083,8.90363571 C9.49992083,9.11106429 9.3605875,9.62885 9.1064625,10.43735 C8.71775417,9.84335 8.5103375,9.33499286 8.5103375,8.95077857 M5.04679583,17.7429214 C4.76417083,17.7429214 4.5725875,17.6109214 4.55200417,17.5857786 C4.55200417,17.2377071 5.59779583,16.74585 6.60954583,16.2697071 C6.6744625,16.2390643 6.73937917,16.2092071 6.80587917,16.1777786 C6.06250417,17.2471357 5.3278375,17.7429214 5.04679583,17.7429214 M13.4582542,13.3232786 C13.2587542,13.3232786 12.7227958,13.3814214 12.0229625,13.4984929 C11.5637958,13.1409929 11.1291708,12.7732786 10.8386292,12.4857071 C10.4625875,12.1109214 10.1269208,11.7487071 9.83479583,11.4029929 C10.2900042,10.0075643 10.4895042,9.28706429 10.4895042,8.90363571 C10.4895042,7.27406429 9.89575417,6.93935 9.00512917,6.93935 C8.32825417,6.93935 7.52075417,7.28820714 7.52075417,8.95077857 C7.52075417,9.68385 7.92529583,10.5732786 8.72725417,11.6072786 C8.53012917,12.2012786 8.29975417,12.8864214 8.04087917,13.6595643 C7.9165875,14.0304214 7.7812125,14.3729929 7.63792083,14.6904214 C7.52154583,14.7422786 7.4083375,14.7941357 7.2990875,14.84835 C6.90642083,15.0439929 6.53275417,15.2192071 6.18600417,15.38185 C4.6058375,16.1251357 3.56242083,16.6162071 3.56242083,17.5857786 C3.56242083,18.2889929 4.3327125,18.7250643 5.04679583,18.7250643 C5.9667125,18.7250643 7.3560875,17.5056357 8.3702125,15.4509929 C9.42392083,15.0392786 10.7333375,14.7336357 11.7664625,14.5419214 C12.5953375,15.1744214 13.5105042,15.7786357 13.9530458,15.7786357 C15.1801292,15.7786357 15.4374208,15.0754214 15.4374208,14.4845643 C15.4374208,13.3232786 14.1010875,13.3232786 13.4582542,13.3232786" id="Fill-3"></path>
                    </g>
                </g>
            </g>
        </g>
    </g>
</svg>