<?xml version="1.0" encoding="utf-8"?>
<!-- Generator: Adobe Illustrator 21.0.2, SVG Export Plug-In . SVG Version: 6.00 Build 0)  -->
<svg version="1.1" id="Layer_1" xmlns="http://www.w3.org/2000/svg" xmlns:xlink="http://www.w3.org/1999/xlink" x="0px" y="0px"
	 viewBox="0 0 375 320" style="enable-background:new 0 0 375 320;" xml:space="preserve">
<style type="text/css">
	.st0{fill:none;stroke:#FFFFFF;stroke-width:2;stroke-miterlimit:10;}
	.st1{fill:none;stroke:#FFFFFF;stroke-width:5;stroke-linecap:round;stroke-linejoin:round;stroke-miterlimit:10;}
	.st2{fill:none;stroke:#FFFFFF;stroke-width:2.276;stroke-linecap:round;stroke-miterlimit:10;}
	.st3{fill:none;stroke:#FFFFFF;stroke-width:2.276;stroke-linecap:round;stroke-linejoin:round;stroke-miterlimit:10;}
</style>
<path class="st0" d="M177.3,171.7v36.9c0,5.7-2.3,11.1-6.3,15.2l-52.1,52"/>
<path class="st0" d="M177.3,172.2V91.3c0-5.7,2.3-11.1,6.3-15.2l28.2-28.2"/>
<path class="st0" d="M177.2,171.1c0.4,5.7,3.1,10.9,7.4,14.7l-2-2l81.3,80.9c4,4,9.5,6.3,15.2,6.3H370"/>
<line class="st1" x1="212.6" y1="46.5" x2="212.7" y2="46.5"/>
<line class="st1" x1="117.6" y1="276.5" x2="117.7" y2="276.5"/>
<line class="st1" x1="371.6" y1="270.5" x2="371.7" y2="270.5"/>
<path class="st2" d="M83.1,227h14.3c2,0,3.6,1.6,3.6,3.6v35.5c0,2-1.6,3.6-3.6,3.6H58.3v-39.2c0-2,1.6-3.6,3.6-3.6h5.5"/>
<path class="st2" d="M81.8,224.1c0.8,1.2,1.3,2.7,1.3,4.3v0.3c0,1.3-0.3,2.6-1,3.7L75,246.9l-6.6-14.8c-0.7-1.2-0.9-2.4-0.9-3.7
	c0-4.2,3.4-7.6,7.6-7.6h0.4C78.1,220.8,80.4,222.1,81.8,224.1"/>
<line class="st2" x1="58.1" y1="255.8" x2="101.1" y2="255.8"/>
<path class="st2" d="M89.8,227v29.5c0,2.6-2.1,4.7-4.6,4.7s-4.6,2.1-4.6,4.6v4.2"/>
<line class="st2" x1="69.8" y1="235.2" x2="69.8" y2="269.8"/>
<line class="st3" x1="75.1" y1="228.1" x2="75.5" y2="228.1"/>
<path class="st2" d="M257.4,1.8l-29-0.1c-2.4,0-4.4,2-4.4,4.4l-0.1,20.5h4.2v7.6l10.8-7.5l18.5,0.1c2.4,0,4.4-2,4.4-4.4V6.3
	C261.8,3.8,259.8,1.8,257.4,1.8z"/>
<path class="st2" d="M247.8,36v11.6h14.7l8.2,5.5v-5.5h0.5c2.4,0,4.4-2,4.4-4.4V36c0-2.4-2-4.4-4.4-4.4l-19-0.1
	C249.8,31.6,247.8,33.5,247.8,36z"/>
</svg>
