<?xml version="1.0" encoding="UTF-8"?><!DOCTYPE svg PUBLIC "-//W3C//DTD SVG 1.1//EN" "http://www.w3.org/Graphics/SVG/1.1/DTD/svg11.dtd"><svg xmlns="http://www.w3.org/2000/svg"><defs>
<clipPath id="clip0">
<rect width="28" height="28" fill="transparent"/>
</clipPath>
</defs><symbol id="arrow-down" viewBox="0 0 13 8">
<path fill="transparent" d="M12 1L6.50642 7L1.00292 1" stroke="currentColor" stroke-width="1.5px" stroke-linecap="round"/>
</symbol><symbol id="arrow-right" viewBox="0 0 8 13">
<path fill="transparent" d="M1 1L7 6.49357L1 11.9971" stroke="currentColor" stroke-width="1.5px" stroke-linecap="round"/>
</symbol><symbol id="border-arrow-top" viewBox="0 0 320 7">
<path opacity="0.5" d="M0 6.5H90L95.5 1L101 6.5H319.5" stroke="white"/>
</symbol><symbol id="cart" viewBox="0 0 23 22">
<path fill-rule="evenodd" clip-rule="evenodd" d="M3 2H0V0H3C3.91703 0 5.91523 0.537807 6.47014 2.75746C6.58888 3.23243 6.76279 4.03878 6.96053 5H22C22.3214 5 22.6233 5.15452 22.8112 5.41529C22.9992 5.67606 23.0503 6.01128 22.9487 6.31623C22.6867 7.10216 22.302 8.39883 21.9038 9.74099C21.8056 10.0721 21.7066 10.4059 21.6084 10.7356C21.3624 11.5608 21.1226 12.3562 20.9185 12.9972C20.7258 13.602 20.5369 14.1622 20.3944 14.4472C20.3885 14.4592 20.3825 14.4712 20.3764 14.4832C20.2674 14.7015 20.1487 14.9391 20.0196 15.1328C19.8644 15.3655 19.6512 15.6049 19.3222 15.7694C19.0211 15.92 18.7086 15.9631 18.4462 15.9818C18.1914 16 17.8796 16 17.5326 16L8.97202 16C8.74512 16 8.49868 16.0001 8.28009 15.9803C8.04955 15.9595 7.75163 15.9102 7.46223 15.7506C6.80624 15.3886 6.61642 14.7138 6.51713 14.1843C6.38337 13.4709 6.20825 12.3756 6.01818 11.1869C5.97642 10.9257 5.93395 10.6601 5.89103 10.393C5.65032 8.89475 5.39423 7.34086 5.16347 6.19791C4.89777 4.88197 4.66738 3.79264 4.52986 3.24254C4.28477 2.26219 3.4163 2 3 2ZM7.35052 7C7.52311 7.96175 7.69975 9.0428 7.86571 10.0757C7.90975 10.3498 7.953 10.6202 7.99522 10.8843C8.18522 12.0724 8.35457 13.1314 8.48287 13.8157C8.49679 13.89 8.50991 13.948 8.52145 13.9929C8.63227 13.9994 8.77791 14 9 14H17.5C17.8899 14 18.129 13.9994 18.3038 13.9869C18.3358 13.9846 18.3619 13.9821 18.383 13.9797C18.4302 13.9007 18.4927 13.7785 18.6056 13.5528C18.6631 13.4378 18.8033 13.048 19.0128 12.3903C19.2107 11.7688 19.4459 10.9892 19.6916 10.1644C19.7867 9.84553 19.8834 9.5193 19.9802 9.19317C20.2066 8.42986 20.4329 7.66709 20.6363 7H7.35052Z" fill="currentColor"/>
<path d="M11 20C11 21.1046 10.1046 22 9 22C7.89543 22 7 21.1046 7 20C7 18.8954 7.89543 18 9 18C10.1046 18 11 18.8954 11 20Z" fill="currentColor"/>
<path d="M20 20C20 21.1046 19.1046 22 18 22C16.8954 22 16 21.1046 16 20C16 18.8954 16.8954 18 18 18C19.1046 18 20 18.8954 20 20Z" fill="currentColor"/>
</symbol><symbol id="clock" viewBox="0 0 40 40">
<circle cx="19.5" cy="20.5" r="9" stroke="currentColor" fill="transparent"/>
<path d="M14.0221 12.853C13.9409 13.1169 14.089 13.3967 14.353 13.4779C14.6169 13.5591 14.8967 13.411 14.9779 13.147L14.0221 12.853ZM16.5 6.5V6C16.2805 6 16.0867 6.14316 16.0221 6.35296L16.5 6.5ZM22.5 6.5L22.9779 6.35296C22.9133 6.14316 22.7195 6 22.5 6V6.5ZM24.0221 13.147C24.1033 13.411 24.3831 13.5591 24.647 13.4779C24.911 13.3967 25.0591 13.1169 24.9779 12.853L24.0221 13.147ZM14.9779 13.147L16.9779 6.64704L16.0221 6.35296L14.0221 12.853L14.9779 13.147ZM16.5 7H22.5V6H16.5V7ZM22.0221 6.64704L24.0221 13.147L24.9779 12.853L22.9779 6.35296L22.0221 6.64704Z" fill="currentColor"/>
<path d="M24.9779 28.147C25.0591 27.8831 24.911 27.6033 24.647 27.5221C24.3831 27.4409 24.1033 27.589 24.0221 27.853L24.9779 28.147ZM22.5 34.5L22.5 35C22.7195 35 22.9133 34.8568 22.9779 34.647L22.5 34.5ZM16.5 34.5L16.0221 34.647C16.0867 34.8568 16.2805 35 16.5 35L16.5 34.5ZM14.9779 27.853C14.8967 27.589 14.6169 27.4409 14.353 27.5221C14.089 27.6033 13.9409 27.8831 14.0221 28.147L14.9779 27.853ZM24.0221 27.853L22.0221 34.353L22.9779 34.647L24.9779 28.147L24.0221 27.853ZM22.5 34L16.5 34L16.5 35L22.5 35L22.5 34ZM16.9779 34.353L14.9779 27.853L14.0221 28.147L16.0221 34.647L16.9779 34.353Z" fill="currentColor"/>
<path d="M19.5 20.5V16.5" stroke="currentColor" stroke-linecap="round" stroke-linejoin="round"/>
<path d="M30.5 21.5L30.5 19.5" stroke="currentColor" stroke-linecap="round" stroke-linejoin="round"/>
<path d="M19.5 20.5L23.5 20.5" stroke="currentColor" stroke-linecap="round" stroke-linejoin="round"/>
</symbol><symbol id="close" viewBox="0 0 23 23">
<path fill-rule="evenodd" clip-rule="evenodd" d="M19.5,4.7c0.3-0.3,0.3-0.7,0-1s-0.7-0.3-1,0l-6.9,6.9l-7-7c-0.3-0.3-0.7-0.3-1,0s-0.3,0.7,0,1l6.9,6.9l-6.9,6.9
    c-0.3,0.3-0.3,0.7,0,1s0.7,0.3,1,0l6.9-6.9l6.9,6.9c0.3,0.3,0.7,0.3,1,0s0.3-0.7,0-1l-6.9-6.9L19.5,4.7z" fill="currentColor"/>
</symbol><symbol id="corner-right" viewBox="0 0 4 4">
<path d="M4 4H0C2.20914 4 4 2.20914 4 0V4Z" fill="white"/>
</symbol><symbol id="desktop-menu-close" viewBox="0 0 10 10">
<path d="M0.292893 8.29289C-0.0976311 8.68342 -0.0976311 9.31658 0.292893 9.70711C0.683417 10.0976 1.31658 10.0976 1.70711 9.70711L0.292893 8.29289ZM9.70711 1.70711C10.0976 1.31658 10.0976 0.683417 9.70711 0.292893C9.31658 -0.0976311 8.68342 -0.0976311 8.29289 0.292893L9.70711 1.70711ZM1.70711 9.70711L9.70711 1.70711L8.29289 0.292893L0.292893 8.29289L1.70711 9.70711Z" fill="currentColor"/>
<path d="M1.70711 0.292893C1.31658 -0.0976314 0.683419 -0.0976315 0.292894 0.292893C-0.0976295 0.683417 -0.0976296 1.31658 0.292894 1.70711L1.70711 0.292893ZM8.29289 9.70711C8.68342 10.0976 9.31658 10.0976 9.70711 9.70711C10.0976 9.31658 10.0976 8.68342 9.70711 8.29289L8.29289 9.70711ZM0.292894 1.70711L8.29289 9.70711L9.70711 8.29289L1.70711 0.292893L0.292894 1.70711Z" fill="currentColor"/>
</symbol><symbol id="first-filter" viewBox="0 0 40 40">
<path fill="transparent" d="M12.6818 12.5V28.5" stroke="currentColor" stroke-miterlimit="10" stroke-linecap="round" stroke-linejoin="round"/>
<path fill="transparent" d="M8.5 28.5H31.5V12.5H27.8409L24.1818 9.5H20L16.8636 12.5H8.5V28.5Z" stroke="currentColor" stroke-miterlimit="10" stroke-linecap="round" stroke-linejoin="round"/>
<circle fill="transparent" cx="22.5" cy="20.5" r="4" stroke="currentColor"/>
</symbol><symbol id="fixed-plans" viewBox="0 0 40 40">
<path fill="transparent" d="M20.5 9.5V31.5" stroke="currentColor" stroke-miterlimit="10"/>
<path fill="transparent" d="M9.5 20.5H31.5" stroke="currentColor" stroke-miterlimit="10"/>
<path fill="transparent" d="M20.5 31.5C23.5376 31.5 26 26.5751 26 20.5C26 14.4249 23.5376 9.5 20.5 9.5C17.4624 9.5 15 14.4249 15 20.5C15 26.5751 17.4624 31.5 20.5 31.5Z" stroke="currentColor" stroke-miterlimit="10" stroke-linecap="square"/>
<path fill="transparent" d="M20.5 31.5C26.5751 31.5 31.5 26.5751 31.5 20.5C31.5 14.4249 26.5751 9.5 20.5 9.5C14.4249 9.5 9.5 14.4249 9.5 20.5C9.5 26.5751 14.4249 31.5 20.5 31.5Z" stroke="currentColor" stroke-miterlimit="10" stroke-linecap="square"/>
</symbol><symbol id="gamepad" viewBox="0 0 40 40">
<path fill-rule="evenodd" clip-rule="evenodd" d="M26 7.99963C26 7.72349 25.7761 7.49963 25.5 7.49963C25.2239 7.49963 25 7.72349 25 7.99963C25 8.33083 24.9313 8.52613 24.8578 8.64309C24.7865 8.7566 24.6876 8.83352 24.5564 8.88864C24.285 9.00261 23.9536 9.00129 23.612 8.99993L23.5 8.99963H21.5C21.1951 8.99963 20.9164 9.05255 20.6791 9.18443C20.433 9.32112 20.2707 9.52081 20.1698 9.74273C20.0738 9.95402 20.0354 10.1804 20.0175 10.3841C20 10.5841 20 10.7964 20 10.9883V10.9883V10.9883V10.9883V10.9883V10.9883V10.9996V11.0043V11.009V11.0137V11.0184V11.0231V11.0278V11.0325V11.0372V11.0419V11.0466V11.0513V11.056V11.0607V11.0654V11.0701V11.0748V11.0795V11.0842V11.0889V11.0937V11.0984V11.1031V11.1078V11.1125V11.1172V11.1219V11.1267V11.1314V11.1361V11.1408V11.1455V11.1503V11.155V11.1597V11.1644V11.1692V11.1739V11.1786V11.1833V11.1881V11.1928V11.1975V11.2023V11.207V11.2117V11.2164V11.2212V11.2259V11.2306V11.2354V11.2401V11.2448V11.2495V11.2543V11.259V11.2637V11.2685V11.2732V11.2779V11.2827V11.2874V11.2921V11.2969V11.3016V11.3063V11.311V11.3158V11.3205V11.3252V11.33V11.3347V11.3394V11.3441V11.3489V11.3536V11.3583V11.3631V11.3678V11.3725V11.3772V11.382V11.3867V11.3914V11.3961V11.4008V11.4056V11.4103V11.415V11.4197V11.4244V11.4291V11.4339V11.4386V11.4433V11.448V11.4527V11.4574V11.4621V11.4668V11.4715V11.4762V11.481V11.4857V11.4904V11.4951V11.4998V11.5045V11.5092V11.5138V11.5185V11.5232V11.5279V11.5326V11.5373V11.542V11.5467V11.5514V11.556V11.5607V11.5654V11.5701V11.5747V11.5794V11.5841V11.5888V11.5934V11.5981V11.6028V11.6074V11.6121V11.6167V11.6214V11.626V11.6307V11.6354V11.64V11.6446V11.6493V11.6539V11.6586V11.6632V11.6678V11.6725V11.6771V11.6817V11.6864V11.691V11.6956V11.7002V11.7048V11.7095V11.7141V11.7187V11.7233V11.7279V11.7325V11.7371V11.7417V11.7463V11.7509V11.7554V11.76V11.7646V11.7692V11.7738V11.7783V11.7829V11.7875V11.792V11.7966V11.8012V11.8057V11.8103V11.8148V11.8194V11.8239V11.8284V11.833V11.8375V11.842V11.8466V11.8511V11.8556V11.8601V11.8646V11.8691V11.8736V11.8781V11.8826V11.8871V11.8916V11.8961V11.9006V11.9051V11.9096V11.914V11.9185V11.923V11.9274V11.9319V11.9363V11.9408V11.9452V11.9497V11.9541V11.9586V11.963V11.9674V11.9718V11.9763V11.9807V11.9851V11.9895V11.9939V11.9983V12.0027V12.0071V12.0115V12.0158V12.0202V12.0246V12.0289V12.0333V12.0377V12.042V12.0464V12.0507V12.0551V12.0594V12.0637V12.0681V12.0724V12.0767V12.081V12.0853V12.0896V12.0939V12.0982V12.1025V12.1068V12.1111V12.1153V12.1196V12.1239V12.1281V12.1324V12.1366V12.1409V12.1451V12.1493V12.1536V12.1578V12.162V12.1662V12.1704V12.1746V12.1788V12.183V12.1872V12.1914V12.1956V12.1997V12.2039V12.2081V12.2122V12.2164V12.2205V12.2246V12.2288V12.2329V12.237V12.2411V12.2452V12.2493V12.2534V12.2575V12.2616V12.2657V12.2697V12.2738V12.2779V12.2819V12.286V12.29V12.2941V12.2981V12.3021V12.3061V12.3101V12.3141V12.3181V12.3221V12.3261V12.3301V12.3341V12.338V12.342V12.346V12.3499V12.3538V12.3578V12.3617V12.3656V12.3695V12.3735V12.3774V12.3813V12.3851V12.389V12.3929V12.3968V12.4006V12.4045V12.4083V12.4122V12.416V12.4198V12.4237V12.4275V12.4313V12.4351V12.4389V12.4426V12.4464V12.4502V12.454V12.4577V12.4615V12.4652V12.4689V12.4727V12.4764V12.4801V12.4838V12.4875V12.4912V12.4949V12.4985V12.5022V12.5059V12.5095V12.5132V12.5168V12.5204V12.5241V12.5277V12.5313V12.5349V12.5385V12.5421V12.5456V12.5492V12.5528V12.5563V12.5598V12.5634V12.5669V12.5704V12.5739V12.5774V12.5809V12.5844V12.5879V12.5914V12.5948V12.5983V12.6017V12.6052V12.6086V12.612V12.6154V12.6188V12.6222V12.6256V12.629V12.6324V12.6357V12.6391V12.6424V12.6458V12.6491V12.6524V12.6557V12.659V12.6623V12.6656V12.6689V12.6721V12.6754V12.6786V12.6819V12.6851V12.6883V12.6915V12.6947V12.6979V12.7011V12.7043V12.7074V12.7106V12.7137V12.7169V12.72V12.7231V12.7262V12.7293V12.7324V12.7355V12.7386V12.7417V12.7447V12.7478V12.7508V12.7538V12.7568V12.7598V12.7628V12.7658V12.7688V12.7718V12.7747V12.7777V12.7806V12.7835V12.7865V12.7894V12.7923V12.7952V12.798V12.8009V12.8038V12.8066V12.8094V12.8123V12.8151V12.8179V12.8207V12.8235V12.8263V12.829V12.8318V12.8345V12.8373V12.84V12.8427V12.8454V12.8481V12.8508V12.8535V12.8561V12.8588V12.8614V12.8641V12.8667V12.8693V12.8719V12.8745V12.8771V12.8796V12.8822V12.8847V12.8873V12.8898V12.8923V12.8948V12.8973V12.8998V12.9023V12.9047V12.9072V12.9096V12.912V12.9144V12.9168V12.9192V12.9216V12.924V12.9263V12.9287V12.931V12.9334V12.9357V12.938V12.9403V12.9425V12.9448V12.9471V12.9493V12.9515V12.9538V12.956V12.9582V12.9604V12.9625V12.9647V12.9668V12.969V12.9711V12.9732V12.9753V12.9774V12.9795V12.9816V12.9836V12.9857V12.9877V12.9897V12.9917V12.9937V12.9957V12.9977V12.9996V13H14.14C13.0896 13 12.0851 13.2235 11.2225 13.9221C10.3674 14.6145 9.71457 15.7231 9.25544 17.3654C8.87656 18.7206 8.54797 19.9206 8.26874 20.9403L8.26872 20.9404L8.2687 20.9404C7.82472 22.5618 7.50553 23.7275 7.3074 24.3367C7.03957 25.0717 6.8476 26.2287 7.16481 27.3375C7.49515 28.4923 8.36527 29.5406 10.1024 29.9844C11.8705 30.4362 13.1959 29.8129 14.0943 28.8237C14.8493 27.9924 15.3025 26.9096 15.5237 26H20.4999H20.4999H25.4761C25.6973 26.9096 26.1505 27.9924 26.9055 28.8237C27.8039 29.8129 29.1293 30.4362 30.8974 29.9844C32.6345 29.5406 33.5047 28.4923 33.835 27.3375C34.1522 26.2287 33.9602 25.0717 33.6924 24.3367C33.4943 23.7275 33.1751 22.562 32.7312 20.9407L32.7311 20.9403L32.7309 20.9398C32.4517 19.9202 32.1232 18.7204 31.7444 17.3654C31.2852 15.7231 30.6324 14.6145 29.7773 13.9221C28.9147 13.2235 27.9102 13 26.8598 13H21C21 12.9999 21 12.9998 21 12.9996V12.9977V12.9957V12.9937V12.9917V12.9897V12.9877V12.9857V12.9836V12.9816V12.9795V12.9774V12.9753V12.9732V12.9711V12.969V12.9668V12.9647V12.9625V12.9604V12.9582V12.956V12.9538V12.9515V12.9493V12.9471V12.9448V12.9425V12.9403V12.938V12.9357V12.9334V12.931V12.9287V12.9263V12.924V12.9216V12.9192V12.9168V12.9144V12.912V12.9096V12.9072V12.9047V12.9023V12.8998V12.8973V12.8948V12.8923V12.8898V12.8873V12.8847V12.8822V12.8796V12.8771V12.8745V12.8719V12.8693V12.8667V12.8641V12.8614V12.8588V12.8561V12.8535V12.8508V12.8481V12.8454V12.8427V12.84V12.8373V12.8345V12.8318V12.829V12.8263V12.8235V12.8207V12.8179V12.8151V12.8123V12.8094V12.8066V12.8038V12.8009V12.798V12.7952V12.7923V12.7894V12.7865V12.7835V12.7806V12.7777V12.7747V12.7718V12.7688V12.7658V12.7628V12.7598V12.7568V12.7538V12.7508V12.7478V12.7447V12.7417V12.7386V12.7355V12.7324V12.7293V12.7262V12.7231V12.72V12.7169V12.7137V12.7106V12.7074V12.7043V12.7011V12.6979V12.6947V12.6915V12.6883V12.6851V12.6819V12.6786V12.6754V12.6721V12.6689V12.6656V12.6623V12.659V12.6557V12.6524V12.6491V12.6458V12.6424V12.6391V12.6357V12.6324V12.629V12.6256V12.6222V12.6188V12.6154V12.612V12.6086V12.6052V12.6017V12.5983V12.5948V12.5914V12.5879V12.5844V12.5809V12.5774V12.5739V12.5704V12.5669V12.5634V12.5598V12.5563V12.5528V12.5492V12.5456V12.5421V12.5385V12.5349V12.5313V12.5277V12.5241V12.5204V12.5168V12.5132V12.5095V12.5059V12.5022V12.4985V12.4949V12.4912V12.4875V12.4838V12.4801V12.4764V12.4727V12.4689V12.4652V12.4615V12.4577V12.454V12.4502V12.4464V12.4426V12.4389V12.4351V12.4313V12.4275V12.4237V12.4198V12.416V12.4122V12.4083V12.4045V12.4006V12.3968V12.3929V12.389V12.3851V12.3813V12.3774V12.3735V12.3695V12.3656V12.3617V12.3578V12.3538V12.3499V12.346V12.342V12.338V12.3341V12.3301V12.3261V12.3221V12.3181V12.3141V12.3101V12.3061V12.3021V12.2981V12.2941V12.29V12.286V12.2819V12.2779V12.2738V12.2697V12.2657V12.2616V12.2575V12.2534V12.2493V12.2452V12.2411V12.237V12.2329V12.2288V12.2246V12.2205V12.2164V12.2122V12.2081V12.2039V12.1997V12.1956V12.1914V12.1872V12.183V12.1788V12.1746V12.1704V12.1662V12.162V12.1578V12.1536V12.1493V12.1451V12.1409V12.1366V12.1324V12.1281V12.1239V12.1196V12.1153V12.1111V12.1068V12.1025V12.0982V12.0939V12.0896V12.0853V12.081V12.0767V12.0724V12.0681V12.0637V12.0594V12.0551V12.0507V12.0464V12.042V12.0377V12.0333V12.0289V12.0246V12.0202V12.0158V12.0115V12.0071V12.0027V11.9983V11.9939V11.9895V11.9851V11.9807V11.9763V11.9718V11.9674V11.963V11.9586V11.9541V11.9497V11.9452V11.9408V11.9363V11.9319V11.9274V11.923V11.9185V11.914V11.9096V11.9051V11.9006V11.8961V11.8916V11.8871V11.8826V11.8781V11.8736V11.8691V11.8646V11.8601V11.8556V11.8511V11.8466V11.842V11.8375V11.833V11.8284V11.8239V11.8194V11.8148V11.8103V11.8057V11.8012V11.7966V11.792V11.7875V11.7829V11.7783V11.7738V11.7692V11.7646V11.76V11.7554V11.7509V11.7463V11.7417V11.7371V11.7325V11.7279V11.7233V11.7187V11.7141V11.7095V11.7048V11.7002V11.6956V11.691V11.6864V11.6817V11.6771V11.6725V11.6678V11.6632V11.6586V11.6539V11.6493V11.6446V11.64V11.6354V11.6307V11.626V11.6214V11.6167V11.6121V11.6074V11.6028V11.5981V11.5934V11.5888V11.5841V11.5794V11.5747V11.5701V11.5654V11.5607V11.556V11.5514V11.5467V11.542V11.5373V11.5326V11.5279V11.5232V11.5185V11.5138V11.5092V11.5045V11.4998V11.4951V11.4904V11.4857V11.481V11.4762V11.4715V11.4668V11.4621V11.4574V11.4527V11.448V11.4433V11.4386V11.4339V11.4291V11.4244V11.4197V11.415V11.4103V11.4056V11.4008V11.3961V11.3914V11.3867V11.382V11.3772V11.3725V11.3678V11.3631V11.3583V11.3536V11.3489V11.3441V11.3394V11.3347V11.33V11.3252V11.3205V11.3158V11.311V11.3063V11.3016V11.2969V11.2921V11.2874V11.2827V11.2779V11.2732V11.2685V11.2637V11.259V11.2543V11.2495V11.2448V11.2401V11.2354V11.2306V11.2259V11.2212V11.2164V11.2117V11.207V11.2023V11.1975V11.1928V11.1881V11.1833V11.1786V11.1739V11.1692V11.1644V11.1597V11.155V11.1503V11.1455V11.1408V11.1361V11.1314V11.1267V11.1219V11.1172V11.1125V11.1078V11.1031V11.0984V11.0937V11.0889V11.0842V11.0795V11.0748V11.0701V11.0654V11.0607V11.056V11.0513V11.0466V11.0419V11.0372V11.0325V11.0278V11.0231V11.0184V11.0137V11.009V11.0043V10.9996C21 10.7945 21.0004 10.6237 21.0137 10.4715C21.0271 10.3189 21.0512 10.2203 21.0802 10.1565C21.1043 10.1035 21.1295 10.0781 21.1647 10.0586C21.2086 10.0342 21.3049 9.99963 21.5 9.99963H23.5C23.5305 9.99963 23.5649 10 23.6026 10.0005C23.9183 10.0041 24.468 10.0104 24.9436 9.81062C25.229 9.69075 25.5051 9.49267 25.7047 9.17493C25.9021 8.86064 26 8.46844 26 7.99963ZM20.4999 14H14.14C13.2334 14 12.4798 14.1907 11.8518 14.6992C11.2162 15.2139 10.6461 16.1053 10.2185 17.6346C9.84912 18.9559 9.52488 20.1398 9.24668 21.1556L9.24664 21.1557C8.79209 22.8155 8.46041 24.0265 8.25542 24.655C8.25354 24.6608 8.25155 24.6665 8.24946 24.6722C8.02976 25.271 7.88212 26.2091 8.12624 27.0625C8.35851 27.8744 8.95607 28.6594 10.35 29.0156C11.7129 29.3638 12.6706 28.9038 13.354 28.1513C14.0628 27.371 14.4739 26.2685 14.6261 25.4124C14.6686 25.1738 14.8761 25 15.1184 25H20.4999H20.4999H25.8814C26.1237 25 26.3312 25.1738 26.3737 25.4124C26.5259 26.2685 26.937 27.371 27.6458 28.1513C28.3292 28.9038 29.2869 29.3638 30.6498 29.0156C32.0437 28.6594 32.6413 27.8744 32.8736 27.0625C33.1177 26.2091 32.97 25.271 32.7503 24.6722C32.7482 24.6665 32.7463 24.6608 32.7444 24.655C32.5394 24.0266 32.2077 22.8156 31.7532 21.156L31.7532 21.1557C31.4749 20.1399 31.1507 18.9559 30.7813 17.6346C30.3537 16.1053 29.7836 15.2139 29.148 14.6992C28.52 14.1907 27.7664 14 26.8598 14H20.4999H20.4999ZM16 17.4996C16 17.2235 15.7761 16.9996 15.5 16.9996C15.2238 16.9996 15 17.2235 15 17.4996V18.9996H13.5C13.2238 18.9996 13 19.2235 13 19.4996C13 19.7758 13.2238 19.9996 13.5 19.9996H15V21.4996C15 21.7758 15.2238 21.9996 15.5 21.9996C15.7761 21.9996 16 21.7758 16 21.4996V19.9996H17.5C17.7761 19.9996 18 19.7758 18 19.4996C18 19.2235 17.7761 18.9996 17.5 18.9996H16V17.4996ZM26 19.4996C26 20.3281 25.3284 20.9996 24.5 20.9996C23.6715 20.9996 23 20.3281 23 19.4996C23 18.6712 23.6715 17.9996 24.5 17.9996C25.3284 17.9996 26 18.6712 26 19.4996ZM27 19.4996C27 20.8803 25.8807 21.9996 24.5 21.9996C23.1193 21.9996 22 20.8803 22 19.4996C22 18.1189 23.1193 16.9996 24.5 16.9996C25.8807 16.9996 27 18.1189 27 19.4996Z" fill="currentColor"/>
</symbol><symbol id="go-plans" viewBox="0 0 40 40">
<path fill="transparent" d="M20.5 31.5H12.5C12.2348 31.5 11.9804 31.3946 11.7929 31.2071C11.6054 31.0196 11.5 30.7652 11.5 30.5V18.5C11.5 18.2348 11.6054 17.9804 11.7929 17.7929C11.9804 17.6054 12.2348 17.5 12.5 17.5H20.5C20.7652 17.5 21.0196 17.6054 21.2071 17.7929C21.3946 17.9804 21.5 18.2348 21.5 18.5V30.5C21.5 30.7652 21.3946 31.0196 21.2071 31.2071C21.0196 31.3946 20.7652 31.5 20.5 31.5Z" stroke="currentColor" stroke-miterlimit="10" stroke-linecap="square"/>
<path fill="transparent" d="M25.5 18.5C25.5 17.1739 24.9732 15.9021 24.0355 14.9645C23.0979 14.0268 21.8261 13.5 20.5 13.5" stroke="currentColor" stroke-miterlimit="10" stroke-linecap="square"/>
<path fill="transparent" d="M29.5 18.5C29.5 16.1131 28.5518 13.8239 26.864 12.136C25.1761 10.4482 22.8869 9.5 20.5 9.5" stroke="currentColor" stroke-miterlimit="10" stroke-linecap="square"/>
<path fill="transparent" d="M11.5 27.5H21.5" stroke="currentColor" stroke-miterlimit="10"/>
</symbol><symbol id="heart" viewBox="0 0 28 28">
<g clip-path="url(#clip0)">
<path fill="transparent" d="M24.5545 5.13099C21.879 2.45552 17.5404 2.45552 14.865 5.13099C14.535 5.46093 14.2487 5.81682 13.9999 6.1903C13.7512 5.81682 13.4649 5.46093 13.1349 5.13183C10.4595 2.45636 6.12092 2.45636 3.44545 5.13183C0.769975 7.8073 0.769975 12.1458 3.44545 14.8213L13.9999 25.375L24.5545 14.8205C27.2299 12.145 27.2299 7.8073 24.5545 5.13099Z" stroke="currentColor" stroke-width="3" stroke-miterlimit="10" stroke-linecap="square"/>
</g>

</symbol><symbol id="hockey" viewBox="0 0 18 18">
<path d="M17.5673 0.0683068C17.1963 -0.10538 16.7589 0.0635811 16.5902 0.445691L10.7146 14.96H3.47571C2.6607 14.96 2 15.6405 2 16.4799C2 17.3194 2.6607 17.9999 3.47571 17.9999H11.0815L12.2547 15.1432L17.9337 1.07467C18.1023 0.692555 17.9383 0.241993 17.5673 0.0683068Z" fill="currentColor"/>
<path d="M0 11V10C0 9.44771 1.34315 9 3 9C4.65685 9 6 9.44771 6 10V11C6 11.5523 4.65685 12 3 12C1.34315 12 0 11.5523 0 11Z" fill="currentColor"/>
</symbol><symbol id="iot-area" viewBox="0 0 40 40">
<path fill="transparent" d="M13.737 24.438L10.636 29.607C10.194 30.344 10.826 31.259 11.672 31.105L20.5 29.5L29.328 31.105C30.174 31.259 30.807 30.344 30.364 29.607L27.262 24.437" stroke="currentColor" stroke-miterlimit="10"/>
<path fill="transparent" d="M20.5 27.5C25.4706 27.5 29.5 23.4706 29.5 18.5C29.5 13.5294 25.4706 9.5 20.5 9.5C15.5294 9.5 11.5 13.5294 11.5 18.5C11.5 23.4706 15.5294 27.5 20.5 27.5Z" stroke="currentColor" stroke-miterlimit="10" stroke-linecap="square"/>
<path fill="transparent" d="M20.5 23.5C22.7091 23.5 24.5 21.7091 24.5 19.5C24.5 17.2909 22.7091 15.5 20.5 15.5C18.2909 15.5 16.5 17.2909 16.5 19.5C16.5 21.7091 18.2909 23.5 20.5 23.5Z" stroke="currentColor" stroke-miterlimit="10" stroke-linecap="square"/>
<path fill="transparent" d="M20.5 20.5C21.0523 20.5 21.5 20.0523 21.5 19.5C21.5 18.9477 21.0523 18.5 20.5 18.5C19.9477 18.5 19.5 18.9477 19.5 19.5C19.5 20.0523 19.9477 20.5 20.5 20.5Z"/>
</symbol><symbol id="iot-myki" viewBox="0 0 40 40">
<path fill="transparent" d="M26.5 28.5H14.5C13.395 28.5 12.5 27.605 12.5 26.5V14.5C12.5 13.395 13.395 12.5 14.5 12.5H26.5C27.605 12.5 28.5 13.395 28.5 14.5V26.5C28.5 27.605 27.605 28.5 26.5 28.5Z" stroke="currentColor" stroke-miterlimit="10" stroke-linecap="square"/>
<path fill="transparent" d="M28.5 18.5H30.5V22.5H28.5" stroke="currentColor" stroke-miterlimit="10" stroke-linecap="square"/>
<path fill="transparent" d="M20.5 16.5V20.5H24.5" stroke="currentColor" stroke-miterlimit="10" stroke-linecap="square"/>
<path fill="transparent" d="M14.5 9.5H26.5" stroke="currentColor" stroke-miterlimit="10" stroke-linecap="square"/>
<path fill="transparent" d="M14.5 31.5H26.5" stroke="currentColor" stroke-miterlimit="10" stroke-linecap="square"/>
</symbol><symbol id="laptop" viewBox="0 0 40 40">
<path d="M9.5 10.5V10C9.22386 10 9 10.2239 9 10.5H9.5ZM30.5 10.5H31C31 10.2239 30.7761 10 30.5 10V10.5ZM6.5 28.5L6.05279 28.2764C5.97529 28.4314 5.98357 28.6155 6.07467 28.7629C6.16578 28.9103 6.32671 29 6.5 29V28.5ZM33.5 28.5V29C33.6733 29 33.8342 28.9103 33.9253 28.7629C34.0164 28.6155 34.0247 28.4314 33.9472 28.2764L33.5 28.5ZM14.5 25C14.2239 25 14 25.2239 14 25.5C14 25.7761 14.2239 26 14.5 26V25ZM22.5 26C22.7761 26 23 25.7761 23 25.5C23 25.2239 22.7761 25 22.5 25V26ZM28.5 26C28.7761 26 29 25.7761 29 25.5C29 25.2239 28.7761 25 28.5 25V26ZM27.5 25C27.2239 25 27 25.2239 27 25.5C27 25.7761 27.2239 26 27.5 26V25ZM25.5 26C25.7761 26 26 25.7761 26 25.5C26 25.2239 25.7761 25 25.5 25V26ZM24.5 25C24.2239 25 24 25.2239 24 25.5C24 25.7761 24.2239 26 24.5 26V25ZM12.5 26C12.7761 26 13 25.7761 13 25.5C13 25.2239 12.7761 25 12.5 25V26ZM11.5 25C11.2239 25 11 25.2239 11 25.5C11 25.7761 11.2239 26 11.5 26V25ZM10 22.5V10.5H9V22.5H10ZM9.5 11H30.5V10H9.5V11ZM30 10.5V22.5H31V10.5H30ZM30.5 22H9.5V23H30.5V22ZM9.05279 22.2764L6.05279 28.2764L6.94721 28.7236L9.94721 22.7236L9.05279 22.2764ZM6.5 29H33.5V28H6.5V29ZM33.9472 28.2764L30.9472 22.2764L30.0528 22.7236L33.0528 28.7236L33.9472 28.2764ZM14.5 26H22.5V25H14.5V26ZM28.5 25H27.5V26H28.5V25ZM25.5 25H24.5V26H25.5V25ZM12.5 25H11.5V26H12.5V25Z" fill="currentColor"/>
</symbol><symbol id="logo" viewBox="0 0 18 18">
<path d="M8.97125 12.6261H6.04712V9.7018C6.04712 8.08694 7.3563 6.77783 8.97125 6.77783C10.5862 6.77783 11.8954 8.08694 11.8954 9.7018C11.8955 11.3168 10.5863 12.6261 8.97125 12.6261Z" fill="currentColor"/>
<path d="M6.23085 0V6.59613C6.96565 5.93835 7.93618 5.53839 9 5.53839C11.2941 5.53839 13.1539 7.39813 13.1539 9.69235C13.1539 11.9864 11.2941 13.846 9 13.846H4.84614V0H2.76915C1.23979 0 0 1.23979 0 2.76912L0.000276031 18L15.2309 17.9999C16.7602 17.9999 18 16.7601 18 15.2307V2.76912C18 1.23979 16.7602 0 15.2309 0H6.23085Z" fill="currentColor"/>
</symbol><symbol id="logout" viewBox="0 0 16 16">
<path d="M3.4 2H8V4H10V1C10 0.4 9.6 0 9 0H1C0.4 0 0 0.4 0 1V10C0 10.3 0.1 10.5 0.3 10.7L5.3 15.7C5.5 15.9 5.7 16 6 16C6.1 16 6.3 16 6.4 15.9C6.8 15.8 7 15.4 7 15V6C7 5.7 6.9 5.5 6.7 5.3L3.4 2ZM5 12.6L2 9.6V3.4L5 6.4V12.6Z" fill="currentColor"/>
<path d="M15.7 7.29998L12 3.59998L10.6 4.99998L12.6 6.99998H8V8.99998H12.6L10.6 11L12 12.4L15.7 8.69998C16.1 8.29998 16.1 7.69998 15.7 7.29998Z" fill="currentColor"/>
</symbol><symbol id="mob-menu-close" viewBox="0 0 19 19">
<path fill-rule="evenodd" clip-rule="evenodd" d="M2.56072 0.43934C1.97493 -0.146447 1.02518 -0.146447 0.439397 0.43934C-0.14639 1.02513 -0.14639 1.97487 0.439397 2.56066L7.15689 9.27815L0.43934 15.9957C-0.146447 16.5815 -0.146447 17.5312 0.43934 18.117C1.02513 18.7028 1.97487 18.7028 2.56066 18.117L9.27821 11.3995L15.9957 18.117C16.5815 18.7028 17.5313 18.7028 18.1171 18.117C18.7029 17.5312 18.7029 16.5815 18.1171 15.9957L11.3995 9.27815L18.117 2.56068C18.7028 1.97489 18.7028 1.02514 18.117 0.439357C17.5312 -0.146429 16.5815 -0.146429 15.9957 0.439357L9.27821 7.15683L2.56072 0.43934Z" fill="currentColor"/>
</symbol><symbol id="mob-menu" viewBox="0 0 23 16">
<path fill-rule="evenodd" clip-rule="evenodd" d="M0 1C0 0.447715 0.447715 0 1 0H22C22.5523 0 23 0.447715 23 1C23 1.55228 22.5523 2 22 2H1C0.447715 2 0 1.55228 0 1ZM0 8C0 7.44772 0.447715 7 1 7H22C22.5523 7 23 7.44772 23 8C23 8.55229 22.5523 9 22 9H1C0.447715 9 0 8.55229 0 8ZM1 14C0.447715 14 0 14.4477 0 15C0 15.5523 0.447715 16 1 16H22C22.5523 16 23 15.5523 23 15C23 14.4477 22.5523 14 22 14H1Z" fill="currentColor"/>
</symbol><symbol id="phone" viewBox="0 0 40 40">
<path fill="transparent" d="M24.8846 32.5H15.0385C14.1923 32.5 13.5 31.78 13.5 30.9V10.1C13.5 9.22 14.1923 8.5 15.0385 8.5H24.9615C25.8077 8.5 26.5 9.22 26.5 10.1V30.9C26.4231 31.78 25.7308 32.5 24.8846 32.5Z" stroke="currentColor" stroke-miterlimit="10"/>
<path d="M20.4939 30.078C20.5459 29.7401 20.2599 29.4541 19.922 29.5061C19.7141 29.5321 19.5321 29.7141 19.5061 29.922C19.4541 30.2599 19.7401 30.5459 20.078 30.4939C20.2859 30.4419 20.4679 30.2859 20.4939 30.078Z" stroke="currentColor" stroke-miterlimit="10"/>
<path d="M14 11.5H26" stroke="currentColor" stroke-miterlimit="10"/>
<path d="M14 27.5H26" stroke="currentColor" stroke-miterlimit="10"/>
</symbol><symbol id="postpaid-plans" viewBox="0 0 40 40">
<path fill="transparent" d="M19.5 20.5V24.5C19.5 26.157 22.186 27.5 25.5 27.5C28.814 27.5 31.5 26.157 31.5 24.5V20.5" stroke="currentColor" stroke-miterlimit="10"/>
<path fill="transparent" d="M19.5 24.5V28.5C19.5 30.157 22.186 31.5 25.5 31.5C28.814 31.5 31.5 30.157 31.5 28.5V24.5" stroke="currentColor" stroke-miterlimit="10"/>
<path fill="transparent" d="M25.5 23.5C28.8137 23.5 31.5 22.1569 31.5 20.5C31.5 18.8431 28.8137 17.5 25.5 17.5C22.1863 17.5 19.5 18.8431 19.5 20.5C19.5 22.1569 22.1863 23.5 25.5 23.5Z" stroke="currentColor" stroke-miterlimit="10" stroke-linecap="square"/>
<path fill="transparent" d="M16.5 13.5V16.5H13.5" stroke="currentColor" stroke-miterlimit="10" stroke-linecap="square"/>
<path fill="transparent" d="M16.5 23.5C12.634 23.5 9.5 20.366 9.5 16.5C9.5 12.634 12.634 9.5 16.5 9.5C19.671 9.5 22.35 11.609 23.21 14.501" stroke="currentColor" stroke-miterlimit="10" stroke-linecap="square"/>
</symbol><symbol id="prepaid-plans" viewBox="0 0 40 40">
<path fill="transparent" d="M16 28C16.5523 28 17 27.5523 17 27C17 26.4477 16.5523 26 16 26C15.4477 26 15 26.4477 15 27C15 27.5523 15.4477 28 16 28Z"/>
<path fill="transparent" d="M22.5 25.5V29.5C22.5 30.6 21.6 31.5 20.5 31.5H11.5C10.4 31.5 9.5 30.6 9.5 29.5V13.5C9.5 12.4 10.4 11.5 11.5 11.5H15.5" stroke="currentColor" stroke-miterlimit="10" stroke-linecap="square"/>
<path fill="transparent" d="M31.5 21.5H26.5H15.5V9.5H31.5V21.5Z" stroke="currentColor" stroke-miterlimit="10" stroke-linecap="square"/>
<path fill="transparent" d="M15.5 13.5H31.5" stroke="currentColor" stroke-miterlimit="10" stroke-linecap="square"/>
<path fill="transparent" d="M21.5 17.5H19.5" stroke="currentColor" stroke-miterlimit="10" stroke-linecap="square"/>
</symbol><symbol id="question-first" viewBox="0 0 40 40">
<path fill="transparent" d="M16.2988 25.101C17.5918 27.11 20.3258 28.5 23.4998 28.5C24.0898 28.5 24.6628 28.449 25.2158 28.358L29.4998 30.5V26.46C30.7408 25.403 31.4998 24.02 31.4998 22.5C31.4998 20.948 30.7078 19.539 29.4188 18.473" stroke="currentColor" stroke-miterlimit="10"/>
<path fill="transparent" d="M19.5 9.5C13.977 9.5 9.5 13.082 9.5 17.5C9.5 19.297 10.25 20.95 11.5 22.285V27.5L16.333 25.084C17.329 25.35 18.392 25.5 19.5 25.5C25.023 25.5 29.5 21.918 29.5 17.5C29.5 13.082 25.023 9.5 19.5 9.5Z" stroke="currentColor" stroke-miterlimit="10" stroke-linecap="square"/>
</symbol><symbol id="question-fourth" viewBox="0 0 40 40">
<path fill="transparent" d="M22.5 31.5H27.5C29.157 31.5 30.5 30.157 30.5 28.5V25.5" stroke="currentColor" stroke-miterlimit="10" stroke-linecap="square"/>
<path fill="transparent" d="M15.5 20.5H10.5V25.5C10.5 26.605 11.395 27.5 12.5 27.5H15.5V20.5Z" stroke="currentColor" stroke-miterlimit="10" stroke-linecap="square"/>
<path fill="transparent" d="M30.5 20.5H25.5V27.5H28.5C29.605 27.5 30.5 26.605 30.5 25.5V20.5Z" stroke="currentColor" stroke-miterlimit="10" stroke-linecap="square"/>
<path fill="transparent" d="M30.5 20.5V19.5C30.5 13.977 26.023 9.5 20.5 9.5C14.977 9.5 10.5 13.977 10.5 19.5V20.5" stroke="currentColor" stroke-miterlimit="10" stroke-linecap="square"/>
</symbol><symbol id="question-mark" viewBox="0 0 11 18">
<path d="M5.58125 18C6.56501 18 7.3625 17.1826 7.3625 16.1744C7.3625 15.1661 6.56501 14.3488 5.58125 14.3488C4.59749 14.3488 3.8 15.1661 3.8 16.1744C3.8 17.1826 4.59749 18 5.58125 18Z" fill="currentColor"/>
<path d="M5.57125 0C3.27625 0 1.2174 1.31845 0.453301 3.28013L0 4.43868L2.5583 5.25902L3.01024 4.09923C3.39432 3.11901 4.42307 2.45979 5.57125 2.45979C7.06823 2.45979 8.28563 3.563 8.28563 4.91957C8.28563 5.69687 7.95312 5.95145 6.99359 6.57624C5.82098 7.33877 4.21407 8.38418 4.21407 11.069V12.2989H6.92844V11.069C6.92844 9.64605 7.5826 9.22051 8.57606 8.57482C9.59938 7.90944 11 6.99809 11 4.91957C11 2.20643 8.56521 0 5.57125 0Z" fill="currentColor"/>
</symbol><symbol id="question-second" viewBox="0 0 40 40">
<rect width="40" height="40" fill="transparent"/>
<path d="M31.5 9.5H9.5V26.5H17.167L20.5 30.5L23.833 26.5H31.5V9.5Z" stroke="currentColor" fill="transparent" stroke-miterlimit="10"/>
<path d="M21.492 18.237L23.7 19.9C24.204 20.278 24.5 20.87 24.5 21.5V22.5H16.5V21.5C16.5 20.87 16.796 20.278 17.3 19.9L19.508 18.237" stroke="currentColor" fill="transparent" stroke-miterlimit="10"/>
<path d="M20.5 18.5C19.395 18.5 18.5 17.605 18.5 16.5V15.5C18.5 14.395 19.395 13.5 20.5 13.5C21.605 13.5 22.5 14.395 22.5 15.5V16.5C22.5 17.605 21.605 18.5 20.5 18.5Z" stroke="currentColor" fill="transparent" stroke-miterlimit="10" stroke-linecap="square"/>
</symbol><symbol id="question-third" viewBox="0 0 40 40">
<path fill="transparent" d="M28.9 25.3C29.6969 24.5544 30.3373 23.6575 30.7837 22.6616C31.2301 21.6658 31.4736 20.591 31.5 19.5C31.5 14.5 26.6 10.5 20.5 10.5C14.4 10.5 9.5 14.5 9.5 19.5C9.5 24.5 14.4 28.5 20.5 28.5C21.5475 28.5213 22.5923 28.3865 23.6 28.1L29.5 30.5L28.9 25.3Z" stroke="currentColor" stroke-miterlimit="10" stroke-linecap="square"/>
<path fill="transparent" d="M20.5 14.5V20.5" stroke="currentColor" stroke-miterlimit="10" stroke-linecap="square"/>
<path fill="transparent" d="M20.5 25.5C21.0523 25.5 21.5 25.0523 21.5 24.5C21.5 23.9477 21.0523 23.5 20.5 23.5C19.9477 23.5 19.5 23.9477 19.5 24.5C19.5 25.0523 19.9477 25.5 20.5 25.5Z"/>
</symbol><symbol id="router" viewBox="0 0 40 40">
<path fill="transparent" d="M8.5 24.5V30.5H29.3095C31.0619 30.5 31.5 29.1667 31.5 28.5V24.5C31.5 22.9 30.0397 22.5 29.3095 22.5H10.6905C8.9381 22.5 8.5 23.8333 8.5 24.5Z" stroke="currentColor"/>
<path fill="transparent" d="M12.5 26.5H14.5" stroke="currentColor" stroke-linecap="round" stroke-linejoin="round"/>
<path fill="transparent" d="M17.5 26.5H19.5" stroke="currentColor" stroke-linecap="round" stroke-linejoin="round"/>
<path fill="transparent" d="M19.5 22V19.5" stroke="currentColor" stroke-miterlimit="10" stroke-linecap="round" stroke-linejoin="round"/>
<path fill="transparent" d="M17 18C17.6383 16.8 18.5426 16.5 19.5 16.5C20.4574 16.5 21.3617 16.8 22 18" stroke="currentColor" stroke-miterlimit="10" stroke-linecap="round"/>
<path fill="transparent" d="M15 16C15.75 14.6667 17.6719 14 19.5 14C21.2344 14 23.25 14.6667 24 16" stroke="currentColor" stroke-miterlimit="10" stroke-linecap="round"/>
<path fill="transparent" d="M13 14C14.6421 12.1719 17.014 11 19.614 11C22.1228 11 24.3579 12.0312 26 13.7187" stroke="currentColor" stroke-miterlimit="10" stroke-linecap="round"/>
</symbol><symbol id="salons" viewBox="0 0 14 18">
<path fill-rule="evenodd" clip-rule="evenodd" d="M7 18C7 18 14 10.866 14 7C14 3.13401 10.866 0 7 0C3.13403 0 0 3.13401 0 7C0 10.866 7 18 7 18ZM7 11C9.20911 11 11 9.20914 11 7C11 4.79086 9.20911 3 7 3C4.79089 3 3 4.79086 3 7C3 9.20914 4.79089 11 7 11Z" fill="currentColor"/>
</symbol><symbol id="search" viewBox="0 0 21 21">
<path fill-rule="evenodd" clip-rule="evenodd" d="M15.1406 13.7297C16.2802 12.2858 16.9603 10.4624 16.9603 8.48016C16.9603 3.7967 13.1636 0 8.48016 0C3.7967 0 0 3.7967 0 8.48016C0 13.1636 3.7967 16.9603 8.48016 16.9603C10.4624 16.9603 12.2858 16.2802 13.7297 15.1406L19.5891 21L21 19.5891L15.1406 13.7297ZM14.965 8.48016C14.965 12.0616 12.0616 14.965 8.48016 14.965C4.89869 14.965 1.99533 12.0616 1.99533 8.48016C1.99533 4.89869 4.89869 1.99533 8.48016 1.99533C12.0616 1.99533 14.965 4.89869 14.965 8.48016Z" fill="currentColor"/>
</symbol><symbol id="second-filter" viewBox="0 0 40 40">
<path fill="transparent" d="M28.5 30.5H10.5V14.5L15.8 9.5H28.5V30.5Z" stroke="currentColor" stroke-miterlimit="10" stroke-linecap="round" stroke-linejoin="round"/>
<path fill="transparent" d="M24.5 27.5V21.5H14.5V27.5" stroke="currentColor" stroke-miterlimit="10" stroke-linecap="round" stroke-linejoin="round"/>
<path fill="transparent" d="M24.5 16.5V18.5" stroke="currentColor" stroke-miterlimit="10" stroke-linecap="round" stroke-linejoin="round"/>
<path fill="transparent" d="M19.5 16.5V18.5" stroke="currentColor" stroke-miterlimit="10" stroke-linecap="round" stroke-linejoin="round"/>
<path fill="transparent" d="M14.5 16.5V18.5" stroke="currentColor" stroke-miterlimit="10" stroke-linecap="round" stroke-linejoin="round"/>
</symbol><symbol id="shares" viewBox="0 0 40 40">
<path fill="transparent" d="M19.2856 8.95562C19.7313 8.7142 20.2688 8.7142 20.7145 8.95562L30.7144 14.3723C31.1985 14.6345 31.5 15.1407 31.5 15.6912V26.3088C31.5 26.8593 31.1985 27.3655 30.7144 27.6277L20.7145 33.0444C20.2688 33.2858 19.7313 33.2858 19.2856 33.0444L9.28558 27.6277C8.80154 27.3655 8.5 26.8593 8.5 26.3088V15.6912C8.5 15.1407 8.80154 14.6345 9.28558 14.3723L19.2856 8.95562Z" stroke="currentColor"/>
<circle fill="transparent" cx="17.5" cy="16.5" r="2" stroke="currentColor"/>
<circle fill="transparent" cx="22.5" cy="25.5" r="2" stroke="currentColor"/>
<path fill="transparent" d="M14.5 25L25 17" stroke="currentColor" stroke-linecap="round" stroke-linejoin="round"/>
</symbol><symbol id="special-plans" viewBox="0 0 40 40">
<path fill="transparent" d="M17.5 23.5L19.5 25.5L24.5 20.5" stroke="currentColor" stroke-miterlimit="10" stroke-linecap="square"/>
<path fill="transparent" d="M29.5 11.5H11.5C10.3954 11.5 9.5 12.3954 9.5 13.5V28.5C9.5 29.6046 10.3954 30.5 11.5 30.5H29.5C30.6046 30.5 31.5 29.6046 31.5 28.5V13.5C31.5 12.3954 30.6046 11.5 29.5 11.5Z" stroke="currentColor" stroke-miterlimit="10" stroke-linecap="square"/>
<path fill="transparent" d="M14.5 9.5V12.5" stroke="currentColor" stroke-miterlimit="10" stroke-linecap="square"/>
<path fill="transparent" d="M26.5 9.5V12.5" stroke="currentColor" stroke-miterlimit="10" stroke-linecap="square"/>
<path fill="transparent" d="M9.5 16.5H31.5" stroke="currentColor" stroke-miterlimit="10"/>
</symbol><symbol id="star" viewBox="0 0 24 24">
<path fill="transparent" d="M12 2L15.09 8.26L22 9.264L17 14.138L18.18 21.02L12 17.772L5.82 21.02L7 14.138L2 9.264L8.91 8.26L12 2Z" stroke="currentColor" stroke-width="2" stroke-miterlimit="10" stroke-linecap="round" stroke-linejoin="round"/>
</symbol><symbol id="subscription-check" viewBox="0 0 10 10">
<path d="M9 1L3.66667 9L0.999999 5.66667" stroke="currentColor" fill="transparent" stroke-width="2" stroke-linecap="round" stroke-linejoin="round"/>
</symbol><symbol id="tablet" viewBox="0 0 40 40">
<path fill="transparent" d="M27.8478 32.5H12.1522C11.2435 32.5 10.5 31.78 10.5 30.9V10.1C10.5 9.22 11.2435 8.5 12.1522 8.5H27.8478C28.7565 8.5 29.5 9.22 29.5 10.1V30.9C29.5 31.78 28.7565 32.5 27.8478 32.5Z" stroke="currentColor" stroke-miterlimit="10"/>
<path d="M20.4905 30.0846C20.5582 29.7463 20.2537 29.4418 19.9154 29.5095C19.7125 29.5433 19.5433 29.7125 19.5095 29.9154C19.4418 30.2537 19.7463 30.5582 20.0846 30.4905C20.2875 30.4567 20.4567 30.2875 20.4905 30.0846Z" stroke="currentColor" stroke-miterlimit="10"/>
<path d="M11 11.5H29" stroke="currentColor" stroke-miterlimit="10"/>
<path d="M11 27.5H29" stroke="currentColor" stroke-miterlimit="10"/>
</symbol><symbol id="tv" viewBox="0 0 40 40">
<path fill-rule="evenodd" clip-rule="evenodd" d="M7.5 10C7.22386 10 7 10.2239 7 10.5V25.5C7 25.7761 7.22386 26 7.5 26H17V28.0901L12.4019 29.0097C12.1312 29.0639 11.9556 29.3273 12.0097 29.5981C12.0639 29.8688 12.3273 30.0444 12.5981 29.9903L17.5495 29H22.4505L27.4019 29.9903C27.6727 30.0444 27.9361 29.8688 27.9903 29.5981C28.0444 29.3273 27.8688 29.0639 27.5981 29.0097L23 28.0901V26H32.5C32.7761 26 33 25.7761 33 25.5V10.5C33 10.2239 32.7761 10 32.5 10H7.5ZM22 26H18V28H22V26ZM22.5 25H32V11H8V25H17.5H22.5Z" fill="currentColor"/>
</symbol><symbol id="user" viewBox="0 0 22 22">
<path fill-rule="evenodd" clip-rule="evenodd" d="M5 6C5 2.68629 7.68629 0 11 0C14.3137 0 17 2.68629 17 6V9C17 10.3566 16.5498 11.608 15.7906 12.613L18.8731 14.2944C20.8007 15.3458 22 17.3661 22 19.5618V20C22 21.1046 21.1046 22 20 22H2C0.89543 22 0 21.1046 0 20V19.5618C0 17.3661 1.19932 15.3458 3.12689 14.2944L6.20939 12.613C5.45022 11.608 5 10.3566 5 9V6ZM15 6V9C15 11.2091 13.2091 13 11 13C8.79086 13 7 11.2091 7 9V6C7 3.79086 8.79086 2 11 2C13.2091 2 15 3.79086 15 6ZM7.75543 14.0479L4.08459 16.0502C2.79955 16.7511 2 18.098 2 19.5618L2 20H20V19.5618C20 18.098 19.2005 16.7511 17.9154 16.0502L14.2446 14.0479C13.3091 14.6504 12.1954 15 11 15C9.80461 15 8.69087 14.6504 7.75543 14.0479Z" fill="currentColor"/>
</symbol><symbol id="&#x441;orner-left" viewBox="0 0 4 4">
<path d="M0 4H4C1.79086 4 0 2.20914 0 0V4Z" fill="currentColor"/>
</symbol></svg>