<?xml version="1.0" encoding="utf-8"?>
<!-- Generator: Adobe Illustrator 21.1.0, SVG Export Plug-In . SVG Version: 6.00 Build 0)  -->
<svg version="1.1" id="Layer_1" xmlns="http://www.w3.org/2000/svg" xmlns:xlink="http://www.w3.org/1999/xlink" x="0px" y="0px"
	 viewBox="0 0 155 120" style="enable-background:new 0 0 155 120;" xml:space="preserve">
<style type="text/css">
	.st0{fill:none;stroke:#CCCCCC;stroke-width:3;stroke-miterlimit:10;}
	.st1{fill:#CCCCCC;}
</style>
<title>line</title>
<path class="st0" d="M5,114.5L81,11.1c5.7-7.1,16.3-9.7,25.7-9.6H155"/>
<path class="st1" d="M3.5,120c0,0,0.1,0,0.1,0c1.9,0,3.4-1.6,3.4-3.5c0,0,0-0.1,0-0.1c0-1.9-1.6-3.4-3.5-3.4c0,0-0.1,0-0.1,0
	c-1.9,0-3.4,1.6-3.4,3.5c0,0,0,0.1,0,0.1C0,118.5,1.6,120,3.5,120"/>
</svg>
