<?xml version="1.0" encoding="utf-8"?>
<!-- Generator: Adobe Illustrator 15.0.0, SVG Export Plug-In  -->
<!DOCTYPE svg PUBLIC "-//W3C//DTD SVG 1.1//EN" "http://www.w3.org/Graphics/SVG/1.1/DTD/svg11.dtd" [
	<!ENTITY ns_flows "http://ns.adobe.com/Flows/1.0/">
]>
<svg version="1.1"
	 xmlns="http://www.w3.org/2000/svg" xmlns:xlink="http://www.w3.org/1999/xlink" xmlns:a="http://ns.adobe.com/AdobeSVGViewerExtensions/3.0/"
	 x="0px" y="0px" width="32px" height="32px" viewBox="-4.494 -1.59 32 32" enable-background="new -4.494 -1.59 32 32"
	 xml:space="preserve">
<defs>
</defs>
<path fill="currentColor" d="M23.564,20.818c0,0-0.01-0.317-0.027-0.104l-5.107-9.298c0,0,1.133-1.558,0.625-1.924
	c-0.508-0.365-1.865-1.08-1.865-1.08l-1.873-7.461L15.188,0l-1.648,0.355l0.426,0.993l0.348,6.525l-1.729-6.751l-0.62-0.595
	l-1.678,0.816l0.549,7.229c0,0-0.295,0.202-0.633,0.536c-0.021-0.004-0.039-0.008-0.06-0.012c-0.806,0.737-1.851,2.202-0.356,4.083
	l-2.16,9.826l1.42,1.867c-0.03,0.795-0.029,1.944,0.195,3.944h0.961c-0.392-4,0.191-6.2,0.192-6.202l2.531-7.346
	c2.811,1.943,5.543,4.126,5.543,4.126l0.418-1.108L13.51,13.5l0.451-1.297c0.266-0.119,1.184-0.965,1.938-0.291
	c2.648,2.355,7.01,9.459,7.01,9.459l0.59-0.459"/>
<path fill="currentColor" d="M3.298,15.079l1.259,10.793l1.873,1.314c0.108,0.36,0.267,0.633,0.478,1.633h1.074
	C7.201,25.819,7,24.632,7,24.632v-0.118l0.033-10.867c0.179-0.168,0.617-0.998,1.309-1.019c-0.225-1.024-0.326-2.504,0.423-3.793
	L4.619,2.495L4.064,1.81L2.938,2.187l0.54,1.142l2.458,6.056L2.099,3.567l-0.78-0.359L0,4.526l2.878,6.656
	C2.878,11.182,0.78,14,3.298,15.079"/>
</svg>
