<?xml version="1.0" encoding="utf-8"?>
<!-- Generator: Adobe Illustrator 15.0.0, SVG Export Plug-In  -->
<!DOCTYPE svg PUBLIC "-//W3C//DTD SVG 1.1//EN" "http://www.w3.org/Graphics/SVG/1.1/DTD/svg11.dtd" [
	<!ENTITY ns_flows "http://ns.adobe.com/Flows/1.0/">
]>
<svg version="1.1"
	 xmlns="http://www.w3.org/2000/svg" xmlns:xlink="http://www.w3.org/1999/xlink" xmlns:a="http://ns.adobe.com/AdobeSVGViewerExtensions/3.0/"
	 x="0px" y="0px" width="32px" height="32px" viewBox="-3.169 -5.185 32 32" enable-background="new -3.169 -5.185 32 32"
	 xml:space="preserve">
<defs>
</defs>
<path fill="currentColor" d="M22.374,15.709c0,0,1.586-0.85,1.445-2.103s-1.132-4.736-2.951-7.287C19.047,3.77,15.1,7.121,15.1,7.121
	s1.205,0.753-0.379,1.925c-1.584,1.17-7.584,6.762-6.266,7.601c1.317,0.84,7.123,0.499,10.879-0.568l-0.604,5.177l6.932-1.211
	L22.374,15.709z M19.387,13.186c-0.514-0.1-0.848-0.6-0.748-1.113c0.102-0.516,0.601-0.85,1.115-0.748s0.85,0.6,0.748,1.114
	C20.401,12.953,19.902,13.288,19.387,13.186"/>
<path fill="currentColor" d="M6.632,5.686c0,0,0.745-0.398,0.679-0.988C7.246,4.108,6.78,2.471,5.924,1.271
	C5.068,0.072,3.212,1.647,3.212,1.647S3.78,2.001,3.035,2.552s-3.566,3.179-2.946,3.574C0.708,6.522,3.438,6.362,5.204,5.86
	L4.918,8.293l3.26-0.569L6.632,5.686z M5.229,4.5C4.986,4.452,4.83,4.218,4.876,3.976C4.924,3.735,5.159,3.577,5.4,3.624
	c0.243,0.049,0.401,0.283,0.352,0.525C5.705,4.39,5.471,4.547,5.229,4.5"/>
<path fill="currentColor" d="M14.541,6.425l-11.2-4.963c0,0,1.818-1.782,3.693-1.412c1.876,0.369,11.813,4.3,11.813,4.3
	S13.981,5.731,14.541,6.425"/>
</svg>
