<?xml version="1.0" encoding="utf-8"?>
<!-- Generator: Adobe Illustrator 15.0.0, SVG Export Plug-In  -->
<!DOCTYPE svg PUBLIC "-//W3C//DTD SVG 1.1//EN" "http://www.w3.org/Graphics/SVG/1.1/DTD/svg11.dtd" [
	<!ENTITY ns_flows "http://ns.adobe.com/Flows/1.0/">
]>
<svg version="1.1"
	 xmlns="http://www.w3.org/2000/svg" xmlns:xlink="http://www.w3.org/1999/xlink" xmlns:a="http://ns.adobe.com/AdobeSVGViewerExtensions/3.0/"
	 x="0px" y="0px" width="32px" height="32px" viewBox="-4 -6.914 32 32" enable-background="new -4 -6.914 32 32"
	 xml:space="preserve">
<defs>
</defs>
<path fill="currentColor" d="M0,2.058V0.011h1.346c0.759,0,1.519,0.024,2.275-0.01c0.38-0.017,0.54,0.122,0.671,0.464
	C4.64,1.375,5.047,2.261,5.396,3.17c0.137,0.355,0.322,0.479,0.711,0.479c5.763-0.014,11.525-0.01,17.288-0.01H24
	c-0.065,0.191-0.106,0.332-0.16,0.469c-1.25,3.129-2.51,6.255-3.743,9.392c-0.145,0.365-0.324,0.473-0.706,0.473
	c-4.478-0.014-8.954-0.014-13.432-0.002c-0.369,0.002-0.525-0.076-0.604-0.479C4.735,10.289,4.097,7.09,3.429,3.897
	C3.311,3.33,3.044,2.79,2.81,2.254C2.764,2.149,2.542,2.071,2.4,2.067C1.613,2.049,0.826,2.058,0,2.058"/>
<path fill="currentColor" d="M5.006,17.393c-0.003-1.146,0.911-2.064,2.061-2.064c1.112,0,2.039,0.922,2.048,2.039
	c0.008,1.152-0.902,2.08-2.044,2.084C5.912,19.453,5.009,18.553,5.006,17.393"/>
<path fill="currentColor" d="M20.038,17.373c0.015,1.131-0.918,2.074-2.051,2.076c-1.12,0.002-2.041-0.895-2.068-2.014
	c-0.026-1.127,0.894-2.082,2.03-2.107C19.068,15.305,20.024,16.24,20.038,17.373"/>
</svg>
