<?xml version="1.0" encoding="utf-8"?>
<!-- Generator: Adobe Illustrator 15.0.0, SVG Export Plug-In  -->
<!DOCTYPE svg PUBLIC "-//W3C//DTD SVG 1.1//EN" "http://www.w3.org/Graphics/SVG/1.1/DTD/svg11.dtd" [
	<!ENTITY ns_flows "http://ns.adobe.com/Flows/1.0/">
]>
<svg version="1.1"
	 xmlns="http://www.w3.org/2000/svg" xmlns:xlink="http://www.w3.org/1999/xlink" xmlns:a="http://ns.adobe.com/AdobeSVGViewerExtensions/3.0/"
	 x="0px" y="0px" width="64px" height="64px" viewBox="-14.294 -8.664 64 64" enable-background="new -14.294 -8.664 64 64"
	 xml:space="preserve">
<defs>
</defs>
<path fill="#FFFFFF" d="M18.866,35.694v13.377c-0.572-0.377-1.078-0.709-1.58-1.043c-1.172-0.781-2.359-1.539-3.508-2.354
	c-0.427-0.303-0.713-0.27-1.128,0.02c-1.454,1.01-2.94,1.977-4.415,2.957c-0.183,0.123-0.375,0.232-0.648,0.4v-5.607
	c-1.209,0-2.358-0.006-3.506,0.002c-1.218,0.008-2.278-0.35-3.111-1.275C0.225,41.344-0.002,40.356,0,39.274
	c0.009-4.455,0.004-8.91,0.004-13.367c0-7.205-0.001-14.411,0-21.616C0.004,1.493,1.499,0,4.293,0c9.775,0,19.549,0,29.322,0
	c2.615,0,4.17,1.531,4.17,4.138c0.004,11.705,0.004,23.412,0,35.119c0,2.65-1.539,4.182-4.196,4.186
	c-2.841,0.006-5.683,0.006-8.524-0.002c-0.361-0.002-0.736-0.014-1.078-0.107c-0.877-0.244-1.4-1.129-1.277-2.074
	c0.117-0.902,0.855-1.57,1.847-1.578c2.841-0.02,5.683-0.01,8.524-0.012c0.271,0,0.541,0,0.873,0V3.84H3.815v35.784h3.736v-3.928
	c0.056-0.043,0.111-0.084,0.168-0.125c0.305,0.258,0.684,0.465,0.9,0.783c0.934,1.363,2.527,1.965,4.117,1.537
	c0.321-0.088,0.705-0.078,1.028,0.008c1.519,0.406,3.106-0.172,4.028-1.461c0.242-0.34,0.604-0.592,0.912-0.887
	C18.758,35.6,18.812,35.647,18.866,35.694"/>
<path fill="#FFFFFF" d="M18.87,13.23c-3.066,0-6.132,0.01-9.199-0.004c-1.561-0.008-2.527-1.335-1.938-2.644
	c0.366-0.815,1.05-1.15,1.923-1.149c1.727,0.003,3.452,0.001,5.178,0.001c4.406,0,8.813,0.004,13.219-0.004
	c0.867-0.002,1.57,0.279,1.974,1.075c0.636,1.253-0.274,2.68-1.752,2.714c-1.612,0.037-3.226,0.011-4.838,0.011
	C21.913,13.23,20.392,13.23,18.87,13.23"/>
<path fill="#FFFFFF" d="M10.502,24.963c0.723,0.52,1.098-0.08,1.621-0.615c0.746-0.763,2.004-0.533,2.586,0.395
	c0.229,0.363,0.393,0.488,0.848,0.33c1.248-0.43,2.438,0.547,2.277,1.867c-0.059,0.484,0.066,0.66,0.506,0.844
	c1.189,0.498,1.453,1.98,0.512,2.865c-0.348,0.326-0.399,0.547-0.189,0.979c0.564,1.158-0.1,2.355-1.384,2.504
	c-0.472,0.055-0.714,0.178-0.837,0.68c-0.299,1.213-1.59,1.707-2.631,1.014c-0.428-0.287-0.717-0.287-1.148-0.004
	c-1.061,0.695-2.309,0.215-2.645-1.002c-0.119-0.428-0.275-0.629-0.765-0.674c-1.362-0.121-2.019-1.33-1.43-2.58
	C7.981,31.229,8,31.028,7.707,30.743C6.637,29.7,6.889,28.29,8.254,27.727c0.401-0.166,0.414-0.361,0.371-0.723
	C8.491,25.866,9.294,24.952,10.502,24.963 M13.248,33.258c1.657-0.016,3.054-1.426,3.031-3.057
	c-0.022-1.648-1.444-3.055-3.067-3.033c-1.658,0.021-3.029,1.412-3.021,3.066C10.196,31.883,11.604,33.274,13.248,33.258"/>
<path fill="#FFFFFF" d="M16.096,20.754c-2.224,0-4.449,0.013-6.673-0.005c-0.959-0.008-1.702-0.683-1.836-1.594
	c-0.129-0.878,0.39-1.77,1.238-2.034c0.339-0.105,0.714-0.133,1.073-0.134c4.107-0.008,8.215-0.009,12.324,0.002
	c0.379,0.001,0.779,0.037,1.135,0.159c0.852,0.292,1.308,1.16,1.151,2.07c-0.153,0.898-0.856,1.522-1.808,1.529
	C20.5,20.766,18.298,20.754,16.096,20.754"/>
</svg>
