<?xml version="1.0" encoding="utf-8"?>
<!-- Generator: Adobe Illustrator 15.0.0, SVG Export Plug-In  -->
<!DOCTYPE svg PUBLIC "-//W3C//DTD SVG 1.1//EN" "http://www.w3.org/Graphics/SVG/1.1/DTD/svg11.dtd" [
	<!ENTITY ns_flows "http://ns.adobe.com/Flows/1.0/">
]>
<svg version="1.1"
	 xmlns="http://www.w3.org/2000/svg" xmlns:xlink="http://www.w3.org/1999/xlink" xmlns:a="http://ns.adobe.com/AdobeSVGViewerExtensions/3.0/"
	 x="0px" y="0px" width="32px" height="32px" viewBox="-3.82 -4.5 32 32" enable-background="new -3.82 -4.5 32 32"
	 xml:space="preserve">
<defs>
</defs>
<polygon fill="currentColor" points="1.341,11.999 0.753,11.999 0,11.999 0,14 1,14 0,14 0,15 1,15 1,16 0,16 0,17 1,17 0,17 0,18 1,18 
	1,19 0,19 0,20 1,20 0,20 0,21 1,21 1,22 0,22 0,23 5,23 5,21.822 5,21.07 5,20.318 5,19.564 5,18.812 5,18.06 5,17.306 5,16.554 
	5,16.015 "/>
<polygon fill="currentColor" points="23.492,11.999 24.081,11.999 25.001,11.999 25.001,14 24.001,14 25.001,14 25.001,15 24.001,15 
	24.001,16 25.001,16 25.001,17 24.001,17 25.001,17 25.001,18 24.001,18 24.001,19 25.001,19 25.001,20 24.001,20 25.001,20 
	25.001,21 24.001,21 24.001,22 25.001,22 25.001,23 20.001,23 20.001,21.822 20.001,21.07 20.001,20.318 20.001,19.564 
	20.001,18.812 20.001,18.06 20.001,17.306 20.001,16.554 20.001,16.015 "/>
<path fill="currentColor" d="M23,2V0h-5.315l-2.634,4H9.469H9.407L6.772,0H1v2h3.14L8.03,5.332L6.839,6.338L6.083,6.99L3.778,7.016
	L3.571,6.88L2,9.125v1.881L8.278,18h1.693h4.577h1.693L23,11.006V9.125l-1.812-2.258l-0.444,0.134l0.034-0.009l-2.361-0.053
	l-0.746-0.701l-1.219-0.935L20.317,2H23z M9,13.589c0,0.133-4.937-2.183-5.294-2.361C3.351,11.05,3.545,8.779,3.545,8.779
	s3.888,1.781,4.466,2.049C8.59,11.095,9,13.232,9,13.232V13.589z M16,13.208c0,0,0.231-2.228,0.835-2.505
	c0.604-0.278,4.479-2.135,4.479-2.135s0.336,2.366-0.035,2.553C20.907,11.307,16,13.72,16,13.58V13.208z"/>
</svg>
