<?xml version="1.0" encoding="utf-8"?>
<!-- Generator: Adobe Illustrator 15.0.0, SVG Export Plug-In  -->
<!DOCTYPE svg PUBLIC "-//W3C//DTD SVG 1.1//EN" "http://www.w3.org/Graphics/SVG/1.1/DTD/svg11.dtd" [
	<!ENTITY ns_flows "http://ns.adobe.com/Flows/1.0/">
]>
<svg version="1.1"
	 xmlns="http://www.w3.org/2000/svg" xmlns:xlink="http://www.w3.org/1999/xlink" xmlns:a="http://ns.adobe.com/AdobeSVGViewerExtensions/3.0/"
	 x="0px" y="0px" width="15px" height="16px" viewBox="-2.915 -3.511 15 16" enable-background="new -2.915 -3.511 15 16"
	 xml:space="preserve">
<defs>
</defs>
<path fill="currentColor" d="M2.176,7.111c-0.251,0-0.484,0.001-0.718,0C0.572,7.108,0,6.538,0,5.657c0-1.431,0-2.861,0-4.292
	c0.001-0.77,0.584-1.362,1.356-1.363c2.212-0.003,4.424-0.003,6.637,0c0.773,0.001,1.363,0.581,1.369,1.377
	c0.014,1.442,0.014,2.886,0,4.329C9.356,6.524,8.761,7.093,7.946,7.094c-1.068,0.001-2.141,0.002-3.21-0.002
	C4.611,7.091,4.52,7.12,4.443,7.222c-0.61,0.811-1.404,1.371-2.36,1.702C1.962,8.965,1.824,8.986,1.697,8.976
	C1.512,8.959,1.469,8.849,1.582,8.704c0.309-0.394,0.464-0.851,0.566-1.329C2.167,7.295,2.166,7.212,2.176,7.111"/>
</svg>
