<?xml version="1.0" encoding="utf-8"?>
<!-- Generator: Adobe Illustrator 15.0.0, SVG Export Plug-In  -->
<!DOCTYPE svg PUBLIC "-//W3C//DTD SVG 1.1//EN" "http://www.w3.org/Graphics/SVG/1.1/DTD/svg11.dtd" [
	<!ENTITY ns_flows "http://ns.adobe.com/Flows/1.0/">
]>
<svg version="1.1"
	 xmlns="http://www.w3.org/2000/svg" xmlns:xlink="http://www.w3.org/1999/xlink" xmlns:a="http://ns.adobe.com/AdobeSVGViewerExtensions/3.0/"
	 x="0px" y="0px" width="64px" height="64px" viewBox="-11.477 -10.268 64 64" enable-background="new -11.477 -10.268 64 64"
	 xml:space="preserve">
<defs>
</defs>
<path fill="currentColor" d="M4.376,23.372c-0.361-0.14-0.626-0.236-0.888-0.341c-2.087-0.841-2.593-3.146-1.072-4.813
	c1.124-1.231,2.623-1.491,4.16-1.595c2.312-0.156,4.626-0.253,6.94-0.373c1.514-0.079,1.937-0.641,1.507-2.102
	c-0.818-2.778-1.237-5.61-1.148-8.508c0.055-1.747,0.495-3.376,1.781-4.644c0.364-0.359,0.838-0.663,1.318-0.836
	c1.646-0.596,3.356,0.532,3.062,2.23c-0.867,4.994,1.518,8.715,4.592,12.104c1.82,2.007,3.98,3.713,6.033,5.502
	c0.461,0.399,0.707,0.739,0.705,1.372c-0.027,5.4-0.031,10.802,0.004,16.204c0.004,0.687-0.26,1.063-0.777,1.424
	c-3.105,2.16-6.617,3.236-10.291,3.855c-4.046,0.683-8.119,0.799-12.188,0.323c-0.972-0.114-2.005-0.536-2.808-1.102
	c-1.767-1.246-1.64-3.489,0.142-4.727c0.164-0.114,0.333-0.22,0.633-0.417c-0.665-0.081-1.196-0.148-1.729-0.21
	c-1.677-0.19-2.777-1.05-3.024-2.362c-0.272-1.457,0.453-2.835,1.92-3.609c0.354-0.187,0.73-0.33,1.339-0.604
	c-2.35-0.115-4.47-0.335-4.584-3.107C-0.073,25.177,1.505,23.902,4.376,23.372"/>
<rect x="33.658" y="19.113" fill="currentColor" width="7.389" height="20.694"/>
</svg>
