<?xml version="1.0" encoding="utf-8"?>
<!-- Generator: Adobe Illustrator 15.0.0, SVG Export Plug-In  -->
<!DOCTYPE svg PUBLIC "-//W3C//DTD SVG 1.1//EN" "http://www.w3.org/Graphics/SVG/1.1/DTD/svg11.dtd" [
	<!ENTITY ns_flows "http://ns.adobe.com/Flows/1.0/">
]>
<svg version="1.1"
	 xmlns="http://www.w3.org/2000/svg" xmlns:xlink="http://www.w3.org/1999/xlink" xmlns:a="http://ns.adobe.com/AdobeSVGViewerExtensions/3.0/"
	 x="0px" y="0px" width="32px" height="32px" viewBox="-6 -6.393 32 32" enable-background="new -6 -6.393 32 32"
	 xml:space="preserve">
<defs>
</defs>
<path fill="currentColor" d="M12.534,0c0.98,0.421,1.916,0.821,2.867,1.228c-0.098,0.641-0.178,1.251-0.289,1.855
	c-0.057,0.305,0.01,0.51,0.26,0.711c0.314,0.254,0.623,0.537,0.854,0.863c0.25,0.354,0.537,0.398,0.918,0.332
	c0.557-0.096,1.119-0.16,1.705-0.242c0.375,0.912,0.744,1.793,1.09,2.682c0.037,0.094-0.059,0.242-0.1,0.361
	c-0.008,0.025-0.051,0.039-0.076,0.058c-0.516,0.394-1.229,0.688-1.488,1.209s-0.082,1.269-0.055,1.915
	c0.008,0.158,0.139,0.35,0.27,0.457c0.486,0.402,0.994,0.777,1.512,1.176c-0.377,0.887-0.732,1.756-1.125,2.607
	c-0.053,0.115-0.303,0.213-0.449,0.199c-0.516-0.049-1.025-0.18-1.541-0.219c-0.201-0.014-0.455,0.086-0.615,0.219
	c-0.373,0.309-0.725,0.652-1.045,1.016c-0.127,0.143-0.219,0.379-0.209,0.566c0.035,0.533,0.123,1.063,0.203,1.592
	c0.039,0.248-0.037,0.381-0.281,0.477c-0.74,0.287-1.475,0.59-2.203,0.91c-0.254,0.111-0.398,0.094-0.559-0.148
	c-0.277-0.42-0.607-0.805-0.885-1.223c-0.174-0.262-0.365-0.383-0.685-0.32c-0.222,0.045-0.471,0.1-0.677,0.041
	c-0.897-0.256-1.384,0.213-1.85,0.891c-0.61,0.885-0.646,0.859-1.622,0.441c-0.508-0.217-1.01-0.445-1.527-0.637
	c-0.307-0.113-0.376-0.281-0.31-0.59c0.103-0.477,0.149-0.963,0.241-1.441c0.057-0.283-0.006-0.482-0.234-0.68
	c-0.331-0.283-0.657-0.59-0.921-0.936c-0.237-0.311-0.491-0.354-0.841-0.289c-0.479,0.092-0.963,0.162-1.447,0.195
	c-0.136,0.008-0.357-0.121-0.412-0.244c-0.334-0.738-0.618-1.5-0.948-2.24c-0.121-0.268-0.05-0.404,0.166-0.561
	c0.434-0.314,0.868-0.633,1.269-0.986c0.129-0.115,0.209-0.342,0.22-0.523c0.029-0.5,0.028-1.004,0-1.504
	C1.703,9.037,1.627,8.81,1.499,8.697C1.097,8.343,0.662,8.027,0.23,7.71C0.019,7.555-0.059,7.414,0.065,7.144
	c0.337-0.738,0.649-1.488,0.952-2.24C1.115,4.66,1.246,4.596,1.498,4.645c0.526,0.101,1.055,0.199,1.588,0.243
	c0.187,0.015,0.42-0.094,0.576-0.217C3.901,4.484,4.06,4.175,4.313,4.022c0.64-0.383,0.674-0.905,0.556-1.563
	C4.636,1.167,4.662,1.164,5.882,0.66c0.45-0.185,0.91-0.348,1.35-0.556c0.256-0.121,0.404-0.086,0.563,0.147
	C8.087,0.68,8.42,1.082,8.709,1.513c0.155,0.234,0.334,0.318,0.606,0.279c0.24-0.035,0.502-0.092,0.727-0.033
	c0.892,0.229,1.423-0.195,1.847-0.907C12.061,0.562,12.297,0.309,12.534,0 M9.97,15.24c2.875,0.004,5.228-2.32,5.242-5.176
	c0.014-2.88-2.367-5.267-5.23-5.243c-2.869,0.024-5.205,2.38-5.191,5.233C4.803,12.906,7.13,15.234,9.97,15.24"/>
<path fill="currentColor" d="M11.786,10.042c-0.004,0.956-0.811,1.772-1.763,1.78c-0.977,0.01-1.807-0.813-1.803-1.79
	c0.002-0.957,0.805-1.767,1.763-1.784C10.948,8.233,11.788,9.069,11.786,10.042"/>
</svg>
