<?xml version="1.0" encoding="UTF-8" ?>
<!DOCTYPE svg PUBLIC "-//W3C//DTD SVG 1.1//EN" "http://www.w3.org/Graphics/SVG/1.1/DTD/svg11.dtd">
<svg width="100pt" height="100pt" viewBox="0 0 100 100" version="1.1" xmlns="http://www.w3.org/2000/svg">
<g id="#000000ff">
<path fill="currentColor" opacity="1.00" d=" M 41.70 14.69 C 44.76 12.02 48.96 8.48 53.20 10.89 C 59.13 14.65 63.98 19.87 69.61 24.06 C 69.67 19.78 69.43 15.46 70.08 11.22 C 74.96 9.32 80.42 10.66 85.53 10.52 C 86.18 18.69 85.50 26.88 85.85 35.04 C 85.58 37.86 88.03 39.52 89.92 41.12 C 93.29 43.83 96.65 46.54 100.00 49.28 L 100.00 51.78 C 98.35 53.87 96.61 56.10 94.08 57.15 C 92.74 56.48 91.51 55.60 90.33 54.67 C 76.90 43.47 63.54 32.18 50.01 21.10 C 38.25 30.99 26.43 40.80 14.64 50.67 C 11.86 52.92 9.34 55.67 5.99 57.10 C 3.39 56.14 1.74 53.71 0.00 51.69 L 0.00 49.35 C 14.06 37.99 27.85 26.30 41.70 14.69 Z" />
<path fill="currentColor" opacity="1.00" d=" M 14.40 55.43 C 26.45 45.97 38.00 35.90 49.99 26.38 C 62.11 35.73 73.60 45.89 85.63 55.37 C 85.98 65.26 85.75 75.16 85.80 85.06 C 86.11 87.38 84.61 90.02 82.01 89.81 C 73.79 90.06 65.56 89.96 57.34 89.76 C 57.54 82.07 57.59 74.38 57.35 66.69 C 52.46 66.46 47.57 66.45 42.68 66.69 C 42.44 74.38 42.50 82.08 42.68 89.78 C 34.45 89.94 26.21 90.08 17.99 89.79 C 15.92 89.91 14.14 88.05 14.34 86.00 C 14.27 75.81 14.25 65.62 14.40 55.43 Z" />
</g>
</svg>
