<?xml version="1.0" encoding="utf-8"?>
<!-- Generator: Adobe Illustrator 15.0.0, SVG Export Plug-In  -->
<!DOCTYPE svg PUBLIC "-//W3C//DTD SVG 1.1//EN" "http://www.w3.org/Graphics/SVG/1.1/DTD/svg11.dtd" [
	<!ENTITY ns_flows "http://ns.adobe.com/Flows/1.0/">
]>
<svg version="1.1"
	 xmlns="http://www.w3.org/2000/svg" xmlns:xlink="http://www.w3.org/1999/xlink" xmlns:a="http://ns.adobe.com/AdobeSVGViewerExtensions/3.0/"
	 x="0px" y="0px" width="32px" height="32px" viewBox="-6.5 -7.924 32 32" enable-background="new -6.5 -7.924 32 32"
	 xml:space="preserve">
<defs>
</defs>
<path fill="currentColor" d="M3.726,12.179c-0.431,0-0.831,0-1.23,0C0.979,12.173,0,11.195,0,9.689C0,7.239,0,4.789,0,2.337
	C0,1.019,1,0.005,2.322,0.003c3.79-0.005,7.579-0.005,11.371,0.001C15.015,0.006,16.025,1,16.037,2.362
	c0.021,2.471,0.02,4.943,0,7.413c-0.012,1.398-1.033,2.371-2.426,2.373c-1.832,0.002-3.667,0.004-5.499-0.004
	c-0.215-0.002-0.371,0.049-0.502,0.225c-1.047,1.387-2.406,2.346-4.043,2.912c-0.207,0.072-0.444,0.107-0.66,0.09
	c-0.317-0.027-0.391-0.219-0.198-0.465c0.529-0.674,0.795-1.455,0.972-2.275C3.71,12.494,3.709,12.349,3.726,12.179 M12.796,8.489
	c0.93,0.008,1.715-0.741,1.73-1.649c0.014-0.937-0.766-1.723-1.707-1.722c-0.91,0.001-1.695,0.771-1.711,1.681
	C11.093,7.709,11.863,8.479,12.796,8.489 M8.122,8.489c0.93,0.008,1.716-0.741,1.729-1.649c0.015-0.937-0.764-1.723-1.706-1.722
	C7.235,5.119,6.45,5.889,6.434,6.798C6.418,7.709,7.188,8.479,8.122,8.489 M3.453,8.489c0.931,0.008,1.716-0.741,1.731-1.649
	c0.014-0.937-0.765-1.723-1.707-1.722C2.566,5.119,1.782,5.889,1.766,6.798C1.75,7.709,2.52,8.479,3.453,8.489"/>
<path fill="currentColor" d="M17.398,15.382c-0.137,0.775,0.209,1.395,0.512,2.02c0.178,0.367,0.152,0.455-0.252,0.475
	c-0.24,0.012-0.502-0.006-0.727-0.084c-1.15-0.404-2.066-1.1-2.578-2.24c-0.082-0.186-0.203-0.17-0.344-0.17
	c-1.863,0-3.729,0-5.593,0c-0.382,0.002-0.734-0.066-1.009-0.367c-0.131-0.145-0.175-0.266,0-0.41
	c0.11-0.092,0.22-0.195,0.295-0.314c0.448-0.697,1.078-0.85,1.886-0.822c1.862,0.061,3.728,0.023,5.591,0.018
	c1.197-0.004,2.061-0.674,2.283-1.76c0.039-0.189,0.041-0.389,0.041-0.582c0.002-2.399,0.002-4.798,0.002-7.196
	c0.863-0.248,1.979,0.375,2.332,1.33c0.102,0.273,0.152,0.58,0.154,0.872c0.014,2.327,0.01,4.654,0.008,6.98
	c-0.004,1.293-0.947,2.242-2.238,2.252C17.64,15.384,17.521,15.382,17.398,15.382"/>
</svg>
