<?xml version="1.0" encoding="utf-8"?>
<!-- Generator: Adobe Illustrator 15.0.0, SVG Export Plug-In  -->
<!DOCTYPE svg PUBLIC "-//W3C//DTD SVG 1.1//EN" "http://www.w3.org/Graphics/SVG/1.1/DTD/svg11.dtd" [
	<!ENTITY ns_flows "http://ns.adobe.com/Flows/1.0/">
]>
<svg version="1.1"
	 xmlns="http://www.w3.org/2000/svg" xmlns:xlink="http://www.w3.org/1999/xlink" xmlns:a="http://ns.adobe.com/AdobeSVGViewerExtensions/3.0/"
	 x="0px" y="0px" width="16px" height="16px" viewBox="-3.266 -1.797 16 16" enable-background="new -3.266 -1.797 16 16"
	 xml:space="preserve">
<defs>
</defs>
<path fill="currentColor" d="M9.652,12.405H0V5.653h9.652V12.405z M3.384,8.525C3.152,8.747,2.947,8.942,2.753,9.127
	c0.497,0.5,0.993,1,1.467,1.479c0.917-0.917,1.841-1.841,2.753-2.752c-0.189-0.189-0.391-0.39-0.609-0.607
	C5.662,7.954,4.951,8.671,4.229,9.4C3.936,9.096,3.654,8.805,3.384,8.525"/>
<path fill="currentColor" d="M2.896,4.829H1.472C1.461,4.813,1.446,4.803,1.446,4.792c0-0.861-0.081-1.728,0.201-2.57
	C2.108,0.84,3.152,0.049,4.608,0.003c0.779-0.025,1.528,0.088,2.19,0.538C7.543,1.05,7.971,1.788,8.105,2.653
	c0.113,0.709,0.1,1.438,0.143,2.172H6.764c0-0.473,0.006-0.937-0.002-1.4c-0.004-0.205-0.02-0.413-0.059-0.613
	C6.563,2.065,6.1,1.636,5.361,1.497C4.95,1.418,4.539,1.428,4.135,1.53c-0.772,0.195-1.227,0.81-1.238,1.672
	C2.891,3.674,2.896,4.147,2.896,4.62V4.829z"/>
</svg>
