<?xml version="1.0" encoding="utf-8"?>
<!-- Generator: Adobe Illustrator 15.0.0, SVG Export Plug-In  -->
<!DOCTYPE svg PUBLIC "-//W3C//DTD SVG 1.1//EN" "http://www.w3.org/Graphics/SVG/1.1/DTD/svg11.dtd" [
	<!ENTITY ns_flows "http://ns.adobe.com/Flows/1.0/">
]>
<svg version="1.1"
	 xmlns="http://www.w3.org/2000/svg" xmlns:xlink="http://www.w3.org/1999/xlink" xmlns:a="http://ns.adobe.com/AdobeSVGViewerExtensions/3.0/"
	 x="0px" y="0px" width="32px" height="32px" viewBox="-6.793 -6.783 32 32" enable-background="new -6.793 -6.783 32 32"
	 xml:space="preserve">
<defs>
</defs>
<path fill="currentColor" d="M0,4.422c0.037-0.271,0.03-0.561,0.123-0.811C0.221,3.344,0.389,3.09,0.573,2.87
	c0.262-0.312,0.579-0.574,0.851-0.879c1.13-1.261,3.09-0.834,3.728,0.689c0.373,0.895,0.575,1.871,0.764,2.828
	c0.127,0.646-0.122,1.248-0.6,1.729c-0.189,0.19-0.372,0.391-0.573,0.568C4.585,7.943,4.548,8.073,4.616,8.278
	c0.987,2.956,2.951,4.924,5.922,5.883c0.154,0.049,0.256,0.033,0.365-0.088c0.188-0.205,0.389-0.396,0.586-0.591
	c0.602-0.59,1.322-0.78,2.131-0.582c0.756,0.185,1.51,0.392,2.256,0.618c1.367,0.416,2.041,2.051,1.35,3.262
	c-0.113,0.199-0.283,0.37-0.443,0.539c-0.264,0.277-0.551,0.532-0.807,0.814c-0.41,0.455-0.924,0.617-1.518,0.6
	C8.584,18.559,3.63,15.249,1.244,9.881C0.474,8.149,0.094,6.323,0,4.422"/>
<path fill="currentColor" d="M18.779,9.34h-1.154c-0.045-2.247-0.826-4.193-2.414-5.783c-1.588-1.589-3.531-2.374-5.784-2.421V0.008
	C13.896-0.205,18.789,3.691,18.779,9.34"/>
<path fill="currentColor" d="M9.424,4.653V3.518c2.859-0.127,5.853,2.36,5.837,5.812h-1.152c-0.039-1.263-0.473-2.375-1.377-3.283
	C11.826,5.137,10.718,4.694,9.424,4.653"/>
<path fill="currentColor" d="M9.423,8.163V7.041c0.868-0.124,2.309,0.71,2.325,2.291h-1.145C10.511,8.653,10.129,8.247,9.423,8.163"/>
</svg>
