<?xml version="1.0" encoding="utf-8"?>
<!-- Generator: Adobe Illustrator 15.0.0, SVG Export Plug-In  -->
<!DOCTYPE svg PUBLIC "-//W3C//DTD SVG 1.1//EN" "http://www.w3.org/Graphics/SVG/1.1/DTD/svg11.dtd" [
	<!ENTITY ns_flows "http://ns.adobe.com/Flows/1.0/">
]>
<svg version="1.1"
	 xmlns="http://www.w3.org/2000/svg" xmlns:xlink="http://www.w3.org/1999/xlink" xmlns:a="http://ns.adobe.com/AdobeSVGViewerExtensions/3.0/"
	 x="0px" y="0px" width="32px" height="32px" viewBox="-2.162 -6.154 32 32" enable-background="new -2.162 -6.154 32 32"
	 xml:space="preserve">
<defs>
</defs>
<path fill="currentColor" d="M12.811,12.508c-2.285,0-4.14,1.864-4.14,4.164c0,2.299,1.854,4.164,4.14,4.164
	c2.286,0,4.141-1.865,4.141-4.164C16.951,14.373,15.097,12.508,12.811,12.508 M12.811,18.301c-0.895,0-1.619-0.729-1.619-1.629
	s0.725-1.63,1.619-1.63c0.896,0,1.62,0.729,1.62,1.63S13.706,18.301,12.811,18.301"/>
<path fill="currentColor" d="M28,3.219V1.488c-3.12-0.579-7-0.002-7-0.002v5.858L4,0L3.417,1.152l16.5,6.966H1v4.057l-1,1.66v1.283h4.865
	l-0.342,0.981L0,16.131v0.986h5.528l0.503-2H7l2.777-4h5.507l2.879,4h8.831H28v-7.34l-5-0.404V2.922C23,2.922,25.827,2.887,28,3.219
	"/>
</svg>
