<?xml version="1.0" encoding="UTF-8" ?>
<!DOCTYPE svg PUBLIC "-//W3C//DTD SVG 1.1//EN" "http://www.w3.org/Graphics/SVG/1.1/DTD/svg11.dtd">
<svg width="132pt" height="132pt" viewBox="0 0 132 132" version="1.1" xmlns="http://www.w3.org/2000/svg">
<g id="#f6f7f8ff">
<path fill="#f6f7f8" opacity="1.00" d=" M 31.57 15.92 C 35.07 14.41 41.03 14.29 44.44 15.99 C 49.15 16.01 53.85 16.01 58.56 15.99 C 61.03 13.86 65.24 15.00 68.04 16.27 C 68.04 17.97 68.29 19.81 66.75 20.97 C 65.56 20.80 64.51 21.06 63.61 21.74 C 62.34 22.01 61.36 22.88 60.71 23.97 L 61.91 24.02 C 61.79 25.27 62.05 26.40 62.71 27.40 C 64.16 29.60 64.61 32.31 65.95 34.47 C 65.98 35.51 66.00 36.56 66.01 37.60 C 61.30 36.81 56.38 37.40 51.81 35.81 C 51.45 35.02 51.09 34.23 50.73 33.43 C 50.49 32.93 50.00 31.92 49.76 31.41 C 48.73 28.89 46.70 27.03 44.66 25.31 C 42.72 24.38 41.24 22.76 39.51 21.51 C 36.93 20.75 34.08 20.71 31.50 21.52 C 29.03 23.11 27.17 25.42 25.04 27.41 C 24.99 27.89 24.89 28.85 24.84 29.33 C 24.13 30.56 24.01 31.99 23.73 33.35 C 23.24 34.53 22.91 35.76 22.76 37.04 C 18.82 37.14 14.85 37.13 10.98 36.30 C 11.20 35.62 11.63 34.27 11.85 33.59 C 11.88 31.74 12.84 30.15 13.74 28.60 C 15.58 25.53 18.41 22.27 21.72 20.85 C 22.11 20.42 22.89 19.56 23.28 19.13 C 24.63 19.16 25.50 18.09 26.31 17.17 C 27.97 16.34 29.70 15.78 31.57 15.92 Z" />
</g>
<g id="#f5f5f7ff">
<path fill="#f5f5f7" opacity="1.00" d=" M 103.32 15.95 C 104.97 15.97 106.81 15.67 107.87 17.26 C 109.60 20.26 108.83 23.72 109.08 27.00 C 106.39 26.98 103.69 26.98 101.00 26.97 C 101.02 24.09 100.98 21.20 101.00 18.32 C 101.93 17.68 102.70 16.89 103.32 15.95 Z" />
</g>
<g id="#ecedf0ff">
<path fill="#ecedf0" opacity="1.00" d=" M 101.00 26.97 C 103.69 26.98 106.39 26.98 109.08 27.00 C 108.78 27.57 108.18 28.69 107.87 29.25 C 109.74 30.70 108.76 33.22 109.07 35.22 C 106.04 36.13 102.75 36.47 99.77 35.15 C 100.07 34.75 100.67 33.93 100.97 33.52 C 101.01 31.34 100.99 29.16 101.00 26.97 Z" />
</g>
<g id="#e3e6ebff">
<path fill="#e3e6eb" opacity="1.00" d=" M 99.37 35.02 L 99.77 35.15 C 102.75 36.47 106.04 36.13 109.07 35.22 C 109.66 35.42 110.84 35.80 111.43 35.99 C 117.28 36.54 123.57 34.73 129.05 37.27 C 129.26 39.40 129.01 41.97 126.40 42.26 C 125.36 43.37 123.79 42.90 122.47 43.00 C 119.97 41.30 115.12 41.39 112.54 42.94 C 112.02 42.97 110.97 43.03 110.45 43.06 C 110.10 43.30 109.40 43.77 109.04 44.01 C 106.14 44.10 103.22 44.10 100.35 43.64 L 99.51 43.08 C 99.00 43.05 97.97 42.97 97.46 42.93 C 93.94 40.77 89.03 42.61 84.97 42.01 C 81.65 42.54 79.10 37.14 83.60 36.74 C 88.33 34.37 95.01 37.78 99.37 35.02 Z" />
</g>
<g id="#eef0f2ff">
<path fill="#eef0f2" opacity="1.00" d=" M 10.98 36.30 C 14.85 37.13 18.82 37.14 22.76 37.04 C 23.02 37.69 23.56 38.99 23.83 39.64 C 23.92 40.07 24.10 40.92 24.19 41.35 C 25.03 43.39 25.23 45.63 26.15 47.66 C 26.86 48.84 27.58 50.02 28.47 51.07 C 23.70 52.86 18.62 51.39 13.69 51.91 L 13.19 51.94 C 12.41 50.16 12.29 48.06 11.05 46.53 C 11.01 45.16 11.00 43.80 10.98 42.43 C 9.61 41.47 9.62 40.51 10.99 39.57 C 11.00 38.48 10.99 37.39 10.98 36.30 Z" />
<path fill="#eef0f2" opacity="1.00" d=" M 51.81 35.81 C 56.38 37.40 61.30 36.81 66.01 37.60 C 65.64 39.81 66.86 42.62 65.18 44.42 C 65.09 45.94 64.41 47.28 63.72 48.60 C 63.48 49.19 63.01 50.37 62.77 50.95 L 62.29 51.00 C 58.83 51.34 55.36 51.59 51.89 51.87 C 51.96 51.33 52.10 50.23 52.17 49.68 C 52.85 48.43 52.99 47.01 53.25 45.65 C 54.20 44.31 54.28 42.58 53.13 41.33 C 53.04 40.44 52.95 39.55 52.86 38.67 C 52.59 37.95 52.07 36.53 51.81 35.81 Z" />
</g>
<g id="#dbdfe5ff">
<path fill="#dbdfe5" opacity="1.00" d=" M 100.35 43.64 C 103.22 44.10 106.14 44.10 109.04 44.01 C 108.67 45.40 109.87 47.76 107.89 48.25 C 109.43 49.41 108.94 51.35 109.03 53.00 C 106.36 53.01 103.68 53.01 101.00 53.01 C 100.51 50.28 102.14 46.62 99.98 44.55 L 100.35 43.64 Z" />
</g>
<g id="#e9ebefff">
<path fill="#e9ebef" opacity="1.00" d=" M 13.69 51.91 C 18.62 51.39 23.70 52.86 28.47 51.07 C 30.86 53.31 33.17 55.62 35.42 57.98 C 36.38 58.02 37.35 58.05 38.31 58.09 C 39.80 59.44 41.97 59.21 43.59 58.29 C 44.58 58.01 45.56 57.73 46.54 57.43 C 49.02 56.24 49.43 53.11 51.89 51.87 C 55.36 51.59 58.83 51.34 62.29 51.00 C 61.67 51.84 60.97 52.61 60.20 53.31 C 58.90 56.15 56.21 59.08 53.26 60.12 C 52.19 61.29 51.68 62.81 50.74 64.07 L 49.89 63.88 C 45.33 62.90 39.69 61.75 36.06 65.54 L 35.03 66.36 C 35.01 65.78 34.98 64.60 34.97 64.01 C 34.34 64.00 33.09 63.98 32.46 63.97 C 31.63 62.46 29.80 63.18 28.45 62.91 C 27.28 61.29 24.96 62.59 23.58 61.31 C 21.42 60.75 20.58 58.09 18.30 57.82 C 17.29 56.80 15.96 55.86 15.83 54.31 C 14.99 53.62 14.28 52.82 13.69 51.91 Z" />
</g>
<g id="#d2d6deff">
<path fill="#d2d6de" opacity="1.00" d=" M 101.00 53.01 C 103.68 53.01 106.36 53.01 109.03 53.00 C 109.00 55.17 109.01 57.34 108.95 59.51 C 108.81 63.54 103.16 66.45 101.72 61.41 C 100.20 58.93 101.33 55.77 101.00 53.01 Z" />
</g>
<g id="#e3e5eaff">
<path fill="#e3e5ea" opacity="1.00" d=" M 36.06 65.54 C 39.69 61.75 45.33 62.90 49.89 63.88 C 49.80 65.17 50.06 66.35 50.68 67.42 C 51.41 69.93 54.38 70.88 55.17 73.29 C 49.94 76.85 42.95 74.26 37.00 75.00 C 36.56 72.59 38.08 69.29 35.98 67.54 C 36.00 67.04 36.04 66.04 36.06 65.54 Z" />
</g>
<g id="#dee1e6ff">
<path fill="#dee1e6" opacity="1.00" d=" M 55.17 73.29 L 55.70 72.85 C 56.09 73.35 56.88 74.37 57.27 74.87 C 60.92 76.55 64.10 80.21 66.26 83.60 C 66.92 85.07 68.32 86.40 67.98 88.15 C 64.70 89.46 61.31 90.46 57.89 91.33 C 56.52 89.95 55.12 88.61 53.70 87.29 C 51.45 86.15 49.37 84.68 47.44 83.05 C 46.53 83.00 45.61 82.94 44.69 82.87 C 42.30 81.35 39.35 82.14 36.70 82.10 C 34.11 83.41 30.91 82.80 28.52 84.73 C 28.03 84.98 27.05 85.49 26.56 85.75 C 26.03 85.98 24.99 86.43 24.46 86.66 C 22.83 87.59 21.47 88.91 20.17 90.25 C 16.93 90.15 12.97 90.41 10.92 87.34 C 11.75 84.74 15.23 83.87 17.39 82.23 C 20.47 81.63 22.55 79.23 25.57 78.82 C 28.92 76.73 33.57 79.28 37.00 76.74 C 37.00 76.30 37.00 75.44 37.00 75.00 C 42.95 74.26 49.94 76.85 55.17 73.29 Z" />
</g>
<g id="#d8dce2ff">
<path fill="#d8dce2" opacity="1.00" d=" M 10.41 86.78 L 10.92 87.34 C 12.97 90.41 16.93 90.15 20.17 90.25 C 19.21 91.27 18.31 92.36 17.50 93.50 C 16.60 96.65 17.11 99.97 17.00 103.20 C 12.44 104.52 7.63 103.94 2.95 103.93 C 3.26 101.84 2.27 99.27 3.82 97.56 C 3.93 95.74 4.83 94.14 5.73 92.60 C 6.51 90.12 9.11 88.94 10.41 86.78 Z" />
</g>
<g id="#d8dce3ff">
<path fill="#d8dce3" opacity="1.00" d=" M 57.89 91.33 C 61.31 90.46 64.70 89.46 67.98 88.15 L 69.00 87.76 C 69.00 89.02 69.01 90.28 69.03 91.54 C 70.62 94.36 70.76 100.01 68.93 102.57 C 66.04 103.02 63.11 103.05 60.20 103.10 L 60.34 102.69 C 61.69 99.64 61.11 96.18 59.30 93.46 C 58.85 92.74 58.38 92.02 57.89 91.33 Z" />
</g>
<g id="#d2d5ddff">
<path fill="#d2d5dd" opacity="1.00" d=" M 17.00 103.20 L 17.65 103.02 C 18.38 104.67 19.47 106.12 20.29 107.73 C 21.51 109.10 22.81 110.45 24.46 111.30 C 25.46 111.76 26.46 112.23 27.44 112.73 C 33.03 116.33 40.31 115.22 46.53 114.37 C 48.25 113.84 49.92 113.17 51.47 112.26 C 51.97 112.01 52.96 111.50 53.45 111.25 C 53.96 111.03 54.98 110.59 55.49 110.37 C 57.62 109.50 58.47 107.35 59.32 105.39 C 59.54 104.82 59.98 103.67 60.20 103.10 C 63.11 103.05 66.04 103.02 68.93 102.57 C 68.77 103.28 68.45 104.71 68.29 105.43 C 68.04 105.92 67.54 106.92 67.28 107.42 C 67.04 107.92 66.55 108.91 66.31 109.41 C 63.39 114.48 57.71 117.55 52.53 119.78 C 51.36 119.80 50.36 120.18 49.52 120.93 C 47.87 121.20 45.75 120.38 44.53 121.89 C 43.18 122.16 41.39 121.51 40.52 122.96 C 38.18 123.01 35.83 123.02 33.48 122.96 C 32.66 122.17 31.65 121.79 30.46 121.81 C 29.44 120.64 27.80 121.11 26.47 120.89 C 24.25 118.94 20.67 120.98 18.39 118.72 C 17.90 118.47 16.91 117.98 16.42 117.73 C 15.11 117.00 13.77 116.33 12.38 115.76 C 9.16 114.20 6.49 111.46 4.63 108.44 C 4.11 106.92 3.73 105.35 2.95 103.93 C 7.63 103.94 12.44 104.52 17.00 103.20 Z" />
</g>
</svg>
