<?xml version="1.0" encoding="utf-8"?>
<!-- Generator: Adobe Illustrator 15.0.0, SVG Export Plug-In  -->
<!DOCTYPE svg PUBLIC "-//W3C//DTD SVG 1.1//EN" "http://www.w3.org/Graphics/SVG/1.1/DTD/svg11.dtd" [
	<!ENTITY ns_flows "http://ns.adobe.com/Flows/1.0/">
]>
<svg version="1.1"
	 xmlns="http://www.w3.org/2000/svg" xmlns:xlink="http://www.w3.org/1999/xlink" xmlns:a="http://ns.adobe.com/AdobeSVGViewerExtensions/3.0/"
	 x="0px" y="0px" width="64px" height="64px" viewBox="-10.468 -9.641 64 64" enable-background="new -10.468 -9.641 64 64"
	 xml:space="preserve">
<defs>
</defs>
<path fill="currentColor" d="M15.271,30.539C6.944,30.557,0.077,23.736,0,15.494C-0.077,6.981,6.734,0.017,15.246,0
	c8.365-0.017,15.281,6.805,15.294,15.067C30.552,23.686,23.808,30.521,15.271,30.539 M24.519,21.907
	c-0.155-0.118-0.28-0.217-0.409-0.309c-2.806-2.001-5.609-4.009-8.427-5.993c-0.316-0.224-0.418-0.45-0.418-0.826
	c0.016-3.431,0.01-6.862,0.01-10.293V3.919C11.367,3.713,6.05,6.313,4.33,12.034c-1.616,5.373,0.978,11.128,6.1,13.565
	C15.333,27.934,21.57,26.313,24.519,21.907"/>
<path fill="currentColor" d="M42.384,31.113c0,3.734,0.002,7.469,0,11.201c0,1.455-0.942,2.396-2.401,2.4
	c-0.853,0.004-1.707,0.004-2.56,0c-1.446-0.004-2.399-0.951-2.404-2.412c-0.008-2.648-0.002-5.297-0.002-7.947
	c0-4.729-0.002-9.461,0-14.188c0-1.809,0.865-2.668,2.685-2.668c0.8,0,1.601-0.008,2.4,0.002c1.319,0.018,2.28,0.987,2.282,2.305
	C42.386,23.575,42.384,27.346,42.384,31.113"/>
<path fill="currentColor" d="M31.413,37.83c0,1.51,0.003,3.021-0.001,4.533c-0.003,1.393-0.945,2.342-2.335,2.352
	c-0.889,0.006-1.778,0.006-2.667,0c-1.275-0.01-2.181-0.818-2.339-2.092c-0.026-0.211-0.028-0.424-0.029-0.637
	c-0.001-2.773,0.036-5.547-0.014-8.32c-0.032-1.762,1.101-2.863,2.708-2.73c0.759,0.061,1.527,0.008,2.292,0.01
	c1.467,0.002,2.382,0.924,2.385,2.404C31.415,34.842,31.413,36.336,31.413,37.83"/>
<path fill="currentColor" d="M13.121,39.488c0-0.959-0.004-1.918,0.002-2.877c0.01-1.297,0.947-2.248,2.25-2.268
	c0.924-0.014,1.849-0.01,2.772,0c1.238,0.012,2.121,0.783,2.302,2c0.028,0.193,0.043,0.389,0.045,0.584
	c0.002,1.74,0.01,3.48-0.002,5.223c-0.012,1.668-0.925,2.564-2.582,2.566c-0.834,0-1.67,0.006-2.505-0.002
	c-1.325-0.014-2.272-0.965-2.28-2.295C13.117,41.443,13.121,40.467,13.121,39.488"/>
</svg>
