<?xml version="1.0" encoding="utf-8"?>
<!-- Generator: Adobe Illustrator 15.0.0, SVG Export Plug-In  -->
<!DOCTYPE svg PUBLIC "-//W3C//DTD SVG 1.1//EN" "http://www.w3.org/Graphics/SVG/1.1/DTD/svg11.dtd" [
	<!ENTITY ns_flows "http://ns.adobe.com/Flows/1.0/">
]>
<svg version="1.1"
	 xmlns="http://www.w3.org/2000/svg" xmlns:xlink="http://www.w3.org/1999/xlink" xmlns:a="http://ns.adobe.com/AdobeSVGViewerExtensions/3.0/"
	 x="0px" y="0px" width="64px" height="64px" viewBox="-1.443 -8.309 64 64" enable-background="new -1.443 -8.309 64 64"
	 xml:space="preserve">
<defs>
</defs>
<path fill="currentColor" d="M54.405,35.468c-0.547,0.574-0.922,1.313-1.367,1.358c-0.8,0.08-1.692-0.134-2.45-0.454
	c-0.656-0.279-1.209-0.844-1.753-1.344c-0.982-0.9-1.744,0.135-2.583,0.31c-0.205,0.043-0.305,0.75-0.387,1.165
	c-0.057,0.291,0.003,0.604,0.004,0.907c0.002,0.605,0.215,1.352-0.063,1.774c-0.261,0.396-1.092,0.367-1.586,0.666
	c-0.888,0.538-1.689,1.218-2.574,1.762c-0.361,0.223-0.857,0.367-1.272,0.332c-1.362-0.117-2.713-0.196-3.987-0.92
	c-0.53-0.302-1.42,0.026-2.284,0.076c0.229,0.406,0.381,0.678,0.552,0.98c-0.865,0.512-1.6,1.307-2.8,0.54
	c-0.313-0.2-1.104,0.135-1.559,0.413c-0.92,0.562-1.749,0.528-2.604-0.063c-0.027-0.019-0.062-0.03-0.093-0.04
	c-1.952-0.631-3.268-1.872-3.771-3.907c-0.152-0.614-0.433-0.956-1.211-0.807c-0.854,0.163-1.938-0.939-2.142-2.111
	c-1.423-0.15-2.882-0.33-4.346-0.433c-0.205-0.014-0.534,0.306-0.637,0.544c-0.261,0.609-0.426,1.259-0.635,1.912
	c-1.775-0.607-3.452-1.208-4.15-3.111c-0.233-0.64-0.696-0.811-1.351-0.761c-0.733,0.056-1.475,0.013-2.331,0.013
	c-0.123,1.149-0.297,2.238-0.337,3.332c-0.023,0.641-0.282,0.933-0.857,0.999c-0.915,0.106-1.286,0.65-1.423,1.519
	c-0.124,0.79-0.385,1.558-0.586,2.335c-0.115,0.089-0.229,0.179-0.344,0.268c-0.152-0.284-0.335-0.556-0.453-0.854
	c-1.006-2.524-2-5.054-3.026-7.656c1.049-0.505,2.001-0.993,2.979-1.424c0.523-0.231,0.666-0.528,0.555-1.099
	c-0.298-1.519-0.43-3.076-0.816-4.569c-0.306-1.183-0.07-2.1,0.724-2.945c0.501-0.536,0.714-1.116,0.312-1.811
	c-0.065-0.112-0.124-0.255-0.117-0.378c0.031-0.495,2.065-2.278,2.563-2.344c1.261-0.165,2.393-0.615,3.151-1.71
	c0.901-1.301,1.752-2.639,2.688-3.914c0.328-0.446,0.844-0.756,1.451-1.282c0.441,1.994,0.816,3.689,1.188,5.368
	c-1.839,1.096-1.88-0.755-2.688-1.666c-0.288,1.132-0.543,2.135-0.813,3.192c0.342,0.032,0.574,0.085,0.803,0.069
	c2.076-0.145,4.098,0.141,6.063,0.797c0.668,0.223,1.256,0.209,1.772-0.28c0.598-0.567,1.023-0.331,1.497,0.196
	c0.582,0.647,1.232,1.233,1.985,1.976c0.397-1.672,0.771-3.246,1.177-4.96c0.657,0.623,1.25,1.185,1.927,1.825
	c0.6-1.232,1.762-1.552,2.838-2.146c1.427-0.786,2.883-1.878,3.403-3.724c1.019,0.266,2.206-0.06,2.79,1.104
	c0.151,0.302,0.209,0.762,0.092,1.065c-0.342,0.891-0.794,1.74-1.334,2.882c1.436-0.721,2.598-1.294,3.746-1.894
	c0.15-0.079,0.276-0.286,0.328-0.459c0.341-1.128,1.338-1.384,2.186-0.532c0.357,0.358,0.676,0.752,1.13,1.262
	c0.74-1.118,1.966-1.708,1.86-3.197c-0.02-0.271,0.29-0.648,0.549-0.842c1.153-0.861,2.431-1.553,3.204-2.872
	c0.159-0.272,0.807-0.354,1.229-0.355C49,9.547,49.329,9.38,49.581,8.837c0.678-1.466,1.315-2.968,2.165-4.332
	C52.69,2.991,53.854,1.614,55.051,0c0.499,0.765,0.805,1.233,1.165,1.79c-0.338,0.434-0.682,0.879-1.027,1.322
	c-0.781,0.998-0.454,1.979,0.784,2.166c0.617,0.095,0.814,0.398,0.953,0.949c0.69,2.75,1.265,5.506,1.073,8.374
	c-0.03,0.448,0.162,1.025,0.458,1.361c1.573,1.786,2.3,3.904,2.656,6.419c-1.248-0.792-2.406-1.48-3.501-2.256
	c-0.244-0.174-0.303-0.649-0.389-0.999c-0.484-1.954-0.95-3.913-1.419-5.858c-0.842-0.138-1.112,0.226-1.068,0.939
	c0.018,0.303-0.013,0.607,0.002,0.91c0.091,1.938-0.264,3.751-1.583,5.251c-1.596,1.815-1.496,4.102-1.807,6.277
	c-0.053,0.366-0.126,0.737-0.115,1.104c0.016,0.528-0.06,1.4,0.188,1.515c0.74,0.343,1.692,0.778,2.25-0.501
	c0.993,1.019,2.016,1.834,2.204,3.327c0.164,1.296,0.703,2.548,0.827,3.843c0.149,1.558,0.035,3.14,0.035,4.794h-1.685
	C54.841,39.009,54.633,37.315,54.405,35.468"/>
</svg>
