<?xml version="1.0" encoding="utf-8"?>
<!-- Generator: Adobe Illustrator 15.0.0, SVG Export Plug-In  -->
<!DOCTYPE svg PUBLIC "-//W3C//DTD SVG 1.1//EN" "http://www.w3.org/Graphics/SVG/1.1/DTD/svg11.dtd" [
	<!ENTITY ns_flows "http://ns.adobe.com/Flows/1.0/">
]>
<svg version="1.1"
	 xmlns="http://www.w3.org/2000/svg" xmlns:xlink="http://www.w3.org/1999/xlink" xmlns:a="http://ns.adobe.com/AdobeSVGViewerExtensions/3.0/"
	 x="0px" y="0px" width="32px" height="32px" viewBox="-6.659 -6.73 32 32" enable-background="new -6.659 -6.73 32 32"
	 xml:space="preserve">
<defs>
</defs>
<path fill="currentColor" d="M7.422,14.854c-1.983,0-3.849-0.773-5.251-2.176c-2.896-2.896-2.896-7.607,0-10.503
	C3.574,0.772,5.439,0,7.422,0s3.848,0.772,5.25,2.175c2.896,2.896,2.896,7.606,0,10.503C11.271,14.081,9.406,14.854,7.422,14.854
	 M7.422,1.449c-1.597,0-3.098,0.622-4.227,1.75c-2.331,2.331-2.331,6.123,0,8.454c1.129,1.129,2.63,1.752,4.227,1.752
	c1.596,0,3.096-0.623,4.225-1.752c2.332-2.331,2.332-6.123,0-8.454C10.519,2.071,9.018,1.449,7.422,1.449"/>
<rect x="12.439" y="14.544" transform="matrix(-0.7071 -0.7071 0.7071 -0.7071 16.5032 38.2236)" fill="currentColor" width="7.458" height="2.299"/>
</svg>
