<?xml version="1.0" encoding="utf-8"?>
<!-- Generator: Adobe Illustrator 15.0.0, SVG Export Plug-In  -->
<!DOCTYPE svg PUBLIC "-//W3C//DTD SVG 1.1//EN" "http://www.w3.org/Graphics/SVG/1.1/DTD/svg11.dtd" [
	<!ENTITY ns_flows "http://ns.adobe.com/Flows/1.0/">
]>
<svg version="1.1"
	 xmlns="http://www.w3.org/2000/svg" xmlns:xlink="http://www.w3.org/1999/xlink" xmlns:a="http://ns.adobe.com/AdobeSVGViewerExtensions/3.0/"
	 x="0px" y="0px" width="32px" height="32px" viewBox="-7.451 -6.362 32 32" enable-background="new -7.451 -6.362 32 32"
	 xml:space="preserve">
<defs>
</defs>
<path fill="currentColor" d="M16.436,20.011H1.314C0.591,20.011,0,19.421,0,18.697c0-0.723,0.591-1.313,1.314-1.313h15.122
	c0.725,0,1.314,0.591,1.314,1.313C17.75,19.421,17.16,20.011,16.436,20.011"/>
<path fill="currentColor" d="M16.436,2.628H1.314C0.591,2.628,0,2.037,0,1.314C0,0.591,0.591,0,1.314,0h15.122
	c0.725,0,1.314,0.591,1.314,1.314C17.75,2.037,17.16,2.628,16.436,2.628"/>
<path fill="currentColor" d="M15.818,14.281L2.428,16.859c-0.71,0.136-1.402-0.333-1.539-1.042c-0.136-0.71,0.333-1.402,1.042-1.539
	L15.322,11.7c0.709-0.136,1.402,0.332,1.539,1.043C16.998,13.452,16.529,14.145,15.818,14.281"/>
<path fill="currentColor" d="M15.818,9.999L2.428,12.577c-0.71,0.137-1.402-0.332-1.539-1.041c-0.136-0.711,0.333-1.403,1.042-1.539
	l13.391-2.578c0.709-0.137,1.402,0.332,1.539,1.042S16.529,9.862,15.818,9.999"/>
<path fill="currentColor" d="M15.818,5.718L2.428,8.296c-0.71,0.137-1.402-0.333-1.539-1.042c-0.136-0.71,0.333-1.403,1.042-1.539
	l13.391-2.578c0.709-0.136,1.402,0.333,1.539,1.042C16.998,4.89,16.529,5.581,15.818,5.718"/>
</svg>
