<?xml version="1.0" encoding="utf-8"?>
<!-- Generator: Adobe Illustrator 15.0.0, SVG Export Plug-In  -->
<!DOCTYPE svg PUBLIC "-//W3C//DTD SVG 1.1//EN" "http://www.w3.org/Graphics/SVG/1.1/DTD/svg11.dtd" [
	<!ENTITY ns_flows "http://ns.adobe.com/Flows/1.0/">
]>
<svg version="1.1"
	 xmlns="http://www.w3.org/2000/svg" xmlns:xlink="http://www.w3.org/1999/xlink" xmlns:a="http://ns.adobe.com/AdobeSVGViewerExtensions/3.0/"
	 x="0px" y="0px" width="32px" height="32px" viewBox="-5.389 -5.714 32 32" enable-background="new -5.389 -5.714 32 32"
	 xml:space="preserve">
<defs>
</defs>
<path fill="currentColor" d="M10.458,0C4.683,0,0,4.709,0,10.519c0,5.81,4.683,10.519,10.458,10.519s10.458-4.709,10.458-10.519
	C20.916,4.709,16.233,0,10.458,0 M10.458,16.446c-3.255,0-5.895-2.652-5.895-5.927c0-3.274,2.64-5.929,5.895-5.929
	s5.895,2.654,5.895,5.929C16.353,13.794,13.713,16.446,10.458,16.446"/>
<path fill="currentColor" d="M10.458,7.198c-1.824,0-3.302,1.486-3.302,3.32c0,1.834,1.478,3.323,3.302,3.323s3.303-1.488,3.303-3.323
	C13.761,8.684,12.282,7.198,10.458,7.198 M10.458,11.772c-0.689,0-1.247-0.561-1.247-1.254c0-0.692,0.558-1.254,1.247-1.254
	s1.247,0.562,1.247,1.254C11.705,11.211,11.147,11.772,10.458,11.772"/>
</svg>
