<?xml version="1.0" encoding="utf-8"?>
<!-- Generator: Adobe Illustrator 15.0.0, SVG Export Plug-In  -->
<!DOCTYPE svg PUBLIC "-//W3C//DTD SVG 1.1//EN" "http://www.w3.org/Graphics/SVG/1.1/DTD/svg11.dtd" [
	<!ENTITY ns_flows "http://ns.adobe.com/Flows/1.0/">
]>
<svg version="1.1"
	 xmlns="http://www.w3.org/2000/svg" xmlns:xlink="http://www.w3.org/1999/xlink" xmlns:a="http://ns.adobe.com/AdobeSVGViewerExtensions/3.0/"
	 x="0px" y="0px" width="32px" height="32px" viewBox="-9.033 -5.946 32 32" enable-background="new -9.033 -5.946 32 32"
	 xml:space="preserve">
<defs>
</defs>
<path fill-rule="evenodd" clip-rule="evenodd" fill="#FFFFFF" d="M0.04,0h9.397c3.093,0,5.725,1.515,5.722,4.577
	c-0.002,2.559-0.928,3.554-2.831,4.679c0.163,0.134,1.253,0.459,1.619,0.64c0.587,0.289,0.931,0.581,1.317,0.973
	c1.08,1.098,1.28,2.102,1.28,3.823c0,3.994-3.864,6.002-7.585,6.002H0L0.04,0z M5.146,5.437v2.688c2.42,0,4.694,0.318,4.694-2.306
	c0-2.43-2.572-2.03-4.696-2.03L5.146,5.437z M5.146,16.885c2.651,0,5.929,0.437,5.986-2.574c0.061-3.142-3.365-2.575-5.984-2.575
	L5.146,16.885z"/>
</svg>
