<?xml version="1.0" encoding="utf-8"?>
<!-- Generator: Adobe Illustrator 15.0.0, SVG Export Plug-In  -->
<!DOCTYPE svg PUBLIC "-//W3C//DTD SVG 1.1//EN" "http://www.w3.org/Graphics/SVG/1.1/DTD/svg11.dtd" [
	<!ENTITY ns_flows "http://ns.adobe.com/Flows/1.0/">
]>
<svg version="1.1"
	 xmlns="http://www.w3.org/2000/svg" xmlns:xlink="http://www.w3.org/1999/xlink" xmlns:a="http://ns.adobe.com/AdobeSVGViewerExtensions/3.0/"
	 x="0px" y="0px" width="32px" height="32px" viewBox="-5.597 -3.865 32 32" enable-background="new -5.597 -3.865 32 32"
	 xml:space="preserve">
<defs>
</defs>
<polygon fill="#FFFFFF" points="7.649,0 5.633,0 4.405,5.137 4.279,5.137 2.993,0 0.993,0 0.993,0.001 3.354,7.759 3.354,12.851 
	5.34,12.851 5.34,7.519 "/>
<path fill="#FFFFFF" d="M8.254,12.376c0.46,0.475,1.075,0.713,1.843,0.715h0.017c0.797-0.002,1.422-0.234,1.879-0.693
	c0.455-0.46,0.682-1.096,0.684-1.908V5.591c-0.002-0.722-0.232-1.313-0.697-1.771c-0.467-0.459-1.064-0.688-1.793-0.688
	c-0.802,0-1.44,0.217-1.913,0.653C7.797,4.22,7.56,4.805,7.56,5.539l0.001,4.915C7.561,11.259,7.792,11.899,8.254,12.376
	 M9.374,5.468L9.374,5.468c0-0.207,0.068-0.375,0.202-0.503c0.134-0.126,0.308-0.19,0.523-0.19c0.232,0,0.422,0.064,0.564,0.19
	c0.144,0.128,0.216,0.296,0.216,0.503v5.163c0,0.255-0.069,0.454-0.211,0.599c-0.14,0.146-0.33,0.219-0.569,0.219
	c-0.232,0-0.411-0.07-0.537-0.213s-0.188-0.344-0.188-0.604V5.468z"/>
<path fill="#FFFFFF" d="M17.442,3.371v7.197c-0.166,0.205-0.348,0.376-0.547,0.509c-0.197,0.134-0.361,0.2-0.49,0.2
	c-0.166,0-0.285-0.05-0.357-0.151c-0.074-0.101-0.111-0.263-0.111-0.487V3.371h-1.762v7.928c0,0.563,0.102,0.984,0.309,1.267
	c0.207,0.281,0.514,0.422,0.92,0.422c0.33,0,0.672-0.1,1.025-0.301c0.35-0.201,0.688-0.496,1.014-0.881v1.045h1.762v-9.48H17.442z"
	/>
<path fill="#FFFFFF" d="M10.283,12.135c-0.117,0-0.233,0-0.35,0c-0.117,0-0.234,0-0.352,0c-2.236,0-4.433,0.043-6.58,0.132
	c-1.584,0-2.868,1.271-2.868,2.836c-0.096,1.24-0.136,2.479-0.134,3.72c-0.002,1.239,0.038,2.479,0.134,3.721
	c0,1.565,1.284,2.835,2.868,2.835c2.157,0.09,4.363,0.132,6.611,0.132c0.107,0,0.213,0,0.32,0c0.105,0,0.212,0,0.319,0
	c2.247,0,4.452-0.042,6.612-0.132c1.582,0,2.867-1.27,2.867-2.835c0.096-1.241,0.137-2.481,0.135-3.721
	c0.002-1.24-0.039-2.479-0.135-3.72c0-1.565-1.285-2.836-2.867-2.836C14.716,12.178,12.521,12.135,10.283,12.135"/>
<path fill="#989898" d="M6.687,14.303H2.521v1.275h1.404v7.512h1.357v-7.512h1.404V14.303z M8.904,21.529L8.904,21.529
	c-0.112,0.142-0.237,0.258-0.372,0.349c-0.136,0.092-0.248,0.137-0.336,0.137c-0.113,0-0.195-0.034-0.245-0.104
	c-0.051-0.067-0.077-0.18-0.077-0.334v-4.969H6.67v5.419c0,0.386,0.07,0.675,0.213,0.868c0.141,0.192,0.351,0.289,0.629,0.289
	c0.226,0,0.46-0.069,0.7-0.206c0.239-0.139,0.471-0.339,0.692-0.604v0.716h1.206v-6.482H8.904V21.529z M13.575,16.526L13.575,16.526
	c-0.188,0-0.371,0.052-0.555,0.155c-0.182,0.103-0.355,0.253-0.518,0.45v-2.828h-1.216v8.787h1.216v-0.497
	c0.158,0.196,0.33,0.343,0.514,0.437c0.186,0.095,0.395,0.143,0.631,0.143c0.359,0,0.631-0.122,0.82-0.366
	c0.188-0.245,0.281-0.598,0.281-1.059v-3.596c0-0.53-0.1-0.933-0.301-1.211C14.247,16.665,13.956,16.526,13.575,16.526
	 M13.508,21.571L13.508,21.571c0,0.207-0.035,0.356-0.104,0.447c-0.07,0.091-0.178,0.137-0.326,0.137
	c-0.102,0-0.197-0.023-0.291-0.07c-0.092-0.047-0.186-0.123-0.285-0.228v-4.04c0.082-0.089,0.164-0.154,0.248-0.197
	c0.084-0.042,0.17-0.063,0.256-0.063c0.164,0,0.287,0.057,0.373,0.17s0.129,0.279,0.129,0.499V21.571z M19.204,20L19.204,20v-1.649
	c0-0.615-0.148-1.086-0.443-1.414c-0.295-0.329-0.721-0.492-1.271-0.492c-0.539,0-0.979,0.177-1.318,0.53
	c-0.342,0.354-0.512,0.813-0.512,1.376v2.91c0,0.624,0.154,1.113,0.465,1.471c0.311,0.355,0.734,0.534,1.273,0.534
	c0.602,0,1.051-0.167,1.354-0.504s0.453-0.837,0.453-1.501v-0.487h-1.24v0.45c0,0.382-0.039,0.628-0.119,0.739
	c-0.078,0.111-0.221,0.167-0.42,0.167c-0.191,0-0.326-0.064-0.406-0.197c-0.08-0.131-0.119-0.368-0.119-0.709V20H19.204z
	 M16.899,18.338L16.899,18.338c0-0.271,0.043-0.466,0.125-0.583c0.084-0.117,0.221-0.177,0.414-0.177c0.182,0,0.316,0.06,0.4,0.177
	s0.125,0.313,0.125,0.583v0.657h-1.064V18.338z"/>
</svg>
